<svg xmlns="http://www.w3.org/2000/svg" xmlns:xlink="http://www.w3.org/1999/xlink" width="400" height="321" viewBox="0 0 400 321">
  <defs>
    <linearGradient id="linear-gradient" x1="0.814" y1="0.117" x2="0.236" y2="0.921" gradientUnits="objectBoundingBox">
      <stop offset="0" stop-color="#be79ca"/>
      <stop offset="1" stop-color="#371f63"/>
    </linearGradient>
    <clipPath id="clip-path">
      <path id="Trazado_873802" data-name="Trazado 873802" d="M0,0H400V321L283.636,288.239S248.387,311.13,210,312.885s-68.832-10.82-68.832-10.82L0,321Z" transform="translate(1020 5255)" fill="#fff" stroke="#707070" stroke-width="1"/>
    </clipPath>
    <clipPath id="clip-path-2">
      <rect id="Rectángulo_401212" data-name="Rectángulo 401212" width="307.748" height="349" fill="none"/>
    </clipPath>
    <clipPath id="clip-path-4">
      <rect id="Rectángulo_401202" data-name="Rectángulo 401202" width="122.386" height="41.307" fill="none"/>
    </clipPath>
    <clipPath id="clip-path-5">
      <rect id="Rectángulo_401203" data-name="Rectángulo 401203" width="120.52" height="41.307" fill="none"/>
    </clipPath>
    <clipPath id="clip-path-6">
      <rect id="Rectángulo_401204" data-name="Rectángulo 401204" width="30.993" height="27.591" fill="none"/>
    </clipPath>
    <clipPath id="clip-path-7">
      <rect id="Rectángulo_401205" data-name="Rectángulo 401205" width="95.523" height="141.375" fill="none"/>
    </clipPath>
    <clipPath id="clip-path-9">
      <rect id="Rectángulo_401207" data-name="Rectángulo 401207" width="93.379" height="36.817" fill="none"/>
    </clipPath>
    <clipPath id="clip-path-10">
      <rect id="Rectángulo_401208" data-name="Rectángulo 401208" width="2.531" height="20.573" fill="none"/>
    </clipPath>
    <clipPath id="clip-path-11">
      <rect id="Rectángulo_401209" data-name="Rectángulo 401209" width="11.269" height="19.746" fill="none"/>
    </clipPath>
    <clipPath id="clip-path-12">
      <rect id="Rectángulo_401210" data-name="Rectángulo 401210" width="25.349" height="26.218" fill="none"/>
    </clipPath>
    <clipPath id="clip-path-13">
      <rect id="Rectángulo_401213" data-name="Rectángulo 401213" width="49.656" height="49.097" transform="translate(0 0)" fill="none"/>
    </clipPath>
  </defs>
  <g id="Grupo_1102802" data-name="Grupo 1102802" transform="translate(-911 -18999.916)">
    <g id="Grupo_1100849" data-name="Grupo 1100849" transform="translate(-109 13744.916)">
      <g id="Grupo_1099960" data-name="Grupo 1099960" transform="translate(13718.387 17874.502)">
        <path id="Trazado_145968" data-name="Trazado 145968" d="M66.711,0a66.711,66.711,0,1,0,66.711,66.711A66.711,66.711,0,0,0,66.711,0Z" transform="translate(-12688.135 -12445.871)" fill="#75baf1" opacity="0.444"/>
        <path id="Trazado_145969" data-name="Trazado 145969" d="M45.584,0A45.584,45.584,0,1,0,91.168,45.584,45.584,45.584,0,0,0,45.584,0Z" transform="translate(-12426.826 -12590.302)" fill="#75baf1" opacity="0.444"/>
        <rect id="Rectángulo_34812" data-name="Rectángulo 34812" width="400" height="300" transform="translate(-12698.387 -12607.222)" fill="none"/>
        <path id="Trazado_145967" data-name="Trazado 145967" d="M150.485,0A150.485,150.485,0,1,0,300.971,150.485,150.485,150.485,0,0,0,150.485,0Z" transform="translate(-12648.872 -12607.707)" fill="url(#linear-gradient)"/>
        <path id="Trazado_145971" data-name="Trazado 145971" d="M12.533,0A12.533,12.533,0,1,0,25.066,12.533,12.533,12.533,0,0,0,12.533,0Z" transform="translate(-12372.968 -12357.124)" fill="#75baf1"/>
        <path id="Elipse_4044" data-name="Elipse 4044" d="M17,4.594A12.4,12.4,0,1,1,4.594,17,12.417,12.417,0,0,1,17,4.594M17,0a17,17,0,1,0,17,17A17,17,0,0,0,17,0Z" transform="translate(-12406.962 -12500.362)" fill="#fff"/>
      </g>
      <g id="Enmascarar_grupo_1098691" data-name="Enmascarar grupo 1098691" clip-path="url(#clip-path)">
        <g id="Grupo_1100850" data-name="Grupo 1100850" transform="translate(1036.803 5257.333)">
          <g id="Grupo_1100879" data-name="Grupo 1100879" clip-path="url(#clip-path-2)">
            <g id="Grupo_1100878" data-name="Grupo 1100878">
              <g id="Grupo_1100877" data-name="Grupo 1100877" clip-path="url(#clip-path-2)">
                <path id="Trazado_873832" data-name="Trazado 873832" d="M116.112,61.449c-4.9-3.646-5.946-11.552-2.162-16.365a11.769,11.769,0,0,1,16.293-1.606l8.647-2.338c6.431.556,13.5,8.88,12.272,11.264,3.515-1.62,12.011-3.243,15.166-1a11.457,11.457,0,0,1,4.653,10.131,16.485,16.485,0,0,1,19.143,1.631,16.835,16.835,0,0,1,4.028,18.942,20.144,20.144,0,0,1,9.8,7.581,12.837,12.837,0,0,1,1.152,12.075c-1.794,3.814-6.309,6.326-10.347,5.207,1.272,4.611,2.048,9.631.369,14.11s-6.538,8.032-11.109,6.737a26.9,26.9,0,0,1-28.263,5.027,27.307,27.307,0,0,1-16.163-23.916,15.073,15.073,0,0,1-15.151-7.841,15.334,15.334,0,0,1,2.342-17.011c-4.794-2-9.766-4.4-12.626-8.767s-2.54-11.252,1.956-13.865" transform="translate(101.622 37.242)" fill="#263238"/>
                <path id="Trazado_873833" data-name="Trazado 873833" d="M40.892,109.316c-1.425-.592-9.287-1.813-9.287-1.813S17.076,93.05,11.171,93.661,1.325,95.453.448,100.155s3.4,23.948,7.06,24.707,33.791,5.235,36.641,3.2-3.257-18.747-3.257-18.747" transform="translate(0.302 85.221)" fill="#ffc09d"/>
                <path id="Trazado_873834" data-name="Trazado 873834" d="M152.131,60.446c-1.971-.968-10.786,1.866-15.154,6.576-6.355,6.851-27.2,44.079-29.629,45.06s-85.552,21.5-86.28,22.145-2.432,28.342-2.432,28.342,82.393-3.921,96.246-11.273,29.407-35.283,29.407-35.283Z" transform="translate(16.96 54.838)" fill="#e0e0e0"/>
                <path id="Trazado_873835" data-name="Trazado 873835" d="M106.841,58.188l6.888.237,30.261,6.8s19.286,9.459,18.829,9.22-61.162,62.408-61.162,62.408L85.336,123.268Z" transform="translate(77.662 52.955)" fill="#e0e0e0"/>
                <path id="Trazado_873836" data-name="Trazado 873836" d="M166.863,70.93c1.488,2,28.783,14.6,28.783,14.6-1.488,1,5.463,18.933,8.935,37.451S188.7,174.03,189.2,175.531s12.406,100.6,6.947,115.611c0,0-64.022,15.015-82.385-7.507,0,0-30.275,3-34.742-5.5s-6.9-127.233-1.442-157.264S98.79,59.892,98.79,59.892l17.97-1.7-9.453,74.8Z" transform="translate(67.743 52.955)" fill="#75baf1"/>
                <g id="Grupo_1100852" data-name="Grupo 1100852" transform="translate(142.697 275.206)" opacity="0.8">
                  <g id="Grupo_1100851" data-name="Grupo 1100851">
                    <g id="Grupo_1100850-2" data-name="Grupo 1100850" clip-path="url(#clip-path-4)">
                      <path id="Trazado_873837" data-name="Trazado 873837" d="M74.708,144.082l.479,17.8c36.582,19.49,81.082,27.644,121.906,21.483l-1.24-18.721c-40.824,6.162-84.564-1.075-121.146-20.566" transform="translate(-74.707 -144.082)" fill="#fff"/>
                    </g>
                  </g>
                </g>
                <g id="Grupo_1100855" data-name="Grupo 1100855" transform="translate(142.697 248.158)" opacity="0.8">
                  <g id="Grupo_1100854" data-name="Grupo 1100854">
                    <g id="Grupo_1100853" data-name="Grupo 1100853" clip-path="url(#clip-path-5)">
                      <path id="Trazado_873838" data-name="Trazado 873838" d="M74.708,129.921l.474,17.8c36.022,19.49,79.845,27.644,120.046,21.484l-1.221-18.722a192.839,192.839,0,0,1-119.3-20.566" transform="translate(-74.707 -129.921)" fill="#fff"/>
                    </g>
                  </g>
                </g>
                <path id="Trazado_873839" data-name="Trazado 873839" d="M97.142,245.639a8.66,8.66,0,0,1-.115-1.511c-.034-1.083-.078-2.523-.136-4.33-.141-3.862-.342-9.275-.588-15.92-.554-13.439-1.549-32-2.605-52.5s-1.941-39.082-2.315-52.538c-.2-6.727-.271-12.175-.273-15.938.023-1.809.04-3.251.052-4.336a8.584,8.584,0,0,1,.086-1.511,8.659,8.659,0,0,1,.115,1.511c.034,1.083.078,2.523.136,4.33.143,3.862.342,9.273.588,15.919.554,13.441,1.551,32,2.605,52.513s1.941,39.074,2.315,52.529c.2,6.727.273,12.175.273,15.94-.021,1.809-.038,3.251-.052,4.336a8.578,8.578,0,0,1-.086,1.511" transform="translate(82.916 88.323)"/>
                <path id="Trazado_873840" data-name="Trazado 873840" d="M152.537,72.505c.134.176-3.157,2.028-7.083,6.511a52.356,52.356,0,0,0-5.954,8.542,90.164,90.164,0,0,0-5.4,11.607c-3.5,8.454-6.815,16.016-8.9,21.618-1.066,2.791-1.87,5.073-2.435,6.647a13.349,13.349,0,0,1-.947,2.428,12.988,12.988,0,0,1,.579-2.544c.453-1.614,1.158-3.939,2.143-6.771,1.927-5.684,5.151-13.327,8.645-21.754A83.739,83.739,0,0,1,138.706,87.1a48.96,48.96,0,0,1,6.225-8.555,32.789,32.789,0,0,1,5.358-4.708,17.382,17.382,0,0,1,1.635-1.041c.386-.22.594-.321.613-.292" transform="translate(110.852 65.98)"/>
                <path id="Trazado_873841" data-name="Trazado 873841" d="M48.7,244.52,0,121.374,138.8,60.483S185.548,177.8,187.148,181.6,48.7,244.52,48.7,244.52" transform="translate(0 55.044)" fill="#d3d3d3"/>
                <g id="Grupo_1100858" data-name="Grupo 1100858" transform="translate(125.545 233.019)" opacity="0.3">
                  <g id="Grupo_1100857" data-name="Grupo 1100857">
                    <g id="Grupo_1100856" data-name="Grupo 1100856" clip-path="url(#clip-path-6)">
                      <path id="Trazado_873842" data-name="Trazado 873842" d="M65.747,131.253c-.529.231,10.238,18.333,10.238,18.333l20.736-9.166L86.849,122Z" transform="translate(-65.728 -121.996)" fill="#fff"/>
                    </g>
                  </g>
                </g>
                <g id="Grupo_1100861" data-name="Grupo 1100861" transform="translate(0 158.19)" opacity="0.3">
                  <g id="Grupo_1100860" data-name="Grupo 1100860">
                    <g id="Grupo_1100859" data-name="Grupo 1100859" clip-path="url(#clip-path-7)">
                      <path id="Trazado_873843" data-name="Trazado 873843" d="M41.553,82.819,95.524,204.163,48.7,224.194,0,101.047Z" transform="translate(0 -82.819)"/>
                    </g>
                  </g>
                </g>
                <g id="Grupo_1100864" data-name="Grupo 1100864" transform="translate(83.324 130.599)" opacity="0.3">
                  <g id="Grupo_1100863" data-name="Grupo 1100863">
                    <g id="Grupo_1100862" data-name="Grupo 1100862" clip-path="url(#clip-path-6)">
                      <path id="Trazado_873844" data-name="Trazado 873844" d="M43.643,77.631c-.529.231,10.238,18.333,10.238,18.333L74.617,86.8,64.745,68.375Z" transform="translate(-43.623 -68.373)" fill="#fff"/>
                    </g>
                  </g>
                </g>
                <path id="Trazado_873845" data-name="Trazado 873845" d="M167.183,77.306s8.739,4.752,10.228,21.269,13.307,65.124,4.962,77.574-82.387,29.029-82.387,25.526-4.962-29.53-4.962-29.53l51.119-14.564.5-32.981c2.281-10.572,14.159-38.075,20.543-47.293" transform="translate(86.478 70.354)" fill="#e0e0e0"/>
                <path id="Trazado_873846" data-name="Trazado 873846" d="M119.451,136.264c-2.3-.193-8.45-2.517-13.827-5.616S89.688,117.46,86.038,120.581s5.761,11.812,8.641,16.845-9.422,12.964-14.608,15.481-18.915,6.32-17.378,9.226,9.623,2.141,22.871.011,15.26-3.612,26.4-3.8a124.63,124.63,0,0,0,16.849-1.171l-4.021-22.642a43.925,43.925,0,0,0-5.339,1.738" transform="translate(56.946 109.198)" fill="#ffc09d"/>
                <path id="Trazado_873847" data-name="Trazado 873847" d="M180.28,41.956a10.393,10.393,0,0,0-4.177-5.8c-20.281-13.418-45.943-18.182-70.325-16.811-6.336.357-13.256,1.4-17.175,5.915l-.111.334c-1.927,3.089-.984,7.774,1.322,10.78s5.778,5.058,9.277,6.8c16.65,8.273,35.617,11.143,54.215,12.45a64.926,64.926,0,0,0,13.067-.038,23.021,23.021,0,0,0,11.718-4.649,7.859,7.859,0,0,0,2.189-8.981" transform="translate(79.59 17.403)" fill="#75baf1"/>
                <g id="Grupo_1100867" data-name="Grupo 1100867" transform="translate(167.046 29.526)" opacity="0.3">
                  <g id="Grupo_1100866" data-name="Grupo 1100866" transform="translate(0 7)">
                    <g id="Grupo_1100865" data-name="Grupo 1100865" clip-path="url(#clip-path-9)">
                      <path id="Trazado_873848" data-name="Trazado 873848" d="M180.28,41.956a10.393,10.393,0,0,0-4.177-5.8c-20.281-13.418-45.943-18.182-70.325-16.811-6.336.357-13.256,1.4-17.175,5.915l-.111.334c-1.927,3.089-.984,7.774,1.322,10.78s5.778,5.058,9.277,6.8c16.65,8.273,35.617,11.143,54.215,12.45a64.926,64.926,0,0,0,13.067-.038,23.021,23.021,0,0,0,11.718-4.649,7.859,7.859,0,0,0,2.189-8.981" transform="translate(-87.455 -19.124)"/>
                    </g>
                  </g>
                </g>
                <path id="Trazado_873849" data-name="Trazado 873849" d="M166.185,31.414C159,19.677,148.272,12.036,134.745,9.989c-7.633-1.156-11.01.021-16.717.779A24.294,24.294,0,0,0,103.051,18.1c-4.64,5.062-8.746,10.878-10.381,17.571C90.991,42.548,89.3,49.47,88.9,56.541s9.587,17.235,12.924,23.467l8.215,2.6c9.711,1.645,19.557,3.3,29.356,2.328s19.714-4.882,25.912-12.595c8.611-10.717,8.064-29.2.877-40.931" transform="translate(80.896 8.65)" fill="#263238"/>
                <path id="Trazado_873850" data-name="Trazado 873850" d="M148.965,25.939l-22.3-12.6-6.246-.105C106.575,11.422,95,25.53,93.411,36.822c-1.759,12.545-3.417,27.931-2.663,37.453,1.52,19.148,17.068,22.814,17.068,22.814s-1.117,21.2-2.063,27.43l35.653-17.708,12.941-73.662a6.666,6.666,0,0,0-5.383-7.211" transform="translate(82.417 11.898)" fill="#ffc09d"/>
                <path id="Trazado_873851" data-name="Trazado 873851" d="M109.546,46.686a4.069,4.069,0,0,0-5.87-3.562,5.485,5.485,0,0,0-2.716,4.817,4.934,4.934,0,0,0,3.228,2.517,5.931,5.931,0,0,0,.655.109,4.392,4.392,0,0,0,3.115-.783,3.991,3.991,0,0,0,1.587-3.1" transform="translate(91.88 38.851)" fill="#ff9b6c"/>
                <path id="Trazado_873852" data-name="Trazado 873852" d="M93.649,34.976a2.429,2.429,0,0,0,2.132,2.63,2.31,2.31,0,0,0,2.647-1.992,2.428,2.428,0,0,0-2.128-2.63,2.312,2.312,0,0,0-2.651,1.992" transform="translate(85.214 29.997)" fill="#263238"/>
                <path id="Trazado_873853" data-name="Trazado 873853" d="M93.842,30.14c.273.34,2.2-.877,4.789-.667,2.588.172,4.386,1.664,4.691,1.366.149-.13-.113-.726-.892-1.4A6.6,6.6,0,0,0,98.7,27.956a6.3,6.3,0,0,0-3.841.926c-.844.552-1.158,1.1-1.022,1.257" transform="translate(85.374 25.426)" fill="#263238"/>
                <path id="Trazado_873854" data-name="Trazado 873854" d="M104.143,51.21c.023-.147-1.564-.554-4.145-1.094-.655-.12-1.27-.3-1.347-.766a3.4,3.4,0,0,1,.592-1.941q1.12-2.347,2.347-4.922c3.27-7.014,5.694-12.8,5.413-12.931S103.843,35,100.571,42.017q-1.186,2.6-2.267,4.959a3.9,3.9,0,0,0-.544,2.59,1.672,1.672,0,0,0,1.012,1.058,4.473,4.473,0,0,0,1.11.246c2.613.348,4.24.487,4.261.34" transform="translate(88.902 26.896)" fill="#263238"/>
                <path id="Trazado_873855" data-name="Trazado 873855" d="M99.913,59.327a47.489,47.489,0,0,0,25.639-4.787s-7.7,12.585-26.338,9.342Z" transform="translate(90.291 49.635)" fill="#ff9b6c"/>
                <path id="Trazado_873856" data-name="Trazado 873856" d="M109.168,42.15c-.418-.057-.642,2.775-3.2,4.6s-5.526,1.276-5.579,1.671c-.052.174.625.6,1.885.735a6.971,6.971,0,0,0,4.645-1.234,6.166,6.166,0,0,0,2.506-3.87c.2-1.175-.061-1.9-.254-1.9" transform="translate(91.355 38.359)" fill="#263238"/>
                <path id="Trazado_873857" data-name="Trazado 873857" d="M94.931,25.324c.386.672,2.4.4,4.7.777,2.313.3,4.174,1.14,4.726.607.248-.264.044-.9-.709-1.608A6.986,6.986,0,0,0,100,23.468a6.9,6.9,0,0,0-3.946.518c-.915.46-1.287,1.016-1.121,1.339" transform="translate(86.359 21.283)" fill="#263238"/>
                <path id="Trazado_873858" data-name="Trazado 873858" d="M109.664,36.99a2.416,2.416,0,0,1-2.59,2.168,2.318,2.318,0,0,1-2.221-2.466,2.419,2.419,0,0,1,2.588-2.17,2.321,2.321,0,0,1,2.223,2.468" transform="translate(95.416 31.413)" fill="#263238"/>
                <path id="Trazado_873859" data-name="Trazado 873859" d="M116.61,32.5c-.332.281-1.994-1.285-4.575-1.58-2.573-.33-4.619.787-4.861.435-.122-.157.246-.69,1.14-1.2a6.576,6.576,0,0,1,3.937-.739,6.346,6.346,0,0,1,3.595,1.65c.724.707.926,1.308.764,1.433" transform="translate(97.515 26.732)" fill="#263238"/>
                <path id="Trazado_873860" data-name="Trazado 873860" d="M116.53,28.146c-.575.531-2.5-.313-4.884-.621-2.38-.384-4.466-.118-4.861-.791-.17-.325.218-.879,1.167-1.335a7.788,7.788,0,0,1,7.85,1.138c.777.7.986,1.347.728,1.608" transform="translate(97.146 22.579)" fill="#263238"/>
                <path id="Trazado_873861" data-name="Trazado 873861" d="M120.34,42.145c.111-1.408,1.983-4.6,3.379-4.712,3.728-.288,10.345.529,9.678,9.969-.911,12.9-13.567,9.319-13.565,8.947,0-.29.122-9.34.508-14.2" transform="translate(109.055 34.025)" fill="#ffc09d"/>
                <path id="Trazado_873862" data-name="Trazado 873862" d="M121.862,49.763c.059-.036.212.174.575.374a2.226,2.226,0,0,0,1.666.155c1.387-.4,2.676-2.485,2.9-4.808a7.506,7.506,0,0,0-.4-3.262,2.59,2.59,0,0,0-1.555-1.845,1.135,1.135,0,0,0-1.358.52c-.2.35-.134.613-.2.63-.038.031-.26-.235-.12-.76a1.434,1.434,0,0,1,.562-.774,1.675,1.675,0,0,1,1.255-.239,3.147,3.147,0,0,1,2.187,2.166,7.712,7.712,0,0,1,.52,3.652c-.266,2.594-1.757,4.932-3.644,5.339a2.382,2.382,0,0,1-2.015-.487c-.374-.348-.42-.64-.374-.661" transform="translate(110.889 36.15)" fill="#ff9b6c"/>
                <path id="Trazado_873863" data-name="Trazado 873863" d="M139.946,60.586l-3.671,2.94c-12.148-15.311-34.912-52.619-33.659-50.409,0,0,10.062-2.674,20.18.495s29.065,11.034,27.138,23.307-9.988,23.668-9.988,23.668" transform="translate(93.342 10.978)" fill="#263238"/>
                <path id="Trazado_873864" data-name="Trazado 873864" d="M91.068,25.841s13.655-3.732,26.451-1.364C153.382,31.118,169.99,44.71,169.99,44.71a68.5,68.5,0,0,0,.157-9.249s-47.31-15.85-47.675-15.926-16.522-.516-16.912-.47S93.6,18.783,93.6,18.783Z" transform="translate(82.878 17.094)" fill="#455a64"/>
                <path id="Trazado_873865" data-name="Trazado 873865" d="M87.843,43.218s6.716-9.44,47.175-.905c39.338,8.3,45.4,21.286,45.4,21.286a12.977,12.977,0,0,0-5.022-12.37s2.993-15.489-6.08-29.851c-3.243-5.136-9.862-10.248-11.164-11.7l.195-2.512s-2.235-3.457-15.458-6.12c-13.667-2.75-17.122.774-17.122.774l-.693,2.151A41.852,41.852,0,0,0,96.144,34.63s-8.259,3.32-8.3,8.588" transform="translate(79.943 -0.001)" fill="#75baf1"/>
                <g id="Grupo_1100870" data-name="Grupo 1100870" transform="translate(203.359 1.824)" opacity="0.3">
                  <g id="Grupo_1100869" data-name="Grupo 1100869">
                    <g id="Grupo_1100868" data-name="Grupo 1100868" clip-path="url(#clip-path-10)">
                      <path id="Trazado_873866" data-name="Trazado 873866" d="M108.465,10.629a38.082,38.082,0,0,0,.353-9.674L108.125,3.1a109.915,109.915,0,0,1-1.658,18.425c.751-3.631,1.505-7.291,2-10.9" transform="translate(-106.467 -0.955)"/>
                    </g>
                  </g>
                </g>
                <g id="Grupo_1100873" data-name="Grupo 1100873" transform="translate(227.021 7.168)" opacity="0.3">
                  <g id="Grupo_1100872" data-name="Grupo 1100872">
                    <g id="Grupo_1100871" data-name="Grupo 1100871" clip-path="url(#clip-path-11)">
                      <path id="Trazado_873867" data-name="Trazado 873867" d="M130.123,3.753c-2.621,2.05-7.149,5.579-8.464,9.016a67.777,67.777,0,0,0-2.8,10.731c4.4-11.562,6.544-12.939,11.073-17.235Z" transform="translate(-118.854 -3.753)"/>
                    </g>
                  </g>
                </g>
                <path id="Trazado_873868" data-name="Trazado 873868" d="M171.469,35.875a3.039,3.039,0,0,1-.779-.34c-.579-.3-1.284-.67-2.141-1.115-.917-.506-2.049-1.1-3.4-1.729s-2.842-1.427-4.573-2.137a163.7,163.7,0,0,0-27.648-9.323,115.9,115.9,0,0,0-28.859-3.685c-1.858.1-3.547.2-5.014.359-1.455.254-2.728.407-3.74.632-.926.256-1.692.464-2.317.636a3.11,3.11,0,0,1-.835.168,3.194,3.194,0,0,1,.777-.334c.619-.216,1.373-.479,2.292-.8,1.014-.279,2.286-.485,3.757-.787,1.476-.206,3.176-.357,5.056-.493,7.522-.327,17.943.7,29.083,3.453a148.028,148.028,0,0,1,27.7,9.608c1.725.751,3.209,1.593,4.544,2.265s2.449,1.312,3.346,1.866c.823.5,1.505.923,2.063,1.263a3.286,3.286,0,0,1,.691.491" transform="translate(83.873 15.353)" fill="#263238"/>
                <path id="Trazado_873869" data-name="Trazado 873869" d="M130.107,3.757a13.094,13.094,0,0,1-2.5,2.321,20.2,20.2,0,0,0-5.327,5.938,27.617,27.617,0,0,0-2.626,7.627,21.277,21.277,0,0,1-.688,3.337,9.943,9.943,0,0,1,.082-3.436,23.064,23.064,0,0,1,2.47-7.944,17.883,17.883,0,0,1,5.715-6.009,13.449,13.449,0,0,1,2.871-1.834" transform="translate(108.183 3.412)" fill="#263238"/>
                <path id="Trazado_873870" data-name="Trazado 873870" d="M106.643,21c-.248-.057.615-4.5,1.171-10.039.577-5.537.634-10.064.888-10.07.223-.011.556,4.557-.027,10.16-.563,5.6-1.815,10.007-2.032,9.95" transform="translate(97.012 0.813)" fill="#263238"/>
                <g id="Grupo_1100876" data-name="Grupo 1100876" transform="translate(178.232 5.996)" opacity="0.3">
                  <g id="Grupo_1100875" data-name="Grupo 1100875">
                    <g id="Grupo_1100874" data-name="Grupo 1100874" clip-path="url(#clip-path-12)">
                      <path id="Trazado_873871" data-name="Trazado 873871" d="M118.548,5.453a2.37,2.37,0,0,0-.055-1.606,1.548,1.548,0,0,0-1.381-.707,4.208,4.208,0,0,0-1.561.413,39.305,39.305,0,0,0-22.21,24.915.7.7,0,0,0,.9.852,49.493,49.493,0,0,1,14.82-2.265c1.66-.019,3.946.535,4.918-.905a7.836,7.836,0,0,0,1-2.915l3.57-17.781" transform="translate(-93.312 -3.138)" fill="#fff"/>
                    </g>
                  </g>
                </g>
              </g>
            </g>
          </g>
        </g>
        <g id="Grupo_1100881" data-name="Grupo 1100881" transform="translate(1141.021 5275.334)">
          <g id="Grupo_1100880" data-name="Grupo 1100880" clip-path="url(#clip-path-13)">
            <path id="Trazado_873872" data-name="Trazado 873872" d="M49.495,42.374l-7.569-.849A24.32,24.32,0,1,1,46.8,34.3l.009-.011Z" fill="#fff"/>
            <path id="Trazado_873873" data-name="Trazado 873873" d="M49.495,42.374,46.74,34.311l.119.022-.009.01a.069.069,0,0,1-.1.011.07.07,0,0,1-.02-.082A24.285,24.285,0,0,0,48.649,22.46a23.659,23.659,0,0,0-1.928-7.48A24.126,24.126,0,0,0,.647,21.525,24.578,24.578,0,0,0,1.814,32.568,23.757,23.757,0,0,0,7.35,41.441a24.2,24.2,0,0,0,34.529.038.068.068,0,0,1,.055-.019l7.561.914-7.576-.783.055-.02a24.282,24.282,0,0,1-26.69,5.53A24.551,24.551,0,0,1,7.148,41.64a24.019,24.019,0,0,1-5.616-8.973A24.835,24.835,0,0,1,.341,21.486,24.421,24.421,0,0,1,23.925.141,24.5,24.5,0,0,1,42.081,7.574a24.27,24.27,0,0,1,4.859,7.312,23.78,23.78,0,0,1,1.917,7.556,24.284,24.284,0,0,1-2,11.885l-.117-.071.009-.011a.069.069,0,0,1,.1-.01.071.071,0,0,1,.022.032c1.627,5.027,2.383,7.364,2.624,8.107" fill="#263238"/>
            <path id="Trazado_873874" data-name="Trazado 873874" d="M49.495,42.374s-.069-.185-.19-.534-.3-.874-.533-1.55c-.466-1.364-1.15-3.369-2.039-5.977l.131.023-.008.011a.076.076,0,0,1-.107.012.077.077,0,0,1-.022-.09,24.274,24.274,0,0,0,1.912-11.808,23.63,23.63,0,0,0-.621-3.692,27.223,27.223,0,0,0-1.307-3.784A24.113,24.113,0,0,0,.662,21.527,24.567,24.567,0,0,0,1.827,32.564,23.768,23.768,0,0,0,7.36,41.432a24.2,24.2,0,0,0,16.628,7.243l1.036.009a6.5,6.5,0,0,0,1.018-.037l1.98-.184a33.393,33.393,0,0,0,3.676-.824,24.208,24.208,0,0,0,10.177-6.164.07.07,0,0,1,.059-.021l5.6.673,1.456.179c.329.041.5.068.5.068s-.155-.01-.476-.042l-1.439-.145-5.661-.59.059-.021a24.2,24.2,0,0,1-10.213,6.278,33.659,33.659,0,0,1-3.708.848l-2,.194a6.645,6.645,0,0,1-1.029.042l-1.047-.005A24.435,24.435,0,0,1,7.138,41.649a24.04,24.04,0,0,1-5.62-8.977A24.865,24.865,0,0,1,.326,21.484,24.3,24.3,0,0,1,4.578,10.5,10.8,10.8,0,0,1,5.47,9.32L6.4,8.179,7.434,7.135a10.113,10.113,0,0,1,1.066-1l1.117-.93c.364-.32.789-.555,1.178-.836.4-.263.786-.554,1.2-.792L13.252,2.9A24.073,24.073,0,0,1,23.925.127,24.37,24.37,0,0,1,46.951,14.881a27.5,27.5,0,0,1,1.306,3.829,23.966,23.966,0,0,1,.61,3.731,24.282,24.282,0,0,1-2,11.889l-.129-.078.009-.01a.075.075,0,0,1,.106-.013.087.087,0,0,1,.025.036l1.966,6.059.5,1.539c.109.344.157.511.157.511" fill="#263238"/>
            <path id="Trazado_873875" data-name="Trazado 873875" d="M49.495,42.374c-.083-.25-.268-.811-.689-2.081q-.344-1.042-.851-2.583-.254-.774-.549-1.672l-.3-.931q-.08-.24-.16-.489l-.082-.25c-.03-.1-.045-.13-.083-.084l-.013-.074.129.077-.072.023A24.3,24.3,0,0,0,26.752.344a23.917,23.917,0,0,0-10.7,1.441A24.9,24.9,0,0,0,6.5,8.273l.008-.009A24.814,24.814,0,0,0,.618,20.431,24.784,24.784,0,0,0,2.464,34.64,24.362,24.362,0,0,0,28.042,48.548l-.016,0a24.26,24.26,0,0,0,13.84-7.084l.164.256-.059.021-.036-.3,6.739.7.831.078-.034.31-5.914-.722-1.471-.177a1.233,1.233,0,0,0-.151-.015.051.051,0,0,0,.051-.029l-.031.03-.066.066-.265.262-.54.511a24.484,24.484,0,0,1-13.031,6.161l-.017,0A24.777,24.777,0,0,1,16.95,47.593a24.517,24.517,0,0,1-9.274-5.636,24.089,24.089,0,0,1-5.79-8.8A24.763,24.763,0,0,1,.379,23.077a23.375,23.375,0,0,1,2.58-9.465,24.231,24.231,0,0,1,44.263,2.367,23.954,23.954,0,0,1,1.5,10.666A24.424,24.424,0,0,1,47.933,31q-.271.984-.593,1.859l-.324.849-.169.4-.077.185c0,.027.031.049.056.01l.03.078-.131-.023.054-.063,2.716,8.076c-.037-.1-.086-.224-.185-.484-.121-.341-.294-.831-.525-1.485-.464-1.345-1.158-3.355-2.1-6.076a.05.05,0,0,1,.03-.062.071.071,0,0,1,.025,0l.131.023a.048.048,0,0,1,.038.055l0,.01-.006.014c-.046.106-.258.053-.229-.084a2.238,2.238,0,0,1,.082-.211l.166-.4c.1-.275.209-.558.318-.847q.315-.871.58-1.854a24.229,24.229,0,0,0,.762-4.334,23.844,23.844,0,0,0-1.523-10.593A24.015,24.015,0,0,0,8.928,6.4,23.9,23.9,0,0,0,3.2,13.736,23.12,23.12,0,0,0,.662,23.094a24.492,24.492,0,0,0,1.5,9.961,23.8,23.8,0,0,0,5.726,8.687A24.2,24.2,0,0,0,17.046,47.3,24.48,24.48,0,0,0,28.008,48.31l-.017,0a24.189,24.189,0,0,0,12.882-6.088l.533-.5.26-.258.065-.064.036-.034a.3.3,0,0,1,.138-.06.981.981,0,0,1,.215.015l1.472.177,5.926.723a.156.156,0,0,1-.034.311l-.842-.079-6.739-.7a.156.156,0,0,1-.037-.3l.06-.021a.156.156,0,0,1,.164.255,24.566,24.566,0,0,1-14,7.17l-.017,0A24.66,24.66,0,0,1,2.2,34.762,25.066,25.066,0,0,1,.339,20.385,25.083,25.083,0,0,1,6.3,8.094l.008-.009a25.133,25.133,0,0,1,9.653-6.536A24.151,24.151,0,0,1,26.774.109,24.5,24.5,0,0,1,49,23.342a24.419,24.419,0,0,1-2.091,11.009.049.049,0,0,1-.066.025l-.006,0-.129-.078a.048.048,0,0,1-.018-.063l.005-.011a.128.128,0,0,1,.187-.028.344.344,0,0,1,.067.143l.081.251c.053.166.1.33.157.49l.3.933q.29.9.538,1.677l.828,2.591c.214.685.377,1.2.49,1.566.08.285.12.425.15.53" fill="#263238"/>
            <path id="Trazado_873876" data-name="Trazado 873876" d="M12.81,25.2l3.35-3.35L22.621,27.6,35.3,15.393l3.11,3.35L22.142,34.058Z" fill="#be79ca"/>
          </g>
        </g>
      </g>
    </g>
  </g>
</svg>
