<svg xmlns="http://www.w3.org/2000/svg" width="820" height="720.963" viewBox="0 0 820 720.963">
  <g id="Grupo_1102801" data-name="Grupo 1102801" transform="translate(-390 -16733.357)">
    <path id="Línea_232" data-name="Línea 232" d="M50.087,1H0A1,1,0,0,1-1,0,1,1,0,0,1,0-1H50.087a1,1,0,0,1,1,1A1,1,0,0,1,50.087,1Z" transform="translate(705.986 16773.164)" fill="#6e3dc6"/>
    <path id="Línea_232-2" data-name="Línea 232" d="M50.087,1H0A1,1,0,0,1-1,0,1,1,0,0,1,0-1H50.087a1,1,0,0,1,1,1A1,1,0,0,1,50.087,1Z" transform="translate(705.986 16963.027)" fill="#6e3dc6"/>
    <path id="Línea_232-3" data-name="Línea 232" d="M50.087,1H0A1,1,0,0,1-1,0,1,1,0,0,1,0-1H50.087a1,1,0,0,1,1,1A1,1,0,0,1,50.087,1Z" transform="translate(705.986 17225.381)" fill="#6e3dc6"/>
    <path id="Línea_232-4" data-name="Línea 232" d="M50.087,1H0A1,1,0,0,1-1,0,1,1,0,0,1,0-1H50.087a1,1,0,0,1,1,1A1,1,0,0,1,50.087,1Z" transform="translate(705.986 17147.328)" fill="#6e3dc6"/>
    <path id="Línea_232-5" data-name="Línea 232" d="M49.5,1.088h0L0,1A1,1,0,0,1-1,0,1,1,0,0,1,0-1l49.5.088a1,1,0,0,1,0,2Z" transform="translate(897 17147.328)" fill="#6e3dc6"/>
    <path id="Línea_233" data-name="Línea 233" d="M50.087,1H0A1,1,0,0,1-1,0,1,1,0,0,1,0-1H50.087a1,1,0,0,1,1,1A1,1,0,0,1,50.087,1Z" transform="translate(705.986 16872.91)" fill="#6e3dc6"/>
    <path id="Línea_233-2" data-name="Línea 233" d="M50.087,1H0A1,1,0,0,1-1,0,1,1,0,0,1,0-1H50.087a1,1,0,0,1,1,1A1,1,0,0,1,50.087,1Z" transform="translate(705.986 17062.773)" fill="#6e3dc6"/>
    <path id="Línea_233-3" data-name="Línea 233" d="M50.087,1H0A1,1,0,0,1-1,0,1,1,0,0,1,0-1H50.087a1,1,0,0,1,1,1A1,1,0,0,1,50.087,1Z" transform="translate(705.986 17325.127)" fill="#6e3dc6"/>
    <path id="Línea_233-4" data-name="Línea 233" d="M50.087,1H0A1,1,0,0,1-1,0,1,1,0,0,1,0-1H50.087a1,1,0,0,1,1,1A1,1,0,0,1,50.087,1Z" transform="translate(705.986 17420.531)" fill="#6e3dc6"/>
    <path id="Línea_233-5" data-name="Línea 233" d="M50.087,1H0A1,1,0,0,1-1,0,1,1,0,0,1,0-1H50.087a1,1,0,0,1,1,1A1,1,0,0,1,50.087,1Z" transform="translate(897 17420.531)" fill="#6e3dc6"/>
    <path id="Rectángulo_18632" data-name="Rectángulo 18632" d="M14.962,0h148.15a14.962,14.962,0,0,1,14.962,14.962V52.616a14.962,14.962,0,0,1-14.962,14.962H14.962A14.962,14.962,0,0,1,0,52.616V14.962A14.962,14.962,0,0,1,14.962,0Z" transform="translate(733.958 16733.357)" fill="#be79ca"/>
    <path id="Rectángulo_18632-2" data-name="Rectángulo 18632" d="M14.962,0H216.956a14.962,14.962,0,0,1,14.962,14.962V52.616a14.962,14.962,0,0,1-14.962,14.962H14.962A14.962,14.962,0,0,1,0,52.616V14.962A14.962,14.962,0,0,1,14.962,0Z" transform="translate(978.082 16979.111)" fill="#75baf1" opacity="0.2"/>
    <path id="Posesión" d="M-33.526-4.342V0h-3.085V-12.8H-31.5a5.948,5.948,0,0,1,2.6.541,4.074,4.074,0,0,1,1.749,1.538,4.2,4.2,0,0,1,.62,2.263,3.7,3.7,0,0,1-1.34,2.993,5.561,5.561,0,0,1-3.678,1.121Zm0-2.382H-31.5a1.906,1.906,0,0,0,1.367-.448,1.665,1.665,0,0,0,.47-1.266,2.059,2.059,0,0,0-.483-1.433,1.712,1.712,0,0,0-1.318-.545h-2.057Zm8.007,1.881a5.613,5.613,0,0,1,.554-2.536,3.96,3.96,0,0,1,1.591-1.709,4.791,4.791,0,0,1,2.435-.6,4.373,4.373,0,0,1,3.366,1.323,5.076,5.076,0,0,1,1.23,3.6v.105a4.925,4.925,0,0,1-1.235,3.529A4.384,4.384,0,0,1-20.922.176a4.434,4.434,0,0,1-3.261-1.217,4.761,4.761,0,0,1-1.327-3.3Zm2.962.185a3.538,3.538,0,0,0,.413,1.934,1.376,1.376,0,0,0,1.222.615q1.582,0,1.617-2.435v-.3q0-2.558-1.635-2.558-1.485,0-1.608,2.206Zm12.5,1.986a.684.684,0,0,0-.4-.606,6.016,6.016,0,0,0-1.5-.475A6.853,6.853,0,0,1-13.786-4.4a3.062,3.062,0,0,1-1.1-.971,2.319,2.319,0,0,1-.378-1.31,2.628,2.628,0,0,1,1.081-2.158,4.453,4.453,0,0,1,2.83-.848,4.934,4.934,0,0,1,3.023.853A2.666,2.666,0,0,1-7.185-6.592h-2.971q0-1.143-1.2-1.143a1.194,1.194,0,0,0-.782.259.8.8,0,0,0-.316.646.737.737,0,0,0,.387.642,3.654,3.654,0,0,0,1.235.4,10.671,10.671,0,0,1,1.49.378A2.706,2.706,0,0,1-7.2-2.76,2.491,2.491,0,0,1-8.358-.642a5.068,5.068,0,0,1-2.993.817,5.172,5.172,0,0,1-2.18-.439,3.645,3.645,0,0,1-1.494-1.2,2.707,2.707,0,0,1-.536-1.591h2.769a1.145,1.145,0,0,0,.439.962,1.808,1.808,0,0,0,1.081.3,1.422,1.422,0,0,0,.91-.246A.787.787,0,0,0-10.059-2.672ZM-1.217.176A4.889,4.889,0,0,1-4.759-1.129a4.507,4.507,0,0,1-1.354-3.4v-.246a5.84,5.84,0,0,1,.541-2.575A3.955,3.955,0,0,1-3.995-9.075a4.763,4.763,0,0,1,2.461-.611A4.117,4.117,0,0,1,1.63-8.442a4.887,4.887,0,0,1,1.16,3.467v1.151H-3.1A2.135,2.135,0,0,0-2.4-2.566a2.066,2.066,0,0,0,1.389.457,2.662,2.662,0,0,0,2.2-.984l1.354,1.6A3.784,3.784,0,0,1,.967-.277,5.3,5.3,0,0,1-1.217.176ZM-1.551-7.4q-1.3,0-1.547,1.723H-.11v-.229a1.467,1.467,0,0,0-.36-1.1A1.434,1.434,0,0,0-1.551-7.4ZM8.96-2.672a.684.684,0,0,0-.4-.606,6.016,6.016,0,0,0-1.5-.475A6.853,6.853,0,0,1,5.234-4.4a3.062,3.062,0,0,1-1.1-.971,2.319,2.319,0,0,1-.378-1.31A2.628,2.628,0,0,1,4.838-8.837a4.453,4.453,0,0,1,2.83-.848,4.934,4.934,0,0,1,3.023.853,2.666,2.666,0,0,1,1.143,2.241H8.864q0-1.143-1.2-1.143a1.194,1.194,0,0,0-.782.259.8.8,0,0,0-.316.646.737.737,0,0,0,.387.642,3.654,3.654,0,0,0,1.235.4,10.671,10.671,0,0,1,1.49.378A2.706,2.706,0,0,1,11.817-2.76,2.491,2.491,0,0,1,10.661-.642,5.068,5.068,0,0,1,7.668.176a5.172,5.172,0,0,1-2.18-.439,3.645,3.645,0,0,1-1.494-1.2A2.707,2.707,0,0,1,3.458-3.05H6.227a1.145,1.145,0,0,0,.439.962,1.808,1.808,0,0,0,1.081.3,1.422,1.422,0,0,0,.91-.246A.787.787,0,0,0,8.96-2.672ZM16.326,0H13.355V-9.51h2.971ZM13.179-11.962A1.322,1.322,0,0,1,13.636-13a1.724,1.724,0,0,1,1.187-.4,1.724,1.724,0,0,1,1.187.4,1.322,1.322,0,0,1,.457,1.037,1.322,1.322,0,0,1-.457,1.037,1.724,1.724,0,0,1-1.187.4,1.724,1.724,0,0,1-1.187-.4A1.322,1.322,0,0,1,13.179-11.962Zm4.6,7.119a5.613,5.613,0,0,1,.554-2.536A3.96,3.96,0,0,1,19.92-9.088a4.791,4.791,0,0,1,2.435-.6,4.373,4.373,0,0,1,3.366,1.323,5.076,5.076,0,0,1,1.23,3.6v.105a4.925,4.925,0,0,1-1.235,3.529A4.384,4.384,0,0,1,22.373.176a4.434,4.434,0,0,1-3.261-1.217,4.761,4.761,0,0,1-1.327-3.3Zm2.962.185a3.538,3.538,0,0,0,.413,1.934,1.376,1.376,0,0,0,1.222.615q1.582,0,1.617-2.435v-.3q0-2.558-1.635-2.558-1.485,0-1.608,2.206ZM22.759-13.5h3.129l-2.443,2.76-2.417,0Zm8.218,3.99.1,1.116A3.225,3.225,0,0,1,33.79-9.686a2.713,2.713,0,0,1,2.219.888,4.226,4.226,0,0,1,.76,2.672V0H33.8V-6a1.6,1.6,0,0,0-.29-1.059A1.342,1.342,0,0,0,32.454-7.4a1.413,1.413,0,0,0-1.292.686V0H28.2V-9.51Z" transform="translate(1092.867 17016.297)" fill="#12263f"/>
    <path id="Mayoristas" d="M-40.2-12.8l2.856,8.9,2.848-8.9h4.061V0H-33.53V-2.988l.3-6.117L-36.325,0h-2.039l-3.1-9.114.3,6.126V0h-3.085V-12.8ZM-23.256,0a3.344,3.344,0,0,1-.281-.853A2.754,2.754,0,0,1-25.822.176a3.374,3.374,0,0,1-2.285-.813,2.588,2.588,0,0,1-.94-2.043,2.66,2.66,0,0,1,1.143-2.338,5.821,5.821,0,0,1,3.322-.791h.914v-.5q0-1.316-1.134-1.316a.927.927,0,0,0-1.055,1.042h-2.962a2.655,2.655,0,0,1,1.173-2.239,4.931,4.931,0,0,1,2.993-.86,4.323,4.323,0,0,1,2.874.888A3.086,3.086,0,0,1-20.7-6.363v4.21a4.311,4.311,0,0,0,.4,2V0ZM-25.11-1.934a1.652,1.652,0,0,0,.918-.237,1.487,1.487,0,0,0,.523-.536V-4.228h-.861q-1.547,0-1.547,1.389a.848.848,0,0,0,.272.655A.986.986,0,0,0-25.11-1.934Zm9.721-2.215,1.582-5.361h3.173l-3.876,11.1-.167.4A2.944,2.944,0,0,1-17.6,3.841a4.642,4.642,0,0,1-1.222-.175V1.556h.387a2.026,2.026,0,0,0,.954-.18,1.094,1.094,0,0,0,.488-.647L-16.752.1l-3.3-9.605h3.164Zm5.019-.694a5.613,5.613,0,0,1,.554-2.536A3.96,3.96,0,0,1-8.227-9.088a4.791,4.791,0,0,1,2.435-.6A4.373,4.373,0,0,1-2.426-8.363a5.076,5.076,0,0,1,1.23,3.6v.105A4.925,4.925,0,0,1-2.43-1.129,4.384,4.384,0,0,1-5.774.176,4.434,4.434,0,0,1-9.035-1.042a4.761,4.761,0,0,1-1.327-3.3Zm2.962.185A3.538,3.538,0,0,0-7-2.725a1.376,1.376,0,0,0,1.222.615q1.582,0,1.617-2.435v-.3q0-2.558-1.635-2.558Q-7.277-7.4-7.4-5.194ZM5.862-6.829,4.887-6.9a1.752,1.752,0,0,0-1.793.879V0H.132V-9.51H2.909l.1,1.222a2.294,2.294,0,0,1,2.083-1.4,2.888,2.888,0,0,1,.826.105ZM10.055,0H7.084V-9.51h2.971ZM6.908-11.962A1.322,1.322,0,0,1,7.365-13a1.724,1.724,0,0,1,1.187-.4,1.724,1.724,0,0,1,1.187.4,1.322,1.322,0,0,1,.457,1.037,1.322,1.322,0,0,1-.457,1.037,1.724,1.724,0,0,1-1.187.4,1.724,1.724,0,0,1-1.187-.4A1.322,1.322,0,0,1,6.908-11.962Zm9.949,9.29a.684.684,0,0,0-.4-.606,6.016,6.016,0,0,0-1.5-.475A6.853,6.853,0,0,1,13.131-4.4a3.062,3.062,0,0,1-1.1-.971,2.319,2.319,0,0,1-.378-1.31,2.628,2.628,0,0,1,1.081-2.158,4.453,4.453,0,0,1,2.83-.848,4.934,4.934,0,0,1,3.023.853,2.666,2.666,0,0,1,1.143,2.241H16.761q0-1.143-1.2-1.143a1.194,1.194,0,0,0-.782.259.8.8,0,0,0-.316.646.737.737,0,0,0,.387.642,3.654,3.654,0,0,0,1.235.4,10.671,10.671,0,0,1,1.49.378A2.706,2.706,0,0,1,19.714-2.76,2.491,2.491,0,0,1,18.558-.642a5.068,5.068,0,0,1-2.993.817,5.172,5.172,0,0,1-2.18-.439,3.645,3.645,0,0,1-1.494-1.2,2.707,2.707,0,0,1-.536-1.591h2.769a1.145,1.145,0,0,0,.439.962,1.808,1.808,0,0,0,1.081.3,1.422,1.422,0,0,0,.91-.246A.787.787,0,0,0,16.857-2.672Zm7.69-9.2V-9.51h1.564v2.057H24.548V-3.1a1.111,1.111,0,0,0,.193.747,1.037,1.037,0,0,0,.765.211,4.345,4.345,0,0,0,.738-.053V-.079a5.466,5.466,0,0,1-1.67.255,3.1,3.1,0,0,1-2.259-.721,2.954,2.954,0,0,1-.729-2.188v-4.72H20.373V-9.51h1.213v-2.364ZM32.634,0a3.344,3.344,0,0,1-.281-.853A2.754,2.754,0,0,1,30.067.176a3.374,3.374,0,0,1-2.285-.813,2.588,2.588,0,0,1-.94-2.043,2.66,2.66,0,0,1,1.143-2.338,5.821,5.821,0,0,1,3.322-.791h.914v-.5q0-1.316-1.134-1.316a.927.927,0,0,0-1.055,1.042H27.07a2.655,2.655,0,0,1,1.173-2.239,4.931,4.931,0,0,1,2.993-.86A4.323,4.323,0,0,1,34.11-8.8a3.086,3.086,0,0,1,1.081,2.435v4.21a4.311,4.311,0,0,0,.4,2V0ZM30.779-1.934a1.652,1.652,0,0,0,.918-.237,1.487,1.487,0,0,0,.523-.536V-4.228h-.861q-1.547,0-1.547,1.389a.848.848,0,0,0,.272.655A.986.986,0,0,0,30.779-1.934Zm11.03-.738a.684.684,0,0,0-.4-.606,6.016,6.016,0,0,0-1.5-.475A6.853,6.853,0,0,1,38.083-4.4a3.062,3.062,0,0,1-1.1-.971,2.319,2.319,0,0,1-.378-1.31,2.628,2.628,0,0,1,1.081-2.158,4.453,4.453,0,0,1,2.83-.848,4.934,4.934,0,0,1,3.023.853,2.666,2.666,0,0,1,1.143,2.241H41.713q0-1.143-1.2-1.143a1.194,1.194,0,0,0-.782.259.8.8,0,0,0-.316.646.737.737,0,0,0,.387.642,3.654,3.654,0,0,0,1.235.4,10.671,10.671,0,0,1,1.49.378A2.706,2.706,0,0,1,44.666-2.76,2.491,2.491,0,0,1,43.51-.642a5.068,5.068,0,0,1-2.993.817,5.172,5.172,0,0,1-2.18-.439,3.645,3.645,0,0,1-1.494-1.2,2.707,2.707,0,0,1-.536-1.591h2.769a1.145,1.145,0,0,0,.439.962,1.808,1.808,0,0,0,1.081.3,1.422,1.422,0,0,0,.91-.246A.787.787,0,0,0,41.81-2.672Z" transform="translate(822.064 16771.453)" fill="#fff"/>
    <path id="Rectángulo_18634" data-name="Rectángulo 18634" d="M14.962,0h148.15a14.962,14.962,0,0,1,14.962,14.962V52.616a14.962,14.962,0,0,1-14.962,14.962H14.962A14.962,14.962,0,0,1,0,52.616V14.962A14.962,14.962,0,0,1,14.962,0Z" transform="translate(733.958 16839.121)" fill="#be79ca"/>
    <path id="Minoristas_" data-name="Minoristas " d="M-38.443-12.8l2.856,8.9,2.848-8.9h4.061V0h-3.094V-2.988l.3-6.117L-34.567,0h-2.039l-3.1-9.114.3,6.126V0H-42.5V-12.8ZM-23.73,0H-26.7V-9.51h2.971Zm-3.146-11.962A1.322,1.322,0,0,1-26.42-13a1.724,1.724,0,0,1,1.187-.4,1.724,1.724,0,0,1,1.187.4,1.322,1.322,0,0,1,.457,1.037,1.322,1.322,0,0,1-.457,1.037,1.724,1.724,0,0,1-1.187.4,1.724,1.724,0,0,1-1.187-.4A1.322,1.322,0,0,1-26.877-11.962Zm7.69,2.452.1,1.116a3.225,3.225,0,0,1,2.716-1.292,2.713,2.713,0,0,1,2.219.888,4.226,4.226,0,0,1,.76,2.672V0h-2.971V-6a1.6,1.6,0,0,0-.29-1.059A1.342,1.342,0,0,0-17.71-7.4,1.413,1.413,0,0,0-19-6.715V0h-2.962V-9.51Zm7.058,4.667a5.613,5.613,0,0,1,.554-2.536A3.96,3.96,0,0,1-9.984-9.088a4.791,4.791,0,0,1,2.435-.6A4.373,4.373,0,0,1-4.184-8.363a5.076,5.076,0,0,1,1.23,3.6v.105A4.925,4.925,0,0,1-4.188-1.129,4.384,4.384,0,0,1-7.532.176a4.434,4.434,0,0,1-3.261-1.217,4.761,4.761,0,0,1-1.327-3.3Zm2.962.185a3.538,3.538,0,0,0,.413,1.934,1.376,1.376,0,0,0,1.222.615q1.582,0,1.617-2.435v-.3Q-5.915-7.4-7.55-7.4q-1.485,0-1.608,2.206ZM4.1-6.829,3.129-6.9a1.752,1.752,0,0,0-1.793.879V0H-1.626V-9.51H1.151l.1,1.222a2.294,2.294,0,0,1,2.083-1.4,2.888,2.888,0,0,1,.826.105ZM8.3,0H5.326V-9.51H8.3ZM5.15-11.962A1.322,1.322,0,0,1,5.607-13a1.724,1.724,0,0,1,1.187-.4A1.724,1.724,0,0,1,7.98-13a1.322,1.322,0,0,1,.457,1.037,1.322,1.322,0,0,1-.457,1.037,1.724,1.724,0,0,1-1.187.4,1.724,1.724,0,0,1-1.187-.4A1.322,1.322,0,0,1,5.15-11.962ZM15.1-2.672a.684.684,0,0,0-.4-.606,6.016,6.016,0,0,0-1.5-.475A6.853,6.853,0,0,1,11.373-4.4a3.062,3.062,0,0,1-1.1-.971A2.319,2.319,0,0,1,9.9-6.68a2.628,2.628,0,0,1,1.081-2.158,4.453,4.453,0,0,1,2.83-.848,4.934,4.934,0,0,1,3.023.853,2.666,2.666,0,0,1,1.143,2.241H15q0-1.143-1.2-1.143a1.194,1.194,0,0,0-.782.259.8.8,0,0,0-.316.646.737.737,0,0,0,.387.642,3.654,3.654,0,0,0,1.235.4,10.671,10.671,0,0,1,1.49.378A2.706,2.706,0,0,1,17.956-2.76,2.491,2.491,0,0,1,16.8-.642a5.068,5.068,0,0,1-2.993.817,5.172,5.172,0,0,1-2.18-.439,3.645,3.645,0,0,1-1.494-1.2A2.707,2.707,0,0,1,9.6-3.05h2.769a1.145,1.145,0,0,0,.439.962,1.808,1.808,0,0,0,1.081.3,1.422,1.422,0,0,0,.91-.246A.787.787,0,0,0,15.1-2.672Zm7.69-9.2V-9.51h1.564v2.057H22.79V-3.1a1.111,1.111,0,0,0,.193.747,1.037,1.037,0,0,0,.765.211,4.345,4.345,0,0,0,.738-.053V-.079a5.466,5.466,0,0,1-1.67.255,3.1,3.1,0,0,1-2.259-.721,2.954,2.954,0,0,1-.729-2.188v-4.72H18.615V-9.51h1.213v-2.364ZM30.876,0a3.344,3.344,0,0,1-.281-.853A2.754,2.754,0,0,1,28.31.176a3.374,3.374,0,0,1-2.285-.813,2.588,2.588,0,0,1-.94-2.043,2.66,2.66,0,0,1,1.143-2.338,5.821,5.821,0,0,1,3.322-.791h.914v-.5q0-1.316-1.134-1.316a.927.927,0,0,0-1.055,1.042H25.313a2.655,2.655,0,0,1,1.173-2.239,4.931,4.931,0,0,1,2.993-.86,4.323,4.323,0,0,1,2.874.888,3.086,3.086,0,0,1,1.081,2.435v4.21a4.311,4.311,0,0,0,.4,2V0ZM29.021-1.934a1.652,1.652,0,0,0,.918-.237,1.487,1.487,0,0,0,.523-.536V-4.228H29.6q-1.547,0-1.547,1.389a.848.848,0,0,0,.272.655A.986.986,0,0,0,29.021-1.934Zm11.03-.738a.684.684,0,0,0-.4-.606,6.016,6.016,0,0,0-1.5-.475A6.853,6.853,0,0,1,36.325-4.4a3.062,3.062,0,0,1-1.1-.971,2.319,2.319,0,0,1-.378-1.31A2.628,2.628,0,0,1,35.93-8.837a4.453,4.453,0,0,1,2.83-.848,4.934,4.934,0,0,1,3.023.853,2.666,2.666,0,0,1,1.143,2.241H39.955q0-1.143-1.2-1.143a1.194,1.194,0,0,0-.782.259.8.8,0,0,0-.316.646.737.737,0,0,0,.387.642,3.654,3.654,0,0,0,1.235.4,10.671,10.671,0,0,1,1.49.378A2.706,2.706,0,0,1,42.908-2.76,2.491,2.491,0,0,1,41.752-.642,5.068,5.068,0,0,1,38.76.176a5.172,5.172,0,0,1-2.18-.439,3.645,3.645,0,0,1-1.494-1.2A2.707,2.707,0,0,1,34.55-3.05h2.769a1.145,1.145,0,0,0,.439.962,1.808,1.808,0,0,0,1.081.3,1.422,1.422,0,0,0,.91-.246A.787.787,0,0,0,40.052-2.672Z" transform="translate(820.427 16877.219)" fill="#fff"/>
    <path id="Rectángulo_18635" data-name="Rectángulo 18635" d="M14.962,0h148.15a14.962,14.962,0,0,1,14.962,14.962V52.616a14.962,14.962,0,0,1-14.962,14.962H14.962A14.962,14.962,0,0,1,0,52.616V14.962A14.962,14.962,0,0,1,14.962,0Z" transform="translate(733.958 16926.229)" fill="#75baf1"/>
    <path id="Comisionistas" d="M-46.639-4.333a4.673,4.673,0,0,1-.721,2.36A4.35,4.35,0,0,1-49.21-.387a6.3,6.3,0,0,1-2.72.563A5.025,5.025,0,0,1-55.9-1.468a6.786,6.786,0,0,1-1.45-4.641v-.633a7.746,7.746,0,0,1,.655-3.292,4.961,4.961,0,0,1,1.885-2.18,5.26,5.26,0,0,1,2.848-.769,5.516,5.516,0,0,1,3.744,1.226,4.844,4.844,0,0,1,1.608,3.379h-3.076a2.292,2.292,0,0,0-.589-1.679,2.422,2.422,0,0,0-1.687-.51,1.843,1.843,0,0,0-1.687.861,5.536,5.536,0,0,0-.562,2.751v.905A6.126,6.126,0,0,0-53.7-3.12a1.882,1.882,0,0,0,1.771.879,2.369,2.369,0,0,0,1.626-.5,2.126,2.126,0,0,0,.6-1.591Zm.949-.51a5.613,5.613,0,0,1,.554-2.536,3.96,3.96,0,0,1,1.591-1.709,4.791,4.791,0,0,1,2.435-.6,4.373,4.373,0,0,1,3.366,1.323,5.076,5.076,0,0,1,1.23,3.6v.105a4.925,4.925,0,0,1-1.235,3.529A4.384,4.384,0,0,1-41.093.176a4.434,4.434,0,0,1-3.261-1.217,4.761,4.761,0,0,1-1.327-3.3Zm2.962.185a3.538,3.538,0,0,0,.413,1.934,1.376,1.376,0,0,0,1.222.615q1.582,0,1.617-2.435v-.3q0-2.558-1.635-2.558-1.485,0-1.608,2.206ZM-32.41-9.51l.1,1.116A3.27,3.27,0,0,1-29.6-9.686a2.407,2.407,0,0,1,2.435,1.433,3.165,3.165,0,0,1,2.795-1.433q2.892,0,2.971,3.5V0h-2.971V-6a1.813,1.813,0,0,0-.246-1.063,1.048,1.048,0,0,0-.9-.334,1.4,1.4,0,0,0-1.31.782l.009.123V0h-2.971V-5.985a1.906,1.906,0,0,0-.237-1.081,1.045,1.045,0,0,0-.905-.334,1.42,1.42,0,0,0-1.3.782V0h-2.962V-9.51ZM-16.581,0h-2.971V-9.51h2.971Zm-3.146-11.962A1.322,1.322,0,0,1-19.27-13a1.724,1.724,0,0,1,1.187-.4A1.724,1.724,0,0,1-16.9-13a1.322,1.322,0,0,1,.457,1.037,1.322,1.322,0,0,1-.457,1.037,1.724,1.724,0,0,1-1.187.4,1.724,1.724,0,0,1-1.187-.4A1.322,1.322,0,0,1-19.727-11.962Zm9.949,9.29a.684.684,0,0,0-.4-.606,6.016,6.016,0,0,0-1.5-.475A6.853,6.853,0,0,1-13.5-4.4a3.062,3.062,0,0,1-1.1-.971,2.319,2.319,0,0,1-.378-1.31A2.628,2.628,0,0,1-13.9-8.837a4.453,4.453,0,0,1,2.83-.848,4.934,4.934,0,0,1,3.023.853A2.666,2.666,0,0,1-6.9-6.592H-9.875q0-1.143-1.2-1.143a1.194,1.194,0,0,0-.782.259.8.8,0,0,0-.316.646.737.737,0,0,0,.387.642,3.654,3.654,0,0,0,1.235.4,10.671,10.671,0,0,1,1.49.378A2.706,2.706,0,0,1-6.921-2.76,2.491,2.491,0,0,1-8.077-.642,5.068,5.068,0,0,1-11.07.176a5.172,5.172,0,0,1-2.18-.439,3.645,3.645,0,0,1-1.494-1.2A2.707,2.707,0,0,1-15.28-3.05h2.769a1.145,1.145,0,0,0,.439.962,1.808,1.808,0,0,0,1.081.3,1.422,1.422,0,0,0,.91-.246A.787.787,0,0,0-9.778-2.672ZM-2.413,0H-5.383V-9.51h2.971ZM-5.559-11.962A1.322,1.322,0,0,1-5.1-13a1.724,1.724,0,0,1,1.187-.4,1.724,1.724,0,0,1,1.187.4,1.322,1.322,0,0,1,.457,1.037,1.322,1.322,0,0,1-.457,1.037,1.724,1.724,0,0,1-1.187.4,1.724,1.724,0,0,1-1.187-.4A1.322,1.322,0,0,1-5.559-11.962Zm4.6,7.119A5.613,5.613,0,0,1-.409-7.378,3.96,3.96,0,0,1,1.182-9.088a4.791,4.791,0,0,1,2.435-.6A4.373,4.373,0,0,1,6.983-8.363a5.076,5.076,0,0,1,1.23,3.6v.105A4.925,4.925,0,0,1,6.979-1.129,4.384,4.384,0,0,1,3.634.176,4.434,4.434,0,0,1,.374-1.042a4.761,4.761,0,0,1-1.327-3.3ZM2-4.658a3.538,3.538,0,0,0,.413,1.934,1.376,1.376,0,0,0,1.222.615q1.582,0,1.617-2.435v-.3Q5.251-7.4,3.617-7.4q-1.485,0-1.608,2.206ZM12.239-9.51l.1,1.116a3.225,3.225,0,0,1,2.716-1.292,2.713,2.713,0,0,1,2.219.888,4.226,4.226,0,0,1,.76,2.672V0H15.06V-6a1.6,1.6,0,0,0-.29-1.059A1.342,1.342,0,0,0,13.715-7.4a1.413,1.413,0,0,0-1.292.686V0H9.461V-9.51ZM22.794,0H19.824V-9.51h2.971ZM19.648-11.962A1.322,1.322,0,0,1,20.1-13a1.724,1.724,0,0,1,1.187-.4,1.724,1.724,0,0,1,1.187.4,1.322,1.322,0,0,1,.457,1.037,1.322,1.322,0,0,1-.457,1.037,1.724,1.724,0,0,1-1.187.4,1.724,1.724,0,0,1-1.187-.4A1.322,1.322,0,0,1,19.648-11.962ZM29.6-2.672a.684.684,0,0,0-.4-.606,6.016,6.016,0,0,0-1.5-.475A6.853,6.853,0,0,1,25.871-4.4a3.062,3.062,0,0,1-1.1-.971,2.319,2.319,0,0,1-.378-1.31,2.628,2.628,0,0,1,1.081-2.158,4.453,4.453,0,0,1,2.83-.848,4.934,4.934,0,0,1,3.023.853,2.666,2.666,0,0,1,1.143,2.241H29.5q0-1.143-1.2-1.143a1.194,1.194,0,0,0-.782.259.8.8,0,0,0-.316.646.737.737,0,0,0,.387.642,3.654,3.654,0,0,0,1.235.4,10.671,10.671,0,0,1,1.49.378A2.706,2.706,0,0,1,32.454-2.76,2.491,2.491,0,0,1,31.3-.642a5.068,5.068,0,0,1-2.993.817,5.172,5.172,0,0,1-2.18-.439,3.645,3.645,0,0,1-1.494-1.2A2.707,2.707,0,0,1,24.1-3.05h2.769a1.145,1.145,0,0,0,.439.962,1.808,1.808,0,0,0,1.081.3,1.422,1.422,0,0,0,.91-.246A.787.787,0,0,0,29.6-2.672Zm7.69-9.2V-9.51h1.564v2.057H37.288V-3.1a1.111,1.111,0,0,0,.193.747,1.037,1.037,0,0,0,.765.211,4.345,4.345,0,0,0,.738-.053V-.079a5.466,5.466,0,0,1-1.67.255,3.1,3.1,0,0,1-2.259-.721,2.954,2.954,0,0,1-.729-2.188v-4.72H33.113V-9.51h1.213v-2.364ZM45.374,0a3.344,3.344,0,0,1-.281-.853A2.754,2.754,0,0,1,42.807.176a3.374,3.374,0,0,1-2.285-.813,2.588,2.588,0,0,1-.94-2.043,2.66,2.66,0,0,1,1.143-2.338,5.821,5.821,0,0,1,3.322-.791h.914v-.5q0-1.316-1.134-1.316a.927.927,0,0,0-1.055,1.042H39.81a2.655,2.655,0,0,1,1.173-2.239,4.931,4.931,0,0,1,2.993-.86A4.323,4.323,0,0,1,46.85-8.8a3.086,3.086,0,0,1,1.081,2.435v4.21a4.311,4.311,0,0,0,.4,2V0ZM43.519-1.934a1.652,1.652,0,0,0,.918-.237,1.487,1.487,0,0,0,.523-.536V-4.228H44.1q-1.547,0-1.547,1.389a.848.848,0,0,0,.272.655A.986.986,0,0,0,43.519-1.934Zm11.03-.738a.684.684,0,0,0-.4-.606,6.016,6.016,0,0,0-1.5-.475A6.853,6.853,0,0,1,50.823-4.4a3.062,3.062,0,0,1-1.1-.971,2.319,2.319,0,0,1-.378-1.31,2.628,2.628,0,0,1,1.081-2.158,4.453,4.453,0,0,1,2.83-.848,4.934,4.934,0,0,1,3.023.853,2.666,2.666,0,0,1,1.143,2.241H54.453q0-1.143-1.2-1.143a1.194,1.194,0,0,0-.782.259.8.8,0,0,0-.316.646.737.737,0,0,0,.387.642,3.654,3.654,0,0,0,1.235.4,10.671,10.671,0,0,1,1.49.378A2.706,2.706,0,0,1,57.406-2.76,2.491,2.491,0,0,1,56.25-.642a5.068,5.068,0,0,1-2.993.817,5.172,5.172,0,0,1-2.18-.439,3.645,3.645,0,0,1-1.494-1.2,2.707,2.707,0,0,1-.536-1.591h2.769a1.145,1.145,0,0,0,.439.962,1.808,1.808,0,0,0,1.081.3,1.422,1.422,0,0,0,.91-.246A.787.787,0,0,0,54.549-2.672Z" transform="translate(826.125 16964.324)" fill="#12263f"/>
    <path id="Rectángulo_18636" data-name="Rectángulo 18636" d="M14.962,0h148.15a14.962,14.962,0,0,1,14.962,14.962V52.616a14.962,14.962,0,0,1-14.962,14.962H14.962A14.962,14.962,0,0,1,0,52.616V14.962A14.962,14.962,0,0,1,14.962,0Z" transform="translate(733.958 17031.992)" fill="#75baf1"/>
    <path id="Agentes_vendedores" data-name="Agentes vendedores" d="M-27.888-2.391h-4.228L-32.854,0h-3.3l4.693-12.8h2.9L-23.827,0h-3.313Zm-3.489-2.382h2.751l-1.38-4.438Zm8-.053A6.421,6.421,0,0,1-22.9-7.374a3.821,3.821,0,0,1,1.362-1.709,3.591,3.591,0,0,1,2.065-.6,2.855,2.855,0,0,1,2.32,1l.105-.826h2.689V-.36a4.009,4.009,0,0,1-.584,2.184,3.75,3.75,0,0,1-1.692,1.424,6.219,6.219,0,0,1-2.566.5,5.365,5.365,0,0,1-2.026-.4,3.657,3.657,0,0,1-1.5-1.028L-21.489.58a2.716,2.716,0,0,0,2.18.976A1.764,1.764,0,0,0-17.341-.466v-.3a2.781,2.781,0,0,1-2.153.94,3.437,3.437,0,0,1-2.812-1.332A5.517,5.517,0,0,1-23.379-4.72Zm2.971.185a3.383,3.383,0,0,0,.439,1.85,1.386,1.386,0,0,0,1.23.681,1.573,1.573,0,0,0,1.4-.642v-4a1.534,1.534,0,0,0-1.38-.65,1.4,1.4,0,0,0-1.239.708A3.858,3.858,0,0,0-20.408-4.641ZM-8.077.176a4.889,4.889,0,0,1-3.542-1.305,4.507,4.507,0,0,1-1.354-3.4v-.246a5.84,5.84,0,0,1,.541-2.575,3.955,3.955,0,0,1,1.578-1.727,4.763,4.763,0,0,1,2.461-.611A4.117,4.117,0,0,1-5.229-8.442a4.887,4.887,0,0,1,1.16,3.467v1.151H-9.958a2.135,2.135,0,0,0,.694,1.257,2.066,2.066,0,0,0,1.389.457,2.662,2.662,0,0,0,2.2-.984l1.354,1.6A3.784,3.784,0,0,1-5.893-.277,5.3,5.3,0,0,1-8.077.176ZM-8.411-7.4q-1.3,0-1.547,1.723H-6.97v-.229a1.467,1.467,0,0,0-.36-1.1A1.434,1.434,0,0,0-8.411-7.4ZM-.158-9.51l.1,1.116A3.225,3.225,0,0,1,2.654-9.686,2.713,2.713,0,0,1,4.874-8.8a4.226,4.226,0,0,1,.76,2.672V0H2.663V-6a1.6,1.6,0,0,0-.29-1.059A1.342,1.342,0,0,0,1.318-7.4a1.413,1.413,0,0,0-1.292.686V0H-2.936V-9.51Zm10.881-2.364V-9.51h1.564v2.057H10.723V-3.1a1.111,1.111,0,0,0,.193.747,1.037,1.037,0,0,0,.765.211,4.345,4.345,0,0,0,.738-.053V-.079a5.466,5.466,0,0,1-1.67.255A3.1,3.1,0,0,1,8.49-.545a2.954,2.954,0,0,1-.729-2.188v-4.72H6.548V-9.51H7.761v-2.364ZM18.053.176a4.889,4.889,0,0,1-3.542-1.305,4.507,4.507,0,0,1-1.354-3.4v-.246A5.84,5.84,0,0,1,13.7-7.348a3.955,3.955,0,0,1,1.578-1.727,4.763,4.763,0,0,1,2.461-.611A4.117,4.117,0,0,1,20.9-8.442a4.887,4.887,0,0,1,1.16,3.467v1.151H16.172a2.135,2.135,0,0,0,.694,1.257,2.066,2.066,0,0,0,1.389.457,2.662,2.662,0,0,0,2.2-.984l1.354,1.6A3.784,3.784,0,0,1,20.237-.277,5.3,5.3,0,0,1,18.053.176ZM17.719-7.4q-1.3,0-1.547,1.723H19.16v-.229a1.467,1.467,0,0,0-.36-1.1A1.434,1.434,0,0,0,17.719-7.4ZM28.23-2.672a.684.684,0,0,0-.4-.606,6.016,6.016,0,0,0-1.5-.475A6.853,6.853,0,0,1,24.5-4.4a3.062,3.062,0,0,1-1.1-.971,2.319,2.319,0,0,1-.378-1.31,2.628,2.628,0,0,1,1.081-2.158,4.453,4.453,0,0,1,2.83-.848,4.934,4.934,0,0,1,3.023.853A2.666,2.666,0,0,1,31.1-6.592H28.134q0-1.143-1.2-1.143a1.194,1.194,0,0,0-.782.259.8.8,0,0,0-.316.646.737.737,0,0,0,.387.642,3.654,3.654,0,0,0,1.235.4,10.671,10.671,0,0,1,1.49.378A2.706,2.706,0,0,1,31.087-2.76,2.491,2.491,0,0,1,29.931-.642a5.068,5.068,0,0,1-2.993.817,5.172,5.172,0,0,1-2.18-.439,3.645,3.645,0,0,1-1.494-1.2,2.707,2.707,0,0,1-.536-1.591H25.5a1.145,1.145,0,0,0,.439.962,1.808,1.808,0,0,0,1.081.3,1.422,1.422,0,0,0,.91-.246A.787.787,0,0,0,28.23-2.672ZM-42.86,16.476l1.5-5.985h3.12l-3.1,9.51h-3.023l-3.1-9.51h3.129Zm9.993,3.7a4.889,4.889,0,0,1-3.542-1.305,4.507,4.507,0,0,1-1.354-3.4v-.246a5.84,5.84,0,0,1,.541-2.575,3.955,3.955,0,0,1,1.578-1.727,4.763,4.763,0,0,1,2.461-.611,4.117,4.117,0,0,1,3.164,1.244,4.887,4.887,0,0,1,1.16,3.467v1.151h-5.889a2.135,2.135,0,0,0,.694,1.257,2.066,2.066,0,0,0,1.389.457,2.662,2.662,0,0,0,2.2-.984l1.354,1.6a3.784,3.784,0,0,1-1.569,1.217A5.3,5.3,0,0,1-32.867,20.176ZM-33.2,12.6q-1.3,0-1.547,1.723h2.988v-.229a1.467,1.467,0,0,0-.36-1.1A1.434,1.434,0,0,0-33.2,12.6Zm8.253-2.109.1,1.116a3.225,3.225,0,0,1,2.716-1.292,2.713,2.713,0,0,1,2.219.888,4.226,4.226,0,0,1,.76,2.672V20h-2.971V14a1.6,1.6,0,0,0-.29-1.059,1.342,1.342,0,0,0-1.055-.338,1.413,1.413,0,0,0-1.292.686V20h-2.962V10.49Zm7.058,4.685a5.809,5.809,0,0,1,.976-3.56,3.211,3.211,0,0,1,2.725-1.3,2.731,2.731,0,0,1,2.145,1V6.5h2.971V20h-2.663l-.149-1.02a2.8,2.8,0,0,1-2.32,1.2,3.205,3.205,0,0,1-2.689-1.3A5.993,5.993,0,0,1-17.89,15.175Zm2.962.185q0,2.531,1.477,2.531a1.458,1.458,0,0,0,1.406-.826V13.443a1.419,1.419,0,0,0-1.389-.844q-1.371,0-1.485,2.215Zm12.138,4.816a4.889,4.889,0,0,1-3.542-1.305,4.507,4.507,0,0,1-1.354-3.4v-.246a5.84,5.84,0,0,1,.541-2.575,3.955,3.955,0,0,1,1.578-1.727,4.763,4.763,0,0,1,2.461-.611A4.117,4.117,0,0,1,.057,11.558a4.887,4.887,0,0,1,1.16,3.467v1.151H-4.671a2.135,2.135,0,0,0,.694,1.257,2.066,2.066,0,0,0,1.389.457,2.662,2.662,0,0,0,2.2-.984l1.354,1.6A3.784,3.784,0,0,1-.606,19.723,5.3,5.3,0,0,1-2.791,20.176ZM-3.125,12.6q-1.3,0-1.547,1.723h2.988v-.229a1.467,1.467,0,0,0-.36-1.1A1.434,1.434,0,0,0-3.125,12.6Zm5.159,2.575a5.809,5.809,0,0,1,.976-3.56,3.211,3.211,0,0,1,2.725-1.3,2.731,2.731,0,0,1,2.145,1V6.5H10.85V20H8.187l-.149-1.02a2.8,2.8,0,0,1-2.32,1.2,3.205,3.205,0,0,1-2.689-1.3A5.993,5.993,0,0,1,2.035,15.175ZM5,15.359q0,2.531,1.477,2.531a1.458,1.458,0,0,0,1.406-.826V13.443A1.419,1.419,0,0,0,6.491,12.6q-1.371,0-1.485,2.215Zm7.163-.2a5.613,5.613,0,0,1,.554-2.536A3.96,3.96,0,0,1,14.3,10.912a4.791,4.791,0,0,1,2.435-.6A4.373,4.373,0,0,1,20.1,11.637a5.076,5.076,0,0,1,1.23,3.6v.105A4.925,4.925,0,0,1,20.1,18.871a4.384,4.384,0,0,1-3.344,1.305A4.434,4.434,0,0,1,13.5,18.958a4.761,4.761,0,0,1-1.327-3.3Zm2.962.185a3.538,3.538,0,0,0,.413,1.934,1.376,1.376,0,0,0,1.222.615q1.582,0,1.617-2.435v-.3q0-2.558-1.635-2.558-1.485,0-1.608,2.206Zm13.271-2.171-.976-.07a1.752,1.752,0,0,0-1.793.879V20H22.663V10.49H25.44l.1,1.222a2.294,2.294,0,0,1,2.083-1.4,2.888,2.888,0,0,1,.826.105Zm5.5,7a4.889,4.889,0,0,1-3.542-1.305A4.507,4.507,0,0,1,29,15.474v-.246a5.84,5.84,0,0,1,.541-2.575,3.955,3.955,0,0,1,1.578-1.727,4.763,4.763,0,0,1,2.461-.611,4.117,4.117,0,0,1,3.164,1.244,4.887,4.887,0,0,1,1.16,3.467v1.151H32.014a2.135,2.135,0,0,0,.694,1.257,2.066,2.066,0,0,0,1.389.457,2.662,2.662,0,0,0,2.2-.984l1.354,1.6a3.784,3.784,0,0,1-1.569,1.217A5.3,5.3,0,0,1,33.9,20.176ZM33.561,12.6q-1.3,0-1.547,1.723H35v-.229a1.467,1.467,0,0,0-.36-1.1A1.434,1.434,0,0,0,33.561,12.6Zm10.512,4.729a.684.684,0,0,0-.4-.606,6.016,6.016,0,0,0-1.5-.475,6.853,6.853,0,0,1-1.828-.646,3.062,3.062,0,0,1-1.1-.971,2.319,2.319,0,0,1-.378-1.31,2.628,2.628,0,0,1,1.081-2.158,4.453,4.453,0,0,1,2.83-.848,4.934,4.934,0,0,1,3.023.853,2.666,2.666,0,0,1,1.143,2.241H43.976q0-1.143-1.2-1.143a1.194,1.194,0,0,0-.782.259.8.8,0,0,0-.316.646.737.737,0,0,0,.387.642,3.654,3.654,0,0,0,1.235.4,10.671,10.671,0,0,1,1.49.378,2.706,2.706,0,0,1,2.145,2.646,2.491,2.491,0,0,1-1.156,2.118,5.068,5.068,0,0,1-2.993.817,5.172,5.172,0,0,1-2.18-.439,3.645,3.645,0,0,1-1.494-1.2,2.707,2.707,0,0,1-.536-1.591h2.769a1.145,1.145,0,0,0,.439.962,1.808,1.808,0,0,0,1.081.3,1.422,1.422,0,0,0,.91-.246A.787.787,0,0,0,44.073,17.328Z" transform="translate(824.345 17060.273)" fill="#12263f"/>
    <path id="Línea_234" data-name="Línea 234" d="M0,100a1,1,0,0,1-1-1V0A1,1,0,0,1,0-1,1,1,0,0,1,1,0V99A1,1,0,0,1,0,100Z" transform="translate(706.097 16773.416)" fill="#6e3dc6"/>
    <path id="Línea_234-2" data-name="Línea 234" d="M0,100a1,1,0,0,1-1-1V0A1,1,0,0,1,0-1,1,1,0,0,1,1,0V99A1,1,0,0,1,0,100Z" transform="translate(706.097 16963.277)" fill="#6e3dc6"/>
    <path id="Línea_234-3" data-name="Línea 234" d="M0,100a1,1,0,0,1-1-1V0A1,1,0,0,1,0-1,1,1,0,0,1,1,0V99A1,1,0,0,1,0,100Z" transform="translate(706.097 17225.633)" fill="#6e3dc6"/>
    <path id="Línea_234-4" data-name="Línea 234" d="M0,100a1,1,0,0,1-1-1V0A1,1,0,0,1,0-1,1,1,0,0,1,1,0V99A1,1,0,0,1,0,100Z" transform="translate(946.977 17225.633)" fill="#6e3dc6"/>
    <path id="Línea_234-5" data-name="Línea 234" d="M0,100a1,1,0,0,1-1-1V0A1,1,0,0,1,0-1,1,1,0,0,1,1,0V99A1,1,0,0,1,0,100Z" transform="translate(706.097 17321.035)" fill="#6e3dc6"/>
    <path id="Línea_234-6" data-name="Línea 234" d="M0,100a1,1,0,0,1-1-1V0A1,1,0,0,1,0-1,1,1,0,0,1,1,0V99A1,1,0,0,1,0,100Z" transform="translate(946.977 17321.035)" fill="#6e3dc6"/>
    <path id="Línea_234-7" data-name="Línea 234" d="M0,100a1,1,0,0,1-1-1V0A1,1,0,0,1,0-1,1,1,0,0,1,1,0V99A1,1,0,0,1,0,100Z" transform="translate(706.097 17147.578)" fill="#6e3dc6"/>
    <path id="Línea_234-8" data-name="Línea 234" d="M0,100a1,1,0,0,1-1-1V0A1,1,0,0,1,0-1,1,1,0,0,1,1,0V99A1,1,0,0,1,0,100Z" transform="translate(946.977 17147.578)" fill="#6e3dc6"/>
    <path id="Línea_235" data-name="Línea 235" d="M100.7,1H0A1,1,0,0,1-1,0,1,1,0,0,1,0-1H100.7a1,1,0,0,1,1,1A1,1,0,0,1,100.7,1Z" transform="translate(604.304 16822.742)" fill="#6e3dc6"/>
    <path id="Línea_235-2" data-name="Línea 235" d="M100.7,1H0A1,1,0,0,1-1,0,1,1,0,0,1,0-1H100.7a1,1,0,0,1,1,1A1,1,0,0,1,100.7,1Z" transform="translate(604.304 17012.605)" fill="#6e3dc6"/>
    <path id="Línea_235-3" data-name="Línea 235" d="M100.7,1H0A1,1,0,0,1-1,0,1,1,0,0,1,0-1H100.7a1,1,0,0,1,1,1A1,1,0,0,1,100.7,1Z" transform="translate(604.304 17274.959)" fill="#6e3dc6"/>
    <path id="Línea_235-4" data-name="Línea 235" d="M100.7,1H0A1,1,0,0,1-1,0,1,1,0,0,1,0-1H100.7a1,1,0,0,1,1,1A1,1,0,0,1,100.7,1Z" transform="translate(948.073 17274.959)" fill="#6e3dc6"/>
    <path id="Rectángulo_18637" data-name="Rectángulo 18637" d="M14.962,0h148.15a14.962,14.962,0,0,1,14.962,14.962V41.616a14.962,14.962,0,0,1-14.962,14.962H14.962A14.962,14.962,0,0,1,0,41.616V14.962A14.962,14.962,0,0,1,14.962,0Z" transform="translate(736.926 17117.223)" fill="#fae9b5"/>
    <path id="Rectángulo_18637-2" data-name="Rectángulo 18637" d="M14.962,0h148.15a14.962,14.962,0,0,1,14.962,14.962V41.616a14.962,14.962,0,0,1-14.962,14.962H14.962A14.962,14.962,0,0,1,0,41.616V14.962A14.962,14.962,0,0,1,14.962,0Z" transform="translate(736.926 17196.953)" fill="#fae9b5"/>
    <path id="Rectángulo_18637-3" data-name="Rectángulo 18637" d="M14.962,0h148.15a14.962,14.962,0,0,1,14.962,14.962V41.616a14.962,14.962,0,0,1-14.962,14.962H14.962A14.962,14.962,0,0,1,0,41.616V14.962A14.962,14.962,0,0,1,14.962,0Z" transform="translate(736.926 17296.838)" fill="#fae9b5"/>
    <path id="Transportes" d="M-38.465-10.415h-3.841V0h-3.085V-10.415h-3.771V-12.8h10.7Zm6.346,3.586L-33.1-6.9a1.752,1.752,0,0,0-1.793.879V0H-37.85V-9.51h2.777l.1,1.222a2.294,2.294,0,0,1,2.083-1.4,2.888,2.888,0,0,1,.826.105ZM-25.958,0a3.344,3.344,0,0,1-.281-.853A2.754,2.754,0,0,1-28.525.176,3.374,3.374,0,0,1-30.81-.637a2.588,2.588,0,0,1-.94-2.043,2.66,2.66,0,0,1,1.143-2.338,5.821,5.821,0,0,1,3.322-.791h.914v-.5q0-1.316-1.134-1.316A.927.927,0,0,0-28.56-6.587h-2.962a2.655,2.655,0,0,1,1.173-2.239,4.931,4.931,0,0,1,2.993-.86,4.323,4.323,0,0,1,2.874.888A3.086,3.086,0,0,1-23.4-6.363v4.21a4.311,4.311,0,0,0,.4,2V0Zm-1.854-1.934a1.652,1.652,0,0,0,.918-.237,1.487,1.487,0,0,0,.523-.536V-4.228h-.861q-1.547,0-1.547,1.389a.848.848,0,0,0,.272.655A.986.986,0,0,0-27.813-1.934Zm8.771-7.576.1,1.116a3.225,3.225,0,0,1,2.716-1.292A2.713,2.713,0,0,1-14.01-8.8a4.226,4.226,0,0,1,.76,2.672V0H-16.22V-6a1.6,1.6,0,0,0-.29-1.059A1.342,1.342,0,0,0-17.565-7.4a1.413,1.413,0,0,0-1.292.686V0h-2.962V-9.51Zm12.41,6.838a.684.684,0,0,0-.4-.606,6.016,6.016,0,0,0-1.5-.475A6.853,6.853,0,0,1-10.358-4.4a3.062,3.062,0,0,1-1.1-.971,2.319,2.319,0,0,1-.378-1.31,2.628,2.628,0,0,1,1.081-2.158,4.453,4.453,0,0,1,2.83-.848A4.934,4.934,0,0,1-4.9-8.833,2.666,2.666,0,0,1-3.757-6.592H-6.728q0-1.143-1.2-1.143a1.194,1.194,0,0,0-.782.259.8.8,0,0,0-.316.646.737.737,0,0,0,.387.642,3.654,3.654,0,0,0,1.235.4,10.671,10.671,0,0,1,1.49.378A2.706,2.706,0,0,1-3.775-2.76,2.491,2.491,0,0,1-4.931-.642,5.068,5.068,0,0,1-7.923.176,5.172,5.172,0,0,1-10.1-.264a3.645,3.645,0,0,1-1.494-1.2,2.707,2.707,0,0,1-.536-1.591h2.769a1.145,1.145,0,0,0,.439.962,1.808,1.808,0,0,0,1.081.3,1.422,1.422,0,0,0,.91-.246A.787.787,0,0,0-6.631-2.672ZM6.438-4.685a5.735,5.735,0,0,1-1,3.538A3.2,3.2,0,0,1,2.747.176,2.742,2.742,0,0,1,.593-.782V3.656H-2.369V-9.51H.4l.088.879A2.742,2.742,0,0,1,2.729-9.686a3.224,3.224,0,0,1,2.733,1.3,5.805,5.805,0,0,1,.976,3.564ZM3.476-4.869Q3.476-7.4,2-7.4a1.394,1.394,0,0,0-1.406.756V-2.9a1.439,1.439,0,0,0,1.424.791q1.415,0,1.459-2.443Zm3.894.026a5.613,5.613,0,0,1,.554-2.536A3.96,3.96,0,0,1,9.514-9.088a4.791,4.791,0,0,1,2.435-.6,4.373,4.373,0,0,1,3.366,1.323,5.076,5.076,0,0,1,1.23,3.6v.105a4.925,4.925,0,0,1-1.235,3.529A4.384,4.384,0,0,1,11.966.176,4.434,4.434,0,0,1,8.706-1.042a4.761,4.761,0,0,1-1.327-3.3Zm2.962.185a3.538,3.538,0,0,0,.413,1.934,1.376,1.376,0,0,0,1.222.615q1.582,0,1.617-2.435v-.3q0-2.558-1.635-2.558-1.485,0-1.608,2.206ZM23.6-6.829l-.976-.07a1.752,1.752,0,0,0-1.793.879V0H17.873V-9.51H20.65l.1,1.222a2.294,2.294,0,0,1,2.083-1.4,2.888,2.888,0,0,1,.826.105Zm4.957-5.045V-9.51h1.564v2.057H28.56V-3.1a1.111,1.111,0,0,0,.193.747,1.037,1.037,0,0,0,.765.211,4.345,4.345,0,0,0,.738-.053V-.079a5.466,5.466,0,0,1-1.67.255,3.1,3.1,0,0,1-2.259-.721A2.954,2.954,0,0,1,25.6-2.733v-4.72H24.385V-9.51H25.6v-2.364ZM35.89.176a4.889,4.889,0,0,1-3.542-1.305,4.507,4.507,0,0,1-1.354-3.4v-.246a5.84,5.84,0,0,1,.541-2.575,3.955,3.955,0,0,1,1.578-1.727,4.763,4.763,0,0,1,2.461-.611,4.117,4.117,0,0,1,3.164,1.244A4.887,4.887,0,0,1,39.9-4.975v1.151H34.009A2.135,2.135,0,0,0,34.7-2.566a2.066,2.066,0,0,0,1.389.457,2.662,2.662,0,0,0,2.2-.984l1.354,1.6A3.784,3.784,0,0,1,38.074-.277,5.3,5.3,0,0,1,35.89.176ZM35.556-7.4q-1.3,0-1.547,1.723H37v-.229a1.467,1.467,0,0,0-.36-1.1A1.434,1.434,0,0,0,35.556-7.4ZM46.068-2.672a.684.684,0,0,0-.4-.606,6.016,6.016,0,0,0-1.5-.475A6.853,6.853,0,0,1,42.341-4.4a3.062,3.062,0,0,1-1.1-.971,2.319,2.319,0,0,1-.378-1.31,2.628,2.628,0,0,1,1.081-2.158,4.453,4.453,0,0,1,2.83-.848,4.934,4.934,0,0,1,3.023.853,2.666,2.666,0,0,1,1.143,2.241H45.971q0-1.143-1.2-1.143a1.194,1.194,0,0,0-.782.259.8.8,0,0,0-.316.646.737.737,0,0,0,.387.642,3.654,3.654,0,0,0,1.235.4,10.671,10.671,0,0,1,1.49.378A2.706,2.706,0,0,1,48.924-2.76,2.491,2.491,0,0,1,47.769-.642a5.068,5.068,0,0,1-2.993.817A5.172,5.172,0,0,1,42.6-.264a3.645,3.645,0,0,1-1.494-1.2,2.707,2.707,0,0,1-.536-1.591h2.769a1.145,1.145,0,0,0,.439.962,1.808,1.808,0,0,0,1.081.3,1.422,1.422,0,0,0,.91-.246A.787.787,0,0,0,46.068-2.672Z" transform="translate(824.345 17152.512)" fill="#12263f"/>
    <path id="Almacenamiento" d="M-60.539-2.391h-4.228L-65.5,0h-3.3l4.693-12.8h2.9L-56.479,0h-3.313Zm-3.489-2.382h2.751l-1.38-4.438ZM-52.559,0h-2.971V-13.5h2.971Zm4.623-9.51.1,1.116a3.27,3.27,0,0,1,2.716-1.292,2.407,2.407,0,0,1,2.435,1.433,3.165,3.165,0,0,1,2.795-1.433q2.892,0,2.971,3.5V0h-2.971V-6a1.813,1.813,0,0,0-.246-1.063,1.048,1.048,0,0,0-.9-.334,1.4,1.4,0,0,0-1.31.782l.009.123V0h-2.971V-5.985a1.906,1.906,0,0,0-.237-1.081A1.045,1.045,0,0,0-46.45-7.4a1.42,1.42,0,0,0-1.3.782V0h-2.962V-9.51ZM-29.874,0a3.344,3.344,0,0,1-.281-.853A2.754,2.754,0,0,1-32.44.176a3.374,3.374,0,0,1-2.285-.813,2.588,2.588,0,0,1-.94-2.043,2.66,2.66,0,0,1,1.143-2.338A5.821,5.821,0,0,1-31.2-5.81h.914v-.5q0-1.316-1.134-1.316a.927.927,0,0,0-1.055,1.042h-2.962a2.655,2.655,0,0,1,1.173-2.239,4.931,4.931,0,0,1,2.993-.86A4.323,4.323,0,0,1-28.4-8.8a3.086,3.086,0,0,1,1.081,2.435v4.21a4.311,4.311,0,0,0,.4,2V0Zm-1.854-1.934a1.652,1.652,0,0,0,.918-.237,1.487,1.487,0,0,0,.523-.536V-4.228h-.861q-1.547,0-1.547,1.389a.848.848,0,0,0,.272.655A.986.986,0,0,0-31.729-1.934Zm10.072-.176a1.317,1.317,0,0,0,.967-.338,1.241,1.241,0,0,0,.334-.945h2.777A3.288,3.288,0,0,1-18.7-.826a4.168,4.168,0,0,1-2.887,1,4.22,4.22,0,0,1-3.27-1.3,5.125,5.125,0,0,1-1.2-3.6v-.123A5.792,5.792,0,0,1-25.519-7.4a3.872,3.872,0,0,1,1.534-1.7,4.573,4.573,0,0,1,2.373-.593,4.116,4.116,0,0,1,2.944,1.028,3.647,3.647,0,0,1,1.09,2.786h-2.777A1.626,1.626,0,0,0-20.716-7a1.244,1.244,0,0,0-.967-.4q-1.151,0-1.345,1.468a10.357,10.357,0,0,0-.062,1.283,4.068,4.068,0,0,0,.343,1.986A1.187,1.187,0,0,0-21.656-2.109ZM-11.725.176a4.889,4.889,0,0,1-3.542-1.305,4.507,4.507,0,0,1-1.354-3.4v-.246a5.84,5.84,0,0,1,.541-2.575A3.955,3.955,0,0,1-14.5-9.075a4.763,4.763,0,0,1,2.461-.611A4.117,4.117,0,0,1-8.877-8.442a4.887,4.887,0,0,1,1.16,3.467v1.151h-5.889a2.135,2.135,0,0,0,.694,1.257,2.066,2.066,0,0,0,1.389.457,2.662,2.662,0,0,0,2.2-.984l1.354,1.6A3.784,3.784,0,0,1-9.541-.277,5.3,5.3,0,0,1-11.725.176ZM-12.059-7.4q-1.3,0-1.547,1.723h2.988v-.229a1.467,1.467,0,0,0-.36-1.1A1.434,1.434,0,0,0-12.059-7.4ZM-3.806-9.51l.1,1.116A3.225,3.225,0,0,1-.993-9.686,2.713,2.713,0,0,1,1.226-8.8a4.226,4.226,0,0,1,.76,2.672V0H-.984V-6a1.6,1.6,0,0,0-.29-1.059A1.342,1.342,0,0,0-2.329-7.4a1.413,1.413,0,0,0-1.292.686V0H-6.583V-9.51ZM8.982,0A3.344,3.344,0,0,1,8.7-.853,2.754,2.754,0,0,1,6.416.176,3.374,3.374,0,0,1,4.131-.637a2.588,2.588,0,0,1-.94-2.043A2.66,2.66,0,0,1,4.333-5.019,5.821,5.821,0,0,1,7.655-5.81h.914v-.5q0-1.316-1.134-1.316A.927.927,0,0,0,6.381-6.587H3.419A2.655,2.655,0,0,1,4.592-8.825a4.931,4.931,0,0,1,2.993-.86,4.323,4.323,0,0,1,2.874.888A3.086,3.086,0,0,1,11.54-6.363v4.21a4.311,4.311,0,0,0,.4,2V0ZM7.128-1.934a1.652,1.652,0,0,0,.918-.237,1.487,1.487,0,0,0,.523-.536V-4.228H7.708q-1.547,0-1.547,1.389a.848.848,0,0,0,.272.655A.986.986,0,0,0,7.128-1.934ZM15.979-9.51l.1,1.116a3.27,3.27,0,0,1,2.716-1.292,2.407,2.407,0,0,1,2.435,1.433,3.165,3.165,0,0,1,2.795-1.433q2.892,0,2.971,3.5V0H24.021V-6a1.813,1.813,0,0,0-.246-1.063,1.048,1.048,0,0,0-.9-.334,1.4,1.4,0,0,0-1.31.782l.009.123V0H18.606V-5.985a1.906,1.906,0,0,0-.237-1.081,1.045,1.045,0,0,0-.905-.334,1.42,1.42,0,0,0-1.3.782V0H13.2V-9.51ZM31.808,0H28.837V-9.51h2.971ZM28.661-11.962A1.322,1.322,0,0,1,29.118-13a1.724,1.724,0,0,1,1.187-.4,1.724,1.724,0,0,1,1.187.4,1.322,1.322,0,0,1,.457,1.037,1.322,1.322,0,0,1-.457,1.037,1.724,1.724,0,0,1-1.187.4,1.724,1.724,0,0,1-1.187-.4A1.322,1.322,0,0,1,28.661-11.962ZM38.232.176A4.889,4.889,0,0,1,34.69-1.129a4.507,4.507,0,0,1-1.354-3.4v-.246a5.84,5.84,0,0,1,.541-2.575,3.955,3.955,0,0,1,1.578-1.727,4.763,4.763,0,0,1,2.461-.611A4.117,4.117,0,0,1,41.08-8.442a4.887,4.887,0,0,1,1.16,3.467v1.151H36.352a2.135,2.135,0,0,0,.694,1.257,2.066,2.066,0,0,0,1.389.457,2.662,2.662,0,0,0,2.2-.984l1.354,1.6A3.784,3.784,0,0,1,40.417-.277,5.3,5.3,0,0,1,38.232.176ZM37.9-7.4q-1.3,0-1.547,1.723H39.34v-.229a1.467,1.467,0,0,0-.36-1.1A1.434,1.434,0,0,0,37.9-7.4ZM46.151-9.51l.1,1.116a3.225,3.225,0,0,1,2.716-1.292,2.713,2.713,0,0,1,2.219.888,4.226,4.226,0,0,1,.76,2.672V0H48.973V-6a1.6,1.6,0,0,0-.29-1.059A1.342,1.342,0,0,0,47.628-7.4a1.413,1.413,0,0,0-1.292.686V0H43.374V-9.51Zm10.881-2.364V-9.51H58.6v2.057H57.032V-3.1a1.111,1.111,0,0,0,.193.747,1.037,1.037,0,0,0,.765.211,4.345,4.345,0,0,0,.738-.053V-.079a5.466,5.466,0,0,1-1.67.255A3.1,3.1,0,0,1,54.8-.545a2.954,2.954,0,0,1-.729-2.188v-4.72H52.857V-9.51H54.07v-2.364Zm2.092,7.031a5.613,5.613,0,0,1,.554-2.536,3.96,3.96,0,0,1,1.591-1.709,4.791,4.791,0,0,1,2.435-.6,4.373,4.373,0,0,1,3.366,1.323,5.076,5.076,0,0,1,1.23,3.6v.105a4.925,4.925,0,0,1-1.235,3.529A4.384,4.384,0,0,1,63.721.176,4.434,4.434,0,0,1,60.46-1.042a4.761,4.761,0,0,1-1.327-3.3Zm2.962.185A3.538,3.538,0,0,0,62.5-2.725a1.376,1.376,0,0,0,1.222.615q1.582,0,1.617-2.435v-.3Q65.338-7.4,63.7-7.4q-1.485,0-1.608,2.206Z" transform="translate(828.963 17232.633)" fill="#12263f"/>
    <path id="Bancos" d="M-29.03,0V-12.8h4.6a6.509,6.509,0,0,1,3.757.905,3.012,3.012,0,0,1,1.288,2.628,3.045,3.045,0,0,1-.457,1.7A2.663,2.663,0,0,1-21.19-6.53a2.7,2.7,0,0,1,1.538.984,2.862,2.862,0,0,1,.536,1.758A3.388,3.388,0,0,1-20.307-.962,5.667,5.667,0,0,1-23.836,0Zm3.085-5.44v3.067h2.021a1.923,1.923,0,0,0,1.283-.382,1.338,1.338,0,0,0,.448-1.077A1.419,1.419,0,0,0-23.783-5.44Zm0-2.021h1.608a2.285,2.285,0,0,0,1.441-.37A1.314,1.314,0,0,0-22.465-8.9a1.379,1.379,0,0,0-.466-1.168,2.493,2.493,0,0,0-1.5-.357h-1.512ZM-12.2,0a3.344,3.344,0,0,1-.281-.853A2.754,2.754,0,0,1-14.766.176a3.374,3.374,0,0,1-2.285-.813,2.588,2.588,0,0,1-.94-2.043,2.66,2.66,0,0,1,1.143-2.338,5.821,5.821,0,0,1,3.322-.791h.914v-.5q0-1.316-1.134-1.316A.927.927,0,0,0-14.8-6.587h-2.962a2.655,2.655,0,0,1,1.173-2.239,4.931,4.931,0,0,1,2.993-.86,4.323,4.323,0,0,1,2.874.888A3.086,3.086,0,0,1-9.642-6.363v4.21a4.311,4.311,0,0,0,.4,2V0Zm-1.854-1.934a1.652,1.652,0,0,0,.918-.237,1.487,1.487,0,0,0,.523-.536V-4.228h-.861q-1.547,0-1.547,1.389a.848.848,0,0,0,.272.655A.986.986,0,0,0-14.054-1.934ZM-5.282-9.51l.1,1.116A3.225,3.225,0,0,1-2.47-9.686,2.713,2.713,0,0,1-.25-8.8,4.226,4.226,0,0,1,.51-6.126V0H-2.461V-6a1.6,1.6,0,0,0-.29-1.059A1.342,1.342,0,0,0-3.806-7.4,1.413,1.413,0,0,0-5.1-6.715V0H-8.06V-9.51ZM6.17-2.109a1.317,1.317,0,0,0,.967-.338,1.241,1.241,0,0,0,.334-.945h2.777A3.288,3.288,0,0,1,9.127-.826a4.168,4.168,0,0,1-2.887,1,4.22,4.22,0,0,1-3.27-1.3,5.125,5.125,0,0,1-1.2-3.6v-.123A5.792,5.792,0,0,1,2.307-7.4a3.872,3.872,0,0,1,1.534-1.7,4.573,4.573,0,0,1,2.373-.593A4.116,4.116,0,0,1,9.158-8.657a3.647,3.647,0,0,1,1.09,2.786H7.471A1.626,1.626,0,0,0,7.11-7a1.244,1.244,0,0,0-.967-.4Q4.992-7.4,4.8-5.933a10.357,10.357,0,0,0-.062,1.283A4.068,4.068,0,0,0,5.08-2.663,1.187,1.187,0,0,0,6.17-2.109Zm4.957-2.733a5.613,5.613,0,0,1,.554-2.536,3.96,3.96,0,0,1,1.591-1.709,4.791,4.791,0,0,1,2.435-.6,4.373,4.373,0,0,1,3.366,1.323,5.076,5.076,0,0,1,1.23,3.6v.105a4.925,4.925,0,0,1-1.235,3.529A4.384,4.384,0,0,1,15.724.176a4.434,4.434,0,0,1-3.261-1.217,4.761,4.761,0,0,1-1.327-3.3Zm2.962.185A3.538,3.538,0,0,0,14.5-2.725a1.376,1.376,0,0,0,1.222.615q1.582,0,1.617-2.435v-.3q0-2.558-1.635-2.558-1.485,0-1.608,2.206Zm12.5,1.986a.684.684,0,0,0-.4-.606,6.016,6.016,0,0,0-1.5-.475A6.853,6.853,0,0,1,22.86-4.4a3.062,3.062,0,0,1-1.1-.971,2.319,2.319,0,0,1-.378-1.31,2.628,2.628,0,0,1,1.081-2.158,4.453,4.453,0,0,1,2.83-.848,4.934,4.934,0,0,1,3.023.853,2.666,2.666,0,0,1,1.143,2.241H26.49q0-1.143-1.2-1.143a1.194,1.194,0,0,0-.782.259.8.8,0,0,0-.316.646.737.737,0,0,0,.387.642,3.654,3.654,0,0,0,1.235.4,10.671,10.671,0,0,1,1.49.378A2.706,2.706,0,0,1,29.443-2.76,2.491,2.491,0,0,1,28.288-.642a5.068,5.068,0,0,1-2.993.817,5.172,5.172,0,0,1-2.18-.439,3.645,3.645,0,0,1-1.494-1.2,2.707,2.707,0,0,1-.536-1.591h2.769a1.145,1.145,0,0,0,.439.962,1.808,1.808,0,0,0,1.081.3,1.422,1.422,0,0,0,.91-.246A.787.787,0,0,0,26.587-2.672Z" transform="translate(823.345 17329.316)" fill="#12263f"/>
    <path id="Rectángulo_18641" data-name="Rectángulo 18641" d="M14.962,0h148.15a14.962,14.962,0,0,1,14.962,14.962V52.616a14.962,14.962,0,0,1-14.962,14.962H14.962A14.962,14.962,0,0,1,0,52.616V14.962A14.962,14.962,0,0,1,14.962,0Z" transform="translate(738.835 17386.742)" fill="#fae9b5"/>
    <path id="Agencias_de_publicidad" data-name="Agencias de publicidad" d="M-44.029-2.391h-4.228L-48.995,0h-3.3L-47.6-12.8h2.9L-39.968,0h-3.313Zm-3.489-2.382h2.751l-1.38-4.438Zm8-.053a6.421,6.421,0,0,1,.475-2.549,3.821,3.821,0,0,1,1.362-1.709,3.591,3.591,0,0,1,2.065-.6,2.855,2.855,0,0,1,2.32,1l.105-.826H-30.5V-.36a4.009,4.009,0,0,1-.584,2.184,3.75,3.75,0,0,1-1.692,1.424,6.219,6.219,0,0,1-2.566.5,5.365,5.365,0,0,1-2.026-.4,3.657,3.657,0,0,1-1.5-1.028L-37.63.58a2.716,2.716,0,0,0,2.18.976A1.764,1.764,0,0,0-33.482-.466v-.3a2.781,2.781,0,0,1-2.153.94,3.437,3.437,0,0,1-2.812-1.332A5.517,5.517,0,0,1-39.52-4.72Zm2.971.185a3.383,3.383,0,0,0,.439,1.85,1.386,1.386,0,0,0,1.23.681,1.573,1.573,0,0,0,1.4-.642v-4a1.534,1.534,0,0,0-1.38-.65,1.4,1.4,0,0,0-1.239.708A3.858,3.858,0,0,0-36.549-4.641ZM-24.218.176A4.889,4.889,0,0,1-27.76-1.129a4.507,4.507,0,0,1-1.354-3.4v-.246a5.84,5.84,0,0,1,.541-2.575A3.955,3.955,0,0,1-27-9.075a4.763,4.763,0,0,1,2.461-.611,4.117,4.117,0,0,1,3.164,1.244,4.887,4.887,0,0,1,1.16,3.467v1.151H-26.1A2.135,2.135,0,0,0-25.4-2.566a2.066,2.066,0,0,0,1.389.457,2.662,2.662,0,0,0,2.2-.984l1.354,1.6A3.784,3.784,0,0,1-22.034-.277,5.3,5.3,0,0,1-24.218.176ZM-24.552-7.4q-1.3,0-1.547,1.723h2.988v-.229a1.467,1.467,0,0,0-.36-1.1A1.434,1.434,0,0,0-24.552-7.4ZM-16.3-9.51l.1,1.116a3.225,3.225,0,0,1,2.716-1.292,2.713,2.713,0,0,1,2.219.888,4.226,4.226,0,0,1,.76,2.672V0h-2.971V-6a1.6,1.6,0,0,0-.29-1.059A1.342,1.342,0,0,0-14.823-7.4a1.413,1.413,0,0,0-1.292.686V0h-2.962V-9.51Zm11.452,7.4a1.317,1.317,0,0,0,.967-.338,1.241,1.241,0,0,0,.334-.945H-.769A3.288,3.288,0,0,1-1.89-.826a4.168,4.168,0,0,1-2.887,1,4.22,4.22,0,0,1-3.27-1.3,5.125,5.125,0,0,1-1.2-3.6v-.123A5.792,5.792,0,0,1-8.71-7.4a3.872,3.872,0,0,1,1.534-1.7A4.573,4.573,0,0,1-4.8-9.686,4.116,4.116,0,0,1-1.859-8.657,3.647,3.647,0,0,1-.769-5.871H-3.546A1.626,1.626,0,0,0-3.907-7a1.244,1.244,0,0,0-.967-.4q-1.151,0-1.345,1.468A10.357,10.357,0,0,0-6.28-4.649a4.068,4.068,0,0,0,.343,1.986A1.187,1.187,0,0,0-4.847-2.109ZM3.608,0H.637V-9.51H3.608ZM.461-11.962A1.322,1.322,0,0,1,.918-13,1.724,1.724,0,0,1,2.1-13.4a1.724,1.724,0,0,1,1.187.4,1.322,1.322,0,0,1,.457,1.037,1.322,1.322,0,0,1-.457,1.037,1.724,1.724,0,0,1-1.187.4,1.724,1.724,0,0,1-1.187-.4A1.322,1.322,0,0,1,.461-11.962ZM10.789,0a3.344,3.344,0,0,1-.281-.853A2.754,2.754,0,0,1,8.222.176,3.374,3.374,0,0,1,5.937-.637,2.588,2.588,0,0,1,5-2.681,2.66,2.66,0,0,1,6.139-5.019,5.821,5.821,0,0,1,9.461-5.81h.914v-.5q0-1.316-1.134-1.316A.927.927,0,0,0,8.187-6.587H5.225A2.655,2.655,0,0,1,6.4-8.825a4.931,4.931,0,0,1,2.993-.86,4.323,4.323,0,0,1,2.874.888,3.086,3.086,0,0,1,1.081,2.435v4.21a4.311,4.311,0,0,0,.4,2V0ZM8.934-1.934a1.652,1.652,0,0,0,.918-.237,1.487,1.487,0,0,0,.523-.536V-4.228H9.514q-1.547,0-1.547,1.389a.848.848,0,0,0,.272.655A.986.986,0,0,0,8.934-1.934Zm11.03-.738a.684.684,0,0,0-.4-.606,6.016,6.016,0,0,0-1.5-.475A6.853,6.853,0,0,1,16.238-4.4a3.062,3.062,0,0,1-1.1-.971,2.319,2.319,0,0,1-.378-1.31,2.628,2.628,0,0,1,1.081-2.158,4.453,4.453,0,0,1,2.83-.848,4.934,4.934,0,0,1,3.023.853,2.666,2.666,0,0,1,1.143,2.241H19.868q0-1.143-1.2-1.143a1.194,1.194,0,0,0-.782.259.8.8,0,0,0-.316.646.737.737,0,0,0,.387.642,3.654,3.654,0,0,0,1.235.4,10.671,10.671,0,0,1,1.49.378A2.706,2.706,0,0,1,22.821-2.76,2.491,2.491,0,0,1,21.665-.642a5.068,5.068,0,0,1-2.993.817,5.172,5.172,0,0,1-2.18-.439A3.645,3.645,0,0,1,15-1.459a2.707,2.707,0,0,1-.536-1.591h2.769a1.145,1.145,0,0,0,.439.962,1.808,1.808,0,0,0,1.081.3,1.422,1.422,0,0,0,.91-.246A.787.787,0,0,0,19.964-2.672Zm8.35-2.153a5.809,5.809,0,0,1,.976-3.56,3.211,3.211,0,0,1,2.725-1.3,2.731,2.731,0,0,1,2.145,1V-13.5h2.971V0H34.466l-.149-1.02A2.8,2.8,0,0,1,32,.176a3.205,3.205,0,0,1-2.689-1.3A5.993,5.993,0,0,1,28.314-4.825Zm2.962.185q0,2.531,1.477,2.531a1.458,1.458,0,0,0,1.406-.826V-6.557A1.419,1.419,0,0,0,32.77-7.4q-1.371,0-1.485,2.215ZM43.414.176a4.889,4.889,0,0,1-3.542-1.305,4.507,4.507,0,0,1-1.354-3.4v-.246a5.84,5.84,0,0,1,.541-2.575,3.955,3.955,0,0,1,1.578-1.727A4.763,4.763,0,0,1,43.1-9.686a4.117,4.117,0,0,1,3.164,1.244,4.887,4.887,0,0,1,1.16,3.467v1.151H41.533a2.135,2.135,0,0,0,.694,1.257,2.066,2.066,0,0,0,1.389.457,2.662,2.662,0,0,0,2.2-.984l1.354,1.6A3.784,3.784,0,0,1,45.6-.277,5.3,5.3,0,0,1,43.414.176ZM43.08-7.4q-1.3,0-1.547,1.723h2.988v-.229a1.467,1.467,0,0,0-.36-1.1A1.434,1.434,0,0,0,43.08-7.4ZM-32.55,20.315a5.735,5.735,0,0,1-1,3.538,3.2,3.2,0,0,1-2.694,1.323,2.742,2.742,0,0,1-2.153-.958v4.438h-2.962V15.49h2.769l.088.879a2.742,2.742,0,0,1,2.241-1.055,3.224,3.224,0,0,1,2.733,1.3,5.805,5.805,0,0,1,.976,3.564Zm-2.962-.185q0-2.531-1.477-2.531a1.394,1.394,0,0,0-1.406.756V22.1a1.439,1.439,0,0,0,1.424.791q1.415,0,1.459-2.443Zm9.932,3.841a3.054,3.054,0,0,1-2.54,1.2,3,3,0,0,1-2.369-.91,3.826,3.826,0,0,1-.8-2.615V15.49h2.962v6.179a1.065,1.065,0,0,0,1.187,1.222,1.548,1.548,0,0,0,1.45-.729V15.49h2.979V25h-2.777Zm13.315-3.647a5.8,5.8,0,0,1-.967,3.595,3.238,3.238,0,0,1-2.725,1.257,2.81,2.81,0,0,1-2.338-1.151l-.123.976h-2.654V11.5h2.962v4.755a2.711,2.711,0,0,1,2.136-.94,3.239,3.239,0,0,1,2.742,1.274,5.826,5.826,0,0,1,.967,3.586Zm-2.971-.189a3.866,3.866,0,0,0-.365-1.952,1.229,1.229,0,0,0-1.121-.584,1.418,1.418,0,0,0-1.389.763v3.773a1.426,1.426,0,0,0,1.406.755,1.258,1.258,0,0,0,1.327-1.018A7.309,7.309,0,0,0-15.236,20.135ZM-7.835,25h-2.971V11.5h2.971Zm4.948,0H-5.858V15.49h2.971ZM-6.034,13.038A1.322,1.322,0,0,1-5.577,12a1.724,1.724,0,0,1,1.187-.4A1.724,1.724,0,0,1-3.2,12a1.322,1.322,0,0,1,.457,1.037A1.322,1.322,0,0,1-3.2,14.075a1.724,1.724,0,0,1-1.187.4,1.724,1.724,0,0,1-1.187-.4A1.322,1.322,0,0,1-6.034,13.038Zm8.991,9.853a1.317,1.317,0,0,0,.967-.338,1.241,1.241,0,0,0,.334-.945H7.036a3.288,3.288,0,0,1-1.121,2.566,4.168,4.168,0,0,1-2.887,1,4.22,4.22,0,0,1-3.27-1.3,5.125,5.125,0,0,1-1.2-3.6v-.123A5.792,5.792,0,0,1-.905,17.6a3.872,3.872,0,0,1,1.534-1.7A4.573,4.573,0,0,1,3,15.314a4.116,4.116,0,0,1,2.944,1.028,3.647,3.647,0,0,1,1.09,2.786H4.258A1.626,1.626,0,0,0,3.9,18a1.244,1.244,0,0,0-.967-.4q-1.151,0-1.345,1.468a10.357,10.357,0,0,0-.062,1.283,4.068,4.068,0,0,0,.343,1.986A1.187,1.187,0,0,0,2.958,22.891ZM11.413,25H8.442V15.49h2.971ZM8.266,13.038A1.322,1.322,0,0,1,8.723,12a1.724,1.724,0,0,1,1.187-.4A1.724,1.724,0,0,1,11.1,12a1.405,1.405,0,0,1,0,2.074,1.724,1.724,0,0,1-1.187.4,1.724,1.724,0,0,1-1.187-.4A1.322,1.322,0,0,1,8.266,13.038Zm4.6,7.137a5.809,5.809,0,0,1,.976-3.56,3.211,3.211,0,0,1,2.725-1.3,2.731,2.731,0,0,1,2.145,1V11.5h2.971V25H19.015l-.149-1.02a2.8,2.8,0,0,1-2.32,1.2,3.205,3.205,0,0,1-2.689-1.3A5.993,5.993,0,0,1,12.863,20.175Zm2.962.185q0,2.531,1.477,2.531a1.458,1.458,0,0,0,1.406-.826V18.443a1.419,1.419,0,0,0-1.389-.844q-1.371,0-1.485,2.215ZM28.718,25a3.344,3.344,0,0,1-.281-.853,2.754,2.754,0,0,1-2.285,1.028,3.374,3.374,0,0,1-2.285-.813,2.588,2.588,0,0,1-.94-2.043,2.66,2.66,0,0,1,1.143-2.338,5.821,5.821,0,0,1,3.322-.791h.914v-.5q0-1.316-1.134-1.316a.927.927,0,0,0-1.055,1.042H23.155a2.655,2.655,0,0,1,1.173-2.239,4.931,4.931,0,0,1,2.993-.86,4.323,4.323,0,0,1,2.874.888,3.086,3.086,0,0,1,1.081,2.435v4.21a4.311,4.311,0,0,0,.4,2V25Zm-1.854-1.934a1.652,1.652,0,0,0,.918-.237,1.487,1.487,0,0,0,.523-.536V20.772h-.861q-1.547,0-1.547,1.389a.848.848,0,0,0,.272.655A.986.986,0,0,0,26.864,23.066Zm5.678-2.892a5.809,5.809,0,0,1,.976-3.56,3.211,3.211,0,0,1,2.725-1.3,2.731,2.731,0,0,1,2.145,1V11.5h2.971V25H38.694l-.149-1.02a2.8,2.8,0,0,1-2.32,1.2,3.205,3.205,0,0,1-2.689-1.3A5.993,5.993,0,0,1,32.542,20.175Zm2.962.185q0,2.531,1.477,2.531a1.458,1.458,0,0,0,1.406-.826V18.443A1.419,1.419,0,0,0,37,17.6q-1.371,0-1.485,2.215Z" transform="translate(827.345 17415.031)" fill="#12263f"/>
    <path id="Rectángulo_18644" data-name="Rectángulo 18644" d="M14.962,0H271.68a14.962,14.962,0,0,1,14.962,14.962V46.877A14.962,14.962,0,0,1,271.68,61.839H14.962A14.962,14.962,0,0,1,0,46.877V14.962A14.962,14.962,0,0,1,14.962,0Z" transform="translate(390 17242.189)" fill="#6e3dc6"/>
    <path id="Rectángulo_18644-2" data-name="Rectángulo 18644" d="M14.962,0H271.68a14.962,14.962,0,0,1,14.962,14.962V46.877A14.962,14.962,0,0,1,271.68,61.839H14.962A14.962,14.962,0,0,1,0,46.877V14.962A14.962,14.962,0,0,1,14.962,0Z" transform="translate(390 16976.273)" fill="#6e3dc6"/>
    <path id="Logísticos_Outsourcing" data-name="Logísticos Outsourcing" d="M-89.213-2.373h5.37V0H-92.3V-12.8h3.085Zm6.161-2.47A5.613,5.613,0,0,1-82.5-7.378a3.96,3.96,0,0,1,1.591-1.709,4.791,4.791,0,0,1,2.435-.6,4.373,4.373,0,0,1,3.366,1.323,5.076,5.076,0,0,1,1.23,3.6v.105a4.925,4.925,0,0,1-1.235,3.529A4.384,4.384,0,0,1-78.456.176a4.434,4.434,0,0,1-3.261-1.217,4.761,4.761,0,0,1-1.327-3.3Zm2.962.185a3.538,3.538,0,0,0,.413,1.934,1.376,1.376,0,0,0,1.222.615q1.582,0,1.617-2.435v-.3q0-2.558-1.635-2.558-1.485,0-1.608,2.206Zm7.172-.167a6.421,6.421,0,0,1,.475-2.549,3.821,3.821,0,0,1,1.362-1.709,3.591,3.591,0,0,1,2.065-.6,2.855,2.855,0,0,1,2.32,1l.105-.826H-63.9V-.36a4.009,4.009,0,0,1-.584,2.184,3.75,3.75,0,0,1-1.692,1.424,6.219,6.219,0,0,1-2.566.5,5.365,5.365,0,0,1-2.026-.4,3.657,3.657,0,0,1-1.5-1.028L-71.029.58a2.716,2.716,0,0,0,2.18.976A1.764,1.764,0,0,0-66.88-.466v-.3a2.781,2.781,0,0,1-2.153.94,3.437,3.437,0,0,1-2.812-1.332A5.517,5.517,0,0,1-72.918-4.72Zm2.971.185a3.383,3.383,0,0,0,.439,1.85,1.386,1.386,0,0,0,1.23.681,1.573,1.573,0,0,0,1.4-.642v-4a1.534,1.534,0,0,0-1.38-.65,1.4,1.4,0,0,0-1.239.708A3.858,3.858,0,0,0-69.948-4.641ZM-58.988,0h-2.979V-9.51h2.979ZM-60.1-13.324h3.129l-2.443,2.76-2.417,0Zm7.989,10.652a.684.684,0,0,0-.4-.606A6.016,6.016,0,0,0-54-3.753,6.853,6.853,0,0,1-55.833-4.4a3.062,3.062,0,0,1-1.1-.971,2.319,2.319,0,0,1-.378-1.31,2.628,2.628,0,0,1,1.081-2.158,4.453,4.453,0,0,1,2.83-.848,4.934,4.934,0,0,1,3.023.853,2.666,2.666,0,0,1,1.143,2.241H-52.2q0-1.143-1.2-1.143a1.194,1.194,0,0,0-.782.259.8.8,0,0,0-.316.646.737.737,0,0,0,.387.642,3.654,3.654,0,0,0,1.235.4,10.671,10.671,0,0,1,1.49.378A2.706,2.706,0,0,1-49.25-2.76,2.491,2.491,0,0,1-50.405-.642,5.068,5.068,0,0,1-53.4.176a5.172,5.172,0,0,1-2.18-.439,3.645,3.645,0,0,1-1.494-1.2,2.707,2.707,0,0,1-.536-1.591h2.769a1.145,1.145,0,0,0,.439.962,1.808,1.808,0,0,0,1.081.3,1.422,1.422,0,0,0,.91-.246A.787.787,0,0,0-52.106-2.672Zm7.69-9.2V-9.51h1.564v2.057h-1.564V-3.1a1.111,1.111,0,0,0,.193.747,1.037,1.037,0,0,0,.765.211,4.345,4.345,0,0,0,.738-.053V-.079a5.466,5.466,0,0,1-1.67.255,3.1,3.1,0,0,1-2.259-.721,2.954,2.954,0,0,1-.729-2.188v-4.72H-48.59V-9.51h1.213v-2.364ZM-38.562,0h-2.971V-9.51h2.971Zm-3.146-11.962A1.322,1.322,0,0,1-41.251-13a1.724,1.724,0,0,1,1.187-.4,1.724,1.724,0,0,1,1.187.4,1.322,1.322,0,0,1,.457,1.037,1.322,1.322,0,0,1-.457,1.037,1.724,1.724,0,0,1-1.187.4,1.724,1.724,0,0,1-1.187-.4A1.322,1.322,0,0,1-41.708-11.962Zm8.991,9.853a1.317,1.317,0,0,0,.967-.338,1.241,1.241,0,0,0,.334-.945h2.777A3.288,3.288,0,0,1-29.76-.826a4.168,4.168,0,0,1-2.887,1,4.22,4.22,0,0,1-3.27-1.3,5.125,5.125,0,0,1-1.2-3.6v-.123A5.792,5.792,0,0,1-36.58-7.4a3.872,3.872,0,0,1,1.534-1.7,4.573,4.573,0,0,1,2.373-.593,4.116,4.116,0,0,1,2.944,1.028,3.647,3.647,0,0,1,1.09,2.786h-2.777A1.626,1.626,0,0,0-31.777-7a1.244,1.244,0,0,0-.967-.4q-1.151,0-1.345,1.468a10.357,10.357,0,0,0-.062,1.283,4.068,4.068,0,0,0,.343,1.986A1.187,1.187,0,0,0-32.717-2.109Zm4.957-2.733a5.613,5.613,0,0,1,.554-2.536,3.96,3.96,0,0,1,1.591-1.709,4.791,4.791,0,0,1,2.435-.6,4.373,4.373,0,0,1,3.366,1.323,5.076,5.076,0,0,1,1.23,3.6v.105a4.925,4.925,0,0,1-1.235,3.529A4.384,4.384,0,0,1-23.164.176a4.434,4.434,0,0,1-3.261-1.217,4.761,4.761,0,0,1-1.327-3.3Zm2.962.185a3.538,3.538,0,0,0,.413,1.934,1.376,1.376,0,0,0,1.222.615q1.582,0,1.617-2.435v-.3q0-2.558-1.635-2.558-1.485,0-1.608,2.206Zm12.5,1.986a.684.684,0,0,0-.4-.606,6.016,6.016,0,0,0-1.5-.475A6.853,6.853,0,0,1-16.027-4.4a3.062,3.062,0,0,1-1.1-.971A2.319,2.319,0,0,1-17.5-6.68a2.628,2.628,0,0,1,1.081-2.158,4.453,4.453,0,0,1,2.83-.848,4.934,4.934,0,0,1,3.023.853A2.666,2.666,0,0,1-9.426-6.592H-12.4q0-1.143-1.2-1.143a1.194,1.194,0,0,0-.782.259.8.8,0,0,0-.316.646.737.737,0,0,0,.387.642,3.654,3.654,0,0,0,1.235.4,10.671,10.671,0,0,1,1.49.378A2.706,2.706,0,0,1-9.444-2.76,2.491,2.491,0,0,1-10.6-.642a5.068,5.068,0,0,1-2.993.817,5.172,5.172,0,0,1-2.18-.439,3.645,3.645,0,0,1-1.494-1.2A2.707,2.707,0,0,1-17.8-3.05h2.769a1.145,1.145,0,0,0,.439.962,1.808,1.808,0,0,0,1.081.3,1.422,1.422,0,0,0,.91-.246A.787.787,0,0,0-12.3-2.672ZM.892.176a4.334,4.334,0,0,1-3.2-1.318,5.369,5.369,0,0,1-1.362-3.41A9.748,9.748,0,0,1-3.5-7.036,8.723,8.723,0,0,1-2.6-9.668a6.625,6.625,0,0,1,1.626-2,5.561,5.561,0,0,1,3.762-1.3,4.627,4.627,0,0,1,2.29.6,4.2,4.2,0,0,1,1.569,1.657,5.951,5.951,0,0,1,.686,2.461,10.087,10.087,0,0,1-.119,2.219,9.146,9.146,0,0,1-.694,2.373A7.253,7.253,0,0,1,5.216-1.67,6,6,0,0,1,3.331-.3,5.453,5.453,0,0,1,.892.176ZM4.32-8.279q-.088-2.2-1.705-2.285a2.353,2.353,0,0,0-2.065.989,6.347,6.347,0,0,0-1.081,3.1,10.815,10.815,0,0,0-.123,1.96q.088,2.232,1.723,2.294a2.283,2.283,0,0,0,1.846-.769A4.974,4.974,0,0,0,4.03-5.383,11.484,11.484,0,0,0,4.32-8.279ZM13.5-1.037A3.148,3.148,0,0,1,10.938.185a2.492,2.492,0,0,1-2.1-.976,3.6,3.6,0,0,1-.549-2.566L9.312-9.51H12.2L11.158-3.315a2.064,2.064,0,0,0,0,.466.766.766,0,0,0,.853.748,1.868,1.868,0,0,0,1.556-.722L14.744-9.51h2.909L16,0H13.311Zm9.475-10.837L22.566-9.51h1.521l-.36,2.057H22.206l-.738,4.368a1.164,1.164,0,0,0,.057.677q.119.229.593.246a6.873,6.873,0,0,0,.756-.044L22.663-.062a4.673,4.673,0,0,1-1.556.22,2.563,2.563,0,0,1-2.013-.791,2.7,2.7,0,0,1-.545-2.1l.773-4.72H18.145L18.5-9.51h1.178l.413-2.364ZM29-2.725q.114-.58-.9-.87l-.624-.158a4.806,4.806,0,0,1-2.241-1.134,2.244,2.244,0,0,1-.668-1.731,2.758,2.758,0,0,1,1.217-2.228,4.633,4.633,0,0,1,2.861-.839,4.292,4.292,0,0,1,2.72.853,2.781,2.781,0,0,1,1.059,2.25l-2.883-.009q.035-1.125-.993-1.125a1.417,1.417,0,0,0-.817.259,1.007,1.007,0,0,0-.448.69q-.149.712,1.257.976a7.3,7.3,0,0,1,1.89.672,2.821,2.821,0,0,1,1.02.945,2.35,2.35,0,0,1,.325,1.354,2.541,2.541,0,0,1-.562,1.538A3.642,3.642,0,0,1,29.663-.2a5.557,5.557,0,0,1-2.2.378A4.469,4.469,0,0,1,25.55-.255,3.408,3.408,0,0,1,24.17-1.4a2.979,2.979,0,0,1-.514-1.666l2.689.018A1.111,1.111,0,0,0,27.611-1.8a1.661,1.661,0,0,0,.914-.242A1.045,1.045,0,0,0,29-2.725Zm9.22-6.961a3.994,3.994,0,0,1,2.206.637,3.59,3.59,0,0,1,1.367,1.727A5.33,5.33,0,0,1,42.1-4.86l-.018.193A5.636,5.636,0,0,1,40.46-1.134,4.575,4.575,0,0,1,37.05.176a3.977,3.977,0,0,1-2.188-.628A3.612,3.612,0,0,1,33.5-2.162a5.179,5.179,0,0,1-.321-2.443,5.863,5.863,0,0,1,1.6-3.727A4.547,4.547,0,0,1,38.219-9.686ZM36.066-4.6l-.026.518q-.123,1.957,1.2,1.992,1.705.053,1.978-2.764l.035-.8a2.155,2.155,0,0,0-.294-1.259,1.073,1.073,0,0,0-.918-.487,1.512,1.512,0,0,0-1.314.654A4.278,4.278,0,0,0,36.066-4.6ZM48.45-1.037A3.148,3.148,0,0,1,45.883.185a2.492,2.492,0,0,1-2.1-.976,3.6,3.6,0,0,1-.549-2.566L44.257-9.51h2.892L46.1-3.315a2.064,2.064,0,0,0,0,.466.766.766,0,0,0,.853.748,1.868,1.868,0,0,0,1.556-.722L49.689-9.51H52.6L50.946,0H48.256ZM59.366-6.829a8.273,8.273,0,0,0-.9-.088,2.233,2.233,0,0,0-1.986.9L55.411,0H52.519l1.652-9.51,2.7-.009-.22,1.248a2.64,2.64,0,0,1,2.2-1.441,4.144,4.144,0,0,1,.9.123Zm4.078,4.72a1.244,1.244,0,0,0,.976-.345,1.717,1.717,0,0,0,.448-.938L67.575-3.4a3.559,3.559,0,0,1-.62,1.872A3.745,3.745,0,0,1,65.426-.25a4.521,4.521,0,0,1-2.061.426,3.57,3.57,0,0,1-2.927-1.367A4.726,4.726,0,0,1,59.6-4.632l.026-.211A6.371,6.371,0,0,1,60.438-7.4a4.626,4.626,0,0,1,1.709-1.718,4.433,4.433,0,0,1,2.369-.571A3.536,3.536,0,0,1,67.14-8.626a3.755,3.755,0,0,1,.927,2.764L65.36-5.871q.044-1.5-1.081-1.529-1.529-.053-1.758,2.567l-.079.893-.009.333Q62.433-2.136,63.444-2.109ZM71.249,0h-2.9L70-9.51h2.9Zm-.993-11.909a1.341,1.341,0,0,1,.453-1.072,1.625,1.625,0,0,1,1.138-.431,1.678,1.678,0,0,1,1.129.387,1.318,1.318,0,0,1,.47,1.011A1.344,1.344,0,0,1,73-10.938a1.63,1.63,0,0,1-1.143.426,1.7,1.7,0,0,1-1.121-.382A1.3,1.3,0,0,1,70.255-11.909Zm7.119,2.391-.2,1.143a3.38,3.38,0,0,1,2.751-1.318,2.27,2.27,0,0,1,1.964.98,4.1,4.1,0,0,1,.47,2.729L81.356,0h-2.9l1.011-6.01a3.108,3.108,0,0,0,.018-.563q-.062-.836-.984-.836a1.807,1.807,0,0,0-1.4.678L75.916,0H73.024l1.652-9.51Zm6.135,4.746A7.226,7.226,0,0,1,84.3-7.365a4.564,4.564,0,0,1,1.551-1.753,3.735,3.735,0,0,1,2.109-.576,2.6,2.6,0,0,1,2.162,1.028l.308-.853L93.1-9.51,91.542-.369a4.467,4.467,0,0,1-1.7,3.05,5.4,5.4,0,0,1-3.568,1.063,5.1,5.1,0,0,1-1.837-.378,3.957,3.957,0,0,1-1.521-1.09L84.292.571a2.489,2.489,0,0,0,1.986.993A2.324,2.324,0,0,0,88.721-.483l.07-.29a2.973,2.973,0,0,1-2.171.949,2.932,2.932,0,0,1-1.608-.461,3.034,3.034,0,0,1-1.09-1.305,5.076,5.076,0,0,1-.448-1.9A8.253,8.253,0,0,1,83.509-4.772Zm2.856.94a2.306,2.306,0,0,0,.29,1.257.984.984,0,0,0,.844.466,1.933,1.933,0,0,0,1.485-.633l.747-4.034a1.281,1.281,0,0,0-1.178-.633,1.683,1.683,0,0,0-1.415.716,3.861,3.861,0,0,0-.721,1.929Q86.366-4.21,86.366-3.832Z" transform="translate(528.137 17278.957)" fill="#fff"/>
    <path id="Rectángulo_18645" data-name="Rectángulo 18645" d="M0,0H38.906V6.326H0Z" transform="translate(925 17014.971)" fill="#6e3dc6"/>
    <path id="Rectángulo_18645-2" data-name="Rectángulo 18645" d="M0,0H38.906V6.326H0Z" transform="translate(925 17002.971)" fill="#6e3dc6"/>
    <path id="Rectángulo_18645-3" data-name="Rectángulo 18645" d="M0,0H51.28V7.766H0Z" transform="matrix(0.545, -0.839, 0.839, 0.545, 926, 17030.992)" fill="#6e3dc6"/>
    <path id="Agentes_intermediarios" data-name="Agentes intermediarios" d="M-87.35-2.391h-4.228L-92.316,0h-3.3l4.693-12.8h2.9L-83.29,0H-86.6Zm-3.489-2.382h2.751l-1.38-4.438Zm8-.053a6.421,6.421,0,0,1,.475-2.549A3.821,3.821,0,0,1-81-9.083a3.591,3.591,0,0,1,2.065-.6,2.855,2.855,0,0,1,2.32,1l.105-.826h2.689V-.36a4.009,4.009,0,0,1-.584,2.184A3.75,3.75,0,0,1-76.1,3.248a6.219,6.219,0,0,1-2.566.5,5.365,5.365,0,0,1-2.026-.4,3.657,3.657,0,0,1-1.5-1.028L-80.952.58a2.716,2.716,0,0,0,2.18.976A1.764,1.764,0,0,0-76.8-.466v-.3a2.781,2.781,0,0,1-2.153.94,3.437,3.437,0,0,1-2.812-1.332A5.517,5.517,0,0,1-82.841-4.72Zm2.971.185a3.383,3.383,0,0,0,.439,1.85,1.386,1.386,0,0,0,1.23.681,1.573,1.573,0,0,0,1.4-.642v-4a1.534,1.534,0,0,0-1.38-.65,1.4,1.4,0,0,0-1.239.708A3.858,3.858,0,0,0-79.871-4.641ZM-67.54.176a4.889,4.889,0,0,1-3.542-1.305,4.507,4.507,0,0,1-1.354-3.4v-.246a5.84,5.84,0,0,1,.541-2.575,3.955,3.955,0,0,1,1.578-1.727,4.763,4.763,0,0,1,2.461-.611,4.117,4.117,0,0,1,3.164,1.244,4.887,4.887,0,0,1,1.16,3.467v1.151H-69.42a2.135,2.135,0,0,0,.694,1.257,2.066,2.066,0,0,0,1.389.457,2.662,2.662,0,0,0,2.2-.984l1.354,1.6A3.784,3.784,0,0,1-65.355-.277,5.3,5.3,0,0,1-67.54.176ZM-67.874-7.4q-1.3,0-1.547,1.723h2.988v-.229a1.467,1.467,0,0,0-.36-1.1A1.434,1.434,0,0,0-67.874-7.4Zm8.253-2.109.1,1.116a3.225,3.225,0,0,1,2.716-1.292,2.713,2.713,0,0,1,2.219.888,4.226,4.226,0,0,1,.76,2.672V0H-56.8V-6a1.6,1.6,0,0,0-.29-1.059A1.342,1.342,0,0,0-58.144-7.4a1.413,1.413,0,0,0-1.292.686V0H-62.4V-9.51Zm10.881-2.364V-9.51h1.564v2.057H-48.74V-3.1a1.111,1.111,0,0,0,.193.747,1.037,1.037,0,0,0,.765.211,4.345,4.345,0,0,0,.738-.053V-.079a5.466,5.466,0,0,1-1.67.255,3.1,3.1,0,0,1-2.259-.721A2.954,2.954,0,0,1-51.7-2.733v-4.72h-1.213V-9.51H-51.7v-2.364ZM-41.41.176a4.889,4.889,0,0,1-3.542-1.305,4.507,4.507,0,0,1-1.354-3.4v-.246a5.84,5.84,0,0,1,.541-2.575,3.955,3.955,0,0,1,1.578-1.727,4.763,4.763,0,0,1,2.461-.611,4.117,4.117,0,0,1,3.164,1.244A4.887,4.887,0,0,1-37.4-4.975v1.151h-5.889A2.135,2.135,0,0,0-42.6-2.566a2.066,2.066,0,0,0,1.389.457,2.662,2.662,0,0,0,2.2-.984l1.354,1.6A3.784,3.784,0,0,1-39.226-.277,5.3,5.3,0,0,1-41.41.176ZM-41.744-7.4q-1.3,0-1.547,1.723H-40.3v-.229a1.467,1.467,0,0,0-.36-1.1A1.434,1.434,0,0,0-41.744-7.4Zm10.512,4.729a.684.684,0,0,0-.4-.606,6.016,6.016,0,0,0-1.5-.475A6.853,6.853,0,0,1-34.958-4.4a3.062,3.062,0,0,1-1.1-.971,2.319,2.319,0,0,1-.378-1.31,2.628,2.628,0,0,1,1.081-2.158,4.453,4.453,0,0,1,2.83-.848,4.934,4.934,0,0,1,3.023.853,2.666,2.666,0,0,1,1.143,2.241h-2.971q0-1.143-1.2-1.143a1.194,1.194,0,0,0-.782.259.8.8,0,0,0-.316.646.737.737,0,0,0,.387.642,3.654,3.654,0,0,0,1.235.4,10.671,10.671,0,0,1,1.49.378A2.706,2.706,0,0,1-28.375-2.76,2.491,2.491,0,0,1-29.531-.642a5.068,5.068,0,0,1-2.993.817A5.172,5.172,0,0,1-34.7-.264a3.645,3.645,0,0,1-1.494-1.2,2.707,2.707,0,0,1-.536-1.591h2.769a1.145,1.145,0,0,0,.439.962,1.808,1.808,0,0,0,1.081.3,1.422,1.422,0,0,0,.91-.246A.787.787,0,0,0-31.232-2.672ZM-19.384,0h-2.971V-9.51h2.971Zm-3.146-11.962A1.322,1.322,0,0,1-22.074-13a1.724,1.724,0,0,1,1.187-.4A1.724,1.724,0,0,1-19.7-13a1.322,1.322,0,0,1,.457,1.037,1.322,1.322,0,0,1-.457,1.037,1.724,1.724,0,0,1-1.187.4,1.724,1.724,0,0,1-1.187-.4A1.322,1.322,0,0,1-22.531-11.962Zm7.69,2.452.1,1.116a3.225,3.225,0,0,1,2.716-1.292A2.713,2.713,0,0,1-9.809-8.8a4.226,4.226,0,0,1,.76,2.672V0h-2.971V-6a1.6,1.6,0,0,0-.29-1.059A1.342,1.342,0,0,0-13.364-7.4a1.413,1.413,0,0,0-1.292.686V0h-2.962V-9.51Zm10.881-2.364V-9.51H-2.4v2.057H-3.959V-3.1a1.111,1.111,0,0,0,.193.747A1.037,1.037,0,0,0-3-2.145,4.345,4.345,0,0,0-2.263-2.2V-.079a5.466,5.466,0,0,1-1.67.255A3.1,3.1,0,0,1-6.192-.545a2.954,2.954,0,0,1-.729-2.188v-4.72H-8.134V-9.51h1.213v-2.364ZM3.371.176A4.889,4.889,0,0,1-.171-1.129a4.507,4.507,0,0,1-1.354-3.4v-.246A5.84,5.84,0,0,1-.984-7.348,3.955,3.955,0,0,1,.593-9.075a4.763,4.763,0,0,1,2.461-.611A4.117,4.117,0,0,1,6.218-8.442a4.887,4.887,0,0,1,1.16,3.467v1.151H1.49a2.135,2.135,0,0,0,.694,1.257,2.066,2.066,0,0,0,1.389.457,2.662,2.662,0,0,0,2.2-.984l1.354,1.6A3.784,3.784,0,0,1,5.555-.277,5.3,5.3,0,0,1,3.371.176ZM3.037-7.4q-1.3,0-1.547,1.723H4.478v-.229a1.467,1.467,0,0,0-.36-1.1A1.434,1.434,0,0,0,3.037-7.4Zm11.285.571-.976-.07a1.752,1.752,0,0,0-1.793.879V0H8.591V-9.51h2.777l.1,1.222a2.294,2.294,0,0,1,2.083-1.4,2.888,2.888,0,0,1,.826.105ZM18.189-9.51l.1,1.116A3.27,3.27,0,0,1,21-9.686a2.407,2.407,0,0,1,2.435,1.433,3.165,3.165,0,0,1,2.795-1.433q2.892,0,2.971,3.5V0H26.231V-6a1.813,1.813,0,0,0-.246-1.063,1.048,1.048,0,0,0-.9-.334,1.4,1.4,0,0,0-1.31.782l.009.123V0H20.817V-5.985a1.906,1.906,0,0,0-.237-1.081,1.045,1.045,0,0,0-.905-.334,1.42,1.42,0,0,0-1.3.782V0H15.412V-9.51ZM35.495.176a4.889,4.889,0,0,1-3.542-1.305,4.507,4.507,0,0,1-1.354-3.4v-.246a5.84,5.84,0,0,1,.541-2.575,3.955,3.955,0,0,1,1.578-1.727,4.763,4.763,0,0,1,2.461-.611,4.117,4.117,0,0,1,3.164,1.244A4.887,4.887,0,0,1,39.5-4.975v1.151H33.614a2.135,2.135,0,0,0,.694,1.257,2.066,2.066,0,0,0,1.389.457,2.662,2.662,0,0,0,2.2-.984l1.354,1.6A3.784,3.784,0,0,1,37.679-.277,5.3,5.3,0,0,1,35.495.176ZM35.161-7.4q-1.3,0-1.547,1.723H36.6v-.229a1.467,1.467,0,0,0-.36-1.1A1.434,1.434,0,0,0,35.161-7.4ZM40.32-4.825a5.809,5.809,0,0,1,.976-3.56,3.211,3.211,0,0,1,2.725-1.3,2.731,2.731,0,0,1,2.145,1V-13.5h2.971V0H46.472l-.149-1.02A2.8,2.8,0,0,1,44,.176a3.205,3.205,0,0,1-2.689-1.3A5.993,5.993,0,0,1,40.32-4.825Zm2.962.185q0,2.531,1.477,2.531a1.458,1.458,0,0,0,1.406-.826V-6.557A1.419,1.419,0,0,0,44.776-7.4q-1.371,0-1.485,2.215ZM53.943,0H50.972V-9.51h2.971ZM50.8-11.962A1.322,1.322,0,0,1,51.253-13a1.724,1.724,0,0,1,1.187-.4,1.724,1.724,0,0,1,1.187.4,1.322,1.322,0,0,1,.457,1.037,1.322,1.322,0,0,1-.457,1.037,1.724,1.724,0,0,1-1.187.4,1.724,1.724,0,0,1-1.187-.4A1.322,1.322,0,0,1,50.8-11.962ZM61.124,0a3.344,3.344,0,0,1-.281-.853A2.754,2.754,0,0,1,58.557.176a3.374,3.374,0,0,1-2.285-.813,2.588,2.588,0,0,1-.94-2.043,2.66,2.66,0,0,1,1.143-2.338A5.821,5.821,0,0,1,59.8-5.81h.914v-.5q0-1.316-1.134-1.316a.927.927,0,0,0-1.055,1.042H55.56a2.655,2.655,0,0,1,1.173-2.239,4.931,4.931,0,0,1,2.993-.86A4.323,4.323,0,0,1,62.6-8.8a3.086,3.086,0,0,1,1.081,2.435v4.21a4.311,4.311,0,0,0,.4,2V0ZM59.269-1.934a1.652,1.652,0,0,0,.918-.237,1.487,1.487,0,0,0,.523-.536V-4.228h-.861q-1.547,0-1.547,1.389a.848.848,0,0,0,.272.655A.986.986,0,0,0,59.269-1.934Zm11.8-4.9L70.1-6.9a1.752,1.752,0,0,0-1.793.879V0H65.342V-9.51H68.12l.1,1.222a2.294,2.294,0,0,1,2.083-1.4,2.888,2.888,0,0,1,.826.105ZM75.265,0H72.294V-9.51h2.971ZM72.119-11.962A1.322,1.322,0,0,1,72.576-13a1.724,1.724,0,0,1,1.187-.4,1.724,1.724,0,0,1,1.187.4,1.322,1.322,0,0,1,.457,1.037,1.322,1.322,0,0,1-.457,1.037,1.724,1.724,0,0,1-1.187.4,1.724,1.724,0,0,1-1.187-.4A1.322,1.322,0,0,1,72.119-11.962Zm4.6,7.119a5.613,5.613,0,0,1,.554-2.536A3.96,3.96,0,0,1,78.86-9.088a4.791,4.791,0,0,1,2.435-.6,4.373,4.373,0,0,1,3.366,1.323,5.076,5.076,0,0,1,1.23,3.6v.105a4.925,4.925,0,0,1-1.235,3.529A4.384,4.384,0,0,1,81.312.176a4.434,4.434,0,0,1-3.261-1.217,4.761,4.761,0,0,1-1.327-3.3Zm2.962.185a3.538,3.538,0,0,0,.413,1.934,1.376,1.376,0,0,0,1.222.615q1.582,0,1.617-2.435v-.3q0-2.558-1.635-2.558-1.485,0-1.608,2.206Zm12.5,1.986a.684.684,0,0,0-.4-.606,6.016,6.016,0,0,0-1.5-.475A6.853,6.853,0,0,1,88.449-4.4a3.062,3.062,0,0,1-1.1-.971,2.319,2.319,0,0,1-.378-1.31,2.628,2.628,0,0,1,1.081-2.158,4.453,4.453,0,0,1,2.83-.848,4.934,4.934,0,0,1,3.023.853,2.666,2.666,0,0,1,1.143,2.241H92.079q0-1.143-1.2-1.143a1.194,1.194,0,0,0-.782.259.8.8,0,0,0-.316.646.737.737,0,0,0,.387.642,3.654,3.654,0,0,0,1.235.4,10.671,10.671,0,0,1,1.49.378A2.706,2.706,0,0,1,95.032-2.76,2.491,2.491,0,0,1,93.876-.642a5.068,5.068,0,0,1-2.993.817A5.172,5.172,0,0,1,88.7-.264a3.645,3.645,0,0,1-1.494-1.2,2.707,2.707,0,0,1-.536-1.591h2.769a1.145,1.145,0,0,0,.439.962,1.808,1.808,0,0,0,1.081.3,1.422,1.422,0,0,0,.91-.246A.787.787,0,0,0,92.175-2.672Z" transform="translate(533.321 17014.191)" fill="#fff"/>
    <path id="Rectángulo_18644-3" data-name="Rectángulo 18644" d="M14.962,0H271.68a14.962,14.962,0,0,1,14.962,14.962V46.877A14.962,14.962,0,0,1,271.68,61.839H14.962A14.962,14.962,0,0,1,0,46.877V14.962A14.962,14.962,0,0,1,14.962,0Z" transform="translate(390 16792.379)" fill="#6e3dc6"/>
    <path id="Intermediarios" d="M-55.45,0h-3.076V-12.8h3.076Zm4.729-9.51.1,1.116a3.225,3.225,0,0,1,2.716-1.292A2.713,2.713,0,0,1-45.69-8.8a4.226,4.226,0,0,1,.76,2.672V0H-47.9V-6a1.6,1.6,0,0,0-.29-1.059A1.342,1.342,0,0,0-49.245-7.4a1.413,1.413,0,0,0-1.292.686V0H-53.5V-9.51Zm10.881-2.364V-9.51h1.564v2.057h-1.564V-3.1a1.111,1.111,0,0,0,.193.747,1.037,1.037,0,0,0,.765.211,4.345,4.345,0,0,0,.738-.053V-.079a5.466,5.466,0,0,1-1.67.255,3.1,3.1,0,0,1-2.259-.721A2.954,2.954,0,0,1-42.8-2.733v-4.72h-1.213V-9.51H-42.8v-2.364Zm7.33,12.05a4.889,4.889,0,0,1-3.542-1.305,4.507,4.507,0,0,1-1.354-3.4v-.246a5.84,5.84,0,0,1,.541-2.575,3.955,3.955,0,0,1,1.578-1.727,4.763,4.763,0,0,1,2.461-.611,4.117,4.117,0,0,1,3.164,1.244A4.887,4.887,0,0,1-28.5-4.975v1.151h-5.889A2.135,2.135,0,0,0-33.7-2.566a2.066,2.066,0,0,0,1.389.457,2.662,2.662,0,0,0,2.2-.984l1.354,1.6A3.784,3.784,0,0,1-30.327-.277,5.3,5.3,0,0,1-32.511.176ZM-32.845-7.4q-1.3,0-1.547,1.723H-31.4v-.229a1.467,1.467,0,0,0-.36-1.1A1.434,1.434,0,0,0-32.845-7.4Zm11.285.571-.976-.07a1.752,1.752,0,0,0-1.793.879V0H-27.29V-9.51h2.777l.1,1.222a2.294,2.294,0,0,1,2.083-1.4,2.888,2.888,0,0,1,.826.105Zm3.867-2.681.1,1.116A3.27,3.27,0,0,1-14.88-9.686a2.407,2.407,0,0,1,2.435,1.433A3.165,3.165,0,0,1-9.65-9.686q2.892,0,2.971,3.5V0H-9.65V-6A1.813,1.813,0,0,0-9.9-7.066a1.048,1.048,0,0,0-.9-.334,1.4,1.4,0,0,0-1.31.782l.009.123V0h-2.971V-5.985A1.906,1.906,0,0,0-15.3-7.066a1.045,1.045,0,0,0-.905-.334,1.42,1.42,0,0,0-1.3.782V0H-20.47V-9.51ZM-.387.176A4.889,4.889,0,0,1-3.929-1.129a4.507,4.507,0,0,1-1.354-3.4v-.246a5.84,5.84,0,0,1,.541-2.575A3.955,3.955,0,0,1-3.164-9.075,4.763,4.763,0,0,1-.7-9.686,4.117,4.117,0,0,1,2.461-8.442a4.887,4.887,0,0,1,1.16,3.467v1.151H-2.268a2.135,2.135,0,0,0,.694,1.257,2.066,2.066,0,0,0,1.389.457,2.662,2.662,0,0,0,2.2-.984l1.354,1.6A3.784,3.784,0,0,1,1.8-.277,5.3,5.3,0,0,1-.387.176ZM-.721-7.4q-1.3,0-1.547,1.723H.721v-.229a1.467,1.467,0,0,0-.36-1.1A1.434,1.434,0,0,0-.721-7.4ZM4.438-4.825a5.809,5.809,0,0,1,.976-3.56,3.211,3.211,0,0,1,2.725-1.3,2.731,2.731,0,0,1,2.145,1V-13.5h2.971V0H10.591l-.149-1.02a2.8,2.8,0,0,1-2.32,1.2,3.205,3.205,0,0,1-2.689-1.3A5.993,5.993,0,0,1,4.438-4.825ZM7.4-4.641q0,2.531,1.477,2.531a1.458,1.458,0,0,0,1.406-.826V-6.557A1.419,1.419,0,0,0,8.895-7.4q-1.371,0-1.485,2.215ZM18.062,0H15.091V-9.51h2.971ZM14.915-11.962A1.322,1.322,0,0,1,15.372-13a1.724,1.724,0,0,1,1.187-.4,1.724,1.724,0,0,1,1.187.4,1.322,1.322,0,0,1,.457,1.037,1.322,1.322,0,0,1-.457,1.037,1.724,1.724,0,0,1-1.187.4,1.724,1.724,0,0,1-1.187-.4A1.322,1.322,0,0,1,14.915-11.962ZM25.242,0a3.344,3.344,0,0,1-.281-.853A2.754,2.754,0,0,1,22.676.176a3.374,3.374,0,0,1-2.285-.813,2.588,2.588,0,0,1-.94-2.043,2.66,2.66,0,0,1,1.143-2.338,5.821,5.821,0,0,1,3.322-.791h.914v-.5q0-1.316-1.134-1.316a.927.927,0,0,0-1.055,1.042H19.679a2.655,2.655,0,0,1,1.173-2.239,4.931,4.931,0,0,1,2.993-.86,4.323,4.323,0,0,1,2.874.888A3.086,3.086,0,0,1,27.8-6.363v4.21a4.311,4.311,0,0,0,.4,2V0ZM23.388-1.934a1.652,1.652,0,0,0,.918-.237,1.487,1.487,0,0,0,.523-.536V-4.228h-.861q-1.547,0-1.547,1.389a.848.848,0,0,0,.272.655A.986.986,0,0,0,23.388-1.934Zm11.8-4.9-.976-.07a1.752,1.752,0,0,0-1.793.879V0H29.461V-9.51h2.777l.1,1.222a2.294,2.294,0,0,1,2.083-1.4,2.888,2.888,0,0,1,.826.105ZM39.384,0H36.413V-9.51h2.971ZM36.237-11.962A1.322,1.322,0,0,1,36.694-13a1.724,1.724,0,0,1,1.187-.4,1.724,1.724,0,0,1,1.187.4,1.322,1.322,0,0,1,.457,1.037,1.322,1.322,0,0,1-.457,1.037,1.724,1.724,0,0,1-1.187.4,1.724,1.724,0,0,1-1.187-.4A1.322,1.322,0,0,1,36.237-11.962Zm4.6,7.119a5.613,5.613,0,0,1,.554-2.536,3.96,3.96,0,0,1,1.591-1.709,4.791,4.791,0,0,1,2.435-.6,4.373,4.373,0,0,1,3.366,1.323,5.076,5.076,0,0,1,1.23,3.6v.105a4.925,4.925,0,0,1-1.235,3.529A4.384,4.384,0,0,1,45.431.176,4.434,4.434,0,0,1,42.17-1.042a4.761,4.761,0,0,1-1.327-3.3Zm2.962.185a3.538,3.538,0,0,0,.413,1.934,1.376,1.376,0,0,0,1.222.615q1.582,0,1.617-2.435v-.3q0-2.558-1.635-2.558-1.485,0-1.608,2.206Zm12.5,1.986a.684.684,0,0,0-.4-.606,6.016,6.016,0,0,0-1.5-.475A6.853,6.853,0,0,1,52.567-4.4a3.062,3.062,0,0,1-1.1-.971,2.319,2.319,0,0,1-.378-1.31,2.628,2.628,0,0,1,1.081-2.158A4.453,4.453,0,0,1,55-9.686a4.934,4.934,0,0,1,3.023.853,2.666,2.666,0,0,1,1.143,2.241H56.2q0-1.143-1.2-1.143a1.194,1.194,0,0,0-.782.259.8.8,0,0,0-.316.646.737.737,0,0,0,.387.642,3.654,3.654,0,0,0,1.235.4,10.671,10.671,0,0,1,1.49.378A2.706,2.706,0,0,1,59.15-2.76,2.491,2.491,0,0,1,57.995-.642,5.068,5.068,0,0,1,55,.176a5.172,5.172,0,0,1-2.18-.439,3.645,3.645,0,0,1-1.494-1.2,2.707,2.707,0,0,1-.536-1.591h2.769A1.145,1.145,0,0,0,54-2.087a1.808,1.808,0,0,0,1.081.3,1.422,1.422,0,0,0,.91-.246A.787.787,0,0,0,56.294-2.672Z" transform="translate(535 16828.896)" fill="#fff"/>
    <path id="Rectángulo_18632-3" data-name="Rectángulo 18632" d="M14.962,0H216.956a14.962,14.962,0,0,1,14.962,14.962V52.616a14.962,14.962,0,0,1-14.962,14.962H14.962A14.962,14.962,0,0,1,0,52.616V14.962A14.962,14.962,0,0,1,14.962,0Z" transform="translate(978.082 17242.738)" fill="#fdf6df"/>
    <path id="Facilitadores_de_tareas" data-name="Facilitadores de tareas" d="M-83.364-5.1h-4.975V0h-3.085V-12.8h8.561v2.382h-5.476v2.944h4.975ZM-76.658,0a3.344,3.344,0,0,1-.281-.853A2.754,2.754,0,0,1-79.225.176,3.374,3.374,0,0,1-81.51-.637a2.588,2.588,0,0,1-.94-2.043,2.66,2.66,0,0,1,1.143-2.338,5.821,5.821,0,0,1,3.322-.791h.914v-.5q0-1.316-1.134-1.316A.927.927,0,0,0-79.26-6.587h-2.962a2.655,2.655,0,0,1,1.173-2.239,4.931,4.931,0,0,1,2.993-.86,4.323,4.323,0,0,1,2.874.888A3.086,3.086,0,0,1-74.1-6.363v4.21a4.311,4.311,0,0,0,.4,2V0Zm-1.854-1.934a1.652,1.652,0,0,0,.918-.237,1.487,1.487,0,0,0,.523-.536V-4.228h-.861q-1.547,0-1.547,1.389a.848.848,0,0,0,.272.655A.986.986,0,0,0-78.513-1.934Zm10.072-.176a1.317,1.317,0,0,0,.967-.338,1.241,1.241,0,0,0,.334-.945h2.777A3.288,3.288,0,0,1-65.483-.826a4.168,4.168,0,0,1-2.887,1,4.22,4.22,0,0,1-3.27-1.3,5.125,5.125,0,0,1-1.2-3.6v-.123A5.792,5.792,0,0,1-72.3-7.4a3.872,3.872,0,0,1,1.534-1.7A4.573,4.573,0,0,1-68.4-9.686a4.116,4.116,0,0,1,2.944,1.028,3.647,3.647,0,0,1,1.09,2.786H-67.14A1.626,1.626,0,0,0-67.5-7a1.244,1.244,0,0,0-.967-.4q-1.151,0-1.345,1.468a10.357,10.357,0,0,0-.062,1.283,4.068,4.068,0,0,0,.343,1.986A1.187,1.187,0,0,0-68.44-2.109ZM-59.985,0h-2.971V-9.51h2.971Zm-3.146-11.962A1.322,1.322,0,0,1-62.675-13a1.724,1.724,0,0,1,1.187-.4A1.724,1.724,0,0,1-60.3-13a1.322,1.322,0,0,1,.457,1.037,1.322,1.322,0,0,1-.457,1.037,1.724,1.724,0,0,1-1.187.4,1.724,1.724,0,0,1-1.187-.4A1.322,1.322,0,0,1-63.132-11.962ZM-55.037,0h-2.971V-13.5h2.971Zm4.948,0H-53.06V-9.51h2.971Zm-3.146-11.962A1.322,1.322,0,0,1-52.778-13a1.724,1.724,0,0,1,1.187-.4,1.724,1.724,0,0,1,1.187.4,1.322,1.322,0,0,1,.457,1.037,1.322,1.322,0,0,1-.457,1.037,1.724,1.724,0,0,1-1.187.4,1.724,1.724,0,0,1-1.187-.4A1.322,1.322,0,0,1-53.235-11.962Zm8.42.088V-9.51h1.564v2.057h-1.564V-3.1a1.111,1.111,0,0,0,.193.747,1.037,1.037,0,0,0,.765.211,4.345,4.345,0,0,0,.738-.053V-.079a5.466,5.466,0,0,1-1.67.255,3.1,3.1,0,0,1-2.259-.721,2.954,2.954,0,0,1-.729-2.188v-4.72H-48.99V-9.51h1.213v-2.364ZM-36.729,0a3.344,3.344,0,0,1-.281-.853A2.754,2.754,0,0,1-39.3.176a3.374,3.374,0,0,1-2.285-.813,2.588,2.588,0,0,1-.94-2.043,2.66,2.66,0,0,1,1.143-2.338,5.821,5.821,0,0,1,3.322-.791h.914v-.5q0-1.316-1.134-1.316a.927.927,0,0,0-1.055,1.042h-2.962A2.655,2.655,0,0,1-41.12-8.825a4.931,4.931,0,0,1,2.993-.86,4.323,4.323,0,0,1,2.874.888,3.086,3.086,0,0,1,1.081,2.435v4.21a4.311,4.311,0,0,0,.4,2V0Zm-1.854-1.934a1.652,1.652,0,0,0,.918-.237,1.487,1.487,0,0,0,.523-.536V-4.228H-38q-1.547,0-1.547,1.389a.848.848,0,0,0,.272.655A.986.986,0,0,0-38.584-1.934Zm5.678-2.892a5.809,5.809,0,0,1,.976-3.56,3.211,3.211,0,0,1,2.725-1.3,2.731,2.731,0,0,1,2.145,1V-13.5h2.971V0h-2.663L-26.9-1.02a2.8,2.8,0,0,1-2.32,1.2,3.205,3.205,0,0,1-2.689-1.3A5.993,5.993,0,0,1-32.906-4.825Zm2.962.185q0,2.531,1.477,2.531a1.458,1.458,0,0,0,1.406-.826V-6.557A1.419,1.419,0,0,0-28.45-7.4q-1.371,0-1.485,2.215Zm7.163-.2a5.613,5.613,0,0,1,.554-2.536,3.96,3.96,0,0,1,1.591-1.709,4.791,4.791,0,0,1,2.435-.6,4.373,4.373,0,0,1,3.366,1.323,5.076,5.076,0,0,1,1.23,3.6v.105A4.925,4.925,0,0,1-14.84-1.129,4.384,4.384,0,0,1-18.185.176a4.434,4.434,0,0,1-3.261-1.217,4.761,4.761,0,0,1-1.327-3.3Zm2.962.185a3.538,3.538,0,0,0,.413,1.934,1.376,1.376,0,0,0,1.222.615q1.582,0,1.617-2.435v-.3q0-2.558-1.635-2.558-1.485,0-1.608,2.206ZM-6.548-6.829l-.976-.07a1.752,1.752,0,0,0-1.793.879V0h-2.962V-9.51H-9.5l.1,1.222a2.294,2.294,0,0,1,2.083-1.4A2.888,2.888,0,0,1-6.5-9.58Zm5.5,7A4.889,4.889,0,0,1-4.588-1.129a4.507,4.507,0,0,1-1.354-3.4v-.246A5.84,5.84,0,0,1-5.4-7.348,3.955,3.955,0,0,1-3.823-9.075a4.763,4.763,0,0,1,2.461-.611A4.117,4.117,0,0,1,1.8-8.442a4.887,4.887,0,0,1,1.16,3.467v1.151H-2.927a2.135,2.135,0,0,0,.694,1.257,2.066,2.066,0,0,0,1.389.457,2.662,2.662,0,0,0,2.2-.984l1.354,1.6A3.784,3.784,0,0,1,1.138-.277,5.3,5.3,0,0,1-1.046.176ZM-1.38-7.4q-1.3,0-1.547,1.723H.062v-.229a1.467,1.467,0,0,0-.36-1.1A1.434,1.434,0,0,0-1.38-7.4ZM9.132-2.672a.684.684,0,0,0-.4-.606,6.016,6.016,0,0,0-1.5-.475A6.853,6.853,0,0,1,5.405-4.4a3.062,3.062,0,0,1-1.1-.971,2.319,2.319,0,0,1-.378-1.31A2.628,2.628,0,0,1,5.01-8.837a4.453,4.453,0,0,1,2.83-.848,4.934,4.934,0,0,1,3.023.853,2.666,2.666,0,0,1,1.143,2.241H9.035q0-1.143-1.2-1.143a1.194,1.194,0,0,0-.782.259.8.8,0,0,0-.316.646.737.737,0,0,0,.387.642,3.654,3.654,0,0,0,1.235.4,10.671,10.671,0,0,1,1.49.378A2.706,2.706,0,0,1,11.988-2.76,2.491,2.491,0,0,1,10.833-.642,5.068,5.068,0,0,1,7.84.176,5.172,5.172,0,0,1,5.66-.264a3.645,3.645,0,0,1-1.494-1.2A2.707,2.707,0,0,1,3.63-3.05H6.4a1.145,1.145,0,0,0,.439.962,1.808,1.808,0,0,0,1.081.3,1.422,1.422,0,0,0,.91-.246A.787.787,0,0,0,9.132-2.672Zm8.35-2.153a5.809,5.809,0,0,1,.976-3.56,3.211,3.211,0,0,1,2.725-1.3,2.731,2.731,0,0,1,2.145,1V-13.5H26.3V0H23.634l-.149-1.02a2.8,2.8,0,0,1-2.32,1.2,3.205,3.205,0,0,1-2.689-1.3A5.993,5.993,0,0,1,17.481-4.825Zm2.962.185q0,2.531,1.477,2.531a1.458,1.458,0,0,0,1.406-.826V-6.557A1.419,1.419,0,0,0,21.938-7.4q-1.371,0-1.485,2.215ZM32.581.176a4.889,4.889,0,0,1-3.542-1.305,4.507,4.507,0,0,1-1.354-3.4v-.246a5.84,5.84,0,0,1,.541-2.575A3.955,3.955,0,0,1,29.8-9.075a4.763,4.763,0,0,1,2.461-.611,4.117,4.117,0,0,1,3.164,1.244,4.887,4.887,0,0,1,1.16,3.467v1.151H30.7a2.135,2.135,0,0,0,.694,1.257,2.066,2.066,0,0,0,1.389.457,2.662,2.662,0,0,0,2.2-.984l1.354,1.6A3.784,3.784,0,0,1,34.765-.277,5.3,5.3,0,0,1,32.581.176ZM32.247-7.4q-1.3,0-1.547,1.723h2.988v-.229a1.467,1.467,0,0,0-.36-1.1A1.434,1.434,0,0,0,32.247-7.4Zm13.465-4.474V-9.51h1.564v2.057H45.712V-3.1a1.111,1.111,0,0,0,.193.747,1.037,1.037,0,0,0,.765.211,4.345,4.345,0,0,0,.738-.053V-.079a5.466,5.466,0,0,1-1.67.255,3.1,3.1,0,0,1-2.259-.721,2.954,2.954,0,0,1-.729-2.188v-4.72H41.537V-9.51H42.75v-2.364ZM53.8,0a3.344,3.344,0,0,1-.281-.853A2.754,2.754,0,0,1,51.231.176a3.374,3.374,0,0,1-2.285-.813,2.588,2.588,0,0,1-.94-2.043,2.66,2.66,0,0,1,1.143-2.338,5.821,5.821,0,0,1,3.322-.791h.914v-.5q0-1.316-1.134-1.316A.927.927,0,0,0,51.2-6.587H48.234a2.655,2.655,0,0,1,1.173-2.239,4.931,4.931,0,0,1,2.993-.86,4.323,4.323,0,0,1,2.874.888,3.086,3.086,0,0,1,1.081,2.435v4.21a4.311,4.311,0,0,0,.4,2V0ZM51.943-1.934a1.652,1.652,0,0,0,.918-.237,1.487,1.487,0,0,0,.523-.536V-4.228h-.861q-1.547,0-1.547,1.389a.848.848,0,0,0,.272.655A.986.986,0,0,0,51.943-1.934Zm11.8-4.9-.976-.07a1.752,1.752,0,0,0-1.793.879V0H58.017V-9.51h2.777l.1,1.222a2.294,2.294,0,0,1,2.083-1.4,2.888,2.888,0,0,1,.826.105Zm5.5,7a4.889,4.889,0,0,1-3.542-1.305,4.507,4.507,0,0,1-1.354-3.4v-.246a5.84,5.84,0,0,1,.541-2.575,3.955,3.955,0,0,1,1.578-1.727,4.763,4.763,0,0,1,2.461-.611A4.117,4.117,0,0,1,72.1-8.442a4.887,4.887,0,0,1,1.16,3.467v1.151H67.368a2.135,2.135,0,0,0,.694,1.257,2.066,2.066,0,0,0,1.389.457,2.662,2.662,0,0,0,2.2-.984L73-1.494A3.784,3.784,0,0,1,71.433-.277,5.3,5.3,0,0,1,69.249.176ZM68.915-7.4q-1.3,0-1.547,1.723h2.988v-.229a1.467,1.467,0,0,0-.36-1.1A1.434,1.434,0,0,0,68.915-7.4ZM79.8,0a3.344,3.344,0,0,1-.281-.853A2.754,2.754,0,0,1,77.238.176a3.374,3.374,0,0,1-2.285-.813,2.588,2.588,0,0,1-.94-2.043,2.66,2.66,0,0,1,1.143-2.338,5.821,5.821,0,0,1,3.322-.791h.914v-.5q0-1.316-1.134-1.316A.927.927,0,0,0,77.2-6.587H74.241a2.655,2.655,0,0,1,1.173-2.239,4.931,4.931,0,0,1,2.993-.86,4.323,4.323,0,0,1,2.874.888,3.086,3.086,0,0,1,1.081,2.435v4.21a4.311,4.311,0,0,0,.4,2V0ZM77.95-1.934a1.652,1.652,0,0,0,.918-.237,1.487,1.487,0,0,0,.523-.536V-4.228H78.53q-1.547,0-1.547,1.389a.848.848,0,0,0,.272.655A.986.986,0,0,0,77.95-1.934Zm11.03-.738a.684.684,0,0,0-.4-.606,6.016,6.016,0,0,0-1.5-.475A6.853,6.853,0,0,1,85.254-4.4a3.062,3.062,0,0,1-1.1-.971,2.319,2.319,0,0,1-.378-1.31,2.628,2.628,0,0,1,1.081-2.158,4.453,4.453,0,0,1,2.83-.848,4.934,4.934,0,0,1,3.023.853,2.666,2.666,0,0,1,1.143,2.241H88.884q0-1.143-1.2-1.143a1.194,1.194,0,0,0-.782.259.8.8,0,0,0-.316.646.737.737,0,0,0,.387.642,3.654,3.654,0,0,0,1.235.4,10.671,10.671,0,0,1,1.49.378A2.706,2.706,0,0,1,91.837-2.76,2.491,2.491,0,0,1,90.681-.642a5.068,5.068,0,0,1-2.993.817,5.172,5.172,0,0,1-2.18-.439,3.645,3.645,0,0,1-1.494-1.2,2.707,2.707,0,0,1-.536-1.591h2.769a1.145,1.145,0,0,0,.439.962,1.808,1.808,0,0,0,1.081.3,1.422,1.422,0,0,0,.91-.246A.787.787,0,0,0,88.98-2.672Z" transform="translate(1092.559 17279.531)" fill="#12263f"/>
  </g>
</svg>
