<svg xmlns="http://www.w3.org/2000/svg" xmlns:xlink="http://www.w3.org/1999/xlink" width="820" height="444.686" viewBox="0 0 820 444.686">
  <defs>
    <clipPath id="clip-path">
      <rect id="Rectángulo_401878" data-name="Rectángulo 401878" width="99" height="197.272" fill="none"/>
    </clipPath>
    <clipPath id="clip-path-3">
      <rect id="Rectángulo_401868" data-name="Rectángulo 401868" width="6.399" height="7.134" fill="none"/>
    </clipPath>
    <clipPath id="clip-path-4">
      <rect id="Rectángulo_401869" data-name="Rectángulo 401869" width="7.041" height="7.404" fill="none"/>
    </clipPath>
    <clipPath id="clip-path-5">
      <rect id="Rectángulo_401870" data-name="Rectángulo 401870" width="9.526" height="5.392" fill="none"/>
    </clipPath>
    <clipPath id="clip-path-7">
      <rect id="Rectángulo_401872" data-name="Rectángulo 401872" width="11.089" height="11.667" fill="none"/>
    </clipPath>
    <clipPath id="clip-path-8">
      <rect id="Rectángulo_401874" data-name="Rectángulo 401874" width="33.95" height="37.066" fill="none"/>
    </clipPath>
    <clipPath id="clip-path-9">
      <path id="Trazado_875607" data-name="Trazado 875607" d="M49.9,25.113c-.007.273-.01.545-.01.818a19.392,19.392,0,0,0,2.394,10.278c2.917,4.743,8.789,7.3,14.509,7.476,4.161.129,8.492-.934,11.6-3.6,4.742-4.058,5.721-10.825,5.382-16.925-.415-7.481-4.64-15.05-13-16.31C63.194,5.708,55,8.98,51.807,15.918a23.245,23.245,0,0,0-1.908,9.2" transform="translate(-49.889 -6.628)" fill="none"/>
    </clipPath>
    <linearGradient id="linear-gradient" x1="-0.693" y1="5.119" x2="-0.679" y2="5.119" gradientUnits="objectBoundingBox">
      <stop offset="0" stop-color="#320032"/>
      <stop offset="0.13" stop-color="#4c1940"/>
      <stop offset="0.423" stop-color="#834e5d"/>
      <stop offset="0.676" stop-color="#aa7473"/>
      <stop offset="0.877" stop-color="#c38c80"/>
      <stop offset="1" stop-color="#cc9585"/>
    </linearGradient>
    <clipPath id="clip-path-10">
      <rect id="Rectángulo_401875" data-name="Rectángulo 401875" width="9.402" height="5.938" fill="none"/>
    </clipPath>
    <clipPath id="clip-path-12">
      <rect id="Rectángulo_401879" data-name="Rectángulo 401879" width="115.609" height="80.29" fill="none"/>
    </clipPath>
  </defs>
  <g id="Grupo_1102801" data-name="Grupo 1102801" transform="translate(-390 -24217.422)">
    <g id="Grupo_71240" data-name="Grupo 71240" transform="translate(197.843 20009.791)">
      <path id="Línea_302" data-name="Línea 302" d="M1,40.425H-1V0H1Z" transform="translate(405.847 4267.52)" fill="#6e3dc6"/>
      <path id="Línea_302-2" data-name="Línea 302" d="M1,40.425H-1V0H1Z" transform="translate(788.056 4267.52)" fill="#6e3dc6"/>
      <rect id="Rectángulo_20239" data-name="Rectángulo 20239" width="139.67" height="63.875" rx="8.206" transform="translate(341.166 4304.708)" fill="#be79ca"/>
      <rect id="Rectángulo_20239-2" data-name="Rectángulo 20239" width="139.67" height="63.875" rx="8.206" transform="translate(707.29 4304.708)" fill="#be79ca"/>
      <g id="Grupo_71222" data-name="Grupo 71222" transform="translate(500.902 4304.707)">
        <rect id="Rectángulo_20244" data-name="Rectángulo 20244" width="158.481" height="27.515" transform="translate(0 16.659)" fill="#75baf1"/>
        <path id="Trazado_162079" data-name="Trazado 162079" d="M720.127,4319.77V4289.35l26.827,15.222,26.838,15.2-26.827,15.208-26.828,15.21Z" transform="translate(-568.678 -4289.35)" fill="#75baf1"/>
      </g>
      <path id="Trazado_162085" data-name="Trazado 162085" d="M269.591,4479.586l-.136-228.676a14.387,14.387,0,0,1,14.386-14.4h43.1v2h-43.1a12.387,12.387,0,0,0-12.386,12.4l.136,228.676Z" transform="translate(4)" fill="#6e3dc6"/>
      <path id="Trazado_162086" data-name="Trazado 162086" d="M1057.761,4551.5h-2l.137-256.526a24,24,0,0,0-3.745-13.387c-2.337-3.444-5.407-5.341-8.643-5.341h-43.1v-2h43.1a10.74,10.74,0,0,1,5.743,1.7,15.449,15.449,0,0,1,4.555,4.516,26.012,26.012,0,0,1,4.09,14.511Z" transform="translate(-126.986 -37.74)" fill="#6e3dc6"/>
      <path id="Trazado_162087" data-name="Trazado 162087" d="M1040.832,4635.521h-.012l-174.242-.137,0-2,174.242.137h.01a12.389,12.389,0,0,0,12.388-12.388V4524.97h2v96.163a14.388,14.388,0,0,1-14.388,14.388Z" transform="translate(-123.986)" fill="#6e3dc6"/>
      <path id="Trazado_162088" data-name="Trazado 162088" d="M460.2,4635.856H287.537a13.262,13.262,0,0,1-5.636-1.251,14.349,14.349,0,0,1-4.575-3.392,16.391,16.391,0,0,1-4.176-11.09l.137-81.067,2,0-.137,81.067a14.394,14.394,0,0,0,3.657,9.743,11.732,11.732,0,0,0,8.73,3.989H460.2Z" transform="translate(0 -8.666)" fill="#6e3dc6"/>
      <path id="Rectángulo_20245" data-name="Rectángulo 20245" d="M10.452,0h165.3a10.452,10.452,0,0,1,10.452,10.452V59.545A10.452,10.452,0,0,1,175.754,70H10.452A10.452,10.452,0,0,1,0,59.545V10.452A10.452,10.452,0,0,1,10.452,0Z" transform="translate(312.877 4207.63)" fill="#6e3dc6"/>
      <path id="Rectángulo_20245-2" data-name="Rectángulo 20245" d="M10.452,0h165.3a10.452,10.452,0,0,1,10.452,10.452V59.545A10.452,10.452,0,0,1,175.754,70H10.452A10.452,10.452,0,0,1,0,59.545V10.452A10.452,10.452,0,0,1,10.452,0Z" transform="translate(706.016 4207.63)" fill="#6e3dc6"/>
      <path id="Rectángulo_20245-3" data-name="Rectángulo 20245" d="M10.452,0h165.3a10.452,10.452,0,0,1,10.452,10.452V59.545A10.452,10.452,0,0,1,175.754,70H10.452A10.452,10.452,0,0,1,0,59.545V10.452A10.452,10.452,0,0,1,10.452,0Z" transform="translate(509.199 4208.127)" fill="#6e3dc6"/>
      <rect id="Rectángulo_20246" data-name="Rectángulo 20246" width="178.184" height="63.521" rx="11.478" transform="translate(316.888 4210.869)" fill="#fff"/>
      <rect id="Rectángulo_20246-2" data-name="Rectángulo 20246" width="178.184" height="63.521" rx="11.478" transform="translate(710.027 4210.869)" fill="#fff"/>
      <rect id="Rectángulo_20246-3" data-name="Rectángulo 20246" width="178.184" height="63.521" rx="11.478" transform="translate(513.209 4211.366)" fill="#fff"/>
      <rect id="Rectángulo_20247" data-name="Rectángulo 20247" width="170.675" height="57.756" rx="8.206" transform="translate(320.643 4213.751)" fill="#6e3dc6"/>
      <rect id="Rectángulo_20247-2" data-name="Rectángulo 20247" width="170.675" height="57.756" rx="8.206" transform="translate(713.781 4213.751)" fill="#6e3dc6"/>
      <rect id="Rectángulo_20247-3" data-name="Rectángulo 20247" width="170.675" height="57.756" rx="8.206" transform="translate(516.964 4214.249)" fill="#6e3dc6"/>
      <g id="Grupo_71227" data-name="Grupo 71227" transform="translate(329.865 4225.029)">
        <g id="Grupo_71226" data-name="Grupo 71226">
          <g id="Grupo_71225" data-name="Grupo 71225">
            <path id="Trazado_162101" data-name="Trazado 162101" d="M309.057,4216.063a5.693,5.693,0,0,0-2.887.784.516.516,0,1,0,.523.889,4.664,4.664,0,1,1-1.59,1.546.516.516,0,1,0-.873-.549,5.7,5.7,0,1,0,4.828-2.67Zm19.378,4.17a2.438,2.438,0,1,0-3.445,0,2.438,2.438,0,0,0,3.445,0Zm-2.716-2.716a1.4,1.4,0,1,1,0,1.986,1.405,1.405,0,0,1,0-1.986Zm-4.2-.351v2.687a7.782,7.782,0,0,0-.384,1,1.523,1.523,0,0,0,.367,1.576l1.293,1.293a1.524,1.524,0,0,0,1.576.367,7.688,7.688,0,0,0,1-.385h2.687a7.617,7.617,0,0,0,1,.385,1.524,1.524,0,0,0,1.576-.367l1.293-1.293a1.524,1.524,0,0,0,.367-1.576,7.709,7.709,0,0,0-.384-1v-2.687a7.642,7.642,0,0,0,.384-1,1.523,1.523,0,0,0-.367-1.576l-1.293-1.292a1.522,1.522,0,0,0-1.576-.367,7.615,7.615,0,0,0-1,.384h-2.687a7.549,7.549,0,0,0-1-.384,1.522,1.522,0,0,0-1.576.367l-1.293,1.292a1.523,1.523,0,0,0-.367,1.576A7.738,7.738,0,0,0,321.518,4217.167Zm.9-.5a8.269,8.269,0,0,1-.311-.832.5.5,0,0,1,.12-.516l1.293-1.292a.5.5,0,0,1,.516-.12,8.171,8.171,0,0,1,.832.312.512.512,0,0,0,.339.127h3a.514.514,0,0,0,.34-.127,8.285,8.285,0,0,1,.832-.311.5.5,0,0,1,.515.12l1.293,1.292a.5.5,0,0,1,.12.516,8.4,8.4,0,0,1-.311.832.515.515,0,0,0-.128.34v3a.512.512,0,0,0,.128.339,8.5,8.5,0,0,1,.311.832.5.5,0,0,1-.12.516l-1.293,1.292a.5.5,0,0,1-.516.12,8.407,8.407,0,0,1-.832-.311.518.518,0,0,0-.34-.128h-3a.517.517,0,0,0-.34.127,8.285,8.285,0,0,1-.832.311.5.5,0,0,1-.516-.12l-1.292-1.292a.5.5,0,0,1-.12-.516,8.429,8.429,0,0,1,.311-.833.515.515,0,0,0,.127-.339v-3A.517.517,0,0,0,322.422,4216.669Zm1.113,14.031a5.606,5.606,0,1,0,5.606,5.606,5.606,5.606,0,0,0-5.606-5.606Zm0,10.181a4.575,4.575,0,1,1,4.575-4.575,4.575,4.575,0,0,1-4.575,4.575Zm9.95-6.474a1.6,1.6,0,0,0,.18-1.729l-1.241-2.438a1.6,1.6,0,0,0-1.5-.87,15.8,15.8,0,0,0-1.908.165L325.8,4227.9a15.7,15.7,0,0,0-.99-1.643,1.6,1.6,0,0,0-1.59-.706l-2.7.427a1.6,1.6,0,0,0-1.292,1.163,15.831,15.831,0,0,0-.434,1.867l-2.553,2.553a15.874,15.874,0,0,0-1.867.433,1.6,1.6,0,0,0-1.162,1.293l-.428,2.7a1.6,1.6,0,0,0,.706,1.59,15.964,15.964,0,0,0,1.643.99l1.639,3.216a15.891,15.891,0,0,0-.165,1.908,1.6,1.6,0,0,0,.87,1.5l2.438,1.241a1.6,1.6,0,0,0,1.729-.18,15.813,15.813,0,0,0,1.448-1.257l3.566-.564a15.846,15.846,0,0,0,1.765.747,1.6,1.6,0,0,0,1.7-.362l.839-.839a.516.516,0,0,0-.729-.729l-.839.839a.565.565,0,0,1-.6.129,15.513,15.513,0,0,1-1.643-.689.518.518,0,0,0-.446-.146l-3.98.631a.514.514,0,0,0-.38.276,15.667,15.667,0,0,1-1.348,1.163.565.565,0,0,1-.612.064l-2.438-1.241a.568.568,0,0,1-.308-.533,15.881,15.881,0,0,1,.148-1.774.515.515,0,0,0,0-.47l-1.829-3.59a.516.516,0,0,0-.38-.276,15.707,15.707,0,0,1-1.523-.922.567.567,0,0,1-.25-.563l.428-2.7a.568.568,0,0,1,.412-.457,15.976,15.976,0,0,1,1.734-.407.518.518,0,0,0,.447-.145l2.849-2.849a.515.515,0,0,0,.145-.447,15.87,15.87,0,0,1,.408-1.733.566.566,0,0,1,.457-.412l2.7-.428a.565.565,0,0,1,.562.25,15.845,15.845,0,0,1,.923,1.523.515.515,0,0,0,.275.38l3.59,1.829a.514.514,0,0,0,.47,0,15.53,15.53,0,0,1,1.774-.149.566.566,0,0,1,.533.309l1.242,2.438a.566.566,0,0,1-.064.612,15.757,15.757,0,0,1-1.163,1.349.515.515,0,0,0-.277.379l-.63,3.979a.516.516,0,0,0,.145.446,15.639,15.639,0,0,1,.689,1.643.562.562,0,0,1,.037.166.516.516,0,1,0,1.029-.064,1.591,1.591,0,0,0-.1-.47,15.89,15.89,0,0,0-.747-1.767l.565-3.565a15.967,15.967,0,0,0,1.256-1.449Zm-11.977-.129h0a2.865,2.865,0,1,0,2.027-.842,2.869,2.869,0,0,0-2.027.842Zm3.328,3.328a1.838,1.838,0,1,1-2.6-2.6h0a1.838,1.838,0,0,1,2.6,2.6Zm-9.069-7.826,1.311-1.312a1.589,1.589,0,0,0,.335-1.767c-.342-.787-.545-1.214-.683-1.457l.714-2.666c.24-.141.63-.41,1.319-.919a1.591,1.591,0,0,0,.594-1.7l-.48-1.791a1.59,1.59,0,0,0-1.363-1.173c-.852-.1-1.325-.136-1.6-.138l-1.952-1.951c0-.278-.04-.75-.137-1.6a1.59,1.59,0,0,0-1.174-1.363l-1.791-.48a1.589,1.589,0,0,0-1.7.594c-.51.688-.779,1.079-.92,1.319l-2.666.714c-.242-.137-.669-.34-1.456-.682a1.59,1.59,0,0,0-1.767.335l-1.311,1.311a1.589,1.589,0,0,0-.335,1.767c.342.787.545,1.215.683,1.456l-.714,2.667c-.24.141-.63.41-1.319.92a1.59,1.59,0,0,0-.594,1.7l.48,1.791a1.59,1.59,0,0,0,1.363,1.173c.852.1,1.325.135,1.6.137l1.951,1.952c0,.278.04.75.137,1.6a1.59,1.59,0,0,0,1.174,1.363l1.791.477a1.59,1.59,0,0,0,1.7-.593c.51-.689.779-1.08.92-1.319l2.666-.714c.242.137.67.339,1.456.682a1.589,1.589,0,0,0,1.767-.334Zm-3.259-1.405-3.127.838a.514.514,0,0,0-.365.364,14.087,14.087,0,0,1-.887,1.276.562.562,0,0,1-.6.212l-1.791-.48a.562.562,0,0,1-.416-.483,13.971,13.971,0,0,1-.13-1.548.514.514,0,0,0-.134-.5l-2.29-2.29a.517.517,0,0,0-.5-.134,13.643,13.643,0,0,1-1.552-.13.565.565,0,0,1-.483-.417l-.477-1.791a.562.562,0,0,1,.212-.6,13.832,13.832,0,0,1,1.276-.887.516.516,0,0,0,.364-.365l.838-3.127a.516.516,0,0,0-.133-.5,13.778,13.778,0,0,1-.661-1.405.563.563,0,0,1,.119-.627l1.311-1.311a.564.564,0,0,1,.626-.119,14.069,14.069,0,0,1,1.406.661.514.514,0,0,0,.5.134l3.127-.838a.515.515,0,0,0,.365-.364,13.8,13.8,0,0,1,.887-1.276.564.564,0,0,1,.6-.212l1.791.48a.563.563,0,0,1,.416.483,13.965,13.965,0,0,1,.13,1.548.516.516,0,0,0,.134.5l2.289,2.29a.517.517,0,0,0,.5.134,13.933,13.933,0,0,1,1.549.13.565.565,0,0,1,.483.416l.477,1.791a.564.564,0,0,1-.212.6,13.848,13.848,0,0,1-1.276.887.516.516,0,0,0-.364.365l-.838,3.127a.515.515,0,0,0,.133.5,14.011,14.011,0,0,1,.661,1.406.562.562,0,0,1-.119.626l-1.311,1.312a.564.564,0,0,1-.626.119,13.955,13.955,0,0,1-1.406-.662.515.515,0,0,0-.5-.133Zm-1.329-4.494a3,3,0,1,0-4.24,0,3,3,0,0,0,4.24,0Zm-3.509-3.509a1.961,1.961,0,1,1-.577,1.39,1.965,1.965,0,0,1,.577-1.39Z" transform="translate(-298.707 -4211.411)" fill="#fff"/>
            <path id="Trazado_162101_-_Contorno" data-name="Trazado 162101 - Contorno" d="M310.443,4210.911a2.082,2.082,0,0,1,.545.073l1.79.479a2.1,2.1,0,0,1,1.541,1.791c.079.693.121,1.139.135,1.445l1.671,1.67c.318.015.779.058,1.446.135a2.1,2.1,0,0,1,1.789,1.542l.48,1.789a2.1,2.1,0,0,1-.781,2.229c-.539.4-.916.666-1.183.837l-.612,2.283c.145.283.339.7.607,1.319a2.1,2.1,0,0,1-.441,2.321l-2.13,2.13-.009-.311a2.1,2.1,0,0,1-.652.1,2.069,2.069,0,0,1-.841-.177c-.615-.268-1.035-.46-1.317-.6l-2.284.611c-.174.271-.441.648-.839,1.185a2.089,2.089,0,0,1-2.229.778l-1.788-.476a2.1,2.1,0,0,1-1.542-1.792c-.079-.693-.121-1.139-.135-1.444l-1.67-1.671c-.318-.015-.778-.058-1.446-.134a2.1,2.1,0,0,1-1.789-1.542l-.48-1.79a2.076,2.076,0,0,1,.78-2.228c.54-.4.917-.667,1.184-.838l.612-2.284c-.145-.281-.338-.7-.607-1.319a2.1,2.1,0,0,1,.441-2.321l1.31-1.309a2.089,2.089,0,0,1,2.321-.44c.613.266,1.032.459,1.317.606l2.283-.612c.174-.271.441-.648.839-1.185A2.1,2.1,0,0,1,310.443,4210.911Zm5.79,17.7.491-.491a1.1,1.1,0,0,0,.231-1.212c-.316-.727-.526-1.174-.66-1.411l-.1-.178.82-3.062.177-.1c.236-.139.641-.421,1.275-.89a1.1,1.1,0,0,0,.408-1.164l-.48-1.792a1.083,1.083,0,0,0-.935-.806c-.786-.09-1.278-.133-1.551-.135h-.2l-2.243-2.243v-.207c0-.258-.04-.72-.134-1.546a1.1,1.1,0,0,0-.8-.936l-1.792-.48a1.089,1.089,0,0,0-1.163.407c-.467.63-.75,1.036-.892,1.276l-.1.177-.2.053-2.864.768-.178-.1c-.242-.137-.69-.346-1.409-.659a1.089,1.089,0,0,0-1.213.229l-1.312,1.312a1.1,1.1,0,0,0-.231,1.212c.317.728.526,1.175.659,1.41l.1.178-.821,3.063-.177.1c-.234.137-.639.42-1.275.891a1.084,1.084,0,0,0-.408,1.164l.48,1.792a1.1,1.1,0,0,0,.934.806c.787.09,1.279.132,1.551.134h.205l2.243,2.244v.207c0,.258.04.72.134,1.545a1.1,1.1,0,0,0,.8.937l1.792.477a1.1,1.1,0,0,0,1.165-.406c.467-.631.75-1.036.892-1.276l.1-.177.2-.053,2.864-.767.178.1c.237.134.685.343,1.41.659a1.09,1.09,0,0,0,1.213-.229l.821-.826Zm-5.787-16.666a1.074,1.074,0,0,1,.276.037l1.791.48a1.069,1.069,0,0,1,.782.9,14.5,14.5,0,0,1,.134,1.6l0,.073-.019.07a.016.016,0,0,0,0,.016l2.289,2.289a.013.013,0,0,0,.015,0l.07-.019.073,0a14.569,14.569,0,0,1,1.6.134,1.073,1.073,0,0,1,.9.784l.477,1.791a1.058,1.058,0,0,1-.392,1.128,14.3,14.3,0,0,1-1.317.915l-.062.038-.07.019a.016.016,0,0,0-.011.012l-.838,3.126a.016.016,0,0,0,0,.015l.052.052.035.064a14.618,14.618,0,0,1,.683,1.45,1.067,1.067,0,0,1-.228,1.175l-1.308,1.31a1.063,1.063,0,0,1-1.173.227,14.538,14.538,0,0,1-1.451-.683l-.064-.035-.052-.052a.014.014,0,0,0-.01,0v0l-3.127.838a.015.015,0,0,0-.011.01l-.019.071-.038.063a14.6,14.6,0,0,1-.914,1.315,1.062,1.062,0,0,1-1.13.394l-1.79-.48a1.067,1.067,0,0,1-.783-.9,14.529,14.529,0,0,1-.134-1.6l0-.073.019-.071a.013.013,0,0,0,0-.013l-2.29-2.291a.016.016,0,0,0-.012,0l-.07.019h-.076a14.227,14.227,0,0,1-1.6-.134,1.072,1.072,0,0,1-.9-.786l-.477-1.789a1.068,1.068,0,0,1,.393-1.128,14.435,14.435,0,0,1,1.317-.914l.062-.038.07-.019a.016.016,0,0,0,.011-.011l.838-3.127a.017.017,0,0,0,0-.016l-.051-.051-.035-.063a14.4,14.4,0,0,1-.683-1.451,1.069,1.069,0,0,1,.228-1.175l1.309-1.309a1.065,1.065,0,0,1,1.173-.227,14.69,14.69,0,0,1,1.451.683l.065.035.052.052a.015.015,0,0,0,.01,0l3.131-.839a.015.015,0,0,0,.011-.011l.019-.07.038-.062a14.383,14.383,0,0,1,.915-1.317A1.07,1.07,0,0,1,310.446,4211.94Zm1.981,2.986a13.522,13.522,0,0,0-.124-1.433l0-.015a.063.063,0,0,0-.046-.054l-1.793-.481a.065.065,0,0,0-.068.024l-.01.013a13.366,13.366,0,0,0-.823,1.179,1.017,1.017,0,0,1-.693.635l-3.126.838a1.018,1.018,0,0,1-.263.035,1,1,0,0,1-.656-.24,13.65,13.65,0,0,0-1.3-.609l-.013-.005a.068.068,0,0,0-.026-.005.064.064,0,0,0-.045.019l-1.312,1.312a.064.064,0,0,0-.015.072l.006.015a13.309,13.309,0,0,0,.609,1.3,1.02,1.02,0,0,1,.2.918l-.838,3.126a1.018,1.018,0,0,1-.636.693,13.433,13.433,0,0,0-1.18.824l-.014.01a.062.062,0,0,0-.024.066l.477,1.792a.064.064,0,0,0,.056.049l.014,0a13.114,13.114,0,0,0,1.436.124.994.994,0,0,1,.178-.016,1.012,1.012,0,0,1,.718.3l2.29,2.291a1.016,1.016,0,0,1,.282.9,13.543,13.543,0,0,0,.124,1.433l0,.016a.062.062,0,0,0,.046.053l1.793.481a.062.062,0,0,0,.068-.023l.01-.014a13.6,13.6,0,0,0,.824-1.18,1.015,1.015,0,0,1,.695-.636l3.123-.837h0a1.011,1.011,0,0,1,.916.205,13.628,13.628,0,0,0,1.3.609l.014.006a.065.065,0,0,0,.025.005.066.066,0,0,0,.046-.019l1.311-1.312a.062.062,0,0,0,.015-.07L316,4227.3a13.558,13.558,0,0,0-.61-1.3,1.018,1.018,0,0,1-.2-.918l.838-3.126a1.02,1.02,0,0,1,.636-.692,13.383,13.383,0,0,0,1.18-.824l.013-.009a.064.064,0,0,0,.024-.069l-.477-1.792a.065.065,0,0,0-.056-.048l-.014,0a13.519,13.519,0,0,0-1.433-.124.989.989,0,0,1-.178.016,1.012,1.012,0,0,1-.718-.3l-2.29-2.29A1.02,1.02,0,0,1,312.428,4214.926Zm11.447-2.577h0a2.01,2.01,0,0,1,.649.107,8.1,8.1,0,0,1,.954.36h2.468a8.122,8.122,0,0,1,.954-.359,2.01,2.01,0,0,1,.649-.107,2.037,2.037,0,0,1,1.436.6l1.292,1.292a2.033,2.033,0,0,1,.489,2.083,8.144,8.144,0,0,1-.359.954v2.469a8.227,8.227,0,0,1,.359.954,2.036,2.036,0,0,1-.49,2.085l-1.292,1.292a2.023,2.023,0,0,1-2.083.489,8.183,8.183,0,0,1-.954-.36h-2.468a8.206,8.206,0,0,1-.954.36,2.024,2.024,0,0,1-2.085-.49l-1.292-1.292a2.033,2.033,0,0,1-.489-2.084,8.324,8.324,0,0,1,.359-.954v-2.469a8.253,8.253,0,0,1-.359-.953,2.034,2.034,0,0,1,.491-2.085l1.291-1.291A2.036,2.036,0,0,1,323.875,4212.35Zm1.382,1.467-.1-.047a7.049,7.049,0,0,0-.933-.359l-.017-.005a1.01,1.01,0,0,0-.332-.056,1.03,1.03,0,0,0-.726.3l-1.294,1.293a1.029,1.029,0,0,0-.248,1.06l.005.016a7.229,7.229,0,0,0,.359.934l.047.1v2.908l-.047.1a7.334,7.334,0,0,0-.359.935l-.005.016a1.028,1.028,0,0,0,.246,1.059l1.294,1.294a1.023,1.023,0,0,0,1.06.248l.015,0a7.2,7.2,0,0,0,.934-.36l.1-.047h2.909l.1.047a7.1,7.1,0,0,0,.933.36l.016,0a1.023,1.023,0,0,0,1.059-.247l1.294-1.294a1.031,1.031,0,0,0,.247-1.06l-.005-.017a7.25,7.25,0,0,0-.359-.934l-.047-.1v-2.908l.047-.1a7.177,7.177,0,0,0,.358-.934l.005-.017a1.029,1.029,0,0,0-.246-1.059l-1.294-1.293a1.032,1.032,0,0,0-.727-.3,1.01,1.01,0,0,0-.332.056l-.017.005a7.174,7.174,0,0,0-.934.359l-.1.047Zm-1.38-.435a.99.99,0,0,1,.318.052,8.682,8.682,0,0,1,.877.329l.071.031.058.051a.012.012,0,0,0,.008,0h3.006a.017.017,0,0,0,.01,0l.058-.052.071-.031a8.821,8.821,0,0,1,.877-.328.987.987,0,0,1,.317-.052,1,1,0,0,1,.708.295l1.291,1.291a1,1,0,0,1,.242,1.024,8.92,8.92,0,0,1-.328.876l-.031.071-.051.058a.017.017,0,0,0,0,.01v3a.014.014,0,0,0,0,.009l.052.059.031.072a9.035,9.035,0,0,1,.328.875,1.006,1.006,0,0,1-.242,1.026l-1.292,1.292a1,1,0,0,1-1.025.242,8.883,8.883,0,0,1-.876-.327l-.071-.031-.058-.051a.019.019,0,0,0-.011,0h-3a.017.017,0,0,0-.011,0l-.058.05-.07.031a8.759,8.759,0,0,1-.876.328.995.995,0,0,1-1.027-.243l-1.291-1.291a1,1,0,0,1-.242-1.025,8.968,8.968,0,0,1,.328-.877l.031-.071.051-.059a.014.014,0,0,0,0-.01v-3a.018.018,0,0,0,0-.012l-.05-.058-.031-.071a8.814,8.814,0,0,1-.328-.876,1,1,0,0,1,.243-1.025l1.292-1.291A.99.99,0,0,1,323.877,4213.382Zm.736,1.271a7.572,7.572,0,0,0-.724-.268l-.012,0-1.292,1.292,0,.013c.076.244.166.487.267.724a1.017,1.017,0,0,1,.194.6v3a1.014,1.014,0,0,1-.194.6c-.1.237-.191.48-.268.725l0,.013,1.293,1.292.012,0c.247-.078.49-.167.724-.268a1.018,1.018,0,0,1,.6-.194h3a1.016,1.016,0,0,1,.6.194c.235.1.479.19.725.267l.012,0,1.292-1.292,0-.012c-.077-.244-.167-.487-.268-.725a1.01,1.01,0,0,1-.194-.6v-3a1.014,1.014,0,0,1,.194-.6c.1-.237.191-.48.268-.724l0-.013-1.294-1.291-.012,0c-.247.078-.49.167-.724.267a1.014,1.014,0,0,1-.6.194h-3.006A1.012,1.012,0,0,1,324.612,4214.654Zm-15.558.91h0a6.2,6.2,0,1,1-5.253,2.909,1.021,1.021,0,0,1,.871-.492h.027a1.016,1.016,0,0,1,.822,1.572,4.165,4.165,0,1,0,1.423-1.385,1.016,1.016,0,0,1-1.03-1.75A6.2,6.2,0,0,1,309.054,4215.563Zm.006,11.4a5.2,5.2,0,0,0,0-10.4h0a5.2,5.2,0,0,0-2.631.715.016.016,0,0,0-.005.021.014.014,0,0,0,.021.005,5.164,5.164,0,1,1-1.76,1.711l.007-.012a.017.017,0,0,0,0-.017.016.016,0,0,0-.028,0l-.007.011a5.2,5.2,0,0,0,4.406,7.962Zm17.652-11.391a2.939,2.939,0,0,1,2.331,4.728l.013.022-.267.268a2.939,2.939,0,1,1-2.076-5.018Zm1.327,4.352.043-.043a1.842,1.842,0,1,0-.043.043Zm-1.326-3.316a1.906,1.906,0,1,1-1.49.722v-.018l.143-.146A1.893,1.893,0,0,1,326.712,4216.606Zm0,2.81a.9.9,0,1,0-.6-1.582l-.039.041a.9.9,0,0,0,.639,1.542Zm-17.654-1.149a3.5,3.5,0,0,1,2.474,5.968l-.146.146h-.012a3.5,3.5,0,1,1-2.316-6.115Zm1.822,5.2a2.6,2.6,0,1,0-.057.057Zm-1.822-4.173a2.465,2.465,0,1,1-1.743,4.208,2.481,2.481,0,0,1-.724-1.742,2.45,2.45,0,0,1,.721-1.744l.146-.146h.015A2.447,2.447,0,0,1,309.058,4219.3Zm0,3.931a1.465,1.465,0,1,0-1.036-2.5l-.048.048a1.453,1.453,0,0,0-.383.988,1.474,1.474,0,0,0,.43,1.036A1.456,1.456,0,0,0,309.058,4223.227Zm14.409,1.8a2.092,2.092,0,0,1,1.753.947,16.258,16.258,0,0,1,.942,1.548l2.934,1.5a16.233,16.233,0,0,1,1.8-.147c.033,0,.066,0,.1,0a2.09,2.09,0,0,1,1.869,1.144l1.242,2.438a2.1,2.1,0,0,1-.236,2.269l-.023.028a16.522,16.522,0,0,1-1.155,1.342l-.516,3.252a16.5,16.5,0,0,1,.7,1.672,2.088,2.088,0,0,1,.132.611,1.017,1.017,0,0,1-.95,1.077l-.064,0a1.018,1.018,0,0,1-1.014-.952.065.065,0,0,0,0-.017l0-.013a15.192,15.192,0,0,0-.637-1.529,1.02,1.02,0,0,1-.22-.806l.63-3.979a1.019,1.019,0,0,1,.459-.7,15.256,15.256,0,0,0,1.078-1.256l.007-.009a.066.066,0,0,0,.008-.072l-1.241-2.437a.066.066,0,0,0-.06-.036h-.014a15.068,15.068,0,0,0-1.649.134,1.026,1.026,0,0,1-.836-.041l-3.589-1.829a1.016,1.016,0,0,1-.523-.652,15.453,15.453,0,0,0-.861-1.414l-.006-.009a.066.066,0,0,0-.065-.029l-2.7.428a.067.067,0,0,0-.053.048l0,.012a15.446,15.446,0,0,0-.383,1.61,1.016,1.016,0,0,1-.3.783l-2.848,2.848a1.012,1.012,0,0,1-.719.3l-.062,0a15.594,15.594,0,0,0-1.612.382l-.01,0a.068.068,0,0,0-.049.054l-.427,2.7a.066.066,0,0,0,.029.066l.01.007a15.281,15.281,0,0,0,1.414.86,1.02,1.02,0,0,1,.652.523l1.829,3.59a1.017,1.017,0,0,1,.04.834,15.459,15.459,0,0,0-.134,1.65v.01a.067.067,0,0,0,.037.063l2.437,1.241a.065.065,0,0,0,.03.007.063.063,0,0,0,.04-.014l.01-.008a15.191,15.191,0,0,0,1.255-1.078,1.016,1.016,0,0,1,.7-.459l3.978-.63a1.013,1.013,0,0,1,.806.22,15.053,15.053,0,0,0,1.529.638l.011,0a.068.068,0,0,0,.024,0,.064.064,0,0,0,.046-.019l.84-.839a1.016,1.016,0,0,1,1.437,1.437l-.839.839a2.1,2.1,0,0,1-2.225.478,16.3,16.3,0,0,1-1.671-.7l-3.253.515a16.42,16.42,0,0,1-1.374,1.181,2.1,2.1,0,0,1-2.264.231l-2.438-1.241a2.1,2.1,0,0,1-1.143-1.968,16.474,16.474,0,0,1,.147-1.8l-1.5-2.935a16.49,16.49,0,0,1-1.548-.942,2.1,2.1,0,0,1-.921-2.083l.428-2.7a2.1,2.1,0,0,1,1.519-1.7,16.376,16.376,0,0,1,1.762-.417l2.329-2.33a16.412,16.412,0,0,1,.418-1.762,2.1,2.1,0,0,1,1.694-1.52l2.7-.427A2.068,2.068,0,0,1,323.468,4225.029Zm5.459,5.025-.142-.073-3.359-1.711-.074-.142a15.24,15.24,0,0,0-.958-1.591l-.007-.011a1.1,1.1,0,0,0-.919-.5,1.081,1.081,0,0,0-.173.014l-2.7.427a1.1,1.1,0,0,0-.887.8l0,.012a15.388,15.388,0,0,0-.42,1.808l-.027.157-2.779,2.779-.157.027a15.427,15.427,0,0,0-1.808.419l-.012,0a1.1,1.1,0,0,0-.8.888l-.428,2.7a1.1,1.1,0,0,0,.485,1.093l.01.007a15.519,15.519,0,0,0,1.592.959l.141.074,1.784,3.5-.023.158a15.453,15.453,0,0,0-.16,1.848v.012a1.1,1.1,0,0,0,.6,1.034l2.438,1.241a1.1,1.1,0,0,0,1.189-.124l.009-.007a15.431,15.431,0,0,0,1.4-1.217l.114-.112,3.881-.614.143.071a15.421,15.421,0,0,0,1.71.723l.012,0a1.1,1.1,0,0,0,1.168-.249l.839-.838a.016.016,0,0,0,0-.022.017.017,0,0,0-.023,0l-.839.839a1.057,1.057,0,0,1-.754.313,1.07,1.07,0,0,1-.373-.067,16.109,16.109,0,0,1-1.691-.71l-.075-.037-.059-.059a.017.017,0,0,0-.012,0l-3.982.631a.015.015,0,0,0-.012.008l-.038.075-.061.059a16.183,16.183,0,0,1-1.387,1.2,1.066,1.066,0,0,1-1.148.117l-2.438-1.241a1.071,1.071,0,0,1-.581-1,16.455,16.455,0,0,1,.153-1.826l.012-.083.038-.075a.015.015,0,0,0,0-.014l-1.83-3.591a.017.017,0,0,0-.013-.009l-.082-.013-.074-.039a16.308,16.308,0,0,1-1.567-.949,1.068,1.068,0,0,1-.465-1.057l.428-2.7a1.071,1.071,0,0,1,.769-.86,16.56,16.56,0,0,1,1.783-.418l.083-.015.083.013a.016.016,0,0,0,.016,0l2.848-2.849a.015.015,0,0,0,0-.013l-.014-.083.015-.083a16.44,16.44,0,0,1,.419-1.783,1.067,1.067,0,0,1,.86-.769l2.7-.428a1.065,1.065,0,0,1,1.056.465,16.382,16.382,0,0,1,.949,1.566l.04.075.013.084a.015.015,0,0,0,.008.011l3.59,1.83a.018.018,0,0,0,.014,0l.075-.039.083-.012a16.142,16.142,0,0,1,1.827-.153H331a1.061,1.061,0,0,1,.951.583l1.242,2.437a1.069,1.069,0,0,1-.116,1.147,16.257,16.257,0,0,1-1.2,1.388l-.059.061-.075.038a.016.016,0,0,0-.008.011l-.63,3.979a.017.017,0,0,0,0,.014l.06.059.037.076a16.166,16.166,0,0,1,.709,1.69,1.06,1.06,0,0,1,.066.306.016.016,0,0,0,.016.016.016.016,0,0,0,.016-.017,1.087,1.087,0,0,0-.07-.322l0-.013a15.458,15.458,0,0,0-.724-1.711l-.071-.143.615-3.88.111-.114a15.565,15.565,0,0,0,1.217-1.4l.057-.075a1.1,1.1,0,0,0,.075-1.123l-1.241-2.437a1.094,1.094,0,0,0-.978-.6h-.068a15.266,15.266,0,0,0-1.848.159Zm-5.392.146h1.26l-.116.109a6.1,6.1,0,1,1-1.143-.109Zm0,11.213a5.106,5.106,0,1,0,0-10.212h-.095a5.107,5.107,0,0,0-1.058,10.081l.028-.026a5.073,5.073,0,1,1,1.126.127h-.557A5.128,5.128,0,0,0,323.535,4241.413Zm.085-1.032a4.117,4.117,0,1,0-.085,0Zm-.084-7.445a3.37,3.37,0,1,1-3,1.842H320.3l.849-.853A3.344,3.344,0,0,1,323.535,4232.937Zm.606,5.662a2.37,2.37,0,1,0-2.223-4.023l-.057.057a2.357,2.357,0,0,0-.609,1.049,2.338,2.338,0,1,1,2.889,2.917Zm-.651-.907a1.337,1.337,0,1,0-.331-.042A1.342,1.342,0,0,0,323.491,4237.691Z" transform="translate(-298.707 -4211.411)" fill="#fff"/>
          </g>
        </g>
      </g>
      <g id="Grupo_71227-2" data-name="Grupo 71227" transform="translate(723.003 4225.029)">
        <g id="Grupo_71226-2" data-name="Grupo 71226">
          <g id="Grupo_71225-2" data-name="Grupo 71225">
            <path id="Trazado_162101-2" data-name="Trazado 162101" d="M309.057,4216.063a5.693,5.693,0,0,0-2.887.784.516.516,0,1,0,.523.889,4.664,4.664,0,1,1-1.59,1.546.516.516,0,1,0-.873-.549,5.7,5.7,0,1,0,4.828-2.67Zm19.378,4.17a2.438,2.438,0,1,0-3.445,0,2.438,2.438,0,0,0,3.445,0Zm-2.716-2.716a1.4,1.4,0,1,1,0,1.986,1.405,1.405,0,0,1,0-1.986Zm-4.2-.351v2.687a7.782,7.782,0,0,0-.384,1,1.523,1.523,0,0,0,.367,1.576l1.293,1.293a1.524,1.524,0,0,0,1.576.367,7.688,7.688,0,0,0,1-.385h2.687a7.617,7.617,0,0,0,1,.385,1.524,1.524,0,0,0,1.576-.367l1.293-1.293a1.524,1.524,0,0,0,.367-1.576,7.709,7.709,0,0,0-.384-1v-2.687a7.642,7.642,0,0,0,.384-1,1.523,1.523,0,0,0-.367-1.576l-1.293-1.292a1.522,1.522,0,0,0-1.576-.367,7.615,7.615,0,0,0-1,.384h-2.687a7.549,7.549,0,0,0-1-.384,1.522,1.522,0,0,0-1.576.367l-1.293,1.292a1.523,1.523,0,0,0-.367,1.576A7.738,7.738,0,0,0,321.518,4217.167Zm.9-.5a8.269,8.269,0,0,1-.311-.832.5.5,0,0,1,.12-.516l1.293-1.292a.5.5,0,0,1,.516-.12,8.171,8.171,0,0,1,.832.312.512.512,0,0,0,.339.127h3a.514.514,0,0,0,.34-.127,8.285,8.285,0,0,1,.832-.311.5.5,0,0,1,.515.12l1.293,1.292a.5.5,0,0,1,.12.516,8.4,8.4,0,0,1-.311.832.515.515,0,0,0-.128.34v3a.512.512,0,0,0,.128.339,8.5,8.5,0,0,1,.311.832.5.5,0,0,1-.12.516l-1.293,1.292a.5.5,0,0,1-.516.12,8.407,8.407,0,0,1-.832-.311.518.518,0,0,0-.34-.128h-3a.517.517,0,0,0-.34.127,8.285,8.285,0,0,1-.832.311.5.5,0,0,1-.516-.12l-1.292-1.292a.5.5,0,0,1-.12-.516,8.429,8.429,0,0,1,.311-.833.515.515,0,0,0,.127-.339v-3A.517.517,0,0,0,322.422,4216.669Zm1.113,14.031a5.606,5.606,0,1,0,5.606,5.606,5.606,5.606,0,0,0-5.606-5.606Zm0,10.181a4.575,4.575,0,1,1,4.575-4.575,4.575,4.575,0,0,1-4.575,4.575Zm9.95-6.474a1.6,1.6,0,0,0,.18-1.729l-1.241-2.438a1.6,1.6,0,0,0-1.5-.87,15.8,15.8,0,0,0-1.908.165L325.8,4227.9a15.7,15.7,0,0,0-.99-1.643,1.6,1.6,0,0,0-1.59-.706l-2.7.427a1.6,1.6,0,0,0-1.292,1.163,15.831,15.831,0,0,0-.434,1.867l-2.553,2.553a15.874,15.874,0,0,0-1.867.433,1.6,1.6,0,0,0-1.162,1.293l-.428,2.7a1.6,1.6,0,0,0,.706,1.59,15.964,15.964,0,0,0,1.643.99l1.639,3.216a15.891,15.891,0,0,0-.165,1.908,1.6,1.6,0,0,0,.87,1.5l2.438,1.241a1.6,1.6,0,0,0,1.729-.18,15.813,15.813,0,0,0,1.448-1.257l3.566-.564a15.846,15.846,0,0,0,1.765.747,1.6,1.6,0,0,0,1.7-.362l.839-.839a.516.516,0,0,0-.729-.729l-.839.839a.565.565,0,0,1-.6.129,15.513,15.513,0,0,1-1.643-.689.518.518,0,0,0-.446-.146l-3.98.631a.514.514,0,0,0-.38.276,15.667,15.667,0,0,1-1.348,1.163.565.565,0,0,1-.612.064l-2.438-1.241a.568.568,0,0,1-.308-.533,15.881,15.881,0,0,1,.148-1.774.515.515,0,0,0,0-.47l-1.829-3.59a.516.516,0,0,0-.38-.276,15.707,15.707,0,0,1-1.523-.922.567.567,0,0,1-.25-.563l.428-2.7a.568.568,0,0,1,.412-.457,15.976,15.976,0,0,1,1.734-.407.518.518,0,0,0,.447-.145l2.849-2.849a.515.515,0,0,0,.145-.447,15.87,15.87,0,0,1,.408-1.733.566.566,0,0,1,.457-.412l2.7-.428a.565.565,0,0,1,.562.25,15.845,15.845,0,0,1,.923,1.523.515.515,0,0,0,.275.38l3.59,1.829a.514.514,0,0,0,.47,0,15.53,15.53,0,0,1,1.774-.149.566.566,0,0,1,.533.309l1.242,2.438a.566.566,0,0,1-.064.612,15.757,15.757,0,0,1-1.163,1.349.515.515,0,0,0-.277.379l-.63,3.979a.516.516,0,0,0,.145.446,15.639,15.639,0,0,1,.689,1.643.562.562,0,0,1,.037.166.516.516,0,1,0,1.029-.064,1.591,1.591,0,0,0-.1-.47,15.89,15.89,0,0,0-.747-1.767l.565-3.565a15.967,15.967,0,0,0,1.256-1.449Zm-11.977-.129h0a2.865,2.865,0,1,0,2.027-.842,2.869,2.869,0,0,0-2.027.842Zm3.328,3.328a1.838,1.838,0,1,1-2.6-2.6h0a1.838,1.838,0,0,1,2.6,2.6Zm-9.069-7.826,1.311-1.312a1.589,1.589,0,0,0,.335-1.767c-.342-.787-.545-1.214-.683-1.457l.714-2.666c.24-.141.63-.41,1.319-.919a1.591,1.591,0,0,0,.594-1.7l-.48-1.791a1.59,1.59,0,0,0-1.363-1.173c-.852-.1-1.325-.136-1.6-.138l-1.952-1.951c0-.278-.04-.75-.137-1.6a1.59,1.59,0,0,0-1.174-1.363l-1.791-.48a1.589,1.589,0,0,0-1.7.594c-.51.688-.779,1.079-.92,1.319l-2.666.714c-.242-.137-.669-.34-1.456-.682a1.59,1.59,0,0,0-1.767.335l-1.311,1.311a1.589,1.589,0,0,0-.335,1.767c.342.787.545,1.215.683,1.456l-.714,2.667c-.24.141-.63.41-1.319.92a1.59,1.59,0,0,0-.594,1.7l.48,1.791a1.59,1.59,0,0,0,1.363,1.173c.852.1,1.325.135,1.6.137l1.951,1.952c0,.278.04.75.137,1.6a1.59,1.59,0,0,0,1.174,1.363l1.791.477a1.59,1.59,0,0,0,1.7-.593c.51-.689.779-1.08.92-1.319l2.666-.714c.242.137.67.339,1.456.682a1.589,1.589,0,0,0,1.767-.334Zm-3.259-1.405-3.127.838a.514.514,0,0,0-.365.364,14.087,14.087,0,0,1-.887,1.276.562.562,0,0,1-.6.212l-1.791-.48a.562.562,0,0,1-.416-.483,13.971,13.971,0,0,1-.13-1.548.514.514,0,0,0-.134-.5l-2.29-2.29a.517.517,0,0,0-.5-.134,13.643,13.643,0,0,1-1.552-.13.565.565,0,0,1-.483-.417l-.477-1.791a.562.562,0,0,1,.212-.6,13.832,13.832,0,0,1,1.276-.887.516.516,0,0,0,.364-.365l.838-3.127a.516.516,0,0,0-.133-.5,13.778,13.778,0,0,1-.661-1.405.563.563,0,0,1,.119-.627l1.311-1.311a.564.564,0,0,1,.626-.119,14.069,14.069,0,0,1,1.406.661.514.514,0,0,0,.5.134l3.127-.838a.515.515,0,0,0,.365-.364,13.8,13.8,0,0,1,.887-1.276.564.564,0,0,1,.6-.212l1.791.48a.563.563,0,0,1,.416.483,13.965,13.965,0,0,1,.13,1.548.516.516,0,0,0,.134.5l2.289,2.29a.517.517,0,0,0,.5.134,13.933,13.933,0,0,1,1.549.13.565.565,0,0,1,.483.416l.477,1.791a.564.564,0,0,1-.212.6,13.848,13.848,0,0,1-1.276.887.516.516,0,0,0-.364.365l-.838,3.127a.515.515,0,0,0,.133.5,14.011,14.011,0,0,1,.661,1.406.562.562,0,0,1-.119.626l-1.311,1.312a.564.564,0,0,1-.626.119,13.955,13.955,0,0,1-1.406-.662.515.515,0,0,0-.5-.133Zm-1.329-4.494a3,3,0,1,0-4.24,0,3,3,0,0,0,4.24,0Zm-3.509-3.509a1.961,1.961,0,1,1-.577,1.39,1.965,1.965,0,0,1,.577-1.39Z" transform="translate(-298.707 -4211.411)" fill="#fff"/>
            <path id="Trazado_162101_-_Contorno-2" data-name="Trazado 162101 - Contorno" d="M310.443,4210.911a2.082,2.082,0,0,1,.545.073l1.79.479a2.1,2.1,0,0,1,1.541,1.791c.079.693.121,1.139.135,1.445l1.671,1.67c.318.015.779.058,1.446.135a2.1,2.1,0,0,1,1.789,1.542l.48,1.789a2.1,2.1,0,0,1-.781,2.229c-.539.4-.916.666-1.183.837l-.612,2.283c.145.283.339.7.607,1.319a2.1,2.1,0,0,1-.441,2.321l-2.13,2.13-.009-.311a2.1,2.1,0,0,1-.652.1,2.069,2.069,0,0,1-.841-.177c-.615-.268-1.035-.46-1.317-.6l-2.284.611c-.174.271-.441.648-.839,1.185a2.089,2.089,0,0,1-2.229.778l-1.788-.476a2.1,2.1,0,0,1-1.542-1.792c-.079-.693-.121-1.139-.135-1.444l-1.67-1.671c-.318-.015-.778-.058-1.446-.134a2.1,2.1,0,0,1-1.789-1.542l-.48-1.79a2.076,2.076,0,0,1,.78-2.228c.54-.4.917-.667,1.184-.838l.612-2.284c-.145-.281-.338-.7-.607-1.319a2.1,2.1,0,0,1,.441-2.321l1.31-1.309a2.089,2.089,0,0,1,2.321-.44c.613.266,1.032.459,1.317.606l2.283-.612c.174-.271.441-.648.839-1.185A2.1,2.1,0,0,1,310.443,4210.911Zm5.79,17.7.491-.491a1.1,1.1,0,0,0,.231-1.212c-.316-.727-.526-1.174-.66-1.411l-.1-.178.82-3.062.177-.1c.236-.139.641-.421,1.275-.89a1.1,1.1,0,0,0,.408-1.164l-.48-1.792a1.083,1.083,0,0,0-.935-.806c-.786-.09-1.278-.133-1.551-.135h-.2l-2.243-2.243v-.207c0-.258-.04-.72-.134-1.546a1.1,1.1,0,0,0-.8-.936l-1.792-.48a1.089,1.089,0,0,0-1.163.407c-.467.63-.75,1.036-.892,1.276l-.1.177-.2.053-2.864.768-.178-.1c-.242-.137-.69-.346-1.409-.659a1.089,1.089,0,0,0-1.213.229l-1.312,1.312a1.1,1.1,0,0,0-.231,1.212c.317.728.526,1.175.659,1.41l.1.178-.821,3.063-.177.1c-.234.137-.639.42-1.275.891a1.084,1.084,0,0,0-.408,1.164l.48,1.792a1.1,1.1,0,0,0,.934.806c.787.09,1.279.132,1.551.134h.205l2.243,2.244v.207c0,.258.04.72.134,1.545a1.1,1.1,0,0,0,.8.937l1.792.477a1.1,1.1,0,0,0,1.165-.406c.467-.631.75-1.036.892-1.276l.1-.177.2-.053,2.864-.767.178.1c.237.134.685.343,1.41.659a1.09,1.09,0,0,0,1.213-.229l.821-.826Zm-5.787-16.666a1.074,1.074,0,0,1,.276.037l1.791.48a1.069,1.069,0,0,1,.782.9,14.5,14.5,0,0,1,.134,1.6l0,.073-.019.07a.016.016,0,0,0,0,.016l2.289,2.289a.013.013,0,0,0,.015,0l.07-.019.073,0a14.569,14.569,0,0,1,1.6.134,1.073,1.073,0,0,1,.9.784l.477,1.791a1.058,1.058,0,0,1-.392,1.128,14.3,14.3,0,0,1-1.317.915l-.062.038-.07.019a.016.016,0,0,0-.011.012l-.838,3.126a.016.016,0,0,0,0,.015l.052.052.035.064a14.618,14.618,0,0,1,.683,1.45,1.067,1.067,0,0,1-.228,1.175l-1.308,1.31a1.063,1.063,0,0,1-1.173.227,14.538,14.538,0,0,1-1.451-.683l-.064-.035-.052-.052a.014.014,0,0,0-.01,0v0l-3.127.838a.015.015,0,0,0-.011.01l-.019.071-.038.063a14.6,14.6,0,0,1-.914,1.315,1.062,1.062,0,0,1-1.13.394l-1.79-.48a1.067,1.067,0,0,1-.783-.9,14.529,14.529,0,0,1-.134-1.6l0-.073.019-.071a.013.013,0,0,0,0-.013l-2.29-2.291a.016.016,0,0,0-.012,0l-.07.019h-.076a14.227,14.227,0,0,1-1.6-.134,1.072,1.072,0,0,1-.9-.786l-.477-1.789a1.068,1.068,0,0,1,.393-1.128,14.435,14.435,0,0,1,1.317-.914l.062-.038.07-.019a.016.016,0,0,0,.011-.011l.838-3.127a.017.017,0,0,0,0-.016l-.051-.051-.035-.063a14.4,14.4,0,0,1-.683-1.451,1.069,1.069,0,0,1,.228-1.175l1.309-1.309a1.065,1.065,0,0,1,1.173-.227,14.69,14.69,0,0,1,1.451.683l.065.035.052.052a.015.015,0,0,0,.01,0l3.131-.839a.015.015,0,0,0,.011-.011l.019-.07.038-.062a14.383,14.383,0,0,1,.915-1.317A1.07,1.07,0,0,1,310.446,4211.94Zm1.981,2.986a13.522,13.522,0,0,0-.124-1.433l0-.015a.063.063,0,0,0-.046-.054l-1.793-.481a.065.065,0,0,0-.068.024l-.01.013a13.366,13.366,0,0,0-.823,1.179,1.017,1.017,0,0,1-.693.635l-3.126.838a1.018,1.018,0,0,1-.263.035,1,1,0,0,1-.656-.24,13.65,13.65,0,0,0-1.3-.609l-.013-.005a.068.068,0,0,0-.026-.005.064.064,0,0,0-.045.019l-1.312,1.312a.064.064,0,0,0-.015.072l.006.015a13.309,13.309,0,0,0,.609,1.3,1.02,1.02,0,0,1,.2.918l-.838,3.126a1.018,1.018,0,0,1-.636.693,13.433,13.433,0,0,0-1.18.824l-.014.01a.062.062,0,0,0-.024.066l.477,1.792a.064.064,0,0,0,.056.049l.014,0a13.114,13.114,0,0,0,1.436.124.994.994,0,0,1,.178-.016,1.012,1.012,0,0,1,.718.3l2.29,2.291a1.016,1.016,0,0,1,.282.9,13.543,13.543,0,0,0,.124,1.433l0,.016a.062.062,0,0,0,.046.053l1.793.481a.062.062,0,0,0,.068-.023l.01-.014a13.6,13.6,0,0,0,.824-1.18,1.015,1.015,0,0,1,.695-.636l3.123-.837h0a1.011,1.011,0,0,1,.916.205,13.628,13.628,0,0,0,1.3.609l.014.006a.065.065,0,0,0,.025.005.066.066,0,0,0,.046-.019l1.311-1.312a.062.062,0,0,0,.015-.07L316,4227.3a13.558,13.558,0,0,0-.61-1.3,1.018,1.018,0,0,1-.2-.918l.838-3.126a1.02,1.02,0,0,1,.636-.692,13.383,13.383,0,0,0,1.18-.824l.013-.009a.064.064,0,0,0,.024-.069l-.477-1.792a.065.065,0,0,0-.056-.048l-.014,0a13.519,13.519,0,0,0-1.433-.124.989.989,0,0,1-.178.016,1.012,1.012,0,0,1-.718-.3l-2.29-2.29A1.02,1.02,0,0,1,312.428,4214.926Zm11.447-2.577h0a2.01,2.01,0,0,1,.649.107,8.1,8.1,0,0,1,.954.36h2.468a8.122,8.122,0,0,1,.954-.359,2.01,2.01,0,0,1,.649-.107,2.037,2.037,0,0,1,1.436.6l1.292,1.292a2.033,2.033,0,0,1,.489,2.083,8.144,8.144,0,0,1-.359.954v2.469a8.227,8.227,0,0,1,.359.954,2.036,2.036,0,0,1-.49,2.085l-1.292,1.292a2.023,2.023,0,0,1-2.083.489,8.183,8.183,0,0,1-.954-.36h-2.468a8.206,8.206,0,0,1-.954.36,2.024,2.024,0,0,1-2.085-.49l-1.292-1.292a2.033,2.033,0,0,1-.489-2.084,8.324,8.324,0,0,1,.359-.954v-2.469a8.253,8.253,0,0,1-.359-.953,2.034,2.034,0,0,1,.491-2.085l1.291-1.291A2.036,2.036,0,0,1,323.875,4212.35Zm1.382,1.467-.1-.047a7.049,7.049,0,0,0-.933-.359l-.017-.005a1.01,1.01,0,0,0-.332-.056,1.03,1.03,0,0,0-.726.3l-1.294,1.293a1.029,1.029,0,0,0-.248,1.06l.005.016a7.229,7.229,0,0,0,.359.934l.047.1v2.908l-.047.1a7.334,7.334,0,0,0-.359.935l-.005.016a1.028,1.028,0,0,0,.246,1.059l1.294,1.294a1.023,1.023,0,0,0,1.06.248l.015,0a7.2,7.2,0,0,0,.934-.36l.1-.047h2.909l.1.047a7.1,7.1,0,0,0,.933.36l.016,0a1.023,1.023,0,0,0,1.059-.247l1.294-1.294a1.031,1.031,0,0,0,.247-1.06l-.005-.017a7.25,7.25,0,0,0-.359-.934l-.047-.1v-2.908l.047-.1a7.177,7.177,0,0,0,.358-.934l.005-.017a1.029,1.029,0,0,0-.246-1.059l-1.294-1.293a1.032,1.032,0,0,0-.727-.3,1.01,1.01,0,0,0-.332.056l-.017.005a7.174,7.174,0,0,0-.934.359l-.1.047Zm-1.38-.435a.99.99,0,0,1,.318.052,8.682,8.682,0,0,1,.877.329l.071.031.058.051a.012.012,0,0,0,.008,0h3.006a.017.017,0,0,0,.01,0l.058-.052.071-.031a8.821,8.821,0,0,1,.877-.328.987.987,0,0,1,.317-.052,1,1,0,0,1,.708.295l1.291,1.291a1,1,0,0,1,.242,1.024,8.92,8.92,0,0,1-.328.876l-.031.071-.051.058a.017.017,0,0,0,0,.01v3a.014.014,0,0,0,0,.009l.052.059.031.072a9.035,9.035,0,0,1,.328.875,1.006,1.006,0,0,1-.242,1.026l-1.292,1.292a1,1,0,0,1-1.025.242,8.883,8.883,0,0,1-.876-.327l-.071-.031-.058-.051a.019.019,0,0,0-.011,0h-3a.017.017,0,0,0-.011,0l-.058.05-.07.031a8.759,8.759,0,0,1-.876.328.995.995,0,0,1-1.027-.243l-1.291-1.291a1,1,0,0,1-.242-1.025,8.968,8.968,0,0,1,.328-.877l.031-.071.051-.059a.014.014,0,0,0,0-.01v-3a.018.018,0,0,0,0-.012l-.05-.058-.031-.071a8.814,8.814,0,0,1-.328-.876,1,1,0,0,1,.243-1.025l1.292-1.291A.99.99,0,0,1,323.877,4213.382Zm.736,1.271a7.572,7.572,0,0,0-.724-.268l-.012,0-1.292,1.292,0,.013c.076.244.166.487.267.724a1.017,1.017,0,0,1,.194.6v3a1.014,1.014,0,0,1-.194.6c-.1.237-.191.48-.268.725l0,.013,1.293,1.292.012,0c.247-.078.49-.167.724-.268a1.018,1.018,0,0,1,.6-.194h3a1.016,1.016,0,0,1,.6.194c.235.1.479.19.725.267l.012,0,1.292-1.292,0-.012c-.077-.244-.167-.487-.268-.725a1.01,1.01,0,0,1-.194-.6v-3a1.014,1.014,0,0,1,.194-.6c.1-.237.191-.48.268-.724l0-.013-1.294-1.291-.012,0c-.247.078-.49.167-.724.267a1.014,1.014,0,0,1-.6.194h-3.006A1.012,1.012,0,0,1,324.612,4214.654Zm-15.558.91h0a6.2,6.2,0,1,1-5.253,2.909,1.021,1.021,0,0,1,.871-.492h.027a1.016,1.016,0,0,1,.822,1.572,4.165,4.165,0,1,0,1.423-1.385,1.016,1.016,0,0,1-1.03-1.75A6.2,6.2,0,0,1,309.054,4215.563Zm.006,11.4a5.2,5.2,0,0,0,0-10.4h0a5.2,5.2,0,0,0-2.631.715.016.016,0,0,0-.005.021.014.014,0,0,0,.021.005,5.164,5.164,0,1,1-1.76,1.711l.007-.012a.017.017,0,0,0,0-.017.016.016,0,0,0-.028,0l-.007.011a5.2,5.2,0,0,0,4.406,7.962Zm17.652-11.391a2.939,2.939,0,0,1,2.331,4.728l.013.022-.267.268a2.939,2.939,0,1,1-2.076-5.018Zm1.327,4.352.043-.043a1.842,1.842,0,1,0-.043.043Zm-1.326-3.316a1.906,1.906,0,1,1-1.49.722v-.018l.143-.146A1.893,1.893,0,0,1,326.712,4216.606Zm0,2.81a.9.9,0,1,0-.6-1.582l-.039.041a.9.9,0,0,0,.639,1.542Zm-17.654-1.149a3.5,3.5,0,0,1,2.474,5.968l-.146.146h-.012a3.5,3.5,0,1,1-2.316-6.115Zm1.822,5.2a2.6,2.6,0,1,0-.057.057Zm-1.822-4.173a2.465,2.465,0,1,1-1.743,4.208,2.481,2.481,0,0,1-.724-1.742,2.45,2.45,0,0,1,.721-1.744l.146-.146h.015A2.447,2.447,0,0,1,309.058,4219.3Zm0,3.931a1.465,1.465,0,1,0-1.036-2.5l-.048.048a1.453,1.453,0,0,0-.383.988,1.474,1.474,0,0,0,.43,1.036A1.456,1.456,0,0,0,309.058,4223.227Zm14.409,1.8a2.092,2.092,0,0,1,1.753.947,16.258,16.258,0,0,1,.942,1.548l2.934,1.5a16.233,16.233,0,0,1,1.8-.147c.033,0,.066,0,.1,0a2.09,2.09,0,0,1,1.869,1.144l1.242,2.438a2.1,2.1,0,0,1-.236,2.269l-.023.028a16.522,16.522,0,0,1-1.155,1.342l-.516,3.252a16.5,16.5,0,0,1,.7,1.672,2.088,2.088,0,0,1,.132.611,1.017,1.017,0,0,1-.95,1.077l-.064,0a1.018,1.018,0,0,1-1.014-.952.065.065,0,0,0,0-.017l0-.013a15.192,15.192,0,0,0-.637-1.529,1.02,1.02,0,0,1-.22-.806l.63-3.979a1.019,1.019,0,0,1,.459-.7,15.256,15.256,0,0,0,1.078-1.256l.007-.009a.066.066,0,0,0,.008-.072l-1.241-2.437a.066.066,0,0,0-.06-.036h-.014a15.068,15.068,0,0,0-1.649.134,1.026,1.026,0,0,1-.836-.041l-3.589-1.829a1.016,1.016,0,0,1-.523-.652,15.453,15.453,0,0,0-.861-1.414l-.006-.009a.066.066,0,0,0-.065-.029l-2.7.428a.067.067,0,0,0-.053.048l0,.012a15.446,15.446,0,0,0-.383,1.61,1.016,1.016,0,0,1-.3.783l-2.848,2.848a1.012,1.012,0,0,1-.719.3l-.062,0a15.594,15.594,0,0,0-1.612.382l-.01,0a.068.068,0,0,0-.049.054l-.427,2.7a.066.066,0,0,0,.029.066l.01.007a15.281,15.281,0,0,0,1.414.86,1.02,1.02,0,0,1,.652.523l1.829,3.59a1.017,1.017,0,0,1,.04.834,15.459,15.459,0,0,0-.134,1.65v.01a.067.067,0,0,0,.037.063l2.437,1.241a.065.065,0,0,0,.03.007.063.063,0,0,0,.04-.014l.01-.008a15.191,15.191,0,0,0,1.255-1.078,1.016,1.016,0,0,1,.7-.459l3.978-.63a1.013,1.013,0,0,1,.806.22,15.053,15.053,0,0,0,1.529.638l.011,0a.068.068,0,0,0,.024,0,.064.064,0,0,0,.046-.019l.84-.839a1.016,1.016,0,0,1,1.437,1.437l-.839.839a2.1,2.1,0,0,1-2.225.478,16.3,16.3,0,0,1-1.671-.7l-3.253.515a16.42,16.42,0,0,1-1.374,1.181,2.1,2.1,0,0,1-2.264.231l-2.438-1.241a2.1,2.1,0,0,1-1.143-1.968,16.474,16.474,0,0,1,.147-1.8l-1.5-2.935a16.49,16.49,0,0,1-1.548-.942,2.1,2.1,0,0,1-.921-2.083l.428-2.7a2.1,2.1,0,0,1,1.519-1.7,16.376,16.376,0,0,1,1.762-.417l2.329-2.33a16.412,16.412,0,0,1,.418-1.762,2.1,2.1,0,0,1,1.694-1.52l2.7-.427A2.068,2.068,0,0,1,323.468,4225.029Zm5.459,5.025-.142-.073-3.359-1.711-.074-.142a15.24,15.24,0,0,0-.958-1.591l-.007-.011a1.1,1.1,0,0,0-.919-.5,1.081,1.081,0,0,0-.173.014l-2.7.427a1.1,1.1,0,0,0-.887.8l0,.012a15.388,15.388,0,0,0-.42,1.808l-.027.157-2.779,2.779-.157.027a15.427,15.427,0,0,0-1.808.419l-.012,0a1.1,1.1,0,0,0-.8.888l-.428,2.7a1.1,1.1,0,0,0,.485,1.093l.01.007a15.519,15.519,0,0,0,1.592.959l.141.074,1.784,3.5-.023.158a15.453,15.453,0,0,0-.16,1.848v.012a1.1,1.1,0,0,0,.6,1.034l2.438,1.241a1.1,1.1,0,0,0,1.189-.124l.009-.007a15.431,15.431,0,0,0,1.4-1.217l.114-.112,3.881-.614.143.071a15.421,15.421,0,0,0,1.71.723l.012,0a1.1,1.1,0,0,0,1.168-.249l.839-.838a.016.016,0,0,0,0-.022.017.017,0,0,0-.023,0l-.839.839a1.057,1.057,0,0,1-.754.313,1.07,1.07,0,0,1-.373-.067,16.109,16.109,0,0,1-1.691-.71l-.075-.037-.059-.059a.017.017,0,0,0-.012,0l-3.982.631a.015.015,0,0,0-.012.008l-.038.075-.061.059a16.183,16.183,0,0,1-1.387,1.2,1.066,1.066,0,0,1-1.148.117l-2.438-1.241a1.071,1.071,0,0,1-.581-1,16.455,16.455,0,0,1,.153-1.826l.012-.083.038-.075a.015.015,0,0,0,0-.014l-1.83-3.591a.017.017,0,0,0-.013-.009l-.082-.013-.074-.039a16.308,16.308,0,0,1-1.567-.949,1.068,1.068,0,0,1-.465-1.057l.428-2.7a1.071,1.071,0,0,1,.769-.86,16.56,16.56,0,0,1,1.783-.418l.083-.015.083.013a.016.016,0,0,0,.016,0l2.848-2.849a.015.015,0,0,0,0-.013l-.014-.083.015-.083a16.44,16.44,0,0,1,.419-1.783,1.067,1.067,0,0,1,.86-.769l2.7-.428a1.065,1.065,0,0,1,1.056.465,16.382,16.382,0,0,1,.949,1.566l.04.075.013.084a.015.015,0,0,0,.008.011l3.59,1.83a.018.018,0,0,0,.014,0l.075-.039.083-.012a16.142,16.142,0,0,1,1.827-.153H331a1.061,1.061,0,0,1,.951.583l1.242,2.437a1.069,1.069,0,0,1-.116,1.147,16.257,16.257,0,0,1-1.2,1.388l-.059.061-.075.038a.016.016,0,0,0-.008.011l-.63,3.979a.017.017,0,0,0,0,.014l.06.059.037.076a16.166,16.166,0,0,1,.709,1.69,1.06,1.06,0,0,1,.066.306.016.016,0,0,0,.016.016.016.016,0,0,0,.016-.017,1.087,1.087,0,0,0-.07-.322l0-.013a15.458,15.458,0,0,0-.724-1.711l-.071-.143.615-3.88.111-.114a15.565,15.565,0,0,0,1.217-1.4l.057-.075a1.1,1.1,0,0,0,.075-1.123l-1.241-2.437a1.094,1.094,0,0,0-.978-.6h-.068a15.266,15.266,0,0,0-1.848.159Zm-5.392.146h1.26l-.116.109a6.1,6.1,0,1,1-1.143-.109Zm0,11.213a5.106,5.106,0,1,0,0-10.212h-.095a5.107,5.107,0,0,0-1.058,10.081l.028-.026a5.073,5.073,0,1,1,1.126.127h-.557A5.128,5.128,0,0,0,323.535,4241.413Zm.085-1.032a4.117,4.117,0,1,0-.085,0Zm-.084-7.445a3.37,3.37,0,1,1-3,1.842H320.3l.849-.853A3.344,3.344,0,0,1,323.535,4232.937Zm.606,5.662a2.37,2.37,0,1,0-2.223-4.023l-.057.057a2.357,2.357,0,0,0-.609,1.049,2.338,2.338,0,1,1,2.889,2.917Zm-.651-.907a1.337,1.337,0,1,0-.331-.042A1.342,1.342,0,0,0,323.491,4237.691Z" transform="translate(-298.707 -4211.411)" fill="#fff"/>
          </g>
        </g>
      </g>
      <path id="Rectángulo_20248" data-name="Rectángulo 20248" d="M9.072,0H154.914a9.072,9.072,0,0,1,9.072,9.072V52.1a9.072,9.072,0,0,1-9.072,9.072H9.072A9.072,9.072,0,0,1,0,52.1V9.072A9.072,9.072,0,0,1,9.072,0Z" transform="translate(192.157 4475.276)" fill="#75baf1"/>
      <path id="Rectángulo_20248-2" data-name="Rectángulo 20248" d="M9.072,0H154.914a9.072,9.072,0,0,1,9.072,9.072V52.1a9.072,9.072,0,0,1-9.072,9.072H9.072A9.072,9.072,0,0,1,0,52.1V9.072A9.072,9.072,0,0,1,9.072,0Z" transform="translate(848.171 4475.276)" fill="#75baf1"/>
      <g id="Grupo_71234" data-name="Grupo 71234" transform="translate(651.878 4417.988)">
        <path id="Trazado_162132" data-name="Trazado 162132" d="M808.755,4478.76v-21.271H787.484v6.077h10.9l-14.16,14.159-15.193-12.154-17.118,17.117,4.3,4.3,13.27-13.27,15.193,12.154,18.006-18.006v10.9Z" transform="translate(-730.643 -4417.988)" fill="#f9ce24"/>
        <path id="Trazado_162133" data-name="Trazado 162133" d="M748.208,4434.21l15.193,12.154,18.006-18.006v10.9h6.077v-21.27h-21.27v6.077h10.9l-14.161,14.159L747.76,4426.07l-17.117,17.117,4.3,4.3Z" transform="translate(-730.643 -4417.988)" fill="#f9ce24"/>
        <path id="Trazado_162134" data-name="Trazado 162134" d="M805.716,4500.03v6.077h10.9l-14.161,14.159-15.193-12.154-17.117,17.117,4.3,4.3,13.27-13.27L802.9,4528.41l18.006-18.006v10.9h6.077v-21.27Z" transform="translate(-730.643 -4417.988)" fill="#f9ce24"/>
      </g>
      <g id="Grupo_71235" data-name="Grupo 71235" transform="translate(447.131 4414.394)">
        <path id="Trazado_162135" data-name="Trazado 162135" d="M509.043,4475.16v-21.27h21.271v6.077h-10.9l14.16,14.159,15.193-12.154,17.118,17.117-4.3,4.3-13.27-13.27-15.193,12.154-18.007-18.006v10.9Z" transform="translate(-490.816 -4414.394)" fill="#f9ce24"/>
        <path id="Trazado_162136" data-name="Trazado 162136" d="M569.59,4430.62l-15.19,12.15-18.006-18.006v10.9h-6.077v-21.27h21.27v6.077h-10.9l14.161,14.159,15.193-12.154,17.117,17.117-4.3,4.3Z" transform="translate(-490.816 -4414.394)" fill="#f9ce24"/>
        <path id="Trazado_162137" data-name="Trazado 162137" d="M512.082,4496.43v6.077h-10.9l14.161,14.159,15.193-12.154,17.117,17.117-4.3,4.3-13.27-13.27L514.9,4524.81,496.894,4506.8v10.9h-6.078v-21.27Z" transform="translate(-490.816 -4414.394)" fill="#f9ce24"/>
      </g>
      <g id="Grupo_71237" data-name="Grupo 71237" transform="translate(531.466 4522.727)">
        <path id="Trazado_162141" data-name="Trazado 162141" d="M637.818,4577.79l19.121,9.318,9.318-19.121-5.463-2.662-4.774,9.8-6.524-18.933,17.582-8.333-7.889-22.886-5.745,1.98,6.116,17.743-17.582,8.333,8.3,24.074-9.795-4.773Z" transform="translate(-591.592 -4522.727)" fill="#f9ce24"/>
        <path id="Trazado_162142" data-name="Trazado 162142" d="M704.388,4542.88l-17.582,8.332,8.3,24.075-9.795-4.773-2.663,5.463,19.121,9.318,9.318-19.121-5.463-2.662-4.774,9.8-6.524-18.932,17.582-8.333-7.889-22.886-5.745,1.98Z" transform="translate(-591.592 -4522.727)" fill="#f9ce24"/>
        <path id="Trazado_162143" data-name="Trazado 162143" d="M620.029,4565.74l-5.463-2.662-4.774,9.8-6.525-18.932,17.582-8.333-7.888-22.886-5.745,1.98,6.115,17.742-17.582,8.333,8.3,24.075-9.795-4.774-2.662,5.463,19.121,9.319Z" transform="translate(-591.592 -4522.727)" fill="#f9ce24"/>
      </g>
      <g id="Grupo_71238" data-name="Grupo 71238" transform="translate(510.199 4445.047)">
        <path id="Rectángulo_20253" data-name="Rectángulo 20253" d="M13.659,0H160.688a13.659,13.659,0,0,1,13.659,13.659V63.024a13.659,13.659,0,0,1-13.659,13.659H13.659A13.659,13.659,0,0,1,0,63.024V13.659A13.659,13.659,0,0,1,13.659,0Z" fill="#6e3dc6"/>
        <path id="Rectángulo_20254" data-name="Rectángulo 20254" d="M11.478,0h143.88a11.478,11.478,0,0,1,11.478,11.478V58.111a11.478,11.478,0,0,1-11.478,11.478H11.478A11.478,11.478,0,0,1,0,58.111V11.478A11.478,11.478,0,0,1,11.478,0Z" transform="translate(3.756 3.547)" fill="#fff"/>
        <rect id="Rectángulo_20255" data-name="Rectángulo 20255" width="159.805" height="63.273" rx="8.206" transform="translate(7.271 6.705)" fill="#6e3dc6"/>
      </g>
      <text id="Codificación" transform="translate(376.157 4250.125)" fill="#fff" font-size="16" font-family="Roboto-Bold, Roboto" font-weight="700"><tspan x="0" y="0">Codificación</tspan></text>
      <text id="Emisión_de_mensajes" data-name="Emisión de 
mensajes" transform="translate(411.847 4332.715)" fill="#fff" font-size="18" font-family="Roboto-Black, Roboto" font-weight="800"><tspan x="-46.92" y="0">Emisión de </tspan><tspan x="-39.054" y="20">mensajes</tspan></text>
      <text id="Recepción_de_mensajes" data-name="Recepción
de mensajes" transform="translate(781.266 4332.715)" fill="#fff" font-size="18" font-family="Roboto-Black, Roboto" font-weight="800"><tspan x="-42.693" y="0">Recepción</tspan><tspan x="-51.258" y="20">de mensajes</tspan></text>
      <text id="Medio" transform="translate(571.157 4342.125)" fill="#12263f" font-size="18" font-family="Roboto-Black, Roboto" font-weight="800"><tspan x="0" y="0">Medio</tspan></text>
      <text id="Ruido" transform="translate(573.157 4489.125)" fill="#fff" font-size="18" font-family="Roboto-Black, Roboto" font-weight="800"><tspan x="0" y="0">Ruido</tspan></text>
      <text id="Emisor" transform="translate(243.157 4513.125)" fill="#12263f" font-size="18" font-family="Roboto-Black, Roboto" font-weight="800"><tspan x="0" y="0">Emisor</tspan></text>
      <text id="Receptor" transform="translate(892.157 4513.125)" fill="#12263f" font-size="18" font-family="Roboto-Black, Roboto" font-weight="800"><tspan x="0" y="0">Receptor</tspan></text>
      <text id="Descodificación" transform="translate(763.157 4248.125)" fill="#fff" font-size="16" font-family="Roboto-Bold, Roboto" font-weight="700"><tspan x="0" y="0">Descodificación</tspan></text>
      <g id="Grupo_71218" data-name="Grupo 71218" transform="translate(538.494 4221.396)">
        <g id="Grupo_71211" data-name="Grupo 71211" transform="translate(1 2.125)">
          <g id="Grupo_71210" data-name="Grupo 71210">
            <path id="Trazado_162022" data-name="Trazado 162022" d="M604.746,4222.223l-2.317-6.743a16.853,16.853,0,1,0-31.99-7.624,12.278,12.278,0,0,0-3.727,15.087l-1.6,4.645a2.19,2.19,0,0,0,2.785,2.786l4.645-1.6a12.341,12.341,0,0,0,5.25,1.185h.019a12.262,12.262,0,0,0,9.914-5.042,16.914,16.914,0,0,0,6.964-1.7l6.743,2.317a2.646,2.646,0,0,0,.854.144,2.609,2.609,0,0,0,2.455-3.455Zm-26.93,5.364H577.8a9.916,9.916,0,0,1-4.61-1.145,1.187,1.187,0,0,0-.941-.073l-4.763,1.636,1.637-4.762a1.188,1.188,0,0,0-.073-.941,9.9,9.9,0,0,1,1.616-11.479,16.915,16.915,0,0,0,14.1,13.915A9.871,9.871,0,0,1,577.815,4227.587Zm24.63-4.355a.214.214,0,0,1-.24.055l-7.219-2.481a1.189,1.189,0,0,0-.941.074,14.509,14.509,0,0,1-6.736,1.672h-.022a14.473,14.473,0,1,1,12.8-7.718,1.188,1.188,0,0,0-.074.941l2.48,7.219a.215.215,0,0,1-.053.234Z" transform="translate(-564.997 -4191.225)" fill="#fff"/>
          </g>
        </g>
        <g id="Grupo_71213" data-name="Grupo 71213" transform="translate(14.791 11.124)">
          <g id="Grupo_71212" data-name="Grupo 71212">
            <path id="Trazado_162023" data-name="Trazado 162023" d="M604.6,4208.85H589.685a1.251,1.251,0,1,0,0,2.5H604.6a1.251,1.251,0,0,0,0-2.5Z" transform="translate(-588.433 -4208.85)" fill="#fff"/>
          </g>
        </g>
        <g id="Grupo_71215" data-name="Grupo 71215" transform="translate(14.79 16.273)">
          <g id="Grupo_71214" data-name="Grupo 71214">
            <path id="Trazado_162024" data-name="Trazado 162024" d="M604.6,4217.01H589.684a1.251,1.251,0,1,0,0,2.5H604.6a1.252,1.252,0,0,0,0-2.5Z" transform="translate(-588.433 -4217.009)" fill="#fff"/>
          </g>
        </g>
        <g id="Grupo_71217" data-name="Grupo 71217" transform="translate(14.79 21.423)">
          <g id="Grupo_71216" data-name="Grupo 71216">
            <path id="Trazado_162025" data-name="Trazado 162025" d="M598.856,4225.17h-9.173a1.251,1.251,0,1,0,0,2.5h9.173a1.252,1.252,0,0,0,0-2.5Z" transform="translate(-588.432 -4225.169)" fill="#fff"/>
          </g>
        </g>
      </g>
      <text id="Mensaje" transform="translate(596.775 4248.421)" fill="#fff" font-size="16" font-family="Roboto-Bold, Roboto" font-weight="700"><tspan x="0" y="0">Mensaje</tspan></text>
      <rect id="Rectángulo_20242" data-name="Rectángulo 20242" width="404" height="52.251" rx="11.478" transform="translate(398.622 4600.064)" fill="#75baf1"/>
      <text id="Retroalimentación" transform="translate(525.475 4633.064)" fill="#12263f" font-size="18" font-family="Roboto-Black, Roboto" font-weight="800"><tspan x="0" y="0">Retroalimentación</tspan></text>
    </g>
    <g id="Grupo_1101227" data-name="Grupo 1101227" transform="translate(72 5646.446)">
      <g id="Grupo_1101226" data-name="Grupo 1101226" transform="translate(774 18766)">
        <g id="Grupo_1101225" data-name="Grupo 1101225" clip-path="url(#clip-path)">
          <g id="Grupo_1101224" data-name="Grupo 1101224">
            <g id="Grupo_1101223" data-name="Grupo 1101223" clip-path="url(#clip-path)">
              <path id="Trazado_875578" data-name="Trazado 875578" d="M53.771,67.53c1.3.534,2.607,1.036,3.945,1.481a63.082,63.082,0,0,0,10.794,2.525,40.759,40.759,0,0,0,17.555-.911,43.835,43.835,0,0,0,12.823-6.48q-.23-.392-.467-.78c-.723-1.189-1.49-2.358-2.207-3.555a18.678,18.678,0,0,0,3.04,3.215q.29.225.6.425c.133-.1.267-.195.4-.293.364-.273.724-.55,1.082-.83q-.962-3.065-1.62-6.214c.173.289.342.58.5.875a25.818,25.818,0,0,1,1.211,2.527q.265.643.5,1.3a5.085,5.085,0,0,0,.305.8c1.861-1.512,3.642-3.126,5.363-4.8a15.785,15.785,0,0,0-3.118-10.373,28.852,28.852,0,0,0-4.862-5.156c-1.748-1.488-3.624-2.814-5.436-4.221A34.507,34.507,0,0,1,90.449,33.8c.108.1.214.195.323.291,1.982,1.742,4.114,3.3,6.233,4.869a70.162,70.162,0,0,1,6.3,5.073,25.3,25.3,0,0,1,4.873,6.03,17.362,17.362,0,0,1,1.754,4.386l.2-.206A17.1,17.1,0,0,0,108.9,50.9a23.548,23.548,0,0,0-4.529-6.182A55.444,55.444,0,0,0,98.149,39.5c-2.134-1.595-4.306-3.143-6.349-4.856-1-.836-1.967-1.712-2.879-2.644a12.641,12.641,0,0,1-2.415-5.728c-.237-1.353-.345-2.724-.5-4.087-.138-1.219-.3-2.437-.514-3.646A26.291,26.291,0,0,0,83.3,11.429c-1.882-3.8-5.4-7.137-9.754-7.684-.1-.013-.209-.024-.313-.033.042-.022.087-.041.129-.065a4.109,4.109,0,0,0,1.422-1.294.738.738,0,0,0,.052-.828.8.8,0,0,0-.658-.312,1.443,1.443,0,0,0-1.042.64,2.176,2.176,0,0,0,.023-1.4.676.676,0,0,0-.515-.448.669.669,0,0,0-.618.3,1.737,1.737,0,0,0-.3.8,5.262,5.262,0,0,0-.057,1.049,5.328,5.328,0,0,0,.178,1.128C70.461,1.691,68.241,1.047,66.221.677A20.759,20.759,0,0,0,58.855.653,17.174,17.174,0,0,0,47.1,8.417a15.809,15.809,0,0,0-2.253,6.509,13.823,13.823,0,0,0,.06,3.5A23.94,23.94,0,0,0,45.963,22.4a24.5,24.5,0,0,1,1.085,4.054,13.414,13.414,0,0,1-.219,4.562c-.291,1.461-.713,2.891-1.062,4.338a43.8,43.8,0,0,0-.819,4.355A35.336,35.336,0,0,0,46.459,56.36a28.007,28.007,0,0,0,7.313,11.17" transform="translate(-23.378 0)" fill="#39354d"/>
              <path id="Trazado_875579" data-name="Trazado 875579" d="M144.47,112.186c-.623-.723-1.338-1.386-2.013-2.081-.73.514-1.681,1.066-1.908,1.223a73.615,73.615,0,0,1-9.242,4.991c-.974.484-1.943.976-2.9,1.5-.561.307-1.115.626-1.665.951q-1.168-1.557-2.4-3.06-2.189-2.652-4.586-5.122-.816-.84-1.657-1.656c-1.763-1.938-3.485-3.86-5.221-5.562-2.464-2.415-5.244-4.453-8.857-4.384a5.7,5.7,0,0,0-2.354.483,3.134,3.134,0,0,0-1.635,1.7c-.759,2.119.96,5.613,1.774,7.554a42.4,42.4,0,0,0,16.515,18.866,22.83,22.83,0,0,0,7.79,3.171,1.287,1.287,0,0,0,.438.042,1.245,1.245,0,0,0,.357-.125,30.679,30.679,0,0,0,5.185-3.376q2.328-1.766,4.5-3.726a53.017,53.017,0,0,0,4.849-4.737c1.484-1.73,2.568-3.746,4.11-5.432-.376-.393-.728-.81-1.083-1.223" transform="translate(-52.361 -51.909)" fill="#ffbaa6"/>
              <path id="Trazado_875580" data-name="Trazado 875580" d="M120.4,126.857a40.363,40.363,0,0,1,2.971-5.477c.824-1.3,1.668-2.588,2.565-3.838-.555-.72-1.095-1.4-1.632-2.048-1.45-1.758-3-3.484-4.592-5.129-.493-.508-1.02-1.035-1.655-1.653l-.594-.654c-1.588-1.749-3.088-3.4-4.631-4.913-2.272-2.226-5.111-4.492-8.945-4.419a5.775,5.775,0,0,0-2.405.495,3.256,3.256,0,0,0-1.7,1.773c-.692,1.933.615,4.954,1.481,6.953.106.246.206.477.3.691a42.462,42.462,0,0,0,16.564,18.923c.528.329,1.042.628,1.549.9.248-.581.519-1.132.726-1.607" transform="translate(-52.226 -51.773)" fill="#75baf1"/>
              <path id="Trazado_875581" data-name="Trazado 875581" d="M7.778,111.614a23.693,23.693,0,0,1,3.64-1.383c.165,1.048,2.106,4.19,2.4,4.722a47.8,47.8,0,0,0,3.77,5.4,161.349,161.349,0,0,1,8.634-14.313c1.917-2.868,4.22-5.432,7.771-6.105a5.7,5.7,0,0,1,2.4-.01,3.133,3.133,0,0,1,1.948,1.332c1.177,1.919.21,5.691-.19,7.757a42.4,42.4,0,0,1-12.3,21.849,22.568,22.568,0,0,1-4.248,3.251c-1.723,1-4.806,3.328-6.439,1.165-.033-.043-.064-.089-.1-.134a25.953,25.953,0,0,1-2.863-4.994q-1.287-2.624-2.348-5.35a61.559,61.559,0,0,1-2-6.982c-.47-1.832-1.067-3.625-1.614-5.434.507-.263,1.014-.526,1.53-.772" transform="translate(-3.277 -52.337)" fill="#ffbaa6"/>
              <path id="Trazado_875582" data-name="Trazado 875582" d="M51.7,100.855A3.378,3.378,0,0,0,49.6,99.414l-.008,0a5.9,5.9,0,0,0-2.508.007c-3.813.722-6.148,3.545-7.93,6.211-3.1,4.635-5.679,8.86-7.858,12.863a19.859,19.859,0,0,1,4.4,5.624,32.827,32.827,0,0,1,2.617,7.43c.285-.251.569-.508.851-.778a42.585,42.585,0,0,0,12.373-21.98c.044-.226.094-.474.148-.736.441-2.153,1.108-5.406.01-7.2" transform="translate(-16.414 -52.065)" fill="#75baf1"/>
              <path id="Trazado_875583" data-name="Trazado 875583" d="M4.807,106.817c.356-.2.712.032.978.311l0-.005c0-.02-.01-.039-.014-.059a.23.23,0,0,0,.018.049,1.216,1.216,0,0,1,.366-.512,1.026,1.026,0,0,1,.8-.175,1.589,1.589,0,0,1,.766.4A3.443,3.443,0,0,1,8,107.1H8c.483-.647,1.18-.042,1.467.459a1.694,1.694,0,0,1-.035,1.36,5.342,5.342,0,0,1,.967,1.125c.381.592.082,1.125-.142,1.723l-.876,2.342a1.359,1.359,0,0,1-.334.633,2.638,2.638,0,0,1-.728.307l-1.653.609-1.914.705a.123.123,0,0,1-.123-.02,6.051,6.051,0,0,1-1.556-2.929,4.167,4.167,0,0,1-.1-.635,5.276,5.276,0,0,1-.593-1.689,4.835,4.835,0,0,1,.052-1.841,4.464,4.464,0,0,1,.289-.865,1.277,1.277,0,0,1,.447-.607.614.614,0,0,1,.717.093l.009.009a2.266,2.266,0,0,1,.91-1.06" transform="translate(-1.216 -55.803)" fill="#ffbaa6"/>
              <g id="Grupo_1101199" data-name="Grupo 1101199" transform="translate(1.778 51.288)" opacity="0.4" style="mix-blend-mode: overlay;isolation: isolate">
                <g id="Grupo_1101198" data-name="Grupo 1101198">
                  <g id="Grupo_1101197" data-name="Grupo 1101197" clip-path="url(#clip-path-3)">
                    <path id="Trazado_875584" data-name="Trazado 875584" d="M6.675,107.94a2.236,2.236,0,0,1,.266,1.046,6.957,6.957,0,0,1,1.437-.11l.153.007a8.463,8.463,0,0,0,.044-.918.124.124,0,0,1,.247,0,8.332,8.332,0,0,1-.046.943,1.746,1.746,0,0,1,1.338.656c.089.132-.111.277-.2.145a1.626,1.626,0,0,0-1.289-.57,6.581,6.581,0,0,0-1.72.107,6.726,6.726,0,0,0-.866.228c-.2.068-.553.146-.633.373-.088.246.215.463.4.565a3.578,3.578,0,0,0,.78.327c.1.029.207.053.312.074a.12.12,0,0,1,.115.021,3.759,3.759,0,0,0,1.514-.054c.153-.038.243.193.089.231-.1.025-.2.044-.3.062a.1.1,0,0,1-.056.037,1.492,1.492,0,0,0-.953,1.791,2.952,2.952,0,0,0,1.555,1.84c.137.078.036.3-.1.225a3.181,3.181,0,0,1-1.707-2.088,1.821,1.821,0,0,1,.625-1.746,4.027,4.027,0,0,1-.628-.042,1.71,1.71,0,0,1-.595,1.561A1.09,1.09,0,0,1,5.1,112.49a1.518,1.518,0,0,1-.3.5,1.2,1.2,0,0,1-.966.419c-.159-.01-.118-.254.039-.244a1,1,0,0,0,.848-.473,1.408,1.408,0,0,0,.2-.475.115.115,0,0,1,.006-.025,2.809,2.809,0,0,0,.057-.694,11.153,11.153,0,0,0-.4-2.54c-.04-.153.19-.243.231-.089a13.036,13.036,0,0,1,.3,1.453,7.709,7.709,0,0,1,.108,1.468,2.646,2.646,0,0,1-.053.414.836.836,0,0,0,1.17.21A1.571,1.571,0,0,0,6.8,111.04c-.06-.012-.12-.025-.179-.04a3.872,3.872,0,0,1-.921-.368,1.051,1.051,0,0,1-.533-.564c-.187-.64.779-.843,1.2-.956.109-.029.219-.052.329-.076a2.087,2.087,0,0,0-.252-1.007.124.124,0,0,1,.071-.16.126.126,0,0,1,.16.071" transform="translate(-3.738 -107.842)" fill="#320032"/>
                  </g>
                </g>
              </g>
              <path id="Trazado_875585" data-name="Trazado 875585" d="M197.5,112.126c-.173-.368-.6-.393-.974-.324V111.8l.046-.039a.257.257,0,0,1-.043.029,1.219,1.219,0,0,0,.005-.63,1.028,1.028,0,0,0-.545-.613,1.591,1.591,0,0,0-.852-.13,3.409,3.409,0,0,0-.386.062l0,0c-.01-.808-.929-.728-1.456-.492-.478.214-.592.67-.772,1.12a5.341,5.341,0,0,0-1.444.341c-.656.255-.729.861-.9,1.477q-.335,1.2-.67,2.409a1.364,1.364,0,0,0-.1.709,2.62,2.62,0,0,0,.408.676l.978,1.465,1.132,1.7a.122.122,0,0,0,.112.056,6.046,6.046,0,0,0,2.981-1.452,4.068,4.068,0,0,0,.454-.456,5.255,5.255,0,0,0,1.473-1.017,4.821,4.821,0,0,0,1.041-1.519,4.476,4.476,0,0,0,.276-.869,1.282,1.282,0,0,0,0-.754.614.614,0,0,0-.635-.347l-.012,0a2.268,2.268,0,0,0-.112-1.392" transform="translate(-99.317 -57.592)" fill="#ffbaa6"/>
              <g id="Grupo_1101202" data-name="Grupo 1101202" transform="translate(91.145 52.876)" opacity="0.4" style="mix-blend-mode: overlay;isolation: isolate">
                <g id="Grupo_1101201" data-name="Grupo 1101201">
                  <g id="Grupo_1101200" data-name="Grupo 1101200" clip-path="url(#clip-path-4)">
                    <path id="Trazado_875586" data-name="Trazado 875586" d="M197.557,112.478a2.239,2.239,0,0,0-.831.689,6.93,6.93,0,0,0-1.1-.935c-.041-.029-.085-.056-.127-.084a8.385,8.385,0,0,1,.5-.769.124.124,0,0,0-.2-.149,8.409,8.409,0,0,0-.517.789,1.747,1.747,0,0,0-1.468-.256c-.15.054-.073.289.077.235a1.625,1.625,0,0,1,1.378.3,6.553,6.553,0,0,1,1.328,1.1,6.709,6.709,0,0,1,.566.694c.122.173.361.444.293.674-.074.25-.447.248-.652.224a3.6,3.6,0,0,1-.823-.195c-.1-.037-.2-.079-.3-.124a.121.121,0,0,0-.106-.051,3.755,3.755,0,0,1-1.192-.934c-.1-.121-.311.013-.208.134.066.078.136.153.207.226a.1.1,0,0,0,.023.063,1.492,1.492,0,0,1-.283,2.008,2.95,2.95,0,0,1-2.34.573c-.157-.017-.208.225-.049.243a3.182,3.182,0,0,0,2.61-.684,1.822,1.822,0,0,0,.522-1.78,4.011,4.011,0,0,0,.533.335,1.71,1.71,0,0,0-.437,1.612,1.091,1.091,0,0,0,1.181.669,1.521,1.521,0,0,0-.054.575,1.2,1.2,0,0,0,.535.907c.134.086.245-.136.112-.221a1,1,0,0,1-.408-.881,1.416,1.416,0,0,1,.115-.5.114.114,0,0,0,.01-.024,2.8,2.8,0,0,1,.362-.595,11.178,11.178,0,0,1,1.815-1.821c.123-.1-.011-.308-.134-.208a12.914,12.914,0,0,0-1.1,1,7.736,7.736,0,0,0-.951,1.123,2.63,2.63,0,0,0-.2.366.836.836,0,0,1-1.069-.519,1.571,1.571,0,0,1,.448-1.37c.056.025.111.051.169.073a3.87,3.87,0,0,0,.961.245,1.049,1.049,0,0,0,.762-.143c.528-.407-.134-1.139-.41-1.481-.071-.088-.147-.17-.222-.254a2.089,2.089,0,0,1,.8-.666.125.125,0,0,0,.037-.171.127.127,0,0,0-.171-.037" transform="translate(-191.649 -111.182)" fill="#320032"/>
                  </g>
                </g>
              </g>
              <path id="Trazado_875587" data-name="Trazado 875587" d="M5.712,114.732c-.117,0-.234,0-.351-.013-.092.053-.186.1-.28.153a1.565,1.565,0,0,1-.592,1.378A1.09,1.09,0,0,1,3.14,116.1a1.518,1.518,0,0,1-.3.5,1.329,1.329,0,0,1-.443.324.871.871,0,0,1-.358.1.887.887,0,0,1-.468-.021.877.877,0,0,1-.4-.21.89.89,0,0,1-.3-.33.505.505,0,0,1-.063-.147.593.593,0,0,1-.064-.172l0-.022v-.005a1.443,1.443,0,0,0-.376.231c-.846.745-.047,1.414.684,1.568a6.256,6.256,0,0,0,3.053-.411,12.166,12.166,0,0,0,1.167-.46,2.312,2.312,0,0,1-.181-.556,1.821,1.821,0,0,1,.625-1.746" transform="translate(0 -60.161)" fill="#8a8299"/>
              <path id="Trazado_875588" data-name="Trazado 875588" d="M86.623,203.658c-.031.107-.065.212-.1.318-.179-.105-.355-.2-.523-.3a16.557,16.557,0,0,0-5.687-1.781,20.015,20.015,0,0,0-5.621.059c-2.283.329-4.48,1.15-6.8,1.184s-4.388-.956-6.612-1.466a12.463,12.463,0,0,0-5.75.006,14.508,14.508,0,0,0-5.119,2.39q-.352.158-.7.32c.011.036.021.072.033.108a.109.109,0,0,1,0,.078l-.087.069a.122.122,0,0,1-.148-.082q-.145-.452-.277-.908a32.886,32.886,0,0,1-1.248-7.665,34.025,34.025,0,0,1,.55-7.752,33.31,33.31,0,0,1,2.291-7.387,48.38,48.38,0,0,1,3.98-6.884,38.259,38.259,0,0,0,3.566-6.293c.538.1,1.086.179,1.637.263a52.183,52.183,0,0,0,8.822.632c2.583-.057,6.151-.043,8.432-1.47a35.437,35.437,0,0,0,3.793,6.868,48.381,48.381,0,0,1,3.98,6.884,33.311,33.311,0,0,1,2.291,7.387,34.025,34.025,0,0,1,.55,7.752,32.886,32.886,0,0,1-1.248,7.665" transform="translate(-25.144 -87.631)" fill="#ffbaa6"/>
              <path id="Trazado_875589" data-name="Trazado 875589" d="M49.329,102.592C51.8,94,64.669,91.519,72.225,92.924c5.37,1,13.411,3.725,15.119,9.669a7.543,7.543,0,0,1,.283,2.1A86.792,86.792,0,0,0,79.8,121.212a51.763,51.763,0,0,0-2.283,10.038q-.083.7-.13,1.409a7.807,7.807,0,0,1-.716.5,17.168,17.168,0,0,1-16.67,0,7.678,7.678,0,0,1-.716-.5q-.049-.7-.131-1.409a51.728,51.728,0,0,0-2.282-10.038,86.821,86.821,0,0,0-7.827-16.518,7.526,7.526,0,0,1,.283-2.1" transform="translate(-25.721 -48.538)" fill="#ffbaa6"/>
              <path id="Trazado_875590" data-name="Trazado 875590" d="M65.593,228.167c-.06-4.026-1.1-7.633-5.955-8.378a16.75,16.75,0,0,0-5.492.224,4.173,4.173,0,0,0-3.7,3.147c-.966,3.393-.728,7.055-.568,10.54a390.3,390.3,0,0,0,6.489,56.324q1.169,6.03,2.538,12.018c.209.92.452,1.837.636,2.762.27,1.355.185,1.3-1.012,2.01-1.389.827-2.838,1.57-4.228,2.388a7.305,7.305,0,0,1-1.626.354,7.718,7.718,0,0,0-2.408.433c-.392.169-1.995.935-2.049,1.411-.17,1.5,8.19.76,9,.7q2.983-.2,5.956-.535c2.192-.247,2.881-.638,2.9-3.006.047-5.793.325-11.569.325-17.368-.018-21.01-.487-42.021-.8-63.029" transform="translate(-25.283 -115.188)" fill="#ffbaa6"/>
              <path id="Trazado_875591" data-name="Trazado 875591" d="M63.043,407.924a21.2,21.2,0,0,1-5.613.227,21.849,21.849,0,0,1-3.649-.661l-.033-.009-.033.01a6.979,6.979,0,0,1-1.212.23l-.368.032a6.493,6.493,0,0,0-2.078.409c-.084.036-2.052.894-2.123,1.51a.51.51,0,0,0,.153.424c.418.433,1.759.651,4,.651q1.923,0,4.725-.213l.249-.018c1.974-.133,3.98-.313,5.961-.536,2.162-.243,2.9-.669,3-2.706l.01-.2-.186.087a11.34,11.34,0,0,1-2.806.768" transform="translate(-25.136 -213.474)" fill="#39354d"/>
              <path id="Trazado_875592" data-name="Trazado 875592" d="M135.585,263.778q-1.067-2.792-2.261-5.535c-.88-2.023-1.456-2.567-3.725-1.889-5.551,1.657-11.154,3.087-16.7,4.791q-1.875.578-3.747,1.164c.119-.652.234-1.3.337-1.959.349-2.218.626-4.444.944-6.665q.921-9.982,1.373-19.984c.16-3.485.4-7.147-.568-10.54a4.173,4.173,0,0,0-3.705-3.147,16.747,16.747,0,0,0-5.491-.224c-4.859.745-5.895,4.353-5.955,8.378-.2,13.556-.278,27.153,1.578,40.613a13.593,13.593,0,0,0,.47,2.339c2.847,8.784,11.692,2.568,16.591-.043q5.42-2.888,10.742-5.956c.818-.47,1.623-.972,2.454-1.42,1.216-.656,1.187-.558,2.218.377,1.2,1.085,2.334,2.251,3.525,3.34a7.313,7.313,0,0,1,.817,1.451,7.707,7.707,0,0,0,1.12,2.174c.277.325,1.48,1.632,1.951,1.545,1.484-.278-1.68-8.052-1.969-8.809" transform="translate(-50.337 -115.188)" fill="#ffbaa6"/>
              <path id="Trazado_875593" data-name="Trazado 875593" d="M168.726,298.829a21.18,21.18,0,0,1,1.865,5.3,21.818,21.818,0,0,1,.44,3.681v.034l.019.029a6.927,6.927,0,0,1,.575,1.091q.071.171.139.342a6.5,6.5,0,0,0,1,1.866c.059.07,1.457,1.7,2.067,1.586a.507.507,0,0,0,.36-.271c.292-.527.106-1.872-.554-4.017q-.565-1.838-1.592-4.454l-.091-.233c-.706-1.848-1.468-3.712-2.263-5.541-.868-1.995-1.49-2.574-3.467-2.072l-.2.05.137.152a11.342,11.342,0,0,1,1.558,2.457" transform="translate(-87.594 -155.227)" fill="#39354d"/>
              <path id="Trazado_875594" data-name="Trazado 875594" d="M104.793,180.755a12.166,12.166,0,0,0-.988-3.116q-.556-1.446-1.165-2.871a92,92,0,0,0-5.767-11.251,107,107,0,0,0-7.126-10.381,125.752,125.752,0,0,0-8.269-9.609c-2.928-3.084-6-6.03-9.18-8.852-.515-.457-1.036-.9-1.557-1.354-.305-1.8,1.132-4.888,1.643-6.447a87.545,87.545,0,0,1,7.806-16.47.246.246,0,0,0,.033-.123,7.824,7.824,0,0,0-.293-2.171,10.019,10.019,0,0,0-3.379-4.9c-4.815,2.194-9.629,4.392-14.506,6.432a7.334,7.334,0,0,1-4.324.585,21.606,21.606,0,0,1-5.191-2.086c-2.852-1.409-5.566-3.072-8.291-4.711a10.887,10.887,0,0,0-2.8,4.683,7.815,7.815,0,0,0-.293,2.171.246.246,0,0,0,.034.124,87.524,87.524,0,0,1,7.805,16.47c.538,1.644,2.124,5.143,1.579,6.84-.044.135-.091.27-.141.4a35.734,35.734,0,0,0-5.294,6.514,55.015,55.015,0,0,0-5.7,12.33,96.5,96.5,0,0,0-3.656,15.231,104.367,104.367,0,0,0-.078,32.519c.213,1.372.272,2.328,1.91,2.4a116.1,116.1,0,0,0,13.095-.529,128.712,128.712,0,0,0,14.335-1.85,127.714,127.714,0,0,0,14.133-3.481,82.226,82.226,0,0,0,12.05-4.613,40.81,40.81,0,0,0,10.3-6.963,30.5,30.5,0,0,0,2.129-2.243,3.614,3.614,0,0,0,1.154-2.678" transform="translate(-18.069 -54.124)" fill="#75baf1"/>
              <path id="Trazado_875595" data-name="Trazado 875595" d="M67.4,164.734c-.192.185-.38.374-.568.564,1.457.429,2.929,1.228,4.163,1.7a21.151,21.151,0,0,0,7.222,1.541,19.876,19.876,0,0,0,7.994-1.75c1.046-.443,2.067-.953,3.069-1.491l-.006-.005c-.515-.456-1.036-.9-1.557-1.354a5.975,5.975,0,0,1,.234-2.351,39.782,39.782,0,0,1-7.46,1.671,28.719,28.719,0,0,1-12.989-1.032,4.411,4.411,0,0,1,.037,2.1c-.043.136-.091.27-.141.4" transform="translate(-35.051 -84.739)" fill="#39354d"/>
              <path id="Trazado_875596" data-name="Trazado 875596" d="M104.793,214.985a12.166,12.166,0,0,0-.988-3.116q-.556-1.446-1.165-2.871a92,92,0,0,0-5.767-11.251,107,107,0,0,0-7.126-10.381,125.755,125.755,0,0,0-8.269-9.609c-2.928-3.084-6-6.03-9.18-8.852-.162-.144-.327-.284-.49-.427-.134.076-.267.152-.4.226a23.063,23.063,0,0,1-8.2,2.643,20.888,20.888,0,0,1-8.57-.828,18.523,18.523,0,0,1-4.091-1.8l-.308-.187a35.873,35.873,0,0,0-5.111,6.331,55.014,55.014,0,0,0-5.7,12.33,96.5,96.5,0,0,0-3.656,15.231,104.367,104.367,0,0,0-.078,32.519c.213,1.372.271,2.328,1.91,2.4a116.1,116.1,0,0,0,13.095-.529,128.32,128.32,0,0,0,28.468-5.331,82.226,82.226,0,0,0,12.05-4.613,40.811,40.811,0,0,0,10.3-6.963,30.493,30.493,0,0,0,2.129-2.243,3.614,3.614,0,0,0,1.154-2.678" transform="translate(-18.069 -88.353)" fill="#afafaf"/>
              <path id="Trazado_875597" data-name="Trazado 875597" d="M85.854,123.335a.774.774,0,1,1-.774.774.774.774,0,0,1,.774-.774" transform="translate(-44.617 -64.679)" fill="#fff"/>
              <path id="Trazado_875598" data-name="Trazado 875598" d="M85.854,131.139a.774.774,0,1,1-.774.774.774.774,0,0,1,.774-.774" transform="translate(-44.617 -68.772)" fill="#fff"/>
              <path id="Trazado_875599" data-name="Trazado 875599" d="M85.854,138.943a.774.774,0,1,1-.774.774.774.774,0,0,1,.774-.774" transform="translate(-44.617 -72.864)" fill="#fff"/>
              <path id="Trazado_875600" data-name="Trazado 875600" d="M45.57,41.708q-.061-.257-.139-.51a6.137,6.137,0,0,0-2.34-3.315c-3.837-2.573-7.862,1.755-6.651,5.685a5.429,5.429,0,0,0,5.207,3.718,4.286,4.286,0,0,0,3.579-1.974,4.966,4.966,0,0,0,.345-3.6" transform="translate(-18.995 -19.46)" fill="#ffbaa6"/>
              <g id="Grupo_1101205" data-name="Grupo 1101205" transform="translate(17.228 22.437)" opacity="0.4" style="mix-blend-mode: overlay;isolation: isolate">
                <g id="Grupo_1101204" data-name="Grupo 1101204">
                  <g id="Grupo_1101203" data-name="Grupo 1101203" clip-path="url(#clip-path-5)">
                    <path id="Trazado_875601" data-name="Trazado 875601" d="M42.976,48.592a7.722,7.722,0,0,1-6.75-1.138,4.942,4.942,0,0,0,.216,1.393,5.43,5.43,0,0,0,5.207,3.719,4.289,4.289,0,0,0,3.579-1.975,4.867,4.867,0,0,0,.386-3.415,9.7,9.7,0,0,1-2.638,1.415" transform="translate(-36.226 -47.177)" fill="#320032"/>
                  </g>
                </g>
              </g>
              <path id="Trazado_875602" data-name="Trazado 875602" d="M113.917,41.708q.061-.257.139-.51a6.134,6.134,0,0,1,2.34-3.315c3.837-2.573,7.862,1.755,6.651,5.685a5.429,5.429,0,0,1-5.207,3.718,4.286,4.286,0,0,1-3.579-1.974,4.966,4.966,0,0,1-.345-3.6" transform="translate(-59.646 -19.46)" fill="#ffbaa6"/>
              <g id="Grupo_1101208" data-name="Grupo 1101208" transform="translate(54.092 22.437)" opacity="0.4" style="mix-blend-mode: overlay;isolation: isolate">
                <g id="Grupo_1101207" data-name="Grupo 1101207">
                  <g id="Grupo_1101206" data-name="Grupo 1101206" clip-path="url(#clip-path-5)">
                    <path id="Trazado_875603" data-name="Trazado 875603" d="M116.514,48.592a7.722,7.722,0,0,0,6.75-1.138,4.942,4.942,0,0,1-.216,1.393,5.43,5.43,0,0,1-5.207,3.719,4.289,4.289,0,0,1-3.579-1.975,4.869,4.869,0,0,1-.386-3.415,9.7,9.7,0,0,0,2.638,1.415" transform="translate(-113.739 -47.177)" fill="#320032"/>
                  </g>
                </g>
              </g>
              <path id="Trazado_875604" data-name="Trazado 875604" d="M85.421,73.764a15.316,15.316,0,0,1-9.734.146A91.312,91.312,0,0,0,75.1,85.16c.018,2.188.262,4.562,1.523,6.129a4.922,4.922,0,0,0,5.285,1.431,5.664,5.664,0,0,0,3.756-3.164,10.139,10.139,0,0,0,.566-3.973q0-.84-.033-1.68c-.114-3.383-.461-6.766-.774-10.139" transform="translate(-39.381 -38.683)" fill="#ffbaa6"/>
              <g id="Grupo_1101211" data-name="Grupo 1101211" transform="translate(35.752 35.081)" opacity="0.4" style="mix-blend-mode: overlay;isolation: isolate">
                <g id="Grupo_1101210" data-name="Grupo 1101210">
                  <g id="Grupo_1101209" data-name="Grupo 1101209" clip-path="url(#clip-path-7)">
                    <path id="Trazado_875605" data-name="Trazado 875605" d="M85.463,73.764a15.315,15.315,0,0,1-9.732.146q-.449,3.889-.555,7.816c2.682,3.509,6.962,4.27,11.089,3.341-.006-.388-.014-.777-.027-1.165-.114-3.383-.461-6.766-.774-10.139" transform="translate(-75.176 -73.764)" fill="#320032"/>
                  </g>
                </g>
              </g>
              <path id="Trazado_875606" data-name="Trazado 875606" d="M49.9,25.113c-.007.273-.01.545-.01.818a19.392,19.392,0,0,0,2.394,10.278c2.917,4.743,8.788,7.3,14.509,7.476,4.161.129,8.492-.934,11.6-3.6,4.741-4.058,5.72-10.825,5.382-16.925-.415-7.481-4.64-15.05-13-16.31C63.194,5.708,55,8.98,51.806,15.918a23.253,23.253,0,0,0-1.907,9.2" transform="translate(-26.163 -3.476)" fill="#ffbaa6"/>
              <g id="Grupo_1101216" data-name="Grupo 1101216" transform="translate(23.726 3.152)" opacity="0.5" style="mix-blend-mode: overlay;isolation: isolate">
                <g id="Grupo_1101215" data-name="Grupo 1101215">
                  <g id="Grupo_1101214" data-name="Grupo 1101214" clip-path="url(#clip-path-8)">
                    <g id="Grupo_1101213" data-name="Grupo 1101213" transform="translate(0 0)">
                      <g id="Grupo_1101212" data-name="Grupo 1101212" clip-path="url(#clip-path-9)">
                        <rect id="Rectángulo_401873" data-name="Rectángulo 401873" width="34.234" height="38.105" transform="translate(-0.007 -0.92)" fill="url(#linear-gradient)"/>
                      </g>
                    </g>
                  </g>
                </g>
              </g>
              <g id="Grupo_1101219" data-name="Grupo 1101219" transform="translate(26.996 25.812)" opacity="0.4" style="mix-blend-mode: overlay;isolation: isolate">
                <g id="Grupo_1101218" data-name="Grupo 1101218">
                  <g id="Grupo_1101217" data-name="Grupo 1101217" clip-path="url(#clip-path-10)">
                    <path id="Trazado_875608" data-name="Trazado 875608" d="M61.464,54.275c-2.6,0-4.7,1.329-4.7,2.969s2.1,2.969,4.7,2.969,4.7-1.329,4.7-2.969-2.1-2.969-4.7-2.969" transform="translate(-56.763 -54.275)" fill="#320032"/>
                  </g>
                </g>
              </g>
              <g id="Grupo_1101222" data-name="Grupo 1101222" transform="translate(44.81 25.812)" opacity="0.4" style="mix-blend-mode: overlay;isolation: isolate">
                <g id="Grupo_1101221" data-name="Grupo 1101221">
                  <g id="Grupo_1101220" data-name="Grupo 1101220" clip-path="url(#clip-path-10)">
                    <path id="Trazado_875609" data-name="Trazado 875609" d="M98.923,54.275c-2.6,0-4.7,1.329-4.7,2.969s2.1,2.969,4.7,2.969,4.7-1.329,4.7-2.969-2.1-2.969-4.7-2.969" transform="translate(-94.222 -54.275)" fill="#320032"/>
                  </g>
                </g>
              </g>
              <path id="Trazado_875610" data-name="Trazado 875610" d="M85.155,50.989c-.092-.13-.291.016-.2.146a.473.473,0,0,1-.721.607l-.014-.011-.015-.012-.02-.011-.016-.006a.111.111,0,0,0-.108.015.094.094,0,0,0-.013.014,1.08,1.08,0,0,1-1.236-.177.967.967,0,0,1-.076-1.281,1,1,0,0,1,.655-.421.127.127,0,0,0,.181-.107q.039-.847.014-1.7c0-.159-.252-.16-.247,0,.016.523.011,1.046-.01,1.569a1.334,1.334,0,0,0-1.047,1.194,1.223,1.223,0,0,0,.978,1.252,1.261,1.261,0,0,0,.863-.1.752.752,0,0,0,.692.118.7.7,0,0,0,.467-.631.734.734,0,0,0-.128-.466" transform="translate(-43.148 -25.135)" fill="#4a4a4a"/>
              <path id="Trazado_875611" data-name="Trazado 875611" d="M67.514,46.2a5.991,5.991,0,0,1-.874-.695,1.464,1.464,0,0,0-.5,1.147,1.116,1.116,0,1,0,2.178,0c0-.006,0-.011,0-.017a5.181,5.181,0,0,1-.8-.436" transform="translate(-34.683 -23.862)" fill="#4a4a4a"/>
              <path id="Trazado_875612" data-name="Trazado 875612" d="M70.016,42.835a2.517,2.517,0,0,1-2.054-1.843.124.124,0,0,0-.239.066,2.77,2.77,0,0,0,2.292,2.025c.067.009.123-.063.124-.124a.126.126,0,0,0-.124-.124" transform="translate(-35.513 -21.451)" fill="#4a4a4a"/>
              <path id="Trazado_875613" data-name="Trazado 875613" d="M71.706,43.1a1.7,1.7,0,0,1-.848-.422.124.124,0,1,0-.175.175,1.937,1.937,0,0,0,.958.486.127.127,0,0,0,.152-.087.125.125,0,0,0-.087-.152" transform="translate(-37.049 -22.364)" fill="#4a4a4a"/>
              <path id="Trazado_875614" data-name="Trazado 875614" d="M99.981,46.2a6.015,6.015,0,0,0,.873-.695,1.464,1.464,0,0,1,.5,1.147,1.116,1.116,0,1,1-2.177,0c0-.006,0-.011,0-.017a5.208,5.208,0,0,0,.8-.436" transform="translate(-52.012 -23.862)" fill="#4a4a4a"/>
              <path id="Trazado_875615" data-name="Trazado 875615" d="M97.21,42.835a2.518,2.518,0,0,0,2.054-1.843.124.124,0,0,1,.238.066,2.77,2.77,0,0,1-2.292,2.025c-.067.009-.123-.063-.124-.124a.126.126,0,0,1,.124-.124" transform="translate(-50.914 -21.451)" fill="#4a4a4a"/>
              <path id="Trazado_875616" data-name="Trazado 875616" d="M96.921,43.1a1.7,1.7,0,0,0,.848-.422.124.124,0,1,1,.175.175,1.937,1.937,0,0,1-.958.486.127.127,0,0,1-.152-.087.125.125,0,0,1,.087-.152" transform="translate(-50.78 -22.364)" fill="#4a4a4a"/>
              <path id="Trazado_875617" data-name="Trazado 875617" d="M84.32,59.593a1.395,1.395,0,1,0,1.089,1.361,1.248,1.248,0,0,0-1.089-1.361" transform="translate(-43.648 -31.252)" fill="#dc515d"/>
              <path id="Trazado_875618" data-name="Trazado 875618" d="M76.537,19.074q.339,1.731.545,3.485l.135-.02c1.359-.217,2.727-.421,4.067-.736l.05-.013a14.9,14.9,0,0,0-.229-2.468c.218.433.427.87.623,1.314q.207.469.4.947c.7-.195,1.4-.421,2.084-.672a4.392,4.392,0,0,0,.119-2.02A21.078,21.078,0,0,0,83.76,16.4a24.249,24.249,0,0,0-.735-2.316A12.221,12.221,0,0,0,80.682,10.1a9.433,9.433,0,0,0-3.623-2.416,9.576,9.576,0,0,0-2.935-.6A14.549,14.549,0,0,0,71.2,6.332C63.617,5.188,55.425,8.46,52.229,15.4a20.173,20.173,0,0,0-1.535,5.125,15.978,15.978,0,0,0,1.967.74c.528.156,1.065.289,1.606.407h0c.248-.587.464-1.185.724-1.767s.544-1.164.844-1.731c.269-.51.556-1.011.854-1.5a20.7,20.7,0,0,0-.8,2.771,20.3,20.3,0,0,0-.364,2.475c.886.146,1.779.25,2.668.317s1.775.112,2.666.146a14.934,14.934,0,0,1,1.823-6.117,22,22,0,0,0-.585,4.808c0,.45.021.9.061,1.348.306.007.612.013.918.017a39.144,39.144,0,0,1,1.709-3.814c.36-.7.746-1.387,1.147-2.065-.134.682-.261,1.364-.377,2.05q-.151.892-.283,1.788-.068.462-.131.926a4.345,4.345,0,0,0-.084.763.6.6,0,0,0,.117.35q1.811-.021,3.617-.108c-.112-3.922,1.725-8.1,3.826-11.131.277-.4.569-.788.867-1.17a13.278,13.278,0,0,1,1.381,2.862,42.345,42.345,0,0,1,1.668,6.192" transform="translate(-26.585 -3.203)" fill="#39354d"/>
            </g>
          </g>
        </g>
      </g>
    </g>
    <g id="Grupo_1101229" data-name="Grupo 1101229" transform="translate(785.328 24366.158) rotate(40)">
      <g id="Grupo_1101228" data-name="Grupo 1101228" transform="translate(0 0)" clip-path="url(#clip-path-12)">
        <path id="Trazado_875619" data-name="Trazado 875619" d="M53.707,51.57c-2.026-4.8-1.361-11.273,3.116-13.418a3.168,3.168,0,0,1,3.645.509,4.879,4.879,0,0,1,.944,2.219q1.446,6.112,2.425,12.321c.176,1.116.284,2.418-.515,3.218a2.929,2.929,0,0,1-1.864.712c-3.634.3-6.343-2.226-7.751-5.561" transform="translate(-13.775 -9.897)" fill="#39354d"/>
        <path id="Trazado_875620" data-name="Trazado 875620" d="M63.7,72.94a2.193,2.193,0,0,1-.337-.508c-.625-1.265-.34-3.744-.457-5.156q-.22-2.69-.442-5.381a314.729,314.729,0,0,0-4.811-33.021C56.6,23.35,55.484,17.838,54.381,12.323,53.823,9.54,53,6.673,52.709,3.851c-.146-1.414-.3-1.8,1.322-2.114a6.6,6.6,0,0,1,3.588.632c2.075.849,4.079,1.939,6.064,2.979a145.611,145.611,0,0,1,21.146,13.5,6.777,6.777,0,0,1,1.922,1.992,5.135,5.135,0,0,1,.494,1.406.251.251,0,0,1,.142.2q1.081,6.656,2.162,13.313l1.081,6.656a7.651,7.651,0,0,1,.126,2.683,6.773,6.773,0,0,1-1.22,2.485A145.631,145.631,0,0,1,73.542,66.914c-1.571,1.6-3.144,3.249-4.86,4.693-1.245,1.048-3.707,2.739-4.978,1.333" transform="translate(-13.777 -0.438)" fill="#be79ca"/>
        <path id="Trazado_875621" data-name="Trazado 875621" d="M66.614,42.445c-.966-7.3-2.294-14.5-3.785-21.705-1.22-5.894-2.79-11.733-3.657-17.689-.514-.24-1.031-.469-1.553-.682a6.594,6.594,0,0,0-3.588-.631c-1.62.312-1.468.7-1.322,2.113.29,2.822,1.115,5.689,1.672,8.472,1.1,5.515,2.223,11.027,3.275,16.552A314.729,314.729,0,0,1,62.467,61.9q.221,2.691.442,5.381c.117,1.411-.168,3.89.456,5.155a2.218,2.218,0,0,0,.338.508c1.27,1.406,3.732-.286,4.978-1.332.038-.032.075-.068.114-.1a283.264,283.264,0,0,0-2.181-29.062" transform="translate(-13.777 -0.438)" fill="#f2f2f2"/>
        <path id="Trazado_875622" data-name="Trazado 875622" d="M101.4,48.436a3.344,3.344,0,0,0,.467,1.614,1.3,1.3,0,0,0,1.265.391c1.358-.18,2.71-.457,4.061-.687l4.067-.69c6-1.018,11.977-2.1,17.977-3.1,5.153-.86,9.877-2.63,11.45-8.137,2.508-8.782-4.1-17.87-13.048-18.634-6.052-.517-11.833,1.824-17.7,2.865q-4.042.718-8.064,1.535-.97.2-1.938.4a3.56,3.56,0,0,0-1.562.586c-.926.751-.42,2.19-.264,3.172q1.313,8.265,2.627,16.531l.66,4.151" transform="translate(-25.612 -5.006)" fill="#8a8299"/>
        <path id="Trazado_875623" data-name="Trazado 875623" d="M138.058,19.215c-.14-.012-.278-.015-.417-.024,2.892,2.99,4.874,7.952,5.609,10.694a37.815,37.815,0,0,1,.83,15.01c3.267-1.161,5.924-3.182,7.027-7.046,2.508-8.782-4.1-17.87-13.048-18.634" transform="translate(-36.034 -5.024)" fill="#39354d"/>
        <path id="Trazado_875624" data-name="Trazado 875624" d="M21.728,96.575c-.018.456.379.808.743,1.083a41.48,41.48,0,0,0,6.343,3.921,1.527,1.527,0,0,0,.918.233c.5-.086.778-.613.981-1.079l6.428-14.712a.864.864,0,0,0-.426-1.361l-3.668-2.15a1.27,1.27,0,0,0-.766-.247,1.277,1.277,0,0,0-.783.626c-3.112,4.327-6.231,8.639-9.408,12.918a1.456,1.456,0,0,0-.362.768" transform="translate(-5.688 -21.535)" fill="#f9ce24"/>
        <path id="Trazado_875625" data-name="Trazado 875625" d="M14.916,6.378A1.45,1.45,0,0,1,15.489,5.2,41.489,41.489,0,0,1,21.173.369,1.531,1.531,0,0,1,22.045,0c.508.011.861.49,1.132.92L31.737,14.5a1.159,1.159,0,0,1,.257.8,1.148,1.148,0,0,1-.473.61l-3.306,2.675a1.268,1.268,0,0,1-.72.36,1.276,1.276,0,0,1-.868-.5C22.9,14.634,19.172,10.838,15.389,7.084a1.46,1.46,0,0,1-.472-.706" transform="translate(-3.901 0)" fill="#f9ce24"/>
        <path id="Trazado_875626" data-name="Trazado 875626" d="M.238,37.478a1.451,1.451,0,0,1-.165-1.3A41.508,41.508,0,0,1,2.2,29.028a1.535,1.535,0,0,1,.53-.785,1.584,1.584,0,0,1,1.451.154l14.585,6.71a.864.864,0,0,1,.587,1.3l-1.309,4.045a1.277,1.277,0,0,1-.407.695,1.276,1.276,0,0,1-1,.053c-5.2-1.161-10.4-2.306-15.618-3.388a1.456,1.456,0,0,1-.781-.333" transform="translate(0 -7.361)" fill="#f9ce24"/>
        <path id="Trazado_875627" data-name="Trazado 875627" d="M5.4,76.5c-.452-.066-.724-.522-.926-.932A41.492,41.492,0,0,1,1.8,68.607a1.535,1.535,0,0,1-.058-.944c.179-.476.748-.651,1.243-.765l15.651-3.583a1.159,1.159,0,0,1,.839.021,1.149,1.149,0,0,1,.419.649q.715,2,1.432,4a.956.956,0,0,1-.661,1.452c-4.829,2.254-9.646,4.519-14.441,6.846A1.454,1.454,0,0,1,5.4,76.5" transform="translate(-0.442 -16.558)" fill="#f9ce24"/>
      </g>
    </g>
  </g>
</svg>
