<svg xmlns="http://www.w3.org/2000/svg" xmlns:xlink="http://www.w3.org/1999/xlink" width="400" height="321" viewBox="0 0 400 321">
  <defs>
    <linearGradient id="linear-gradient" x1="0.814" y1="0.117" x2="0.236" y2="0.921" gradientUnits="objectBoundingBox">
      <stop offset="0" stop-color="#be79ca"/>
      <stop offset="1" stop-color="#371f63"/>
    </linearGradient>
    <clipPath id="clip-path">
      <path id="Trazado_873802" data-name="Trazado 873802" d="M0,0H400V321L283.636,288.239S248.387,311.13,210,312.885s-68.832-10.82-68.832-10.82S118.659,294.774,85,261.295,0,321,0,321Z" transform="translate(1020 5255)" fill="#fff" stroke="#707070" stroke-width="1"/>
    </clipPath>
    <clipPath id="clip-path-2">
      <rect id="Rectángulo_401260" data-name="Rectángulo 401260" width="307.256" height="283.268" fill="none"/>
    </clipPath>
    <clipPath id="clip-path-4">
      <rect id="Rectángulo_401216" data-name="Rectángulo 401216" width="20.114" height="25.144" fill="none"/>
    </clipPath>
    <clipPath id="clip-path-6">
      <rect id="Rectángulo_401219" data-name="Rectángulo 401219" width="110.955" height="0.92" fill="none"/>
    </clipPath>
    <clipPath id="clip-path-9">
      <rect id="Rectángulo_401225" data-name="Rectángulo 401225" width="110.955" height="0.921" fill="none"/>
    </clipPath>
    <clipPath id="clip-path-12">
      <rect id="Rectángulo_401231" data-name="Rectángulo 401231" width="110.954" height="0.92" fill="none"/>
    </clipPath>
    <clipPath id="clip-path-13">
      <rect id="Rectángulo_401241" data-name="Rectángulo 401241" width="19.726" height="3.702" fill="none"/>
    </clipPath>
    <clipPath id="clip-path-15">
      <rect id="Rectángulo_401243" data-name="Rectángulo 401243" width="194.96" height="257.482" fill="none"/>
    </clipPath>
    <clipPath id="clip-path-17">
      <rect id="Rectángulo_401247" data-name="Rectángulo 401247" width="35.905" height="87.341" fill="none"/>
    </clipPath>
    <clipPath id="clip-path-18">
      <rect id="Rectángulo_401250" data-name="Rectángulo 401250" width="17.455" height="21.82" fill="none"/>
    </clipPath>
    <clipPath id="clip-path-20">
      <rect id="Rectángulo_401253" data-name="Rectángulo 401253" width="96.286" height="0.921" fill="none"/>
    </clipPath>
    <clipPath id="clip-path-21">
      <rect id="Rectángulo_401254" data-name="Rectángulo 401254" width="60.566" height="23.113" fill="none"/>
    </clipPath>
    <clipPath id="clip-path-22">
      <rect id="Rectángulo_401255" data-name="Rectángulo 401255" width="48.037" height="12.881" fill="none"/>
    </clipPath>
    <clipPath id="clip-path-23">
      <rect id="Rectángulo_401256" data-name="Rectángulo 401256" width="5.53" height="14.917" fill="none"/>
    </clipPath>
    <clipPath id="clip-path-24">
      <rect id="Rectángulo_401257" data-name="Rectángulo 401257" width="13.245" height="21.392" fill="none"/>
    </clipPath>
    <clipPath id="clip-path-25">
      <rect id="Rectángulo_401258" data-name="Rectángulo 401258" width="40.929" height="22.879" fill="none"/>
    </clipPath>
  </defs>
  <g id="Grupo_1102802" data-name="Grupo 1102802" transform="translate(-180 -22853.916)">
    <g id="Grupo_1100882" data-name="Grupo 1100882" transform="translate(-840 17598.916)">
      <g id="Grupo_1099960" data-name="Grupo 1099960" transform="translate(13718.387 17874.502)">
        <path id="Trazado_145968" data-name="Trazado 145968" d="M66.711,0a66.711,66.711,0,1,0,66.711,66.711A66.711,66.711,0,0,0,66.711,0Z" transform="translate(-12688.135 -12445.871)" fill="#75baf1" opacity="0.444"/>
        <path id="Trazado_145969" data-name="Trazado 145969" d="M45.584,0A45.584,45.584,0,1,0,91.168,45.584,45.584,45.584,0,0,0,45.584,0Z" transform="translate(-12426.826 -12590.302)" fill="#75baf1" opacity="0.444"/>
        <rect id="Rectángulo_34812" data-name="Rectángulo 34812" width="400" height="300" transform="translate(-12698.387 -12607.222)" fill="none"/>
        <path id="Trazado_145967" data-name="Trazado 145967" d="M150.485,0A150.485,150.485,0,1,0,300.971,150.485,150.485,150.485,0,0,0,150.485,0Z" transform="translate(-12648.872 -12607.707)" fill="url(#linear-gradient)"/>
        <path id="Trazado_145971" data-name="Trazado 145971" d="M12.533,0A12.533,12.533,0,1,0,25.066,12.533,12.533,12.533,0,0,0,12.533,0Z" transform="translate(-12372.968 -12357.124)" fill="#75baf1"/>
        <path id="Elipse_4044" data-name="Elipse 4044" d="M17,4.594A12.4,12.4,0,1,1,4.594,17,12.417,12.417,0,0,1,17,4.594M17,0a17,17,0,1,0,17,17A17,17,0,0,0,17,0Z" transform="translate(-12406.962 -12500.362)" fill="#fff"/>
      </g>
      <g id="Enmascarar_grupo_1098691" data-name="Enmascarar grupo 1098691" clip-path="url(#clip-path)">
        <g id="Grupo_1100956" data-name="Grupo 1100956" transform="translate(1105 5330.355)">
          <g id="Grupo_1100955" data-name="Grupo 1100955" transform="translate(0 0)" clip-path="url(#clip-path-2)">
            <rect id="Rectángulo_401214" data-name="Rectángulo 401214" width="109.354" height="100.431" transform="translate(192.917 100.878)" fill="#afafaf"/>
            <g id="Grupo_1100920" data-name="Grupo 1100920">
              <g id="Grupo_1100919" data-name="Grupo 1100919" clip-path="url(#clip-path-2)">
                <path id="Trazado_873877" data-name="Trazado 873877" d="M2.952,157.714s.03-.654.044-1.88q.016-1.885.044-5.4c.025-4.741.058-11.641.1-20.411.049-17.561.118-42.616.2-72.741l-.392.392,109.345.067h.009l-.459-.459c.021,36.6.041,71,.057,100.431l.4-.4-79.071.2-22.309.106-5.913.048-1.529.023a5.023,5.023,0,0,0-.532.023,3.666,3.666,0,0,0,.488.023l1.484.023,5.834.048,22.217.106,79.33.2.4,0v-.4c.016-29.435.035-63.835.057-100.431v-.461h-.47L2.952,56.891H2.56v.392c.083,30.227.154,55.369.2,72.988.044,8.735.078,15.6.1,20.325q.029,3.462.044,5.323c.016,1.2.044,1.8.044,1.8" transform="translate(189.964 43.595)" fill="#263238"/>
                <g id="Grupo_1100885" data-name="Grupo 1100885" transform="translate(239.731 102.751)" opacity="0.3">
                  <g id="Grupo_1100884" data-name="Grupo 1100884">
                    <g id="Grupo_1100883" data-name="Grupo 1100883" clip-path="url(#clip-path-4)">
                      <rect id="Rectángulo_401215" data-name="Rectángulo 401215" width="20.114" height="25.144" transform="translate(0 0)" fill="#fff"/>
                    </g>
                  </g>
                </g>
                <g id="Grupo_1100888" data-name="Grupo 1100888" transform="translate(239.731 174.991)" opacity="0.3">
                  <g id="Grupo_1100887" data-name="Grupo 1100887">
                    <g id="Grupo_1100886" data-name="Grupo 1100886" clip-path="url(#clip-path-4)">
                      <rect id="Rectángulo_401217" data-name="Rectángulo 401217" width="20.114" height="25.144" transform="translate(0 -0.001)" fill="#fff"/>
                    </g>
                  </g>
                </g>
                <g id="Grupo_1100891" data-name="Grupo 1100891" transform="translate(192.93 147.676)" opacity="0.3">
                  <g id="Grupo_1100890" data-name="Grupo 1100890">
                    <g id="Grupo_1100889" data-name="Grupo 1100889" clip-path="url(#clip-path-6)">
                      <path id="Trazado_873878" data-name="Trazado 873878" d="M1.908,84.024c0,.254,24.84.459,55.475.459s55.48-.2,55.48-.459-24.835-.459-55.48-.459-55.475.205-55.475.459" transform="translate(-1.909 -83.564)"/>
                    </g>
                  </g>
                </g>
                <path id="Trazado_873924" data-name="Trazado 873924" d="M0,0H109.354V100.431H0Z" transform="translate(192.917 0)" fill="#d3d3d3"/>
                <g id="Grupo_1100894" data-name="Grupo 1100894" transform="translate(239.731 1.875)" opacity="0.3">
                  <g id="Grupo_1100893" data-name="Grupo 1100893">
                    <g id="Grupo_1100892" data-name="Grupo 1100892" clip-path="url(#clip-path-4)">
                      <rect id="Rectángulo_401221" data-name="Rectángulo 401221" width="20.114" height="25.144" transform="translate(0)" fill="#fff"/>
                    </g>
                  </g>
                </g>
                <g id="Grupo_1100897" data-name="Grupo 1100897" transform="translate(239.731 74.114)" opacity="0.3">
                  <g id="Grupo_1100896" data-name="Grupo 1100896">
                    <g id="Grupo_1100895" data-name="Grupo 1100895" clip-path="url(#clip-path-4)">
                      <rect id="Rectángulo_401223" data-name="Rectángulo 401223" width="20.114" height="25.144" transform="translate(0)" fill="#fff"/>
                    </g>
                  </g>
                </g>
                <g id="Grupo_1100900" data-name="Grupo 1100900" transform="translate(192.93 46.799)" opacity="0.3">
                  <g id="Grupo_1100899" data-name="Grupo 1100899">
                    <g id="Grupo_1100898" data-name="Grupo 1100898" clip-path="url(#clip-path-9)">
                      <path id="Trazado_873879" data-name="Trazado 873879" d="M1.908,26.941c0,.256,24.84.461,55.475.461s55.48-.2,55.48-.461-24.835-.459-55.48-.459-55.475.2-55.475.459" transform="translate(-1.909 -26.482)"/>
                    </g>
                  </g>
                </g>
                <rect id="Rectángulo_401226" data-name="Rectángulo 401226" width="109.356" height="100.431" transform="translate(85.127 100.878)" fill="#e8e8e8"/>
                <g id="Grupo_1100903" data-name="Grupo 1100903" transform="translate(131.941 102.751)" opacity="0.3">
                  <g id="Grupo_1100902" data-name="Grupo 1100902">
                    <g id="Grupo_1100901" data-name="Grupo 1100901" clip-path="url(#clip-path-4)">
                      <rect id="Rectángulo_401227" data-name="Rectángulo 401227" width="20.114" height="25.144" transform="translate(-0.001 0)" fill="#fff"/>
                    </g>
                  </g>
                </g>
                <g id="Grupo_1100906" data-name="Grupo 1100906" transform="translate(131.941 174.991)" opacity="0.3">
                  <g id="Grupo_1100905" data-name="Grupo 1100905">
                    <g id="Grupo_1100904" data-name="Grupo 1100904" clip-path="url(#clip-path-4)">
                      <rect id="Rectángulo_401229" data-name="Rectángulo 401229" width="20.114" height="25.144" transform="translate(-0.001 -0.001)" fill="#fff"/>
                    </g>
                  </g>
                </g>
                <g id="Grupo_1100909" data-name="Grupo 1100909" transform="translate(85.141 147.676)" opacity="0.3">
                  <g id="Grupo_1100908" data-name="Grupo 1100908">
                    <g id="Grupo_1100907" data-name="Grupo 1100907" clip-path="url(#clip-path-12)">
                      <path id="Trazado_873880" data-name="Trazado 873880" d="M62.9,84.024c0,.254,24.84.459,55.475.459s55.48-.2,55.48-.459-24.835-.459-55.48-.459S62.9,83.77,62.9,84.024" transform="translate(-62.901 -83.564)"/>
                    </g>
                  </g>
                </g>
                <rect id="Rectángulo_401232" data-name="Rectángulo 401232" width="222.129" height="13.046" transform="translate(85.127 191.34)" fill="#6f4439"/>
                <rect id="Rectángulo_401239" data-name="Rectángulo 401239" width="19.726" height="15.324" transform="translate(85.127 204.386)" fill="#6f4439"/>
                <g id="Grupo_1100918" data-name="Grupo 1100918" transform="translate(85.127 204.385)" opacity="0.3">
                  <g id="Grupo_1100917" data-name="Grupo 1100917">
                    <g id="Grupo_1100916" data-name="Grupo 1100916" clip-path="url(#clip-path-13)">
                      <rect id="Rectángulo_401240" data-name="Rectángulo 401240" width="19.726" height="3.702" transform="translate(0 -0.001)"/>
                    </g>
                  </g>
                </g>
              </g>
            </g>
            <g id="Grupo_1100925" data-name="Grupo 1100925">
              <g id="Grupo_1100924" data-name="Grupo 1100924" clip-path="url(#clip-path-2)">
                <g id="Grupo_1100923" data-name="Grupo 1100923" transform="translate(27.335 25.785)" opacity="0.3">
                  <g id="Grupo_1100922" data-name="Grupo 1100922">
                    <g id="Grupo_1100921" data-name="Grupo 1100921" clip-path="url(#clip-path-15)">
                      <path id="Trazado_873881" data-name="Trazado 873881" d="M48.564,234.018l.106-6.192.221-12.726.115-6.7.217-13.35h.014L49.6,173.8s-1-14.647-1.37-28.716c-.064-1.58-.09-3.1-.1-4.605a153.834,153.834,0,0,1,.375-16.009,63.993,63.993,0,0,1,4.544-17.423c.163-.486.329-.972.52-1.472a8.027,8.027,0,0,1,.716-1.384,72.944,72.944,0,0,1,5.954-10.776l.6.136-.352-18.784c-2.349.272-8.541-.032-8.484-7.115.041-5.15,2.994-6.263,5.455-6.3-.018-.08-.039-.157-.057-.237a12.8,12.8,0,0,1-4.455-2.448A8.328,8.328,0,0,1,50.6,54.8l-.011.019s-1.861-5.975,2.391-9.053c0,0-.436-11.054,6.88-19.993,2.615-3.2,7.428-6,8.419-6.86l.118-1.762s1.792-2.145,10.671-2.524c9.174-.391,11.08,2.432,11.08,2.432l.226,1.461c.028-.378.065-.613.117-.617s.129.316.191.861A29.153,29.153,0,0,1,104.631,35.32c.2.028.4.03.59.074a5.248,5.248,0,0,1,3.727,2.854,3.421,3.421,0,0,1-1.279,4.255,4.085,4.085,0,0,1,.553,2.122c1.357,1.283,2.872,3.215,2.594,5.291,0,0-.042-.067-.125-.18a5.669,5.669,0,0,1-.771,4.7A14.113,14.113,0,0,1,104.341,59c.286,8.732.433,17.05.191,21.668-.668,12.745-13.5,14.217-13.5,14.217v0L91.005,98.3l.5,3.3A14.889,14.889,0,0,1,93.444,103a18.19,18.19,0,0,1,4.439.968c2.964,1.255,5.777,2.531,8.479,3.715l14.318,6.362,6.109,2.764,3.932-5.736H113.993V23.733h35.9v.187h93.138v87.152H182.141c-5.977,15.6-16.5,40.865-23.769,46.073-5.247,3.761-17.412.293-29.281-3.9a17.342,17.342,0,0,1-3.446.147l-.631,2.584-1.522-.6.156,2.34,2.923,40.37.06,0,.824,12.194.528,7.306,1.09,13.839-.088,0,.73,10.073-1.168-.064.527,7.025c-.7.069-1.428.129-2.142.194l3.851,23.416H49.218a171.736,171.736,0,0,1,.3-23.179c-.481-.023-.956-.044-1.439-.069Zm98.9-105.567,12.487-17.379h-6.4c-2.025,5.364-4.386,11.331-6.869,17.055Z" transform="translate(-48.076 -14.591)"/>
                    </g>
                  </g>
                </g>
              </g>
            </g>
            <g id="Grupo_1100954" data-name="Grupo 1100954">
              <g id="Grupo_1100953" data-name="Grupo 1100953" clip-path="url(#clip-path-2)">
                <path id="Trazado_873882" data-name="Trazado 873882" d="M121.86,55.145a26.732,26.732,0,0,1,10.723,2.129l45.287,19.577,23.26-33.931,14.21,4.056S198.454,97.9,188.273,105.546c-7.193,5.4-28.012-4.111-42.037-9.262-7.73-2.84-19.75-5.295-27.685-9.145l-7.975-26.3c2.092-3.409,6.233-5.406,11.285-5.694" transform="translate(-103.496 32.93)" fill="#ff9b6c"/>
                <path id="Trazado_873883" data-name="Trazado 873883" d="M102.764,39.341c1.947.737,2.909,2.856,3.029,5.364a3.171,3.171,0,0,0,2.342,3.01,89.159,89.159,0,0,0,5.774-9.948c1.451-3.434,3.683-10.867,5.584-12.25s3.734-.793,2.732,1.744S118.5,38.369,119.2,38.972s9.681-11.4,10.9-11,3.37,1.681.732,4.176-7.18,9.022-7.18,9.022,9.539-8.638,10.5-6.818,0,2.646-1.541,4.2-6.906,8.787-6.906,8.787,8.451-6.507,9.548-4.8,1.184,2.108-.58,3.375-15.956,16.288-16.506,16.759l-5.786,4.948L104.3,59.168l-.818-3.637s-2.568-8.848-2.29-11.727-.38-5.2,1.568-4.462" transform="translate(-7.588 19.018)" fill="#ff9b6c"/>
                <path id="Trazado_873884" data-name="Trazado 873884" d="M188.741,100.6l8.368-35.883s-28.751-13.489-34.171-15.684c-7.527-3.048-19.157-.025-21.652,6.475-7.758,20.229,8.269,28.931,8.269,28.931Z" transform="translate(-135.788 36.706)" fill="#e0e0e0"/>
                <path id="Trazado_873923" data-name="Trazado 873923" d="M0,0H35.9V87.34H0Z" transform="translate(65.917 10.379)" fill="#d3d3d3"/>
                <path id="Trazado_873885" data-name="Trazado 873885" d="M116.222,93.276h35.993V5.848H116.222Zm35.9-.09H116.31V5.935h35.814Z" transform="translate(-50.349 4.487)" fill="#d3d3d3"/>
                <g id="Grupo_1100928" data-name="Grupo 1100928" transform="translate(69.096 10.377)" opacity="0.3">
                  <g id="Grupo_1100927" data-name="Grupo 1100927" transform="translate(-4)">
                    <g id="Grupo_1100926" data-name="Grupo 1100926" clip-path="url(#clip-path-17)">
                      <rect id="Rectángulo_401246" data-name="Rectángulo 401246" width="35.905" height="87.34" transform="translate(0 0.002)"/>
                    </g>
                  </g>
                </g>
                <rect id="Rectángulo_401248" data-name="Rectángulo 401248" width="94.896" height="87.154" transform="translate(100.062 10.564)" fill="#d3d3d3"/>
                <path id="Trazado_873886" data-name="Trazado 873886" d="M63.678,93.33s.028-.573.044-1.636q.016-1.651.044-4.69c.025-4.125.058-10.11.1-17.718.049-15.244.118-36.977.2-63.109l-.392.392c27.394.019,59.994.046,94.889.069h.007l-.459-.461c.021,31.757.041,61.611.057,87.154l.4-.4-68.6.2-19.365.108c-2.218.021-3.936.035-5.136.048-.562.007-1,.016-1.331.023a3.708,3.708,0,0,0-.465.021,2.416,2.416,0,0,0,.419.023c.322.007.744.012,1.287.023l5.058.048,19.273.108c16.7.049,40.457.12,68.86.2l.4,0v-.4c.016-25.543.035-55.4.057-87.154l-.461-.459h-.007c-34.9.027-67.5.049-94.889.067h-.394l0,.392c.083,26.234.152,48.052.2,63.357.044,7.569.078,13.526.1,17.63.019,1.992.034,3.533.044,4.614.016,1.041.044,1.553.044,1.553" transform="translate(36.384 4.386)" fill="#263238"/>
                <g id="Grupo_1100931" data-name="Grupo 1100931" transform="translate(140.687 12.19)" opacity="0.3">
                  <g id="Grupo_1100930" data-name="Grupo 1100930">
                    <g id="Grupo_1100929" data-name="Grupo 1100929" clip-path="url(#clip-path-18)">
                      <rect id="Rectángulo_401249" data-name="Rectángulo 401249" width="17.455" height="21.82" transform="translate(-0.001)" fill="#fff"/>
                    </g>
                  </g>
                </g>
                <g id="Grupo_1100934" data-name="Grupo 1100934" transform="translate(140.687 74.879)" opacity="0.3">
                  <g id="Grupo_1100933" data-name="Grupo 1100933">
                    <g id="Grupo_1100932" data-name="Grupo 1100932" clip-path="url(#clip-path-18)">
                      <rect id="Rectángulo_401251" data-name="Rectángulo 401251" width="17.455" height="21.82" transform="translate(-0.001)" fill="#fff"/>
                    </g>
                  </g>
                </g>
                <g id="Grupo_1100937" data-name="Grupo 1100937" transform="translate(100.074 51.115)" opacity="0.3">
                  <g id="Grupo_1100936" data-name="Grupo 1100936">
                    <g id="Grupo_1100935" data-name="Grupo 1100935" clip-path="url(#clip-path-20)">
                      <path id="Trazado_873887" data-name="Trazado 873887" d="M62.752,29.383c0,.254,21.557.459,48.141.459s48.144-.2,48.144-.459-21.551-.459-48.144-.459-48.141.2-48.141.459" transform="translate(-62.752 -28.924)"/>
                    </g>
                  </g>
                </g>
                <path id="Trazado_873888" data-name="Trazado 873888" d="M197.942,22.8a6.882,6.882,0,0,0-3.448-3.287c-14.571-5.906-31.207-5.037-46.147-.186-3.883,1.262-8.025,3.087-9.8,6.8l-.018.246c-.744,2.418.532,5.466,2.407,7.148a15.78,15.78,0,0,0,6.761,3.151c11.559,2.974,23.76,1.889,35.5-.207a38.255,38.255,0,0,0,8.108-2.124A14.743,14.743,0,0,0,197.9,29.28a5.959,5.959,0,0,0,.037-6.484" transform="translate(-136.061 11.799)" fill="#75baf1"/>
                <g id="Grupo_1100940" data-name="Grupo 1100940" transform="translate(2.257 27.761)" opacity="0.3">
                  <g id="Grupo_1100939" data-name="Grupo 1100939">
                    <g id="Grupo_1100938" data-name="Grupo 1100938" clip-path="url(#clip-path-21)">
                      <path id="Trazado_873889" data-name="Trazado 873889" d="M197.942,22.8a6.882,6.882,0,0,0-3.448-3.287c-14.571-5.906-31.207-5.037-46.147-.186-3.883,1.262-8.025,3.087-9.8,6.8l-.018.246c-.744,2.418.532,5.466,2.407,7.148a15.78,15.78,0,0,0,6.761,3.151c11.559,2.974,23.76,1.889,35.5-.207a38.255,38.255,0,0,0,8.108-2.124A14.743,14.743,0,0,0,197.9,29.28a5.959,5.959,0,0,0,.037-6.484" transform="translate(-138.317 -15.379)"/>
                    </g>
                  </g>
                </g>
                <path id="Trazado_873890" data-name="Trazado 873890" d="M169.609,49.5A92.1,92.1,0,0,1,165.4,34.186a32.165,32.165,0,0,1,1.046-15.709c.269-.758,2.587-5.844,3.39-5.777.573.049-.834,4.784-.539,5.277,2.824,4.7,3.651,10.389,3.285,15.861A71.794,71.794,0,0,1,169.609,49.5" transform="translate(-156.815 9.743)" fill="#263238"/>
                <path id="Trazado_873891" data-name="Trazado 873891" d="M185.831,30.8a23.777,23.777,0,0,0-22.81-22.79l-1.23-.049c-13.3.246-20.519,11.674-19.906,24.96l.806,42.922,31.3,10.815-1.177-7.823s.007-3.411.026-3.411c0,0,12.832-1.474,13.5-14.217.322-6.157-.046-18.888-.512-30.407" transform="translate(-129.888 6.106)" fill="#ffc09d"/>
                <path id="Trazado_873892" data-name="Trazado 873892" d="M165.962,48.553a30.822,30.822,0,0,1-16.405-5.572s3.61,9.623,16.379,8.983Z" transform="translate(-123.006 32.976)" fill="#ff9b6c"/>
                <path id="Trazado_873893" data-name="Trazado 873893" d="M148.216,28.044a1.823,1.823,0,0,1-1.829,1.767,1.743,1.743,0,0,1-1.811-1.718,1.823,1.823,0,0,1,1.827-1.767,1.744,1.744,0,0,1,1.813,1.718" transform="translate(-96.458 20.198)" fill="#263238"/>
                <path id="Trazado_873894" data-name="Trazado 873894" d="M151.045,24.71c-.235.228-1.575-.848-3.533-.921-1.958-.1-3.435.85-3.639.6-.1-.11.147-.53.792-.961a4.992,4.992,0,0,1,2.923-.774,4.8,4.8,0,0,1,2.8,1.029c.585.488.771.924.656,1.027" transform="translate(-98.039 17.378)" fill="#263238"/>
                <path id="Trazado_873895" data-name="Trazado 873895" d="M158.028,27.96a1.823,1.823,0,0,1-1.829,1.767,1.742,1.742,0,0,1-1.811-1.718,1.823,1.823,0,0,1,1.827-1.767,1.743,1.743,0,0,1,1.813,1.718" transform="translate(-123.61 20.133)" fill="#263238"/>
                <path id="Trazado_873896" data-name="Trazado 873896" d="M161.925,24.724c-.235.228-1.576-.848-3.534-.921-1.956-.1-3.434.85-3.639.6-.1-.11.145-.53.793-.96a5,5,0,0,1,2.923-.776,4.822,4.822,0,0,1,2.8,1.029c.581.488.77.926.656,1.027" transform="translate(-128.145 17.389)" fill="#263238"/>
                <path id="Trazado_873897" data-name="Trazado 873897" d="M148.522,39.612a12.97,12.97,0,0,1,3.206-.447c.5-.032.979-.111,1.078-.451a2.554,2.554,0,0,0-.276-1.5q-.631-1.842-1.327-3.868c-1.838-5.507-3.146-10.027-2.925-10.1s1.893,4.331,3.731,9.838c.442,1.359.864,2.653,1.265,3.89a2.9,2.9,0,0,1,.18,1.976,1.263,1.263,0,0,1-.852.7,3.342,3.342,0,0,1-.855.083,12.757,12.757,0,0,1-3.225-.124" transform="translate(-108.314 17.838)" fill="#263238"/>
                <path id="Trazado_873898" data-name="Trazado 873898" d="M151.352,33.145c.32-.005.239,2.121,2,3.7s4.033,1.439,4.038,1.737c.025.134-.521.392-1.479.38a5.31,5.31,0,0,1-3.375-1.327,4.617,4.617,0,0,1-1.539-3.1c-.046-.892.212-1.41.357-1.393" transform="translate(-116.965 25.429)" fill="#263238"/>
                <path id="Trazado_873899" data-name="Trazado 873899" d="M163.6,20.034c-.214.525-2.161.194-4.471.38-2.313.138-4.194.737-4.48.247-.127-.235.216-.723.986-1.209a7.8,7.8,0,0,1,6.82-.477c.831.373,1.239.809,1.145,1.059" transform="translate(-129.609 14.123)" fill="#263238"/>
                <path id="Trazado_873900" data-name="Trazado 873900" d="M150.805,21.053c-.362.431-1.695-.085-3.317-.171-1.619-.143-3.008.18-3.306-.3-.129-.232.1-.668.723-1.066a4.807,4.807,0,0,1,5.337.378c.555.481.725.947.564,1.158" transform="translate(-98.347 14.487)" fill="#263238"/>
                <path id="Trazado_873901" data-name="Trazado 873901" d="M175.062,27.675c-.214-.1-8.658-2.942-8.728,5.786s9.356,7.161,9.373,6.912-.645-12.7-.645-12.7" transform="translate(-162.4 20.833)" fill="#ffc09d"/>
                <path id="Trazado_873902" data-name="Trazado 873902" d="M172.062,35.663c-.039-.028-.154.1-.412.221a1.521,1.521,0,0,1-1.136.014c-.919-.346-1.684-1.817-1.714-3.39a5.021,5.021,0,0,1,.444-2.174,1.756,1.756,0,0,1,1.154-1.158.773.773,0,0,1,.894.424c.115.244.058.419.1.433.023.023.187-.145.12-.505a.96.96,0,0,0-.339-.55,1.14,1.14,0,0,0-.838-.228,2.133,2.133,0,0,0-1.6,1.34,5.143,5.143,0,0,0-.548,2.428c.042,1.76.93,3.413,2.188,3.787a1.626,1.626,0,0,0,1.393-.219c.272-.214.32-.408.29-.424" transform="translate(-162.043 22.053)" fill="#ff9b6c"/>
                <path id="Trazado_873903" data-name="Trazado 873903" d="M187.092,17.008c1.412-.781-2.831-5.353-6.3-6.924-5.249-2.377-13.263-3.837-18.1-2.46-5.823,1.656-10.66,4.558-13.581,9.861a34.33,34.33,0,0,0-3.838,17.533A10.417,10.417,0,0,0,146.5,40.35c1.219,1.928,3.561,3.142,3.46,5.8a3.658,3.658,0,0,0,.908,2.665c1.6,1.7,3.55.1,4.448-1.5,1.916-3.42,2.126-7.5,2.292-11.418a25.561,25.561,0,0,0-.558-8.3c-.428-1.454-1.115-2.829-1.461-4.3a5.241,5.241,0,0,1,.615-4.36,5.554,5.554,0,0,1,.707-.717,9.108,9.108,0,0,1,9.03-1.727c4.916,1.735,13.312,4.326,15.5,2.656,3.153-2.4,3.906-3.967,3.906-3.967Z" transform="translate(-136.807 5.441)" fill="#263238"/>
                <path id="Trazado_873904" data-name="Trazado 873904" d="M190.2,23.6a30.275,30.275,0,0,0-13.97-3.329c-21.59.5-33.692,8.347-33.692,8.347l-.316-6.282s31.524-6.588,31.743-6.6,9.732,1.527,9.956,1.6,5.869.942,5.869.942a18,18,0,0,1,.41,5.318" transform="translate(-134.337 12.071)" fill="#455a64"/>
                <g id="Grupo_1100943" data-name="Grupo 1100943" transform="translate(7.884 27.805)" opacity="0.6">
                  <g id="Grupo_1100942" data-name="Grupo 1100942">
                    <g id="Grupo_1100941" data-name="Grupo 1100941" clip-path="url(#clip-path-22)">
                      <path id="Trazado_873905" data-name="Trazado 873905" d="M190.2,23.6a30.275,30.275,0,0,0-13.97-3.329c-21.59.5-33.692,8.347-33.692,8.347l-.316-6.282s31.524-6.588,31.743-6.6,9.732,1.527,9.956,1.6,5.869.942,5.869.942a18,18,0,0,1,.41,5.318" transform="translate(-142.221 -15.734)"/>
                    </g>
                  </g>
                </g>
                <path id="Trazado_873906" data-name="Trazado 873906" d="M198.972,36.026s-5.662-9.395-30.651-5.851c-26.217,3.716-29.573,10.754-29.573,10.754s-1.861-5.975,2.391-9.053c0,0-.436-11.054,6.88-19.993,2.615-3.2,7.428-6,8.419-6.862l.118-1.76s1.792-2.145,10.671-2.524c9.174-.392,11.08,2.432,11.08,2.432l.24,1.564S192.836,10.954,194.4,29.16c0,0,5.058,3.213,4.57,6.866" transform="translate(-136.232 0.536)" fill="#75baf1"/>
                <g id="Grupo_1100946" data-name="Grupo 1100946" transform="translate(20.206 3.798)" opacity="0.3">
                  <g id="Grupo_1100945" data-name="Grupo 1100945">
                    <g id="Grupo_1100944" data-name="Grupo 1100944" clip-path="url(#clip-path-23)">
                      <path id="Trazado_873907" data-name="Trazado 873907" d="M159.419,2.149c1.507,1.709,4.114,4.655,4.634,7.178a50.79,50.79,0,0,1,.778,7.739c-1.734-8.49-3-9.681-5.53-13.157Z" transform="translate(-159.301 -2.149)"/>
                    </g>
                  </g>
                </g>
                <path id="Trazado_873908" data-name="Trazado 873908" d="M140.932,21.287a1.943,1.943,0,0,1,.493-.26c.4-.175.88-.387,1.463-.642.634-.281,1.421-.6,2.356-.917s1.978-.735,3.176-1.064a91.983,91.983,0,0,1,19.028-3.587,67.138,67.138,0,0,1,19.335.839c1.205.311,2.3.59,3.236.907.919.371,1.727.647,2.349.956.557.316,1.016.578,1.394.8a1.885,1.885,0,0,1,.461.309,2.038,2.038,0,0,1-.521-.207c-.389-.187-.859-.415-1.43-.689-.629-.272-1.442-.514-2.356-.85-.935-.283-2.023-.53-3.22-.813a71.689,71.689,0,0,0-19.2-.659,101.245,101.245,0,0,0-18.957,3.4c-1.2.3-2.248.689-3.186.976s-1.735.571-2.38.818l-1.5.537a1.968,1.968,0,0,1-.539.15" transform="translate(-136.024 11.124)" fill="#263238"/>
                <path id="Trazado_873909" data-name="Trazado 873909" d="M159.158,2.15a9.8,9.8,0,0,1,1.73,1.628,12.585,12.585,0,0,1,3.135,4.84,17.124,17.124,0,0,1,.8,5.71,7.079,7.079,0,0,1-.29,2.365,14.542,14.542,0,0,1-.129-2.359,20.858,20.858,0,0,0-.945-5.53,14.21,14.21,0,0,0-2.888-4.75,9.312,9.312,0,0,1-1.416-1.9" transform="translate(-138.833 1.647)" fill="#263238"/>
                <g id="Grupo_1100949" data-name="Grupo 1100949" transform="translate(7.157 8.35)" opacity="0.3">
                  <g id="Grupo_1100948" data-name="Grupo 1100948">
                    <g id="Grupo_1100947" data-name="Grupo 1100947" clip-path="url(#clip-path-24)">
                      <path id="Trazado_873910" data-name="Trazado 873910" d="M175.465,6.134a1.749,1.749,0,0,0-.253-1.094.977.977,0,0,0-.986-.285,2.734,2.734,0,0,0-.951.511A28.09,28.09,0,0,0,162.321,25.6a.463.463,0,0,0,.695.454,31.376,31.376,0,0,1,9.248-3.715c1.067-.256,2.615-.209,3.048-1.338a5.854,5.854,0,0,0,.251-2.145q-.048-6.359-.1-12.719" transform="translate(-162.319 -4.725)" fill="#fff"/>
                    </g>
                  </g>
                </g>
                <path id="Trazado_873911" data-name="Trazado 873911" d="M149.763,12.854a30.666,30.666,0,0,1-.021-5.143A30.592,30.592,0,0,1,150,2.574a18.116,18.116,0,0,1,.334,5.151,18.051,18.051,0,0,1-.571,5.128" transform="translate(-107.581 1.975)" fill="#263238"/>
                <path id="Trazado_873912" data-name="Trazado 873912" d="M139.055,47.614S126,64.293,128.367,100.141c2.064,31.319,1.753,36.96,1.753,36.96l-2.089,63.443c31.013,1.564,58.924,1.827,81-.361L200.676,88.538,187.4,63.286l-8.414-2.778-2.4-2.615c-3.731-4.073-5.134-5-10.469-6.935L140.069,45.52Z" transform="translate(-128.031 34.924)" fill="#e0e0e0"/>
                <path id="Trazado_873913" data-name="Trazado 873913" d="M202.6,101.069l6.685,92.321-81.2-4.455,1.092-63.249s-2.458-35.991-1.092-49.33C129.817,59.43,139.814,45.3,139.814,45.3l25.962,5.825A20.287,20.287,0,0,0,145.5,69.864l-.15,1.976a62.381,62.381,0,0,0,.12,11.561c2.771,25.234,16.315,29.52,24.241,30.129a17.436,17.436,0,0,0,17.605-11.112l7.239-18.778Z" transform="translate(-127.647 34.756)" fill="#75baf1"/>
                <path id="Trazado_873914" data-name="Trazado 873914" d="M207.316,116.3l-79.065-2.142-.219,12.726,80.4,3.607Z" transform="translate(-127.437 87.585)" fill="#fff"/>
                <path id="Trazado_873915" data-name="Trazado 873915" d="M206.572,105.857l-77.408-3.045-.217,13.35,78.449,1.9Z" transform="translate(-128.017 78.88)" fill="#fff"/>
                <g id="Grupo_1100952" data-name="Grupo 1100952" transform="translate(34.941 126.05)" opacity="0.3">
                  <g id="Grupo_1100951" data-name="Grupo 1100951">
                    <g id="Grupo_1100950" data-name="Grupo 1100950" clip-path="url(#clip-path-25)">
                      <path id="Trazado_873916" data-name="Trazado 873916" d="M171.861,94.2c-14.3.387-28.138-10.308-40.929-22.87l40.01,8.926Z" transform="translate(-130.932 -71.327)"/>
                    </g>
                  </g>
                </g>
                <path id="Trazado_873917" data-name="Trazado 873917" d="M107.226,58.152a29.2,29.2,0,0,1,11.241,2.129l47.471,19.577L190.32,45.928l14.894,4.056s-17.7,50.922-28.373,58.569c-7.541,5.4-29.362-4.111-44.066-9.262-8.1-2.84-20.7-5.295-29.021-9.145L95.4,63.846c2.193-3.409,6.533-5.406,11.83-5.694" transform="translate(-66.544 35.237)" fill="#ffc09d"/>
                <path id="Trazado_873918" data-name="Trazado 873918" d="M87.207,42.348c2.041.737,3.05,2.856,3.176,5.365a3.23,3.23,0,0,0,2.455,3.008s4.529-6.516,6.051-9.948,3.861-10.865,5.853-12.25,3.914-.793,2.865,1.744-3.9,11.109-3.17,11.713,10.147-11.4,11.43-11.006,3.531,1.681.765,4.176-7.527,9.022-7.527,9.022,10-8.638,11.006-6.818,0,2.646-1.617,4.2-7.237,8.787-7.237,8.787,8.857-6.507,10.008-4.8,1.241,2.11-.608,3.375-16.725,16.288-17.3,16.759L97.289,70.62l-8.467-8.446-.859-3.637s-2.691-8.848-2.4-11.727-.4-5.2,1.642-4.462" transform="translate(33.989 21.325)" fill="#ffc09d"/>
                <path id="Trazado_873919" data-name="Trazado 873919" d="M177.333,103.61,186.1,67.727s-30.138-13.489-35.82-15.684c-7.889-3.048-20.079-.027-22.693,6.475-8.134,20.229,8.665,28.931,8.665,28.931Z" transform="translate(-100.396 39.013)" fill="#e0e0e0"/>
                <path id="Trazado_873920" data-name="Trazado 873920" d="M119.134,76.623c-.21.074-1.278-2.441-2.382-5.613s-1.831-5.807-1.621-5.881,1.278,2.441,2.384,5.614,1.829,5.805,1.619,5.88" transform="translate(-15.311 49.967)" fill="#ff9b6c"/>
                <path id="Trazado_873921" data-name="Trazado 873921" d="M137.441,87.6a3.606,3.606,0,0,1-.917-.414,21.773,21.773,0,0,1-2.432-1.548,21.994,21.994,0,0,1-6.91-7.983c-2.193-4-2.483-9.849-.414-15.458.619-1.361,1.17-2.773,1.946-4.158a11.705,11.705,0,0,1,3.34-3.5,21.719,21.719,0,0,1,9.345-3.623,20.589,20.589,0,0,1,9.99.838c2.964,1.255,5.775,2.531,8.479,3.715,5.367,2.384,10.213,4.538,14.316,6.362,3.994,1.808,7.258,3.283,9.623,4.353,1.066.5,1.926.907,2.6,1.221a4.854,4.854,0,0,1,.884.475,4.522,4.522,0,0,1-.951-.327l-2.658-1.082-9.718-4.114-14.371-6.2-8.477-3.663a19.943,19.943,0,0,0-9.6-.779,21.073,21.073,0,0,0-9,3.466,10.958,10.958,0,0,0-3.142,3.261c-.733,1.3-1.3,2.709-1.909,4.02-2.039,5.443-1.827,11.035.23,14.947a22.492,22.492,0,0,0,6.586,7.979c.968.774,1.778,1.3,2.324,1.661a6.29,6.29,0,0,1,.834.553" transform="translate(-101.582 38.864)" fill="#263238"/>
                <path id="Trazado_873922" data-name="Trazado 873922" d="M157.82,15.4a5.248,5.248,0,0,0-3.727-2.854,7.177,7.177,0,0,0-8.631,5.517,3.054,3.054,0,0,0-3.1.175,2.837,2.837,0,0,0-1.193,2.73l-1.909.118c.421,1.677,2.828,2.6,4.469,3.144a5.255,5.255,0,0,0,4.886-.915,4.391,4.391,0,1,0,7.921-3.66A3.423,3.423,0,0,0,157.82,15.4" transform="translate(-96.948 9.491)" fill="#263238"/>
              </g>
            </g>
          </g>
        </g>
      </g>
    </g>
  </g>
</svg>
