<svg xmlns="http://www.w3.org/2000/svg" xmlns:xlink="http://www.w3.org/1999/xlink" width="295" height="221.965" viewBox="0 0 295 221.965">
  <defs>
    <linearGradient id="linear-gradient" x1="0.814" y1="0.117" x2="0.236" y2="0.921" gradientUnits="objectBoundingBox">
      <stop offset="0" stop-color="#be79ca"/>
      <stop offset="1" stop-color="#371f63"/>
    </linearGradient>
  </defs>
  <g id="Grupo_1102801" data-name="Grupo 1102801" transform="translate(-285.047 -2140.215)">
    <g id="Grupo_1102794" data-name="Grupo 1102794" transform="translate(0 -107.633)">
      <g id="Grupo_1102750" data-name="Grupo 1102750" transform="translate(54.632 -2372.152)">
        <g id="Grupo_1099952" data-name="Grupo 1099952" transform="translate(230.415 4620)">
          <path id="Trazado_145968" data-name="Trazado 145968" d="M49.2,0A49.2,49.2,0,1,0,98.4,49.2,49.2,49.2,0,0,0,49.2,0Z" transform="translate(7.561 119.354)" fill="#75baf1" opacity="0.444"/>
          <path id="Trazado_145969" data-name="Trazado 145969" d="M33.618,0A33.618,33.618,0,1,0,67.237,33.618,33.618,33.618,0,0,0,33.618,0Z" transform="translate(200.275 12.836)" fill="#75baf1" opacity="0.444"/>
          <rect id="Rectángulo_34812" data-name="Rectángulo 34812" width="295" height="221.25" transform="translate(0 0.357)" fill="none"/>
          <path id="Trazado_145967" data-name="Trazado 145967" d="M110.983,0A110.983,110.983,0,1,0,221.966,110.983,110.983,110.983,0,0,0,110.983,0Z" transform="translate(36.517 0)" fill="url(#linear-gradient)"/>
          <path id="Trazado_145971" data-name="Trazado 145971" d="M9.243,0a9.243,9.243,0,1,0,9.243,9.243A9.243,9.243,0,0,0,9.243,0Z" transform="translate(239.996 184.805)" fill="#75baf1"/>
          <path id="Elipse_4044" data-name="Elipse 4044" d="M12.535,3.388a9.147,9.147,0,1,1-9.147,9.147,9.158,9.158,0,0,1,9.147-9.147m0-3.388A12.535,12.535,0,1,0,25.071,12.535,12.535,12.535,0,0,0,12.535,0Z" transform="translate(214.926 79.167)" fill="#fff"/>
        </g>
      </g>
      <g id="conductual" transform="translate(353.214 2273.356)">
        <g id="Grupo_1102755" data-name="Grupo 1102755" transform="translate(9.857 22.139)">
          <g id="Grupo_1102752" data-name="Grupo 1102752" transform="translate(39.136)">
            <path id="Trazado_877186" data-name="Trazado 877186" d="M200.931,31.014c-1.57.289-3.15.637-4.7,1.034a2.324,2.324,0,1,0,1.156,4.5c1.443-.371,2.918-.7,4.382-.965a2.324,2.324,0,1,0-.841-4.572Z" transform="translate(-183.209 -29.867)" fill="#99e6fc"/>
            <path id="Trazado_877187" data-name="Trazado 877187" d="M160.88,49.411c.947-.446,1.917-.875,2.888-1.275a2.324,2.324,0,0,0-1.77-4.3c-1.067.439-2.135.911-3.176,1.4a2.315,2.315,0,0,0-.728.54,28.087,28.087,0,0,1,2.786,3.631Z" transform="translate(-158.094 -38.623)" fill="#99e6fc"/>
            <path id="Trazado_877188" data-name="Trazado 877188" d="M291.182,31.225c-1.552-.366-3.139-.683-4.715-.941a2.324,2.324,0,1,0-.752,4.587c1.471.241,2.951.536,4.4.878a2.324,2.324,0,0,0,1.068-4.524Z" transform="translate(-244.822 -29.369)" fill="#99e6fc"/>
            <path id="Trazado_877189" data-name="Trazado 877189" d="M245.954,27.423c-1.606-.039-3.216-.024-4.806.046a2.324,2.324,0,0,0,.1,4.646l.1,0c1.492-.065,3-.079,4.49-.043a2.324,2.324,0,1,0,.114-4.647Z" transform="translate(-213.875 -27.402)" fill="#99e6fc"/>
            <path id="Trazado_877190" data-name="Trazado 877190" d="M332.62,48.318a28.156,28.156,0,0,1,2.787-3.63,2.32,2.32,0,0,0-.729-.54c-1.448-.683-2.934-1.322-4.418-1.9a2.324,2.324,0,0,0-1.685,4.332C329.933,47.11,331.294,47.695,332.62,48.318Z" transform="translate(-274.72 -37.539)" fill="#99e6fc"/>
          </g>
          <g id="Grupo_1102753" data-name="Grupo 1102753" transform="translate(95.595 55.715)">
            <path id="Trazado_877191" data-name="Trazado 877191" d="M381.553,409.865c-1.136.966-2.319,1.9-3.517,2.787a2.324,2.324,0,0,0,2.76,3.74c1.283-.947,2.55-1.951,3.768-2.986a2.324,2.324,0,0,0-3.011-3.541Z" transform="translate(-365.684 -346.674)" fill="#99e6fc"/>
            <path id="Trazado_877192" data-name="Trazado 877192" d="M462.761,214.351a2.325,2.325,0,0,0,2.31,2.09c.078,0,.158,0,.237-.012a2.324,2.324,0,0,0,2.078-2.547c-.161-1.589-.38-3.192-.651-4.764a2.324,2.324,0,0,0-4.581.788C462.407,211.373,462.611,212.869,462.761,214.351Z" transform="translate(-424.363 -207.187)" fill="#99e6fc"/>
            <path id="Trazado_877193" data-name="Trazado 877193" d="M345.068,435c-1.309.711-2.66,1.385-4.014,2a2.316,2.316,0,0,0-.772.571,11.43,11.43,0,0,1,2.586,3.7c.038-.015.077-.028.115-.045,1.452-.663,2.9-1.385,4.3-2.146A2.324,2.324,0,1,0,345.068,435Z" transform="translate(-340.282 -364.205)" fill="#99e6fc"/>
            <path id="Trazado_877194" data-name="Trazado 877194" d="M417.015,377.334a2.324,2.324,0,0,0-3.261.412c-.912,1.176-1.878,2.336-2.871,3.449a2.324,2.324,0,1,0,3.468,3.095c1.064-1.192,2.1-2.435,3.075-3.695A2.324,2.324,0,0,0,417.015,377.334Z" transform="translate(-388.597 -324.27)" fill="#99e6fc"/>
            <path id="Trazado_877195" data-name="Trazado 877195" d="M466.81,252.011l-.084,0a2.324,2.324,0,0,0-2.321,2.241c-.053,1.491-.159,3-.314,4.475a2.324,2.324,0,0,0,2.069,2.554,2.349,2.349,0,0,0,.245.013,2.324,2.324,0,0,0,2.309-2.082c.166-1.584.279-3.2.336-4.794a2.324,2.324,0,0,0-2.24-2.405Z" transform="translate(-425.714 -238.119)" fill="#99e6fc"/>
            <path id="Trazado_877196" data-name="Trazado 877196" d="M458.943,296.553a2.325,2.325,0,0,0-2.816,1.7c-.358,1.444-.773,2.9-1.231,4.312a2.324,2.324,0,1,0,4.423,1.431c.492-1.519.936-3.074,1.32-4.623a2.325,2.325,0,0,0-1.7-2.816Z" transform="translate(-419.3 -268.811)" fill="#99e6fc"/>
            <path id="Trazado_877197" data-name="Trazado 877197" d="M442.1,338.936a2.324,2.324,0,0,0-3.106,1.075c-.651,1.341-1.358,2.675-2.1,3.964a2.324,2.324,0,1,0,4.03,2.316c.795-1.382,1.552-2.812,2.25-4.249A2.325,2.325,0,0,0,442.1,338.936Z" transform="translate(-406.738 -297.946)" fill="#99e6fc"/>
          </g>
          <g id="Grupo_1102754" data-name="Grupo 1102754" transform="translate(0 49.324)">
            <path id="Trazado_877198" data-name="Trazado 877198" d="M34.12,237.264h.012a2.324,2.324,0,0,0,2.324-2.312c.008-1.492.068-3,.177-4.484A2.324,2.324,0,0,0,32,230.125c-.117,1.589-.181,3.2-.19,4.8A2.324,2.324,0,0,0,34.12,237.264Z" transform="translate(-31.808 -215.141)" fill="#99e6fc"/>
            <path id="Trazado_877199" data-name="Trazado 877199" d="M39.063,279.311c-.3-1.458-.548-2.946-.743-4.424a2.324,2.324,0,1,0-4.608.61c.21,1.584.478,3.18.8,4.743a2.324,2.324,0,1,0,4.555-.929Z" transform="translate(-33.108 -246.123)" fill="#99e6fc"/>
            <path id="Trazado_877200" data-name="Trazado 877200" d="M38.315,186.565a2.315,2.315,0,0,0-.42.809c-.444,1.535-.84,3.1-1.176,4.663a2.324,2.324,0,1,0,4.544.979c.307-1.427.669-2.863,1.074-4.269A27.974,27.974,0,0,1,38.315,186.565Z" transform="translate(-35.161 -186.565)" fill="#99e6fc"/>
            <path id="Trazado_877201" data-name="Trazado 877201" d="M67.838,358.2a2.324,2.324,0,0,0-3.965,2.426c.834,1.364,1.726,2.714,2.651,4.013a2.324,2.324,0,0,0,3.787-2.7C69.448,360.731,68.617,359.471,67.838,358.2Z" transform="translate(-53.7 -304.243)" fill="#99e6fc"/>
            <path id="Trazado_877202" data-name="Trazado 877202" d="M50.354,322.263c-.593-1.364-1.147-2.768-1.645-4.173a2.324,2.324,0,1,0-4.381,1.553c.534,1.506,1.127,3.012,1.764,4.475a2.324,2.324,0,0,0,4.262-1.854Z" transform="translate(-40.356 -276.263)" fill="#99e6fc"/>
            <path id="Trazado_877203" data-name="Trazado 877203" d="M130.3,428.879a3.175,3.175,0,0,1,2.527-3.1,2.312,2.312,0,0,0-.9-1.009c-1.165-.706-2.325-1.461-3.447-2.242a2.324,2.324,0,1,0-2.656,3.815c1.2.837,2.446,1.646,3.695,2.4a2.309,2.309,0,0,0,.786.294v-.156Z" transform="translate(-95.998 -349.114)" fill="#99e6fc"/>
            <path id="Trazado_877204" data-name="Trazado 877204" d="M94.825,393.5a2.324,2.324,0,0,0-3.382,3.189c1.093,1.16,2.242,2.3,3.415,3.382a2.324,2.324,0,1,0,3.156-3.413C96.918,395.648,95.846,394.586,94.825,393.5Z" transform="translate(-72.525 -328.87)" fill="#99e6fc"/>
          </g>
        </g>
        <g id="Grupo_1102768" data-name="Grupo 1102768" transform="translate(0 19.776)">
          <g id="Grupo_1102762" data-name="Grupo 1102762" transform="translate(0)">
            <g id="Grupo_1102758" data-name="Grupo 1102758">
              <g id="Grupo_1102756" data-name="Grupo 1102756" transform="translate(0 0)">
                <path id="Trazado_877205" data-name="Trazado 877205" d="M56.22,52.3A28.271,28.271,0,1,0,28.27,76.315,28.189,28.189,0,0,0,38.8,74.286,42.345,42.345,0,0,1,56.22,52.3Z" transform="translate(0 -19.776)" fill="#ffe177"/>
              </g>
              <g id="Grupo_1102757" data-name="Grupo 1102757" transform="translate(21.629)">
                <path id="Trazado_877206" data-name="Trazado 877206" d="M76.435,19.776a28.333,28.333,0,0,0-6.64.787,28.275,28.275,0,0,1,0,54.966,28.379,28.379,0,0,0,17.173-1.242A42.344,42.344,0,0,1,104.386,52.3,28.29,28.29,0,0,0,76.435,19.776Z" transform="translate(-69.795 -19.776)" fill="#ffd15b"/>
              </g>
            </g>
            <g id="Grupo_1102761" data-name="Grupo 1102761" transform="translate(102.127)">
              <g id="Grupo_1102759" data-name="Grupo 1102759" transform="translate(0 0)">
                <path id="Trazado_877207" data-name="Trazado 877207" d="M357.824,19.776A28.284,28.284,0,0,0,330.064,53.4a42.366,42.366,0,0,1,6.094,5.207,41.9,41.9,0,0,1,9.316,14.87,28.272,28.272,0,1,0,12.35-53.7Z" transform="translate(-329.554 -19.776)" fill="#75baf1"/>
              </g>
            </g>
          </g>
          <g id="Grupo_1102767" data-name="Grupo 1102767" transform="translate(36.229 25.73)">
            <g id="Grupo_1102763" data-name="Grupo 1102763">
              <path id="Trazado_877209" data-name="Trazado 877209" d="M206.535,159.082l-4.358-7.089a5.424,5.424,0,0,1-.768-3.3q.147-1.763.149-3.564a42.325,42.325,0,1,0-68.317,33.4,4.29,4.29,0,0,1,1.632,3.389v23.453h35.313v-7.255a4.339,4.339,0,0,1,4.339-4.339h11.193a12.22,12.22,0,0,0,12.22-12.22v-13.6a1.824,1.824,0,0,1,1.824-1.824h2.832a4.624,4.624,0,0,0,3.94-7.046Z" transform="translate(-116.909 -102.804)" fill="#fff"/>
            </g>
          </g>
        </g>
        <g id="Grupo_1102773" data-name="Grupo 1102773" transform="translate(16.864 33.055)">
          <g id="Grupo_1102769" data-name="Grupo 1102769" transform="translate(0.293 18.456)">
            <path id="Trazado_877212" data-name="Trazado 877212" d="M66.477,135.619a11.125,11.125,0,0,1-11.113-11.113,2.324,2.324,0,0,1,4.648,0,6.464,6.464,0,0,0,12.929,0,2.324,2.324,0,0,1,4.648,0,11.126,11.126,0,0,1-11.113,11.113Z" transform="translate(-55.364 -122.182)" fill="#f6ab31"/>
          </g>
          <g id="Grupo_1102772" data-name="Grupo 1102772" transform="translate(0 0)">
            <g id="Grupo_1102770" data-name="Grupo 1102770">
              <path id="Trazado_877213" data-name="Trazado 877213" d="M56.742,73.134a2.324,2.324,0,0,1-2.324-2.324V64.951a2.324,2.324,0,0,1,4.648,0V70.81A2.324,2.324,0,0,1,56.742,73.134Z" transform="translate(-54.418 -62.627)" fill="#f6ab31"/>
            </g>
            <g id="Grupo_1102771" data-name="Grupo 1102771" transform="translate(18.163)">
              <path id="Trazado_877214" data-name="Trazado 877214" d="M115.352,73.134a2.324,2.324,0,0,1-2.324-2.324V64.951a2.324,2.324,0,0,1,4.648,0V70.81A2.324,2.324,0,0,1,115.352,73.134Z" transform="translate(-113.028 -62.627)" fill="#f6ab31"/>
            </g>
          </g>
        </g>
        <g id="Grupo_1102774" data-name="Grupo 1102774" transform="translate(119.285 51.511)">
          <path id="Trazado_877215" data-name="Trazado 877215" d="M404.819,135.619a2.324,2.324,0,0,1-2.324-2.324,6.464,6.464,0,0,0-12.929,0,2.324,2.324,0,0,1-4.648,0,11.113,11.113,0,0,1,22.225,0,2.324,2.324,0,0,1-2.324,2.324Z" transform="translate(-384.918 -122.182)" fill="#9857bd"/>
        </g>
        <g id="Grupo_1102778" data-name="Grupo 1102778" transform="translate(118.991 33.055)">
          <g id="Grupo_1102777" data-name="Grupo 1102777" transform="translate(0 0)">
            <g id="Grupo_1102775" data-name="Grupo 1102775">
              <path id="Trazado_877216" data-name="Trazado 877216" d="M386.3,73.134a2.324,2.324,0,0,1-2.324-2.324V64.951a2.324,2.324,0,0,1,4.648,0V70.81A2.324,2.324,0,0,1,386.3,73.134Z" transform="translate(-383.972 -62.627)" fill="#9857bd"/>
            </g>
            <g id="Grupo_1102776" data-name="Grupo 1102776" transform="translate(18.163)">
              <path id="Trazado_877217" data-name="Trazado 877217" d="M444.906,73.134a2.324,2.324,0,0,1-2.324-2.324V64.951a2.324,2.324,0,0,1,4.648,0V70.81A2.324,2.324,0,0,1,444.906,73.134Z" transform="translate(-442.582 -62.627)" fill="#9857bd"/>
            </g>
          </g>
        </g>
        <g id="Grupo_1102779" data-name="Grupo 1102779" transform="translate(54.703 74.609)">
          <path id="Trazado_877218" data-name="Trazado 877218" d="M338.371,231.989V236.9a2.324,2.324,0,1,0,4.648,0v-4.911a2.324,2.324,0,1,0-4.648,0Z" transform="translate(-288.214 -219.454)" fill="#f89580"/>
          <path id="Trazado_877219" data-name="Trazado 877219" d="M342.245,338.461h-13.9a2.324,2.324,0,0,0,0,4.648h13.9Z" transform="translate(-279.689 -294.535)" fill="#f89580"/>
          <path id="Trazado_877220" data-name="Trazado 877220" d="M318,197.4a2.324,2.324,0,0,0-3.287,0l-6.86,6.86a2.324,2.324,0,0,0,3.287,3.286l6.86-6.86A2.324,2.324,0,0,0,318,197.4Z" transform="translate(-266.684 -196.717)" fill="#f89580"/>
          <path id="Trazado_877221" data-name="Trazado 877221" d="M188.6,230.34a12.131,12.131,0,0,0-12.076,12.076v5.78A12.09,12.09,0,0,0,188.6,260.273h3.035a2.324,2.324,0,0,0,0-4.648H188.6a7.436,7.436,0,0,1-7.428-7.428v-5.78a7.417,7.417,0,0,1,13.618-4.081,2.324,2.324,0,0,0,3.872-2.571A12.063,12.063,0,0,0,188.6,230.34Z" transform="translate(-176.52 -219.92)" fill="#f89580"/>
          <path id="Trazado_877222" data-name="Trazado 877222" d="M209.171,259.433a2.324,2.324,0,0,0-2.324,2.324v1.725H203.84a2.324,2.324,0,0,0,0,4.648h3.006v1.725a2.324,2.324,0,0,0,4.648,0v-8.1A2.324,2.324,0,0,0,209.171,259.433Z" transform="translate(-193.77 -239.997)" fill="#f89580"/>
        </g>
        <g id="Grupo_1102780" data-name="Grupo 1102780" transform="translate(43.848 147.749)">
          <path id="Trazado_877223" data-name="Trazado 877223" d="M203.451,451.167H144.972a3.48,3.48,0,0,1-3.48-3.48V436.21a3.48,3.48,0,0,1,3.48-3.48h50.263a11.7,11.7,0,0,1,11.7,11.7v3.261A3.479,3.479,0,0,1,203.451,451.167Z" transform="translate(-141.492 -432.73)" fill="#26a6fe"/>
        </g>
        <g id="Grupo_1102781" data-name="Grupo 1102781" transform="translate(84.231 147.749)">
          <path id="Trazado_877224" data-name="Trazado 877224" d="M285.165,432.73H271.8a11.7,11.7,0,0,1,11.7,11.7v3.261a3.48,3.48,0,0,1-3.48,3.48h13.36a3.48,3.48,0,0,0,3.48-3.48v-3.261A11.7,11.7,0,0,0,285.165,432.73Z" transform="translate(-271.805 -432.73)" fill="#0593fc"/>
        </g>
      </g>
    </g>
  </g>
</svg>
