<svg xmlns="http://www.w3.org/2000/svg" xmlns:xlink="http://www.w3.org/1999/xlink" width="399.994" height="409.961" viewBox="0 0 399.994 409.961">
  <defs>
    <clipPath id="clip-path">
      <rect id="Rectángulo_401173" data-name="Rectángulo 401173" width="399.994" height="409.961" fill="none"/>
    </clipPath>
  </defs>
  <g id="Grupo_1102802" data-name="Grupo 1102802" transform="translate(-600 -1419)">
    <path id="Trazado_877274" data-name="Trazado 877274" d="M-45.383-11.375l2.922,8.25,2.906-8.25h3.078V0h-2.352V-3.109l.234-5.367L-41.664,0h-1.609l-3.062-8.469.234,5.359V0h-2.344V-11.375ZM-30.687.156A4.15,4.15,0,0,1-33.715-.984a4.054,4.054,0,0,1-1.168-3.039v-.219a5.106,5.106,0,0,1,.492-2.277A3.612,3.612,0,0,1-33-8.066a3.914,3.914,0,0,1,2.059-.543,3.508,3.508,0,0,1,2.73,1.094,4.444,4.444,0,0,1,1,3.1v.922h-5.383a2.1,2.1,0,0,0,.66,1.328,2,2,0,0,0,1.395.5A2.437,2.437,0,0,0-28.5-2.609l1.109,1.242A3.389,3.389,0,0,1-28.766-.246,4.511,4.511,0,0,1-30.687.156Zm-.258-6.945a1.411,1.411,0,0,0-1.09.455,2.357,2.357,0,0,0-.535,1.3h3.141v-.181a1.681,1.681,0,0,0-.406-1.165A1.456,1.456,0,0,0-30.945-6.789Zm.2-5.211h2.461l-2.164,2.422h-1.836Zm7.516,1.469v2.078h1.445V-6.8h-1.445v4.219a1.007,1.007,0,0,0,.18.672.9.9,0,0,0,.688.2,3.6,3.6,0,0,0,.664-.055V-.047a4.648,4.648,0,0,1-1.367.2,2.156,2.156,0,0,1-2.422-2.4V-6.8h-1.234V-8.453h1.234v-2.078ZM-21.109-4.3a5.013,5.013,0,0,1,.484-2.242A3.546,3.546,0,0,1-19.23-8.07a4.069,4.069,0,0,1,2.113-.539,3.849,3.849,0,0,1,2.793,1.047,4.2,4.2,0,0,1,1.207,2.844l.016.578A4.418,4.418,0,0,1-14.187-1.02,3.775,3.775,0,0,1-17.1.156,3.793,3.793,0,0,1-20.02-1.016,4.5,4.5,0,0,1-21.109-4.2Zm2.258.16A3.16,3.16,0,0,0-18.4-2.3a1.5,1.5,0,0,0,1.3.638,1.5,1.5,0,0,0,1.281-.63,3.457,3.457,0,0,0,.461-2.015A3.128,3.128,0,0,0-15.82-6.14a1.5,1.5,0,0,0-1.3-.649,1.474,1.474,0,0,0-1.281.646A3.516,3.516,0,0,0-18.852-4.144Zm6.789-.145a5.094,5.094,0,0,1,.887-3.148A2.877,2.877,0,0,1-8.75-8.609a2.589,2.589,0,0,1,2.039.922V-12h2.266V0H-6.484l-.109-.9A2.657,2.657,0,0,1-8.766.156,2.869,2.869,0,0,1-11.16-1.02,5.258,5.258,0,0,1-12.062-4.289Zm2.258.168A3.337,3.337,0,0,0-9.391-2.3a1.349,1.349,0,0,0,1.2.634,1.511,1.511,0,0,0,1.477-.884V-5.889a1.489,1.489,0,0,0-1.461-.884Q-9.8-6.773-9.8-4.121ZM-3.047-4.3a5.013,5.013,0,0,1,.484-2.242A3.546,3.546,0,0,1-1.168-8.07,4.069,4.069,0,0,1,.945-8.609,3.849,3.849,0,0,1,3.738-7.562,4.2,4.2,0,0,1,4.945-4.719l.016.578A4.418,4.418,0,0,1,3.875-1.02,3.775,3.775,0,0,1,.961.156,3.793,3.793,0,0,1-1.957-1.016,4.5,4.5,0,0,1-3.047-4.2Zm2.258.16A3.16,3.16,0,0,0-.336-2.3a1.5,1.5,0,0,0,1.3.638,1.5,1.5,0,0,0,1.281-.63A3.457,3.457,0,0,0,2.7-4.309,3.128,3.128,0,0,0,2.242-6.14a1.5,1.5,0,0,0-1.3-.649,1.474,1.474,0,0,0-1.281.646A3.516,3.516,0,0,0-.789-4.144ZM10.93-2.336a.727.727,0,0,0-.41-.652A4.659,4.659,0,0,0,9.2-3.414Q6.187-4.047,6.188-5.977a2.323,2.323,0,0,1,.934-1.879,3.766,3.766,0,0,1,2.441-.754,4.053,4.053,0,0,1,2.574.758A2.388,2.388,0,0,1,13.1-5.883H10.844a1.092,1.092,0,0,0-.312-.8A1.322,1.322,0,0,0,9.555-7a1.351,1.351,0,0,0-.883.258.814.814,0,0,0-.312.656.7.7,0,0,0,.355.605,3.657,3.657,0,0,0,1.2.4,9.8,9.8,0,0,1,1.422.379A2.336,2.336,0,0,1,13.125-2.43a2.2,2.2,0,0,1-.992,1.871A4.28,4.28,0,0,1,9.57.156,4.47,4.47,0,0,1,7.684-.223,3.166,3.166,0,0,1,6.391-1.262a2.414,2.414,0,0,1-.469-1.426H8.063a1.179,1.179,0,0,0,.445.922,1.766,1.766,0,0,0,1.109.32,1.635,1.635,0,0,0,.98-.246A.766.766,0,0,0,10.93-2.336ZM26.172-4.148a5.07,5.07,0,0,1-.887,3.129A2.843,2.843,0,0,1,22.891.156a2.633,2.633,0,0,1-2.07-.891V3.25H18.563v-11.7h2.094l.078.828a2.654,2.654,0,0,1,2.141-.984A2.862,2.862,0,0,1,25.3-7.453a5.207,5.207,0,0,1,.867,3.188Zm-2.258-.164a3.327,3.327,0,0,0-.418-1.82,1.361,1.361,0,0,0-1.215-.641,1.478,1.478,0,0,0-1.461.813V-2.5a1.5,1.5,0,0,0,1.477.836Q23.914-1.664,23.914-4.312ZM32.469,0a2.507,2.507,0,0,1-.227-.758,2.732,2.732,0,0,1-2.133.914,3,3,0,0,1-2.059-.719,2.312,2.312,0,0,1-.816-1.812,2.389,2.389,0,0,1,1-2.062,4.915,4.915,0,0,1,2.879-.727h1.039v-.484a1.393,1.393,0,0,0-.3-.937,1.183,1.183,0,0,0-.949-.352A1.345,1.345,0,0,0,30-6.664a.929.929,0,0,0-.324.75H27.422a2.268,2.268,0,0,1,.453-1.359,3,3,0,0,1,1.281-.98,4.669,4.669,0,0,1,1.859-.355,3.689,3.689,0,0,1,2.48.785,2.747,2.747,0,0,1,.918,2.207v3.664a4.041,4.041,0,0,0,.336,1.82V0ZM30.6-1.57a1.945,1.945,0,0,0,.922-.223,1.462,1.462,0,0,0,.625-.6V-3.844H31.3q-1.7,0-1.8,1.172l-.008.133a.9.9,0,0,0,.3.7A1.153,1.153,0,0,0,30.6-1.57ZM40.9-6.336a6.134,6.134,0,0,0-.812-.062,1.654,1.654,0,0,0-1.68.867V0H36.148V-8.453h2.133l.063,1.008a2.092,2.092,0,0,1,1.883-1.164,2.366,2.366,0,0,1,.7.1ZM46.648,0a2.507,2.507,0,0,1-.227-.758,2.732,2.732,0,0,1-2.133.914A3,3,0,0,1,42.23-.562a2.312,2.312,0,0,1-.816-1.812,2.389,2.389,0,0,1,1-2.062,4.915,4.915,0,0,1,2.879-.727h1.039v-.484a1.393,1.393,0,0,0-.3-.937,1.183,1.183,0,0,0-.949-.352,1.345,1.345,0,0,0-.895.273.929.929,0,0,0-.324.75H41.6a2.268,2.268,0,0,1,.453-1.359,3,3,0,0,1,1.281-.98A4.669,4.669,0,0,1,45.2-8.609a3.689,3.689,0,0,1,2.48.785,2.747,2.747,0,0,1,.918,2.207v3.664a4.041,4.041,0,0,0,.336,1.82V0ZM44.781-1.57a1.945,1.945,0,0,0,.922-.223,1.462,1.462,0,0,0,.625-.6V-3.844h-.844q-1.7,0-1.8,1.172l-.008.133a.9.9,0,0,0,.3.7A1.153,1.153,0,0,0,44.781-1.57ZM-52.785,13.664A6.134,6.134,0,0,0-53.6,13.6a1.654,1.654,0,0,0-1.68.867V20h-2.258V11.547H-55.4l.063,1.008a2.092,2.092,0,0,1,1.883-1.164,2.366,2.366,0,0,1,.7.1Zm4.828,6.492a4.15,4.15,0,0,1-3.027-1.141,4.054,4.054,0,0,1-1.168-3.039v-.219a5.106,5.106,0,0,1,.492-2.277,3.612,3.612,0,0,1,1.395-1.547,3.914,3.914,0,0,1,2.059-.543,3.508,3.508,0,0,1,2.73,1.094,4.444,4.444,0,0,1,1,3.1v.922h-5.383a2.1,2.1,0,0,0,.66,1.328,2,2,0,0,0,1.395.5,2.437,2.437,0,0,0,2.039-.945l1.109,1.242a3.389,3.389,0,0,1-1.375,1.121A4.511,4.511,0,0,1-47.957,20.156Zm-.258-6.945a1.411,1.411,0,0,0-1.09.455,2.357,2.357,0,0,0-.535,1.3H-46.7v-.181a1.681,1.681,0,0,0-.406-1.165A1.456,1.456,0,0,0-48.215,13.211Zm8.531,5.125a1.481,1.481,0,0,0,1.016-.344,1.2,1.2,0,0,0,.406-.914h2.117a2.9,2.9,0,0,1-.469,1.574,3.093,3.093,0,0,1-1.262,1.109,3.949,3.949,0,0,1-1.77.395A3.67,3.67,0,0,1-42.5,19a4.56,4.56,0,0,1-1.047-3.184v-.148a4.508,4.508,0,0,1,1.039-3.117,3.627,3.627,0,0,1,2.852-1.164,3.555,3.555,0,0,1,2.543.9,3.2,3.2,0,0,1,.973,2.4h-2.117a1.551,1.551,0,0,0-.406-1.072,1.354,1.354,0,0,0-1.031-.412,1.36,1.36,0,0,0-1.191.575,3.333,3.333,0,0,0-.4,1.866v.235a3.375,3.375,0,0,0,.4,1.878A1.377,1.377,0,0,0-39.684,18.336Zm4.477-2.641a5.013,5.013,0,0,1,.484-2.242,3.546,3.546,0,0,1,1.395-1.523,4.069,4.069,0,0,1,2.113-.539,3.849,3.849,0,0,1,2.793,1.047,4.2,4.2,0,0,1,1.207,2.844l.016.578a4.418,4.418,0,0,1-1.086,3.121A3.775,3.775,0,0,1-31.2,20.156a3.793,3.793,0,0,1-2.918-1.172,4.5,4.5,0,0,1-1.09-3.187Zm2.258.16A3.16,3.16,0,0,0-32.5,17.7a1.5,1.5,0,0,0,1.3.638,1.5,1.5,0,0,0,1.281-.63,3.457,3.457,0,0,0,.461-2.015,3.128,3.128,0,0,0-.461-1.831,1.5,1.5,0,0,0-1.3-.649,1.474,1.474,0,0,0-1.281.646A3.516,3.516,0,0,0-32.949,15.856ZM-23.426,20h-2.266V8h2.266Zm5.75.156A4.15,4.15,0,0,1-20.7,19.016a4.054,4.054,0,0,1-1.168-3.039v-.219a5.106,5.106,0,0,1,.492-2.277,3.612,3.612,0,0,1,1.395-1.547,3.914,3.914,0,0,1,2.059-.543,3.508,3.508,0,0,1,2.73,1.094,4.444,4.444,0,0,1,1,3.1v.922h-5.383a2.1,2.1,0,0,0,.66,1.328,2,2,0,0,0,1.395.5,2.437,2.437,0,0,0,2.039-.945l1.109,1.242a3.389,3.389,0,0,1-1.375,1.121A4.511,4.511,0,0,1-17.676,20.156Zm-.258-6.945a1.411,1.411,0,0,0-1.09.455,2.357,2.357,0,0,0-.535,1.3h3.141v-.181a1.681,1.681,0,0,0-.406-1.165A1.456,1.456,0,0,0-17.934,13.211ZM-9.4,18.336a1.481,1.481,0,0,0,1.016-.344,1.2,1.2,0,0,0,.406-.914h2.117a2.9,2.9,0,0,1-.469,1.574,3.093,3.093,0,0,1-1.262,1.109,3.949,3.949,0,0,1-1.77.395A3.67,3.67,0,0,1-12.223,19,4.56,4.56,0,0,1-13.27,15.82v-.148a4.508,4.508,0,0,1,1.039-3.117,3.627,3.627,0,0,1,2.852-1.164,3.555,3.555,0,0,1,2.543.9,3.2,3.2,0,0,1,.973,2.4H-7.98a1.551,1.551,0,0,0-.406-1.072,1.354,1.354,0,0,0-1.031-.412,1.36,1.36,0,0,0-1.191.575,3.333,3.333,0,0,0-.4,1.866v.235a3.375,3.375,0,0,0,.4,1.878A1.377,1.377,0,0,0-9.4,18.336Zm7.531-8.867v2.078H-.426V13.2H-1.871v4.219a1.007,1.007,0,0,0,.18.672A.9.9,0,0,0-1,18.3a3.6,3.6,0,0,0,.664-.055v1.711a4.648,4.648,0,0,1-1.367.2,2.156,2.156,0,0,1-2.422-2.4V13.2H-5.363V11.547h1.234V9.469ZM5.73,20a2.507,2.507,0,0,1-.227-.758,2.732,2.732,0,0,1-2.133.914,3,3,0,0,1-2.059-.719A2.312,2.312,0,0,1,.5,17.625a2.389,2.389,0,0,1,1-2.062,4.915,4.915,0,0,1,2.879-.727H5.41v-.484a1.393,1.393,0,0,0-.3-.937,1.183,1.183,0,0,0-.949-.352,1.345,1.345,0,0,0-.895.273.929.929,0,0,0-.324.75H.684a2.268,2.268,0,0,1,.453-1.359,3,3,0,0,1,1.281-.98,4.669,4.669,0,0,1,1.859-.355,3.689,3.689,0,0,1,2.48.785,2.747,2.747,0,0,1,.918,2.207v3.664a4.041,4.041,0,0,0,.336,1.82V20ZM3.863,18.43a1.945,1.945,0,0,0,.922-.223,1.462,1.462,0,0,0,.625-.6V16.156H4.566q-1.7,0-1.8,1.172l-.008.133a.9.9,0,0,0,.3.7A1.153,1.153,0,0,0,3.863,18.43Zm10.3-4.766a6.134,6.134,0,0,0-.812-.062,1.654,1.654,0,0,0-1.68.867V20H9.41V11.547h2.133l.063,1.008a2.092,2.092,0,0,1,1.883-1.164,2.366,2.366,0,0,1,.7.1Zm4.719,2.047a5.094,5.094,0,0,1,.887-3.148,2.877,2.877,0,0,1,2.426-1.172,2.589,2.589,0,0,1,2.039.922V8H26.5V20H24.457l-.109-.9a2.657,2.657,0,0,1-2.172,1.055,2.869,2.869,0,0,1-2.395-1.176A5.258,5.258,0,0,1,18.879,15.711Zm2.258.168a3.337,3.337,0,0,0,.414,1.823,1.349,1.349,0,0,0,1.2.634,1.511,1.511,0,0,0,1.477-.884V14.111a1.489,1.489,0,0,0-1.461-.884Q21.137,13.227,21.137,15.879ZM33.145,20a2.507,2.507,0,0,1-.227-.758,2.732,2.732,0,0,1-2.133.914,3,3,0,0,1-2.059-.719,2.312,2.312,0,0,1-.816-1.812,2.389,2.389,0,0,1,1-2.062,4.915,4.915,0,0,1,2.879-.727h1.039v-.484a1.393,1.393,0,0,0-.3-.937,1.183,1.183,0,0,0-.949-.352,1.345,1.345,0,0,0-.895.273.929.929,0,0,0-.324.75H28.1a2.268,2.268,0,0,1,.453-1.359,3,3,0,0,1,1.281-.98,4.669,4.669,0,0,1,1.859-.355,3.689,3.689,0,0,1,2.48.785,2.747,2.747,0,0,1,.918,2.207v3.664a4.041,4.041,0,0,0,.336,1.82V20Zm-1.867-1.57a1.945,1.945,0,0,0,.922-.223,1.462,1.462,0,0,0,.625-.6V16.156H31.98q-1.7,0-1.8,1.172l-.008.133a.9.9,0,0,0,.3.7A1.153,1.153,0,0,0,31.277,18.43Zm8.25-8.961v2.078h1.445V13.2H39.527v4.219a1.007,1.007,0,0,0,.18.672.9.9,0,0,0,.688.2,3.6,3.6,0,0,0,.664-.055v1.711a4.648,4.648,0,0,1-1.367.2,2.156,2.156,0,0,1-2.422-2.4V13.2H36.035V11.547H37.27V9.469ZM41.645,15.7a5.013,5.013,0,0,1,.484-2.242,3.546,3.546,0,0,1,1.395-1.523,4.069,4.069,0,0,1,2.113-.539,3.849,3.849,0,0,1,2.793,1.047,4.2,4.2,0,0,1,1.207,2.844l.016.578a4.418,4.418,0,0,1-1.086,3.121,4.209,4.209,0,0,1-5.832,0,4.5,4.5,0,0,1-1.09-3.187Zm2.258.16a3.16,3.16,0,0,0,.453,1.843,1.628,1.628,0,0,0,2.578.008,3.457,3.457,0,0,0,.461-2.015,3.128,3.128,0,0,0-.461-1.831,1.5,1.5,0,0,0-1.3-.649,1.474,1.474,0,0,0-1.281.646A3.516,3.516,0,0,0,43.9,15.856Zm11.719,1.808a.727.727,0,0,0-.41-.652,4.659,4.659,0,0,0-1.316-.426q-3.016-.633-3.016-2.562a2.323,2.323,0,0,1,.934-1.879,3.766,3.766,0,0,1,2.441-.754,4.053,4.053,0,0,1,2.574.758,2.388,2.388,0,0,1,.965,1.969H55.535a1.092,1.092,0,0,0-.312-.8A1.322,1.322,0,0,0,54.246,13a1.351,1.351,0,0,0-.883.258.814.814,0,0,0-.312.656.7.7,0,0,0,.355.605,3.657,3.657,0,0,0,1.2.4,9.8,9.8,0,0,1,1.422.379,2.336,2.336,0,0,1,1.789,2.273,2.2,2.2,0,0,1-.992,1.871,4.28,4.28,0,0,1-2.562.715,4.47,4.47,0,0,1-1.887-.379,3.166,3.166,0,0,1-1.293-1.039,2.414,2.414,0,0,1-.469-1.426h2.141a1.179,1.179,0,0,0,.445.922,1.766,1.766,0,0,0,1.109.32,1.635,1.635,0,0,0,.98-.246A.766.766,0,0,0,55.621,17.664Z" transform="translate(800.328 1633.064)" fill="#12263f"/>
    <g id="Grupo_1100802" data-name="Grupo 1100802" transform="translate(600 1419)" clip-path="url(#clip-path)">
      <path id="Trazado_873737" data-name="Trazado 873737" d="M471.15,1826.731a92.3,92.3,0,0,1-16.482-72.212l-54.237-12.38a148.052,148.052,0,0,0,27.224,119.278Z" transform="translate(-347.183 -1563.5)" fill="#be79ca"/>
      <path id="Trazado_873738" data-name="Trazado 873738" d="M886.71,2765.759a92.3,92.3,0,0,1-66.735-32.136l-43.494,34.687a148.052,148.052,0,0,0,110.231,53.081Z" transform="translate(-691.978 -2465.339)" fill="#6e3dc6"/>
      <path id="Trazado_873739" data-name="Trazado 873739" d="M2133.85,2733.564a92.3,92.3,0,0,1-66.733,32.141l0,55.632a148.052,148.052,0,0,0,110.227-53.089Z" transform="translate(-1865.92 -2465.285)" fill="#75baf1"/>
      <path id="Trazado_873740" data-name="Trazado 873740" d="M2866.231,1754.4a92.3,92.3,0,0,1-16.477,72.214l43.5,34.683a148.054,148.054,0,0,0,27.215-119.28Z" transform="translate(-2577.795 -1563.39)" fill="#be79ca"/>
      <path id="Trazado_873741" data-name="Trazado 873741" d="M2505.237,664.581a92.3,92.3,0,0,1,46.187,57.905l54.236-12.385a148.055,148.055,0,0,0-76.291-95.646Z" transform="translate(-2264.428 -537.777)" fill="#6e3dc6"/>
      <path id="Trazado_873742" data-name="Trazado 873742" d="M1378.715,500.568a92.3,92.3,0,0,1,74.069-.009l24.132-50.126a148.054,148.054,0,0,0-122.346.015Z" transform="translate(-1217.799 -376.559)" fill="#d3d3d3"/>
      <path id="Trazado_873743" data-name="Trazado 873743" d="M500.875,722.677a92.3,92.3,0,0,1,46.173-57.917L522.9,614.641a148.055,148.055,0,0,0-76.267,95.665Z" transform="translate(-391.956 -537.946)" fill="#75baf1"/>
      <path id="Trazado_873744" data-name="Trazado 873744" d="M0,1983.809A59.188,59.188,0,1,1,59.187,2043,59.187,59.187,0,0,1,0,1983.809" transform="translate(0 -1743.781)" fill="#be79ca"/>
      <path id="Trazado_873745" data-name="Trazado 873745" d="M497.643,1924.625h0Zm-.038,0h0m-.037,0h0m-.037,0h0m-.037,0h0m-.037,0h0m-.037,0h0m-.037,0h0m-.036,0h0m-.037,0h0" transform="translate(-438.047 -1729.485)" fill="#43b2c7"/>
      <path id="Trazado_873746" data-name="Trazado 873746" d="M0,2422.265H0Zm0-.038v0m0-.037v0m0-.037v0m0-.037s0,0,0,.007,0,0,0-.007m0-.038s0,0,0,.008,0,0,0-.008m0-.037s0,.007,0,.011,0-.008,0-.011M0,2422v0m0-.037v0m0-.037v0" transform="translate(14.296 -2181.828)" fill="#87c6ca"/>
      <path id="Trazado_873747" data-name="Trazado 873747" d="M44.891,1924.622A44.891,44.891,0,0,0,0,1969.513v.079c0,.011,0,.021,0,.031v.005c0,.011,0,.021,0,.031s0,.007,0,.01,0,.018,0,.027v.011c0,.008,0,.018,0,.026v.008c0,.009,0,.02,0,.03v.007c0,.01,0,.02,0,.03v0c0,.011,0,.021,0,.032v.075H0a44.73,44.73,0,0,0,13.154,31.324q-.279-.279-.553-.563.284.274.573.544A44.878,44.878,0,0,1,76.605,1937.8q-.269-.289-.544-.573.3.287.589.579a44.731,44.731,0,0,0-31.35-13.18h-.409" transform="translate(14.297 -1729.484)" fill="#43b2c7"/>
      <path id="Trazado_873748" data-name="Trazado 873748" d="M492.651,2917.591h0m-.039,0h0m-.032,0h0m-.033,0h0m-.038,0h0m-.038,0h0m-.038,0h0m-.034,0h0m-.036,0h0" transform="translate(-433.548 -2632.671)" fill="#13a1a7"/>
      <path id="Trazado_873749" data-name="Trazado 873749" d="M992.968,2417.291v0m0-.039v0m0-.032v0m0-.032a.032.032,0,0,1,0,0s0,0,0,0m0-.039v0m0-.038s0,0,0,.006,0,0,0-.006m0-.036v0m0-.035h0m0-.036h0" transform="translate(-888.89 -2177.347)" fill="#087"/>
      <path id="Trazado_873750" data-name="Trazado 873750" d="M208.957,2070.351a44.878,44.878,0,0,1-63.429,63.429q.269.289.544.573c-.189-.183-.378-.368-.564-.554a44.735,44.735,0,0,0,31.361,13.156h.373a44.891,44.891,0,0,0,44.891-44.891c0-.025,0-.049,0-.074v-.01c0-.008,0-.017,0-.026v-.014c0-.008,0-.015,0-.024v-.009c0-.01,0-.019,0-.029s0,0,0,0,0-.022,0-.033v-.005c0-.011,0-.021,0-.032s0,0,0-.006,0-.02,0-.031v-.038h0c0-.011,0-.024,0-.036h0A44.735,44.735,0,0,0,209,2070.357q.266.267.528.538-.284-.274-.573-.544" transform="translate(-118.055 -1862.037)" fill="#087"/>
      <path id="Trazado_873751" data-name="Trazado 873751" d="M139.391,2127.471q.274.283.553.563t.564.554c-.183-.189-.364-.381-.544-.573s-.384-.361-.573-.544m63.458-63.458c.183.189.364.381.544.573s.384.361.573.544c-.174-.18-.351-.36-.528-.538q-.292-.293-.589-.579" transform="translate(-112.491 -1856.272)" fill="#008d89"/>
      <path id="Trazado_873752" data-name="Trazado 873752" d="M851.806,3051.255a58.53,58.53,0,1,1,58.529,58.53,58.53,58.53,0,0,1-58.529-58.53" transform="translate(-774.131 -2714.653)" fill="#6e3dc6"/>
      <path id="Trazado_873753" data-name="Trazado 873753" d="M1349.449,2992.728h0Zm-.038,0h0m-.037,0h0m-.037,0h0m-.038,0h0m-.037,0h0m-.038,0h0m-.036,0h0m-.036,0h0m-.037,0h0" transform="translate(-1212.837 -2701.015)" fill="#465c71"/>
      <path id="Trazado_873754" data-name="Trazado 873754" d="M851.809,3490.369h0Zm0-.038v0m0-.036v0m0-.037v0m0-.037v0m0-.037s0,0,0,.007,0,0,0-.007m0-.037v0m0-.037v0m0-.036v0m0-.037v0" transform="translate(-760.493 -3153.359)" fill="#242b32"/>
      <path id="Trazado_873755" data-name="Trazado 873755" d="M896.7,2992.725q-.363,0-.725.006a44.891,44.891,0,0,0-44.166,44.812v.189c0,.01,0,.02,0,.031s0,.007,0,.01,0,.018,0,.027v.011c0,.009,0,.018,0,.027v.008c0,.009,0,.02,0,.029v.007c0,.01,0,.021,0,.03v0c0,.011,0,.021,0,.032v.042c0,.011,0,.022,0,.033h0a44.73,44.73,0,0,0,13.155,31.325q-.279-.279-.554-.563.284.274.573.543a44.878,44.878,0,0,1,63.429-63.429q-.269-.289-.544-.573.3.287.589.578a44.731,44.731,0,0,0-31.35-13.18H896.7" transform="translate(-760.492 -2701.014)" fill="#465c71"/>
      <path id="Trazado_873756" data-name="Trazado 873756" d="M1844.774,3485.376v0m0-.039v0m0-.032v0m0-.032a.012.012,0,0,1,0,0v0m0-.039v0m0-.038v0m0-.038v0m0-.034a.027.027,0,0,0,0,0,.027.027,0,0,1,0,0m0-.036v0" transform="translate(-1663.679 -3148.858)" fill="#0e1010"/>
      <path id="Trazado_873757" data-name="Trazado 873757" d="M1060.767,3138.454a44.878,44.878,0,0,1-63.429,63.429q.269.289.544.573-.284-.275-.563-.554a44.73,44.73,0,0,0,31.214,13.154h.52a44.89,44.89,0,0,0,44.891-44.89v-.074s0-.006,0-.011v-.026s0-.009,0-.014v-.032c0-.01,0-.02,0-.029v0c0-.011,0-.021,0-.034v0c0-.011,0-.021,0-.032v-.007c0-.01,0-.02,0-.03s0-.005,0-.008,0-.02,0-.03v0c0-.011,0-.021,0-.033v0a44.736,44.736,0,0,0-13.13-31.335q.266.267.528.538-.284-.275-.573-.544" transform="translate(-892.848 -2833.567)" fill="#0e1010"/>
      <path id="Trazado_873758" data-name="Trazado 873758" d="M991.2,3195.574q.274.284.554.563t.563.554q-.274-.284-.544-.573-.289-.269-.573-.543m63.458-63.458c.183.189.364.381.544.573s.384.361.573.544q-.262-.271-.528-.538-.292-.292-.589-.579" transform="translate(-887.28 -2827.801)" fill="#13181d"/>
      <path id="Trazado_873759" data-name="Trazado 873759" d="M2217.977,3051.206a58.531,58.531,0,1,1,58.531,58.531,58.531,58.531,0,0,1-58.531-58.531" transform="translate(-2016.78 -2714.609)" fill="#75baf1"/>
      <path id="Trazado_873760" data-name="Trazado 873760" d="M2217.979,3037.974h0Zm0-.038v0m0-.037v0m0-.037v0m0-.038v0m0-.037v0m0-.037v0m0-.037s0,.007,0,.01,0-.007,0-.01m0-.036v0m0-.037v0m45.3-44.963h0m-.038,0h0m-.037,0h0m-.037,0h0m-.038,0h0m-.037,0h0m-.038,0h0m-.036,0h0m-.037,0h0m-.037,0h0" transform="translate(-2003.14 -2700.968)" fill="#ed6f39"/>
      <path id="Trazado_873761" data-name="Trazado 873761" d="M2262.867,2992.675q-.98,0-1.951.042a44.892,44.892,0,0,0-42.939,44.776v.147a.041.041,0,0,1,0,.006v.068s0,.007,0,.01v.072c0,.009,0,.02,0,.029v.042c0,.011,0,.021,0,.033v.075h0a44.741,44.741,0,0,0,13.565,31.729q-.489-.477-.963-.968.284.274.573.543a44.878,44.878,0,0,1,63.428-63.43c-.179-.192-.361-.383-.542-.572q.568.548,1.116,1.116h0a44.743,44.743,0,0,0-31.878-13.718h-.409" transform="translate(-2003.14 -2700.968)" fill="#ed6f39"/>
      <path id="Trazado_873762" data-name="Trazado 873762" d="M2710.628,3530.3h0Zm-.039,0h0m-.033,0h0m-.032,0h0m-.039,0h0m-.038,0h0m-.038,0h0m-.034,0h0m-.036,0h0m45.264-44.973v0m0-.04v0m0-.032v0m0-.032v0m0-.039s0,0,0,.005,0,0,0-.005m0-.038v0m0-.038v0m0-.034v0m0-.036v0" transform="translate(-2450.985 -3148.813)" fill="#e44120"/>
      <path id="Trazado_873763" data-name="Trazado 873763" d="M2427.126,3138.388a44.878,44.878,0,0,1-63.428,63.43q.27.289.544.573l-.153-.148a44.728,44.728,0,0,0,30.951,12.75h.373a44.891,44.891,0,0,0,44.891-44.89c0-.025,0-.049,0-.074v-.115c0-.011,0-.022,0-.033v-.043c0-.01,0-.02,0-.03v-.042c0-.011,0-.021,0-.033v0a44.725,44.725,0,0,0-12.6-30.8c-.189-.183-.381-.365-.573-.544" transform="translate(-2135.686 -2833.506)" fill="#db090f"/>
      <path id="Trazado_873764" data-name="Trazado 873764" d="M2357.367,3195.524q.475.491.963.968l.154.149c-.184-.19-.364-.381-.544-.574s-.383-.36-.572-.543m63.458-63.458c.182.188.363.38.542.572s.384.361.573.544q-.548-.567-1.115-1.115" transform="translate(-2129.927 -2827.756)" fill="#dd1b10"/>
      <path id="Trazado_873765" data-name="Trazado 873765" d="M3069.7,1983.455a58.947,58.947,0,1,1,58.947,58.948,58.947,58.947,0,0,1-58.947-58.948" transform="translate(-2791.914 -1743.437)" fill="#be79ca"/>
      <path id="Trazado_873766" data-name="Trazado 873766" d="M3069.706,1969.806v0m0-.038s0,0,0,.007a.061.061,0,0,0,0-.007m0-.037v0m0-.037v0m0-.037s0,.006,0,.01,0-.007,0-.01m0-.037v0m0-.037v0m0-.037v0m0-.037v0m0-.037v0m45.3-44.963h0m-.038,0h0m-.037,0h0m-.037,0h0m-.037,0h0m-.037,0h0m-.037,0h0m-.037,0h0m-.037,0h0m-.037,0h0m-.074,0a44.891,44.891,0,0,0-44.891,44.89,44.891,44.891,0,0,1,44.891-44.89" transform="translate(-2777.858 -1729.38)" fill="#93989d"/>
      <path id="Trazado_873767" data-name="Trazado 873767" d="M3114.595,1924.508a44.891,44.891,0,0,0-44.891,44.89v.117c0,.011,0,.02,0,.031v.01c0,.008,0,.018,0,.027v.074s0,.007,0,.01v.034c0,.01,0,.02,0,.03v.008c0,.009,0,.02,0,.029a.061.061,0,0,1,0,.007v.035a44.734,44.734,0,0,0,13.227,31.395q-.316-.315-.625-.635.284.274.573.544a44.878,44.878,0,0,1,63.429-63.429q-.27-.288-.544-.573.3.287.589.579a44.734,44.734,0,0,0-31.35-13.18h-.409" transform="translate(-2777.858 -1729.38)" fill="#93989d"/>
      <path id="Trazado_873768" data-name="Trazado 873768" d="M3562.371,2462.135h0m-.04,0h0m-.032,0h0m-.033,0h0m-.038,0h0m-.038,0h0m-.036,0h0m-.034,0h0m-.037,0h0m45.262-44.973v0m0-.039v0m0-.033v0m0-.032v0m0-.039v0m0-.038v0m0-.038v0m0-.034v0m0-.036v0" transform="translate(-3225.718 -2177.226)" fill="#6a6b6d"/>
      <path id="Trazado_873769" data-name="Trazado 873769" d="M3278.86,2070.236a44.879,44.879,0,0,1-63.429,63.429q.27.288.544.573-.248-.24-.492-.482a44.732,44.732,0,0,0,31.291,13.084h.372a44.89,44.89,0,0,0,44.891-44.89v-.189c0-.012,0-.022,0-.033v0c0-.011,0-.021,0-.032v-.007c0-.01,0-.02,0-.03v-.008c0-.01,0-.02,0-.03v0c0-.011,0-.022,0-.033v0a44.736,44.736,0,0,0-13.129-31.335q.266.267.528.538-.284-.275-.573-.544" transform="translate(-2910.408 -1861.932)" fill="#343738"/>
      <path id="Trazado_873770" data-name="Trazado 873770" d="M3209.093,2127.355q.31.321.625.635.244.243.491.482-.274-.284-.544-.573-.289-.269-.573-.544m63.458-63.458q.274.284.544.573.288.269.573.544-.262-.271-.528-.538-.292-.293-.589-.579" transform="translate(-2904.643 -1856.166)" fill="#434849"/>
      <path id="Trazado_873771" data-name="Trazado 873771" d="M2765.584,652.4a59.785,59.785,0,1,1,59.785,59.784,59.784,59.784,0,0,1-59.785-59.784" transform="translate(-2516.129 -532.807)" fill="#6e3dc6"/>
      <path id="Trazado_873772" data-name="Trazado 873772" d="M3263.228,592.618h0Zm-.038,0h0m-.037,0h0m-.037,0h0m-.037,0h0m-.037,0h0m-.037,0h0m-.037,0h0m-.037,0h0m-.037,0h0" transform="translate(-2953.58 -517.912)" fill="#87c6ca"/>
      <path id="Trazado_873773" data-name="Trazado 873773" d="M2765.586,1090.259h0Zm0-.038v0m0-.037v0m0-.037v0m0-.037v0m0-.037v0m0-.037s0,.007,0,.011,0-.008,0-.011m0-.037v0m0-.036v0m0-.037v0" transform="translate(-2501.235 -970.257)" fill="#43b2c7"/>
      <path id="Trazado_873774" data-name="Trazado 873774" d="M2810.475,592.616h-.109a44.891,44.891,0,0,0-44.782,44.891v.157c0,.009,0,.018,0,.027v.045c0,.009,0,.02,0,.029v.007c0,.01,0,.02,0,.03v0c0,.012,0,.021,0,.033v0c0,.011,0,.021,0,.032v.038h0a44.743,44.743,0,0,0,13.718,31.878q-.568-.549-1.117-1.117.283.273.572.543a44.878,44.878,0,0,1,63.43-63.428q-.269-.289-.543-.572.519.5,1.023,1.02a44.744,44.744,0,0,0-31.784-13.621h-.409" transform="translate(-2501.235 -517.912)" fill="#43b2c7"/>
      <path id="Trazado_873775" data-name="Trazado 873775" d="M3758.554,1085.286v0m0-.039v0m0-.032v0m0-.033v0m0-.038v0m0-.038a.05.05,0,0,0,0,.006.05.05,0,0,1,0-.006m0-.036v0m0-.035v0m0-.036h0" transform="translate(-3404.423 -965.775)" fill="#13a1a7"/>
      <path id="Trazado_873776" data-name="Trazado 873776" d="M2974.73,738.337a44.878,44.878,0,0,1-63.43,63.429q.27.289.545.574a44.879,44.879,0,0,0,76.062-32.288v-.074s0-.006,0-.01v-.1c0-.012,0-.022,0-.034v0c0-.011,0-.021,0-.032v-.006c0-.011,0-.02,0-.031a.034.034,0,0,0,0,0v-.07h0a44.72,44.72,0,0,0-12.7-30.9l.094.1q-.284-.275-.573-.544" transform="translate(-2633.776 -650.458)" fill="#087"/>
      <path id="Trazado_873777" data-name="Trazado 873777" d="M2904.977,795.465q.548.567,1.116,1.116-.274-.284-.544-.573-.288-.269-.572-.543m63.458-63.458q.274.284.543.572.29.27.574.544l-.094-.1q-.5-.518-1.023-1.02" transform="translate(-2628.024 -644.7)" fill="#008d89"/>
      <path id="Trazado_873778" data-name="Trazado 873778" d="M1534.641,58.364a58.368,58.368,0,1,1,58.369,58.368,58.369,58.369,0,0,1-58.369-58.368" transform="translate(-1395.066 7.648)" fill="#d3d3d3"/>
      <path id="Trazado_873779" data-name="Trazado 873779" d="M1534.644,45.295h0Zm0-.038v0m0-.037v0m0-.037v0m0-.038v0m0-.037v0m0-.037s0,.007,0,.011,0-.008,0-.011m0-.037v0m0-.037v0m0-.037v0M1579.941,0h0m-.038,0h0m-.037,0h0m-.037,0h0m-.037,0h0m-.037,0h0m-.037,0h0m-.036,0h0m-.036,0h0m-.037,0h0" transform="translate(-1381.589 21.126)" fill="#242b32"/>
      <path id="Trazado_873780" data-name="Trazado 873780" d="M1579.533,0h-.109a44.891,44.891,0,0,0-44.782,44.818V45c0,.011,0,.02,0,.031v.037s0,.008,0,.011v.034c0,.009,0,.02,0,.029v.007c0,.01,0,.02,0,.03v0c0,.012,0,.021,0,.033v.041c0,.012,0,.022,0,.034h0a44.733,44.733,0,0,0,13.129,31.3c-.177-.178-.354-.358-.528-.538q.284.274.573.544a44.878,44.878,0,0,1,63.429-63.429q-.269-.289-.544-.573.272.262.538.529A44.729,44.729,0,0,0,1579.942,0h-.409" transform="translate(-1381.589 21.127)" fill="#465c71"/>
      <path id="Trazado_873781" data-name="Trazado 873781" d="M2027.292,888.991h0m-.039,0h0m-.032,0h0m-.033,0h0m-.039,0h0m-.038,0h0m-.038,0h0m-.034,0h0m-.036,0h0m29.032-10.335a44.707,44.707,0,0,1-28.586,10.337,44.707,44.707,0,0,0,28.586-10.337" transform="translate(-1829.433 -778.088)" fill="#0e1010"/>
      <path id="Trazado_873782" data-name="Trazado 873782" d="M1743.344,145.232q.292.291.578.588-.284-.274-.573-.544a44.878,44.878,0,0,1-63.429,63.429q.269.289.544.573-.3-.287-.589-.579a44.733,44.733,0,0,0,31.386,13.18h.446a44.879,44.879,0,0,0,31.636-76.65" transform="translate(-1513.691 -110.979)" fill="#0e1010"/>
      <path id="Trazado_873783" data-name="Trazado 873783" d="M1674.032,202.844q.262.271.528.538.292.292.589.579-.274-.284-.544-.573-.288-.269-.573-.544m63.458-63.458q.274.284.544.573.289.269.573.544-.286-.3-.578-.588-.267-.267-.538-.529" transform="translate(-1508.376 -105.661)" fill="#13181d"/>
      <path id="Trazado_873784" data-name="Trazado 873784" d="M303.847,652.131a59.207,59.207,0,1,1,59.207,59.207,59.207,59.207,0,0,1-59.207-59.207" transform="translate(-276.394 -532.509)" fill="#75baf1"/>
      <path id="Trazado_873785" data-name="Trazado 873785" d="M303.849,638.222h0Zm0-.038s0,0,0,0,0,0,0,0m0-.037v0m0-.037s0,0,0,0,0,0,0,0m0-.037v0m0-.037v0m0-.037v0m0-.037s0,.007,0,.01,0-.007,0-.01m0-.036v0m0-.037v0m45.3-44.963h0m-.038,0h0m-.037,0h0m-.037,0h0m-.038,0h0m-.037,0h0m-.037,0h0m-.037,0h0m-.037,0h0m-.037,0h0" transform="translate(-262.078 -518.192)" fill="#e44120"/>
      <path id="Trazado_873786" data-name="Trazado 873786" d="M348.738,592.923a44.891,44.891,0,0,0-44.891,44.891v.08c0,.011,0,.021,0,.031v.005c0,.011,0,.02,0,.031s0,.007,0,.01,0,.018,0,.027v.011c0,.008,0,.018,0,.026v.008c0,.009,0,.02,0,.029v.007c0,.01,0,.02,0,.03s0,0,0,0,0,.021,0,.033v0c0,.01,0,.022,0,.032s0,0,0,0,0,.022,0,.034h0a44.729,44.729,0,0,0,13.13,31.3q-.267-.267-.529-.538.284.274.573.544a44.878,44.878,0,0,1,63.43-63.429q-.27-.289-.544-.574l.048.046a44.721,44.721,0,0,0-30.81-12.647h-.409" transform="translate(-262.078 -518.191)" fill="#ed6f39"/>
      <path id="Trazado_873787" data-name="Trazado 873787" d="M796.5,1130.566h0m-.04,0h0m-.032,0h0m-.033,0h0m-.038,0h0m-.038,0h0m-.038,0h0m-.034,0h0m-.036,0h0m45.264-44.973v0m0-.04v0m0-.032v0m0-.033v0s0,0,0,0m0-.038v0m0-.038v0m0-.036v0m0-.034v0m0-.036h0" transform="translate(-709.922 -966.053)" fill="#db090f"/>
      <path id="Trazado_873788" data-name="Trazado 873788" d="M512.063,732.824q.543.526,1.069,1.071-.284-.274-.572-.543a44.878,44.878,0,0,1-63.43,63.428q.269.289.544.573-.3-.286-.588-.578a44.736,44.736,0,0,0,31.385,13.18h.373a44.891,44.891,0,0,0,44.891-44.891c0-.025,0-.049,0-.074v-.036s0-.009,0-.013,0-.015,0-.024v-.008c0-.01,0-.019,0-.029v0c0-.012,0-.022,0-.034v0c0-.011,0-.021,0-.032v-.042c0-.011,0-.022,0-.033h0c0-.012,0-.024,0-.036h0a44.745,44.745,0,0,0-13.671-31.87" transform="translate(-394.185 -645.443)" fill="#db090f"/>
      <path id="Trazado_873789" data-name="Trazado 873789" d="M443.238,795.771q.262.272.529.539.291.292.588.578-.274-.284-.544-.573-.289-.269-.573-.544M506.7,732.313q.275.285.544.574.289.269.572.543-.525-.544-1.069-1.071l-.048-.046" transform="translate(-388.865 -644.978)" fill="#dd1b10"/>
      <path id="Trazado_873790" data-name="Trazado 873790" d="M191.487,2051.55a45.65,45.65,0,1,1-64.559,0,45.649,45.649,0,0,1,64.559,0" transform="translate(-100.02 -1843.802)" fill="#fff"/>
      <path id="Trazado_873791" data-name="Trazado 873791" d="M1005.419,3106.537a45.143,45.143,0,1,1-39.8,49.915,45.144,45.144,0,0,1,39.8-49.915" transform="translate(-874.271 -2814.794)" fill="#fff"/>
      <path id="Trazado_873792" data-name="Trazado 873792" d="M2338.408,3127.316a45.144,45.144,0,1,1,14.21,62.242,45.143,45.143,0,0,1-14.21-62.242" transform="translate(-2116.906 -2814.736)" fill="#fff"/>
      <path id="Trazado_873793" data-name="Trazado 873793" d="M3185.72,2098.456a45.465,45.465,0,1,1,57.932,27.893,45.465,45.465,0,0,1-57.932-27.893" transform="translate(-2891.895 -1843.419)" fill="#fff"/>
      <path id="Trazado_873794" data-name="Trazado 873794" d="M2909.937,795.717a46.11,46.11,0,1,1,58.75-28.3,46.111,46.111,0,0,1-58.75,28.3" transform="translate(-2615.922 -632.6)" fill="#fff"/>
      <path id="Trazado_873795" data-name="Trazado 873795" d="M1717.129,196.642a45.018,45.018,0,1,1,14.159-62.071,45.018,45.018,0,0,1-14.159,62.071" transform="translate(-1495.23 -92.516)" fill="#fff"/>
      <path id="Trazado_873796" data-name="Trazado 873796" d="M508.417,757.222a45.665,45.665,0,1,1-40.273-50.485,45.665,45.665,0,0,1,40.273,50.485" transform="translate(-376.378 -632.494)" fill="#fff"/>
    </g>
    <path id="Trazado_877277" data-name="Trazado 877277" d="M-35-3.315A3.522,3.522,0,0,1-36.183-.786,4.165,4.165,0,0,1-39,.137a3.745,3.745,0,0,1-3.011-1.289,5.284,5.284,0,0,1-1.1-3.538V-5.3A5.966,5.966,0,0,1-42.6-7.827a3.791,3.791,0,0,1,1.446-1.678,4.05,4.05,0,0,1,2.184-.584,4.058,4.058,0,0,1,2.775.923,3.785,3.785,0,0,1,1.217,2.591h-2.051a2.079,2.079,0,0,0-.537-1.4,1.987,1.987,0,0,0-1.4-.434,1.742,1.742,0,0,0-1.535.735,4.118,4.118,0,0,0-.523,2.28v.752a4.408,4.408,0,0,0,.489,2.358A1.71,1.71,0,0,0-39-1.538a2.025,2.025,0,0,0,1.418-.434,1.961,1.961,0,0,0,.537-1.343ZM-29.35-.752a2.477,2.477,0,0,1-2.023.889,2.337,2.337,0,0,1-1.815-.684,2.918,2.918,0,0,1-.639-2V-7.4h1.976v4.784q0,1.157,1.053,1.157a1.426,1.426,0,0,0,1.381-.7V-7.4h1.982V0H-29.3Zm6.809.889a3.631,3.631,0,0,1-2.649-1,3.548,3.548,0,0,1-1.022-2.659v-.191A4.468,4.468,0,0,1-25.782-5.7a3.161,3.161,0,0,1,1.22-1.354,3.425,3.425,0,0,1,1.8-.475,3.07,3.07,0,0,1,2.389.957A3.889,3.889,0,0,1-19.5-3.862v.807h-4.71a1.835,1.835,0,0,0,.578,1.162,1.746,1.746,0,0,0,1.22.438,2.132,2.132,0,0,0,1.784-.827l.971,1.087a2.966,2.966,0,0,1-1.2.981A3.947,3.947,0,0,1-22.542.137Zm-.226-6.077a1.234,1.234,0,0,0-.954.4,2.062,2.062,0,0,0-.468,1.14h2.748V-4.56A1.471,1.471,0,0,0-21.8-5.58,1.274,1.274,0,0,0-22.767-5.94Zm8.395,3.9a.637.637,0,0,0-.359-.571,4.077,4.077,0,0,0-1.152-.373q-2.639-.554-2.639-2.242a2.032,2.032,0,0,1,.817-1.644,3.3,3.3,0,0,1,2.136-.66,3.547,3.547,0,0,1,2.252.663,2.09,2.09,0,0,1,.844,1.723h-1.976a.956.956,0,0,0-.273-.7,1.157,1.157,0,0,0-.854-.277,1.182,1.182,0,0,0-.772.226.712.712,0,0,0-.273.574.609.609,0,0,0,.311.53,3.2,3.2,0,0,0,1.049.349,8.571,8.571,0,0,1,1.244.332,2.044,2.044,0,0,1,1.565,1.989A1.929,1.929,0,0,1-13.32-.489a3.745,3.745,0,0,1-2.242.625,3.912,3.912,0,0,1-1.651-.332A2.77,2.77,0,0,1-18.344-1.1a2.113,2.113,0,0,1-.41-1.248h1.873a1.031,1.031,0,0,0,.39.807,1.546,1.546,0,0,0,.971.28,1.43,1.43,0,0,0,.858-.215A.67.67,0,0,0-14.373-2.044Zm5.558-7.171V-7.4H-7.55v1.449H-8.815v3.691a.881.881,0,0,0,.157.588.79.79,0,0,0,.6.178,3.151,3.151,0,0,0,.581-.048v1.5a4.067,4.067,0,0,1-1.2.178,1.886,1.886,0,0,1-2.119-2.1V-5.947h-1.08V-7.4h1.08V-9.215ZM-4.365,0H-6.347V-7.4h1.982Zm-2.1-9.311a.973.973,0,0,1,.3-.731,1.117,1.117,0,0,1,.81-.287,1.12,1.12,0,0,1,.807.287.967.967,0,0,1,.3.731.97.97,0,0,1-.3.738,1.122,1.122,0,0,1-.8.287,1.122,1.122,0,0,1-.8-.287A.97.97,0,0,1-6.463-9.311Zm3.418,5.544a4.387,4.387,0,0,1,.424-1.962A3.1,3.1,0,0,1-1.4-7.062,3.56,3.56,0,0,1,.448-7.533a3.368,3.368,0,0,1,2.444.916A3.676,3.676,0,0,1,3.948-4.129l.014.506a3.866,3.866,0,0,1-.95,2.731A3.3,3.3,0,0,1,.461.137,3.319,3.319,0,0,1-2.092-.889a3.934,3.934,0,0,1-.954-2.789Zm1.976.14a2.765,2.765,0,0,0,.4,1.612,1.308,1.308,0,0,0,1.135.558,1.311,1.311,0,0,0,1.121-.551,3.025,3.025,0,0,0,.4-1.763,2.737,2.737,0,0,0-.4-1.6A1.311,1.311,0,0,0,.448-5.94a1.29,1.29,0,0,0-1.121.565A3.076,3.076,0,0,0-1.07-3.626ZM7-7.4l.062.854a2.582,2.582,0,0,1,2.126-.991,2.146,2.146,0,0,1,1.75.69,3.221,3.221,0,0,1,.588,2.064V0H9.546V-4.73a1.282,1.282,0,0,0-.273-.913,1.224,1.224,0,0,0-.909-.284,1.359,1.359,0,0,0-1.251.711V0H5.137V-7.4ZM17.305,0a2.194,2.194,0,0,1-.2-.663,2.39,2.39,0,0,1-1.866.8,2.626,2.626,0,0,1-1.8-.629,2.023,2.023,0,0,1-.714-1.586,2.09,2.09,0,0,1,.872-1.8,4.3,4.3,0,0,1,2.519-.636h.909v-.424a1.219,1.219,0,0,0-.263-.82,1.035,1.035,0,0,0-.831-.308,1.177,1.177,0,0,0-.783.239.813.813,0,0,0-.284.656H12.889a1.984,1.984,0,0,1,.4-1.189,2.621,2.621,0,0,1,1.121-.858,4.086,4.086,0,0,1,1.627-.311,3.228,3.228,0,0,1,2.17.687,2.4,2.4,0,0,1,.8,1.931v3.206A3.536,3.536,0,0,0,19.3-.116V0ZM15.671-1.374a1.7,1.7,0,0,0,.807-.195,1.28,1.28,0,0,0,.547-.523V-3.363h-.738q-1.483,0-1.579,1.025l-.007.116a.791.791,0,0,0,.26.608A1.009,1.009,0,0,0,15.671-1.374Zm9.01-4.17A5.367,5.367,0,0,0,23.97-5.6a1.447,1.447,0,0,0-1.47.759V0H20.525V-7.4h1.866l.055.882a1.831,1.831,0,0,1,1.647-1.019,2.07,2.07,0,0,1,.615.089ZM27.716,0H25.734V-7.4h1.982Zm-2.1-9.311a.973.973,0,0,1,.3-.731,1.117,1.117,0,0,1,.81-.287,1.12,1.12,0,0,1,.807.287.967.967,0,0,1,.3.731.97.97,0,0,1-.3.738,1.122,1.122,0,0,1-.8.287,1.122,1.122,0,0,1-.8-.287A.97.97,0,0,1,25.618-9.311Zm3.418,5.544a4.387,4.387,0,0,1,.424-1.962,3.1,3.1,0,0,1,1.22-1.333,3.56,3.56,0,0,1,1.849-.472,3.368,3.368,0,0,1,2.444.916,3.676,3.676,0,0,1,1.056,2.488l.014.506a3.866,3.866,0,0,1-.95,2.731A3.3,3.3,0,0,1,32.542.137,3.319,3.319,0,0,1,29.989-.889a3.934,3.934,0,0,1-.954-2.789Zm1.976.14a2.765,2.765,0,0,0,.4,1.612,1.308,1.308,0,0,0,1.135.558,1.311,1.311,0,0,0,1.121-.551,3.025,3.025,0,0,0,.4-1.763,2.737,2.737,0,0,0-.4-1.6,1.311,1.311,0,0,0-1.135-.568,1.29,1.29,0,0,0-1.121.565A3.076,3.076,0,0,0,31.011-3.626ZM41.265-2.044a.637.637,0,0,0-.359-.571,4.077,4.077,0,0,0-1.152-.373q-2.639-.554-2.639-2.242a2.032,2.032,0,0,1,.817-1.644,3.3,3.3,0,0,1,2.136-.66,3.547,3.547,0,0,1,2.252.663,2.09,2.09,0,0,1,.844,1.723H41.19a.956.956,0,0,0-.273-.7,1.157,1.157,0,0,0-.854-.277,1.182,1.182,0,0,0-.772.226.712.712,0,0,0-.273.574.609.609,0,0,0,.311.53,3.2,3.2,0,0,0,1.049.349,8.571,8.571,0,0,1,1.244.332,2.044,2.044,0,0,1,1.565,1.989,1.929,1.929,0,0,1-.868,1.637,3.745,3.745,0,0,1-2.242.625,3.912,3.912,0,0,1-1.651-.332A2.77,2.77,0,0,1,37.293-1.1a2.113,2.113,0,0,1-.41-1.248h1.873a1.031,1.031,0,0,0,.39.807,1.546,1.546,0,0,0,.971.28,1.43,1.43,0,0,0,.858-.215A.67.67,0,0,0,41.265-2.044Z" transform="translate(937.328 1663.064)" fill="#12263f"/>
    <path id="Trazado_877276" data-name="Trazado 877276" d="M-28.284-4.313h-3.937v2.666H-27.6V0h-6.672V-9.953h6.658v1.661h-4.607V-5.92h3.938ZM-24.708-7.4l.062.854a2.582,2.582,0,0,1,2.126-.991,2.146,2.146,0,0,1,1.75.69,3.221,3.221,0,0,1,.588,2.064V0h-1.976V-4.73a1.282,1.282,0,0,0-.273-.913,1.224,1.224,0,0,0-.909-.284,1.359,1.359,0,0,0-1.251.711V0h-1.976V-7.4Zm8.388-1.818V-7.4h1.265v1.449h-1.265v3.691a.881.881,0,0,0,.157.588.79.79,0,0,0,.6.178,3.151,3.151,0,0,0,.581-.048v1.5a4.067,4.067,0,0,1-1.2.178,1.886,1.886,0,0,1-2.119-2.1V-5.947h-1.08V-7.4h1.08V-9.215ZM-9.8-5.544A5.367,5.367,0,0,0-10.51-5.6a1.447,1.447,0,0,0-1.47.759V0h-1.976V-7.4h1.866l.055.882a1.831,1.831,0,0,1,1.647-1.019,2.07,2.07,0,0,1,.615.089ZM-5.575.137a3.631,3.631,0,0,1-2.649-1A3.548,3.548,0,0,1-9.246-3.521v-.191A4.468,4.468,0,0,1-8.815-5.7a3.161,3.161,0,0,1,1.22-1.354,3.425,3.425,0,0,1,1.8-.475A3.07,3.07,0,0,1-3.4-6.576a3.889,3.889,0,0,1,.872,2.714v.807h-4.71a1.835,1.835,0,0,0,.578,1.162,1.746,1.746,0,0,0,1.22.438,2.132,2.132,0,0,0,1.784-.827L-2.69-1.2a2.966,2.966,0,0,1-1.2.981A3.947,3.947,0,0,1-5.575.137ZM-5.8-5.94a1.234,1.234,0,0,0-.954.4A2.062,2.062,0,0,0-7.222-4.4h2.748V-4.56A1.471,1.471,0,0,0-4.83-5.58,1.274,1.274,0,0,0-5.8-5.94ZM1.268-2.413,2.642-7.4H4.707L2.211,0H.325l-2.5-7.4H-.106ZM7.66,0H5.677V-7.4H7.66Zm-2.1-9.311a.973.973,0,0,1,.3-.731,1.117,1.117,0,0,1,.81-.287,1.12,1.12,0,0,1,.807.287.967.967,0,0,1,.3.731.97.97,0,0,1-.3.738,1.122,1.122,0,0,1-.8.287,1.122,1.122,0,0,1-.8-.287A.97.97,0,0,1,5.561-9.311Zm7.731,7.267a.637.637,0,0,0-.359-.571,4.077,4.077,0,0,0-1.152-.373Q9.143-3.541,9.143-5.229A2.032,2.032,0,0,1,9.96-6.874a3.3,3.3,0,0,1,2.136-.66,3.547,3.547,0,0,1,2.252.663,2.09,2.09,0,0,1,.844,1.723H13.217a.956.956,0,0,0-.273-.7,1.157,1.157,0,0,0-.854-.277,1.182,1.182,0,0,0-.772.226.712.712,0,0,0-.273.574.609.609,0,0,0,.311.53,3.2,3.2,0,0,0,1.049.349,8.571,8.571,0,0,1,1.244.332,2.044,2.044,0,0,1,1.565,1.989,1.929,1.929,0,0,1-.868,1.637A3.745,3.745,0,0,1,12.1.137a3.912,3.912,0,0,1-1.651-.332A2.77,2.77,0,0,1,9.321-1.1a2.113,2.113,0,0,1-.41-1.248h1.873a1.031,1.031,0,0,0,.39.807,1.546,1.546,0,0,0,.971.28A1.43,1.43,0,0,0,13-1.48.67.67,0,0,0,13.292-2.044ZM18.85-9.215V-7.4h1.265v1.449H18.85v3.691a.881.881,0,0,0,.157.588.79.79,0,0,0,.6.178,3.151,3.151,0,0,0,.581-.048v1.5a4.067,4.067,0,0,1-1.2.178,1.886,1.886,0,0,1-2.119-2.1V-5.947h-1.08V-7.4h1.08V-9.215ZM25.5,0a2.194,2.194,0,0,1-.2-.663,2.39,2.39,0,0,1-1.866.8,2.626,2.626,0,0,1-1.8-.629,2.023,2.023,0,0,1-.714-1.586,2.09,2.09,0,0,1,.872-1.8,4.3,4.3,0,0,1,2.519-.636h.909v-.424a1.219,1.219,0,0,0-.263-.82,1.035,1.035,0,0,0-.831-.308,1.177,1.177,0,0,0-.783.239.813.813,0,0,0-.284.656H21.085a1.984,1.984,0,0,1,.4-1.189A2.621,2.621,0,0,1,22.6-7.222a4.086,4.086,0,0,1,1.627-.311,3.228,3.228,0,0,1,2.17.687,2.4,2.4,0,0,1,.8,1.931v3.206A3.536,3.536,0,0,0,27.5-.116V0ZM23.868-1.374a1.7,1.7,0,0,0,.807-.195,1.28,1.28,0,0,0,.547-.523V-3.363h-.738Q23-3.363,22.9-2.338l-.007.116a.791.791,0,0,0,.26.608A1.009,1.009,0,0,0,23.868-1.374Zm8.859-.67a.637.637,0,0,0-.359-.571,4.077,4.077,0,0,0-1.152-.373q-2.639-.554-2.639-2.242a2.032,2.032,0,0,1,.817-1.644,3.3,3.3,0,0,1,2.136-.66,3.547,3.547,0,0,1,2.252.663,2.09,2.09,0,0,1,.844,1.723H32.652a.956.956,0,0,0-.273-.7,1.157,1.157,0,0,0-.854-.277,1.182,1.182,0,0,0-.772.226.712.712,0,0,0-.273.574.609.609,0,0,0,.311.53,3.2,3.2,0,0,0,1.049.349,8.571,8.571,0,0,1,1.244.332,2.044,2.044,0,0,1,1.565,1.989A1.929,1.929,0,0,1,33.78-.489a3.745,3.745,0,0,1-2.242.625,3.912,3.912,0,0,1-1.651-.332A2.77,2.77,0,0,1,28.755-1.1a2.113,2.113,0,0,1-.41-1.248h1.873a1.031,1.031,0,0,0,.39.807,1.546,1.546,0,0,0,.971.28,1.43,1.43,0,0,0,.858-.215A.67.67,0,0,0,32.727-2.044ZM-31.91,5.785V7.6h1.265V9.053H-31.91v3.691a.881.881,0,0,0,.157.588.79.79,0,0,0,.6.178,3.15,3.15,0,0,0,.581-.048v1.5a4.067,4.067,0,0,1-1.2.178,1.886,1.886,0,0,1-2.119-2.1V9.053h-1.08V7.6h1.08V5.785Zm5.77,9.352a3.631,3.631,0,0,1-2.649-1,3.548,3.548,0,0,1-1.022-2.659v-.191A4.468,4.468,0,0,1-29.381,9.3a3.161,3.161,0,0,1,1.22-1.354,3.425,3.425,0,0,1,1.8-.475,3.07,3.07,0,0,1,2.389.957,3.889,3.889,0,0,1,.872,2.714v.807h-4.71a1.835,1.835,0,0,0,.578,1.162,1.746,1.746,0,0,0,1.22.438,2.132,2.132,0,0,0,1.784-.827l.971,1.087a2.966,2.966,0,0,1-1.2.981A3.947,3.947,0,0,1-26.141,15.137Zm-.226-6.077a1.234,1.234,0,0,0-.954.4,2.062,2.062,0,0,0-.468,1.14h2.748V10.44A1.471,1.471,0,0,0-25.4,9.42,1.274,1.274,0,0,0-26.366,9.06ZM-19.893,15h-1.982V4.5h1.982Zm5.031.137a3.631,3.631,0,0,1-2.649-1,3.548,3.548,0,0,1-1.022-2.659v-.191A4.468,4.468,0,0,1-18.1,9.3a3.161,3.161,0,0,1,1.22-1.354,3.425,3.425,0,0,1,1.8-.475,3.07,3.07,0,0,1,2.389.957,3.889,3.889,0,0,1,.872,2.714v.807h-4.71a1.835,1.835,0,0,0,.578,1.162,1.746,1.746,0,0,0,1.22.438,2.132,2.132,0,0,0,1.784-.827l.971,1.087a2.966,2.966,0,0,1-1.2.981A3.947,3.947,0,0,1-14.861,15.137Zm-.226-6.077a1.234,1.234,0,0,0-.954.4,2.062,2.062,0,0,0-.468,1.14h2.748V10.44a1.471,1.471,0,0,0-.355-1.02A1.274,1.274,0,0,0-15.087,9.06ZM-10.158,15V9.053h-1.1V7.6h1.1V6.975a2.553,2.553,0,0,1,.714-1.931,2.767,2.767,0,0,1,2-.687,4.619,4.619,0,0,1,1,.137L-6.46,6.024a2.519,2.519,0,0,0-.6-.062q-1.114,0-1.114,1.046V7.6h1.47V9.053h-1.47V15Zm4.17-3.767a4.387,4.387,0,0,1,.424-1.962,3.1,3.1,0,0,1,1.22-1.333A3.56,3.56,0,0,1-2.5,7.467a3.368,3.368,0,0,1,2.444.916A3.676,3.676,0,0,1,1,10.871l.014.506a3.866,3.866,0,0,1-.95,2.731,3.3,3.3,0,0,1-2.55,1.029,3.319,3.319,0,0,1-2.553-1.025,3.934,3.934,0,0,1-.954-2.789Zm1.976.14a2.765,2.765,0,0,0,.4,1.612,1.308,1.308,0,0,0,1.135.558,1.311,1.311,0,0,0,1.121-.551,3.025,3.025,0,0,0,.4-1.763,2.737,2.737,0,0,0-.4-1.6A1.311,1.311,0,0,0-2.5,9.06a1.29,1.29,0,0,0-1.121.565A3.076,3.076,0,0,0-4.013,11.374ZM-2.105,4.5H.048L-1.846,6.619H-3.452ZM4.054,7.6l.062.854a2.582,2.582,0,0,1,2.126-.991,2.146,2.146,0,0,1,1.75.69,3.221,3.221,0,0,1,.588,2.064V15H6.6V10.27a1.282,1.282,0,0,0-.273-.913,1.224,1.224,0,0,0-.909-.284,1.359,1.359,0,0,0-1.251.711V15H2.194V7.6ZM12.161,15H10.179V7.6h1.982Zm-2.1-9.311a.973.973,0,0,1,.3-.731,1.117,1.117,0,0,1,.81-.287,1.12,1.12,0,0,1,.807.287.967.967,0,0,1,.3.731.97.97,0,0,1-.3.738,1.267,1.267,0,0,1-1.606,0A.97.97,0,0,1,10.063,5.689Zm6.8,7.854a1.3,1.3,0,0,0,.889-.3,1.054,1.054,0,0,0,.355-.8h1.853a2.534,2.534,0,0,1-.41,1.377,2.706,2.706,0,0,1-1.1.971,3.455,3.455,0,0,1-1.548.345,3.211,3.211,0,0,1-2.5-1.008,3.99,3.99,0,0,1-.916-2.786v-.13a3.944,3.944,0,0,1,.909-2.728,3.174,3.174,0,0,1,2.5-1.019,3.111,3.111,0,0,1,2.225.79,2.8,2.8,0,0,1,.851,2.1H18.108a1.358,1.358,0,0,0-.355-.938,1.321,1.321,0,0,0-1.945.142,2.916,2.916,0,0,0-.352,1.633V11.4a2.953,2.953,0,0,0,.349,1.643A1.2,1.2,0,0,0,16.864,13.544ZM25.375,15a2.194,2.194,0,0,1-.2-.663,2.39,2.39,0,0,1-1.866.8,2.626,2.626,0,0,1-1.8-.629,2.023,2.023,0,0,1-.714-1.586,2.09,2.09,0,0,1,.872-1.8,4.3,4.3,0,0,1,2.519-.636h.909v-.424a1.219,1.219,0,0,0-.263-.82A1.035,1.035,0,0,0,24,8.93a1.177,1.177,0,0,0-.783.239.813.813,0,0,0-.284.656H20.959a1.984,1.984,0,0,1,.4-1.189,2.621,2.621,0,0,1,1.121-.858A4.086,4.086,0,0,1,24.1,7.467a3.228,3.228,0,0,1,2.17.687,2.4,2.4,0,0,1,.8,1.931v3.206a3.536,3.536,0,0,0,.294,1.593V15Zm-1.634-1.374a1.7,1.7,0,0,0,.807-.195,1.28,1.28,0,0,0,.547-.523V11.637h-.738q-1.483,0-1.579,1.025l-.007.116a.791.791,0,0,0,.26.608A1.009,1.009,0,0,0,23.741,13.626Zm8.859-.67a.637.637,0,0,0-.359-.571,4.077,4.077,0,0,0-1.152-.373q-2.639-.554-2.639-2.242a2.032,2.032,0,0,1,.817-1.644,3.3,3.3,0,0,1,2.136-.66,3.547,3.547,0,0,1,2.252.663A2.09,2.09,0,0,1,34.5,9.853H32.525a.956.956,0,0,0-.273-.7,1.157,1.157,0,0,0-.854-.277,1.182,1.182,0,0,0-.772.226.712.712,0,0,0-.273.574.609.609,0,0,0,.311.53,3.2,3.2,0,0,0,1.049.349,8.571,8.571,0,0,1,1.244.332,2.044,2.044,0,0,1,1.565,1.989,1.929,1.929,0,0,1-.868,1.637,3.745,3.745,0,0,1-2.242.625,3.912,3.912,0,0,1-1.651-.332,2.77,2.77,0,0,1-1.131-.909,2.113,2.113,0,0,1-.41-1.248h1.873a1.031,1.031,0,0,0,.39.807,1.546,1.546,0,0,0,.971.28,1.43,1.43,0,0,0,.858-.215A.67.67,0,0,0,32.6,12.956Z" transform="translate(909.328 1536.064)" fill="#12263f"/>
    <path id="Trazado_877272" data-name="Trazado 877272" d="M-28.284-4.313h-3.937v2.666H-27.6V0h-6.672V-9.953h6.658v1.661h-4.607V-5.92h3.938ZM-24.708-7.4l.062.854a2.582,2.582,0,0,1,2.126-.991,2.146,2.146,0,0,1,1.75.69,3.221,3.221,0,0,1,.588,2.064V0h-1.976V-4.73a1.282,1.282,0,0,0-.273-.913,1.224,1.224,0,0,0-.909-.284,1.359,1.359,0,0,0-1.251.711V0h-1.976V-7.4Zm8.388-1.818V-7.4h1.265v1.449h-1.265v3.691a.881.881,0,0,0,.157.588.79.79,0,0,0,.6.178,3.151,3.151,0,0,0,.581-.048v1.5a4.067,4.067,0,0,1-1.2.178,1.886,1.886,0,0,1-2.119-2.1V-5.947h-1.08V-7.4h1.08V-9.215ZM-9.8-5.544A5.367,5.367,0,0,0-10.51-5.6a1.447,1.447,0,0,0-1.47.759V0h-1.976V-7.4h1.866l.055.882a1.831,1.831,0,0,1,1.647-1.019,2.07,2.07,0,0,1,.615.089ZM-5.575.137a3.631,3.631,0,0,1-2.649-1A3.548,3.548,0,0,1-9.246-3.521v-.191A4.468,4.468,0,0,1-8.815-5.7a3.161,3.161,0,0,1,1.22-1.354,3.425,3.425,0,0,1,1.8-.475A3.07,3.07,0,0,1-3.4-6.576a3.889,3.889,0,0,1,.872,2.714v.807h-4.71a1.835,1.835,0,0,0,.578,1.162,1.746,1.746,0,0,0,1.22.438,2.132,2.132,0,0,0,1.784-.827L-2.69-1.2a2.966,2.966,0,0,1-1.2.981A3.947,3.947,0,0,1-5.575.137ZM-5.8-5.94a1.234,1.234,0,0,0-.954.4A2.062,2.062,0,0,0-7.222-4.4h2.748V-4.56A1.471,1.471,0,0,0-4.83-5.58,1.274,1.274,0,0,0-5.8-5.94ZM1.268-2.413,2.642-7.4H4.707L2.211,0H.325l-2.5-7.4H-.106ZM7.66,0H5.677V-7.4H7.66Zm-2.1-9.311a.973.973,0,0,1,.3-.731,1.117,1.117,0,0,1,.81-.287,1.12,1.12,0,0,1,.807.287.967.967,0,0,1,.3.731.97.97,0,0,1-.3.738,1.122,1.122,0,0,1-.8.287,1.122,1.122,0,0,1-.8-.287A.97.97,0,0,1,5.561-9.311Zm7.731,7.267a.637.637,0,0,0-.359-.571,4.077,4.077,0,0,0-1.152-.373Q9.143-3.541,9.143-5.229A2.032,2.032,0,0,1,9.96-6.874a3.3,3.3,0,0,1,2.136-.66,3.547,3.547,0,0,1,2.252.663,2.09,2.09,0,0,1,.844,1.723H13.217a.956.956,0,0,0-.273-.7,1.157,1.157,0,0,0-.854-.277,1.182,1.182,0,0,0-.772.226.712.712,0,0,0-.273.574.609.609,0,0,0,.311.53,3.2,3.2,0,0,0,1.049.349,8.571,8.571,0,0,1,1.244.332,2.044,2.044,0,0,1,1.565,1.989,1.929,1.929,0,0,1-.868,1.637A3.745,3.745,0,0,1,12.1.137a3.912,3.912,0,0,1-1.651-.332A2.77,2.77,0,0,1,9.321-1.1a2.113,2.113,0,0,1-.41-1.248h1.873a1.031,1.031,0,0,0,.39.807,1.546,1.546,0,0,0,.971.28A1.43,1.43,0,0,0,13-1.48.67.67,0,0,0,13.292-2.044ZM18.85-9.215V-7.4h1.265v1.449H18.85v3.691a.881.881,0,0,0,.157.588.79.79,0,0,0,.6.178,3.151,3.151,0,0,0,.581-.048v1.5a4.067,4.067,0,0,1-1.2.178,1.886,1.886,0,0,1-2.119-2.1V-5.947h-1.08V-7.4h1.08V-9.215ZM25.5,0a2.194,2.194,0,0,1-.2-.663,2.39,2.39,0,0,1-1.866.8,2.626,2.626,0,0,1-1.8-.629,2.023,2.023,0,0,1-.714-1.586,2.09,2.09,0,0,1,.872-1.8,4.3,4.3,0,0,1,2.519-.636h.909v-.424a1.219,1.219,0,0,0-.263-.82,1.035,1.035,0,0,0-.831-.308,1.177,1.177,0,0,0-.783.239.813.813,0,0,0-.284.656H21.085a1.984,1.984,0,0,1,.4-1.189A2.621,2.621,0,0,1,22.6-7.222a4.086,4.086,0,0,1,1.627-.311,3.228,3.228,0,0,1,2.17.687,2.4,2.4,0,0,1,.8,1.931v3.206A3.536,3.536,0,0,0,27.5-.116V0ZM23.868-1.374a1.7,1.7,0,0,0,.807-.195,1.28,1.28,0,0,0,.547-.523V-3.363h-.738Q23-3.363,22.9-2.338l-.007.116a.791.791,0,0,0,.26.608A1.009,1.009,0,0,0,23.868-1.374Zm8.859-.67a.637.637,0,0,0-.359-.571,4.077,4.077,0,0,0-1.152-.373q-2.639-.554-2.639-2.242a2.032,2.032,0,0,1,.817-1.644,3.3,3.3,0,0,1,2.136-.66,3.547,3.547,0,0,1,2.252.663,2.09,2.09,0,0,1,.844,1.723H32.652a.956.956,0,0,0-.273-.7,1.157,1.157,0,0,0-.854-.277,1.182,1.182,0,0,0-.772.226.712.712,0,0,0-.273.574.609.609,0,0,0,.311.53,3.2,3.2,0,0,0,1.049.349,8.571,8.571,0,0,1,1.244.332,2.044,2.044,0,0,1,1.565,1.989A1.929,1.929,0,0,1,33.78-.489a3.745,3.745,0,0,1-2.242.625,3.912,3.912,0,0,1-1.651-.332A2.77,2.77,0,0,1,28.755-1.1a2.113,2.113,0,0,1-.41-1.248h1.873a1.031,1.031,0,0,0,.39.807,1.546,1.546,0,0,0,.971.28,1.43,1.43,0,0,0,.858-.215A.67.67,0,0,0,32.727-2.044ZM-27.33,11.37a4.436,4.436,0,0,1-.776,2.738,2.488,2.488,0,0,1-2.1,1.029,2.3,2.3,0,0,1-1.812-.779v3.486h-1.976V7.6h1.832l.068.725a2.322,2.322,0,0,1,1.873-.861,2.5,2.5,0,0,1,2.126,1.012,4.556,4.556,0,0,1,.759,2.789Zm-1.976-.144a2.911,2.911,0,0,0-.366-1.593,1.191,1.191,0,0,0-1.063-.561,1.294,1.294,0,0,0-1.278.711v3.028a1.316,1.316,0,0,0,1.292.731Q-29.306,13.544-29.306,11.227Zm6.6,3.91a3.631,3.631,0,0,1-2.649-1,3.548,3.548,0,0,1-1.022-2.659v-.191A4.468,4.468,0,0,1-25.942,9.3a3.161,3.161,0,0,1,1.22-1.354,3.425,3.425,0,0,1,1.8-.475,3.07,3.07,0,0,1,2.389.957,3.889,3.889,0,0,1,.872,2.714v.807h-4.71a1.835,1.835,0,0,0,.578,1.162,1.746,1.746,0,0,0,1.22.438,2.132,2.132,0,0,0,1.784-.827l.971,1.087a2.966,2.966,0,0,1-1.2.981A3.947,3.947,0,0,1-22.7,15.137Zm-.226-6.077a1.234,1.234,0,0,0-.954.4,2.062,2.062,0,0,0-.468,1.14H-21.6V10.44a1.471,1.471,0,0,0-.355-1.02A1.274,1.274,0,0,0-22.928,9.06Zm8.545.4a5.367,5.367,0,0,0-.711-.055,1.447,1.447,0,0,0-1.47.759V15h-1.976V7.6h1.866l.055.882a1.831,1.831,0,0,1,1.647-1.019,2.07,2.07,0,0,1,.615.089Zm4.956,3.5a.637.637,0,0,0-.359-.571,4.077,4.077,0,0,0-1.152-.373q-2.639-.554-2.639-2.242a2.032,2.032,0,0,1,.817-1.644,3.3,3.3,0,0,1,2.136-.66,3.547,3.547,0,0,1,2.252.663,2.09,2.09,0,0,1,.844,1.723H-9.5a.956.956,0,0,0-.273-.7,1.157,1.157,0,0,0-.854-.277A1.182,1.182,0,0,0-11.4,9.1a.712.712,0,0,0-.273.574.609.609,0,0,0,.311.53,3.2,3.2,0,0,0,1.049.349,8.571,8.571,0,0,1,1.244.332,2.044,2.044,0,0,1,1.565,1.989,1.929,1.929,0,0,1-.868,1.637,3.745,3.745,0,0,1-2.242.625,3.912,3.912,0,0,1-1.651-.332A2.77,2.77,0,0,1-13.4,13.9a2.113,2.113,0,0,1-.41-1.248h1.873a1.031,1.031,0,0,0,.39.807,1.546,1.546,0,0,0,.971.28,1.43,1.43,0,0,0,.858-.215A.67.67,0,0,0-9.427,12.956Zm2.885-1.723a4.387,4.387,0,0,1,.424-1.962A3.1,3.1,0,0,1-4.9,7.938a3.56,3.56,0,0,1,1.849-.472A3.368,3.368,0,0,1-.6,8.383,3.676,3.676,0,0,1,.451,10.871l.014.506a3.866,3.866,0,0,1-.95,2.731,3.3,3.3,0,0,1-2.55,1.029,3.319,3.319,0,0,1-2.553-1.025,3.934,3.934,0,0,1-.954-2.789Zm1.976.14a2.765,2.765,0,0,0,.4,1.612,1.308,1.308,0,0,0,1.135.558,1.311,1.311,0,0,0,1.121-.551,3.025,3.025,0,0,0,.4-1.763,2.737,2.737,0,0,0-.4-1.6A1.311,1.311,0,0,0-3.049,9.06a1.29,1.29,0,0,0-1.121.565A3.076,3.076,0,0,0-4.566,11.374ZM3.5,7.6l.062.854a2.582,2.582,0,0,1,2.126-.991,2.146,2.146,0,0,1,1.75.69,3.221,3.221,0,0,1,.588,2.064V15H6.05V10.27a1.282,1.282,0,0,0-.273-.913,1.224,1.224,0,0,0-.909-.284,1.359,1.359,0,0,0-1.251.711V15H1.641V7.6ZM13.809,15a2.194,2.194,0,0,1-.2-.663,2.39,2.39,0,0,1-1.866.8,2.626,2.626,0,0,1-1.8-.629,2.023,2.023,0,0,1-.714-1.586,2.09,2.09,0,0,1,.872-1.8,4.3,4.3,0,0,1,2.519-.636h.909v-.424a1.219,1.219,0,0,0-.263-.82,1.035,1.035,0,0,0-.831-.308,1.177,1.177,0,0,0-.783.239.813.813,0,0,0-.284.656H9.393a1.984,1.984,0,0,1,.4-1.189,2.621,2.621,0,0,1,1.121-.858,4.086,4.086,0,0,1,1.627-.311,3.228,3.228,0,0,1,2.17.687,2.4,2.4,0,0,1,.8,1.931v3.206a3.536,3.536,0,0,0,.294,1.593V15Zm-1.634-1.374a1.7,1.7,0,0,0,.807-.195,1.28,1.28,0,0,0,.547-.523V11.637H12.79q-1.483,0-1.579,1.025l-.007.116a.791.791,0,0,0,.26.608A1.009,1.009,0,0,0,12.175,13.626ZM19.113,15H17.131V4.5h1.982Zm5.031.137a3.631,3.631,0,0,1-2.649-1,3.548,3.548,0,0,1-1.022-2.659v-.191A4.468,4.468,0,0,1,20.9,9.3a3.161,3.161,0,0,1,1.22-1.354,3.425,3.425,0,0,1,1.8-.475,3.07,3.07,0,0,1,2.389.957,3.889,3.889,0,0,1,.872,2.714v.807h-4.71a1.835,1.835,0,0,0,.578,1.162,1.746,1.746,0,0,0,1.22.438,2.132,2.132,0,0,0,1.784-.827l.971,1.087a2.966,2.966,0,0,1-1.2.981A3.947,3.947,0,0,1,24.145,15.137ZM23.919,9.06a1.234,1.234,0,0,0-.954.4A2.062,2.062,0,0,0,22.5,10.6h2.748V10.44a1.471,1.471,0,0,0-.355-1.02A1.274,1.274,0,0,0,23.919,9.06Zm8.395,3.9a.637.637,0,0,0-.359-.571,4.077,4.077,0,0,0-1.152-.373q-2.639-.554-2.639-2.242a2.032,2.032,0,0,1,.817-1.644,3.3,3.3,0,0,1,2.136-.66,3.547,3.547,0,0,1,2.252.663,2.09,2.09,0,0,1,.844,1.723H32.238a.956.956,0,0,0-.273-.7,1.157,1.157,0,0,0-.854-.277,1.182,1.182,0,0,0-.772.226.712.712,0,0,0-.273.574.609.609,0,0,0,.311.53,3.2,3.2,0,0,0,1.049.349,8.571,8.571,0,0,1,1.244.332,2.044,2.044,0,0,1,1.565,1.989,1.929,1.929,0,0,1-.868,1.637,3.745,3.745,0,0,1-2.242.625,3.912,3.912,0,0,1-1.651-.332,2.77,2.77,0,0,1-1.131-.909,2.113,2.113,0,0,1-.41-1.248H29.8a1.031,1.031,0,0,0,.39.807,1.546,1.546,0,0,0,.971.28,1.43,1.43,0,0,0,.858-.215A.67.67,0,0,0,32.313,12.956Z" transform="translate(797.328 1484.064)" fill="#12263f"/>
    <path id="Trazado_877273" data-name="Trazado 877273" d="M-22.234-3.507V0h-2.051V-9.953H-20.4a4.492,4.492,0,0,1,1.972.41,3.022,3.022,0,0,1,1.309,1.166,3.25,3.25,0,0,1,.458,1.719,2.858,2.858,0,0,1-1,2.307,4.171,4.171,0,0,1-2.772.844Zm0-1.661H-20.4a1.8,1.8,0,0,0,1.241-.383,1.392,1.392,0,0,0,.427-1.094,1.642,1.642,0,0,0-.431-1.183,1.609,1.609,0,0,0-1.189-.465h-1.88ZM-11.173,0a2.194,2.194,0,0,1-.2-.663,2.39,2.39,0,0,1-1.866.8,2.626,2.626,0,0,1-1.8-.629,2.023,2.023,0,0,1-.714-1.586,2.09,2.09,0,0,1,.872-1.8,4.3,4.3,0,0,1,2.519-.636h.909v-.424a1.219,1.219,0,0,0-.263-.82,1.035,1.035,0,0,0-.831-.308,1.177,1.177,0,0,0-.783.239.813.813,0,0,0-.284.656h-1.976a1.984,1.984,0,0,1,.4-1.189,2.621,2.621,0,0,1,1.121-.858,4.086,4.086,0,0,1,1.627-.311,3.228,3.228,0,0,1,2.17.687,2.4,2.4,0,0,1,.8,1.931v3.206A3.536,3.536,0,0,0-9.177-.116V0Zm-1.634-1.374A1.7,1.7,0,0,0-12-1.569a1.28,1.28,0,0,0,.547-.523V-3.363h-.738q-1.483,0-1.579,1.025l-.007.116a.791.791,0,0,0,.26.608A1.009,1.009,0,0,0-12.807-1.374ZM-6.135-7.4l.062.854a2.582,2.582,0,0,1,2.126-.991,2.146,2.146,0,0,1,1.75.69A3.221,3.221,0,0,1-1.61-4.778V0H-3.585V-4.73a1.282,1.282,0,0,0-.273-.913,1.224,1.224,0,0,0-.909-.284,1.359,1.359,0,0,0-1.251.711V0H-7.995V-7.4ZM3.292.137a3.631,3.631,0,0,1-2.649-1A3.548,3.548,0,0,1-.379-3.521v-.191A4.468,4.468,0,0,1,.051-5.7a3.161,3.161,0,0,1,1.22-1.354,3.425,3.425,0,0,1,1.8-.475,3.07,3.07,0,0,1,2.389.957,3.889,3.889,0,0,1,.872,2.714v.807H1.624A1.835,1.835,0,0,0,2.2-1.894a1.746,1.746,0,0,0,1.22.438,2.132,2.132,0,0,0,1.784-.827L6.176-1.2a2.966,2.966,0,0,1-1.2.981A3.947,3.947,0,0,1,3.292.137ZM3.066-5.94a1.234,1.234,0,0,0-.954.4A2.062,2.062,0,0,0,1.644-4.4H4.392V-4.56a1.471,1.471,0,0,0-.355-1.02A1.274,1.274,0,0,0,3.066-5.94ZM9.54,0H7.557V-10.5H9.54Zm5.031.137a3.631,3.631,0,0,1-2.649-1A3.548,3.548,0,0,1,10.9-3.521v-.191A4.468,4.468,0,0,1,11.331-5.7a3.161,3.161,0,0,1,1.22-1.354,3.425,3.425,0,0,1,1.8-.475,3.07,3.07,0,0,1,2.389.957,3.889,3.889,0,0,1,.872,2.714v.807H12.9a1.835,1.835,0,0,0,.578,1.162,1.746,1.746,0,0,0,1.22.438,2.132,2.132,0,0,0,1.784-.827L17.456-1.2a2.966,2.966,0,0,1-1.2.981A3.947,3.947,0,0,1,14.571.137ZM14.345-5.94a1.234,1.234,0,0,0-.954.4,2.062,2.062,0,0,0-.468,1.14h2.748V-4.56a1.471,1.471,0,0,0-.355-1.02A1.274,1.274,0,0,0,14.345-5.94Zm8.395,3.9a.637.637,0,0,0-.359-.571,4.077,4.077,0,0,0-1.152-.373Q18.59-3.541,18.59-5.229a2.032,2.032,0,0,1,.817-1.644,3.3,3.3,0,0,1,2.136-.66A3.547,3.547,0,0,1,23.8-6.87a2.09,2.09,0,0,1,.844,1.723H22.665a.956.956,0,0,0-.273-.7,1.157,1.157,0,0,0-.854-.277,1.182,1.182,0,0,0-.772.226.712.712,0,0,0-.273.574.609.609,0,0,0,.311.53,3.2,3.2,0,0,0,1.049.349,8.571,8.571,0,0,1,1.244.332,2.044,2.044,0,0,1,1.565,1.989,1.929,1.929,0,0,1-.868,1.637A3.745,3.745,0,0,1,21.55.137,3.912,3.912,0,0,1,19.9-.195,2.77,2.77,0,0,1,18.768-1.1a2.113,2.113,0,0,1-.41-1.248h1.873a1.031,1.031,0,0,0,.39.807,1.546,1.546,0,0,0,.971.28,1.43,1.43,0,0,0,.858-.215A.67.67,0,0,0,22.74-2.044ZM-14.673,7.467a2.967,2.967,0,0,1,1.685.5,2.83,2.83,0,0,1,1.039,1.347,4.166,4.166,0,0,1,.236,1.9,4.5,4.5,0,0,1-1.227,2.854,3.465,3.465,0,0,1-2.642,1.063,2.958,2.958,0,0,1-1.668-.5A2.819,2.819,0,0,1-18.29,13.3a4.075,4.075,0,0,1-.239-1.887,4.633,4.633,0,0,1,1.244-2.912A3.393,3.393,0,0,1-14.673,7.467Zm-1.948,4.651a1.707,1.707,0,0,0,.308,1.034,1.022,1.022,0,0,0,.827.392,1.5,1.5,0,0,0,1.395-.816,4.066,4.066,0,0,0,.472-2.215,1.856,1.856,0,0,0-.318-1.048,1,1,0,0,0-.831-.406,1.5,1.5,0,0,0-1.377.809A4.024,4.024,0,0,0-16.622,12.117ZM-8.111,7.6l-.164.875a2.661,2.661,0,0,1,2.153-1,1.774,1.774,0,0,1,1.545.766A3.085,3.085,0,0,1-4.214,10.3L-4.994,15H-6.921l.793-4.724a2.212,2.212,0,0,0,.014-.485.783.783,0,0,0-.875-.718,1.659,1.659,0,0,0-1.36.7L-9.273,15H-11.2l1.285-7.4ZM-1.446,15H-3.387L-1.562,4.5H.373Zm3.671,0H.284L1.569,7.6H3.51ZM1.794,5.724a.963.963,0,0,1,.3-.759,1.058,1.058,0,0,1,.759-.3,1.063,1.063,0,0,1,.759.267.959.959,0,0,1,.335.725.99.99,0,0,1-.284.738,1.063,1.063,0,0,1-.776.328,1.081,1.081,0,0,1-.755-.26A.954.954,0,0,1,1.794,5.724ZM6.908,7.6l-.164.875a2.661,2.661,0,0,1,2.153-1,1.774,1.774,0,0,1,1.545.766A3.085,3.085,0,0,1,10.8,10.3L10.025,15H8.1l.793-4.724A2.212,2.212,0,0,0,8.9,9.791a.783.783,0,0,0-.875-.718,1.659,1.659,0,0,0-1.36.7L5.746,15H3.818L5.1,7.6Zm8.142,7.54a3.218,3.218,0,0,1-1.719-.475,2.88,2.88,0,0,1-1.118-1.285,3.582,3.582,0,0,1-.287-1.8l.021-.273a4.782,4.782,0,0,1,.629-1.982,3.8,3.8,0,0,1,1.354-1.391,3.349,3.349,0,0,1,1.832-.461,2.559,2.559,0,0,1,2.164,1.051,3.6,3.6,0,0,1,.557,2.591l-.109.842H13.839a1.587,1.587,0,0,0,.349,1.148,1.331,1.331,0,0,0,1.025.444,2.365,2.365,0,0,0,1.846-.82l.882,1.094a2.743,2.743,0,0,1-1.2.981A3.934,3.934,0,0,1,15.049,15.137Zm.615-6.077a1.37,1.37,0,0,0-.947.335,2.943,2.943,0,0,0-.742,1.21h2.652l.041-.178a1.812,1.812,0,0,0,.007-.52.992.992,0,0,0-.335-.619A1.05,1.05,0,0,0,15.665,9.06Z" transform="translate(682.328 1535.064)" fill="#12263f"/>
    <path id="Trazado_877278" data-name="Trazado 877278" d="M-25.648-4.313h-3.937v2.666h4.621V0h-6.672V-9.953h6.658v1.661h-4.607V-5.92h3.938ZM-22.073-7.4l.062.854a2.582,2.582,0,0,1,2.126-.991,2.146,2.146,0,0,1,1.75.69,3.221,3.221,0,0,1,.588,2.064V0h-1.976V-4.73a1.282,1.282,0,0,0-.273-.913,1.224,1.224,0,0,0-.909-.284,1.359,1.359,0,0,0-1.251.711V0h-1.976V-7.4Zm9.1,5.94a1.3,1.3,0,0,0,.889-.3,1.054,1.054,0,0,0,.355-.8h1.853a2.534,2.534,0,0,1-.41,1.377,2.706,2.706,0,0,1-1.1.971A3.455,3.455,0,0,1-12.94.137a3.211,3.211,0,0,1-2.5-1.008,3.99,3.99,0,0,1-.916-2.786v-.13a3.944,3.944,0,0,1,.909-2.728,3.174,3.174,0,0,1,2.5-1.019,3.111,3.111,0,0,1,2.225.79,2.8,2.8,0,0,1,.851,2.1H-11.73a1.358,1.358,0,0,0-.355-.938,1.185,1.185,0,0,0-.9-.361,1.19,1.19,0,0,0-1.042.5A2.916,2.916,0,0,0-14.383-3.8V-3.6a2.953,2.953,0,0,0,.349,1.643A1.2,1.2,0,0,0-12.975-1.456Zm8.654.7A2.477,2.477,0,0,1-6.344.137,2.337,2.337,0,0,1-8.159-.547a2.918,2.918,0,0,1-.639-2V-7.4h1.976v4.784q0,1.157,1.053,1.157a1.426,1.426,0,0,0,1.381-.7V-7.4h1.982V0H-4.266ZM2.488.137a3.631,3.631,0,0,1-2.649-1A3.548,3.548,0,0,1-1.183-3.521v-.191A4.468,4.468,0,0,1-.752-5.7,3.161,3.161,0,0,1,.468-7.058a3.425,3.425,0,0,1,1.8-.475,3.07,3.07,0,0,1,2.389.957A3.889,3.889,0,0,1,5.53-3.862v.807H.82A1.835,1.835,0,0,0,1.4-1.894a1.746,1.746,0,0,0,1.22.438A2.132,2.132,0,0,0,4.4-2.283L5.373-1.2a2.966,2.966,0,0,1-1.2.981A3.947,3.947,0,0,1,2.488.137ZM2.263-5.94a1.234,1.234,0,0,0-.954.4A2.062,2.062,0,0,0,.841-4.4H3.589V-4.56a1.471,1.471,0,0,0-.355-1.02A1.274,1.274,0,0,0,2.263-5.94Zm8.395,3.9a.637.637,0,0,0-.359-.571,4.077,4.077,0,0,0-1.152-.373Q6.508-3.541,6.508-5.229a2.032,2.032,0,0,1,.817-1.644,3.3,3.3,0,0,1,2.136-.66,3.547,3.547,0,0,1,2.252.663,2.09,2.09,0,0,1,.844,1.723H10.582a.956.956,0,0,0-.273-.7,1.157,1.157,0,0,0-.854-.277,1.182,1.182,0,0,0-.772.226.712.712,0,0,0-.273.574.609.609,0,0,0,.311.53,3.2,3.2,0,0,0,1.049.349,8.571,8.571,0,0,1,1.244.332,2.044,2.044,0,0,1,1.565,1.989A1.929,1.929,0,0,1,11.71-.489,3.745,3.745,0,0,1,9.468.137,3.912,3.912,0,0,1,7.817-.195,2.77,2.77,0,0,1,6.686-1.1a2.113,2.113,0,0,1-.41-1.248H8.148a1.031,1.031,0,0,0,.39.807,1.546,1.546,0,0,0,.971.28,1.43,1.43,0,0,0,.858-.215A.67.67,0,0,0,10.657-2.044Zm5.558-7.171V-7.4h1.265v1.449H16.215v3.691a.881.881,0,0,0,.157.588.79.79,0,0,0,.6.178,3.151,3.151,0,0,0,.581-.048v1.5a4.067,4.067,0,0,1-1.2.178,1.886,1.886,0,0,1-2.119-2.1V-5.947h-1.08V-7.4h1.08V-9.215ZM22.866,0a2.194,2.194,0,0,1-.2-.663,2.39,2.39,0,0,1-1.866.8A2.626,2.626,0,0,1,19-.492a2.023,2.023,0,0,1-.714-1.586,2.09,2.09,0,0,1,.872-1.8,4.3,4.3,0,0,1,2.519-.636h.909v-.424a1.219,1.219,0,0,0-.263-.82,1.035,1.035,0,0,0-.831-.308,1.177,1.177,0,0,0-.783.239.813.813,0,0,0-.284.656H18.45a1.984,1.984,0,0,1,.4-1.189,2.621,2.621,0,0,1,1.121-.858,4.086,4.086,0,0,1,1.627-.311,3.228,3.228,0,0,1,2.17.687,2.4,2.4,0,0,1,.8,1.931v3.206a3.536,3.536,0,0,0,.294,1.593V0ZM21.232-1.374a1.7,1.7,0,0,0,.807-.195,1.28,1.28,0,0,0,.547-.523V-3.363h-.738q-1.483,0-1.579,1.025l-.007.116a.791.791,0,0,0,.26.608A1.009,1.009,0,0,0,21.232-1.374Zm8.859-.67a.637.637,0,0,0-.359-.571,4.077,4.077,0,0,0-1.152-.373q-2.639-.554-2.639-2.242a2.032,2.032,0,0,1,.817-1.644,3.3,3.3,0,0,1,2.136-.66,3.547,3.547,0,0,1,2.252.663,2.09,2.09,0,0,1,.844,1.723H30.017a.956.956,0,0,0-.273-.7,1.157,1.157,0,0,0-.854-.277,1.182,1.182,0,0,0-.772.226.712.712,0,0,0-.273.574.609.609,0,0,0,.311.53,3.2,3.2,0,0,0,1.049.349,8.571,8.571,0,0,1,1.244.332,2.044,2.044,0,0,1,1.565,1.989,1.929,1.929,0,0,1-.868,1.637A3.745,3.745,0,0,1,28.9.137a3.912,3.912,0,0,1-1.651-.332A2.77,2.77,0,0,1,26.12-1.1a2.113,2.113,0,0,1-.41-1.248h1.873a1.031,1.031,0,0,0,.39.807,1.546,1.546,0,0,0,.971.28A1.43,1.43,0,0,0,29.8-1.48.67.67,0,0,0,30.092-2.044ZM-14.673,7.467a2.967,2.967,0,0,1,1.685.5,2.83,2.83,0,0,1,1.039,1.347,4.166,4.166,0,0,1,.236,1.9,4.5,4.5,0,0,1-1.227,2.854,3.465,3.465,0,0,1-2.642,1.063,2.958,2.958,0,0,1-1.668-.5A2.819,2.819,0,0,1-18.29,13.3a4.075,4.075,0,0,1-.239-1.887,4.633,4.633,0,0,1,1.244-2.912A3.393,3.393,0,0,1-14.673,7.467Zm-1.948,4.651a1.707,1.707,0,0,0,.308,1.034,1.022,1.022,0,0,0,.827.392,1.5,1.5,0,0,0,1.395-.816,4.066,4.066,0,0,0,.472-2.215,1.856,1.856,0,0,0-.318-1.048,1,1,0,0,0-.831-.406,1.5,1.5,0,0,0-1.377.809A4.024,4.024,0,0,0-16.622,12.117ZM-8.111,7.6l-.164.875a2.661,2.661,0,0,1,2.153-1,1.774,1.774,0,0,1,1.545.766A3.085,3.085,0,0,1-4.214,10.3L-4.994,15H-6.921l.793-4.724a2.212,2.212,0,0,0,.014-.485.783.783,0,0,0-.875-.718,1.659,1.659,0,0,0-1.36.7L-9.273,15H-11.2l1.285-7.4ZM-1.446,15H-3.387L-1.562,4.5H.373Zm3.671,0H.284L1.569,7.6H3.51ZM1.794,5.724a.963.963,0,0,1,.3-.759,1.058,1.058,0,0,1,.759-.3,1.063,1.063,0,0,1,.759.267.959.959,0,0,1,.335.725.99.99,0,0,1-.284.738,1.063,1.063,0,0,1-.776.328,1.081,1.081,0,0,1-.755-.26A.954.954,0,0,1,1.794,5.724ZM6.908,7.6l-.164.875a2.661,2.661,0,0,1,2.153-1,1.774,1.774,0,0,1,1.545.766A3.085,3.085,0,0,1,10.8,10.3L10.025,15H8.1l.793-4.724A2.212,2.212,0,0,0,8.9,9.791a.783.783,0,0,0-.875-.718,1.659,1.659,0,0,0-1.36.7L5.746,15H3.818L5.1,7.6Zm8.142,7.54a3.218,3.218,0,0,1-1.719-.475,2.88,2.88,0,0,1-1.118-1.285,3.582,3.582,0,0,1-.287-1.8l.021-.273a4.782,4.782,0,0,1,.629-1.982,3.8,3.8,0,0,1,1.354-1.391,3.349,3.349,0,0,1,1.832-.461,2.559,2.559,0,0,1,2.164,1.051,3.6,3.6,0,0,1,.557,2.591l-.109.842H13.839a1.587,1.587,0,0,0,.349,1.148,1.331,1.331,0,0,0,1.025.444,2.365,2.365,0,0,0,1.846-.82l.882,1.094a2.743,2.743,0,0,1-1.2.981A3.934,3.934,0,0,1,15.049,15.137Zm.615-6.077a1.37,1.37,0,0,0-.947.335,2.943,2.943,0,0,0-.742,1.21h2.652l.041-.178a1.812,1.812,0,0,0,.007-.52.992.992,0,0,0-.335-.619A1.05,1.05,0,0,0,15.665,9.06Z" transform="translate(735.328 1756.064)" fill="#12263f"/>
    <path id="Trazado_877279" data-name="Trazado 877279" d="M-30.331-4.751a6.008,6.008,0,0,1-.52,2.577A3.913,3.913,0,0,1-32.337-.465a4.113,4.113,0,0,1-2.218.6,4.141,4.141,0,0,1-2.208-.595,3.951,3.951,0,0,1-1.5-1.7,5.837,5.837,0,0,1-.54-2.54v-.492a5.977,5.977,0,0,1,.53-2.587,3.945,3.945,0,0,1,1.5-1.716,4.118,4.118,0,0,1,2.211-.6,4.118,4.118,0,0,1,2.211.6,3.945,3.945,0,0,1,1.5,1.716,5.96,5.96,0,0,1,.53,2.581ZM-32.409-5.2a4.188,4.188,0,0,0-.561-2.379,1.827,1.827,0,0,0-1.6-.813,1.827,1.827,0,0,0-1.593.8,4.141,4.141,0,0,0-.567,2.355v.485a4.241,4.241,0,0,0,.561,2.365,1.822,1.822,0,0,0,1.613.841,1.806,1.806,0,0,0,1.586-.81,4.216,4.216,0,0,0,.561-2.362Zm10.1,1.572a4.479,4.479,0,0,1-.759,2.772,2.513,2.513,0,0,1-2.119.995A2.309,2.309,0,0,1-27.1-.786L-27.193,0h-1.777V-10.5H-27v3.767a2.25,2.25,0,0,1,1.8-.8,2.534,2.534,0,0,1,2.123.995,4.485,4.485,0,0,1,.769,2.8Zm-1.976-.144a2.942,2.942,0,0,0-.355-1.637,1.2,1.2,0,0,0-1.06-.516,1.3,1.3,0,0,0-1.3.772v2.919a1.321,1.321,0,0,0,1.313.779A1.22,1.22,0,0,0-24.425-2.4,4.866,4.866,0,0,0-24.281-3.773Zm7.2,1.729a.637.637,0,0,0-.359-.571,4.077,4.077,0,0,0-1.152-.373q-2.639-.554-2.639-2.242a2.032,2.032,0,0,1,.817-1.644,3.3,3.3,0,0,1,2.136-.66,3.547,3.547,0,0,1,2.252.663,2.09,2.09,0,0,1,.844,1.723h-1.976a.956.956,0,0,0-.273-.7,1.157,1.157,0,0,0-.854-.277,1.182,1.182,0,0,0-.772.226.712.712,0,0,0-.273.574.609.609,0,0,0,.311.53,3.2,3.2,0,0,0,1.049.349,8.571,8.571,0,0,1,1.244.332,2.044,2.044,0,0,1,1.565,1.989A1.929,1.929,0,0,1-16.03-.489a3.745,3.745,0,0,1-2.242.625,3.912,3.912,0,0,1-1.651-.332A2.77,2.77,0,0,1-21.055-1.1a2.113,2.113,0,0,1-.41-1.248h1.873a1.031,1.031,0,0,0,.39.807,1.546,1.546,0,0,0,.971.28,1.43,1.43,0,0,0,.858-.215A.67.67,0,0,0-17.083-2.044Zm6.6,2.181a3.631,3.631,0,0,1-2.649-1,3.548,3.548,0,0,1-1.022-2.659v-.191A4.468,4.468,0,0,1-13.727-5.7a3.161,3.161,0,0,1,1.22-1.354,3.425,3.425,0,0,1,1.8-.475,3.07,3.07,0,0,1,2.389.957,3.889,3.889,0,0,1,.872,2.714v.807h-4.71a1.835,1.835,0,0,0,.578,1.162,1.746,1.746,0,0,0,1.22.438,2.132,2.132,0,0,0,1.784-.827L-7.6-1.2a2.966,2.966,0,0,1-1.2.981A3.947,3.947,0,0,1-10.486.137Zm-.226-6.077a1.234,1.234,0,0,0-.954.4,2.062,2.062,0,0,0-.468,1.14h2.748V-4.56a1.471,1.471,0,0,0-.355-1.02A1.274,1.274,0,0,0-10.712-5.94Zm8.545.4A5.367,5.367,0,0,0-2.878-5.6a1.447,1.447,0,0,0-1.47.759V0H-6.323V-7.4h1.866l.055.882A1.831,1.831,0,0,1-2.755-7.533a2.07,2.07,0,0,1,.615.089ZM1.675-2.413,3.049-7.4H5.113L2.618,0H.731l-2.5-7.4H.3ZM10.165,0a2.194,2.194,0,0,1-.2-.663A2.39,2.39,0,0,1,8.1.137,2.626,2.626,0,0,1,6.3-.492a2.023,2.023,0,0,1-.714-1.586,2.09,2.09,0,0,1,.872-1.8,4.3,4.3,0,0,1,2.519-.636h.909v-.424a1.219,1.219,0,0,0-.263-.82,1.035,1.035,0,0,0-.831-.308,1.177,1.177,0,0,0-.783.239.813.813,0,0,0-.284.656H5.749a1.984,1.984,0,0,1,.4-1.189,2.621,2.621,0,0,1,1.121-.858,4.086,4.086,0,0,1,1.627-.311,3.228,3.228,0,0,1,2.17.687,2.4,2.4,0,0,1,.8,1.931v3.206a3.536,3.536,0,0,0,.294,1.593V0ZM8.531-1.374a1.7,1.7,0,0,0,.807-.195,1.28,1.28,0,0,0,.547-.523V-3.363H9.146q-1.483,0-1.579,1.025l-.007.116a.791.791,0,0,0,.26.608A1.009,1.009,0,0,0,8.531-1.374Zm7.93-.082a1.3,1.3,0,0,0,.889-.3,1.054,1.054,0,0,0,.355-.8h1.853a2.534,2.534,0,0,1-.41,1.377,2.706,2.706,0,0,1-1.1.971A3.455,3.455,0,0,1,16.5.137a3.211,3.211,0,0,1-2.5-1.008,3.99,3.99,0,0,1-.916-2.786v-.13a3.944,3.944,0,0,1,.909-2.728,3.174,3.174,0,0,1,2.5-1.019,3.111,3.111,0,0,1,2.225.79,2.8,2.8,0,0,1,.851,2.1H17.705a1.358,1.358,0,0,0-.355-.938,1.185,1.185,0,0,0-.9-.361,1.19,1.19,0,0,0-1.042.5A2.916,2.916,0,0,0,15.053-3.8V-3.6A2.953,2.953,0,0,0,15.4-1.956,1.2,1.2,0,0,0,16.461-1.456ZM22.771,0H20.788V-7.4h1.982Zm-2.1-9.311a.973.973,0,0,1,.3-.731,1.117,1.117,0,0,1,.81-.287,1.12,1.12,0,0,1,.807.287.967.967,0,0,1,.3.731.97.97,0,0,1-.3.738,1.122,1.122,0,0,1-.8.287,1.122,1.122,0,0,1-.8-.287A.97.97,0,0,1,20.672-9.311ZM24.09-3.767a4.387,4.387,0,0,1,.424-1.962,3.1,3.1,0,0,1,1.22-1.333,3.56,3.56,0,0,1,1.849-.472,3.368,3.368,0,0,1,2.444.916,3.676,3.676,0,0,1,1.056,2.488l.014.506a3.866,3.866,0,0,1-.95,2.731A3.3,3.3,0,0,1,27.6.137,3.319,3.319,0,0,1,25.043-.889a3.934,3.934,0,0,1-.954-2.789Zm1.976.14a2.765,2.765,0,0,0,.4,1.612,1.308,1.308,0,0,0,1.135.558,1.311,1.311,0,0,0,1.121-.551,3.025,3.025,0,0,0,.4-1.763,2.737,2.737,0,0,0-.4-1.6,1.311,1.311,0,0,0-1.135-.568,1.29,1.29,0,0,0-1.121.565A3.076,3.076,0,0,0,26.065-3.626ZM27.973-10.5h2.153L28.232-8.381H26.626Zm6.159,3.1.062.854a2.582,2.582,0,0,1,2.126-.991,2.146,2.146,0,0,1,1.75.69,3.221,3.221,0,0,1,.588,2.064V0H36.682V-4.73a1.282,1.282,0,0,0-.273-.913,1.224,1.224,0,0,0-.909-.284,1.359,1.359,0,0,0-1.251.711V0H32.272V-7.4Z" transform="translate(859.328 1763.564)" fill="#12263f"/>
    <path id="Trazado_877275" data-name="Trazado 877275" d="M-12.011-4.067h-3.937V0H-18V-9.953h6.48v1.661h-4.43v2.57h3.938Zm1.1.3a4.387,4.387,0,0,1,.424-1.962,3.1,3.1,0,0,1,1.22-1.333,3.56,3.56,0,0,1,1.849-.472,3.368,3.368,0,0,1,2.444.916A3.676,3.676,0,0,1-3.917-4.129l.014.506a3.866,3.866,0,0,1-.95,2.731A3.3,3.3,0,0,1-7.4.137,3.319,3.319,0,0,1-9.957-.889a3.934,3.934,0,0,1-.954-2.789Zm1.976.14a2.765,2.765,0,0,0,.4,1.612A1.308,1.308,0,0,0-7.4-1.456a1.311,1.311,0,0,0,1.121-.551,3.025,3.025,0,0,0,.4-1.763,2.737,2.737,0,0,0-.4-1.6A1.311,1.311,0,0,0-7.417-5.94a1.29,1.29,0,0,0-1.121.565A3.076,3.076,0,0,0-8.935-3.626ZM.39-1.456a1.3,1.3,0,0,0,.889-.3,1.054,1.054,0,0,0,.355-.8H3.486a2.534,2.534,0,0,1-.41,1.377,2.706,2.706,0,0,1-1.1.971A3.455,3.455,0,0,1,.424.137a3.211,3.211,0,0,1-2.5-1.008,3.99,3.99,0,0,1-.916-2.786v-.13a3.944,3.944,0,0,1,.909-2.728A3.174,3.174,0,0,1,.41-7.533a3.111,3.111,0,0,1,2.225.79,2.8,2.8,0,0,1,.851,2.1H1.634a1.358,1.358,0,0,0-.355-.938,1.185,1.185,0,0,0-.9-.361,1.19,1.19,0,0,0-1.042.5A2.916,2.916,0,0,0-1.019-3.8V-3.6A2.953,2.953,0,0,0-.67-1.956,1.2,1.2,0,0,0,.39-1.456Zm8.654.7A2.477,2.477,0,0,1,7.021.137,2.337,2.337,0,0,1,5.206-.547a2.918,2.918,0,0,1-.639-2V-7.4H6.542v4.784q0,1.157,1.053,1.157a1.426,1.426,0,0,0,1.381-.7V-7.4h1.982V0H9.1Zm7.41-1.292a.637.637,0,0,0-.359-.571,4.077,4.077,0,0,0-1.152-.373Q12.3-3.541,12.3-5.229a2.032,2.032,0,0,1,.817-1.644,3.3,3.3,0,0,1,2.136-.66,3.547,3.547,0,0,1,2.252.663,2.09,2.09,0,0,1,.844,1.723H16.379a.956.956,0,0,0-.273-.7,1.157,1.157,0,0,0-.854-.277,1.182,1.182,0,0,0-.772.226.712.712,0,0,0-.273.574.609.609,0,0,0,.311.53,3.2,3.2,0,0,0,1.049.349,8.571,8.571,0,0,1,1.244.332,2.044,2.044,0,0,1,1.565,1.989,1.929,1.929,0,0,1-.868,1.637,3.745,3.745,0,0,1-2.242.625,3.912,3.912,0,0,1-1.651-.332A2.77,2.77,0,0,1,12.482-1.1a2.113,2.113,0,0,1-.41-1.248h1.873a1.031,1.031,0,0,0,.39.807,1.546,1.546,0,0,0,.971.28,1.43,1.43,0,0,0,.858-.215A.67.67,0,0,0,16.454-2.044ZM-17.473,11.295a5.118,5.118,0,0,1,1.118-2.786,2.836,2.836,0,0,1,2.3-1.049,2.074,2.074,0,0,1,1.764.854l.253-.718,1.771.007-1.21,7.144a3.485,3.485,0,0,1-1.258,2.338,3.912,3.912,0,0,1-2.625.834,3.647,3.647,0,0,1-1.463-.332,3.128,3.128,0,0,1-1.148-.872l.957-1.176a2.055,2.055,0,0,0,1.613.841,1.9,1.9,0,0,0,1.285-.393,2.1,2.1,0,0,0,.725-1.186l.109-.444a2.4,2.4,0,0,1-1.812.779,2.125,2.125,0,0,1-1.716-.8,3.454,3.454,0,0,1-.7-2.054A6.9,6.9,0,0,1-17.473,11.295Zm1.894.811a1.768,1.768,0,0,0,.27,1.03.945.945,0,0,0,.783.407,1.726,1.726,0,0,0,1.395-.671l.574-3.136a1.134,1.134,0,0,0-1.087-.671,1.512,1.512,0,0,0-1.251.6,3.116,3.116,0,0,0-.643,1.636A7.187,7.187,0,0,0-15.579,12.106Zm10.623-2.65a3.98,3.98,0,0,0-.649-.068,1.869,1.869,0,0,0-1.634.772L-8.094,15h-1.928l1.285-7.4L-6.925,7.6l-.178.9A2.034,2.034,0,0,1-5.38,7.453a2.812,2.812,0,0,1,.67.1Zm3.944-1.989a2.967,2.967,0,0,1,1.685.5A2.83,2.83,0,0,1,1.712,9.316a4.166,4.166,0,0,1,.236,1.9A4.5,4.5,0,0,1,.721,14.074a3.465,3.465,0,0,1-2.642,1.063,2.958,2.958,0,0,1-1.668-.5A2.819,2.819,0,0,1-4.628,13.3a4.075,4.075,0,0,1-.239-1.887A4.633,4.633,0,0,1-3.623,8.506,3.393,3.393,0,0,1-1.012,7.467ZM-2.96,12.117a1.707,1.707,0,0,0,.308,1.034,1.022,1.022,0,0,0,.827.392,1.5,1.5,0,0,0,1.395-.816,4.066,4.066,0,0,0,.472-2.215A1.856,1.856,0,0,0-.277,9.466a1,1,0,0,0-.831-.406,1.5,1.5,0,0,0-1.377.809A4.024,4.024,0,0,0-2.96,12.117ZM7.082,14.234a2.554,2.554,0,0,1-2.037.9,1.9,1.9,0,0,1-1.613-.766,2.8,2.8,0,0,1-.424-1.982l.8-4.785H5.735l-.813,4.811a1.9,1.9,0,0,0-.007.424.7.7,0,0,0,.759.7,1.762,1.762,0,0,0,1.483-.691L8.08,7.6h1.941L8.736,15h-1.8Zm10.192-2.912a6.109,6.109,0,0,1-.608,2.064,3.347,3.347,0,0,1-1.155,1.34,2.676,2.676,0,0,1-1.531.417,2.135,2.135,0,0,1-1.7-.8l-.677,3.5H9.68L11.45,7.6,13.228,7.6l-.13.745a2.362,2.362,0,0,1,1.887-.875,2.1,2.1,0,0,1,1.688.79,3.432,3.432,0,0,1,.643,2.068A7.991,7.991,0,0,1,17.274,11.322Zm-1.914-.14.041-.657a1.828,1.828,0,0,0-.243-1.054.871.871,0,0,0-.749-.4,1.591,1.591,0,0,0-1.388.712l-.554,3.054a1.079,1.079,0,0,0,1.087.719,1.391,1.391,0,0,0,1.162-.541A3.7,3.7,0,0,0,15.36,11.182Z" transform="translate(657.328 1656.064)" fill="#12263f"/>
  </g>
</svg>
