<svg xmlns="http://www.w3.org/2000/svg" width="95.884" height="103.467" viewBox="0 0 95.884 103.467">
  <g id="Grupo_1102809" data-name="Grupo 1102809" transform="translate(-390 -1432.855)">
    <g id="Grupo_1100821" data-name="Grupo 1100821" transform="translate(0 -7196.145)">
      <path id="Rectángulo_401018" data-name="Rectángulo 401018" d="M59,0H89a0,0,0,0,1,0,0V91a0,0,0,0,1,0,0H0a0,0,0,0,1,0,0V59A59,59,0,0,1,59,0Z" transform="translate(390 8629)" fill="#fff"/>
      <g id="Grupo_1101137" data-name="Grupo 1101137" transform="translate(379.346 8645.135)">
        <path id="Trazado_874364" data-name="Trazado 874364" d="M101.345,378.206H34.569a5.193,5.193,0,0,1-5.193-5.193v-7.224l77.162-14.022v21.246A5.193,5.193,0,0,1,101.345,378.206Z" transform="translate(0 -290.874)" fill="#afafaf"/>
        <path id="Trazado_874365" data-name="Trazado 874365" d="M87.217,116.682H34.578a5.2,5.2,0,0,1-5.2-5.2v-64.5a5.2,5.2,0,0,1,5.2-5.2h66.758a5.2,5.2,0,0,1,5.2,5.2V97.36c0,1.38-3.145,2.7-4.12,3.678L90.895,112.561C89.92,113.537,88.6,116.682,87.217,116.682Z" transform="translate(0 -34.543)" fill="#f6f6f6"/>
        <path id="Trazado_874366" data-name="Trazado 874366" d="M353.3,372.025a5.2,5.2,0,0,0,3.678-1.524l14.143-14.143a5.2,5.2,0,0,0,1.524-3.678v-2.107a4.262,4.262,0,0,1-4.262,4.262h-8.666a4.262,4.262,0,0,0-4.262,4.262v8.666a4.262,4.262,0,0,1-4.262,4.262H353.3Z" transform="translate(-266.112 -289.886)" fill="#e8e8e8"/>
        <path id="Trazado_874367" data-name="Trazado 874367" d="M106.54,46.963v13.36H29.38V46.963a5.194,5.194,0,0,1,5.193-5.193h66.774A5.194,5.194,0,0,1,106.54,46.963Z" transform="translate(-0.003 -34.539)" fill="#6e3dc6"/>
        <g id="Grupo_1101129" data-name="Grupo 1101129" transform="translate(37.58 7.231)">
          <g id="Grupo_1101127" data-name="Grupo 1101127" transform="translate(0)">
            <path id="Trazado_874368" data-name="Trazado 874368" d="M83.267,50.834H80.719a3.952,3.952,0,0,1-3.949-3.947V41.77h2.6v5.117a1.352,1.352,0,0,0,1.352,1.35C81.435,48.237,83.983,50.834,83.267,50.834Z" transform="translate(-76.77 -41.77)" fill="#6e3dc6"/>
          </g>
          <g id="Grupo_1101128" data-name="Grupo 1101128" transform="translate(47.165)">
            <path id="Trazado_874369" data-name="Trazado 874369" d="M355.726,50.834h-2.549a3.952,3.952,0,0,1-3.947-3.947V41.77h2.6v5.117a1.352,1.352,0,0,0,1.35,1.35C353.9,48.237,355.726,50.118,355.726,50.834Z" transform="translate(-349.23 -41.77)" fill="#6e3dc6"/>
          </g>
        </g>
        <g id="Grupo_1101132" data-name="Grupo 1101132" transform="translate(40.129 0)">
          <g id="Grupo_1101130" data-name="Grupo 1101130" transform="translate(0 0)">
            <path id="Trazado_874370" data-name="Trazado 874370" d="M97.388,7.231V3.948A1.353,1.353,0,0,0,96.037,2.6h-.6A1.353,1.353,0,0,0,94.09,3.948v8.4A1.353,1.353,0,0,0,95.441,13.7a1.3,1.3,0,0,1,0,2.6,3.952,3.952,0,0,1-3.948-3.948v-8.4A3.952,3.952,0,0,1,95.441,0h.6a3.952,3.952,0,0,1,3.948,3.948V7.231Z" transform="translate(-91.493 0)" fill="#554e56"/>
          </g>
          <g id="Grupo_1101131" data-name="Grupo 1101131" transform="translate(47.164 0)">
            <path id="Trazado_874371" data-name="Trazado 874371" d="M369.845,7.231V3.948A1.353,1.353,0,0,0,368.494,2.6h-.6a1.353,1.353,0,0,0-1.351,1.351v8.4A1.353,1.353,0,0,0,367.9,13.7a1.3,1.3,0,1,1,0,2.6,3.952,3.952,0,0,1-3.948-3.948v-8.4A3.952,3.952,0,0,1,367.9,0h.6a3.952,3.952,0,0,1,3.948,3.948V7.231Z" transform="translate(-363.95 0)" fill="#554e56"/>
          </g>
        </g>
        <g id="Grupo_1101136" data-name="Grupo 1101136" transform="translate(37.166 33.572)">
          <g id="Grupo_1101133" data-name="Grupo 1101133" transform="translate(0)">
            <path id="Trazado_874372" data-name="Trazado 874372" d="M81.795,202.594H75.613a1.236,1.236,0,0,1-1.236-1.236v-6.182a1.237,1.237,0,0,1,1.236-1.237h6.182a1.237,1.237,0,0,1,1.236,1.237v6.182A1.236,1.236,0,0,1,81.795,202.594Z" transform="translate(-74.376 -193.939)" fill="#be79ca"/>
            <path id="Trazado_874373" data-name="Trazado 874373" d="M183.711,202.594h-6.182a1.236,1.236,0,0,1-1.237-1.236v-6.182a1.237,1.237,0,0,1,1.237-1.237h6.182a1.237,1.237,0,0,1,1.236,1.237v6.182A1.236,1.236,0,0,1,183.711,202.594Z" transform="translate(-158.65 -193.939)" fill="#be79ca"/>
            <path id="Trazado_874374" data-name="Trazado 874374" d="M285.627,202.594h-6.182a1.236,1.236,0,0,1-1.237-1.236v-6.182a1.237,1.237,0,0,1,1.237-1.237h6.182a1.237,1.237,0,0,1,1.236,1.237v6.182A1.236,1.236,0,0,1,285.627,202.594Z" transform="translate(-242.923 -193.939)" fill="#be79ca"/>
            <path id="Trazado_874375" data-name="Trazado 874375" d="M387.543,202.594h-6.182a1.236,1.236,0,0,1-1.237-1.236v-6.182a1.237,1.237,0,0,1,1.237-1.237h6.182a1.236,1.236,0,0,1,1.236,1.237v6.182A1.236,1.236,0,0,1,387.543,202.594Z" transform="translate(-327.197 -193.939)" fill="#be79ca"/>
          </g>
          <g id="Grupo_1101134" data-name="Grupo 1101134" transform="translate(0 16.06)">
            <path id="Trazado_874376" data-name="Trazado 874376" d="M81.795,295.367H75.613a1.236,1.236,0,0,1-1.236-1.237v-6.182a1.236,1.236,0,0,1,1.236-1.236h6.182a1.236,1.236,0,0,1,1.236,1.236v6.182A1.236,1.236,0,0,1,81.795,295.367Z" transform="translate(-74.376 -286.712)" fill="#be79ca"/>
            <path id="Trazado_874377" data-name="Trazado 874377" d="M183.711,295.367h-6.182a1.236,1.236,0,0,1-1.237-1.237v-6.182a1.236,1.236,0,0,1,1.237-1.236h6.182a1.236,1.236,0,0,1,1.236,1.236v6.182A1.236,1.236,0,0,1,183.711,295.367Z" transform="translate(-158.65 -286.712)" fill="#be79ca"/>
            <path id="Trazado_874378" data-name="Trazado 874378" d="M285.627,295.367h-6.182a1.237,1.237,0,0,1-1.237-1.237v-6.182a1.236,1.236,0,0,1,1.237-1.236h6.182a1.236,1.236,0,0,1,1.236,1.236v6.182A1.236,1.236,0,0,1,285.627,295.367Z" transform="translate(-242.923 -286.712)" fill="#be79ca"/>
          </g>
          <path id="Trazado_874379" data-name="Trazado 874379" d="M387.543,297.594h-6.182a1.237,1.237,0,0,1-1.237-1.237v-6.182a1.236,1.236,0,0,1,1.237-1.237h6.182a1.236,1.236,0,0,1,1.236,1.237v6.182A1.237,1.237,0,0,1,387.543,297.594Z" transform="translate(-327.197 -272.494)" fill="#be79ca"/>
          <g id="Grupo_1101135" data-name="Grupo 1101135" transform="translate(0 32.119)">
            <path id="Trazado_874380" data-name="Trazado 874380" d="M81.795,388.14H75.613a1.236,1.236,0,0,1-1.236-1.236v-6.182a1.236,1.236,0,0,1,1.236-1.237h6.182a1.236,1.236,0,0,1,1.236,1.237V386.9A1.236,1.236,0,0,1,81.795,388.14Z" transform="translate(-74.376 -379.485)" fill="#be79ca"/>
            <path id="Trazado_874381" data-name="Trazado 874381" d="M183.711,388.14h-6.182a1.236,1.236,0,0,1-1.237-1.236v-6.182a1.236,1.236,0,0,1,1.237-1.237h6.182a1.236,1.236,0,0,1,1.236,1.237V386.9A1.236,1.236,0,0,1,183.711,388.14Z" transform="translate(-158.65 -379.485)" fill="#be79ca"/>
            <path id="Trazado_874382" data-name="Trazado 874382" d="M285.627,388.14h-6.182a1.236,1.236,0,0,1-1.237-1.236v-6.182a1.236,1.236,0,0,1,1.237-1.237h6.182a1.236,1.236,0,0,1,1.236,1.237V386.9A1.236,1.236,0,0,1,285.627,388.14Z" transform="translate(-242.923 -379.485)" fill="#be79ca"/>
          </g>
        </g>
      </g>
    </g>
  </g>
</svg>
