<svg xmlns="http://www.w3.org/2000/svg" width="102.439" height="108.13" viewBox="0 0 102.439 108.13">
  <g id="Grupo_1102810" data-name="Grupo 1102810" transform="translate(-746.242 -1432.855)">
    <g id="Grupo_1100822" data-name="Grupo 1100822" transform="translate(356.242 -7196.145)">
      <path id="Rectángulo_401018" data-name="Rectángulo 401018" d="M59,0H89a0,0,0,0,1,0,0V91a0,0,0,0,1,0,0H0a0,0,0,0,1,0,0V59A59,59,0,0,1,59,0Z" transform="translate(390 8629)" fill="#fff"/>
      <path id="Trazado_874383" data-name="Trazado 874383" d="M187.273,187.657c-7.35,3.876-14.832,5.348-23.786,5.348C141.573,193,123,176.969,123,151.313,123,123.786,142.108,100,171.773,100c23.251,0,38.884,16.3,38.884,38.618,0,20.045-11.224,31.8-23.786,31.8-5.348,0-10.289-3.6-9.882-11.759h-.535c-4.677,7.883-10.823,11.759-18.842,11.759-7.751,0-14.432-6.278-14.432-16.837a31.55,31.55,0,0,1,31.669-31.67,35.253,35.253,0,0,1,14.3,2.806L184.6,148.908c-2,10.156-.4,14.833,4.01,14.966,6.815.134,14.431-8.952,14.431-24.453,0-19.376-11.626-33.274-32.338-33.274-21.78,0-40.087,17.238-40.087,44.364,0,22.321,14.565,36.08,34.342,36.08,7.617,0,14.7-1.6,20.177-4.677Zm-7.35-57.724a23.106,23.106,0,0,0-6.681-.93C161.483,129,152,140.093,152,153.054c0,5.88,2.94,10.156,8.82,10.156,7.75,0,14.832-9.889,16.3-18.173Z" transform="translate(281.782 8544.126)" fill="#6e3dc6"/>
    </g>
  </g>
</svg>
