<svg xmlns="http://www.w3.org/2000/svg" width="106.497" height="91" viewBox="0 0 106.497 91">
  <g id="Grupo_1102806" data-name="Grupo 1102806" transform="translate(-325.742 -11758.764)">
    <g id="Grupo_1100747" data-name="Grupo 1100747" transform="translate(-10.258 3909.764)">
      <path id="Rectángulo_401055" data-name="Rectángulo 401055" d="M59,0H89a0,0,0,0,1,0,0V91a0,0,0,0,1,0,0H0a0,0,0,0,1,0,0V59A59,59,0,0,1,59,0Z" transform="translate(336 7849)" fill="#fff"/>
      <g id="Layer_x0020_1" transform="translate(336 7784.448)">
        <g id="_287463608" transform="translate(0 84)">
          <path id="Trazado_873806" data-name="Trazado 873806" d="M359.24,208.568h-8.528a1.144,1.144,0,0,1-1.04-.624,9.009,9.009,0,0,0-7.072-3.12,9.315,9.315,0,0,0-7.072,3.12,1.144,1.144,0,0,1-1.04.624h-6.032A1.422,1.422,0,0,1,327,207.112V174.456A1.422,1.422,0,0,1,328.456,173h15.392a16.826,16.826,0,0,1,12.272,5.408H336.776a1.563,1.563,0,0,0-1.456,1.456v12.064a1.563,1.563,0,0,0,1.456,1.456H360.7v13.728A1.422,1.422,0,0,1,359.24,208.568Zm-1.664-28.5a.2.2,0,0,0,.208.208Z" transform="translate(-258.984 -154.488)" fill="#6e3dc6" fill-rule="evenodd"/>
          <path id="Trazado_873807" data-name="Trazado 873807" d="M131.32,416.912H46.456a1.456,1.456,0,1,1,0-2.912H131.32a1.456,1.456,0,1,1,0,2.912Z" transform="translate(-35.64 -345.36)" fill="#787471" fill-rule="evenodd"/>
          <path id="Trazado_873808" data-name="Trazado 873808" d="M87.688,138.08H49.208a1.144,1.144,0,0,1-1.04-.624,9.315,9.315,0,0,0-7.072-3.12,9.009,9.009,0,0,0-7.072,3.12,1.144,1.144,0,0,1-1.04.624H24.456A1.422,1.422,0,0,1,23,136.624V86.912A2.844,2.844,0,0,1,25.912,84h60.32a2.975,2.975,0,0,1,2.912,2.912v49.712A1.422,1.422,0,0,1,87.688,138.08Z" transform="translate(-18.216 -84)" fill="#e8e8e8" fill-rule="evenodd"/>
          <path id="Trazado_873809" data-name="Trazado 873809" d="M12.064,339.776H4.992A5.062,5.062,0,0,1,0,334.784,4.885,4.885,0,0,1,4.992,330h9.776a1.393,1.393,0,0,1,1.04,2.288,9.062,9.062,0,0,0-2.288,6.032A1.422,1.422,0,0,1,12.064,339.776Zm89.44,0H94.433a1.422,1.422,0,0,1-1.456-1.456,9.062,9.062,0,0,0-2.288-6.032A1.393,1.393,0,0,1,91.729,330H101.5a4.885,4.885,0,0,1,4.992,4.784A5.061,5.061,0,0,1,101.5,339.776Zm-28.5,0H33.488a1.422,1.422,0,0,1-1.456-1.456,10.066,10.066,0,0,0-2.08-6.032,1.281,1.281,0,0,1-.208-1.456A1.141,1.141,0,0,1,30.992,330H75.5a1.141,1.141,0,0,1,1.248.832,1.281,1.281,0,0,1-.208,1.456,10.066,10.066,0,0,0-2.08,6.032A1.422,1.422,0,0,1,73.008,339.776Z" transform="translate(0 -278.832)" fill="#636363" fill-rule="evenodd"/>
          <path id="Trazado_873810" data-name="Trazado 873810" d="M63.272,335.336A12.252,12.252,0,0,1,51,323.272,12.431,12.431,0,0,1,63.272,311a12.252,12.252,0,0,1,12.064,12.272A12.073,12.073,0,0,1,63.272,335.336Z" transform="translate(-40.392 -263.784)" fill="#544f4c" fill-rule="evenodd"/>
          <path id="Trazado_873811" data-name="Trazado 873811" d="M356.064,335.336A12.073,12.073,0,0,1,344,323.272,12.252,12.252,0,0,1,356.064,311a12.431,12.431,0,0,1,12.272,12.272A12.252,12.252,0,0,1,356.064,335.336Z" transform="translate(-272.448 -263.784)" fill="#544f4c" fill-rule="evenodd"/>
          <path id="Trazado_873812" data-name="Trazado 873812" d="M379.824,352.856A5.687,5.687,0,0,1,374,347.032,5.862,5.862,0,0,1,379.824,341a6.036,6.036,0,0,1,6.032,6.032A5.862,5.862,0,0,1,379.824,352.856Z" transform="translate(-296.208 -287.544)" fill="#fbefdf" fill-rule="evenodd"/>
          <path id="Trazado_873813" data-name="Trazado 873813" d="M387.8,199a16.341,16.341,0,0,1,4.576,11.648v3.328h-23.92A1.563,1.563,0,0,1,367,212.52V200.456A1.563,1.563,0,0,1,368.456,199Z" transform="translate(-290.664 -175.08)" fill="#eafbf5" fill-rule="evenodd"/>
          <path id="Trazado_873814" data-name="Trazado 873814" d="M87.032,352.856A5.862,5.862,0,0,1,81,347.032,6.036,6.036,0,0,1,87.032,341a5.862,5.862,0,0,1,5.824,6.032A5.687,5.687,0,0,1,87.032,352.856Z" transform="translate(-64.152 -287.544)" fill="#fbefdf" fill-rule="evenodd"/>
          <path id="Trazado_873815" data-name="Trazado 873815" d="M131.32,170.5H97.832a.9.9,0,0,1-.832-.832V143.04a.952.952,0,0,1,.832-1.04H131.32a.983.983,0,0,1,1.04,1.04v26.624A.952.952,0,0,1,131.32,170.5Z" transform="translate(-76.824 -129.936)" fill="#be79ca" fill-rule="evenodd"/>
          <path id="Trazado_873816" data-name="Trazado 873816" d="M161.832,142H168.7a.983.983,0,0,1,1.04,1.04v5.824a.983.983,0,0,1-1.04,1.04h-6.864a.952.952,0,0,1-.832-1.04V143.04A.952.952,0,0,1,161.832,142Z" transform="translate(-127.512 -129.936)" fill="#6e3dc6" fill-rule="evenodd"/>
          <path id="Trazado_873817" data-name="Trazado 873817" d="M130.992,130.616H97.5a1.115,1.115,0,0,1-.832-.624.915.915,0,0,1,.208-1.04l2.912-3.536a1.081,1.081,0,0,1,.832-.416H128.08c.208,0,.624.208.624.416l3.12,3.536a.928.928,0,0,1,0,1.04C131.824,130.408,131.408,130.616,130.992,130.616Z" transform="translate(-76.496 -116.472)" fill="#6e3dc6" fill-rule="evenodd"/>
        </g>
      </g>
    </g>
  </g>
</svg>
