<svg xmlns="http://www.w3.org/2000/svg" width="89" height="91.001" viewBox="0 0 89 91.001">
  <g id="Grupo_1102807" data-name="Grupo 1102807" transform="translate(-746.242 -11758.764)">
    <g id="Grupo_1100748" data-name="Grupo 1100748" transform="translate(-9.758 3909.764)">
      <path id="Rectángulo_401063" data-name="Rectángulo 401063" d="M59,0H89a0,0,0,0,1,0,0V91a0,0,0,0,1,0,0H0a0,0,0,0,1,0,0V59A59,59,0,0,1,59,0Z" transform="translate(756 7849)" fill="#fff"/>
      <g id="_4._Take_a_picture" data-name="4. Take a picture" transform="translate(770.197 7857.048)">
        <path id="Trazado_873818" data-name="Trazado 873818" d="M48.272,29.293V42.222a1.293,1.293,0,0,1-1.293,1.293H26.293A1.293,1.293,0,0,1,25,42.222V29.293A1.293,1.293,0,0,1,26.293,28H34.05s1.164,1.875,2.586,1.875S39.222,28,39.222,28h7.757A1.293,1.293,0,0,1,48.272,29.293Z" transform="translate(5.845 8.188)" fill="#d3d3d3"/>
        <path id="Trazado_873819" data-name="Trazado 873819" d="M27.025,9.18a9.05,9.05,0,1,1-16.032-6.4C11.665,2.548,23.237-1.318,27.025,9.18Z" transform="translate(1.144 0.542)" fill="#d3d3d3"/>
        <g id="Grupo_1100844" data-name="Grupo 1100844" transform="translate(5.044 0.044)">
          <path id="Trazado_873820" data-name="Trazado 873820" d="M36.944,40.1a2.586,2.586,0,0,1-3.012,1.81l-15.67-3.245A3.077,3.077,0,0,1,16.1,36.814L10.336,25.436a3.878,3.878,0,1,1,7.086-3.155l4.059,10.55L35.2,36.865A2.586,2.586,0,0,1,36.944,40.1Z" transform="translate(-3.593 5.794)" fill="#6e3dc6"/>
          <path id="Trazado_873821" data-name="Trazado 873821" d="M37.723,18.524l-9.916,9.529a3.284,3.284,0,0,1-2.9.75l.22,5.094-1.215-.362c-4.305-11.17-3.879-10.123-3.982-10.343a5.176,5.176,0,1,0-9.3,4.551L16.39,39.094a4.318,4.318,0,0,0,3.064,2.586l6.077,1.293c.194,4.758.233-.866-.5,32.555a3.233,3.233,0,1,1-6.464.181L16.623,52.772H14.037L12.1,75.656a3.233,3.233,0,1,1-6.464-.181c-.776-35-.879-23.8.259-49.853A9.438,9.438,0,0,1,23.876,22l.944.181,9.49-7.563A2.586,2.586,0,0,1,37.723,18.5Z" transform="translate(-5.044 4.057)" fill="#6e3dc6"/>
          <path id="Trazado_873822" data-name="Trazado 873822" d="M34.858,8.934a1.4,1.4,0,0,1-1.474,1.293L9,8.352a9.5,9.5,0,0,1,.569-2.586l2.211.168a1.3,1.3,0,0,0,.194-2.586h-.957a9.05,9.05,0,0,1,15.515,2.7l7.24,1.461a1.383,1.383,0,0,1,1.086,1.422Z" transform="translate(-3.885 -0.044)" fill="#6e3dc6"/>
        </g>
        <path id="Trazado_873823" data-name="Trazado 873823" d="M64.858,46.586V67.272a2.586,2.586,0,0,1-2.586,2.586H41.586A2.586,2.586,0,0,1,39,67.272V46.586A2.586,2.586,0,0,1,41.586,44H48.05a5.172,5.172,0,0,0,3.879,2.172A5.172,5.172,0,0,0,55.807,44h6.464A2.586,2.586,0,0,1,64.858,46.586Z" transform="translate(9.945 12.874)" fill="#d3d3d3"/>
        <path id="Trazado_873824" data-name="Trazado 873824" d="M46,44h7.757v7.757H46Z" transform="translate(11.995 12.874)" fill="#be79ca"/>
        <path id="Trazado_873825" data-name="Trazado 873825" d="M32,28h5.172v5.172H32Z" transform="translate(7.895 8.188)" fill="#be79ca"/>
        <path id="Trazado_873826" data-name="Trazado 873826" d="M28.295,20.344a1.293,1.293,0,0,1-.918-2.211l7.757-7.757a1.3,1.3,0,0,1,1.836,1.836l-7.757,7.757a1.293,1.293,0,0,1-.918.375Z" transform="translate(6.429 2.915)" fill="#75baf1"/>
        <circle id="Elipse_11524" data-name="Elipse 11524" cx="9.05" cy="9.05" r="9.05" transform="translate(47.652 25.845)" fill="#be79ca"/>
        <path id="Trazado_873827" data-name="Trazado 873827" d="M44.88,31.758c-.7,0-.737-.194-3.5-2.961a1.3,1.3,0,0,1,1.836-1.836l1.668,1.681,4.254-4.267a1.3,1.3,0,0,1,1.836,1.836L45.8,31.384A1.293,1.293,0,0,1,44.88,31.758Z" transform="translate(10.53 7.015)" fill="#fffeff"/>
      </g>
    </g>
  </g>
</svg>
