<svg xmlns="http://www.w3.org/2000/svg" width="339.547" height="211.031" viewBox="0 0 339.547 211.031">
  <g id="Grupo_1102803" data-name="Grupo 1102803" transform="translate(-937.453 -9208.546)">
    <path id="Trazado_877280" data-name="Trazado 877280" d="M0,0V178" transform="translate(1040.5 9213.046)" fill="none" stroke="#707070" stroke-linecap="round" stroke-width="2"/>
    <path id="Trazado_877288" data-name="Trazado 877288" d="M228,0H0" transform="translate(1040.5 9391.046)" fill="none" stroke="#707070" stroke-linecap="round" stroke-width="2"/>
    <path id="Trazado_877281" data-name="Trazado 877281" d="M0,0H36.432" transform="translate(1040.5 9246.515)" fill="none" stroke="#707070" stroke-linecap="round" stroke-width="1"/>
    <path id="Trazado_877286" data-name="Trazado 877286" d="M0,0H169.5" transform="translate(1040.5 9349.03)" fill="none" stroke="#707070" stroke-linecap="round" stroke-width="1"/>
    <path id="Trazado_877282" data-name="Trazado 877282" d="M0,145V0" transform="translate(1076 9246.546)" fill="none" stroke="#707070" stroke-linecap="round" stroke-width="1"/>
    <path id="Trazado_877289" data-name="Trazado 877289" d="M0,42.484V0" transform="translate(1209.068 9349.062)" fill="none" stroke="#707070" stroke-linecap="round" stroke-width="1"/>
    <g id="Trazado_877283" data-name="Trazado 877283" transform="translate(1036 9208.546)" fill="#707070">
      <path d="M 9.190984725952148 9.5 L 0.8090149760246277 9.5 L 5 1.118029952049255 L 9.190984725952148 9.5 Z" stroke="none"/>
      <path d="M 5 2.236070156097412 L 1.618035316467285 9 L 8.381964683532715 9 L 5 2.236070156097412 M 5 0 L 10 10 L 0 10 L 5 0 Z" stroke="none" fill="#707070"/>
    </g>
    <g id="Trazado_877292" data-name="Trazado 877292" transform="translate(1277 9386.546) rotate(90)" fill="#707070">
      <path d="M 9.190984725952148 9.5 L 0.8090149760246277 9.5 L 5 1.118029952049255 L 9.190984725952148 9.5 Z" stroke="none"/>
      <path d="M 5 2.236070156097412 L 1.618035316467285 9 L 8.381964683532715 9 L 5 2.236070156097412 M 5 0 L 10 10 L 0 10 L 5 0 Z" stroke="none" fill="#707070"/>
    </g>
    <path id="Trazado_877284" data-name="Trazado 877284" d="M0,0,194,140" transform="translate(1049.5 9229.046)" fill="none" stroke="#707070" stroke-width="4"/>
    <path id="Trazado_877278" data-name="Trazado 877278" d="M-43.2-4.008V0h-2.344V-11.375h4.438a5.134,5.134,0,0,1,2.254.469,3.454,3.454,0,0,1,1.5,1.332,3.714,3.714,0,0,1,.523,1.965A3.266,3.266,0,0,1-37.98-4.973a4.767,4.767,0,0,1-3.168.965Zm0-1.9h2.094a2.059,2.059,0,0,0,1.418-.437,1.591,1.591,0,0,0,.488-1.25A1.876,1.876,0,0,0-39.7-8.945a1.839,1.839,0,0,0-1.359-.531H-43.2Zm12.578-.43a6.134,6.134,0,0,0-.812-.062,1.654,1.654,0,0,0-1.68.867V0h-2.258V-8.453h2.133l.063,1.008A2.092,2.092,0,0,1-31.3-8.609a2.366,2.366,0,0,1,.7.1ZM-25.8.156A4.15,4.15,0,0,1-28.824-.984a4.054,4.054,0,0,1-1.168-3.039v-.219A5.106,5.106,0,0,1-29.5-6.52a3.612,3.612,0,0,1,1.395-1.547,3.914,3.914,0,0,1,2.059-.543,3.508,3.508,0,0,1,2.73,1.094,4.444,4.444,0,0,1,1,3.1v.922H-27.7a2.1,2.1,0,0,0,.66,1.328,2,2,0,0,0,1.395.5,2.437,2.437,0,0,0,2.039-.945L-22.5-1.367A3.389,3.389,0,0,1-23.875-.246,4.511,4.511,0,0,1-25.8.156Zm-.258-6.945a1.411,1.411,0,0,0-1.09.455,2.357,2.357,0,0,0-.535,1.3h3.141v-.181a1.681,1.681,0,0,0-.406-1.165A1.456,1.456,0,0,0-26.055-6.789Zm8.531,5.125a1.481,1.481,0,0,0,1.016-.344,1.2,1.2,0,0,0,.406-.914h2.117a2.9,2.9,0,0,1-.469,1.574A3.093,3.093,0,0,1-15.715-.238a3.949,3.949,0,0,1-1.77.395A3.67,3.67,0,0,1-20.344-1,4.56,4.56,0,0,1-21.391-4.18v-.148a4.508,4.508,0,0,1,1.039-3.117A3.627,3.627,0,0,1-17.5-8.609a3.555,3.555,0,0,1,2.543.9,3.2,3.2,0,0,1,.973,2.4H-16.1a1.551,1.551,0,0,0-.406-1.072,1.354,1.354,0,0,0-1.031-.412,1.36,1.36,0,0,0-1.191.575,3.333,3.333,0,0,0-.4,1.866v.235a3.375,3.375,0,0,0,.4,1.878A1.377,1.377,0,0,0-17.523-1.664ZM-10.312,0h-2.266V-8.453h2.266Zm-2.4-10.641a1.112,1.112,0,0,1,.34-.836,1.277,1.277,0,0,1,.926-.328,1.28,1.28,0,0,1,.922.328,1.105,1.105,0,0,1,.344.836,1.108,1.108,0,0,1-.348.844,1.283,1.283,0,0,1-.918.328,1.283,1.283,0,0,1-.918-.328A1.108,1.108,0,0,1-12.711-10.641ZM-8.8-4.3A5.013,5.013,0,0,1-8.32-6.547,3.546,3.546,0,0,1-6.926-8.07a4.069,4.069,0,0,1,2.113-.539A3.849,3.849,0,0,1-2.02-7.562,4.2,4.2,0,0,1-.812-4.719l.016.578A4.418,4.418,0,0,1-1.883-1.02,3.775,3.775,0,0,1-4.8.156,3.793,3.793,0,0,1-7.715-1.016,4.5,4.5,0,0,1-8.8-4.2Zm2.258.16A3.16,3.16,0,0,0-6.094-2.3a1.5,1.5,0,0,0,1.3.638,1.5,1.5,0,0,0,1.281-.63,3.457,3.457,0,0,0,.461-2.015A3.128,3.128,0,0,0-3.516-6.14a1.5,1.5,0,0,0-1.3-.649,1.474,1.474,0,0,0-1.281.646A3.516,3.516,0,0,0-6.547-4.144ZM6.961,0H4.7V-8.453H6.961Zm-2.4-10.641a1.112,1.112,0,0,1,.34-.836,1.277,1.277,0,0,1,.926-.328,1.28,1.28,0,0,1,.922.328,1.105,1.105,0,0,1,.344.836,1.108,1.108,0,0,1-.348.844,1.283,1.283,0,0,1-.918.328A1.283,1.283,0,0,1,4.91-9.8,1.108,1.108,0,0,1,4.563-10.641ZM10.9-8.453l.07.977A2.951,2.951,0,0,1,13.4-8.609a2.453,2.453,0,0,1,2,.789,3.682,3.682,0,0,1,.672,2.359V0H13.813V-5.406A1.465,1.465,0,0,0,13.5-6.449a1.4,1.4,0,0,0-1.039-.324,1.553,1.553,0,0,0-1.43.813V0H8.773V-8.453ZM20.164,0H17.9V-8.453h2.266Zm-2.4-10.641a1.112,1.112,0,0,1,.34-.836,1.277,1.277,0,0,1,.926-.328,1.28,1.28,0,0,1,.922.328,1.105,1.105,0,0,1,.344.836,1.108,1.108,0,0,1-.348.844,1.283,1.283,0,0,1-.918.328,1.283,1.283,0,0,1-.918-.328A1.108,1.108,0,0,1,17.766-10.641Zm7.773,8.977a1.481,1.481,0,0,0,1.016-.344,1.2,1.2,0,0,0,.406-.914h2.117a2.9,2.9,0,0,1-.469,1.574A3.093,3.093,0,0,1,27.348-.238a3.949,3.949,0,0,1-1.77.395A3.67,3.67,0,0,1,22.719-1,4.56,4.56,0,0,1,21.672-4.18v-.148a4.508,4.508,0,0,1,1.039-3.117,3.627,3.627,0,0,1,2.852-1.164,3.555,3.555,0,0,1,2.543.9,3.2,3.2,0,0,1,.973,2.4H26.961a1.551,1.551,0,0,0-.406-1.072,1.354,1.354,0,0,0-1.031-.412,1.36,1.36,0,0,0-1.191.575,3.333,3.333,0,0,0-.4,1.866v.235a3.375,3.375,0,0,0,.4,1.878A1.377,1.377,0,0,0,25.539-1.664ZM32.75,0H30.484V-8.453H32.75Zm-2.4-10.641a1.112,1.112,0,0,1,.34-.836,1.277,1.277,0,0,1,.926-.328,1.28,1.28,0,0,1,.922.328,1.105,1.105,0,0,1,.344.836,1.108,1.108,0,0,1-.348.844,1.283,1.283,0,0,1-.918.328A1.283,1.283,0,0,1,30.7-9.8,1.108,1.108,0,0,1,30.352-10.641ZM39.508,0a2.507,2.507,0,0,1-.227-.758,2.732,2.732,0,0,1-2.133.914A3,3,0,0,1,35.09-.562a2.312,2.312,0,0,1-.816-1.812,2.389,2.389,0,0,1,1-2.062,4.915,4.915,0,0,1,2.879-.727h1.039v-.484a1.393,1.393,0,0,0-.3-.937,1.183,1.183,0,0,0-.949-.352,1.345,1.345,0,0,0-.895.273.929.929,0,0,0-.324.75H34.461a2.268,2.268,0,0,1,.453-1.359,3,3,0,0,1,1.281-.98,4.669,4.669,0,0,1,1.859-.355,3.689,3.689,0,0,1,2.48.785,2.747,2.747,0,0,1,.918,2.207v3.664a4.041,4.041,0,0,0,.336,1.82V0ZM37.641-1.57a1.945,1.945,0,0,0,.922-.223,1.462,1.462,0,0,0,.625-.6V-3.844h-.844q-1.7,0-1.8,1.172l-.008.133a.9.9,0,0,0,.3.7A1.153,1.153,0,0,0,37.641-1.57ZM45.57,0H43.3V-12H45.57Z" transform="translate(983 9273.546)" fill="#12263f"/>
    <path id="Trazado_877287" data-name="Trazado 877287" d="M-37.535-4.008V0h-2.344V-11.375h4.438a5.134,5.134,0,0,1,2.254.469,3.454,3.454,0,0,1,1.5,1.332,3.714,3.714,0,0,1,.523,1.965,3.266,3.266,0,0,1-1.145,2.637,4.767,4.767,0,0,1-3.168.965Zm0-1.9h2.094a2.059,2.059,0,0,0,1.418-.437,1.591,1.591,0,0,0,.488-1.25,1.876,1.876,0,0,0-.492-1.352,1.839,1.839,0,0,0-1.359-.531h-2.148Zm12.578-.43A6.134,6.134,0,0,0-25.77-6.4a1.654,1.654,0,0,0-1.68.867V0h-2.258V-8.453h2.133l.063,1.008a2.092,2.092,0,0,1,1.883-1.164,2.366,2.366,0,0,1,.7.1ZM-20.129.156A4.15,4.15,0,0,1-23.156-.984a4.054,4.054,0,0,1-1.168-3.039v-.219a5.106,5.106,0,0,1,.492-2.277,3.612,3.612,0,0,1,1.395-1.547,3.914,3.914,0,0,1,2.059-.543,3.508,3.508,0,0,1,2.73,1.094,4.444,4.444,0,0,1,1,3.1v.922h-5.383a2.1,2.1,0,0,0,.66,1.328,2,2,0,0,0,1.395.5,2.437,2.437,0,0,0,2.039-.945l1.109,1.242A3.389,3.389,0,0,1-18.207-.246,4.511,4.511,0,0,1-20.129.156Zm-.258-6.945a1.411,1.411,0,0,0-1.09.455,2.357,2.357,0,0,0-.535,1.3h3.141v-.181a1.681,1.681,0,0,0-.406-1.165A1.456,1.456,0,0,0-20.387-6.789Zm8.531,5.125a1.481,1.481,0,0,0,1.016-.344,1.2,1.2,0,0,0,.406-.914h2.117a2.9,2.9,0,0,1-.469,1.574A3.093,3.093,0,0,1-10.047-.238a3.949,3.949,0,0,1-1.77.395A3.67,3.67,0,0,1-14.676-1,4.56,4.56,0,0,1-15.723-4.18v-.148a4.508,4.508,0,0,1,1.039-3.117,3.627,3.627,0,0,1,2.852-1.164,3.555,3.555,0,0,1,2.543.9,3.2,3.2,0,0,1,.973,2.4h-2.117a1.551,1.551,0,0,0-.406-1.072,1.354,1.354,0,0,0-1.031-.412,1.36,1.36,0,0,0-1.191.575,3.333,3.333,0,0,0-.4,1.866v.235a3.375,3.375,0,0,0,.4,1.878A1.377,1.377,0,0,0-11.855-1.664ZM-4.645,0H-6.91V-8.453h2.266Zm-2.4-10.641a1.112,1.112,0,0,1,.34-.836,1.277,1.277,0,0,1,.926-.328,1.28,1.28,0,0,1,.922.328,1.105,1.105,0,0,1,.344.836,1.108,1.108,0,0,1-.348.844,1.283,1.283,0,0,1-.918.328A1.283,1.283,0,0,1-6.7-9.8,1.108,1.108,0,0,1-7.043-10.641ZM-3.137-4.3a5.013,5.013,0,0,1,.484-2.242A3.546,3.546,0,0,1-1.258-8.07,4.069,4.069,0,0,1,.855-8.609,3.849,3.849,0,0,1,3.648-7.562,4.2,4.2,0,0,1,4.855-4.719l.016.578A4.418,4.418,0,0,1,3.785-1.02,3.775,3.775,0,0,1,.871.156,3.793,3.793,0,0,1-2.047-1.016,4.5,4.5,0,0,1-3.137-4.2Zm2.258.16A3.16,3.16,0,0,0-.426-2.3a1.5,1.5,0,0,0,1.3.638,1.5,1.5,0,0,0,1.281-.63,3.457,3.457,0,0,0,.461-2.015A3.128,3.128,0,0,0,2.152-6.14a1.5,1.5,0,0,0-1.3-.649,1.474,1.474,0,0,0-1.281.646A3.516,3.516,0,0,0-.879-4.144ZM10.793,0V-6.8H9.535V-8.453h1.258v-.391a3.17,3.17,0,0,1,.98-2.457,3.945,3.945,0,0,1,2.723-.863,9.031,9.031,0,0,1,2.563.461L16.73-9.836a10,10,0,0,0-1.187-.293,5.835,5.835,0,0,0-.906-.066q-1.578,0-1.578,1.4v.344h1.664V-6.8H13.059V0Zm7.32,0H15.848V-8.453h2.266Zm3.945-8.453.07.977a2.951,2.951,0,0,1,2.43-1.133,2.453,2.453,0,0,1,2,.789,3.682,3.682,0,0,1,.672,2.359V0H24.973V-5.406a1.465,1.465,0,0,0-.312-1.043,1.4,1.4,0,0,0-1.039-.324,1.553,1.553,0,0,0-1.43.813V0H19.934V-8.453ZM33.84,0a2.507,2.507,0,0,1-.227-.758A2.732,2.732,0,0,1,31.48.156a3,3,0,0,1-2.059-.719,2.312,2.312,0,0,1-.816-1.812,2.389,2.389,0,0,1,1-2.062,4.915,4.915,0,0,1,2.879-.727H33.52v-.484a1.393,1.393,0,0,0-.3-.937,1.183,1.183,0,0,0-.949-.352,1.345,1.345,0,0,0-.895.273.929.929,0,0,0-.324.75H28.793a2.268,2.268,0,0,1,.453-1.359,3,3,0,0,1,1.281-.98,4.669,4.669,0,0,1,1.859-.355,3.689,3.689,0,0,1,2.48.785,2.747,2.747,0,0,1,.918,2.207v3.664a4.041,4.041,0,0,0,.336,1.82V0ZM31.973-1.57a1.945,1.945,0,0,0,.922-.223,1.462,1.462,0,0,0,.625-.6V-3.844h-.844q-1.7,0-1.8,1.172l-.008.133a.9.9,0,0,0,.3.7A1.153,1.153,0,0,0,31.973-1.57ZM39.9,0H37.637V-12H39.9Z" transform="translate(983 9364.546)" fill="#12263f"/>
    <path id="Trazado_877285" data-name="Trazado 877285" d="M-19.816-4.625a11.99,11.99,0,0,1,.477-3.406,8.989,8.989,0,0,1,1.406-2.863,5.251,5.251,0,0,1,2.016-1.73l.438,1.219A5.438,5.438,0,0,0-17.262-8.8,12.082,12.082,0,0,0-17.9-4.672v.242A12.313,12.313,0,0,0-17.27-.289,5.544,5.544,0,0,0-15.48,2.359l-.437,1.2A5.253,5.253,0,0,1-17.9,1.871,8.838,8.838,0,0,1-19.3-.914a11.918,11.918,0,0,1-.516-3.3Zm8.008.617V0h-2.344V-11.375h4.438a5.134,5.134,0,0,1,2.254.469,3.454,3.454,0,0,1,1.5,1.332,3.714,3.714,0,0,1,.523,1.965A3.266,3.266,0,0,1-6.586-4.973a4.767,4.767,0,0,1-3.168.965Zm0-1.9h2.094A2.059,2.059,0,0,0-8.3-6.344a1.591,1.591,0,0,0,.488-1.25A1.876,1.876,0,0,0-8.3-8.945,1.839,1.839,0,0,0-9.66-9.477h-2.148ZM-.348-4.289A5.094,5.094,0,0,1,.539-7.437,2.877,2.877,0,0,1,2.965-8.609,2.589,2.589,0,0,1,5-7.687V-12H7.27V0H5.23L5.121-.9A2.657,2.657,0,0,1,2.949.156,2.869,2.869,0,0,1,.555-1.02,5.258,5.258,0,0,1-.348-4.289Zm2.258.168A3.337,3.337,0,0,0,2.324-2.3a1.349,1.349,0,0,0,1.2.634A1.511,1.511,0,0,0,5-2.548V-5.889a1.489,1.489,0,0,0-1.461-.884Q1.91-6.773,1.91-4.121Zm11,4.277A4.15,4.15,0,0,1,9.883-.984,4.054,4.054,0,0,1,8.715-4.023v-.219A5.106,5.106,0,0,1,9.207-6.52,3.612,3.612,0,0,1,10.6-8.066a3.914,3.914,0,0,1,2.059-.543,3.508,3.508,0,0,1,2.73,1.094,4.444,4.444,0,0,1,1,3.1v.922H11a2.1,2.1,0,0,0,.66,1.328,2,2,0,0,0,1.395.5A2.437,2.437,0,0,0,15.1-2.609l1.109,1.242A3.389,3.389,0,0,1,14.832-.246,4.511,4.511,0,0,1,12.91.156Zm-.258-6.945a1.411,1.411,0,0,0-1.09.455,2.357,2.357,0,0,0-.535,1.3h3.141v-.181a1.681,1.681,0,0,0-.406-1.165A1.456,1.456,0,0,0,12.652-6.789Zm-52.7,22.5a5.094,5.094,0,0,1,.887-3.148,2.877,2.877,0,0,1,2.426-1.172,2.589,2.589,0,0,1,2.039.922V8h2.266V20h-2.039l-.109-.9a2.657,2.657,0,0,1-2.172,1.055,2.869,2.869,0,0,1-2.395-1.176A5.258,5.258,0,0,1-40.043,15.711Zm2.258.168a3.337,3.337,0,0,0,.414,1.823,1.349,1.349,0,0,0,1.2.634,1.511,1.511,0,0,0,1.477-.884V14.111a1.489,1.489,0,0,0-1.461-.884Q-37.785,13.227-37.785,15.879Zm11,4.277a4.15,4.15,0,0,1-3.027-1.141,4.054,4.054,0,0,1-1.168-3.039v-.219a5.106,5.106,0,0,1,.492-2.277,3.612,3.612,0,0,1,1.395-1.547,3.914,3.914,0,0,1,2.059-.543,3.508,3.508,0,0,1,2.73,1.094,4.444,4.444,0,0,1,1,3.1v.922h-5.383a2.1,2.1,0,0,0,.66,1.328,2,2,0,0,0,1.395.5,2.437,2.437,0,0,0,2.039-.945l1.109,1.242a3.389,3.389,0,0,1-1.375,1.121A4.511,4.511,0,0,1-26.785,20.156Zm-.258-6.945a1.411,1.411,0,0,0-1.09.455,2.357,2.357,0,0,0-.535,1.3h3.141v-.181a1.681,1.681,0,0,0-.406-1.165A1.456,1.456,0,0,0-27.043,13.211Zm9.594,4.453a.727.727,0,0,0-.41-.652,4.659,4.659,0,0,0-1.316-.426q-3.016-.633-3.016-2.562a2.323,2.323,0,0,1,.934-1.879,3.766,3.766,0,0,1,2.441-.754,4.053,4.053,0,0,1,2.574.758,2.388,2.388,0,0,1,.965,1.969h-2.258a1.092,1.092,0,0,0-.312-.8A1.322,1.322,0,0,0-18.824,13a1.351,1.351,0,0,0-.883.258.814.814,0,0,0-.312.656.7.7,0,0,0,.355.605,3.657,3.657,0,0,0,1.2.4,9.8,9.8,0,0,1,1.422.379,2.336,2.336,0,0,1,1.789,2.273,2.2,2.2,0,0,1-.992,1.871,4.28,4.28,0,0,1-2.562.715,4.47,4.47,0,0,1-1.887-.379,3.166,3.166,0,0,1-1.293-1.039,2.414,2.414,0,0,1-.469-1.426h2.141a1.179,1.179,0,0,0,.445.922,1.766,1.766,0,0,0,1.109.32,1.635,1.635,0,0,0,.98-.246A.766.766,0,0,0-17.449,17.664Zm5.727-6.117.07.977a2.951,2.951,0,0,1,2.43-1.133,2.453,2.453,0,0,1,2,.789,3.682,3.682,0,0,1,.672,2.359V20H-8.809V14.594a1.465,1.465,0,0,0-.312-1.043,1.4,1.4,0,0,0-1.039-.324,1.553,1.553,0,0,0-1.43.813V20h-2.258V11.547ZM.059,20a2.507,2.507,0,0,1-.227-.758,2.732,2.732,0,0,1-2.133.914,3,3,0,0,1-2.059-.719,2.312,2.312,0,0,1-.816-1.812,2.389,2.389,0,0,1,1-2.062A4.915,4.915,0,0,1-1.3,14.836H-.262v-.484a1.393,1.393,0,0,0-.3-.937,1.183,1.183,0,0,0-.949-.352,1.345,1.345,0,0,0-.895.273.929.929,0,0,0-.324.75H-4.988a2.268,2.268,0,0,1,.453-1.359,3,3,0,0,1,1.281-.98,4.669,4.669,0,0,1,1.859-.355,3.689,3.689,0,0,1,2.48.785A2.747,2.747,0,0,1,2,14.383v3.664a4.041,4.041,0,0,0,.336,1.82V20Zm-1.867-1.57a1.945,1.945,0,0,0,.922-.223,1.462,1.462,0,0,0,.625-.6V16.156h-.844q-1.7,0-1.8,1.172l-.008.133a.9.9,0,0,0,.3.7A1.153,1.153,0,0,0-1.809,18.43Zm8.25-8.961v2.078H7.887V13.2H6.441v4.219a1.007,1.007,0,0,0,.18.672.9.9,0,0,0,.688.2,3.6,3.6,0,0,0,.664-.055v1.711a4.648,4.648,0,0,1-1.367.2,2.156,2.156,0,0,1-2.422-2.4V13.2H2.949V11.547H4.184V9.469ZM14.043,20a2.507,2.507,0,0,1-.227-.758,2.732,2.732,0,0,1-2.133.914,3,3,0,0,1-2.059-.719,2.312,2.312,0,0,1-.816-1.812,2.389,2.389,0,0,1,1-2.062,4.915,4.915,0,0,1,2.879-.727h1.039v-.484a1.393,1.393,0,0,0-.3-.937,1.183,1.183,0,0,0-.949-.352,1.345,1.345,0,0,0-.895.273.929.929,0,0,0-.324.75H9a2.268,2.268,0,0,1,.453-1.359,3,3,0,0,1,1.281-.98,4.669,4.669,0,0,1,1.859-.355,3.689,3.689,0,0,1,2.48.785,2.747,2.747,0,0,1,.918,2.207v3.664a4.041,4.041,0,0,0,.336,1.82V20Zm-1.867-1.57a1.945,1.945,0,0,0,.922-.223,1.462,1.462,0,0,0,.625-.6V16.156h-.844q-1.7,0-1.8,1.172l-.008.133a.9.9,0,0,0,.3.7A1.153,1.153,0,0,0,12.176,18.43Zm5.2-2.719a5.094,5.094,0,0,1,.887-3.148,2.877,2.877,0,0,1,2.426-1.172,2.589,2.589,0,0,1,2.039.922V8h2.266V20H22.949l-.109-.9a2.657,2.657,0,0,1-2.172,1.055,2.869,2.869,0,0,1-2.395-1.176A5.258,5.258,0,0,1,17.371,15.711Zm2.258.168a3.337,3.337,0,0,0,.414,1.823,1.349,1.349,0,0,0,1.2.634,1.511,1.511,0,0,0,1.477-.884V14.111a1.489,1.489,0,0,0-1.461-.884Q19.629,13.227,19.629,15.879Zm6.758-.184a5.013,5.013,0,0,1,.484-2.242,3.546,3.546,0,0,1,1.395-1.523,4.069,4.069,0,0,1,2.113-.539,3.849,3.849,0,0,1,2.793,1.047,4.2,4.2,0,0,1,1.207,2.844l.016.578a4.418,4.418,0,0,1-1.086,3.121,3.775,3.775,0,0,1-2.914,1.176,3.793,3.793,0,0,1-2.918-1.172,4.5,4.5,0,0,1-1.09-3.187Zm2.258.16A3.16,3.16,0,0,0,29.1,17.7a1.628,1.628,0,0,0,2.578.008,3.457,3.457,0,0,0,.461-2.015,3.128,3.128,0,0,0-.461-1.831,1.5,1.5,0,0,0-1.3-.649,1.474,1.474,0,0,0-1.281.646A3.516,3.516,0,0,0,28.645,15.856Zm11.031-.3a11.377,11.377,0,0,1-.508,3.4,9.225,9.225,0,0,1-1.461,2.883,5.264,5.264,0,0,1-2.039,1.719l-.437-1.2a5.494,5.494,0,0,0,1.75-2.578,11.939,11.939,0,0,0,.664-4.008v-.414a12.208,12.208,0,0,0-.637-4.117A5.727,5.727,0,0,0,35.23,8.57l.438-1.2a5.265,5.265,0,0,1,2,1.672,9.106,9.106,0,0,1,1.461,2.82,11.3,11.3,0,0,1,.543,3.336Z" transform="translate(983 9298.546)" fill="#12263f"/>
    <path id="Trazado_877290" data-name="Trazado 877290" d="M3.84-4.7a5.762,5.762,0,0,1-.977,3.609A3.409,3.409,0,0,1,0,.156,3.433,3.433,0,0,1-2.84-1.07,5.594,5.594,0,0,1-3.848-4.586V-6.68A5.687,5.687,0,0,1-2.859-10.3,3.434,3.434,0,0,1-.012-11.531a3.437,3.437,0,0,1,2.844,1.223A5.576,5.576,0,0,1,3.84-6.8Zm-2.258-2.3A4.165,4.165,0,0,0,1.2-9.066,1.307,1.307,0,0,0-.012-9.711,1.284,1.284,0,0,0-1.187-9.1a3.9,3.9,0,0,0-.4,1.92v2.768a4.372,4.372,0,0,0,.379,2.068A1.29,1.29,0,0,0,0-1.664a1.268,1.268,0,0,0,1.2-.649A4.268,4.268,0,0,0,1.582-4.3Z" transform="translate(1044 9413.546)" fill="#12263f"/>
    <path id="Trazado_877291" data-name="Trazado 877291" d="M4.82-5.43A6.853,6.853,0,0,1,4.3-2.66,4.754,4.754,0,0,1,2.875-.773L4.766.711,3.273,2.031.852.086a5.126,5.126,0,0,1-.859.07,4.732,4.732,0,0,1-2.523-.68A4.515,4.515,0,0,1-4.25-2.465a6.67,6.67,0,0,1-.617-2.9V-5.93a6.831,6.831,0,0,1,.605-2.957,4.508,4.508,0,0,1,1.711-1.961,4.706,4.706,0,0,1,2.527-.684,4.706,4.706,0,0,1,2.527.684A4.508,4.508,0,0,1,4.215-8.887,6.811,6.811,0,0,1,4.82-5.937ZM2.445-5.945A4.787,4.787,0,0,0,1.8-8.664a2.088,2.088,0,0,0-1.828-.93,2.088,2.088,0,0,0-1.82.918,4.732,4.732,0,0,0-.648,2.691v.555a4.847,4.847,0,0,0,.641,2.7,2.082,2.082,0,0,0,1.844.961A2.064,2.064,0,0,0,1.8-2.691a4.819,4.819,0,0,0,.641-2.7Z" transform="translate(1254 9417.546)" fill="#12263f"/>
    <path id="Trazado_877279" data-name="Trazado 877279" d="M-1.8-4.008V0H-4.145V-11.375H.293a5.134,5.134,0,0,1,2.254.469,3.454,3.454,0,0,1,1.5,1.332,3.714,3.714,0,0,1,.523,1.965A3.266,3.266,0,0,1,3.422-4.973a4.767,4.767,0,0,1-3.168.965Zm0-1.9H.293a2.059,2.059,0,0,0,1.418-.437A1.591,1.591,0,0,0,2.2-7.594a1.876,1.876,0,0,0-.492-1.352A1.839,1.839,0,0,0,.348-9.477H-1.8Z" transform="translate(1025 9235.546)" fill="#12263f"/>
  </g>
</svg>
