<svg xmlns="http://www.w3.org/2000/svg" width="345.855" height="213" viewBox="0 0 345.855 213">
  <g id="Grupo_1102803" data-name="Grupo 1102803" transform="translate(-927.145 -6996.546)">
    <path id="Trazado_877279" data-name="Trazado 877279" d="M0,0V178" transform="translate(1036.5 7001.046)" fill="none" stroke="#707070" stroke-linecap="round" stroke-width="2"/>
    <path id="Trazado_877286" data-name="Trazado 877286" d="M228,0H0" transform="translate(1036.5 7179.046)" fill="none" stroke="#707070" stroke-linecap="round" stroke-width="2"/>
    <path id="Trazado_877283" data-name="Trazado 877283" d="M0,0H115" transform="translate(1036.5 7095.046)" fill="none" stroke="#707070" stroke-linecap="round" stroke-width="1"/>
    <path id="Trazado_877284" data-name="Trazado 877284" d="M0,84V0" transform="translate(1151 7095.546)" fill="none" stroke="#707070" stroke-linecap="round" stroke-width="1"/>
    <g id="Trazado_877280" data-name="Trazado 877280" transform="translate(1032 6996.546)" fill="#707070">
      <path d="M 9.190984725952148 9.5 L 0.8090149760246277 9.5 L 5 1.118029952049255 L 9.190984725952148 9.5 Z" stroke="none"/>
      <path d="M 5 2.236070156097412 L 1.618035316467285 9 L 8.381964683532715 9 L 5 2.236070156097412 M 5 0 L 10 10 L 0 10 L 5 0 Z" stroke="none" fill="#707070"/>
    </g>
    <g id="Trazado_877285" data-name="Trazado 877285" transform="translate(1273 7174.546) rotate(90)" fill="#707070">
      <path d="M 9.190984725952148 9.5 L 0.8090149760246277 9.5 L 5 1.118029952049255 L 9.190984725952148 9.5 Z" stroke="none"/>
      <path d="M 5 2.236070156097412 L 1.618035316467285 9 L 8.381964683532715 9 L 5 2.236070156097412 M 5 0 L 10 10 L 0 10 L 5 0 Z" stroke="none" fill="#707070"/>
    </g>
    <path id="Trazado_877281" data-name="Trazado 877281" d="M0,0,208,91" transform="translate(1056.5 7055.046)" fill="none" stroke="#707070" stroke-width="4"/>
    <path id="Trazado_877282" data-name="Trazado 877282" d="M-30.609-4.008V0h-2.344V-11.375h4.438a5.134,5.134,0,0,1,2.254.469,3.454,3.454,0,0,1,1.5,1.332,3.714,3.714,0,0,1,.523,1.965,3.266,3.266,0,0,1-1.145,2.637,4.767,4.767,0,0,1-3.168.965Zm0-1.9h2.094A2.059,2.059,0,0,0-27.1-6.344a1.591,1.591,0,0,0,.488-1.25A1.876,1.876,0,0,0-27.1-8.945a1.839,1.839,0,0,0-1.359-.531h-2.148Zm12.578-.43a6.134,6.134,0,0,0-.812-.062,1.654,1.654,0,0,0-1.68.867V0h-2.258V-8.453h2.133l.063,1.008A2.092,2.092,0,0,1-18.7-8.609a2.366,2.366,0,0,1,.7.1ZM-13.2.156A4.15,4.15,0,0,1-16.23-.984,4.054,4.054,0,0,1-17.4-4.023v-.219a5.106,5.106,0,0,1,.492-2.277,3.612,3.612,0,0,1,1.395-1.547,3.914,3.914,0,0,1,2.059-.543,3.508,3.508,0,0,1,2.73,1.094,4.444,4.444,0,0,1,1,3.1v.922h-5.383a2.1,2.1,0,0,0,.66,1.328,2,2,0,0,0,1.395.5,2.437,2.437,0,0,0,2.039-.945l1.109,1.242A3.389,3.389,0,0,1-11.281-.246,4.511,4.511,0,0,1-13.2.156Zm-.258-6.945a1.411,1.411,0,0,0-1.09.455,2.357,2.357,0,0,0-.535,1.3h3.141v-.181a1.681,1.681,0,0,0-.406-1.165A1.456,1.456,0,0,0-13.461-6.789ZM-4.93-1.664a1.481,1.481,0,0,0,1.016-.344,1.2,1.2,0,0,0,.406-.914h2.117a2.9,2.9,0,0,1-.469,1.574A3.093,3.093,0,0,1-3.121-.238a3.949,3.949,0,0,1-1.77.395A3.67,3.67,0,0,1-7.75-1,4.56,4.56,0,0,1-8.8-4.18v-.148A4.508,4.508,0,0,1-7.758-7.445,3.627,3.627,0,0,1-4.906-8.609a3.555,3.555,0,0,1,2.543.9,3.2,3.2,0,0,1,.973,2.4H-3.508a1.551,1.551,0,0,0-.406-1.072,1.354,1.354,0,0,0-1.031-.412,1.36,1.36,0,0,0-1.191.575,3.333,3.333,0,0,0-.4,1.866v.235a3.375,3.375,0,0,0,.4,1.878A1.377,1.377,0,0,0-4.93-1.664ZM2.281,0H.016V-8.453H2.281Zm-2.4-10.641a1.112,1.112,0,0,1,.34-.836,1.277,1.277,0,0,1,.926-.328,1.28,1.28,0,0,1,.922.328,1.105,1.105,0,0,1,.344.836,1.108,1.108,0,0,1-.348.844,1.283,1.283,0,0,1-.918.328A1.283,1.283,0,0,1,.23-9.8,1.108,1.108,0,0,1-.117-10.641ZM3.789-4.3a5.013,5.013,0,0,1,.484-2.242A3.546,3.546,0,0,1,5.668-8.07a4.069,4.069,0,0,1,2.113-.539,3.849,3.849,0,0,1,2.793,1.047,4.2,4.2,0,0,1,1.207,2.844l.016.578A4.418,4.418,0,0,1,10.711-1.02,3.775,3.775,0,0,1,7.8.156,3.793,3.793,0,0,1,4.879-1.016,4.5,4.5,0,0,1,3.789-4.2Zm2.258.16A3.16,3.16,0,0,0,6.5-2.3a1.5,1.5,0,0,0,1.3.638,1.5,1.5,0,0,0,1.281-.63,3.457,3.457,0,0,0,.461-2.015A3.128,3.128,0,0,0,9.078-6.14a1.5,1.5,0,0,0-1.3-.649A1.474,1.474,0,0,0,6.5-6.144,3.516,3.516,0,0,0,6.047-4.144ZM16.82-4.289a5.094,5.094,0,0,1,.887-3.148,2.877,2.877,0,0,1,2.426-1.172,2.589,2.589,0,0,1,2.039.922V-12h2.266V0H22.4l-.109-.9A2.657,2.657,0,0,1,20.117.156,2.869,2.869,0,0,1,17.723-1.02,5.258,5.258,0,0,1,16.82-4.289Zm2.258.168A3.337,3.337,0,0,0,19.492-2.3a1.349,1.349,0,0,0,1.2.634,1.511,1.511,0,0,0,1.477-.884V-5.889a1.489,1.489,0,0,0-1.461-.884Q19.078-6.773,19.078-4.121Zm11,4.277A4.15,4.15,0,0,1,27.051-.984a4.054,4.054,0,0,1-1.168-3.039v-.219a5.106,5.106,0,0,1,.492-2.277A3.612,3.612,0,0,1,27.77-8.066a3.914,3.914,0,0,1,2.059-.543,3.508,3.508,0,0,1,2.73,1.094,4.444,4.444,0,0,1,1,3.1v.922H28.172a2.1,2.1,0,0,0,.66,1.328,2,2,0,0,0,1.395.5,2.437,2.437,0,0,0,2.039-.945l1.109,1.242A3.389,3.389,0,0,1,32-.246,4.511,4.511,0,0,1,30.078.156ZM29.82-6.789a1.411,1.411,0,0,0-1.09.455,2.357,2.357,0,0,0-.535,1.3h3.141v-.181a1.681,1.681,0,0,0-.406-1.165A1.456,1.456,0,0,0,29.82-6.789ZM-34.246,15.852a5.07,5.07,0,0,1-.887,3.129,2.843,2.843,0,0,1-2.395,1.176,2.633,2.633,0,0,1-2.07-.891V23.25h-2.258v-11.7h2.094l.078.828a2.654,2.654,0,0,1,2.141-.984,2.862,2.862,0,0,1,2.43,1.156,5.207,5.207,0,0,1,.867,3.188Zm-2.258-.164a3.327,3.327,0,0,0-.418-1.82,1.361,1.361,0,0,0-1.215-.641,1.479,1.479,0,0,0-1.461.813V17.5a1.5,1.5,0,0,0,1.477.836Q-36.5,18.336-36.5,15.688Zm7.547,4.469a4.15,4.15,0,0,1-3.027-1.141,4.054,4.054,0,0,1-1.168-3.039v-.219a5.106,5.106,0,0,1,.492-2.277,3.612,3.612,0,0,1,1.395-1.547,3.914,3.914,0,0,1,2.059-.543,3.508,3.508,0,0,1,2.73,1.094,4.444,4.444,0,0,1,1,3.1v.922h-5.383a2.1,2.1,0,0,0,.66,1.328,2,2,0,0,0,1.395.5,2.437,2.437,0,0,0,2.039-.945l1.109,1.242a3.389,3.389,0,0,1-1.375,1.121A4.511,4.511,0,0,1-28.957,20.156Zm-.258-6.945a1.411,1.411,0,0,0-1.09.455,2.357,2.357,0,0,0-.535,1.3H-27.7v-.181a1.681,1.681,0,0,0-.406-1.165A1.456,1.456,0,0,0-29.215,13.211Zm7.094-1.664.07.977a2.951,2.951,0,0,1,2.43-1.133,2.453,2.453,0,0,1,2,.789,3.682,3.682,0,0,1,.672,2.359V20h-2.258V14.594a1.465,1.465,0,0,0-.312-1.043,1.4,1.4,0,0,0-1.039-.324,1.553,1.553,0,0,0-1.43.813V20h-2.258V11.547Zm10.773,8.609a4.15,4.15,0,0,1-3.027-1.141,4.054,4.054,0,0,1-1.168-3.039v-.219a5.106,5.106,0,0,1,.492-2.277,3.612,3.612,0,0,1,1.395-1.547,3.914,3.914,0,0,1,2.059-.543,3.508,3.508,0,0,1,2.73,1.094,4.444,4.444,0,0,1,1,3.1v.922h-5.383a2.1,2.1,0,0,0,.66,1.328,2,2,0,0,0,1.395.5,2.437,2.437,0,0,0,2.039-.945l1.109,1.242a3.389,3.389,0,0,1-1.375,1.121A4.511,4.511,0,0,1-11.348,20.156Zm-.258-6.945a1.411,1.411,0,0,0-1.09.455,2.357,2.357,0,0,0-.535,1.3h3.141v-.181a1.681,1.681,0,0,0-.406-1.165A1.456,1.456,0,0,0-11.605,13.211Zm7.719-3.742v2.078h1.445V13.2H-3.887v4.219a1.007,1.007,0,0,0,.18.672.9.9,0,0,0,.688.2,3.6,3.6,0,0,0,.664-.055v1.711a4.648,4.648,0,0,1-1.367.2,2.156,2.156,0,0,1-2.422-2.4V13.2H-7.379V11.547h1.234V9.469Zm7.453,4.2a6.134,6.134,0,0,0-.812-.062,1.654,1.654,0,0,0-1.68.867V20H-1.184V11.547H.949l.063,1.008a2.092,2.092,0,0,1,1.883-1.164,2.366,2.366,0,0,1,.7.1ZM9.316,20a2.507,2.507,0,0,1-.227-.758,2.732,2.732,0,0,1-2.133.914A3,3,0,0,1,4.9,19.438a2.312,2.312,0,0,1-.816-1.812,2.389,2.389,0,0,1,1-2.062,4.915,4.915,0,0,1,2.879-.727H9v-.484a1.393,1.393,0,0,0-.3-.937,1.183,1.183,0,0,0-.949-.352,1.345,1.345,0,0,0-.895.273.929.929,0,0,0-.324.75H4.27a2.268,2.268,0,0,1,.453-1.359A3,3,0,0,1,6,11.746a4.669,4.669,0,0,1,1.859-.355,3.689,3.689,0,0,1,2.48.785,2.747,2.747,0,0,1,.918,2.207v3.664a4.041,4.041,0,0,0,.336,1.82V20ZM7.449,18.43a1.945,1.945,0,0,0,.922-.223,1.462,1.462,0,0,0,.625-.6V16.156H8.152q-1.7,0-1.8,1.172l-.008.133a.9.9,0,0,0,.3.7A1.153,1.153,0,0,0,7.449,18.43Zm9.063-.094a1.481,1.481,0,0,0,1.016-.344,1.2,1.2,0,0,0,.406-.914h2.117a2.9,2.9,0,0,1-.469,1.574,3.093,3.093,0,0,1-1.262,1.109,3.949,3.949,0,0,1-1.77.395A3.67,3.67,0,0,1,13.691,19a4.56,4.56,0,0,1-1.047-3.184v-.148a4.508,4.508,0,0,1,1.039-3.117,3.627,3.627,0,0,1,2.852-1.164,3.555,3.555,0,0,1,2.543.9,3.2,3.2,0,0,1,.973,2.4H17.934a1.551,1.551,0,0,0-.406-1.072,1.51,1.51,0,0,0-2.223.163,3.333,3.333,0,0,0-.4,1.866v.235a3.375,3.375,0,0,0,.4,1.878A1.377,1.377,0,0,0,16.512,18.336ZM23.723,20H21.457V11.547h2.266Zm-2.4-10.641a1.112,1.112,0,0,1,.34-.836,1.465,1.465,0,0,1,1.848,0,1.193,1.193,0,0,1,0,1.68,1.448,1.448,0,0,1-1.836,0A1.108,1.108,0,0,1,21.324,9.359ZM25.23,15.7a5.013,5.013,0,0,1,.484-2.242,3.546,3.546,0,0,1,1.395-1.523,4.069,4.069,0,0,1,2.113-.539,3.849,3.849,0,0,1,2.793,1.047,4.2,4.2,0,0,1,1.207,2.844l.016.578a4.418,4.418,0,0,1-1.086,3.121,3.775,3.775,0,0,1-2.914,1.176,3.793,3.793,0,0,1-2.918-1.172A4.5,4.5,0,0,1,25.23,15.8Zm2.258.16a3.16,3.16,0,0,0,.453,1.843,1.628,1.628,0,0,0,2.578.008,3.457,3.457,0,0,0,.461-2.015,3.128,3.128,0,0,0-.461-1.831,1.5,1.5,0,0,0-1.3-.649,1.474,1.474,0,0,0-1.281.646A3.516,3.516,0,0,0,27.488,15.856ZM29.668,8h2.461l-2.164,2.422H28.129Zm7.039,3.547.07.977a2.951,2.951,0,0,1,2.43-1.133,2.453,2.453,0,0,1,2,.789,3.682,3.682,0,0,1,.672,2.359V20H39.621V14.594a1.465,1.465,0,0,0-.312-1.043,1.4,1.4,0,0,0-1.039-.324,1.553,1.553,0,0,0-1.43.813V20H34.582V11.547Z" transform="translate(969 7084.546)" fill="#12263f"/>
    <text id="_0" data-name="0" transform="translate(1040 7201.546)" fill="#12263f" font-size="16" font-family="Roboto-Bold, Roboto" font-weight="700"><tspan x="-4.59" y="0">0</tspan></text>
    <text id="Q" transform="translate(1250 7205.546)" fill="#12263f" font-size="16" font-family="Roboto-Bold, Roboto" font-weight="700"><tspan x="-5.523" y="0">Q</tspan></text>
    <path id="Trazado_877278" data-name="Trazado 877278" d="M-1.8-4.008V0H-4.145V-11.375H.293a5.134,5.134,0,0,1,2.254.469,3.454,3.454,0,0,1,1.5,1.332,3.714,3.714,0,0,1,.523,1.965A3.266,3.266,0,0,1,3.422-4.973a4.767,4.767,0,0,1-3.168.965Zm0-1.9H.293a2.059,2.059,0,0,0,1.418-.437A1.591,1.591,0,0,0,2.2-7.594a1.876,1.876,0,0,0-.492-1.352A1.839,1.839,0,0,0,.348-9.477H-1.8Z" transform="translate(1021 7023.546)" fill="#12263f"/>
  </g>
</svg>
