<svg xmlns="http://www.w3.org/2000/svg" width="1256.87" height="656.992" viewBox="0 0 1256.87 656.992">
  <g id="Grupo_1102801" data-name="Grupo 1102801" transform="translate(-171.565 -18243.32)">
    <path id="Rectángulo_18651" data-name="Rectángulo 18651" d="M20,0H1236.87a20,20,0,0,1,20,20V601.913a20,20,0,0,1-20,20H20a20,20,0,0,1-20-20V20A20,20,0,0,1,20,0Z" transform="translate(171.565 18278.4)" fill="#bde9f9" opacity="0.3"/>
    <path id="Línea_250" data-name="Línea 250" d="M684.466,1H0V-1H684.466Z" transform="translate(393.82 18398.67)" fill="#6e3dc6"/>
    <path id="Línea_251" data-name="Línea 251" d="M1034.61,1H0V-1H1034.61Z" transform="translate(263.913 18847.494)" fill="#6e3dc6"/>
    <path id="Línea_252" data-name="Línea 252" d="M521.68,1H0V-1H521.68Z" transform="translate(393.82 18485.408)" fill="#6e3dc6"/>
    <path id="Línea_253" data-name="Línea 253" d="M383.658,1H0V-1H383.658Z" transform="translate(312.442 18578.146)" fill="#6e3dc6"/>
    <path id="Línea_254" data-name="Línea 254" d="M81.043,1H0V-1H81.043Z" transform="translate(386.143 18667.889)" fill="#6e3dc6"/>
    <path id="Línea_255" data-name="Línea 255" d="M81.043,1H0V-1H81.043Z" transform="translate(386.143 18757.627)" fill="#6e3dc6"/>
    <path id="Rectángulo_18652" data-name="Rectángulo 18652" d="M14.962,0H271.68a14.962,14.962,0,0,1,14.962,14.962V46.877A14.962,14.962,0,0,1,271.68,61.839H14.962A14.962,14.962,0,0,1,0,46.877V14.962A14.962,14.962,0,0,1,14.962,0Z" transform="translate(662.925 18243.32)" fill="#75baf1"/>
    <path id="Mercados_de_consumo" data-name="Mercados de consumo" d="M5.576-14.219,8.75-4.326l3.164-9.893h4.512V0H12.988V-3.32l.332-6.8L9.883,0H7.617L4.17-10.127,4.5-3.32V0H1.074V-14.219ZM23.564.2a5.432,5.432,0,0,1-3.936-1.45,5.008,5.008,0,0,1-1.5-3.774V-5.3a6.489,6.489,0,0,1,.6-2.861,4.395,4.395,0,0,1,1.753-1.919,5.292,5.292,0,0,1,2.734-.679A4.574,4.574,0,0,1,26.729-9.38a5.43,5.43,0,0,1,1.289,3.853v1.279H21.475a2.372,2.372,0,0,0,.771,1.4,2.3,2.3,0,0,0,1.543.508A2.958,2.958,0,0,0,26.23-3.437l1.5,1.777A4.2,4.2,0,0,1,25.991-.308,5.891,5.891,0,0,1,23.564.2Zm-.371-8.418q-1.445,0-1.719,1.914h3.32v-.254a1.63,1.63,0,0,0-.4-1.226A1.593,1.593,0,0,0,23.193-8.223Zm12.539.635-1.084-.078a1.947,1.947,0,0,0-1.992.977V0H29.365V-10.566h3.086l.107,1.357a2.548,2.548,0,0,1,2.314-1.553,3.209,3.209,0,0,1,.918.117ZM41.2-2.344a1.464,1.464,0,0,0,1.074-.376,1.379,1.379,0,0,0,.371-1.05h3.086A3.653,3.653,0,0,1,44.487-.918,4.631,4.631,0,0,1,41.279.2,4.689,4.689,0,0,1,37.646-1.25a5.7,5.7,0,0,1-1.328-4v-.137a6.436,6.436,0,0,1,.591-2.827,4.3,4.3,0,0,1,1.7-1.885,5.081,5.081,0,0,1,2.637-.659,4.573,4.573,0,0,1,3.271,1.143,4.053,4.053,0,0,1,1.211,3.1H42.646a1.807,1.807,0,0,0-.4-1.26,1.382,1.382,0,0,0-1.074-.439q-1.279,0-1.494,1.631a11.507,11.507,0,0,0-.068,1.426,4.52,4.52,0,0,0,.381,2.207A1.319,1.319,0,0,0,41.2-2.344ZM53.076,0a3.716,3.716,0,0,1-.312-.947A3.06,3.06,0,0,1,50.225.2a3.749,3.749,0,0,1-2.539-.9,2.875,2.875,0,0,1-1.045-2.271,2.955,2.955,0,0,1,1.27-2.6A6.468,6.468,0,0,1,51.6-6.455h1.016v-.559q0-1.462-1.26-1.462a1.03,1.03,0,0,0-1.172,1.158H46.895a2.95,2.95,0,0,1,1.3-2.487,5.479,5.479,0,0,1,3.325-.956,4.8,4.8,0,0,1,3.193.986,3.429,3.429,0,0,1,1.2,2.705v4.678a4.79,4.79,0,0,0,.449,2.227V0ZM51.016-2.148a1.836,1.836,0,0,0,1.021-.264,1.653,1.653,0,0,0,.581-.6V-4.7H51.66q-1.719,0-1.719,1.543a.942.942,0,0,0,.3.728A1.1,1.1,0,0,0,51.016-2.148Zm6.309-3.213a6.455,6.455,0,0,1,1.084-3.955,3.568,3.568,0,0,1,3.027-1.445,3.035,3.035,0,0,1,2.383,1.113V-15h3.3V0H64.16l-.166-1.133A3.116,3.116,0,0,1,61.416.2,3.562,3.562,0,0,1,58.428-1.25,6.659,6.659,0,0,1,57.324-5.361Zm3.291.205q0,2.813,1.641,2.813a1.62,1.62,0,0,0,1.563-.918V-7.285a1.576,1.576,0,0,0-1.543-.937q-1.523,0-1.65,2.461Zm7.959-.225A6.236,6.236,0,0,1,69.189-8.2a4.4,4.4,0,0,1,1.768-1.9,5.323,5.323,0,0,1,2.705-.664,4.858,4.858,0,0,1,3.74,1.47,5.64,5.64,0,0,1,1.367,4v.117A5.472,5.472,0,0,1,77.4-1.255,4.871,4.871,0,0,1,73.682.2a4.927,4.927,0,0,1-3.623-1.353,5.29,5.29,0,0,1-1.475-3.667Zm3.291.205a3.932,3.932,0,0,0,.459,2.148,1.529,1.529,0,0,0,1.357.684q1.758,0,1.8-2.705v-.332q0-2.842-1.816-2.842-1.65,0-1.787,2.451ZM85.752-2.969a.76.76,0,0,0-.439-.674,6.685,6.685,0,0,0-1.67-.527,7.615,7.615,0,0,1-2.031-.718,3.4,3.4,0,0,1-1.221-1.079,2.577,2.577,0,0,1-.42-1.455,2.92,2.92,0,0,1,1.2-2.4,4.948,4.948,0,0,1,3.145-.942,5.482,5.482,0,0,1,3.359.947,2.962,2.962,0,0,1,1.27,2.49h-3.3q0-1.27-1.338-1.27a1.326,1.326,0,0,0-.869.288.892.892,0,0,0-.352.718.819.819,0,0,0,.43.713,4.06,4.06,0,0,0,1.372.449,11.857,11.857,0,0,1,1.655.42,3.007,3.007,0,0,1,2.383,2.939A2.767,2.767,0,0,1,87.642-.713,5.631,5.631,0,0,1,84.316.2a5.747,5.747,0,0,1-2.422-.488,4.05,4.05,0,0,1-1.66-1.328,3.007,3.007,0,0,1-.6-1.768h3.076A1.272,1.272,0,0,0,83.2-2.319a2.009,2.009,0,0,0,1.2.337,1.58,1.58,0,0,0,1.011-.273A.875.875,0,0,0,85.752-2.969Zm9.277-2.393a6.455,6.455,0,0,1,1.084-3.955,3.568,3.568,0,0,1,3.027-1.445,3.035,3.035,0,0,1,2.383,1.113V-15h3.3V0h-2.959L101.7-1.133A3.116,3.116,0,0,1,99.121.2,3.562,3.562,0,0,1,96.133-1.25,6.659,6.659,0,0,1,95.029-5.361Zm3.291.205q0,2.813,1.641,2.813a1.62,1.62,0,0,0,1.563-.918V-7.285a1.576,1.576,0,0,0-1.543-.937q-1.523,0-1.65,2.461ZM111.807.2a5.432,5.432,0,0,1-3.936-1.45,5.008,5.008,0,0,1-1.5-3.774V-5.3a6.489,6.489,0,0,1,.6-2.861,4.395,4.395,0,0,1,1.753-1.919,5.292,5.292,0,0,1,2.734-.679,4.574,4.574,0,0,1,3.516,1.382,5.43,5.43,0,0,1,1.289,3.853v1.279h-6.543a2.372,2.372,0,0,0,.771,1.4,2.3,2.3,0,0,0,1.543.508,2.958,2.958,0,0,0,2.441-1.094l1.5,1.777a4.2,4.2,0,0,1-1.743,1.353A5.891,5.891,0,0,1,111.807.2Zm-.371-8.418q-1.445,0-1.719,1.914h3.32v-.254a1.63,1.63,0,0,0-.4-1.226A1.593,1.593,0,0,0,111.436-8.223Zm15.6,5.879a1.464,1.464,0,0,0,1.074-.376,1.379,1.379,0,0,0,.371-1.05h3.086a3.653,3.653,0,0,1-1.245,2.852A4.631,4.631,0,0,1,127.109.2a4.689,4.689,0,0,1-3.633-1.445,5.7,5.7,0,0,1-1.328-4v-.137a6.436,6.436,0,0,1,.591-2.827,4.3,4.3,0,0,1,1.7-1.885,5.081,5.081,0,0,1,2.637-.659,4.573,4.573,0,0,1,3.271,1.143,4.053,4.053,0,0,1,1.211,3.1h-3.086a1.807,1.807,0,0,0-.4-1.26A1.382,1.382,0,0,0,127-8.223q-1.279,0-1.494,1.631a11.508,11.508,0,0,0-.068,1.426,4.52,4.52,0,0,0,.381,2.207A1.319,1.319,0,0,0,127.031-2.344Zm5.508-3.037a6.236,6.236,0,0,1,.615-2.817,4.4,4.4,0,0,1,1.768-1.9,5.323,5.323,0,0,1,2.705-.664,4.858,4.858,0,0,1,3.74,1.47,5.64,5.64,0,0,1,1.367,4v.117a5.472,5.472,0,0,1-1.372,3.921A4.871,4.871,0,0,1,137.646.2a4.927,4.927,0,0,1-3.623-1.353,5.29,5.29,0,0,1-1.475-3.667Zm3.291.205a3.932,3.932,0,0,0,.459,2.148,1.529,1.529,0,0,0,1.357.684q1.758,0,1.8-2.705v-.332q0-2.842-1.816-2.842-1.65,0-1.787,2.451Zm11.377-5.391.107,1.24a3.583,3.583,0,0,1,3.018-1.436,3.015,3.015,0,0,1,2.466.986,4.7,4.7,0,0,1,.845,2.969V0h-3.3V-6.67a1.783,1.783,0,0,0-.322-1.177,1.491,1.491,0,0,0-1.172-.376,1.569,1.569,0,0,0-1.436.762V0h-3.291V-10.566ZM161-2.969a.76.76,0,0,0-.439-.674,6.685,6.685,0,0,0-1.67-.527,7.615,7.615,0,0,1-2.031-.718,3.4,3.4,0,0,1-1.221-1.079,2.577,2.577,0,0,1-.42-1.455,2.92,2.92,0,0,1,1.2-2.4,4.948,4.948,0,0,1,3.145-.942,5.482,5.482,0,0,1,3.359.947,2.962,2.962,0,0,1,1.27,2.49h-3.3q0-1.27-1.338-1.27a1.326,1.326,0,0,0-.869.288.892.892,0,0,0-.352.718.819.819,0,0,0,.43.713,4.06,4.06,0,0,0,1.372.449,11.857,11.857,0,0,1,1.655.42,3.007,3.007,0,0,1,2.383,2.939,2.767,2.767,0,0,1-1.284,2.354A5.632,5.632,0,0,1,159.561.2a5.747,5.747,0,0,1-2.422-.488,4.05,4.05,0,0,1-1.66-1.328,3.007,3.007,0,0,1-.6-1.768h3.076a1.272,1.272,0,0,0,.488,1.069,2.009,2.009,0,0,0,1.2.337,1.58,1.58,0,0,0,1.011-.273A.875.875,0,0,0,161-2.969ZM172-1.143A3.393,3.393,0,0,1,169.18.2a3.328,3.328,0,0,1-2.632-1.011,4.251,4.251,0,0,1-.894-2.905v-6.846h3.291V-3.7a1.183,1.183,0,0,0,1.318,1.357,1.72,1.72,0,0,0,1.611-.811v-7.412h3.311V0H172.1Zm8.1-9.424.107,1.24a3.633,3.633,0,0,1,3.018-1.436,2.675,2.675,0,0,1,2.705,1.592,3.516,3.516,0,0,1,3.105-1.592q3.213,0,3.3,3.887V0h-3.3V-6.67a2.014,2.014,0,0,0-.273-1.182,1.164,1.164,0,0,0-1-.371,1.559,1.559,0,0,0-1.455.869l.01.137V0h-3.3V-6.65a2.117,2.117,0,0,0-.264-1.2,1.161,1.161,0,0,0-1.006-.371,1.578,1.578,0,0,0-1.445.869V0h-3.291V-10.566Zm13.7,5.186a6.236,6.236,0,0,1,.615-2.817,4.4,4.4,0,0,1,1.768-1.9,5.323,5.323,0,0,1,2.705-.664,4.858,4.858,0,0,1,3.74,1.47,5.64,5.64,0,0,1,1.367,4v.117a5.472,5.472,0,0,1-1.372,3.921A4.871,4.871,0,0,1,198.906.2a4.927,4.927,0,0,1-3.623-1.353,5.29,5.29,0,0,1-1.475-3.667Zm3.291.205a3.932,3.932,0,0,0,.459,2.148,1.529,1.529,0,0,0,1.357.684q1.758,0,1.8-2.705v-.332q0-2.842-1.816-2.842-1.65,0-1.787,2.451Z" transform="translate(703.793 18277.965)" fill="#12263f"/>
    <path id="Rectángulo_18653" data-name="Rectángulo 18653" d="M14.962,0H185.6a14.962,14.962,0,0,1,14.962,14.962V46.877A14.962,14.962,0,0,1,185.6,61.839H14.962A14.962,14.962,0,0,1,0,46.877V14.962A14.962,14.962,0,0,1,14.962,0Z" transform="translate(205.444 18364.748)" fill="#be79ca"/>
    <path id="Fabricantes" d="M-38.6-5.1h-4.975V0h-3.085V-12.8H-38.1v2.382h-5.476v2.944H-38.6ZM-31.9,0a3.344,3.344,0,0,1-.281-.853A2.754,2.754,0,0,1-34.462.176a3.374,3.374,0,0,1-2.285-.813,2.588,2.588,0,0,1-.94-2.043,2.66,2.66,0,0,1,1.143-2.338,5.821,5.821,0,0,1,3.322-.791h.914v-.5q0-1.316-1.134-1.316A.927.927,0,0,0-34.5-6.587h-2.962a2.655,2.655,0,0,1,1.173-2.239,4.931,4.931,0,0,1,2.993-.86,4.323,4.323,0,0,1,2.874.888,3.086,3.086,0,0,1,1.081,2.435v4.21a4.311,4.311,0,0,0,.4,2V0ZM-33.75-1.934a1.652,1.652,0,0,0,.918-.237,1.487,1.487,0,0,0,.523-.536V-4.228h-.861q-1.547,0-1.547,1.389a.848.848,0,0,0,.272.655A.986.986,0,0,0-33.75-1.934Zm14.88-2.742a5.8,5.8,0,0,1-.967,3.595A3.238,3.238,0,0,1-22.562.176,2.81,2.81,0,0,1-24.9-.976L-25.022,0h-2.654V-13.5h2.962v4.755a2.711,2.711,0,0,1,2.136-.94,3.239,3.239,0,0,1,2.742,1.274,5.826,5.826,0,0,1,.967,3.586Zm-2.971-.189a3.866,3.866,0,0,0-.365-1.952A1.229,1.229,0,0,0-23.326-7.4a1.418,1.418,0,0,0-1.389.763v3.773a1.426,1.426,0,0,0,1.406.755,1.258,1.258,0,0,0,1.327-1.018A7.309,7.309,0,0,0-21.841-4.865Zm10.028-1.964-.976-.07a1.752,1.752,0,0,0-1.793.879V0h-2.962V-9.51h2.777l.1,1.222a2.294,2.294,0,0,1,2.083-1.4,2.888,2.888,0,0,1,.826.105ZM-7.62,0h-2.971V-9.51H-7.62Zm-3.146-11.962A1.322,1.322,0,0,1-10.31-13a1.724,1.724,0,0,1,1.187-.4,1.724,1.724,0,0,1,1.187.4,1.322,1.322,0,0,1,.457,1.037,1.322,1.322,0,0,1-.457,1.037,1.724,1.724,0,0,1-1.187.4,1.724,1.724,0,0,1-1.187-.4A1.322,1.322,0,0,1-10.767-11.962Zm8.991,9.853a1.317,1.317,0,0,0,.967-.338,1.241,1.241,0,0,0,.334-.945H2.3A3.288,3.288,0,0,1,1.182-.826a4.168,4.168,0,0,1-2.887,1,4.22,4.22,0,0,1-3.27-1.3,5.125,5.125,0,0,1-1.2-3.6v-.123A5.792,5.792,0,0,1-5.638-7.4,3.872,3.872,0,0,1-4.1-9.092a4.573,4.573,0,0,1,2.373-.593A4.116,4.116,0,0,1,1.213-8.657,3.647,3.647,0,0,1,2.3-5.871H-.475A1.626,1.626,0,0,0-.835-7,1.244,1.244,0,0,0-1.8-7.4q-1.151,0-1.345,1.468a10.357,10.357,0,0,0-.062,1.283,4.068,4.068,0,0,0,.343,1.986A1.187,1.187,0,0,0-1.775-2.109ZM8.912,0a3.344,3.344,0,0,1-.281-.853A2.754,2.754,0,0,1,6.346.176,3.374,3.374,0,0,1,4.061-.637a2.588,2.588,0,0,1-.94-2.043A2.66,2.66,0,0,1,4.263-5.019,5.821,5.821,0,0,1,7.585-5.81H8.5v-.5q0-1.316-1.134-1.316A.927.927,0,0,0,6.311-6.587H3.349A2.655,2.655,0,0,1,4.522-8.825a4.931,4.931,0,0,1,2.993-.86,4.323,4.323,0,0,1,2.874.888A3.086,3.086,0,0,1,11.47-6.363v4.21a4.311,4.311,0,0,0,.4,2V0ZM7.058-1.934a1.652,1.652,0,0,0,.918-.237A1.487,1.487,0,0,0,8.5-2.707V-4.228H7.638q-1.547,0-1.547,1.389a.848.848,0,0,0,.272.655A.986.986,0,0,0,7.058-1.934ZM15.829-9.51l.1,1.116a3.225,3.225,0,0,1,2.716-1.292,2.713,2.713,0,0,1,2.219.888,4.226,4.226,0,0,1,.76,2.672V0H18.65V-6a1.6,1.6,0,0,0-.29-1.059A1.342,1.342,0,0,0,17.306-7.4a1.413,1.413,0,0,0-1.292.686V0H13.052V-9.51ZM26.71-11.874V-9.51h1.564v2.057H26.71V-3.1a1.111,1.111,0,0,0,.193.747,1.037,1.037,0,0,0,.765.211,4.345,4.345,0,0,0,.738-.053V-.079a5.466,5.466,0,0,1-1.67.255,3.1,3.1,0,0,1-2.259-.721,2.954,2.954,0,0,1-.729-2.188v-4.72H22.535V-9.51h1.213v-2.364ZM34.04.176A4.889,4.889,0,0,1,30.5-1.129a4.507,4.507,0,0,1-1.354-3.4v-.246a5.84,5.84,0,0,1,.541-2.575,3.955,3.955,0,0,1,1.578-1.727,4.763,4.763,0,0,1,2.461-.611,4.117,4.117,0,0,1,3.164,1.244,4.887,4.887,0,0,1,1.16,3.467v1.151H32.159a2.135,2.135,0,0,0,.694,1.257,2.066,2.066,0,0,0,1.389.457,2.662,2.662,0,0,0,2.2-.984l1.354,1.6A3.784,3.784,0,0,1,36.224-.277,5.3,5.3,0,0,1,34.04.176ZM33.706-7.4q-1.3,0-1.547,1.723h2.988v-.229a1.467,1.467,0,0,0-.36-1.1A1.434,1.434,0,0,0,33.706-7.4ZM44.218-2.672a.684.684,0,0,0-.4-.606,6.016,6.016,0,0,0-1.5-.475A6.853,6.853,0,0,1,40.491-4.4a3.062,3.062,0,0,1-1.1-.971,2.319,2.319,0,0,1-.378-1.31A2.628,2.628,0,0,1,40.1-8.837a4.453,4.453,0,0,1,2.83-.848,4.934,4.934,0,0,1,3.023.853,2.666,2.666,0,0,1,1.143,2.241H44.121q0-1.143-1.2-1.143a1.194,1.194,0,0,0-.782.259.8.8,0,0,0-.316.646.737.737,0,0,0,.387.642,3.654,3.654,0,0,0,1.235.4,10.671,10.671,0,0,1,1.49.378A2.706,2.706,0,0,1,47.074-2.76,2.491,2.491,0,0,1,45.918-.642a5.068,5.068,0,0,1-2.993.817,5.172,5.172,0,0,1-2.18-.439,3.645,3.645,0,0,1-1.494-1.2,2.707,2.707,0,0,1-.536-1.591h2.769a1.145,1.145,0,0,0,.439.962,1.808,1.808,0,0,0,1.081.3,1.422,1.422,0,0,0,.91-.246A.787.787,0,0,0,44.218-2.672Z" transform="translate(303.312 18401.393)" fill="#fff"/>
    <path id="Rectángulo_18654" data-name="Rectángulo 18654" d="M14.962,0H185.6a14.962,14.962,0,0,1,14.962,14.962V46.877A14.962,14.962,0,0,1,185.6,61.839H14.962A14.962,14.962,0,0,1,0,46.877V14.962A14.962,14.962,0,0,1,14.962,0Z" transform="translate(205.444 18454.486)" fill="#be79ca"/>
    <path id="Fabricantes-2" data-name="Fabricantes" d="M-38.6-5.1h-4.975V0h-3.085V-12.8H-38.1v2.382h-5.476v2.944H-38.6ZM-31.9,0a3.344,3.344,0,0,1-.281-.853A2.754,2.754,0,0,1-34.462.176a3.374,3.374,0,0,1-2.285-.813,2.588,2.588,0,0,1-.94-2.043,2.66,2.66,0,0,1,1.143-2.338,5.821,5.821,0,0,1,3.322-.791h.914v-.5q0-1.316-1.134-1.316A.927.927,0,0,0-34.5-6.587h-2.962a2.655,2.655,0,0,1,1.173-2.239,4.931,4.931,0,0,1,2.993-.86,4.323,4.323,0,0,1,2.874.888,3.086,3.086,0,0,1,1.081,2.435v4.21a4.311,4.311,0,0,0,.4,2V0ZM-33.75-1.934a1.652,1.652,0,0,0,.918-.237,1.487,1.487,0,0,0,.523-.536V-4.228h-.861q-1.547,0-1.547,1.389a.848.848,0,0,0,.272.655A.986.986,0,0,0-33.75-1.934Zm14.88-2.742a5.8,5.8,0,0,1-.967,3.595A3.238,3.238,0,0,1-22.562.176,2.81,2.81,0,0,1-24.9-.976L-25.022,0h-2.654V-13.5h2.962v4.755a2.711,2.711,0,0,1,2.136-.94,3.239,3.239,0,0,1,2.742,1.274,5.826,5.826,0,0,1,.967,3.586Zm-2.971-.189a3.866,3.866,0,0,0-.365-1.952A1.229,1.229,0,0,0-23.326-7.4a1.418,1.418,0,0,0-1.389.763v3.773a1.426,1.426,0,0,0,1.406.755,1.258,1.258,0,0,0,1.327-1.018A7.309,7.309,0,0,0-21.841-4.865Zm10.028-1.964-.976-.07a1.752,1.752,0,0,0-1.793.879V0h-2.962V-9.51h2.777l.1,1.222a2.294,2.294,0,0,1,2.083-1.4,2.888,2.888,0,0,1,.826.105ZM-7.62,0h-2.971V-9.51H-7.62Zm-3.146-11.962A1.322,1.322,0,0,1-10.31-13a1.724,1.724,0,0,1,1.187-.4,1.724,1.724,0,0,1,1.187.4,1.322,1.322,0,0,1,.457,1.037,1.322,1.322,0,0,1-.457,1.037,1.724,1.724,0,0,1-1.187.4,1.724,1.724,0,0,1-1.187-.4A1.322,1.322,0,0,1-10.767-11.962Zm8.991,9.853a1.317,1.317,0,0,0,.967-.338,1.241,1.241,0,0,0,.334-.945H2.3A3.288,3.288,0,0,1,1.182-.826a4.168,4.168,0,0,1-2.887,1,4.22,4.22,0,0,1-3.27-1.3,5.125,5.125,0,0,1-1.2-3.6v-.123A5.792,5.792,0,0,1-5.638-7.4,3.872,3.872,0,0,1-4.1-9.092a4.573,4.573,0,0,1,2.373-.593A4.116,4.116,0,0,1,1.213-8.657,3.647,3.647,0,0,1,2.3-5.871H-.475A1.626,1.626,0,0,0-.835-7,1.244,1.244,0,0,0-1.8-7.4q-1.151,0-1.345,1.468a10.357,10.357,0,0,0-.062,1.283,4.068,4.068,0,0,0,.343,1.986A1.187,1.187,0,0,0-1.775-2.109ZM8.912,0a3.344,3.344,0,0,1-.281-.853A2.754,2.754,0,0,1,6.346.176,3.374,3.374,0,0,1,4.061-.637a2.588,2.588,0,0,1-.94-2.043A2.66,2.66,0,0,1,4.263-5.019,5.821,5.821,0,0,1,7.585-5.81H8.5v-.5q0-1.316-1.134-1.316A.927.927,0,0,0,6.311-6.587H3.349A2.655,2.655,0,0,1,4.522-8.825a4.931,4.931,0,0,1,2.993-.86,4.323,4.323,0,0,1,2.874.888A3.086,3.086,0,0,1,11.47-6.363v4.21a4.311,4.311,0,0,0,.4,2V0ZM7.058-1.934a1.652,1.652,0,0,0,.918-.237A1.487,1.487,0,0,0,8.5-2.707V-4.228H7.638q-1.547,0-1.547,1.389a.848.848,0,0,0,.272.655A.986.986,0,0,0,7.058-1.934ZM15.829-9.51l.1,1.116a3.225,3.225,0,0,1,2.716-1.292,2.713,2.713,0,0,1,2.219.888,4.226,4.226,0,0,1,.76,2.672V0H18.65V-6a1.6,1.6,0,0,0-.29-1.059A1.342,1.342,0,0,0,17.306-7.4a1.413,1.413,0,0,0-1.292.686V0H13.052V-9.51ZM26.71-11.874V-9.51h1.564v2.057H26.71V-3.1a1.111,1.111,0,0,0,.193.747,1.037,1.037,0,0,0,.765.211,4.345,4.345,0,0,0,.738-.053V-.079a5.466,5.466,0,0,1-1.67.255,3.1,3.1,0,0,1-2.259-.721,2.954,2.954,0,0,1-.729-2.188v-4.72H22.535V-9.51h1.213v-2.364ZM34.04.176A4.889,4.889,0,0,1,30.5-1.129a4.507,4.507,0,0,1-1.354-3.4v-.246a5.84,5.84,0,0,1,.541-2.575,3.955,3.955,0,0,1,1.578-1.727,4.763,4.763,0,0,1,2.461-.611,4.117,4.117,0,0,1,3.164,1.244,4.887,4.887,0,0,1,1.16,3.467v1.151H32.159a2.135,2.135,0,0,0,.694,1.257,2.066,2.066,0,0,0,1.389.457,2.662,2.662,0,0,0,2.2-.984l1.354,1.6A3.784,3.784,0,0,1,36.224-.277,5.3,5.3,0,0,1,34.04.176ZM33.706-7.4q-1.3,0-1.547,1.723h2.988v-.229a1.467,1.467,0,0,0-.36-1.1A1.434,1.434,0,0,0,33.706-7.4ZM44.218-2.672a.684.684,0,0,0-.4-.606,6.016,6.016,0,0,0-1.5-.475A6.853,6.853,0,0,1,40.491-4.4a3.062,3.062,0,0,1-1.1-.971,2.319,2.319,0,0,1-.378-1.31A2.628,2.628,0,0,1,40.1-8.837a4.453,4.453,0,0,1,2.83-.848,4.934,4.934,0,0,1,3.023.853,2.666,2.666,0,0,1,1.143,2.241H44.121q0-1.143-1.2-1.143a1.194,1.194,0,0,0-.782.259.8.8,0,0,0-.316.646.737.737,0,0,0,.387.642,3.654,3.654,0,0,0,1.235.4,10.671,10.671,0,0,1,1.49.378A2.706,2.706,0,0,1,47.074-2.76,2.491,2.491,0,0,1,45.918-.642a5.068,5.068,0,0,1-2.993.817,5.172,5.172,0,0,1-2.18-.439,3.645,3.645,0,0,1-1.494-1.2,2.707,2.707,0,0,1-.536-1.591h2.769a1.145,1.145,0,0,0,.439.962,1.808,1.808,0,0,0,1.081.3,1.422,1.422,0,0,0,.91-.246A.787.787,0,0,0,44.218-2.672Z" transform="translate(303.312 18491.131)" fill="#fff"/>
    <path id="Rectángulo_18655" data-name="Rectángulo 18655" d="M14.962,0H185.6a14.962,14.962,0,0,1,14.962,14.962V46.877A14.962,14.962,0,0,1,185.6,61.839H14.962A14.962,14.962,0,0,1,0,46.877V14.962A14.962,14.962,0,0,1,14.962,0Z" transform="translate(205.444 18544.225)" fill="#be79ca"/>
    <path id="Fabricantes-3" data-name="Fabricantes" d="M-38.6-5.1h-4.975V0h-3.085V-12.8H-38.1v2.382h-5.476v2.944H-38.6ZM-31.9,0a3.344,3.344,0,0,1-.281-.853A2.754,2.754,0,0,1-34.462.176a3.374,3.374,0,0,1-2.285-.813,2.588,2.588,0,0,1-.94-2.043,2.66,2.66,0,0,1,1.143-2.338,5.821,5.821,0,0,1,3.322-.791h.914v-.5q0-1.316-1.134-1.316A.927.927,0,0,0-34.5-6.587h-2.962a2.655,2.655,0,0,1,1.173-2.239,4.931,4.931,0,0,1,2.993-.86,4.323,4.323,0,0,1,2.874.888,3.086,3.086,0,0,1,1.081,2.435v4.21a4.311,4.311,0,0,0,.4,2V0ZM-33.75-1.934a1.652,1.652,0,0,0,.918-.237,1.487,1.487,0,0,0,.523-.536V-4.228h-.861q-1.547,0-1.547,1.389a.848.848,0,0,0,.272.655A.986.986,0,0,0-33.75-1.934Zm14.88-2.742a5.8,5.8,0,0,1-.967,3.595A3.238,3.238,0,0,1-22.562.176,2.81,2.81,0,0,1-24.9-.976L-25.022,0h-2.654V-13.5h2.962v4.755a2.711,2.711,0,0,1,2.136-.94,3.239,3.239,0,0,1,2.742,1.274,5.826,5.826,0,0,1,.967,3.586Zm-2.971-.189a3.866,3.866,0,0,0-.365-1.952A1.229,1.229,0,0,0-23.326-7.4a1.418,1.418,0,0,0-1.389.763v3.773a1.426,1.426,0,0,0,1.406.755,1.258,1.258,0,0,0,1.327-1.018A7.309,7.309,0,0,0-21.841-4.865Zm10.028-1.964-.976-.07a1.752,1.752,0,0,0-1.793.879V0h-2.962V-9.51h2.777l.1,1.222a2.294,2.294,0,0,1,2.083-1.4,2.888,2.888,0,0,1,.826.105ZM-7.62,0h-2.971V-9.51H-7.62Zm-3.146-11.962A1.322,1.322,0,0,1-10.31-13a1.724,1.724,0,0,1,1.187-.4,1.724,1.724,0,0,1,1.187.4,1.322,1.322,0,0,1,.457,1.037,1.322,1.322,0,0,1-.457,1.037,1.724,1.724,0,0,1-1.187.4,1.724,1.724,0,0,1-1.187-.4A1.322,1.322,0,0,1-10.767-11.962Zm8.991,9.853a1.317,1.317,0,0,0,.967-.338,1.241,1.241,0,0,0,.334-.945H2.3A3.288,3.288,0,0,1,1.182-.826a4.168,4.168,0,0,1-2.887,1,4.22,4.22,0,0,1-3.27-1.3,5.125,5.125,0,0,1-1.2-3.6v-.123A5.792,5.792,0,0,1-5.638-7.4,3.872,3.872,0,0,1-4.1-9.092a4.573,4.573,0,0,1,2.373-.593A4.116,4.116,0,0,1,1.213-8.657,3.647,3.647,0,0,1,2.3-5.871H-.475A1.626,1.626,0,0,0-.835-7,1.244,1.244,0,0,0-1.8-7.4q-1.151,0-1.345,1.468a10.357,10.357,0,0,0-.062,1.283,4.068,4.068,0,0,0,.343,1.986A1.187,1.187,0,0,0-1.775-2.109ZM8.912,0a3.344,3.344,0,0,1-.281-.853A2.754,2.754,0,0,1,6.346.176,3.374,3.374,0,0,1,4.061-.637a2.588,2.588,0,0,1-.94-2.043A2.66,2.66,0,0,1,4.263-5.019,5.821,5.821,0,0,1,7.585-5.81H8.5v-.5q0-1.316-1.134-1.316A.927.927,0,0,0,6.311-6.587H3.349A2.655,2.655,0,0,1,4.522-8.825a4.931,4.931,0,0,1,2.993-.86,4.323,4.323,0,0,1,2.874.888A3.086,3.086,0,0,1,11.47-6.363v4.21a4.311,4.311,0,0,0,.4,2V0ZM7.058-1.934a1.652,1.652,0,0,0,.918-.237A1.487,1.487,0,0,0,8.5-2.707V-4.228H7.638q-1.547,0-1.547,1.389a.848.848,0,0,0,.272.655A.986.986,0,0,0,7.058-1.934ZM15.829-9.51l.1,1.116a3.225,3.225,0,0,1,2.716-1.292,2.713,2.713,0,0,1,2.219.888,4.226,4.226,0,0,1,.76,2.672V0H18.65V-6a1.6,1.6,0,0,0-.29-1.059A1.342,1.342,0,0,0,17.306-7.4a1.413,1.413,0,0,0-1.292.686V0H13.052V-9.51ZM26.71-11.874V-9.51h1.564v2.057H26.71V-3.1a1.111,1.111,0,0,0,.193.747,1.037,1.037,0,0,0,.765.211,4.345,4.345,0,0,0,.738-.053V-.079a5.466,5.466,0,0,1-1.67.255,3.1,3.1,0,0,1-2.259-.721,2.954,2.954,0,0,1-.729-2.188v-4.72H22.535V-9.51h1.213v-2.364ZM34.04.176A4.889,4.889,0,0,1,30.5-1.129a4.507,4.507,0,0,1-1.354-3.4v-.246a5.84,5.84,0,0,1,.541-2.575,3.955,3.955,0,0,1,1.578-1.727,4.763,4.763,0,0,1,2.461-.611,4.117,4.117,0,0,1,3.164,1.244,4.887,4.887,0,0,1,1.16,3.467v1.151H32.159a2.135,2.135,0,0,0,.694,1.257,2.066,2.066,0,0,0,1.389.457,2.662,2.662,0,0,0,2.2-.984l1.354,1.6A3.784,3.784,0,0,1,36.224-.277,5.3,5.3,0,0,1,34.04.176ZM33.706-7.4q-1.3,0-1.547,1.723h2.988v-.229a1.467,1.467,0,0,0-.36-1.1A1.434,1.434,0,0,0,33.706-7.4ZM44.218-2.672a.684.684,0,0,0-.4-.606,6.016,6.016,0,0,0-1.5-.475A6.853,6.853,0,0,1,40.491-4.4a3.062,3.062,0,0,1-1.1-.971,2.319,2.319,0,0,1-.378-1.31A2.628,2.628,0,0,1,40.1-8.837a4.453,4.453,0,0,1,2.83-.848,4.934,4.934,0,0,1,3.023.853,2.666,2.666,0,0,1,1.143,2.241H44.121q0-1.143-1.2-1.143a1.194,1.194,0,0,0-.782.259.8.8,0,0,0-.316.646.737.737,0,0,0,.387.642,3.654,3.654,0,0,0,1.235.4,10.671,10.671,0,0,1,1.49.378A2.706,2.706,0,0,1,47.074-2.76,2.491,2.491,0,0,1,45.918-.642a5.068,5.068,0,0,1-2.993.817,5.172,5.172,0,0,1-2.18-.439,3.645,3.645,0,0,1-1.494-1.2,2.707,2.707,0,0,1-.536-1.591h2.769a1.145,1.145,0,0,0,.439.962,1.808,1.808,0,0,0,1.081.3,1.422,1.422,0,0,0,.91-.246A.787.787,0,0,0,44.218-2.672Z" transform="translate(303.312 18580.873)" fill="#fff"/>
    <path id="Rectángulo_18656" data-name="Rectángulo 18656" d="M14.962,0H185.6a14.962,14.962,0,0,1,14.962,14.962V46.877A14.962,14.962,0,0,1,185.6,61.839H14.962A14.962,14.962,0,0,1,0,46.877V14.962A14.962,14.962,0,0,1,14.962,0Z" transform="translate(205.444 18633.967)" fill="#be79ca"/>
    <path id="Fabricantes-4" data-name="Fabricantes" d="M-38.6-5.1h-4.975V0h-3.085V-12.8H-38.1v2.382h-5.476v2.944H-38.6ZM-31.9,0a3.344,3.344,0,0,1-.281-.853A2.754,2.754,0,0,1-34.462.176a3.374,3.374,0,0,1-2.285-.813,2.588,2.588,0,0,1-.94-2.043,2.66,2.66,0,0,1,1.143-2.338,5.821,5.821,0,0,1,3.322-.791h.914v-.5q0-1.316-1.134-1.316A.927.927,0,0,0-34.5-6.587h-2.962a2.655,2.655,0,0,1,1.173-2.239,4.931,4.931,0,0,1,2.993-.86,4.323,4.323,0,0,1,2.874.888,3.086,3.086,0,0,1,1.081,2.435v4.21a4.311,4.311,0,0,0,.4,2V0ZM-33.75-1.934a1.652,1.652,0,0,0,.918-.237,1.487,1.487,0,0,0,.523-.536V-4.228h-.861q-1.547,0-1.547,1.389a.848.848,0,0,0,.272.655A.986.986,0,0,0-33.75-1.934Zm14.88-2.742a5.8,5.8,0,0,1-.967,3.595A3.238,3.238,0,0,1-22.562.176,2.81,2.81,0,0,1-24.9-.976L-25.022,0h-2.654V-13.5h2.962v4.755a2.711,2.711,0,0,1,2.136-.94,3.239,3.239,0,0,1,2.742,1.274,5.826,5.826,0,0,1,.967,3.586Zm-2.971-.189a3.866,3.866,0,0,0-.365-1.952A1.229,1.229,0,0,0-23.326-7.4a1.418,1.418,0,0,0-1.389.763v3.773a1.426,1.426,0,0,0,1.406.755,1.258,1.258,0,0,0,1.327-1.018A7.309,7.309,0,0,0-21.841-4.865Zm10.028-1.964-.976-.07a1.752,1.752,0,0,0-1.793.879V0h-2.962V-9.51h2.777l.1,1.222a2.294,2.294,0,0,1,2.083-1.4,2.888,2.888,0,0,1,.826.105ZM-7.62,0h-2.971V-9.51H-7.62Zm-3.146-11.962A1.322,1.322,0,0,1-10.31-13a1.724,1.724,0,0,1,1.187-.4,1.724,1.724,0,0,1,1.187.4,1.322,1.322,0,0,1,.457,1.037,1.322,1.322,0,0,1-.457,1.037,1.724,1.724,0,0,1-1.187.4,1.724,1.724,0,0,1-1.187-.4A1.322,1.322,0,0,1-10.767-11.962Zm8.991,9.853a1.317,1.317,0,0,0,.967-.338,1.241,1.241,0,0,0,.334-.945H2.3A3.288,3.288,0,0,1,1.182-.826a4.168,4.168,0,0,1-2.887,1,4.22,4.22,0,0,1-3.27-1.3,5.125,5.125,0,0,1-1.2-3.6v-.123A5.792,5.792,0,0,1-5.638-7.4,3.872,3.872,0,0,1-4.1-9.092a4.573,4.573,0,0,1,2.373-.593A4.116,4.116,0,0,1,1.213-8.657,3.647,3.647,0,0,1,2.3-5.871H-.475A1.626,1.626,0,0,0-.835-7,1.244,1.244,0,0,0-1.8-7.4q-1.151,0-1.345,1.468a10.357,10.357,0,0,0-.062,1.283,4.068,4.068,0,0,0,.343,1.986A1.187,1.187,0,0,0-1.775-2.109ZM8.912,0a3.344,3.344,0,0,1-.281-.853A2.754,2.754,0,0,1,6.346.176,3.374,3.374,0,0,1,4.061-.637a2.588,2.588,0,0,1-.94-2.043A2.66,2.66,0,0,1,4.263-5.019,5.821,5.821,0,0,1,7.585-5.81H8.5v-.5q0-1.316-1.134-1.316A.927.927,0,0,0,6.311-6.587H3.349A2.655,2.655,0,0,1,4.522-8.825a4.931,4.931,0,0,1,2.993-.86,4.323,4.323,0,0,1,2.874.888A3.086,3.086,0,0,1,11.47-6.363v4.21a4.311,4.311,0,0,0,.4,2V0ZM7.058-1.934a1.652,1.652,0,0,0,.918-.237A1.487,1.487,0,0,0,8.5-2.707V-4.228H7.638q-1.547,0-1.547,1.389a.848.848,0,0,0,.272.655A.986.986,0,0,0,7.058-1.934ZM15.829-9.51l.1,1.116a3.225,3.225,0,0,1,2.716-1.292,2.713,2.713,0,0,1,2.219.888,4.226,4.226,0,0,1,.76,2.672V0H18.65V-6a1.6,1.6,0,0,0-.29-1.059A1.342,1.342,0,0,0,17.306-7.4a1.413,1.413,0,0,0-1.292.686V0H13.052V-9.51ZM26.71-11.874V-9.51h1.564v2.057H26.71V-3.1a1.111,1.111,0,0,0,.193.747,1.037,1.037,0,0,0,.765.211,4.345,4.345,0,0,0,.738-.053V-.079a5.466,5.466,0,0,1-1.67.255,3.1,3.1,0,0,1-2.259-.721,2.954,2.954,0,0,1-.729-2.188v-4.72H22.535V-9.51h1.213v-2.364ZM34.04.176A4.889,4.889,0,0,1,30.5-1.129a4.507,4.507,0,0,1-1.354-3.4v-.246a5.84,5.84,0,0,1,.541-2.575,3.955,3.955,0,0,1,1.578-1.727,4.763,4.763,0,0,1,2.461-.611,4.117,4.117,0,0,1,3.164,1.244,4.887,4.887,0,0,1,1.16,3.467v1.151H32.159a2.135,2.135,0,0,0,.694,1.257,2.066,2.066,0,0,0,1.389.457,2.662,2.662,0,0,0,2.2-.984l1.354,1.6A3.784,3.784,0,0,1,36.224-.277,5.3,5.3,0,0,1,34.04.176ZM33.706-7.4q-1.3,0-1.547,1.723h2.988v-.229a1.467,1.467,0,0,0-.36-1.1A1.434,1.434,0,0,0,33.706-7.4ZM44.218-2.672a.684.684,0,0,0-.4-.606,6.016,6.016,0,0,0-1.5-.475A6.853,6.853,0,0,1,40.491-4.4a3.062,3.062,0,0,1-1.1-.971,2.319,2.319,0,0,1-.378-1.31A2.628,2.628,0,0,1,40.1-8.837a4.453,4.453,0,0,1,2.83-.848,4.934,4.934,0,0,1,3.023.853,2.666,2.666,0,0,1,1.143,2.241H44.121q0-1.143-1.2-1.143a1.194,1.194,0,0,0-.782.259.8.8,0,0,0-.316.646.737.737,0,0,0,.387.642,3.654,3.654,0,0,0,1.235.4,10.671,10.671,0,0,1,1.49.378A2.706,2.706,0,0,1,47.074-2.76,2.491,2.491,0,0,1,45.918-.642a5.068,5.068,0,0,1-2.993.817,5.172,5.172,0,0,1-2.18-.439,3.645,3.645,0,0,1-1.494-1.2,2.707,2.707,0,0,1-.536-1.591h2.769a1.145,1.145,0,0,0,.439.962,1.808,1.808,0,0,0,1.081.3,1.422,1.422,0,0,0,.91-.246A.787.787,0,0,0,44.218-2.672Z" transform="translate(303.312 18670.611)" fill="#fff"/>
    <path id="Rectángulo_18657" data-name="Rectángulo 18657" d="M14.962,0H185.6a14.962,14.962,0,0,1,14.962,14.962V46.877A14.962,14.962,0,0,1,185.6,61.839H14.962A14.962,14.962,0,0,1,0,46.877V14.962A14.962,14.962,0,0,1,14.962,0Z" transform="translate(205.444 18729.709)" fill="#be79ca"/>
    <path id="Fabricantes-5" data-name="Fabricantes" d="M-38.6-5.1h-4.975V0h-3.085V-12.8H-38.1v2.382h-5.476v2.944H-38.6ZM-31.9,0a3.344,3.344,0,0,1-.281-.853A2.754,2.754,0,0,1-34.462.176a3.374,3.374,0,0,1-2.285-.813,2.588,2.588,0,0,1-.94-2.043,2.66,2.66,0,0,1,1.143-2.338,5.821,5.821,0,0,1,3.322-.791h.914v-.5q0-1.316-1.134-1.316A.927.927,0,0,0-34.5-6.587h-2.962a2.655,2.655,0,0,1,1.173-2.239,4.931,4.931,0,0,1,2.993-.86,4.323,4.323,0,0,1,2.874.888,3.086,3.086,0,0,1,1.081,2.435v4.21a4.311,4.311,0,0,0,.4,2V0ZM-33.75-1.934a1.652,1.652,0,0,0,.918-.237,1.487,1.487,0,0,0,.523-.536V-4.228h-.861q-1.547,0-1.547,1.389a.848.848,0,0,0,.272.655A.986.986,0,0,0-33.75-1.934Zm14.88-2.742a5.8,5.8,0,0,1-.967,3.595A3.238,3.238,0,0,1-22.562.176,2.81,2.81,0,0,1-24.9-.976L-25.022,0h-2.654V-13.5h2.962v4.755a2.711,2.711,0,0,1,2.136-.94,3.239,3.239,0,0,1,2.742,1.274,5.826,5.826,0,0,1,.967,3.586Zm-2.971-.189a3.866,3.866,0,0,0-.365-1.952A1.229,1.229,0,0,0-23.326-7.4a1.418,1.418,0,0,0-1.389.763v3.773a1.426,1.426,0,0,0,1.406.755,1.258,1.258,0,0,0,1.327-1.018A7.309,7.309,0,0,0-21.841-4.865Zm10.028-1.964-.976-.07a1.752,1.752,0,0,0-1.793.879V0h-2.962V-9.51h2.777l.1,1.222a2.294,2.294,0,0,1,2.083-1.4,2.888,2.888,0,0,1,.826.105ZM-7.62,0h-2.971V-9.51H-7.62Zm-3.146-11.962A1.322,1.322,0,0,1-10.31-13a1.724,1.724,0,0,1,1.187-.4,1.724,1.724,0,0,1,1.187.4,1.322,1.322,0,0,1,.457,1.037,1.322,1.322,0,0,1-.457,1.037,1.724,1.724,0,0,1-1.187.4,1.724,1.724,0,0,1-1.187-.4A1.322,1.322,0,0,1-10.767-11.962Zm8.991,9.853a1.317,1.317,0,0,0,.967-.338,1.241,1.241,0,0,0,.334-.945H2.3A3.288,3.288,0,0,1,1.182-.826a4.168,4.168,0,0,1-2.887,1,4.22,4.22,0,0,1-3.27-1.3,5.125,5.125,0,0,1-1.2-3.6v-.123A5.792,5.792,0,0,1-5.638-7.4,3.872,3.872,0,0,1-4.1-9.092a4.573,4.573,0,0,1,2.373-.593A4.116,4.116,0,0,1,1.213-8.657,3.647,3.647,0,0,1,2.3-5.871H-.475A1.626,1.626,0,0,0-.835-7,1.244,1.244,0,0,0-1.8-7.4q-1.151,0-1.345,1.468a10.357,10.357,0,0,0-.062,1.283,4.068,4.068,0,0,0,.343,1.986A1.187,1.187,0,0,0-1.775-2.109ZM8.912,0a3.344,3.344,0,0,1-.281-.853A2.754,2.754,0,0,1,6.346.176,3.374,3.374,0,0,1,4.061-.637a2.588,2.588,0,0,1-.94-2.043A2.66,2.66,0,0,1,4.263-5.019,5.821,5.821,0,0,1,7.585-5.81H8.5v-.5q0-1.316-1.134-1.316A.927.927,0,0,0,6.311-6.587H3.349A2.655,2.655,0,0,1,4.522-8.825a4.931,4.931,0,0,1,2.993-.86,4.323,4.323,0,0,1,2.874.888A3.086,3.086,0,0,1,11.47-6.363v4.21a4.311,4.311,0,0,0,.4,2V0ZM7.058-1.934a1.652,1.652,0,0,0,.918-.237A1.487,1.487,0,0,0,8.5-2.707V-4.228H7.638q-1.547,0-1.547,1.389a.848.848,0,0,0,.272.655A.986.986,0,0,0,7.058-1.934ZM15.829-9.51l.1,1.116a3.225,3.225,0,0,1,2.716-1.292,2.713,2.713,0,0,1,2.219.888,4.226,4.226,0,0,1,.76,2.672V0H18.65V-6a1.6,1.6,0,0,0-.29-1.059A1.342,1.342,0,0,0,17.306-7.4a1.413,1.413,0,0,0-1.292.686V0H13.052V-9.51ZM26.71-11.874V-9.51h1.564v2.057H26.71V-3.1a1.111,1.111,0,0,0,.193.747,1.037,1.037,0,0,0,.765.211,4.345,4.345,0,0,0,.738-.053V-.079a5.466,5.466,0,0,1-1.67.255,3.1,3.1,0,0,1-2.259-.721,2.954,2.954,0,0,1-.729-2.188v-4.72H22.535V-9.51h1.213v-2.364ZM34.04.176A4.889,4.889,0,0,1,30.5-1.129a4.507,4.507,0,0,1-1.354-3.4v-.246a5.84,5.84,0,0,1,.541-2.575,3.955,3.955,0,0,1,1.578-1.727,4.763,4.763,0,0,1,2.461-.611,4.117,4.117,0,0,1,3.164,1.244,4.887,4.887,0,0,1,1.16,3.467v1.151H32.159a2.135,2.135,0,0,0,.694,1.257,2.066,2.066,0,0,0,1.389.457,2.662,2.662,0,0,0,2.2-.984l1.354,1.6A3.784,3.784,0,0,1,36.224-.277,5.3,5.3,0,0,1,34.04.176ZM33.706-7.4q-1.3,0-1.547,1.723h2.988v-.229a1.467,1.467,0,0,0-.36-1.1A1.434,1.434,0,0,0,33.706-7.4ZM44.218-2.672a.684.684,0,0,0-.4-.606,6.016,6.016,0,0,0-1.5-.475A6.853,6.853,0,0,1,40.491-4.4a3.062,3.062,0,0,1-1.1-.971,2.319,2.319,0,0,1-.378-1.31A2.628,2.628,0,0,1,40.1-8.837a4.453,4.453,0,0,1,2.83-.848,4.934,4.934,0,0,1,3.023.853,2.666,2.666,0,0,1,1.143,2.241H44.121q0-1.143-1.2-1.143a1.194,1.194,0,0,0-.782.259.8.8,0,0,0-.316.646.737.737,0,0,0,.387.642,3.654,3.654,0,0,0,1.235.4,10.671,10.671,0,0,1,1.49.378A2.706,2.706,0,0,1,47.074-2.76,2.491,2.491,0,0,1,45.918-.642a5.068,5.068,0,0,1-2.993.817,5.172,5.172,0,0,1-2.18-.439,3.645,3.645,0,0,1-1.494-1.2,2.707,2.707,0,0,1-.536-1.591h2.769a1.145,1.145,0,0,0,.439.962,1.808,1.808,0,0,0,1.081.3,1.422,1.422,0,0,0,.91-.246A.787.787,0,0,0,44.218-2.672Z" transform="translate(303.312 18766.357)" fill="#fff"/>
    <path id="Línea_256" data-name="Línea 256" d="M78.948,1H0V-1H78.948Z" transform="translate(626.552 18667.889)" fill="#6e3dc6"/>
    <path id="Línea_257" data-name="Línea 257" d="M78.948,1H0V-1H78.948Z" transform="translate(626.552 18757.627)" fill="#6e3dc6"/>
    <path id="Línea_258" data-name="Línea 258" d="M60.546,1H0V-1H60.546Z" transform="translate(855.467 18667.889)" fill="#6e3dc6"/>
    <path id="Línea_259" data-name="Línea 259" d="M60.546,1H0V-1H60.546Z" transform="translate(855.467 18578.146)" fill="#6e3dc6"/>
    <path id="Línea_260" data-name="Línea 260" d="M60.546,1H0V-1H60.546Z" transform="translate(855.467 18757.627)" fill="#6e3dc6"/>
    <path id="Línea_261" data-name="Línea 261" d="M60.546,1H0V-1H60.546Z" transform="translate(1017.74 18667.889)" fill="#6e3dc6"/>
    <path id="Línea_262" data-name="Línea 262" d="M60.546,1H0V-1H60.546Z" transform="translate(1017.74 18578.146)" fill="#6e3dc6"/>
    <path id="Línea_263" data-name="Línea 263" d="M60.546,1H0V-1H60.546Z" transform="translate(1017.74 18485.408)" fill="#6e3dc6"/>
    <path id="Línea_264" data-name="Línea 264" d="M60.546,1H0V-1H60.546Z" transform="translate(1017.74 18757.627)" fill="#6e3dc6"/>
    <path id="Rectángulo_18658" data-name="Rectángulo 18658" d="M14.962,0H157.045a14.962,14.962,0,0,1,14.962,14.962V46.877a14.962,14.962,0,0,1-14.962,14.962H14.962A14.962,14.962,0,0,1,0,46.877V14.962A14.962,14.962,0,0,1,14.962,0Z" transform="translate(696.1 18729.709)" fill="#f9ce24"/>
    <path id="Mayorista_de_destino" data-name="Mayorista de destino" d="M-50.036-12.8l2.856,8.9,2.848-8.9h4.061V0h-3.094V-2.988l.3-6.117L-46.16,0H-48.2l-3.1-9.114.3,6.126V0h-3.085V-12.8ZM-33.091,0a3.344,3.344,0,0,1-.281-.853A2.754,2.754,0,0,1-35.657.176a3.374,3.374,0,0,1-2.285-.813,2.588,2.588,0,0,1-.94-2.043A2.66,2.66,0,0,1-37.74-5.019a5.821,5.821,0,0,1,3.322-.791h.914v-.5q0-1.316-1.134-1.316a.927.927,0,0,0-1.055,1.042h-2.962a2.655,2.655,0,0,1,1.173-2.239,4.931,4.931,0,0,1,2.993-.86,4.323,4.323,0,0,1,2.874.888,3.086,3.086,0,0,1,1.081,2.435v4.21a4.311,4.311,0,0,0,.4,2V0Zm-1.854-1.934a1.652,1.652,0,0,0,.918-.237,1.487,1.487,0,0,0,.523-.536V-4.228h-.861q-1.547,0-1.547,1.389a.848.848,0,0,0,.272.655A.986.986,0,0,0-34.945-1.934Zm9.721-2.215,1.582-5.361h3.173l-3.876,11.1-.167.4a2.944,2.944,0,0,1-2.918,1.846,4.642,4.642,0,0,1-1.222-.175V1.556h.387a2.026,2.026,0,0,0,.954-.18,1.094,1.094,0,0,0,.488-.647L-26.587.1l-3.3-9.605h3.164Zm5.019-.694a5.613,5.613,0,0,1,.554-2.536,3.96,3.96,0,0,1,1.591-1.709,4.791,4.791,0,0,1,2.435-.6,4.373,4.373,0,0,1,3.366,1.323,5.076,5.076,0,0,1,1.23,3.6v.105a4.925,4.925,0,0,1-1.235,3.529A4.384,4.384,0,0,1-15.609.176,4.434,4.434,0,0,1-18.87-1.042a4.761,4.761,0,0,1-1.327-3.3Zm2.962.185a3.538,3.538,0,0,0,.413,1.934,1.376,1.376,0,0,0,1.222.615q1.582,0,1.617-2.435v-.3q0-2.558-1.635-2.558-1.485,0-1.608,2.206ZM-3.973-6.829l-.976-.07a1.752,1.752,0,0,0-1.793.879V0H-9.7V-9.51h2.777l.1,1.222a2.294,2.294,0,0,1,2.083-1.4,2.888,2.888,0,0,1,.826.105ZM.22,0H-2.751V-9.51H.22ZM-2.927-11.962A1.322,1.322,0,0,1-2.47-13a1.724,1.724,0,0,1,1.187-.4A1.724,1.724,0,0,1-.1-13,1.322,1.322,0,0,1,.36-11.962,1.322,1.322,0,0,1-.1-10.925a1.724,1.724,0,0,1-1.187.4,1.724,1.724,0,0,1-1.187-.4A1.322,1.322,0,0,1-2.927-11.962Zm9.949,9.29a.684.684,0,0,0-.4-.606,6.016,6.016,0,0,0-1.5-.475A6.853,6.853,0,0,1,3.3-4.4,3.062,3.062,0,0,1,2.2-5.37a2.319,2.319,0,0,1-.378-1.31A2.628,2.628,0,0,1,2.9-8.837a4.453,4.453,0,0,1,2.83-.848,4.934,4.934,0,0,1,3.023.853A2.666,2.666,0,0,1,9.9-6.592H6.926q0-1.143-1.2-1.143a1.194,1.194,0,0,0-.782.259.8.8,0,0,0-.316.646.737.737,0,0,0,.387.642,3.654,3.654,0,0,0,1.235.4,10.671,10.671,0,0,1,1.49.378A2.706,2.706,0,0,1,9.879-2.76,2.491,2.491,0,0,1,8.723-.642,5.068,5.068,0,0,1,5.73.176a5.172,5.172,0,0,1-2.18-.439,3.645,3.645,0,0,1-1.494-1.2A2.707,2.707,0,0,1,1.521-3.05H4.289a1.145,1.145,0,0,0,.439.962,1.808,1.808,0,0,0,1.081.3,1.422,1.422,0,0,0,.91-.246A.787.787,0,0,0,7.022-2.672Zm7.69-9.2V-9.51h1.564v2.057H14.713V-3.1a1.111,1.111,0,0,0,.193.747,1.037,1.037,0,0,0,.765.211,4.345,4.345,0,0,0,.738-.053V-.079a5.466,5.466,0,0,1-1.67.255A3.1,3.1,0,0,1,12.48-.545a2.954,2.954,0,0,1-.729-2.188v-4.72H10.538V-9.51h1.213v-2.364ZM22.8,0a3.344,3.344,0,0,1-.281-.853A2.754,2.754,0,0,1,20.232.176a3.374,3.374,0,0,1-2.285-.813,2.588,2.588,0,0,1-.94-2.043,2.66,2.66,0,0,1,1.143-2.338,5.821,5.821,0,0,1,3.322-.791h.914v-.5q0-1.316-1.134-1.316A.927.927,0,0,0,20.2-6.587H17.235a2.655,2.655,0,0,1,1.173-2.239,4.931,4.931,0,0,1,2.993-.86,4.323,4.323,0,0,1,2.874.888,3.086,3.086,0,0,1,1.081,2.435v4.21a4.311,4.311,0,0,0,.4,2V0ZM20.944-1.934a1.652,1.652,0,0,0,.918-.237,1.487,1.487,0,0,0,.523-.536V-4.228h-.861q-1.547,0-1.547,1.389a.848.848,0,0,0,.272.655A.986.986,0,0,0,20.944-1.934ZM31.1-4.825a5.809,5.809,0,0,1,.976-3.56,3.211,3.211,0,0,1,2.725-1.3,2.731,2.731,0,0,1,2.145,1V-13.5H39.92V0H37.257l-.149-1.02a2.8,2.8,0,0,1-2.32,1.2,3.205,3.205,0,0,1-2.689-1.3A5.993,5.993,0,0,1,31.1-4.825Zm2.962.185q0,2.531,1.477,2.531a1.458,1.458,0,0,0,1.406-.826V-6.557A1.419,1.419,0,0,0,35.561-7.4q-1.371,0-1.485,2.215ZM46.2.176a4.889,4.889,0,0,1-3.542-1.305,4.507,4.507,0,0,1-1.354-3.4v-.246a5.84,5.84,0,0,1,.541-2.575,3.955,3.955,0,0,1,1.578-1.727,4.763,4.763,0,0,1,2.461-.611,4.117,4.117,0,0,1,3.164,1.244,4.887,4.887,0,0,1,1.16,3.467v1.151H44.323a2.135,2.135,0,0,0,.694,1.257,2.066,2.066,0,0,0,1.389.457,2.662,2.662,0,0,0,2.2-.984l1.354,1.6A3.784,3.784,0,0,1,48.388-.277,5.3,5.3,0,0,1,46.2.176ZM45.87-7.4q-1.3,0-1.547,1.723h2.988v-.229a1.467,1.467,0,0,0-.36-1.1A1.434,1.434,0,0,0,45.87-7.4ZM-29.808,15.175a5.809,5.809,0,0,1,.976-3.56,3.211,3.211,0,0,1,2.725-1.3,2.731,2.731,0,0,1,2.145,1V6.5h2.971V20h-2.663l-.149-1.02a2.8,2.8,0,0,1-2.32,1.2,3.205,3.205,0,0,1-2.689-1.3A5.993,5.993,0,0,1-29.808,15.175Zm2.962.185q0,2.531,1.477,2.531a1.458,1.458,0,0,0,1.406-.826V13.443a1.419,1.419,0,0,0-1.389-.844q-1.371,0-1.485,2.215Zm12.138,4.816a4.889,4.889,0,0,1-3.542-1.305,4.507,4.507,0,0,1-1.354-3.4v-.246a5.84,5.84,0,0,1,.541-2.575,3.955,3.955,0,0,1,1.578-1.727,4.763,4.763,0,0,1,2.461-.611,4.117,4.117,0,0,1,3.164,1.244,4.887,4.887,0,0,1,1.16,3.467v1.151h-5.889a2.135,2.135,0,0,0,.694,1.257,2.066,2.066,0,0,0,1.389.457,2.662,2.662,0,0,0,2.2-.984l1.354,1.6a3.784,3.784,0,0,1-1.569,1.217A5.3,5.3,0,0,1-14.708,20.176Zm-.334-7.576q-1.3,0-1.547,1.723H-13.6v-.229a1.467,1.467,0,0,0-.36-1.1A1.434,1.434,0,0,0-15.042,12.6Zm10.512,4.729a.684.684,0,0,0-.4-.606,6.016,6.016,0,0,0-1.5-.475A6.853,6.853,0,0,1-8.257,15.6a3.062,3.062,0,0,1-1.1-.971,2.319,2.319,0,0,1-.378-1.31,2.628,2.628,0,0,1,1.081-2.158,4.453,4.453,0,0,1,2.83-.848,4.934,4.934,0,0,1,3.023.853,2.666,2.666,0,0,1,1.143,2.241H-4.627q0-1.143-1.2-1.143a1.194,1.194,0,0,0-.782.259.8.8,0,0,0-.316.646.737.737,0,0,0,.387.642,3.654,3.654,0,0,0,1.235.4,10.671,10.671,0,0,1,1.49.378A2.706,2.706,0,0,1-1.674,17.24,2.491,2.491,0,0,1-2.83,19.358a5.068,5.068,0,0,1-2.993.817A5.172,5.172,0,0,1-8,19.736a3.645,3.645,0,0,1-1.494-1.2,2.707,2.707,0,0,1-.536-1.591h2.769a1.145,1.145,0,0,0,.439.962,1.808,1.808,0,0,0,1.081.3,1.422,1.422,0,0,0,.91-.246A.787.787,0,0,0-4.531,17.328Zm7.69-9.2V10.49H4.724v2.057H3.16V16.9a1.111,1.111,0,0,0,.193.747,1.037,1.037,0,0,0,.765.211,4.345,4.345,0,0,0,.738-.053v2.118a5.466,5.466,0,0,1-1.67.255,3.1,3.1,0,0,1-2.259-.721A2.954,2.954,0,0,1,.2,17.267v-4.72H-1.015V10.49H.2V8.126ZM9.013,20H6.042V10.49H9.013ZM5.867,8.038A1.322,1.322,0,0,1,6.324,7,1.724,1.724,0,0,1,7.51,6.6,1.724,1.724,0,0,1,8.7,7a1.405,1.405,0,0,1,0,2.074,1.724,1.724,0,0,1-1.187.4,1.724,1.724,0,0,1-1.187-.4A1.322,1.322,0,0,1,5.867,8.038Zm7.69,2.452.1,1.116a3.225,3.225,0,0,1,2.716-1.292,2.713,2.713,0,0,1,2.219.888,4.226,4.226,0,0,1,.76,2.672V20H16.378V14a1.6,1.6,0,0,0-.29-1.059,1.342,1.342,0,0,0-1.055-.338,1.413,1.413,0,0,0-1.292.686V20H10.78V10.49Zm7.058,4.667a5.613,5.613,0,0,1,.554-2.536,3.96,3.96,0,0,1,1.591-1.709,4.791,4.791,0,0,1,2.435-.6,4.373,4.373,0,0,1,3.366,1.323,5.076,5.076,0,0,1,1.23,3.6v.105a4.925,4.925,0,0,1-1.235,3.529,4.384,4.384,0,0,1-3.344,1.305,4.434,4.434,0,0,1-3.261-1.217,4.761,4.761,0,0,1-1.327-3.3Zm2.962.185a3.538,3.538,0,0,0,.413,1.934,1.376,1.376,0,0,0,1.222.615q1.582,0,1.617-2.435v-.3q0-2.558-1.635-2.558-1.485,0-1.608,2.206Z" transform="translate(786.69 18756.377)" fill="#12263f"/>
    <path id="Rectángulo_18659" data-name="Rectángulo 18659" d="M14.962,0H117.038A14.962,14.962,0,0,1,132,14.962V46.877a14.962,14.962,0,0,1-14.962,14.962H14.962A14.962,14.962,0,0,1,0,46.877V14.962A14.962,14.962,0,0,1,14.962,0Z" transform="translate(916.013 18729.709)" fill="#fae9b5"/>
    <path id="Minorista" d="M-33.833-12.8l2.856,8.9,2.848-8.9h4.061V0h-3.094V-2.988l.3-6.117L-29.958,0H-32l-3.1-9.114.3,6.126V0h-3.085V-12.8ZM-19.121,0h-2.971V-9.51h2.971Zm-3.146-11.962A1.322,1.322,0,0,1-21.81-13a1.724,1.724,0,0,1,1.187-.4,1.724,1.724,0,0,1,1.187.4,1.322,1.322,0,0,1,.457,1.037,1.322,1.322,0,0,1-.457,1.037,1.724,1.724,0,0,1-1.187.4,1.724,1.724,0,0,1-1.187-.4A1.322,1.322,0,0,1-22.267-11.962Zm7.69,2.452.1,1.116a3.225,3.225,0,0,1,2.716-1.292A2.713,2.713,0,0,1-9.545-8.8a4.226,4.226,0,0,1,.76,2.672V0h-2.971V-6a1.6,1.6,0,0,0-.29-1.059A1.342,1.342,0,0,0-13.1-7.4a1.413,1.413,0,0,0-1.292.686V0h-2.962V-9.51Zm7.058,4.667a5.613,5.613,0,0,1,.554-2.536A3.96,3.96,0,0,1-5.375-9.088a4.791,4.791,0,0,1,2.435-.6A4.373,4.373,0,0,1,.426-8.363a5.076,5.076,0,0,1,1.23,3.6v.105A4.925,4.925,0,0,1,.422-1.129,4.384,4.384,0,0,1-2.922.176,4.434,4.434,0,0,1-6.183-1.042a4.761,4.761,0,0,1-1.327-3.3Zm2.962.185a3.538,3.538,0,0,0,.413,1.934,1.376,1.376,0,0,0,1.222.615q1.582,0,1.617-2.435v-.3Q-1.305-7.4-2.94-7.4q-1.485,0-1.608,2.206ZM8.714-6.829,7.739-6.9a1.752,1.752,0,0,0-1.793.879V0H2.984V-9.51H5.761l.1,1.222a2.294,2.294,0,0,1,2.083-1.4,2.888,2.888,0,0,1,.826.105ZM12.907,0H9.936V-9.51h2.971ZM9.76-11.962A1.322,1.322,0,0,1,10.217-13a1.724,1.724,0,0,1,1.187-.4,1.724,1.724,0,0,1,1.187.4,1.322,1.322,0,0,1,.457,1.037,1.322,1.322,0,0,1-.457,1.037,1.724,1.724,0,0,1-1.187.4,1.724,1.724,0,0,1-1.187-.4A1.322,1.322,0,0,1,9.76-11.962Zm9.949,9.29a.684.684,0,0,0-.4-.606,6.016,6.016,0,0,0-1.5-.475A6.853,6.853,0,0,1,15.983-4.4a3.062,3.062,0,0,1-1.1-.971,2.319,2.319,0,0,1-.378-1.31,2.628,2.628,0,0,1,1.081-2.158,4.453,4.453,0,0,1,2.83-.848,4.934,4.934,0,0,1,3.023.853,2.666,2.666,0,0,1,1.143,2.241H19.613q0-1.143-1.2-1.143a1.194,1.194,0,0,0-.782.259.8.8,0,0,0-.316.646.737.737,0,0,0,.387.642,3.654,3.654,0,0,0,1.235.4,10.671,10.671,0,0,1,1.49.378A2.706,2.706,0,0,1,22.566-2.76,2.491,2.491,0,0,1,21.41-.642a5.068,5.068,0,0,1-2.993.817,5.172,5.172,0,0,1-2.18-.439,3.645,3.645,0,0,1-1.494-1.2,2.707,2.707,0,0,1-.536-1.591h2.769a1.145,1.145,0,0,0,.439.962,1.808,1.808,0,0,0,1.081.3,1.422,1.422,0,0,0,.91-.246A.787.787,0,0,0,19.709-2.672Zm7.69-9.2V-9.51h1.564v2.057H27.4V-3.1a1.111,1.111,0,0,0,.193.747,1.037,1.037,0,0,0,.765.211A4.345,4.345,0,0,0,29.1-2.2V-.079a5.466,5.466,0,0,1-1.67.255,3.1,3.1,0,0,1-2.259-.721,2.954,2.954,0,0,1-.729-2.188v-4.72H23.225V-9.51h1.213v-2.364ZM35.486,0A3.344,3.344,0,0,1,35.2-.853,2.754,2.754,0,0,1,32.919.176a3.374,3.374,0,0,1-2.285-.813,2.588,2.588,0,0,1-.94-2.043,2.66,2.66,0,0,1,1.143-2.338,5.821,5.821,0,0,1,3.322-.791h.914v-.5q0-1.316-1.134-1.316a.927.927,0,0,0-1.055,1.042H29.922A2.655,2.655,0,0,1,31.1-8.825a4.931,4.931,0,0,1,2.993-.86,4.323,4.323,0,0,1,2.874.888,3.086,3.086,0,0,1,1.081,2.435v4.21a4.311,4.311,0,0,0,.4,2V0ZM33.631-1.934a1.652,1.652,0,0,0,.918-.237,1.487,1.487,0,0,0,.523-.536V-4.228h-.861q-1.547,0-1.547,1.389a.848.848,0,0,0,.272.655A.986.986,0,0,0,33.631-1.934Z" transform="translate(982.891 18766.334)" fill="#12263f"/>
    <path id="Rectángulo_18660" data-name="Rectángulo 18660" d="M14.962,0H117.038A14.962,14.962,0,0,1,132,14.962V46.877a14.962,14.962,0,0,1-14.962,14.962H14.962A14.962,14.962,0,0,1,0,46.877V14.962A14.962,14.962,0,0,1,14.962,0Z" transform="translate(916.013 18636.967)" fill="#fae9b5"/>
    <path id="Minorista-2" data-name="Minorista" d="M-33.833-12.8l2.856,8.9,2.848-8.9h4.061V0h-3.094V-2.988l.3-6.117L-29.958,0H-32l-3.1-9.114.3,6.126V0h-3.085V-12.8ZM-19.121,0h-2.971V-9.51h2.971Zm-3.146-11.962A1.322,1.322,0,0,1-21.81-13a1.724,1.724,0,0,1,1.187-.4,1.724,1.724,0,0,1,1.187.4,1.322,1.322,0,0,1,.457,1.037,1.322,1.322,0,0,1-.457,1.037,1.724,1.724,0,0,1-1.187.4,1.724,1.724,0,0,1-1.187-.4A1.322,1.322,0,0,1-22.267-11.962Zm7.69,2.452.1,1.116a3.225,3.225,0,0,1,2.716-1.292A2.713,2.713,0,0,1-9.545-8.8a4.226,4.226,0,0,1,.76,2.672V0h-2.971V-6a1.6,1.6,0,0,0-.29-1.059A1.342,1.342,0,0,0-13.1-7.4a1.413,1.413,0,0,0-1.292.686V0h-2.962V-9.51Zm7.058,4.667a5.613,5.613,0,0,1,.554-2.536A3.96,3.96,0,0,1-5.375-9.088a4.791,4.791,0,0,1,2.435-.6A4.373,4.373,0,0,1,.426-8.363a5.076,5.076,0,0,1,1.23,3.6v.105A4.925,4.925,0,0,1,.422-1.129,4.384,4.384,0,0,1-2.922.176,4.434,4.434,0,0,1-6.183-1.042a4.761,4.761,0,0,1-1.327-3.3Zm2.962.185a3.538,3.538,0,0,0,.413,1.934,1.376,1.376,0,0,0,1.222.615q1.582,0,1.617-2.435v-.3Q-1.305-7.4-2.94-7.4q-1.485,0-1.608,2.206ZM8.714-6.829,7.739-6.9a1.752,1.752,0,0,0-1.793.879V0H2.984V-9.51H5.761l.1,1.222a2.294,2.294,0,0,1,2.083-1.4,2.888,2.888,0,0,1,.826.105ZM12.907,0H9.936V-9.51h2.971ZM9.76-11.962A1.322,1.322,0,0,1,10.217-13a1.724,1.724,0,0,1,1.187-.4,1.724,1.724,0,0,1,1.187.4,1.322,1.322,0,0,1,.457,1.037,1.322,1.322,0,0,1-.457,1.037,1.724,1.724,0,0,1-1.187.4,1.724,1.724,0,0,1-1.187-.4A1.322,1.322,0,0,1,9.76-11.962Zm9.949,9.29a.684.684,0,0,0-.4-.606,6.016,6.016,0,0,0-1.5-.475A6.853,6.853,0,0,1,15.983-4.4a3.062,3.062,0,0,1-1.1-.971,2.319,2.319,0,0,1-.378-1.31,2.628,2.628,0,0,1,1.081-2.158,4.453,4.453,0,0,1,2.83-.848,4.934,4.934,0,0,1,3.023.853,2.666,2.666,0,0,1,1.143,2.241H19.613q0-1.143-1.2-1.143a1.194,1.194,0,0,0-.782.259.8.8,0,0,0-.316.646.737.737,0,0,0,.387.642,3.654,3.654,0,0,0,1.235.4,10.671,10.671,0,0,1,1.49.378A2.706,2.706,0,0,1,22.566-2.76,2.491,2.491,0,0,1,21.41-.642a5.068,5.068,0,0,1-2.993.817,5.172,5.172,0,0,1-2.18-.439,3.645,3.645,0,0,1-1.494-1.2,2.707,2.707,0,0,1-.536-1.591h2.769a1.145,1.145,0,0,0,.439.962,1.808,1.808,0,0,0,1.081.3,1.422,1.422,0,0,0,.91-.246A.787.787,0,0,0,19.709-2.672Zm7.69-9.2V-9.51h1.564v2.057H27.4V-3.1a1.111,1.111,0,0,0,.193.747,1.037,1.037,0,0,0,.765.211A4.345,4.345,0,0,0,29.1-2.2V-.079a5.466,5.466,0,0,1-1.67.255,3.1,3.1,0,0,1-2.259-.721,2.954,2.954,0,0,1-.729-2.188v-4.72H23.225V-9.51h1.213v-2.364ZM35.486,0A3.344,3.344,0,0,1,35.2-.853,2.754,2.754,0,0,1,32.919.176a3.374,3.374,0,0,1-2.285-.813,2.588,2.588,0,0,1-.94-2.043,2.66,2.66,0,0,1,1.143-2.338,5.821,5.821,0,0,1,3.322-.791h.914v-.5q0-1.316-1.134-1.316a.927.927,0,0,0-1.055,1.042H29.922A2.655,2.655,0,0,1,31.1-8.825a4.931,4.931,0,0,1,2.993-.86,4.323,4.323,0,0,1,2.874.888,3.086,3.086,0,0,1,1.081,2.435v4.21a4.311,4.311,0,0,0,.4,2V0ZM33.631-1.934a1.652,1.652,0,0,0,.918-.237,1.487,1.487,0,0,0,.523-.536V-4.228h-.861q-1.547,0-1.547,1.389a.848.848,0,0,0,.272.655A.986.986,0,0,0,33.631-1.934Z" transform="translate(982.891 18673.592)" fill="#12263f"/>
    <path id="Rectángulo_18661" data-name="Rectángulo 18661" d="M14.962,0H117.038A14.962,14.962,0,0,1,132,14.962V46.877a14.962,14.962,0,0,1-14.962,14.962H14.962A14.962,14.962,0,0,1,0,46.877V14.962A14.962,14.962,0,0,1,14.962,0Z" transform="translate(916.013 18544.225)" fill="#fae9b5"/>
    <path id="Minorista-3" data-name="Minorista" d="M-33.833-12.8l2.856,8.9,2.848-8.9h4.061V0h-3.094V-2.988l.3-6.117L-29.958,0H-32l-3.1-9.114.3,6.126V0h-3.085V-12.8ZM-19.121,0h-2.971V-9.51h2.971Zm-3.146-11.962A1.322,1.322,0,0,1-21.81-13a1.724,1.724,0,0,1,1.187-.4,1.724,1.724,0,0,1,1.187.4,1.322,1.322,0,0,1,.457,1.037,1.322,1.322,0,0,1-.457,1.037,1.724,1.724,0,0,1-1.187.4,1.724,1.724,0,0,1-1.187-.4A1.322,1.322,0,0,1-22.267-11.962Zm7.69,2.452.1,1.116a3.225,3.225,0,0,1,2.716-1.292A2.713,2.713,0,0,1-9.545-8.8a4.226,4.226,0,0,1,.76,2.672V0h-2.971V-6a1.6,1.6,0,0,0-.29-1.059A1.342,1.342,0,0,0-13.1-7.4a1.413,1.413,0,0,0-1.292.686V0h-2.962V-9.51Zm7.058,4.667a5.613,5.613,0,0,1,.554-2.536A3.96,3.96,0,0,1-5.375-9.088a4.791,4.791,0,0,1,2.435-.6A4.373,4.373,0,0,1,.426-8.363a5.076,5.076,0,0,1,1.23,3.6v.105A4.925,4.925,0,0,1,.422-1.129,4.384,4.384,0,0,1-2.922.176,4.434,4.434,0,0,1-6.183-1.042a4.761,4.761,0,0,1-1.327-3.3Zm2.962.185a3.538,3.538,0,0,0,.413,1.934,1.376,1.376,0,0,0,1.222.615q1.582,0,1.617-2.435v-.3Q-1.305-7.4-2.94-7.4q-1.485,0-1.608,2.206ZM8.714-6.829,7.739-6.9a1.752,1.752,0,0,0-1.793.879V0H2.984V-9.51H5.761l.1,1.222a2.294,2.294,0,0,1,2.083-1.4,2.888,2.888,0,0,1,.826.105ZM12.907,0H9.936V-9.51h2.971ZM9.76-11.962A1.322,1.322,0,0,1,10.217-13a1.724,1.724,0,0,1,1.187-.4,1.724,1.724,0,0,1,1.187.4,1.322,1.322,0,0,1,.457,1.037,1.322,1.322,0,0,1-.457,1.037,1.724,1.724,0,0,1-1.187.4,1.724,1.724,0,0,1-1.187-.4A1.322,1.322,0,0,1,9.76-11.962Zm9.949,9.29a.684.684,0,0,0-.4-.606,6.016,6.016,0,0,0-1.5-.475A6.853,6.853,0,0,1,15.983-4.4a3.062,3.062,0,0,1-1.1-.971,2.319,2.319,0,0,1-.378-1.31,2.628,2.628,0,0,1,1.081-2.158,4.453,4.453,0,0,1,2.83-.848,4.934,4.934,0,0,1,3.023.853,2.666,2.666,0,0,1,1.143,2.241H19.613q0-1.143-1.2-1.143a1.194,1.194,0,0,0-.782.259.8.8,0,0,0-.316.646.737.737,0,0,0,.387.642,3.654,3.654,0,0,0,1.235.4,10.671,10.671,0,0,1,1.49.378A2.706,2.706,0,0,1,22.566-2.76,2.491,2.491,0,0,1,21.41-.642a5.068,5.068,0,0,1-2.993.817,5.172,5.172,0,0,1-2.18-.439,3.645,3.645,0,0,1-1.494-1.2,2.707,2.707,0,0,1-.536-1.591h2.769a1.145,1.145,0,0,0,.439.962,1.808,1.808,0,0,0,1.081.3,1.422,1.422,0,0,0,.91-.246A.787.787,0,0,0,19.709-2.672Zm7.69-9.2V-9.51h1.564v2.057H27.4V-3.1a1.111,1.111,0,0,0,.193.747,1.037,1.037,0,0,0,.765.211A4.345,4.345,0,0,0,29.1-2.2V-.079a5.466,5.466,0,0,1-1.67.255,3.1,3.1,0,0,1-2.259-.721,2.954,2.954,0,0,1-.729-2.188v-4.72H23.225V-9.51h1.213v-2.364ZM35.486,0A3.344,3.344,0,0,1,35.2-.853,2.754,2.754,0,0,1,32.919.176a3.374,3.374,0,0,1-2.285-.813,2.588,2.588,0,0,1-.94-2.043,2.66,2.66,0,0,1,1.143-2.338,5.821,5.821,0,0,1,3.322-.791h.914v-.5q0-1.316-1.134-1.316a.927.927,0,0,0-1.055,1.042H29.922A2.655,2.655,0,0,1,31.1-8.825a4.931,4.931,0,0,1,2.993-.86,4.323,4.323,0,0,1,2.874.888,3.086,3.086,0,0,1,1.081,2.435v4.21a4.311,4.311,0,0,0,.4,2V0ZM33.631-1.934a1.652,1.652,0,0,0,.918-.237,1.487,1.487,0,0,0,.523-.536V-4.228h-.861q-1.547,0-1.547,1.389a.848.848,0,0,0,.272.655A.986.986,0,0,0,33.631-1.934Z" transform="translate(982.891 18580.85)" fill="#12263f"/>
    <path id="Rectángulo_18662" data-name="Rectángulo 18662" d="M14.962,0H117.038A14.962,14.962,0,0,1,132,14.962V46.877a14.962,14.962,0,0,1-14.962,14.962H14.962A14.962,14.962,0,0,1,0,46.877V14.962A14.962,14.962,0,0,1,14.962,0Z" transform="translate(916.013 18454.486)" fill="#fae9b5"/>
    <path id="Minorista-4" data-name="Minorista" d="M-33.833-12.8l2.856,8.9,2.848-8.9h4.061V0h-3.094V-2.988l.3-6.117L-29.958,0H-32l-3.1-9.114.3,6.126V0h-3.085V-12.8ZM-19.121,0h-2.971V-9.51h2.971Zm-3.146-11.962A1.322,1.322,0,0,1-21.81-13a1.724,1.724,0,0,1,1.187-.4,1.724,1.724,0,0,1,1.187.4,1.322,1.322,0,0,1,.457,1.037,1.322,1.322,0,0,1-.457,1.037,1.724,1.724,0,0,1-1.187.4,1.724,1.724,0,0,1-1.187-.4A1.322,1.322,0,0,1-22.267-11.962Zm7.69,2.452.1,1.116a3.225,3.225,0,0,1,2.716-1.292A2.713,2.713,0,0,1-9.545-8.8a4.226,4.226,0,0,1,.76,2.672V0h-2.971V-6a1.6,1.6,0,0,0-.29-1.059A1.342,1.342,0,0,0-13.1-7.4a1.413,1.413,0,0,0-1.292.686V0h-2.962V-9.51Zm7.058,4.667a5.613,5.613,0,0,1,.554-2.536A3.96,3.96,0,0,1-5.375-9.088a4.791,4.791,0,0,1,2.435-.6A4.373,4.373,0,0,1,.426-8.363a5.076,5.076,0,0,1,1.23,3.6v.105A4.925,4.925,0,0,1,.422-1.129,4.384,4.384,0,0,1-2.922.176,4.434,4.434,0,0,1-6.183-1.042a4.761,4.761,0,0,1-1.327-3.3Zm2.962.185a3.538,3.538,0,0,0,.413,1.934,1.376,1.376,0,0,0,1.222.615q1.582,0,1.617-2.435v-.3Q-1.305-7.4-2.94-7.4q-1.485,0-1.608,2.206ZM8.714-6.829,7.739-6.9a1.752,1.752,0,0,0-1.793.879V0H2.984V-9.51H5.761l.1,1.222a2.294,2.294,0,0,1,2.083-1.4,2.888,2.888,0,0,1,.826.105ZM12.907,0H9.936V-9.51h2.971ZM9.76-11.962A1.322,1.322,0,0,1,10.217-13a1.724,1.724,0,0,1,1.187-.4,1.724,1.724,0,0,1,1.187.4,1.322,1.322,0,0,1,.457,1.037,1.322,1.322,0,0,1-.457,1.037,1.724,1.724,0,0,1-1.187.4,1.724,1.724,0,0,1-1.187-.4A1.322,1.322,0,0,1,9.76-11.962Zm9.949,9.29a.684.684,0,0,0-.4-.606,6.016,6.016,0,0,0-1.5-.475A6.853,6.853,0,0,1,15.983-4.4a3.062,3.062,0,0,1-1.1-.971,2.319,2.319,0,0,1-.378-1.31,2.628,2.628,0,0,1,1.081-2.158,4.453,4.453,0,0,1,2.83-.848,4.934,4.934,0,0,1,3.023.853,2.666,2.666,0,0,1,1.143,2.241H19.613q0-1.143-1.2-1.143a1.194,1.194,0,0,0-.782.259.8.8,0,0,0-.316.646.737.737,0,0,0,.387.642,3.654,3.654,0,0,0,1.235.4,10.671,10.671,0,0,1,1.49.378A2.706,2.706,0,0,1,22.566-2.76,2.491,2.491,0,0,1,21.41-.642a5.068,5.068,0,0,1-2.993.817,5.172,5.172,0,0,1-2.18-.439,3.645,3.645,0,0,1-1.494-1.2,2.707,2.707,0,0,1-.536-1.591h2.769a1.145,1.145,0,0,0,.439.962,1.808,1.808,0,0,0,1.081.3,1.422,1.422,0,0,0,.91-.246A.787.787,0,0,0,19.709-2.672Zm7.69-9.2V-9.51h1.564v2.057H27.4V-3.1a1.111,1.111,0,0,0,.193.747,1.037,1.037,0,0,0,.765.211A4.345,4.345,0,0,0,29.1-2.2V-.079a5.466,5.466,0,0,1-1.67.255,3.1,3.1,0,0,1-2.259-.721,2.954,2.954,0,0,1-.729-2.188v-4.72H23.225V-9.51h1.213v-2.364ZM35.486,0A3.344,3.344,0,0,1,35.2-.853,2.754,2.754,0,0,1,32.919.176a3.374,3.374,0,0,1-2.285-.813,2.588,2.588,0,0,1-.94-2.043,2.66,2.66,0,0,1,1.143-2.338,5.821,5.821,0,0,1,3.322-.791h.914v-.5q0-1.316-1.134-1.316a.927.927,0,0,0-1.055,1.042H29.922A2.655,2.655,0,0,1,31.1-8.825a4.931,4.931,0,0,1,2.993-.86,4.323,4.323,0,0,1,2.874.888,3.086,3.086,0,0,1,1.081,2.435v4.21a4.311,4.311,0,0,0,.4,2V0ZM33.631-1.934a1.652,1.652,0,0,0,.918-.237,1.487,1.487,0,0,0,.523-.536V-4.228h-.861q-1.547,0-1.547,1.389a.848.848,0,0,0,.272.655A.986.986,0,0,0,33.631-1.934Z" transform="translate(982.891 18491.111)" fill="#12263f"/>
    <path id="Rectángulo_18663" data-name="Rectángulo 18663" d="M14.962,0H134.255a14.962,14.962,0,0,1,14.962,14.962V46.877a14.962,14.962,0,0,1-14.962,14.962H14.962A14.962,14.962,0,0,1,0,46.877V14.962A14.962,14.962,0,0,1,14.962,0Z" transform="translate(1080.434 18729.709)" fill="#eec7f5"/>
    <path id="Consumidor" d="M-38.153-4.333a4.673,4.673,0,0,1-.721,2.36,4.35,4.35,0,0,1-1.85,1.586,6.3,6.3,0,0,1-2.72.563,5.025,5.025,0,0,1-3.973-1.644,6.786,6.786,0,0,1-1.45-4.641v-.633a7.746,7.746,0,0,1,.655-3.292,4.961,4.961,0,0,1,1.885-2.18,5.26,5.26,0,0,1,2.848-.769,5.516,5.516,0,0,1,3.744,1.226,4.844,4.844,0,0,1,1.608,3.379H-41.2a2.292,2.292,0,0,0-.589-1.679,2.422,2.422,0,0,0-1.687-.51,1.843,1.843,0,0,0-1.687.861,5.536,5.536,0,0,0-.562,2.751v.905a6.126,6.126,0,0,0,.514,2.927,1.882,1.882,0,0,0,1.771.879,2.369,2.369,0,0,0,1.626-.5,2.126,2.126,0,0,0,.6-1.591Zm.949-.51a5.613,5.613,0,0,1,.554-2.536A3.96,3.96,0,0,1-35.06-9.088a4.791,4.791,0,0,1,2.435-.6,4.373,4.373,0,0,1,3.366,1.323,5.076,5.076,0,0,1,1.23,3.6v.105a4.925,4.925,0,0,1-1.235,3.529A4.384,4.384,0,0,1-32.607.176a4.434,4.434,0,0,1-3.261-1.217,4.761,4.761,0,0,1-1.327-3.3Zm2.962.185a3.538,3.538,0,0,0,.413,1.934,1.376,1.376,0,0,0,1.222.615q1.582,0,1.617-2.435v-.3q0-2.558-1.635-2.558-1.485,0-1.608,2.206ZM-24-9.51l.1,1.116A3.225,3.225,0,0,1-21.19-9.686a2.713,2.713,0,0,1,2.219.888,4.226,4.226,0,0,1,.76,2.672V0h-2.971V-6a1.6,1.6,0,0,0-.29-1.059A1.342,1.342,0,0,0-22.526-7.4a1.413,1.413,0,0,0-1.292.686V0H-26.78V-9.51Zm12.41,6.838a.684.684,0,0,0-.4-.606,6.016,6.016,0,0,0-1.5-.475A6.853,6.853,0,0,1-15.319-4.4a3.062,3.062,0,0,1-1.1-.971A2.319,2.319,0,0,1-16.8-6.68a2.628,2.628,0,0,1,1.081-2.158,4.453,4.453,0,0,1,2.83-.848,4.934,4.934,0,0,1,3.023.853A2.666,2.666,0,0,1-8.719-6.592h-2.971q0-1.143-1.2-1.143a1.194,1.194,0,0,0-.782.259.8.8,0,0,0-.316.646.737.737,0,0,0,.387.642,3.654,3.654,0,0,0,1.235.4,10.671,10.671,0,0,1,1.49.378A2.706,2.706,0,0,1-8.736-2.76,2.491,2.491,0,0,1-9.892-.642a5.068,5.068,0,0,1-2.993.817,5.172,5.172,0,0,1-2.18-.439,3.645,3.645,0,0,1-1.494-1.2,2.707,2.707,0,0,1-.536-1.591h2.769a1.145,1.145,0,0,0,.439.962,1.808,1.808,0,0,0,1.081.3,1.422,1.422,0,0,0,.91-.246A.787.787,0,0,0-11.593-2.672Zm9.905,1.644a3.054,3.054,0,0,1-2.54,1.2A3,3,0,0,1-6.6-.734a3.826,3.826,0,0,1-.8-2.615V-9.51h2.962v6.179A1.065,1.065,0,0,0-3.252-2.109,1.548,1.548,0,0,0-1.8-2.839V-9.51H1.178V0H-1.6ZM5.6-9.51l.1,1.116A3.27,3.27,0,0,1,8.411-9.686a2.407,2.407,0,0,1,2.435,1.433,3.165,3.165,0,0,1,2.795-1.433q2.892,0,2.971,3.5V0H13.641V-6a1.813,1.813,0,0,0-.246-1.063,1.048,1.048,0,0,0-.9-.334,1.4,1.4,0,0,0-1.31.782L11.2-6.5V0H8.227V-5.985a1.906,1.906,0,0,0-.237-1.081A1.045,1.045,0,0,0,7.084-7.4a1.42,1.42,0,0,0-1.3.782V0H2.821V-9.51ZM21.428,0H18.457V-9.51h2.971ZM18.281-11.962A1.322,1.322,0,0,1,18.738-13a1.724,1.724,0,0,1,1.187-.4,1.724,1.724,0,0,1,1.187.4,1.322,1.322,0,0,1,.457,1.037,1.322,1.322,0,0,1-.457,1.037,1.724,1.724,0,0,1-1.187.4,1.724,1.724,0,0,1-1.187-.4A1.322,1.322,0,0,1,18.281-11.962Zm4.6,7.137a5.809,5.809,0,0,1,.976-3.56,3.211,3.211,0,0,1,2.725-1.3,2.731,2.731,0,0,1,2.145,1V-13.5h2.971V0H29.03l-.149-1.02a2.8,2.8,0,0,1-2.32,1.2,3.205,3.205,0,0,1-2.689-1.3A5.993,5.993,0,0,1,22.878-4.825Zm2.962.185q0,2.531,1.477,2.531a1.458,1.458,0,0,0,1.406-.826V-6.557A1.419,1.419,0,0,0,27.334-7.4q-1.371,0-1.485,2.215ZM33-4.843a5.613,5.613,0,0,1,.554-2.536,3.96,3.96,0,0,1,1.591-1.709,4.791,4.791,0,0,1,2.435-.6,4.373,4.373,0,0,1,3.366,1.323,5.076,5.076,0,0,1,1.23,3.6v.105a4.925,4.925,0,0,1-1.235,3.529A4.384,4.384,0,0,1,37.6.176a4.434,4.434,0,0,1-3.261-1.217,4.761,4.761,0,0,1-1.327-3.3Zm2.962.185a3.538,3.538,0,0,0,.413,1.934,1.376,1.376,0,0,0,1.222.615q1.582,0,1.617-2.435v-.3q0-2.558-1.635-2.558-1.485,0-1.608,2.206ZM49.236-6.829l-.976-.07a1.752,1.752,0,0,0-1.793.879V0H43.506V-9.51h2.777l.1,1.222a2.294,2.294,0,0,1,2.083-1.4,2.888,2.888,0,0,1,.826.105Z" transform="translate(1157.313 18767.334)" fill="#12263f"/>
    <path id="Rectángulo_18664" data-name="Rectángulo 18664" d="M14.962,0H134.255a14.962,14.962,0,0,1,14.962,14.962V46.877a14.962,14.962,0,0,1-14.962,14.962H14.962A14.962,14.962,0,0,1,0,46.877V14.962A14.962,14.962,0,0,1,14.962,0Z" transform="translate(1080.434 18636.967)" fill="#eec7f5"/>
    <path id="Consumidor-2" data-name="Consumidor" d="M-38.153-4.333a4.673,4.673,0,0,1-.721,2.36,4.35,4.35,0,0,1-1.85,1.586,6.3,6.3,0,0,1-2.72.563,5.025,5.025,0,0,1-3.973-1.644,6.786,6.786,0,0,1-1.45-4.641v-.633a7.746,7.746,0,0,1,.655-3.292,4.961,4.961,0,0,1,1.885-2.18,5.26,5.26,0,0,1,2.848-.769,5.516,5.516,0,0,1,3.744,1.226,4.844,4.844,0,0,1,1.608,3.379H-41.2a2.292,2.292,0,0,0-.589-1.679,2.422,2.422,0,0,0-1.687-.51,1.843,1.843,0,0,0-1.687.861,5.536,5.536,0,0,0-.562,2.751v.905a6.126,6.126,0,0,0,.514,2.927,1.882,1.882,0,0,0,1.771.879,2.369,2.369,0,0,0,1.626-.5,2.126,2.126,0,0,0,.6-1.591Zm.949-.51a5.613,5.613,0,0,1,.554-2.536A3.96,3.96,0,0,1-35.06-9.088a4.791,4.791,0,0,1,2.435-.6,4.373,4.373,0,0,1,3.366,1.323,5.076,5.076,0,0,1,1.23,3.6v.105a4.925,4.925,0,0,1-1.235,3.529A4.384,4.384,0,0,1-32.607.176a4.434,4.434,0,0,1-3.261-1.217,4.761,4.761,0,0,1-1.327-3.3Zm2.962.185a3.538,3.538,0,0,0,.413,1.934,1.376,1.376,0,0,0,1.222.615q1.582,0,1.617-2.435v-.3q0-2.558-1.635-2.558-1.485,0-1.608,2.206ZM-24-9.51l.1,1.116A3.225,3.225,0,0,1-21.19-9.686a2.713,2.713,0,0,1,2.219.888,4.226,4.226,0,0,1,.76,2.672V0h-2.971V-6a1.6,1.6,0,0,0-.29-1.059A1.342,1.342,0,0,0-22.526-7.4a1.413,1.413,0,0,0-1.292.686V0H-26.78V-9.51Zm12.41,6.838a.684.684,0,0,0-.4-.606,6.016,6.016,0,0,0-1.5-.475A6.853,6.853,0,0,1-15.319-4.4a3.062,3.062,0,0,1-1.1-.971A2.319,2.319,0,0,1-16.8-6.68a2.628,2.628,0,0,1,1.081-2.158,4.453,4.453,0,0,1,2.83-.848,4.934,4.934,0,0,1,3.023.853A2.666,2.666,0,0,1-8.719-6.592h-2.971q0-1.143-1.2-1.143a1.194,1.194,0,0,0-.782.259.8.8,0,0,0-.316.646.737.737,0,0,0,.387.642,3.654,3.654,0,0,0,1.235.4,10.671,10.671,0,0,1,1.49.378A2.706,2.706,0,0,1-8.736-2.76,2.491,2.491,0,0,1-9.892-.642a5.068,5.068,0,0,1-2.993.817,5.172,5.172,0,0,1-2.18-.439,3.645,3.645,0,0,1-1.494-1.2,2.707,2.707,0,0,1-.536-1.591h2.769a1.145,1.145,0,0,0,.439.962,1.808,1.808,0,0,0,1.081.3,1.422,1.422,0,0,0,.91-.246A.787.787,0,0,0-11.593-2.672Zm9.905,1.644a3.054,3.054,0,0,1-2.54,1.2A3,3,0,0,1-6.6-.734a3.826,3.826,0,0,1-.8-2.615V-9.51h2.962v6.179A1.065,1.065,0,0,0-3.252-2.109,1.548,1.548,0,0,0-1.8-2.839V-9.51H1.178V0H-1.6ZM5.6-9.51l.1,1.116A3.27,3.27,0,0,1,8.411-9.686a2.407,2.407,0,0,1,2.435,1.433,3.165,3.165,0,0,1,2.795-1.433q2.892,0,2.971,3.5V0H13.641V-6a1.813,1.813,0,0,0-.246-1.063,1.048,1.048,0,0,0-.9-.334,1.4,1.4,0,0,0-1.31.782L11.2-6.5V0H8.227V-5.985a1.906,1.906,0,0,0-.237-1.081A1.045,1.045,0,0,0,7.084-7.4a1.42,1.42,0,0,0-1.3.782V0H2.821V-9.51ZM21.428,0H18.457V-9.51h2.971ZM18.281-11.962A1.322,1.322,0,0,1,18.738-13a1.724,1.724,0,0,1,1.187-.4,1.724,1.724,0,0,1,1.187.4,1.322,1.322,0,0,1,.457,1.037,1.322,1.322,0,0,1-.457,1.037,1.724,1.724,0,0,1-1.187.4,1.724,1.724,0,0,1-1.187-.4A1.322,1.322,0,0,1,18.281-11.962Zm4.6,7.137a5.809,5.809,0,0,1,.976-3.56,3.211,3.211,0,0,1,2.725-1.3,2.731,2.731,0,0,1,2.145,1V-13.5h2.971V0H29.03l-.149-1.02a2.8,2.8,0,0,1-2.32,1.2,3.205,3.205,0,0,1-2.689-1.3A5.993,5.993,0,0,1,22.878-4.825Zm2.962.185q0,2.531,1.477,2.531a1.458,1.458,0,0,0,1.406-.826V-6.557A1.419,1.419,0,0,0,27.334-7.4q-1.371,0-1.485,2.215ZM33-4.843a5.613,5.613,0,0,1,.554-2.536,3.96,3.96,0,0,1,1.591-1.709,4.791,4.791,0,0,1,2.435-.6,4.373,4.373,0,0,1,3.366,1.323,5.076,5.076,0,0,1,1.23,3.6v.105a4.925,4.925,0,0,1-1.235,3.529A4.384,4.384,0,0,1,37.6.176a4.434,4.434,0,0,1-3.261-1.217,4.761,4.761,0,0,1-1.327-3.3Zm2.962.185a3.538,3.538,0,0,0,.413,1.934,1.376,1.376,0,0,0,1.222.615q1.582,0,1.617-2.435v-.3q0-2.558-1.635-2.558-1.485,0-1.608,2.206ZM49.236-6.829l-.976-.07a1.752,1.752,0,0,0-1.793.879V0H43.506V-9.51h2.777l.1,1.222a2.294,2.294,0,0,1,2.083-1.4,2.888,2.888,0,0,1,.826.105Z" transform="translate(1158.313 18673.592)" fill="#12263f"/>
    <path id="Rectángulo_18665" data-name="Rectángulo 18665" d="M14.962,0H134.255a14.962,14.962,0,0,1,14.962,14.962V46.877a14.962,14.962,0,0,1-14.962,14.962H14.962A14.962,14.962,0,0,1,0,46.877V14.962A14.962,14.962,0,0,1,14.962,0Z" transform="translate(1080.434 18544.225)" fill="#eec7f5"/>
    <path id="Consumidor-3" data-name="Consumidor" d="M-38.153-4.333a4.673,4.673,0,0,1-.721,2.36,4.35,4.35,0,0,1-1.85,1.586,6.3,6.3,0,0,1-2.72.563,5.025,5.025,0,0,1-3.973-1.644,6.786,6.786,0,0,1-1.45-4.641v-.633a7.746,7.746,0,0,1,.655-3.292,4.961,4.961,0,0,1,1.885-2.18,5.26,5.26,0,0,1,2.848-.769,5.516,5.516,0,0,1,3.744,1.226,4.844,4.844,0,0,1,1.608,3.379H-41.2a2.292,2.292,0,0,0-.589-1.679,2.422,2.422,0,0,0-1.687-.51,1.843,1.843,0,0,0-1.687.861,5.536,5.536,0,0,0-.562,2.751v.905a6.126,6.126,0,0,0,.514,2.927,1.882,1.882,0,0,0,1.771.879,2.369,2.369,0,0,0,1.626-.5,2.126,2.126,0,0,0,.6-1.591Zm.949-.51a5.613,5.613,0,0,1,.554-2.536A3.96,3.96,0,0,1-35.06-9.088a4.791,4.791,0,0,1,2.435-.6,4.373,4.373,0,0,1,3.366,1.323,5.076,5.076,0,0,1,1.23,3.6v.105a4.925,4.925,0,0,1-1.235,3.529A4.384,4.384,0,0,1-32.607.176a4.434,4.434,0,0,1-3.261-1.217,4.761,4.761,0,0,1-1.327-3.3Zm2.962.185a3.538,3.538,0,0,0,.413,1.934,1.376,1.376,0,0,0,1.222.615q1.582,0,1.617-2.435v-.3q0-2.558-1.635-2.558-1.485,0-1.608,2.206ZM-24-9.51l.1,1.116A3.225,3.225,0,0,1-21.19-9.686a2.713,2.713,0,0,1,2.219.888,4.226,4.226,0,0,1,.76,2.672V0h-2.971V-6a1.6,1.6,0,0,0-.29-1.059A1.342,1.342,0,0,0-22.526-7.4a1.413,1.413,0,0,0-1.292.686V0H-26.78V-9.51Zm12.41,6.838a.684.684,0,0,0-.4-.606,6.016,6.016,0,0,0-1.5-.475A6.853,6.853,0,0,1-15.319-4.4a3.062,3.062,0,0,1-1.1-.971A2.319,2.319,0,0,1-16.8-6.68a2.628,2.628,0,0,1,1.081-2.158,4.453,4.453,0,0,1,2.83-.848,4.934,4.934,0,0,1,3.023.853A2.666,2.666,0,0,1-8.719-6.592h-2.971q0-1.143-1.2-1.143a1.194,1.194,0,0,0-.782.259.8.8,0,0,0-.316.646.737.737,0,0,0,.387.642,3.654,3.654,0,0,0,1.235.4,10.671,10.671,0,0,1,1.49.378A2.706,2.706,0,0,1-8.736-2.76,2.491,2.491,0,0,1-9.892-.642a5.068,5.068,0,0,1-2.993.817,5.172,5.172,0,0,1-2.18-.439,3.645,3.645,0,0,1-1.494-1.2,2.707,2.707,0,0,1-.536-1.591h2.769a1.145,1.145,0,0,0,.439.962,1.808,1.808,0,0,0,1.081.3,1.422,1.422,0,0,0,.91-.246A.787.787,0,0,0-11.593-2.672Zm9.905,1.644a3.054,3.054,0,0,1-2.54,1.2A3,3,0,0,1-6.6-.734a3.826,3.826,0,0,1-.8-2.615V-9.51h2.962v6.179A1.065,1.065,0,0,0-3.252-2.109,1.548,1.548,0,0,0-1.8-2.839V-9.51H1.178V0H-1.6ZM5.6-9.51l.1,1.116A3.27,3.27,0,0,1,8.411-9.686a2.407,2.407,0,0,1,2.435,1.433,3.165,3.165,0,0,1,2.795-1.433q2.892,0,2.971,3.5V0H13.641V-6a1.813,1.813,0,0,0-.246-1.063,1.048,1.048,0,0,0-.9-.334,1.4,1.4,0,0,0-1.31.782L11.2-6.5V0H8.227V-5.985a1.906,1.906,0,0,0-.237-1.081A1.045,1.045,0,0,0,7.084-7.4a1.42,1.42,0,0,0-1.3.782V0H2.821V-9.51ZM21.428,0H18.457V-9.51h2.971ZM18.281-11.962A1.322,1.322,0,0,1,18.738-13a1.724,1.724,0,0,1,1.187-.4,1.724,1.724,0,0,1,1.187.4,1.322,1.322,0,0,1,.457,1.037,1.322,1.322,0,0,1-.457,1.037,1.724,1.724,0,0,1-1.187.4,1.724,1.724,0,0,1-1.187-.4A1.322,1.322,0,0,1,18.281-11.962Zm4.6,7.137a5.809,5.809,0,0,1,.976-3.56,3.211,3.211,0,0,1,2.725-1.3,2.731,2.731,0,0,1,2.145,1V-13.5h2.971V0H29.03l-.149-1.02a2.8,2.8,0,0,1-2.32,1.2,3.205,3.205,0,0,1-2.689-1.3A5.993,5.993,0,0,1,22.878-4.825Zm2.962.185q0,2.531,1.477,2.531a1.458,1.458,0,0,0,1.406-.826V-6.557A1.419,1.419,0,0,0,27.334-7.4q-1.371,0-1.485,2.215ZM33-4.843a5.613,5.613,0,0,1,.554-2.536,3.96,3.96,0,0,1,1.591-1.709,4.791,4.791,0,0,1,2.435-.6,4.373,4.373,0,0,1,3.366,1.323,5.076,5.076,0,0,1,1.23,3.6v.105a4.925,4.925,0,0,1-1.235,3.529A4.384,4.384,0,0,1,37.6.176a4.434,4.434,0,0,1-3.261-1.217,4.761,4.761,0,0,1-1.327-3.3Zm2.962.185a3.538,3.538,0,0,0,.413,1.934,1.376,1.376,0,0,0,1.222.615q1.582,0,1.617-2.435v-.3q0-2.558-1.635-2.558-1.485,0-1.608,2.206ZM49.236-6.829l-.976-.07a1.752,1.752,0,0,0-1.793.879V0H43.506V-9.51h2.777l.1,1.222a2.294,2.294,0,0,1,2.083-1.4,2.888,2.888,0,0,1,.826.105Z" transform="translate(1158.313 18581.85)" fill="#12263f"/>
    <path id="Rectángulo_18666" data-name="Rectángulo 18666" d="M14.962,0H134.255a14.962,14.962,0,0,1,14.962,14.962V46.877a14.962,14.962,0,0,1-14.962,14.962H14.962A14.962,14.962,0,0,1,0,46.877V14.962A14.962,14.962,0,0,1,14.962,0Z" transform="translate(1080.434 18454.486)" fill="#eec7f5"/>
    <path id="Consumidor-4" data-name="Consumidor" d="M-38.153-4.333a4.673,4.673,0,0,1-.721,2.36,4.35,4.35,0,0,1-1.85,1.586,6.3,6.3,0,0,1-2.72.563,5.025,5.025,0,0,1-3.973-1.644,6.786,6.786,0,0,1-1.45-4.641v-.633a7.746,7.746,0,0,1,.655-3.292,4.961,4.961,0,0,1,1.885-2.18,5.26,5.26,0,0,1,2.848-.769,5.516,5.516,0,0,1,3.744,1.226,4.844,4.844,0,0,1,1.608,3.379H-41.2a2.292,2.292,0,0,0-.589-1.679,2.422,2.422,0,0,0-1.687-.51,1.843,1.843,0,0,0-1.687.861,5.536,5.536,0,0,0-.562,2.751v.905a6.126,6.126,0,0,0,.514,2.927,1.882,1.882,0,0,0,1.771.879,2.369,2.369,0,0,0,1.626-.5,2.126,2.126,0,0,0,.6-1.591Zm.949-.51a5.613,5.613,0,0,1,.554-2.536A3.96,3.96,0,0,1-35.06-9.088a4.791,4.791,0,0,1,2.435-.6,4.373,4.373,0,0,1,3.366,1.323,5.076,5.076,0,0,1,1.23,3.6v.105a4.925,4.925,0,0,1-1.235,3.529A4.384,4.384,0,0,1-32.607.176a4.434,4.434,0,0,1-3.261-1.217,4.761,4.761,0,0,1-1.327-3.3Zm2.962.185a3.538,3.538,0,0,0,.413,1.934,1.376,1.376,0,0,0,1.222.615q1.582,0,1.617-2.435v-.3q0-2.558-1.635-2.558-1.485,0-1.608,2.206ZM-24-9.51l.1,1.116A3.225,3.225,0,0,1-21.19-9.686a2.713,2.713,0,0,1,2.219.888,4.226,4.226,0,0,1,.76,2.672V0h-2.971V-6a1.6,1.6,0,0,0-.29-1.059A1.342,1.342,0,0,0-22.526-7.4a1.413,1.413,0,0,0-1.292.686V0H-26.78V-9.51Zm12.41,6.838a.684.684,0,0,0-.4-.606,6.016,6.016,0,0,0-1.5-.475A6.853,6.853,0,0,1-15.319-4.4a3.062,3.062,0,0,1-1.1-.971A2.319,2.319,0,0,1-16.8-6.68a2.628,2.628,0,0,1,1.081-2.158,4.453,4.453,0,0,1,2.83-.848,4.934,4.934,0,0,1,3.023.853A2.666,2.666,0,0,1-8.719-6.592h-2.971q0-1.143-1.2-1.143a1.194,1.194,0,0,0-.782.259.8.8,0,0,0-.316.646.737.737,0,0,0,.387.642,3.654,3.654,0,0,0,1.235.4,10.671,10.671,0,0,1,1.49.378A2.706,2.706,0,0,1-8.736-2.76,2.491,2.491,0,0,1-9.892-.642a5.068,5.068,0,0,1-2.993.817,5.172,5.172,0,0,1-2.18-.439,3.645,3.645,0,0,1-1.494-1.2,2.707,2.707,0,0,1-.536-1.591h2.769a1.145,1.145,0,0,0,.439.962,1.808,1.808,0,0,0,1.081.3,1.422,1.422,0,0,0,.91-.246A.787.787,0,0,0-11.593-2.672Zm9.905,1.644a3.054,3.054,0,0,1-2.54,1.2A3,3,0,0,1-6.6-.734a3.826,3.826,0,0,1-.8-2.615V-9.51h2.962v6.179A1.065,1.065,0,0,0-3.252-2.109,1.548,1.548,0,0,0-1.8-2.839V-9.51H1.178V0H-1.6ZM5.6-9.51l.1,1.116A3.27,3.27,0,0,1,8.411-9.686a2.407,2.407,0,0,1,2.435,1.433,3.165,3.165,0,0,1,2.795-1.433q2.892,0,2.971,3.5V0H13.641V-6a1.813,1.813,0,0,0-.246-1.063,1.048,1.048,0,0,0-.9-.334,1.4,1.4,0,0,0-1.31.782L11.2-6.5V0H8.227V-5.985a1.906,1.906,0,0,0-.237-1.081A1.045,1.045,0,0,0,7.084-7.4a1.42,1.42,0,0,0-1.3.782V0H2.821V-9.51ZM21.428,0H18.457V-9.51h2.971ZM18.281-11.962A1.322,1.322,0,0,1,18.738-13a1.724,1.724,0,0,1,1.187-.4,1.724,1.724,0,0,1,1.187.4,1.322,1.322,0,0,1,.457,1.037,1.322,1.322,0,0,1-.457,1.037,1.724,1.724,0,0,1-1.187.4,1.724,1.724,0,0,1-1.187-.4A1.322,1.322,0,0,1,18.281-11.962Zm4.6,7.137a5.809,5.809,0,0,1,.976-3.56,3.211,3.211,0,0,1,2.725-1.3,2.731,2.731,0,0,1,2.145,1V-13.5h2.971V0H29.03l-.149-1.02a2.8,2.8,0,0,1-2.32,1.2,3.205,3.205,0,0,1-2.689-1.3A5.993,5.993,0,0,1,22.878-4.825Zm2.962.185q0,2.531,1.477,2.531a1.458,1.458,0,0,0,1.406-.826V-6.557A1.419,1.419,0,0,0,27.334-7.4q-1.371,0-1.485,2.215ZM33-4.843a5.613,5.613,0,0,1,.554-2.536,3.96,3.96,0,0,1,1.591-1.709,4.791,4.791,0,0,1,2.435-.6,4.373,4.373,0,0,1,3.366,1.323,5.076,5.076,0,0,1,1.23,3.6v.105a4.925,4.925,0,0,1-1.235,3.529A4.384,4.384,0,0,1,37.6.176a4.434,4.434,0,0,1-3.261-1.217,4.761,4.761,0,0,1-1.327-3.3Zm2.962.185a3.538,3.538,0,0,0,.413,1.934,1.376,1.376,0,0,0,1.222.615q1.582,0,1.617-2.435v-.3q0-2.558-1.635-2.558-1.485,0-1.608,2.206ZM49.236-6.829l-.976-.07a1.752,1.752,0,0,0-1.793.879V0H43.506V-9.51h2.777l.1,1.222a2.294,2.294,0,0,1,2.083-1.4,2.888,2.888,0,0,1,.826.105Z" transform="translate(1158.313 18492.111)" fill="#12263f"/>
    <path id="Rectángulo_18667" data-name="Rectángulo 18667" d="M14.962,0H134.255a14.962,14.962,0,0,1,14.962,14.962V46.877a14.962,14.962,0,0,1-14.962,14.962H14.962A14.962,14.962,0,0,1,0,46.877V14.962A14.962,14.962,0,0,1,14.962,0Z" transform="translate(1080.434 18367.752)" fill="#eec7f5"/>
    <path id="Consumidor-5" data-name="Consumidor" d="M-38.153-4.333a4.673,4.673,0,0,1-.721,2.36,4.35,4.35,0,0,1-1.85,1.586,6.3,6.3,0,0,1-2.72.563,5.025,5.025,0,0,1-3.973-1.644,6.786,6.786,0,0,1-1.45-4.641v-.633a7.746,7.746,0,0,1,.655-3.292,4.961,4.961,0,0,1,1.885-2.18,5.26,5.26,0,0,1,2.848-.769,5.516,5.516,0,0,1,3.744,1.226,4.844,4.844,0,0,1,1.608,3.379H-41.2a2.292,2.292,0,0,0-.589-1.679,2.422,2.422,0,0,0-1.687-.51,1.843,1.843,0,0,0-1.687.861,5.536,5.536,0,0,0-.562,2.751v.905a6.126,6.126,0,0,0,.514,2.927,1.882,1.882,0,0,0,1.771.879,2.369,2.369,0,0,0,1.626-.5,2.126,2.126,0,0,0,.6-1.591Zm.949-.51a5.613,5.613,0,0,1,.554-2.536A3.96,3.96,0,0,1-35.06-9.088a4.791,4.791,0,0,1,2.435-.6,4.373,4.373,0,0,1,3.366,1.323,5.076,5.076,0,0,1,1.23,3.6v.105a4.925,4.925,0,0,1-1.235,3.529A4.384,4.384,0,0,1-32.607.176a4.434,4.434,0,0,1-3.261-1.217,4.761,4.761,0,0,1-1.327-3.3Zm2.962.185a3.538,3.538,0,0,0,.413,1.934,1.376,1.376,0,0,0,1.222.615q1.582,0,1.617-2.435v-.3q0-2.558-1.635-2.558-1.485,0-1.608,2.206ZM-24-9.51l.1,1.116A3.225,3.225,0,0,1-21.19-9.686a2.713,2.713,0,0,1,2.219.888,4.226,4.226,0,0,1,.76,2.672V0h-2.971V-6a1.6,1.6,0,0,0-.29-1.059A1.342,1.342,0,0,0-22.526-7.4a1.413,1.413,0,0,0-1.292.686V0H-26.78V-9.51Zm12.41,6.838a.684.684,0,0,0-.4-.606,6.016,6.016,0,0,0-1.5-.475A6.853,6.853,0,0,1-15.319-4.4a3.062,3.062,0,0,1-1.1-.971A2.319,2.319,0,0,1-16.8-6.68a2.628,2.628,0,0,1,1.081-2.158,4.453,4.453,0,0,1,2.83-.848,4.934,4.934,0,0,1,3.023.853A2.666,2.666,0,0,1-8.719-6.592h-2.971q0-1.143-1.2-1.143a1.194,1.194,0,0,0-.782.259.8.8,0,0,0-.316.646.737.737,0,0,0,.387.642,3.654,3.654,0,0,0,1.235.4,10.671,10.671,0,0,1,1.49.378A2.706,2.706,0,0,1-8.736-2.76,2.491,2.491,0,0,1-9.892-.642a5.068,5.068,0,0,1-2.993.817,5.172,5.172,0,0,1-2.18-.439,3.645,3.645,0,0,1-1.494-1.2,2.707,2.707,0,0,1-.536-1.591h2.769a1.145,1.145,0,0,0,.439.962,1.808,1.808,0,0,0,1.081.3,1.422,1.422,0,0,0,.91-.246A.787.787,0,0,0-11.593-2.672Zm9.905,1.644a3.054,3.054,0,0,1-2.54,1.2A3,3,0,0,1-6.6-.734a3.826,3.826,0,0,1-.8-2.615V-9.51h2.962v6.179A1.065,1.065,0,0,0-3.252-2.109,1.548,1.548,0,0,0-1.8-2.839V-9.51H1.178V0H-1.6ZM5.6-9.51l.1,1.116A3.27,3.27,0,0,1,8.411-9.686a2.407,2.407,0,0,1,2.435,1.433,3.165,3.165,0,0,1,2.795-1.433q2.892,0,2.971,3.5V0H13.641V-6a1.813,1.813,0,0,0-.246-1.063,1.048,1.048,0,0,0-.9-.334,1.4,1.4,0,0,0-1.31.782L11.2-6.5V0H8.227V-5.985a1.906,1.906,0,0,0-.237-1.081A1.045,1.045,0,0,0,7.084-7.4a1.42,1.42,0,0,0-1.3.782V0H2.821V-9.51ZM21.428,0H18.457V-9.51h2.971ZM18.281-11.962A1.322,1.322,0,0,1,18.738-13a1.724,1.724,0,0,1,1.187-.4,1.724,1.724,0,0,1,1.187.4,1.322,1.322,0,0,1,.457,1.037,1.322,1.322,0,0,1-.457,1.037,1.724,1.724,0,0,1-1.187.4,1.724,1.724,0,0,1-1.187-.4A1.322,1.322,0,0,1,18.281-11.962Zm4.6,7.137a5.809,5.809,0,0,1,.976-3.56,3.211,3.211,0,0,1,2.725-1.3,2.731,2.731,0,0,1,2.145,1V-13.5h2.971V0H29.03l-.149-1.02a2.8,2.8,0,0,1-2.32,1.2,3.205,3.205,0,0,1-2.689-1.3A5.993,5.993,0,0,1,22.878-4.825Zm2.962.185q0,2.531,1.477,2.531a1.458,1.458,0,0,0,1.406-.826V-6.557A1.419,1.419,0,0,0,27.334-7.4q-1.371,0-1.485,2.215ZM33-4.843a5.613,5.613,0,0,1,.554-2.536,3.96,3.96,0,0,1,1.591-1.709,4.791,4.791,0,0,1,2.435-.6,4.373,4.373,0,0,1,3.366,1.323,5.076,5.076,0,0,1,1.23,3.6v.105a4.925,4.925,0,0,1-1.235,3.529A4.384,4.384,0,0,1,37.6.176a4.434,4.434,0,0,1-3.261-1.217,4.761,4.761,0,0,1-1.327-3.3Zm2.962.185a3.538,3.538,0,0,0,.413,1.934,1.376,1.376,0,0,0,1.222.615q1.582,0,1.617-2.435v-.3q0-2.558-1.635-2.558-1.485,0-1.608,2.206ZM49.236-6.829l-.976-.07a1.752,1.752,0,0,0-1.793.879V0H43.506V-9.51h2.777l.1,1.222a2.294,2.294,0,0,1,2.083-1.4,2.888,2.888,0,0,1,.826.105Z" transform="translate(1158.313 18404.373)" fill="#12263f"/>
    <path id="Rectángulo_18668" data-name="Rectángulo 18668" d="M14.962,0H117.038A14.962,14.962,0,0,1,132,14.962V46.877a14.962,14.962,0,0,1-14.962,14.962H14.962A14.962,14.962,0,0,1,0,46.877V14.962A14.962,14.962,0,0,1,14.962,0Z" transform="translate(1254.534 18729.709)" fill="#6e3dc6"/>
    <path id="Nivel_4" data-name="Nivel 4" d="M-16.559,0h-3.067l-4.535-7.963V0h-3.085V-12.8h3.085l4.526,7.963V-12.8h3.076Zm4.939,0H-14.59V-9.51h2.971Zm-3.146-11.962A1.322,1.322,0,0,1-14.309-13a1.724,1.724,0,0,1,1.187-.4,1.724,1.724,0,0,1,1.187.4,1.322,1.322,0,0,1,.457,1.037,1.322,1.322,0,0,1-.457,1.037,1.724,1.724,0,0,1-1.187.4,1.724,1.724,0,0,1-1.187-.4A1.322,1.322,0,0,1-14.766-11.962ZM-6-3.524-4.5-9.51h3.12L-4.482,0H-7.506l-3.1-9.51h3.129ZM3.99.176A4.889,4.889,0,0,1,.448-1.129a4.507,4.507,0,0,1-1.354-3.4v-.246A5.84,5.84,0,0,1-.365-7.348,3.955,3.955,0,0,1,1.213-9.075a4.763,4.763,0,0,1,2.461-.611A4.117,4.117,0,0,1,6.838-8.442,4.887,4.887,0,0,1,8-4.975v1.151H2.109A2.135,2.135,0,0,0,2.8-2.566a2.066,2.066,0,0,0,1.389.457,2.662,2.662,0,0,0,2.2-.984l1.354,1.6A3.784,3.784,0,0,1,6.174-.277,5.3,5.3,0,0,1,3.99.176ZM3.656-7.4q-1.3,0-1.547,1.723H5.1v-.229a1.467,1.467,0,0,0-.36-1.1A1.434,1.434,0,0,0,3.656-7.4ZM12.313,0H9.343V-13.5h2.971Zm14.08-5h1.3v2.285h-1.3V0H23.432V-2.716H18.483l-.176-1.811,5.124-8.244V-12.8h2.962ZM21.129-5h2.3V-8.938l-.185.3Z" transform="translate(1321.632 18766.334)" fill="#fff"/>
    <path id="Rectángulo_18669" data-name="Rectángulo 18669" d="M14.962,0H117.038A14.962,14.962,0,0,1,132,14.962V46.877a14.962,14.962,0,0,1-14.962,14.962H14.962A14.962,14.962,0,0,1,0,46.877V14.962A14.962,14.962,0,0,1,14.962,0Z" transform="translate(1254.534 18636.967)" fill="#6e3dc6"/>
    <path id="Nivel_3" data-name="Nivel 3" d="M-16.559,0h-3.067l-4.535-7.963V0h-3.085V-12.8h3.085l4.526,7.963V-12.8h3.076Zm4.939,0H-14.59V-9.51h2.971Zm-3.146-11.962A1.322,1.322,0,0,1-14.309-13a1.724,1.724,0,0,1,1.187-.4,1.724,1.724,0,0,1,1.187.4,1.322,1.322,0,0,1,.457,1.037,1.322,1.322,0,0,1-.457,1.037,1.724,1.724,0,0,1-1.187.4,1.724,1.724,0,0,1-1.187-.4A1.322,1.322,0,0,1-14.766-11.962ZM-6-3.524-4.5-9.51h3.12L-4.482,0H-7.506l-3.1-9.51h3.129ZM3.99.176A4.889,4.889,0,0,1,.448-1.129a4.507,4.507,0,0,1-1.354-3.4v-.246A5.84,5.84,0,0,1-.365-7.348,3.955,3.955,0,0,1,1.213-9.075a4.763,4.763,0,0,1,2.461-.611A4.117,4.117,0,0,1,6.838-8.442,4.887,4.887,0,0,1,8-4.975v1.151H2.109A2.135,2.135,0,0,0,2.8-2.566a2.066,2.066,0,0,0,1.389.457,2.662,2.662,0,0,0,2.2-.984l1.354,1.6A3.784,3.784,0,0,1,6.174-.277,5.3,5.3,0,0,1,3.99.176ZM3.656-7.4q-1.3,0-1.547,1.723H5.1v-.229a1.467,1.467,0,0,0-.36-1.1A1.434,1.434,0,0,0,3.656-7.4ZM12.313,0H9.343V-13.5h2.971Zm8.965-7.638h1.4a1.453,1.453,0,0,0,1.661-1.626,1.406,1.406,0,0,0-.4-1.033,1.5,1.5,0,0,0-1.116-.4,1.606,1.606,0,0,0-1.024.343,1.046,1.046,0,0,0-.435.853H18.4a3.032,3.032,0,0,1,.563-1.8,3.715,3.715,0,0,1,1.56-1.235,5.334,5.334,0,0,1,2.193-.444,5.241,5.241,0,0,1,3.357.976A3.243,3.243,0,0,1,27.3-9.325a2.7,2.7,0,0,1-.505,1.56,3.6,3.6,0,0,1-1.472,1.191,3.441,3.441,0,0,1,1.6,1.121,2.951,2.951,0,0,1,.58,1.859A3.3,3.3,0,0,1,26.183-.853,5.472,5.472,0,0,1,22.72.176,5.675,5.675,0,0,1,20.386-.3a3.656,3.656,0,0,1-1.63-1.327A3.45,3.45,0,0,1,18.2-3.56h2.979a1.334,1.334,0,0,0,.475,1.02,1.676,1.676,0,0,0,1.169.431,1.755,1.755,0,0,0,1.248-.435,1.454,1.454,0,0,0,.466-1.112,1.7,1.7,0,0,0-.483-1.371,2.021,2.021,0,0,0-1.336-.4H21.278Z" transform="translate(1321.632 18673.592)" fill="#fff"/>
    <path id="Rectángulo_18670" data-name="Rectángulo 18670" d="M14.962,0H117.038A14.962,14.962,0,0,1,132,14.962V46.877a14.962,14.962,0,0,1-14.962,14.962H14.962A14.962,14.962,0,0,1,0,46.877V14.962A14.962,14.962,0,0,1,14.962,0Z" transform="translate(1254.534 18544.225)" fill="#6e3dc6"/>
    <path id="Nivel_2" data-name="Nivel 2" d="M-16.559,0h-3.067l-4.535-7.963V0h-3.085V-12.8h3.085l4.526,7.963V-12.8h3.076Zm4.939,0H-14.59V-9.51h2.971Zm-3.146-11.962A1.322,1.322,0,0,1-14.309-13a1.724,1.724,0,0,1,1.187-.4,1.724,1.724,0,0,1,1.187.4,1.322,1.322,0,0,1,.457,1.037,1.322,1.322,0,0,1-.457,1.037,1.724,1.724,0,0,1-1.187.4,1.724,1.724,0,0,1-1.187-.4A1.322,1.322,0,0,1-14.766-11.962ZM-6-3.524-4.5-9.51h3.12L-4.482,0H-7.506l-3.1-9.51h3.129ZM3.99.176A4.889,4.889,0,0,1,.448-1.129a4.507,4.507,0,0,1-1.354-3.4v-.246A5.84,5.84,0,0,1-.365-7.348,3.955,3.955,0,0,1,1.213-9.075a4.763,4.763,0,0,1,2.461-.611A4.117,4.117,0,0,1,6.838-8.442,4.887,4.887,0,0,1,8-4.975v1.151H2.109A2.135,2.135,0,0,0,2.8-2.566a2.066,2.066,0,0,0,1.389.457,2.662,2.662,0,0,0,2.2-.984l1.354,1.6A3.784,3.784,0,0,1,6.174-.277,5.3,5.3,0,0,1,3.99.176ZM3.656-7.4q-1.3,0-1.547,1.723H5.1v-.229a1.467,1.467,0,0,0-.36-1.1A1.434,1.434,0,0,0,3.656-7.4ZM12.313,0H9.343V-13.5h2.971ZM27.5,0h-8.93V-1.934l4.113-4.324a4.909,4.909,0,0,0,1.521-2.751,1.913,1.913,0,0,0-.36-1.257A1.287,1.287,0,0,0,22.8-10.7a1.3,1.3,0,0,0-1.1.576,2.366,2.366,0,0,0-.422,1.437H18.308a4.2,4.2,0,0,1,.589-2.175,4.129,4.129,0,0,1,1.635-1.56,4.856,4.856,0,0,1,2.338-.562,4.777,4.777,0,0,1,3.195.958,3.42,3.42,0,0,1,1.121,2.751A4,4,0,0,1,26.9-7.8a6.456,6.456,0,0,1-.875,1.5,22.029,22.029,0,0,1-1.912,2.1L22.465-2.285H27.5Z" transform="translate(1321.632 18580.85)" fill="#fff"/>
    <path id="Rectángulo_18671" data-name="Rectángulo 18671" d="M14.962,0H117.038A14.962,14.962,0,0,1,132,14.962V46.877a14.962,14.962,0,0,1-14.962,14.962H14.962A14.962,14.962,0,0,1,0,46.877V14.962A14.962,14.962,0,0,1,14.962,0Z" transform="translate(1254.534 18454.486)" fill="#6e3dc6"/>
    <path id="Nivel_1" data-name="Nivel 1" d="M11.654,0H8.587L4.052-7.963V0H.967V-12.8H4.052L8.578-4.834V-12.8h3.076Zm4.939,0H13.623V-9.51h2.971ZM13.447-11.962A1.322,1.322,0,0,1,13.9-13a1.724,1.724,0,0,1,1.187-.4,1.724,1.724,0,0,1,1.187.4,1.322,1.322,0,0,1,.457,1.037,1.322,1.322,0,0,1-.457,1.037,1.724,1.724,0,0,1-1.187.4,1.724,1.724,0,0,1-1.187-.4A1.322,1.322,0,0,1,13.447-11.962ZM22.21-3.524l1.5-5.985h3.12L23.73,0H20.707L17.6-9.51h3.129ZM32.2.176a4.889,4.889,0,0,1-3.542-1.305,4.507,4.507,0,0,1-1.354-3.4v-.246a5.84,5.84,0,0,1,.541-2.575,3.955,3.955,0,0,1,1.578-1.727,4.763,4.763,0,0,1,2.461-.611,4.117,4.117,0,0,1,3.164,1.244,4.887,4.887,0,0,1,1.16,3.467v1.151H30.322a2.135,2.135,0,0,0,.694,1.257,2.066,2.066,0,0,0,1.389.457,2.662,2.662,0,0,0,2.2-.984l1.354,1.6A3.784,3.784,0,0,1,34.387-.277,5.3,5.3,0,0,1,32.2.176ZM31.869-7.4q-1.3,0-1.547,1.723h2.988v-.229a1.467,1.467,0,0,0-.36-1.1A1.434,1.434,0,0,0,31.869-7.4ZM40.526,0H37.556V-13.5h2.971ZM53.35,0H50.379V-9.457L47.461-8.6v-2.25L53.077-12.8h.272Z" transform="translate(1293.632 18491.111)" fill="#fff"/>
    <path id="Rectángulo_18672" data-name="Rectángulo 18672" d="M14.962,0H117.038A14.962,14.962,0,0,1,132,14.962V46.877a14.962,14.962,0,0,1-14.962,14.962H14.962A14.962,14.962,0,0,1,0,46.877V14.962A14.962,14.962,0,0,1,14.962,0Z" transform="translate(1254.534 18367.752)" fill="#6e3dc6"/>
    <path id="Nivel_0" data-name="Nivel 0" d="M-16.559,0h-3.067l-4.535-7.963V0h-3.085V-12.8h3.085l4.526,7.963V-12.8h3.076Zm4.939,0H-14.59V-9.51h2.971Zm-3.146-11.962A1.322,1.322,0,0,1-14.309-13a1.724,1.724,0,0,1,1.187-.4,1.724,1.724,0,0,1,1.187.4,1.322,1.322,0,0,1,.457,1.037,1.322,1.322,0,0,1-.457,1.037,1.724,1.724,0,0,1-1.187.4,1.724,1.724,0,0,1-1.187-.4A1.322,1.322,0,0,1-14.766-11.962ZM-6-3.524-4.5-9.51h3.12L-4.482,0H-7.506l-3.1-9.51h3.129ZM3.99.176A4.889,4.889,0,0,1,.448-1.129a4.507,4.507,0,0,1-1.354-3.4v-.246A5.84,5.84,0,0,1-.365-7.348,3.955,3.955,0,0,1,1.213-9.075a4.763,4.763,0,0,1,2.461-.611A4.117,4.117,0,0,1,6.838-8.442,4.887,4.887,0,0,1,8-4.975v1.151H2.109A2.135,2.135,0,0,0,2.8-2.566a2.066,2.066,0,0,0,1.389.457,2.662,2.662,0,0,0,2.2-.984l1.354,1.6A3.784,3.784,0,0,1,6.174-.277,5.3,5.3,0,0,1,3.99.176ZM3.656-7.4q-1.3,0-1.547,1.723H5.1v-.229a1.467,1.467,0,0,0-.36-1.1A1.434,1.434,0,0,0,3.656-7.4ZM12.313,0H9.343V-13.5h2.971ZM27.457-5.229a6.11,6.11,0,0,1-1.165,4A4.024,4.024,0,0,1,23.01.176a4.046,4.046,0,0,1-3.3-1.415,6.1,6.1,0,0,1-1.169-3.99V-7.567a6.11,6.11,0,0,1,1.165-4,4.034,4.034,0,0,1,3.292-1.406,4.036,4.036,0,0,1,3.3,1.415,6.116,6.116,0,0,1,1.169,4ZM24.5-7.945a4.564,4.564,0,0,0-.36-2.061,1.2,1.2,0,0,0-1.143-.681,1.176,1.176,0,0,0-1.112.633,4.3,4.3,0,0,0-.374,1.916v3.27a4.6,4.6,0,0,0,.36,2.1,1.209,1.209,0,0,0,1.143.664,1.193,1.193,0,0,0,1.116-.646A4.39,4.39,0,0,0,24.5-4.781Z" transform="translate(1321.632 18404.373)" fill="#fff"/>
    <path id="Rectángulo_18673" data-name="Rectángulo 18673" d="M14.962,0H157.045a14.962,14.962,0,0,1,14.962,14.962V46.877a14.962,14.962,0,0,1-14.962,14.962H14.962A14.962,14.962,0,0,1,0,46.877V14.962A14.962,14.962,0,0,1,14.962,0Z" transform="translate(696.1 18636.967)" fill="#f9ce24"/>
    <path id="Mayorista" d="M-35.591-12.8l2.856,8.9,2.848-8.9h4.061V0H-28.92V-2.988l.3-6.117L-31.715,0h-2.039l-3.1-9.114.3,6.126V0h-3.085V-12.8ZM-18.646,0a3.344,3.344,0,0,1-.281-.853A2.754,2.754,0,0,1-21.212.176,3.374,3.374,0,0,1-23.5-.637a2.588,2.588,0,0,1-.94-2.043A2.66,2.66,0,0,1-23.3-5.019a5.821,5.821,0,0,1,3.322-.791h.914v-.5q0-1.316-1.134-1.316a.927.927,0,0,0-1.055,1.042h-2.962a2.655,2.655,0,0,1,1.173-2.239,4.931,4.931,0,0,1,2.993-.86,4.323,4.323,0,0,1,2.874.888,3.086,3.086,0,0,1,1.081,2.435v4.21a4.311,4.311,0,0,0,.4,2V0ZM-20.5-1.934a1.652,1.652,0,0,0,.918-.237,1.487,1.487,0,0,0,.523-.536V-4.228h-.861q-1.547,0-1.547,1.389a.848.848,0,0,0,.272.655A.986.986,0,0,0-20.5-1.934Zm9.721-2.215L-9.2-9.51h3.173L-9.9,1.591l-.167.4a2.944,2.944,0,0,1-2.918,1.846,4.642,4.642,0,0,1-1.222-.175V1.556h.387a2.026,2.026,0,0,0,.954-.18,1.094,1.094,0,0,0,.488-.647L-12.142.1l-3.3-9.605h3.164Zm5.019-.694a5.613,5.613,0,0,1,.554-2.536A3.96,3.96,0,0,1-3.617-9.088a4.791,4.791,0,0,1,2.435-.6A4.373,4.373,0,0,1,2.184-8.363a5.076,5.076,0,0,1,1.23,3.6v.105A4.925,4.925,0,0,1,2.18-1.129,4.384,4.384,0,0,1-1.165.176,4.434,4.434,0,0,1-4.425-1.042a4.761,4.761,0,0,1-1.327-3.3Zm2.962.185a3.538,3.538,0,0,0,.413,1.934,1.376,1.376,0,0,0,1.222.615q1.582,0,1.617-2.435v-.3Q.453-7.4-1.182-7.4q-1.485,0-1.608,2.206ZM10.472-6.829,9.5-6.9A1.752,1.752,0,0,0,7.7-6.021V0H4.742V-9.51H7.519l.1,1.222A2.294,2.294,0,0,1,9.7-9.686a2.888,2.888,0,0,1,.826.105ZM14.665,0H11.694V-9.51h2.971ZM11.518-11.962A1.322,1.322,0,0,1,11.975-13a1.724,1.724,0,0,1,1.187-.4,1.724,1.724,0,0,1,1.187.4,1.322,1.322,0,0,1,.457,1.037,1.322,1.322,0,0,1-.457,1.037,1.724,1.724,0,0,1-1.187.4,1.724,1.724,0,0,1-1.187-.4A1.322,1.322,0,0,1,11.518-11.962Zm9.949,9.29a.684.684,0,0,0-.4-.606,6.016,6.016,0,0,0-1.5-.475A6.853,6.853,0,0,1,17.741-4.4a3.062,3.062,0,0,1-1.1-.971,2.319,2.319,0,0,1-.378-1.31,2.628,2.628,0,0,1,1.081-2.158,4.453,4.453,0,0,1,2.83-.848,4.934,4.934,0,0,1,3.023.853,2.666,2.666,0,0,1,1.143,2.241H21.371q0-1.143-1.2-1.143a1.194,1.194,0,0,0-.782.259.8.8,0,0,0-.316.646.737.737,0,0,0,.387.642,3.654,3.654,0,0,0,1.235.4,10.671,10.671,0,0,1,1.49.378A2.706,2.706,0,0,1,24.324-2.76,2.491,2.491,0,0,1,23.168-.642a5.068,5.068,0,0,1-2.993.817A5.172,5.172,0,0,1,18-.264a3.645,3.645,0,0,1-1.494-1.2,2.707,2.707,0,0,1-.536-1.591h2.769a1.145,1.145,0,0,0,.439.962,1.808,1.808,0,0,0,1.081.3,1.422,1.422,0,0,0,.91-.246A.787.787,0,0,0,21.467-2.672Zm7.69-9.2V-9.51h1.564v2.057H29.158V-3.1a1.111,1.111,0,0,0,.193.747,1.037,1.037,0,0,0,.765.211,4.345,4.345,0,0,0,.738-.053V-.079a5.466,5.466,0,0,1-1.67.255,3.1,3.1,0,0,1-2.259-.721A2.954,2.954,0,0,1,26.2-2.733v-4.72H24.983V-9.51H26.2v-2.364ZM37.244,0a3.344,3.344,0,0,1-.281-.853A2.754,2.754,0,0,1,34.677.176a3.374,3.374,0,0,1-2.285-.813,2.588,2.588,0,0,1-.94-2.043,2.66,2.66,0,0,1,1.143-2.338,5.821,5.821,0,0,1,3.322-.791h.914v-.5q0-1.316-1.134-1.316a.927.927,0,0,0-1.055,1.042H31.68a2.655,2.655,0,0,1,1.173-2.239,4.931,4.931,0,0,1,2.993-.86A4.323,4.323,0,0,1,38.72-8.8,3.086,3.086,0,0,1,39.8-6.363v4.21a4.311,4.311,0,0,0,.4,2V0ZM35.389-1.934a1.652,1.652,0,0,0,.918-.237,1.487,1.487,0,0,0,.523-.536V-4.228h-.861q-1.547,0-1.547,1.389a.848.848,0,0,0,.272.655A.986.986,0,0,0,35.389-1.934Z" transform="translate(782.69 18674.615)" fill="#12263f"/>
    <path id="Rectángulo_18674" data-name="Rectángulo 18674" d="M14.962,0H157.045a14.962,14.962,0,0,1,14.962,14.962V46.877a14.962,14.962,0,0,1-14.962,14.962H14.962A14.962,14.962,0,0,1,0,46.877V14.962A14.962,14.962,0,0,1,14.962,0Z" transform="translate(696.1 18547.229)" fill="#f9ce24"/>
    <path id="Mayorista-2" data-name="Mayorista" d="M-35.591-12.8l2.856,8.9,2.848-8.9h4.061V0H-28.92V-2.988l.3-6.117L-31.715,0h-2.039l-3.1-9.114.3,6.126V0h-3.085V-12.8ZM-18.646,0a3.344,3.344,0,0,1-.281-.853A2.754,2.754,0,0,1-21.212.176,3.374,3.374,0,0,1-23.5-.637a2.588,2.588,0,0,1-.94-2.043A2.66,2.66,0,0,1-23.3-5.019a5.821,5.821,0,0,1,3.322-.791h.914v-.5q0-1.316-1.134-1.316a.927.927,0,0,0-1.055,1.042h-2.962a2.655,2.655,0,0,1,1.173-2.239,4.931,4.931,0,0,1,2.993-.86,4.323,4.323,0,0,1,2.874.888,3.086,3.086,0,0,1,1.081,2.435v4.21a4.311,4.311,0,0,0,.4,2V0ZM-20.5-1.934a1.652,1.652,0,0,0,.918-.237,1.487,1.487,0,0,0,.523-.536V-4.228h-.861q-1.547,0-1.547,1.389a.848.848,0,0,0,.272.655A.986.986,0,0,0-20.5-1.934Zm9.721-2.215L-9.2-9.51h3.173L-9.9,1.591l-.167.4a2.944,2.944,0,0,1-2.918,1.846,4.642,4.642,0,0,1-1.222-.175V1.556h.387a2.026,2.026,0,0,0,.954-.18,1.094,1.094,0,0,0,.488-.647L-12.142.1l-3.3-9.605h3.164Zm5.019-.694a5.613,5.613,0,0,1,.554-2.536A3.96,3.96,0,0,1-3.617-9.088a4.791,4.791,0,0,1,2.435-.6A4.373,4.373,0,0,1,2.184-8.363a5.076,5.076,0,0,1,1.23,3.6v.105A4.925,4.925,0,0,1,2.18-1.129,4.384,4.384,0,0,1-1.165.176,4.434,4.434,0,0,1-4.425-1.042a4.761,4.761,0,0,1-1.327-3.3Zm2.962.185a3.538,3.538,0,0,0,.413,1.934,1.376,1.376,0,0,0,1.222.615q1.582,0,1.617-2.435v-.3Q.453-7.4-1.182-7.4q-1.485,0-1.608,2.206ZM10.472-6.829,9.5-6.9A1.752,1.752,0,0,0,7.7-6.021V0H4.742V-9.51H7.519l.1,1.222A2.294,2.294,0,0,1,9.7-9.686a2.888,2.888,0,0,1,.826.105ZM14.665,0H11.694V-9.51h2.971ZM11.518-11.962A1.322,1.322,0,0,1,11.975-13a1.724,1.724,0,0,1,1.187-.4,1.724,1.724,0,0,1,1.187.4,1.322,1.322,0,0,1,.457,1.037,1.322,1.322,0,0,1-.457,1.037,1.724,1.724,0,0,1-1.187.4,1.724,1.724,0,0,1-1.187-.4A1.322,1.322,0,0,1,11.518-11.962Zm9.949,9.29a.684.684,0,0,0-.4-.606,6.016,6.016,0,0,0-1.5-.475A6.853,6.853,0,0,1,17.741-4.4a3.062,3.062,0,0,1-1.1-.971,2.319,2.319,0,0,1-.378-1.31,2.628,2.628,0,0,1,1.081-2.158,4.453,4.453,0,0,1,2.83-.848,4.934,4.934,0,0,1,3.023.853,2.666,2.666,0,0,1,1.143,2.241H21.371q0-1.143-1.2-1.143a1.194,1.194,0,0,0-.782.259.8.8,0,0,0-.316.646.737.737,0,0,0,.387.642,3.654,3.654,0,0,0,1.235.4,10.671,10.671,0,0,1,1.49.378A2.706,2.706,0,0,1,24.324-2.76,2.491,2.491,0,0,1,23.168-.642a5.068,5.068,0,0,1-2.993.817A5.172,5.172,0,0,1,18-.264a3.645,3.645,0,0,1-1.494-1.2,2.707,2.707,0,0,1-.536-1.591h2.769a1.145,1.145,0,0,0,.439.962,1.808,1.808,0,0,0,1.081.3,1.422,1.422,0,0,0,.91-.246A.787.787,0,0,0,21.467-2.672Zm7.69-9.2V-9.51h1.564v2.057H29.158V-3.1a1.111,1.111,0,0,0,.193.747,1.037,1.037,0,0,0,.765.211,4.345,4.345,0,0,0,.738-.053V-.079a5.466,5.466,0,0,1-1.67.255,3.1,3.1,0,0,1-2.259-.721A2.954,2.954,0,0,1,26.2-2.733v-4.72H24.983V-9.51H26.2v-2.364ZM37.244,0a3.344,3.344,0,0,1-.281-.853A2.754,2.754,0,0,1,34.677.176a3.374,3.374,0,0,1-2.285-.813,2.588,2.588,0,0,1-.94-2.043,2.66,2.66,0,0,1,1.143-2.338,5.821,5.821,0,0,1,3.322-.791h.914v-.5q0-1.316-1.134-1.316a.927.927,0,0,0-1.055,1.042H31.68a2.655,2.655,0,0,1,1.173-2.239,4.931,4.931,0,0,1,2.993-.86A4.323,4.323,0,0,1,38.72-8.8,3.086,3.086,0,0,1,39.8-6.363v4.21a4.311,4.311,0,0,0,.4,2V0ZM35.389-1.934a1.652,1.652,0,0,0,.918-.237,1.487,1.487,0,0,0,.523-.536V-4.228h-.861q-1.547,0-1.547,1.389a.848.848,0,0,0,.272.655A.986.986,0,0,0,35.389-1.934Z" transform="translate(782.69 18584.873)" fill="#12263f"/>
    <path id="Rectángulo_18675" data-name="Rectángulo 18675" d="M14.962,0H166.6a14.962,14.962,0,0,1,14.962,14.962V46.877A14.962,14.962,0,0,1,166.6,61.839H14.962A14.962,14.962,0,0,1,0,46.877V14.962A14.962,14.962,0,0,1,14.962,0Z" transform="translate(453.826 18729.709)" fill="#75baf1"/>
    <path id="Mayorista_de_origen" data-name="Mayorista de origen" d="M-50.036-12.8l2.856,8.9,2.848-8.9h4.061V0h-3.094V-2.988l.3-6.117L-46.16,0H-48.2l-3.1-9.114.3,6.126V0h-3.085V-12.8ZM-33.091,0a3.344,3.344,0,0,1-.281-.853A2.754,2.754,0,0,1-35.657.176a3.374,3.374,0,0,1-2.285-.813,2.588,2.588,0,0,1-.94-2.043A2.66,2.66,0,0,1-37.74-5.019a5.821,5.821,0,0,1,3.322-.791h.914v-.5q0-1.316-1.134-1.316a.927.927,0,0,0-1.055,1.042h-2.962a2.655,2.655,0,0,1,1.173-2.239,4.931,4.931,0,0,1,2.993-.86,4.323,4.323,0,0,1,2.874.888,3.086,3.086,0,0,1,1.081,2.435v4.21a4.311,4.311,0,0,0,.4,2V0Zm-1.854-1.934a1.652,1.652,0,0,0,.918-.237,1.487,1.487,0,0,0,.523-.536V-4.228h-.861q-1.547,0-1.547,1.389a.848.848,0,0,0,.272.655A.986.986,0,0,0-34.945-1.934Zm9.721-2.215,1.582-5.361h3.173l-3.876,11.1-.167.4a2.944,2.944,0,0,1-2.918,1.846,4.642,4.642,0,0,1-1.222-.175V1.556h.387a2.026,2.026,0,0,0,.954-.18,1.094,1.094,0,0,0,.488-.647L-26.587.1l-3.3-9.605h3.164Zm5.019-.694a5.613,5.613,0,0,1,.554-2.536,3.96,3.96,0,0,1,1.591-1.709,4.791,4.791,0,0,1,2.435-.6,4.373,4.373,0,0,1,3.366,1.323,5.076,5.076,0,0,1,1.23,3.6v.105a4.925,4.925,0,0,1-1.235,3.529A4.384,4.384,0,0,1-15.609.176,4.434,4.434,0,0,1-18.87-1.042a4.761,4.761,0,0,1-1.327-3.3Zm2.962.185a3.538,3.538,0,0,0,.413,1.934,1.376,1.376,0,0,0,1.222.615q1.582,0,1.617-2.435v-.3q0-2.558-1.635-2.558-1.485,0-1.608,2.206ZM-3.973-6.829l-.976-.07a1.752,1.752,0,0,0-1.793.879V0H-9.7V-9.51h2.777l.1,1.222a2.294,2.294,0,0,1,2.083-1.4,2.888,2.888,0,0,1,.826.105ZM.22,0H-2.751V-9.51H.22ZM-2.927-11.962A1.322,1.322,0,0,1-2.47-13a1.724,1.724,0,0,1,1.187-.4A1.724,1.724,0,0,1-.1-13,1.322,1.322,0,0,1,.36-11.962,1.322,1.322,0,0,1-.1-10.925a1.724,1.724,0,0,1-1.187.4,1.724,1.724,0,0,1-1.187-.4A1.322,1.322,0,0,1-2.927-11.962Zm9.949,9.29a.684.684,0,0,0-.4-.606,6.016,6.016,0,0,0-1.5-.475A6.853,6.853,0,0,1,3.3-4.4,3.062,3.062,0,0,1,2.2-5.37a2.319,2.319,0,0,1-.378-1.31A2.628,2.628,0,0,1,2.9-8.837a4.453,4.453,0,0,1,2.83-.848,4.934,4.934,0,0,1,3.023.853A2.666,2.666,0,0,1,9.9-6.592H6.926q0-1.143-1.2-1.143a1.194,1.194,0,0,0-.782.259.8.8,0,0,0-.316.646.737.737,0,0,0,.387.642,3.654,3.654,0,0,0,1.235.4,10.671,10.671,0,0,1,1.49.378A2.706,2.706,0,0,1,9.879-2.76,2.491,2.491,0,0,1,8.723-.642,5.068,5.068,0,0,1,5.73.176a5.172,5.172,0,0,1-2.18-.439,3.645,3.645,0,0,1-1.494-1.2A2.707,2.707,0,0,1,1.521-3.05H4.289a1.145,1.145,0,0,0,.439.962,1.808,1.808,0,0,0,1.081.3,1.422,1.422,0,0,0,.91-.246A.787.787,0,0,0,7.022-2.672Zm7.69-9.2V-9.51h1.564v2.057H14.713V-3.1a1.111,1.111,0,0,0,.193.747,1.037,1.037,0,0,0,.765.211,4.345,4.345,0,0,0,.738-.053V-.079a5.466,5.466,0,0,1-1.67.255A3.1,3.1,0,0,1,12.48-.545a2.954,2.954,0,0,1-.729-2.188v-4.72H10.538V-9.51h1.213v-2.364ZM22.8,0a3.344,3.344,0,0,1-.281-.853A2.754,2.754,0,0,1,20.232.176a3.374,3.374,0,0,1-2.285-.813,2.588,2.588,0,0,1-.94-2.043,2.66,2.66,0,0,1,1.143-2.338,5.821,5.821,0,0,1,3.322-.791h.914v-.5q0-1.316-1.134-1.316A.927.927,0,0,0,20.2-6.587H17.235a2.655,2.655,0,0,1,1.173-2.239,4.931,4.931,0,0,1,2.993-.86,4.323,4.323,0,0,1,2.874.888,3.086,3.086,0,0,1,1.081,2.435v4.21a4.311,4.311,0,0,0,.4,2V0ZM20.944-1.934a1.652,1.652,0,0,0,.918-.237,1.487,1.487,0,0,0,.523-.536V-4.228h-.861q-1.547,0-1.547,1.389a.848.848,0,0,0,.272.655A.986.986,0,0,0,20.944-1.934ZM31.1-4.825a5.809,5.809,0,0,1,.976-3.56,3.211,3.211,0,0,1,2.725-1.3,2.731,2.731,0,0,1,2.145,1V-13.5H39.92V0H37.257l-.149-1.02a2.8,2.8,0,0,1-2.32,1.2,3.205,3.205,0,0,1-2.689-1.3A5.993,5.993,0,0,1,31.1-4.825Zm2.962.185q0,2.531,1.477,2.531a1.458,1.458,0,0,0,1.406-.826V-6.557A1.419,1.419,0,0,0,35.561-7.4q-1.371,0-1.485,2.215ZM46.2.176a4.889,4.889,0,0,1-3.542-1.305,4.507,4.507,0,0,1-1.354-3.4v-.246a5.84,5.84,0,0,1,.541-2.575,3.955,3.955,0,0,1,1.578-1.727,4.763,4.763,0,0,1,2.461-.611,4.117,4.117,0,0,1,3.164,1.244,4.887,4.887,0,0,1,1.16,3.467v1.151H44.323a2.135,2.135,0,0,0,.694,1.257,2.066,2.066,0,0,0,1.389.457,2.662,2.662,0,0,0,2.2-.984l1.354,1.6A3.784,3.784,0,0,1,48.388-.277,5.3,5.3,0,0,1,46.2.176ZM45.87-7.4q-1.3,0-1.547,1.723h2.988v-.229a1.467,1.467,0,0,0-.36-1.1A1.434,1.434,0,0,0,45.87-7.4Zm-71.5,22.558a5.613,5.613,0,0,1,.554-2.536,3.96,3.96,0,0,1,1.591-1.709,4.791,4.791,0,0,1,2.435-.6,4.373,4.373,0,0,1,3.366,1.323,5.076,5.076,0,0,1,1.23,3.6v.105a4.925,4.925,0,0,1-1.235,3.529,4.384,4.384,0,0,1-3.344,1.305A4.434,4.434,0,0,1-24.3,18.958a4.761,4.761,0,0,1-1.327-3.3Zm2.962.185a3.538,3.538,0,0,0,.413,1.934,1.376,1.376,0,0,0,1.222.615q1.582,0,1.617-2.435v-.3q0-2.558-1.635-2.558-1.485,0-1.608,2.206ZM-9.4,13.171l-.976-.07a1.752,1.752,0,0,0-1.793.879V20H-15.13V10.49h2.777l.1,1.222a2.294,2.294,0,0,1,2.083-1.4,2.888,2.888,0,0,1,.826.105ZM-5.208,20H-8.178V10.49h2.971ZM-8.354,8.038A1.322,1.322,0,0,1-7.9,7,1.724,1.724,0,0,1-6.71,6.6,1.724,1.724,0,0,1-5.524,7a1.322,1.322,0,0,1,.457,1.037,1.322,1.322,0,0,1-.457,1.037,1.724,1.724,0,0,1-1.187.4,1.724,1.724,0,0,1-1.187-.4A1.322,1.322,0,0,1-8.354,8.038Zm4.623,7.137a6.421,6.421,0,0,1,.475-2.549,3.821,3.821,0,0,1,1.362-1.709,3.591,3.591,0,0,1,2.065-.6,2.855,2.855,0,0,1,2.32,1L2.6,10.49H5.287V19.64A4.009,4.009,0,0,1,4.7,21.824,3.75,3.75,0,0,1,3.01,23.248a6.219,6.219,0,0,1-2.566.5,5.365,5.365,0,0,1-2.026-.4,3.657,3.657,0,0,1-1.5-1.028l1.239-1.74a2.716,2.716,0,0,0,2.18.976,1.764,1.764,0,0,0,1.969-2.021v-.3a2.781,2.781,0,0,1-2.153.94,3.437,3.437,0,0,1-2.812-1.332A5.517,5.517,0,0,1-3.731,15.28Zm2.971.185a3.383,3.383,0,0,0,.439,1.85,1.386,1.386,0,0,0,1.23.681,1.573,1.573,0,0,0,1.4-.642v-4a1.534,1.534,0,0,0-1.38-.65,1.4,1.4,0,0,0-1.239.708A3.858,3.858,0,0,0-.76,15.359Zm12.331,4.816a4.889,4.889,0,0,1-3.542-1.305,4.507,4.507,0,0,1-1.354-3.4v-.246a5.84,5.84,0,0,1,.541-2.575,3.955,3.955,0,0,1,1.578-1.727,4.763,4.763,0,0,1,2.461-.611,4.117,4.117,0,0,1,3.164,1.244,4.887,4.887,0,0,1,1.16,3.467v1.151H9.69a2.135,2.135,0,0,0,.694,1.257,2.066,2.066,0,0,0,1.389.457,2.662,2.662,0,0,0,2.2-.984l1.354,1.6a3.784,3.784,0,0,1-1.569,1.217A5.3,5.3,0,0,1,11.571,20.176ZM11.237,12.6q-1.3,0-1.547,1.723h2.988v-.229a1.467,1.467,0,0,0-.36-1.1A1.434,1.434,0,0,0,11.237,12.6ZM19.49,10.49l.1,1.116A3.225,3.225,0,0,1,22.3,10.314a2.713,2.713,0,0,1,2.219.888,4.226,4.226,0,0,1,.76,2.672V20H22.311V14a1.6,1.6,0,0,0-.29-1.059,1.342,1.342,0,0,0-1.055-.338,1.413,1.413,0,0,0-1.292.686V20H16.712V10.49Z" transform="translate(546 18756.436)" fill="#12263f"/>
    <path id="Rectángulo_18676" data-name="Rectángulo 18676" d="M14.962,0H166.6a14.962,14.962,0,0,1,14.962,14.962V46.877A14.962,14.962,0,0,1,166.6,61.839H14.962A14.962,14.962,0,0,1,0,46.877V14.962A14.962,14.962,0,0,1,14.962,0Z" transform="translate(453.826 18636.967)" fill="#75baf1"/>
    <path id="Distribuidor" d="M-47.052,0V-12.8h4.122a6.064,6.064,0,0,1,3.05.769,5.406,5.406,0,0,1,2.114,2.171A6.554,6.554,0,0,1-37-6.715v.589a6.592,6.592,0,0,1-.743,3.151A5.429,5.429,0,0,1-39.832-.8a5.93,5.93,0,0,1-3.01.8Zm3.085-10.415v8.042H-42.9a2.4,2.4,0,0,0,2.039-.945,4.63,4.63,0,0,0,.712-2.808V-6.68a4.592,4.592,0,0,0-.712-2.795,2.442,2.442,0,0,0-2.074-.94ZM-32.427,0H-35.4V-9.51h2.971Zm-3.146-11.962A1.322,1.322,0,0,1-35.117-13a1.724,1.724,0,0,1,1.187-.4,1.724,1.724,0,0,1,1.187.4,1.322,1.322,0,0,1,.457,1.037,1.322,1.322,0,0,1-.457,1.037,1.724,1.724,0,0,1-1.187.4,1.724,1.724,0,0,1-1.187-.4A1.322,1.322,0,0,1-35.574-11.962Zm9.949,9.29a.684.684,0,0,0-.4-.606,6.016,6.016,0,0,0-1.5-.475A6.853,6.853,0,0,1-29.351-4.4a3.062,3.062,0,0,1-1.1-.971,2.319,2.319,0,0,1-.378-1.31,2.628,2.628,0,0,1,1.081-2.158,4.453,4.453,0,0,1,2.83-.848,4.934,4.934,0,0,1,3.023.853A2.666,2.666,0,0,1-22.75-6.592h-2.971q0-1.143-1.2-1.143a1.194,1.194,0,0,0-.782.259.8.8,0,0,0-.316.646.737.737,0,0,0,.387.642,3.654,3.654,0,0,0,1.235.4,10.671,10.671,0,0,1,1.49.378A2.706,2.706,0,0,1-22.768-2.76,2.491,2.491,0,0,1-23.924-.642a5.068,5.068,0,0,1-2.993.817A5.172,5.172,0,0,1-29.1-.264a3.645,3.645,0,0,1-1.494-1.2,2.707,2.707,0,0,1-.536-1.591h2.769a1.145,1.145,0,0,0,.439.962,1.808,1.808,0,0,0,1.081.3,1.422,1.422,0,0,0,.91-.246A.787.787,0,0,0-25.625-2.672Zm7.69-9.2V-9.51h1.564v2.057h-1.564V-3.1a1.111,1.111,0,0,0,.193.747,1.037,1.037,0,0,0,.765.211,4.345,4.345,0,0,0,.738-.053V-.079a5.466,5.466,0,0,1-1.67.255,3.1,3.1,0,0,1-2.259-.721A2.954,2.954,0,0,1-20.9-2.733v-4.72h-1.213V-9.51H-20.9v-2.364Zm8.481,5.045-.976-.07a1.752,1.752,0,0,0-1.793.879V0h-2.962V-9.51h2.777l.1,1.222a2.294,2.294,0,0,1,2.083-1.4A2.888,2.888,0,0,1-9.4-9.58ZM-5.26,0H-8.231V-9.51H-5.26ZM-8.407-11.962A1.322,1.322,0,0,1-7.95-13a1.724,1.724,0,0,1,1.187-.4,1.724,1.724,0,0,1,1.187.4,1.322,1.322,0,0,1,.457,1.037,1.322,1.322,0,0,1-.457,1.037,1.724,1.724,0,0,1-1.187.4,1.724,1.724,0,0,1-1.187-.4A1.322,1.322,0,0,1-8.407-11.962Zm13.8,7.286a5.8,5.8,0,0,1-.967,3.595A3.238,3.238,0,0,1,1.7.176,2.81,2.81,0,0,1-.637-.976L-.76,0H-3.415V-13.5H-.453v4.755a2.711,2.711,0,0,1,2.136-.94A3.239,3.239,0,0,1,4.425-8.411a5.826,5.826,0,0,1,.967,3.586ZM2.421-4.865a3.866,3.866,0,0,0-.365-1.952A1.229,1.229,0,0,0,.936-7.4a1.418,1.418,0,0,0-1.389.763v3.773a1.426,1.426,0,0,0,1.406.755A1.258,1.258,0,0,0,2.281-3.127,7.309,7.309,0,0,0,2.421-4.865Zm9.94,3.836a3.054,3.054,0,0,1-2.54,1.2,3,3,0,0,1-2.369-.91,3.826,3.826,0,0,1-.8-2.615V-9.51H9.611v6.179A1.065,1.065,0,0,0,10.8-2.109a1.548,1.548,0,0,0,1.45-.729V-9.51h2.979V0H12.45ZM19.973,0H17V-9.51h2.971ZM16.827-11.962A1.322,1.322,0,0,1,17.284-13a1.724,1.724,0,0,1,1.187-.4,1.724,1.724,0,0,1,1.187.4,1.322,1.322,0,0,1,.457,1.037,1.322,1.322,0,0,1-.457,1.037,1.724,1.724,0,0,1-1.187.4,1.724,1.724,0,0,1-1.187-.4A1.322,1.322,0,0,1,16.827-11.962Zm4.6,7.137a5.809,5.809,0,0,1,.976-3.56,3.211,3.211,0,0,1,2.725-1.3,2.731,2.731,0,0,1,2.145,1V-13.5h2.971V0H27.576l-.149-1.02a2.8,2.8,0,0,1-2.32,1.2,3.205,3.205,0,0,1-2.689-1.3A5.993,5.993,0,0,1,21.423-4.825Zm2.962.185q0,2.531,1.477,2.531a1.458,1.458,0,0,0,1.406-.826V-6.557A1.419,1.419,0,0,0,25.879-7.4q-1.371,0-1.485,2.215Zm7.163-.2A5.613,5.613,0,0,1,32.1-7.378a3.96,3.96,0,0,1,1.591-1.709,4.791,4.791,0,0,1,2.435-.6,4.373,4.373,0,0,1,3.366,1.323,5.076,5.076,0,0,1,1.23,3.6v.105a4.925,4.925,0,0,1-1.235,3.529A4.384,4.384,0,0,1,36.145.176a4.434,4.434,0,0,1-3.261-1.217,4.761,4.761,0,0,1-1.327-3.3Zm2.962.185a3.538,3.538,0,0,0,.413,1.934,1.376,1.376,0,0,0,1.222.615q1.582,0,1.617-2.435v-.3q0-2.558-1.635-2.558-1.485,0-1.608,2.206ZM47.782-6.829l-.976-.07a1.752,1.752,0,0,0-1.793.879V0H42.051V-9.51h2.777l.1,1.222a2.294,2.294,0,0,1,2.083-1.4,2.888,2.888,0,0,1,.826.105Z" transform="translate(544.166 18674.615)" fill="#12263f"/>
  </g>
</svg>
