<svg xmlns="http://www.w3.org/2000/svg" width="1240" height="644.436" viewBox="0 0 1240 644.436">
  <g id="Grupo_1102803" data-name="Grupo 1102803" transform="translate(-180 -19590.717)">
    <path id="Rectángulo_18679" data-name="Rectángulo 18679" d="M23.382,0H1216.618A23.382,23.382,0,0,1,1240,23.382V621.054a23.382,23.382,0,0,1-23.382,23.382H23.382A23.382,23.382,0,0,1,0,621.054V23.382A23.382,23.382,0,0,1,23.382,0Z" transform="translate(180 19590.717)" fill="#bde9f9" opacity="0.3"/>
    <path id="Línea_265" data-name="Línea 265" d="M727.224,1H0V-1H727.224Z" transform="translate(516.461 19695.549)" fill="#6e3dc6"/>
    <path id="Línea_266" data-name="Línea 266" d="M708.982,1H0V-1H708.982Z" transform="translate(495 19759.814)" fill="#6e3dc6"/>
    <path id="Línea_267" data-name="Línea 267" d="M712.71,1H0V-1H712.71Z" transform="translate(497.79 19861.533)" fill="#6e3dc6"/>
    <path id="Línea_268" data-name="Línea 268" d="M735.5,1H0V-1H735.5Z" transform="translate(495 19997.15)" fill="#6e3dc6"/>
    <path id="Línea_273" data-name="Línea 273" d="M714,1H0V-1H714Z" transform="translate(516.5 20120.295)" fill="#6e3dc6"/>
    <path id="Rectángulo_18680" data-name="Rectángulo 18680" d="M14.962,0H134.255a14.962,14.962,0,0,1,14.962,14.962V46.877a14.962,14.962,0,0,1-14.962,14.962H14.962A14.962,14.962,0,0,1,0,46.877V14.962A14.962,14.962,0,0,1,14.962,0Z" transform="translate(1203.982 20088.639)" fill="#be79ca"/>
    <path id="Consumidor" d="M11.32-4.333a4.673,4.673,0,0,1-.721,2.36A4.35,4.35,0,0,1,8.75-.387a6.3,6.3,0,0,1-2.72.563A5.025,5.025,0,0,1,2.057-1.468,6.786,6.786,0,0,1,.606-6.108v-.633a7.746,7.746,0,0,1,.655-3.292,4.961,4.961,0,0,1,1.885-2.18,5.26,5.26,0,0,1,2.848-.769,5.516,5.516,0,0,1,3.744,1.226,4.844,4.844,0,0,1,1.608,3.379H8.271a2.292,2.292,0,0,0-.589-1.679,2.422,2.422,0,0,0-1.687-.51A1.843,1.843,0,0,0,4.307-9.7a5.536,5.536,0,0,0-.562,2.751v.905A6.125,6.125,0,0,0,4.258-3.12a1.882,1.882,0,0,0,1.771.879,2.369,2.369,0,0,0,1.626-.5,2.126,2.126,0,0,0,.6-1.591Zm.949-.51a5.613,5.613,0,0,1,.554-2.536,3.96,3.96,0,0,1,1.591-1.709,4.791,4.791,0,0,1,2.435-.6,4.373,4.373,0,0,1,3.366,1.323,5.076,5.076,0,0,1,1.23,3.6v.105A4.925,4.925,0,0,1,20.21-1.129,4.384,4.384,0,0,1,16.866.176a4.434,4.434,0,0,1-3.261-1.217,4.761,4.761,0,0,1-1.327-3.3Zm2.962.185a3.538,3.538,0,0,0,.413,1.934,1.376,1.376,0,0,0,1.222.615q1.582,0,1.617-2.435v-.3q0-2.558-1.635-2.558-1.485,0-1.608,2.206ZM25.471-9.51l.1,1.116a3.225,3.225,0,0,1,2.716-1.292A2.713,2.713,0,0,1,30.5-8.8a4.226,4.226,0,0,1,.76,2.672V0H28.292V-6A1.6,1.6,0,0,0,28-7.062,1.342,1.342,0,0,0,26.947-7.4a1.413,1.413,0,0,0-1.292.686V0H22.693V-9.51Zm12.41,6.838a.684.684,0,0,0-.4-.606,6.016,6.016,0,0,0-1.5-.475A6.853,6.853,0,0,1,34.154-4.4a3.062,3.062,0,0,1-1.1-.971,2.319,2.319,0,0,1-.378-1.31,2.628,2.628,0,0,1,1.081-2.158,4.453,4.453,0,0,1,2.83-.848,4.934,4.934,0,0,1,3.023.853,2.666,2.666,0,0,1,1.143,2.241H37.784q0-1.143-1.2-1.143a1.194,1.194,0,0,0-.782.259.8.8,0,0,0-.316.646.737.737,0,0,0,.387.642,3.654,3.654,0,0,0,1.235.4,10.671,10.671,0,0,1,1.49.378A2.706,2.706,0,0,1,40.737-2.76,2.491,2.491,0,0,1,39.582-.642a5.068,5.068,0,0,1-2.993.817,5.172,5.172,0,0,1-2.18-.439,3.645,3.645,0,0,1-1.494-1.2,2.707,2.707,0,0,1-.536-1.591h2.769a1.145,1.145,0,0,0,.439.962,1.808,1.808,0,0,0,1.081.3,1.422,1.422,0,0,0,.91-.246A.787.787,0,0,0,37.881-2.672Zm9.905,1.644a3.054,3.054,0,0,1-2.54,1.2,3,3,0,0,1-2.369-.91,3.826,3.826,0,0,1-.8-2.615V-9.51h2.962v6.179a1.065,1.065,0,0,0,1.187,1.222,1.548,1.548,0,0,0,1.45-.729V-9.51h2.979V0H47.874ZM55.072-9.51l.1,1.116a3.27,3.27,0,0,1,2.716-1.292,2.407,2.407,0,0,1,2.435,1.433,3.165,3.165,0,0,1,2.795-1.433q2.892,0,2.971,3.5V0H63.114V-6a1.813,1.813,0,0,0-.246-1.063,1.048,1.048,0,0,0-.9-.334,1.4,1.4,0,0,0-1.31.782l.009.123V0H57.7V-5.985a1.906,1.906,0,0,0-.237-1.081,1.045,1.045,0,0,0-.905-.334,1.42,1.42,0,0,0-1.3.782V0H52.295V-9.51ZM70.9,0H67.931V-9.51H70.9ZM67.755-11.962A1.322,1.322,0,0,1,68.212-13a1.724,1.724,0,0,1,1.187-.4,1.724,1.724,0,0,1,1.187.4,1.322,1.322,0,0,1,.457,1.037,1.322,1.322,0,0,1-.457,1.037,1.724,1.724,0,0,1-1.187.4,1.724,1.724,0,0,1-1.187-.4A1.322,1.322,0,0,1,67.755-11.962Zm4.6,7.137a5.809,5.809,0,0,1,.976-3.56,3.211,3.211,0,0,1,2.725-1.3,2.731,2.731,0,0,1,2.145,1V-13.5h2.971V0H78.5l-.149-1.02a2.8,2.8,0,0,1-2.32,1.2,3.205,3.205,0,0,1-2.689-1.3A5.993,5.993,0,0,1,72.352-4.825Zm2.962.185q0,2.531,1.477,2.531A1.458,1.458,0,0,0,78.2-2.936V-6.557A1.419,1.419,0,0,0,76.808-7.4q-1.371,0-1.485,2.215Zm7.163-.2a5.613,5.613,0,0,1,.554-2.536,3.96,3.96,0,0,1,1.591-1.709,4.791,4.791,0,0,1,2.435-.6,4.373,4.373,0,0,1,3.366,1.323,5.076,5.076,0,0,1,1.23,3.6v.105a4.925,4.925,0,0,1-1.235,3.529A4.384,4.384,0,0,1,87.073.176a4.434,4.434,0,0,1-3.261-1.217,4.761,4.761,0,0,1-1.327-3.3Zm2.962.185a3.538,3.538,0,0,0,.413,1.934,1.376,1.376,0,0,0,1.222.615q1.582,0,1.617-2.435v-.3q0-2.558-1.635-2.558-1.485,0-1.608,2.206ZM98.71-6.829l-.976-.07a1.752,1.752,0,0,0-1.793.879V0H92.979V-9.51h2.777l.1,1.222a2.294,2.294,0,0,1,2.083-1.4,2.888,2.888,0,0,1,.826.105Z" transform="translate(1232.861 20124.264)" fill="#fff"/>
    <path id="Rectángulo_18681" data-name="Rectángulo 18681" d="M14.962,0H134.255a14.962,14.962,0,0,1,14.962,14.962V46.877a14.962,14.962,0,0,1-14.962,14.962H14.962A14.962,14.962,0,0,1,0,46.877V14.962A14.962,14.962,0,0,1,14.962,0Z" transform="translate(1203.982 19970.912)" fill="#be79ca"/>
    <path id="Consumidor-2" data-name="Consumidor" d="M11.32-4.333a4.673,4.673,0,0,1-.721,2.36A4.35,4.35,0,0,1,8.75-.387a6.3,6.3,0,0,1-2.72.563A5.025,5.025,0,0,1,2.057-1.468,6.786,6.786,0,0,1,.606-6.108v-.633a7.746,7.746,0,0,1,.655-3.292,4.961,4.961,0,0,1,1.885-2.18,5.26,5.26,0,0,1,2.848-.769,5.516,5.516,0,0,1,3.744,1.226,4.844,4.844,0,0,1,1.608,3.379H8.271a2.292,2.292,0,0,0-.589-1.679,2.422,2.422,0,0,0-1.687-.51A1.843,1.843,0,0,0,4.307-9.7a5.536,5.536,0,0,0-.562,2.751v.905A6.125,6.125,0,0,0,4.258-3.12a1.882,1.882,0,0,0,1.771.879,2.369,2.369,0,0,0,1.626-.5,2.126,2.126,0,0,0,.6-1.591Zm.949-.51a5.613,5.613,0,0,1,.554-2.536,3.96,3.96,0,0,1,1.591-1.709,4.791,4.791,0,0,1,2.435-.6,4.373,4.373,0,0,1,3.366,1.323,5.076,5.076,0,0,1,1.23,3.6v.105A4.925,4.925,0,0,1,20.21-1.129,4.384,4.384,0,0,1,16.866.176a4.434,4.434,0,0,1-3.261-1.217,4.761,4.761,0,0,1-1.327-3.3Zm2.962.185a3.538,3.538,0,0,0,.413,1.934,1.376,1.376,0,0,0,1.222.615q1.582,0,1.617-2.435v-.3q0-2.558-1.635-2.558-1.485,0-1.608,2.206ZM25.471-9.51l.1,1.116a3.225,3.225,0,0,1,2.716-1.292A2.713,2.713,0,0,1,30.5-8.8a4.226,4.226,0,0,1,.76,2.672V0H28.292V-6A1.6,1.6,0,0,0,28-7.062,1.342,1.342,0,0,0,26.947-7.4a1.413,1.413,0,0,0-1.292.686V0H22.693V-9.51Zm12.41,6.838a.684.684,0,0,0-.4-.606,6.016,6.016,0,0,0-1.5-.475A6.853,6.853,0,0,1,34.154-4.4a3.062,3.062,0,0,1-1.1-.971,2.319,2.319,0,0,1-.378-1.31,2.628,2.628,0,0,1,1.081-2.158,4.453,4.453,0,0,1,2.83-.848,4.934,4.934,0,0,1,3.023.853,2.666,2.666,0,0,1,1.143,2.241H37.784q0-1.143-1.2-1.143a1.194,1.194,0,0,0-.782.259.8.8,0,0,0-.316.646.737.737,0,0,0,.387.642,3.654,3.654,0,0,0,1.235.4,10.671,10.671,0,0,1,1.49.378A2.706,2.706,0,0,1,40.737-2.76,2.491,2.491,0,0,1,39.582-.642a5.068,5.068,0,0,1-2.993.817,5.172,5.172,0,0,1-2.18-.439,3.645,3.645,0,0,1-1.494-1.2,2.707,2.707,0,0,1-.536-1.591h2.769a1.145,1.145,0,0,0,.439.962,1.808,1.808,0,0,0,1.081.3,1.422,1.422,0,0,0,.91-.246A.787.787,0,0,0,37.881-2.672Zm9.905,1.644a3.054,3.054,0,0,1-2.54,1.2,3,3,0,0,1-2.369-.91,3.826,3.826,0,0,1-.8-2.615V-9.51h2.962v6.179a1.065,1.065,0,0,0,1.187,1.222,1.548,1.548,0,0,0,1.45-.729V-9.51h2.979V0H47.874ZM55.072-9.51l.1,1.116a3.27,3.27,0,0,1,2.716-1.292,2.407,2.407,0,0,1,2.435,1.433,3.165,3.165,0,0,1,2.795-1.433q2.892,0,2.971,3.5V0H63.114V-6a1.813,1.813,0,0,0-.246-1.063,1.048,1.048,0,0,0-.9-.334,1.4,1.4,0,0,0-1.31.782l.009.123V0H57.7V-5.985a1.906,1.906,0,0,0-.237-1.081,1.045,1.045,0,0,0-.905-.334,1.42,1.42,0,0,0-1.3.782V0H52.295V-9.51ZM70.9,0H67.931V-9.51H70.9ZM67.755-11.962A1.322,1.322,0,0,1,68.212-13a1.724,1.724,0,0,1,1.187-.4,1.724,1.724,0,0,1,1.187.4,1.322,1.322,0,0,1,.457,1.037,1.322,1.322,0,0,1-.457,1.037,1.724,1.724,0,0,1-1.187.4,1.724,1.724,0,0,1-1.187-.4A1.322,1.322,0,0,1,67.755-11.962Zm4.6,7.137a5.809,5.809,0,0,1,.976-3.56,3.211,3.211,0,0,1,2.725-1.3,2.731,2.731,0,0,1,2.145,1V-13.5h2.971V0H78.5l-.149-1.02a2.8,2.8,0,0,1-2.32,1.2,3.205,3.205,0,0,1-2.689-1.3A5.993,5.993,0,0,1,72.352-4.825Zm2.962.185q0,2.531,1.477,2.531A1.458,1.458,0,0,0,78.2-2.936V-6.557A1.419,1.419,0,0,0,76.808-7.4q-1.371,0-1.485,2.215Zm7.163-.2a5.613,5.613,0,0,1,.554-2.536,3.96,3.96,0,0,1,1.591-1.709,4.791,4.791,0,0,1,2.435-.6,4.373,4.373,0,0,1,3.366,1.323,5.076,5.076,0,0,1,1.23,3.6v.105a4.925,4.925,0,0,1-1.235,3.529A4.384,4.384,0,0,1,87.073.176a4.434,4.434,0,0,1-3.261-1.217,4.761,4.761,0,0,1-1.327-3.3Zm2.962.185a3.538,3.538,0,0,0,.413,1.934,1.376,1.376,0,0,0,1.222.615q1.582,0,1.617-2.435v-.3q0-2.558-1.635-2.558-1.485,0-1.608,2.206ZM98.71-6.829l-.976-.07a1.752,1.752,0,0,0-1.793.879V0H92.979V-9.51h2.777l.1,1.222a2.294,2.294,0,0,1,2.083-1.4,2.888,2.888,0,0,1,.826.105Z" transform="translate(1232.861 20007.537)" fill="#fff"/>
    <path id="Rectángulo_18682" data-name="Rectángulo 18682" d="M14.962,0H134.255a14.962,14.962,0,0,1,14.962,14.962V46.877a14.962,14.962,0,0,1-14.962,14.962H14.962A14.962,14.962,0,0,1,0,46.877V14.962A14.962,14.962,0,0,1,14.962,0Z" transform="translate(1203.982 19833.174)" fill="#be79ca"/>
    <path id="Consumidor-3" data-name="Consumidor" d="M11.32-4.333a4.673,4.673,0,0,1-.721,2.36A4.35,4.35,0,0,1,8.75-.387a6.3,6.3,0,0,1-2.72.563A5.025,5.025,0,0,1,2.057-1.468,6.786,6.786,0,0,1,.606-6.108v-.633a7.746,7.746,0,0,1,.655-3.292,4.961,4.961,0,0,1,1.885-2.18,5.26,5.26,0,0,1,2.848-.769,5.516,5.516,0,0,1,3.744,1.226,4.844,4.844,0,0,1,1.608,3.379H8.271a2.292,2.292,0,0,0-.589-1.679,2.422,2.422,0,0,0-1.687-.51A1.843,1.843,0,0,0,4.307-9.7a5.536,5.536,0,0,0-.562,2.751v.905A6.125,6.125,0,0,0,4.258-3.12a1.882,1.882,0,0,0,1.771.879,2.369,2.369,0,0,0,1.626-.5,2.126,2.126,0,0,0,.6-1.591Zm.949-.51a5.613,5.613,0,0,1,.554-2.536,3.96,3.96,0,0,1,1.591-1.709,4.791,4.791,0,0,1,2.435-.6,4.373,4.373,0,0,1,3.366,1.323,5.076,5.076,0,0,1,1.23,3.6v.105A4.925,4.925,0,0,1,20.21-1.129,4.384,4.384,0,0,1,16.866.176a4.434,4.434,0,0,1-3.261-1.217,4.761,4.761,0,0,1-1.327-3.3Zm2.962.185a3.538,3.538,0,0,0,.413,1.934,1.376,1.376,0,0,0,1.222.615q1.582,0,1.617-2.435v-.3q0-2.558-1.635-2.558-1.485,0-1.608,2.206ZM25.471-9.51l.1,1.116a3.225,3.225,0,0,1,2.716-1.292A2.713,2.713,0,0,1,30.5-8.8a4.226,4.226,0,0,1,.76,2.672V0H28.292V-6A1.6,1.6,0,0,0,28-7.062,1.342,1.342,0,0,0,26.947-7.4a1.413,1.413,0,0,0-1.292.686V0H22.693V-9.51Zm12.41,6.838a.684.684,0,0,0-.4-.606,6.016,6.016,0,0,0-1.5-.475A6.853,6.853,0,0,1,34.154-4.4a3.062,3.062,0,0,1-1.1-.971,2.319,2.319,0,0,1-.378-1.31,2.628,2.628,0,0,1,1.081-2.158,4.453,4.453,0,0,1,2.83-.848,4.934,4.934,0,0,1,3.023.853,2.666,2.666,0,0,1,1.143,2.241H37.784q0-1.143-1.2-1.143a1.194,1.194,0,0,0-.782.259.8.8,0,0,0-.316.646.737.737,0,0,0,.387.642,3.654,3.654,0,0,0,1.235.4,10.671,10.671,0,0,1,1.49.378A2.706,2.706,0,0,1,40.737-2.76,2.491,2.491,0,0,1,39.582-.642a5.068,5.068,0,0,1-2.993.817,5.172,5.172,0,0,1-2.18-.439,3.645,3.645,0,0,1-1.494-1.2,2.707,2.707,0,0,1-.536-1.591h2.769a1.145,1.145,0,0,0,.439.962,1.808,1.808,0,0,0,1.081.3,1.422,1.422,0,0,0,.91-.246A.787.787,0,0,0,37.881-2.672Zm9.905,1.644a3.054,3.054,0,0,1-2.54,1.2,3,3,0,0,1-2.369-.91,3.826,3.826,0,0,1-.8-2.615V-9.51h2.962v6.179a1.065,1.065,0,0,0,1.187,1.222,1.548,1.548,0,0,0,1.45-.729V-9.51h2.979V0H47.874ZM55.072-9.51l.1,1.116a3.27,3.27,0,0,1,2.716-1.292,2.407,2.407,0,0,1,2.435,1.433,3.165,3.165,0,0,1,2.795-1.433q2.892,0,2.971,3.5V0H63.114V-6a1.813,1.813,0,0,0-.246-1.063,1.048,1.048,0,0,0-.9-.334,1.4,1.4,0,0,0-1.31.782l.009.123V0H57.7V-5.985a1.906,1.906,0,0,0-.237-1.081,1.045,1.045,0,0,0-.905-.334,1.42,1.42,0,0,0-1.3.782V0H52.295V-9.51ZM70.9,0H67.931V-9.51H70.9ZM67.755-11.962A1.322,1.322,0,0,1,68.212-13a1.724,1.724,0,0,1,1.187-.4,1.724,1.724,0,0,1,1.187.4,1.322,1.322,0,0,1,.457,1.037,1.322,1.322,0,0,1-.457,1.037,1.724,1.724,0,0,1-1.187.4,1.724,1.724,0,0,1-1.187-.4A1.322,1.322,0,0,1,67.755-11.962Zm4.6,7.137a5.809,5.809,0,0,1,.976-3.56,3.211,3.211,0,0,1,2.725-1.3,2.731,2.731,0,0,1,2.145,1V-13.5h2.971V0H78.5l-.149-1.02a2.8,2.8,0,0,1-2.32,1.2,3.205,3.205,0,0,1-2.689-1.3A5.993,5.993,0,0,1,72.352-4.825Zm2.962.185q0,2.531,1.477,2.531A1.458,1.458,0,0,0,78.2-2.936V-6.557A1.419,1.419,0,0,0,76.808-7.4q-1.371,0-1.485,2.215Zm7.163-.2a5.613,5.613,0,0,1,.554-2.536,3.96,3.96,0,0,1,1.591-1.709,4.791,4.791,0,0,1,2.435-.6,4.373,4.373,0,0,1,3.366,1.323,5.076,5.076,0,0,1,1.23,3.6v.105a4.925,4.925,0,0,1-1.235,3.529A4.384,4.384,0,0,1,87.073.176a4.434,4.434,0,0,1-3.261-1.217,4.761,4.761,0,0,1-1.327-3.3Zm2.962.185a3.538,3.538,0,0,0,.413,1.934,1.376,1.376,0,0,0,1.222.615q1.582,0,1.617-2.435v-.3q0-2.558-1.635-2.558-1.485,0-1.608,2.206ZM98.71-6.829l-.976-.07a1.752,1.752,0,0,0-1.793.879V0H92.979V-9.51h2.777l.1,1.222a2.294,2.294,0,0,1,2.083-1.4,2.888,2.888,0,0,1,.826.105Z" transform="translate(1232.861 19868.799)" fill="#fff"/>
    <path id="Rectángulo_18683" data-name="Rectángulo 18683" d="M14.962,0H134.255a14.962,14.962,0,0,1,14.962,14.962V46.877a14.962,14.962,0,0,1-14.962,14.962H14.962A14.962,14.962,0,0,1,0,46.877V14.962A14.962,14.962,0,0,1,14.962,0Z" transform="translate(1203.982 19653.959)" fill="#be79ca"/>
    <path id="Consumidor-4" data-name="Consumidor" d="M11.32-4.333a4.673,4.673,0,0,1-.721,2.36A4.35,4.35,0,0,1,8.75-.387a6.3,6.3,0,0,1-2.72.563A5.025,5.025,0,0,1,2.057-1.468,6.786,6.786,0,0,1,.606-6.108v-.633a7.746,7.746,0,0,1,.655-3.292,4.961,4.961,0,0,1,1.885-2.18,5.26,5.26,0,0,1,2.848-.769,5.516,5.516,0,0,1,3.744,1.226,4.844,4.844,0,0,1,1.608,3.379H8.271a2.292,2.292,0,0,0-.589-1.679,2.422,2.422,0,0,0-1.687-.51A1.843,1.843,0,0,0,4.307-9.7a5.536,5.536,0,0,0-.562,2.751v.905A6.125,6.125,0,0,0,4.258-3.12a1.882,1.882,0,0,0,1.771.879,2.369,2.369,0,0,0,1.626-.5,2.126,2.126,0,0,0,.6-1.591Zm.949-.51a5.613,5.613,0,0,1,.554-2.536,3.96,3.96,0,0,1,1.591-1.709,4.791,4.791,0,0,1,2.435-.6,4.373,4.373,0,0,1,3.366,1.323,5.076,5.076,0,0,1,1.23,3.6v.105A4.925,4.925,0,0,1,20.21-1.129,4.384,4.384,0,0,1,16.866.176a4.434,4.434,0,0,1-3.261-1.217,4.761,4.761,0,0,1-1.327-3.3Zm2.962.185a3.538,3.538,0,0,0,.413,1.934,1.376,1.376,0,0,0,1.222.615q1.582,0,1.617-2.435v-.3q0-2.558-1.635-2.558-1.485,0-1.608,2.206ZM25.471-9.51l.1,1.116a3.225,3.225,0,0,1,2.716-1.292A2.713,2.713,0,0,1,30.5-8.8a4.226,4.226,0,0,1,.76,2.672V0H28.292V-6A1.6,1.6,0,0,0,28-7.062,1.342,1.342,0,0,0,26.947-7.4a1.413,1.413,0,0,0-1.292.686V0H22.693V-9.51Zm12.41,6.838a.684.684,0,0,0-.4-.606,6.016,6.016,0,0,0-1.5-.475A6.853,6.853,0,0,1,34.154-4.4a3.062,3.062,0,0,1-1.1-.971,2.319,2.319,0,0,1-.378-1.31,2.628,2.628,0,0,1,1.081-2.158,4.453,4.453,0,0,1,2.83-.848,4.934,4.934,0,0,1,3.023.853,2.666,2.666,0,0,1,1.143,2.241H37.784q0-1.143-1.2-1.143a1.194,1.194,0,0,0-.782.259.8.8,0,0,0-.316.646.737.737,0,0,0,.387.642,3.654,3.654,0,0,0,1.235.4,10.671,10.671,0,0,1,1.49.378A2.706,2.706,0,0,1,40.737-2.76,2.491,2.491,0,0,1,39.582-.642a5.068,5.068,0,0,1-2.993.817,5.172,5.172,0,0,1-2.18-.439,3.645,3.645,0,0,1-1.494-1.2,2.707,2.707,0,0,1-.536-1.591h2.769a1.145,1.145,0,0,0,.439.962,1.808,1.808,0,0,0,1.081.3,1.422,1.422,0,0,0,.91-.246A.787.787,0,0,0,37.881-2.672Zm9.905,1.644a3.054,3.054,0,0,1-2.54,1.2,3,3,0,0,1-2.369-.91,3.826,3.826,0,0,1-.8-2.615V-9.51h2.962v6.179a1.065,1.065,0,0,0,1.187,1.222,1.548,1.548,0,0,0,1.45-.729V-9.51h2.979V0H47.874ZM55.072-9.51l.1,1.116a3.27,3.27,0,0,1,2.716-1.292,2.407,2.407,0,0,1,2.435,1.433,3.165,3.165,0,0,1,2.795-1.433q2.892,0,2.971,3.5V0H63.114V-6a1.813,1.813,0,0,0-.246-1.063,1.048,1.048,0,0,0-.9-.334,1.4,1.4,0,0,0-1.31.782l.009.123V0H57.7V-5.985a1.906,1.906,0,0,0-.237-1.081,1.045,1.045,0,0,0-.905-.334,1.42,1.42,0,0,0-1.3.782V0H52.295V-9.51ZM70.9,0H67.931V-9.51H70.9ZM67.755-11.962A1.322,1.322,0,0,1,68.212-13a1.724,1.724,0,0,1,1.187-.4,1.724,1.724,0,0,1,1.187.4,1.322,1.322,0,0,1,.457,1.037,1.322,1.322,0,0,1-.457,1.037,1.724,1.724,0,0,1-1.187.4,1.724,1.724,0,0,1-1.187-.4A1.322,1.322,0,0,1,67.755-11.962Zm4.6,7.137a5.809,5.809,0,0,1,.976-3.56,3.211,3.211,0,0,1,2.725-1.3,2.731,2.731,0,0,1,2.145,1V-13.5h2.971V0H78.5l-.149-1.02a2.8,2.8,0,0,1-2.32,1.2,3.205,3.205,0,0,1-2.689-1.3A5.993,5.993,0,0,1,72.352-4.825Zm2.962.185q0,2.531,1.477,2.531A1.458,1.458,0,0,0,78.2-2.936V-6.557A1.419,1.419,0,0,0,76.808-7.4q-1.371,0-1.485,2.215Zm7.163-.2a5.613,5.613,0,0,1,.554-2.536,3.96,3.96,0,0,1,1.591-1.709,4.791,4.791,0,0,1,2.435-.6,4.373,4.373,0,0,1,3.366,1.323,5.076,5.076,0,0,1,1.23,3.6v.105a4.925,4.925,0,0,1-1.235,3.529A4.384,4.384,0,0,1,87.073.176a4.434,4.434,0,0,1-3.261-1.217,4.761,4.761,0,0,1-1.327-3.3Zm2.962.185a3.538,3.538,0,0,0,.413,1.934,1.376,1.376,0,0,0,1.222.615q1.582,0,1.617-2.435v-.3q0-2.558-1.635-2.558-1.485,0-1.608,2.206ZM98.71-6.829l-.976-.07a1.752,1.752,0,0,0-1.793.879V0H92.979V-9.51h2.777l.1,1.222a2.294,2.294,0,0,1,2.083-1.4,2.888,2.888,0,0,1,.826.105Z" transform="translate(1230.861 19691.58)" fill="#fff"/>
    <path id="Rectángulo_18684" data-name="Rectángulo 18684" d="M14.962,0H134.255a14.962,14.962,0,0,1,14.962,14.962V46.877a14.962,14.962,0,0,1-14.962,14.962H14.962A14.962,14.962,0,0,1,0,46.877V14.962A14.962,14.962,0,0,1,14.962,0Z" transform="translate(1203.982 19729.885)" fill="#be79ca"/>
    <path id="Consumidor-5" data-name="Consumidor" d="M11.32-4.333a4.673,4.673,0,0,1-.721,2.36A4.35,4.35,0,0,1,8.75-.387a6.3,6.3,0,0,1-2.72.563A5.025,5.025,0,0,1,2.057-1.468,6.786,6.786,0,0,1,.606-6.108v-.633a7.746,7.746,0,0,1,.655-3.292,4.961,4.961,0,0,1,1.885-2.18,5.26,5.26,0,0,1,2.848-.769,5.516,5.516,0,0,1,3.744,1.226,4.844,4.844,0,0,1,1.608,3.379H8.271a2.292,2.292,0,0,0-.589-1.679,2.422,2.422,0,0,0-1.687-.51A1.843,1.843,0,0,0,4.307-9.7a5.536,5.536,0,0,0-.562,2.751v.905A6.125,6.125,0,0,0,4.258-3.12a1.882,1.882,0,0,0,1.771.879,2.369,2.369,0,0,0,1.626-.5,2.126,2.126,0,0,0,.6-1.591Zm.949-.51a5.613,5.613,0,0,1,.554-2.536,3.96,3.96,0,0,1,1.591-1.709,4.791,4.791,0,0,1,2.435-.6,4.373,4.373,0,0,1,3.366,1.323,5.076,5.076,0,0,1,1.23,3.6v.105A4.925,4.925,0,0,1,20.21-1.129,4.384,4.384,0,0,1,16.866.176a4.434,4.434,0,0,1-3.261-1.217,4.761,4.761,0,0,1-1.327-3.3Zm2.962.185a3.538,3.538,0,0,0,.413,1.934,1.376,1.376,0,0,0,1.222.615q1.582,0,1.617-2.435v-.3q0-2.558-1.635-2.558-1.485,0-1.608,2.206ZM25.471-9.51l.1,1.116a3.225,3.225,0,0,1,2.716-1.292A2.713,2.713,0,0,1,30.5-8.8a4.226,4.226,0,0,1,.76,2.672V0H28.292V-6A1.6,1.6,0,0,0,28-7.062,1.342,1.342,0,0,0,26.947-7.4a1.413,1.413,0,0,0-1.292.686V0H22.693V-9.51Zm12.41,6.838a.684.684,0,0,0-.4-.606,6.016,6.016,0,0,0-1.5-.475A6.853,6.853,0,0,1,34.154-4.4a3.062,3.062,0,0,1-1.1-.971,2.319,2.319,0,0,1-.378-1.31,2.628,2.628,0,0,1,1.081-2.158,4.453,4.453,0,0,1,2.83-.848,4.934,4.934,0,0,1,3.023.853,2.666,2.666,0,0,1,1.143,2.241H37.784q0-1.143-1.2-1.143a1.194,1.194,0,0,0-.782.259.8.8,0,0,0-.316.646.737.737,0,0,0,.387.642,3.654,3.654,0,0,0,1.235.4,10.671,10.671,0,0,1,1.49.378A2.706,2.706,0,0,1,40.737-2.76,2.491,2.491,0,0,1,39.582-.642a5.068,5.068,0,0,1-2.993.817,5.172,5.172,0,0,1-2.18-.439,3.645,3.645,0,0,1-1.494-1.2,2.707,2.707,0,0,1-.536-1.591h2.769a1.145,1.145,0,0,0,.439.962,1.808,1.808,0,0,0,1.081.3,1.422,1.422,0,0,0,.91-.246A.787.787,0,0,0,37.881-2.672Zm9.905,1.644a3.054,3.054,0,0,1-2.54,1.2,3,3,0,0,1-2.369-.91,3.826,3.826,0,0,1-.8-2.615V-9.51h2.962v6.179a1.065,1.065,0,0,0,1.187,1.222,1.548,1.548,0,0,0,1.45-.729V-9.51h2.979V0H47.874ZM55.072-9.51l.1,1.116a3.27,3.27,0,0,1,2.716-1.292,2.407,2.407,0,0,1,2.435,1.433,3.165,3.165,0,0,1,2.795-1.433q2.892,0,2.971,3.5V0H63.114V-6a1.813,1.813,0,0,0-.246-1.063,1.048,1.048,0,0,0-.9-.334,1.4,1.4,0,0,0-1.31.782l.009.123V0H57.7V-5.985a1.906,1.906,0,0,0-.237-1.081,1.045,1.045,0,0,0-.905-.334,1.42,1.42,0,0,0-1.3.782V0H52.295V-9.51ZM70.9,0H67.931V-9.51H70.9ZM67.755-11.962A1.322,1.322,0,0,1,68.212-13a1.724,1.724,0,0,1,1.187-.4,1.724,1.724,0,0,1,1.187.4,1.322,1.322,0,0,1,.457,1.037,1.322,1.322,0,0,1-.457,1.037,1.724,1.724,0,0,1-1.187.4,1.724,1.724,0,0,1-1.187-.4A1.322,1.322,0,0,1,67.755-11.962Zm4.6,7.137a5.809,5.809,0,0,1,.976-3.56,3.211,3.211,0,0,1,2.725-1.3,2.731,2.731,0,0,1,2.145,1V-13.5h2.971V0H78.5l-.149-1.02a2.8,2.8,0,0,1-2.32,1.2,3.205,3.205,0,0,1-2.689-1.3A5.993,5.993,0,0,1,72.352-4.825Zm2.962.185q0,2.531,1.477,2.531A1.458,1.458,0,0,0,78.2-2.936V-6.557A1.419,1.419,0,0,0,76.808-7.4q-1.371,0-1.485,2.215Zm7.163-.2a5.613,5.613,0,0,1,.554-2.536,3.96,3.96,0,0,1,1.591-1.709,4.791,4.791,0,0,1,2.435-.6,4.373,4.373,0,0,1,3.366,1.323,5.076,5.076,0,0,1,1.23,3.6v.105a4.925,4.925,0,0,1-1.235,3.529A4.384,4.384,0,0,1,87.073.176a4.434,4.434,0,0,1-3.261-1.217,4.761,4.761,0,0,1-1.327-3.3Zm2.962.185a3.538,3.538,0,0,0,.413,1.934,1.376,1.376,0,0,0,1.222.615q1.582,0,1.617-2.435v-.3q0-2.558-1.635-2.558-1.485,0-1.608,2.206ZM98.71-6.829l-.976-.07a1.752,1.752,0,0,0-1.793.879V0H92.979V-9.51h2.777l.1,1.222a2.294,2.294,0,0,1,2.083-1.4,2.888,2.888,0,0,1,.826.105Z" transform="translate(1230.861 19767.51)" fill="#fff"/>
    <path id="Rectángulo_18685" data-name="Rectángulo 18685" d="M14.962,0H348.69a14.962,14.962,0,0,1,14.962,14.962V46.877A14.962,14.962,0,0,1,348.69,61.839H14.962A14.962,14.962,0,0,1,0,46.877V14.962A14.962,14.962,0,0,1,14.962,0Z" transform="translate(226.865 20194.266) rotate(-90)" fill="#6e3dc6"/>
    <path id="Indirecto" d="M4.994,0H1.682V-14.7H4.994ZM18.16,0H14.93V-5.834q0-2.44-1.743-2.44a1.73,1.73,0,0,0-1.384.646,2.461,2.461,0,0,0-.543,1.641V0H8.019V-10.5h3.24v1.661H11.3a3.713,3.713,0,0,1,3.374-1.917q3.486,0,3.486,4.327ZM31,0h-3.24V-1.446h-.041a3.633,3.633,0,0,1-3.25,1.7A3.981,3.981,0,0,1,21.3-1.133a5.752,5.752,0,0,1-1.2-3.881A6.26,6.26,0,0,1,21.42-9.187a4.315,4.315,0,0,1,3.466-1.569A2.948,2.948,0,0,1,27.716-9.3h.041v-6.245H31ZM27.819-5.106V-5.9a2.485,2.485,0,0,0-.595-1.7,1.964,1.964,0,0,0-1.548-.677,1.952,1.952,0,0,0-1.682.846,3.928,3.928,0,0,0-.6,2.323,3.4,3.4,0,0,0,.584,2.133,1.941,1.941,0,0,0,1.62.749,1.949,1.949,0,0,0,1.6-.79A3.291,3.291,0,0,0,27.819-5.106Zm7.547-7.055a1.893,1.893,0,0,1-1.343-.487,1.569,1.569,0,0,1-.523-1.195,1.513,1.513,0,0,1,.523-1.189,1.955,1.955,0,0,1,1.343-.461,1.951,1.951,0,0,1,1.348.461,1.52,1.52,0,0,1,.518,1.189,1.563,1.563,0,0,1-.518,1.21A1.925,1.925,0,0,1,35.366-12.161ZM36.965,0h-3.24V-10.5h3.24Zm9.577-7.578A2.811,2.811,0,0,0,45.179-7.9a1.965,1.965,0,0,0-1.651.774,3.377,3.377,0,0,0-.595,2.107V0h-3.24V-10.5h3.24v1.948h.041a2.8,2.8,0,0,1,2.769-2.133,2.087,2.087,0,0,1,.8.123ZM57.4-4.327h-6.85q.164,2.287,2.881,2.287a5.625,5.625,0,0,0,3.045-.82V-.523a8,8,0,0,1-3.784.779,5.326,5.326,0,0,1-3.948-1.41,5.327,5.327,0,0,1-1.4-3.932A5.619,5.619,0,0,1,48.86-9.229a5.056,5.056,0,0,1,3.732-1.528,4.589,4.589,0,0,1,3.553,1.364,5.252,5.252,0,0,1,1.256,3.7Zm-3-1.989q0-2.256-1.825-2.256a1.743,1.743,0,0,0-1.348.646,2.932,2.932,0,0,0-.692,1.61ZM67.286-.379a6.407,6.407,0,0,1-3.168.636A5.359,5.359,0,0,1,60.2-1.21a5.064,5.064,0,0,1-1.5-3.784,5.579,5.579,0,0,1,1.6-4.219A5.93,5.93,0,0,1,64.6-10.756a5.506,5.506,0,0,1,2.687.492v2.748a3.694,3.694,0,0,0-2.266-.759,2.986,2.986,0,0,0-2.21.815A3.042,3.042,0,0,0,62-5.209a2.992,2.992,0,0,0,.779,2.189,2.864,2.864,0,0,0,2.143.795,4.277,4.277,0,0,0,2.369-.759Zm8.47.256a4.789,4.789,0,0,1-2.164.379q-3.425,0-3.425-3.558V-8.111h-1.7V-10.5h1.7v-2.266l3.23-.923V-10.5h2.358v2.389H73.4v4.245q0,1.641,1.3,1.641a2.2,2.2,0,0,0,1.056-.3ZM82.5.256a5.644,5.644,0,0,1-4.127-1.471,5.335,5.335,0,0,1-1.5-3.994,5.335,5.335,0,0,1,1.559-4.076,5.889,5.889,0,0,1,4.214-1.471,5.576,5.576,0,0,1,4.1,1.471,5.23,5.23,0,0,1,1.487,3.891A5.552,5.552,0,0,1,86.7-1.261,5.707,5.707,0,0,1,82.5.256Zm.082-8.531a2.161,2.161,0,0,0-1.784.79,3.482,3.482,0,0,0-.636,2.235q0,3.025,2.44,3.025,2.328,0,2.328-3.107Q84.933-8.275,82.585-8.275Z" transform="translate(264.488 20057.223) rotate(-90)" fill="#fff"/>
    <path id="Rectángulo_18686" data-name="Rectángulo 18686" d="M14.962,0H167.11a14.962,14.962,0,0,1,14.962,14.962V46.877A14.962,14.962,0,0,1,167.11,61.839H14.962A14.962,14.962,0,0,1,0,46.877V14.962A14.962,14.962,0,0,1,14.962,0Z" transform="translate(226.865 19787.988) rotate(-90)" fill="#6e3dc6"/>
    <path id="Directo" d="M1.682,0V-14.7H6.891q7.834,0,7.834,7.167a7.248,7.248,0,0,1-2.138,5.486A7.884,7.884,0,0,1,6.891,0ZM4.994-12.007v9.321H6.634a4.433,4.433,0,0,0,3.379-1.292A4.9,4.9,0,0,0,11.238-7.5,4.447,4.447,0,0,0,10.023-10.8a4.632,4.632,0,0,0-3.409-1.2Zm13.494-.154a1.893,1.893,0,0,1-1.343-.487,1.569,1.569,0,0,1-.523-1.195,1.513,1.513,0,0,1,.523-1.189,1.955,1.955,0,0,1,1.343-.461,1.951,1.951,0,0,1,1.348.461,1.52,1.52,0,0,1,.518,1.189,1.563,1.563,0,0,1-.518,1.21A1.925,1.925,0,0,1,18.488-12.161ZM20.087,0h-3.24V-10.5h3.24Zm9.577-7.578A2.811,2.811,0,0,0,28.3-7.9a1.965,1.965,0,0,0-1.651.774,3.377,3.377,0,0,0-.595,2.107V0h-3.24V-10.5h3.24v1.948H26.1a2.8,2.8,0,0,1,2.769-2.133,2.087,2.087,0,0,1,.8.123Zm10.859,3.25h-6.85q.164,2.287,2.881,2.287a5.625,5.625,0,0,0,3.045-.82V-.523a8,8,0,0,1-3.784.779,5.326,5.326,0,0,1-3.948-1.41,5.327,5.327,0,0,1-1.4-3.932,5.619,5.619,0,0,1,1.518-4.143,5.056,5.056,0,0,1,3.732-1.528,4.589,4.589,0,0,1,3.553,1.364,5.252,5.252,0,0,1,1.256,3.7Zm-3-1.989q0-2.256-1.825-2.256a1.743,1.743,0,0,0-1.348.646,2.932,2.932,0,0,0-.692,1.61ZM50.408-.379A6.407,6.407,0,0,1,47.24.256,5.359,5.359,0,0,1,43.323-1.21a5.064,5.064,0,0,1-1.5-3.784,5.579,5.579,0,0,1,1.6-4.219,5.93,5.93,0,0,1,4.291-1.543,5.506,5.506,0,0,1,2.687.492v2.748a3.694,3.694,0,0,0-2.266-.759,2.986,2.986,0,0,0-2.21.815,3.042,3.042,0,0,0-.815,2.251A2.992,2.992,0,0,0,45.9-3.02a2.864,2.864,0,0,0,2.143.795,4.277,4.277,0,0,0,2.369-.759Zm8.47.256a4.789,4.789,0,0,1-2.164.379Q53.29.256,53.29-3.3V-8.111h-1.7V-10.5h1.7v-2.266l3.23-.923V-10.5h2.358v2.389H56.52v4.245q0,1.641,1.3,1.641a2.2,2.2,0,0,0,1.056-.3Zm6.747.379A5.644,5.644,0,0,1,61.5-1.215,5.335,5.335,0,0,1,60-5.209a5.335,5.335,0,0,1,1.559-4.076,5.889,5.889,0,0,1,4.214-1.471,5.576,5.576,0,0,1,4.1,1.471,5.23,5.23,0,0,1,1.487,3.891,5.552,5.552,0,0,1-1.533,4.132A5.707,5.707,0,0,1,65.625.256Zm.082-8.531a2.161,2.161,0,0,0-1.784.79,3.482,3.482,0,0,0-.636,2.235q0,3.025,2.44,3.025,2.328,0,2.328-3.107Q68.055-8.275,65.707-8.275Z" transform="translate(264.488 19731.789) rotate(-90)" fill="#fff"/>
    <path id="Rectángulo_18687" data-name="Rectángulo 18687" d="M14.962,0H157.045a14.962,14.962,0,0,1,14.962,14.962V46.877a14.962,14.962,0,0,1-14.962,14.962H14.962A14.962,14.962,0,0,1,0,46.877V14.962A14.962,14.962,0,0,1,14.962,0Z" transform="translate(650.389 20049.561)" fill="#59836b"/>
    <path id="Rectángulo_18688" data-name="Rectángulo 18688" d="M14.962,0H157.045a14.962,14.962,0,0,1,14.962,14.962V46.877a14.962,14.962,0,0,1-14.962,14.962H14.962A14.962,14.962,0,0,1,0,46.877V14.962A14.962,14.962,0,0,1,14.962,0Z" transform="translate(368.079 19666.033)" fill="#fae9b5"/>
    <path id="Fabricante" d="M9.026-5.1H4.052V0H.967V-12.8H9.527v2.382H4.052v2.944H9.026ZM15.732,0a3.344,3.344,0,0,1-.281-.853A2.754,2.754,0,0,1,13.166.176a3.374,3.374,0,0,1-2.285-.813,2.588,2.588,0,0,1-.94-2.043,2.66,2.66,0,0,1,1.143-2.338,5.821,5.821,0,0,1,3.322-.791h.914v-.5q0-1.316-1.134-1.316a.927.927,0,0,0-1.055,1.042H10.169a2.655,2.655,0,0,1,1.173-2.239,4.931,4.931,0,0,1,2.993-.86,4.323,4.323,0,0,1,2.874.888A3.086,3.086,0,0,1,18.29-6.363v4.21a4.311,4.311,0,0,0,.4,2V0ZM13.878-1.934a1.652,1.652,0,0,0,.918-.237,1.487,1.487,0,0,0,.523-.536V-4.228h-.861q-1.547,0-1.547,1.389a.848.848,0,0,0,.272.655A.986.986,0,0,0,13.878-1.934Zm14.88-2.742a5.8,5.8,0,0,1-.967,3.595A3.238,3.238,0,0,1,25.066.176,2.81,2.81,0,0,1,22.729-.976L22.605,0H19.951V-13.5h2.962v4.755a2.711,2.711,0,0,1,2.136-.94,3.239,3.239,0,0,1,2.742,1.274,5.826,5.826,0,0,1,.967,3.586Zm-2.971-.189a3.866,3.866,0,0,0-.365-1.952A1.229,1.229,0,0,0,24.3-7.4a1.418,1.418,0,0,0-1.389.763v3.773a1.426,1.426,0,0,0,1.406.755,1.258,1.258,0,0,0,1.327-1.018A7.309,7.309,0,0,0,25.787-4.865ZM35.815-6.829,34.84-6.9a1.752,1.752,0,0,0-1.793.879V0H30.085V-9.51h2.777l.1,1.222a2.294,2.294,0,0,1,2.083-1.4,2.888,2.888,0,0,1,.826.105ZM40.008,0H37.037V-9.51h2.971ZM36.861-11.962A1.322,1.322,0,0,1,37.318-13a1.724,1.724,0,0,1,1.187-.4,1.724,1.724,0,0,1,1.187.4,1.322,1.322,0,0,1,.457,1.037,1.322,1.322,0,0,1-.457,1.037,1.724,1.724,0,0,1-1.187.4,1.724,1.724,0,0,1-1.187-.4A1.322,1.322,0,0,1,36.861-11.962Zm8.991,9.853a1.317,1.317,0,0,0,.967-.338,1.241,1.241,0,0,0,.334-.945h2.777A3.288,3.288,0,0,1,48.81-.826a4.168,4.168,0,0,1-2.887,1,4.22,4.22,0,0,1-3.27-1.3,5.125,5.125,0,0,1-1.2-3.6v-.123A5.792,5.792,0,0,1,41.99-7.4a3.872,3.872,0,0,1,1.534-1.7A4.573,4.573,0,0,1,45.9-9.686a4.116,4.116,0,0,1,2.944,1.028,3.647,3.647,0,0,1,1.09,2.786H47.153A1.626,1.626,0,0,0,46.793-7a1.244,1.244,0,0,0-.967-.4q-1.151,0-1.345,1.468a10.357,10.357,0,0,0-.062,1.283,4.068,4.068,0,0,0,.343,1.986A1.187,1.187,0,0,0,45.853-2.109ZM56.54,0a3.344,3.344,0,0,1-.281-.853A2.754,2.754,0,0,1,53.974.176a3.374,3.374,0,0,1-2.285-.813,2.588,2.588,0,0,1-.94-2.043,2.66,2.66,0,0,1,1.143-2.338,5.821,5.821,0,0,1,3.322-.791h.914v-.5q0-1.316-1.134-1.316a.927.927,0,0,0-1.055,1.042H50.977A2.655,2.655,0,0,1,52.15-8.825a4.931,4.931,0,0,1,2.993-.86,4.323,4.323,0,0,1,2.874.888A3.086,3.086,0,0,1,59.1-6.363v4.21a4.311,4.311,0,0,0,.4,2V0ZM54.686-1.934a1.652,1.652,0,0,0,.918-.237,1.487,1.487,0,0,0,.523-.536V-4.228h-.861q-1.547,0-1.547,1.389a.848.848,0,0,0,.272.655A.986.986,0,0,0,54.686-1.934ZM63.457-9.51l.1,1.116A3.225,3.225,0,0,1,66.27-9.686a2.713,2.713,0,0,1,2.219.888,4.226,4.226,0,0,1,.76,2.672V0H66.278V-6a1.6,1.6,0,0,0-.29-1.059A1.342,1.342,0,0,0,64.934-7.4a1.413,1.413,0,0,0-1.292.686V0H60.68V-9.51Zm10.881-2.364V-9.51H75.9v2.057H74.338V-3.1a1.111,1.111,0,0,0,.193.747,1.037,1.037,0,0,0,.765.211,4.345,4.345,0,0,0,.738-.053V-.079a5.466,5.466,0,0,1-1.67.255,3.1,3.1,0,0,1-2.259-.721,2.954,2.954,0,0,1-.729-2.188v-4.72H70.163V-9.51h1.213v-2.364ZM81.668.176a4.889,4.889,0,0,1-3.542-1.305,4.507,4.507,0,0,1-1.354-3.4v-.246a5.84,5.84,0,0,1,.541-2.575,3.955,3.955,0,0,1,1.578-1.727,4.763,4.763,0,0,1,2.461-.611,4.117,4.117,0,0,1,3.164,1.244,4.887,4.887,0,0,1,1.16,3.467v1.151H79.787a2.135,2.135,0,0,0,.694,1.257,2.066,2.066,0,0,0,1.389.457,2.662,2.662,0,0,0,2.2-.984l1.354,1.6A3.784,3.784,0,0,1,83.852-.277,5.3,5.3,0,0,1,81.668.176ZM81.334-7.4q-1.3,0-1.547,1.723h2.988v-.229a1.467,1.467,0,0,0-.36-1.1A1.434,1.434,0,0,0,81.334-7.4Z" transform="translate(411 19702.674)" fill="#12263f"/>
    <path id="Rectángulo_18689" data-name="Rectángulo 18689" d="M14.962,0H157.045a14.962,14.962,0,0,1,14.962,14.962V46.877a14.962,14.962,0,0,1-14.962,14.962H14.962A14.962,14.962,0,0,1,0,46.877V14.962A14.962,14.962,0,0,1,14.962,0Z" transform="translate(368.079 19830.611)" fill="#fae9b5"/>
    <path id="Fabricante-2" data-name="Fabricante" d="M9.026-5.1H4.052V0H.967V-12.8H9.527v2.382H4.052v2.944H9.026ZM15.732,0a3.344,3.344,0,0,1-.281-.853A2.754,2.754,0,0,1,13.166.176a3.374,3.374,0,0,1-2.285-.813,2.588,2.588,0,0,1-.94-2.043,2.66,2.66,0,0,1,1.143-2.338,5.821,5.821,0,0,1,3.322-.791h.914v-.5q0-1.316-1.134-1.316a.927.927,0,0,0-1.055,1.042H10.169a2.655,2.655,0,0,1,1.173-2.239,4.931,4.931,0,0,1,2.993-.86,4.323,4.323,0,0,1,2.874.888A3.086,3.086,0,0,1,18.29-6.363v4.21a4.311,4.311,0,0,0,.4,2V0ZM13.878-1.934a1.652,1.652,0,0,0,.918-.237,1.487,1.487,0,0,0,.523-.536V-4.228h-.861q-1.547,0-1.547,1.389a.848.848,0,0,0,.272.655A.986.986,0,0,0,13.878-1.934Zm14.88-2.742a5.8,5.8,0,0,1-.967,3.595A3.238,3.238,0,0,1,25.066.176,2.81,2.81,0,0,1,22.729-.976L22.605,0H19.951V-13.5h2.962v4.755a2.711,2.711,0,0,1,2.136-.94,3.239,3.239,0,0,1,2.742,1.274,5.826,5.826,0,0,1,.967,3.586Zm-2.971-.189a3.866,3.866,0,0,0-.365-1.952A1.229,1.229,0,0,0,24.3-7.4a1.418,1.418,0,0,0-1.389.763v3.773a1.426,1.426,0,0,0,1.406.755,1.258,1.258,0,0,0,1.327-1.018A7.309,7.309,0,0,0,25.787-4.865ZM35.815-6.829,34.84-6.9a1.752,1.752,0,0,0-1.793.879V0H30.085V-9.51h2.777l.1,1.222a2.294,2.294,0,0,1,2.083-1.4,2.888,2.888,0,0,1,.826.105ZM40.008,0H37.037V-9.51h2.971ZM36.861-11.962A1.322,1.322,0,0,1,37.318-13a1.724,1.724,0,0,1,1.187-.4,1.724,1.724,0,0,1,1.187.4,1.322,1.322,0,0,1,.457,1.037,1.322,1.322,0,0,1-.457,1.037,1.724,1.724,0,0,1-1.187.4,1.724,1.724,0,0,1-1.187-.4A1.322,1.322,0,0,1,36.861-11.962Zm8.991,9.853a1.317,1.317,0,0,0,.967-.338,1.241,1.241,0,0,0,.334-.945h2.777A3.288,3.288,0,0,1,48.81-.826a4.168,4.168,0,0,1-2.887,1,4.22,4.22,0,0,1-3.27-1.3,5.125,5.125,0,0,1-1.2-3.6v-.123A5.792,5.792,0,0,1,41.99-7.4a3.872,3.872,0,0,1,1.534-1.7A4.573,4.573,0,0,1,45.9-9.686a4.116,4.116,0,0,1,2.944,1.028,3.647,3.647,0,0,1,1.09,2.786H47.153A1.626,1.626,0,0,0,46.793-7a1.244,1.244,0,0,0-.967-.4q-1.151,0-1.345,1.468a10.357,10.357,0,0,0-.062,1.283,4.068,4.068,0,0,0,.343,1.986A1.187,1.187,0,0,0,45.853-2.109ZM56.54,0a3.344,3.344,0,0,1-.281-.853A2.754,2.754,0,0,1,53.974.176a3.374,3.374,0,0,1-2.285-.813,2.588,2.588,0,0,1-.94-2.043,2.66,2.66,0,0,1,1.143-2.338,5.821,5.821,0,0,1,3.322-.791h.914v-.5q0-1.316-1.134-1.316a.927.927,0,0,0-1.055,1.042H50.977A2.655,2.655,0,0,1,52.15-8.825a4.931,4.931,0,0,1,2.993-.86,4.323,4.323,0,0,1,2.874.888A3.086,3.086,0,0,1,59.1-6.363v4.21a4.311,4.311,0,0,0,.4,2V0ZM54.686-1.934a1.652,1.652,0,0,0,.918-.237,1.487,1.487,0,0,0,.523-.536V-4.228h-.861q-1.547,0-1.547,1.389a.848.848,0,0,0,.272.655A.986.986,0,0,0,54.686-1.934ZM63.457-9.51l.1,1.116A3.225,3.225,0,0,1,66.27-9.686a2.713,2.713,0,0,1,2.219.888,4.226,4.226,0,0,1,.76,2.672V0H66.278V-6a1.6,1.6,0,0,0-.29-1.059A1.342,1.342,0,0,0,64.934-7.4a1.413,1.413,0,0,0-1.292.686V0H60.68V-9.51Zm10.881-2.364V-9.51H75.9v2.057H74.338V-3.1a1.111,1.111,0,0,0,.193.747,1.037,1.037,0,0,0,.765.211,4.345,4.345,0,0,0,.738-.053V-.079a5.466,5.466,0,0,1-1.67.255,3.1,3.1,0,0,1-2.259-.721,2.954,2.954,0,0,1-.729-2.188v-4.72H70.163V-9.51h1.213v-2.364ZM81.668.176a4.889,4.889,0,0,1-3.542-1.305,4.507,4.507,0,0,1-1.354-3.4v-.246a5.84,5.84,0,0,1,.541-2.575,3.955,3.955,0,0,1,1.578-1.727,4.763,4.763,0,0,1,2.461-.611,4.117,4.117,0,0,1,3.164,1.244,4.887,4.887,0,0,1,1.16,3.467v1.151H79.787a2.135,2.135,0,0,0,.694,1.257,2.066,2.066,0,0,0,1.389.457,2.662,2.662,0,0,0,2.2-.984l1.354,1.6A3.784,3.784,0,0,1,83.852-.277,5.3,5.3,0,0,1,81.668.176ZM81.334-7.4q-1.3,0-1.547,1.723h2.988v-.229a1.467,1.467,0,0,0-.36-1.1A1.434,1.434,0,0,0,81.334-7.4Z" transform="translate(411 19868.256)" fill="#12263f"/>
    <path id="Física" d="M9.026-5.1H4.052V0H.967V-12.8H9.527v2.382H4.052v2.944H9.026ZM13.9,0H10.925V-9.51H13.9ZM12.8-13.324h3.129l-2.443,2.76-2.417,0ZM20.786-2.672a.684.684,0,0,0-.4-.606,6.016,6.016,0,0,0-1.5-.475A6.853,6.853,0,0,1,17.06-4.4a3.062,3.062,0,0,1-1.1-.971,2.319,2.319,0,0,1-.378-1.31,2.628,2.628,0,0,1,1.081-2.158,4.453,4.453,0,0,1,2.83-.848,4.934,4.934,0,0,1,3.023.853A2.666,2.666,0,0,1,23.66-6.592H20.689q0-1.143-1.2-1.143a1.194,1.194,0,0,0-.782.259.8.8,0,0,0-.316.646.737.737,0,0,0,.387.642,3.654,3.654,0,0,0,1.235.4,10.671,10.671,0,0,1,1.49.378A2.706,2.706,0,0,1,23.643-2.76,2.491,2.491,0,0,1,22.487-.642a5.068,5.068,0,0,1-2.993.817,5.172,5.172,0,0,1-2.18-.439,3.645,3.645,0,0,1-1.494-1.2,2.707,2.707,0,0,1-.536-1.591h2.769a1.145,1.145,0,0,0,.439.962,1.808,1.808,0,0,0,1.081.3,1.422,1.422,0,0,0,.91-.246A.787.787,0,0,0,20.786-2.672ZM28.151,0H25.181V-9.51h2.971ZM25-11.962A1.322,1.322,0,0,1,25.462-13a1.724,1.724,0,0,1,1.187-.4,1.724,1.724,0,0,1,1.187.4,1.322,1.322,0,0,1,.457,1.037,1.322,1.322,0,0,1-.457,1.037,1.724,1.724,0,0,1-1.187.4,1.724,1.724,0,0,1-1.187-.4A1.322,1.322,0,0,1,25-11.962ZM34-2.109a1.317,1.317,0,0,0,.967-.338,1.241,1.241,0,0,0,.334-.945h2.777A3.288,3.288,0,0,1,36.954-.826a4.168,4.168,0,0,1-2.887,1,4.22,4.22,0,0,1-3.27-1.3,5.125,5.125,0,0,1-1.2-3.6v-.123A5.792,5.792,0,0,1,30.133-7.4a3.872,3.872,0,0,1,1.534-1.7,4.573,4.573,0,0,1,2.373-.593,4.116,4.116,0,0,1,2.944,1.028,3.647,3.647,0,0,1,1.09,2.786H35.3A1.626,1.626,0,0,0,34.937-7a1.244,1.244,0,0,0-.967-.4q-1.151,0-1.345,1.468a10.357,10.357,0,0,0-.062,1.283,4.068,4.068,0,0,0,.343,1.986A1.187,1.187,0,0,0,34-2.109ZM44.684,0A3.344,3.344,0,0,1,44.4-.853,2.754,2.754,0,0,1,42.117.176a3.374,3.374,0,0,1-2.285-.813,2.588,2.588,0,0,1-.94-2.043,2.66,2.66,0,0,1,1.143-2.338,5.821,5.821,0,0,1,3.322-.791h.914v-.5q0-1.316-1.134-1.316a.927.927,0,0,0-1.055,1.042H39.12a2.655,2.655,0,0,1,1.173-2.239,4.931,4.931,0,0,1,2.993-.86A4.323,4.323,0,0,1,46.16-8.8a3.086,3.086,0,0,1,1.081,2.435v4.21a4.311,4.311,0,0,0,.4,2V0ZM42.829-1.934a1.652,1.652,0,0,0,.918-.237,1.487,1.487,0,0,0,.523-.536V-4.228h-.861q-1.547,0-1.547,1.389a.848.848,0,0,0,.272.655A.986.986,0,0,0,42.829-1.934Z" transform="translate(430 19646.572)" fill="#12263f"/>
    <path id="Digital" d="M.967,0V-12.8H5.089a6.064,6.064,0,0,1,3.05.769,5.406,5.406,0,0,1,2.114,2.171,6.554,6.554,0,0,1,.769,3.142v.589a6.592,6.592,0,0,1-.743,3.151A5.429,5.429,0,0,1,8.187-.8a5.93,5.93,0,0,1-3.01.8ZM4.052-10.415v8.042H5.124a2.4,2.4,0,0,0,2.039-.945,4.63,4.63,0,0,0,.712-2.808V-6.68a4.592,4.592,0,0,0-.712-2.795,2.442,2.442,0,0,0-2.074-.94ZM15.592,0H12.621V-9.51h2.971ZM12.445-11.962A1.322,1.322,0,0,1,12.9-13a1.724,1.724,0,0,1,1.187-.4,1.724,1.724,0,0,1,1.187.4,1.322,1.322,0,0,1,.457,1.037,1.322,1.322,0,0,1-.457,1.037,1.724,1.724,0,0,1-1.187.4,1.724,1.724,0,0,1-1.187-.4A1.322,1.322,0,0,1,12.445-11.962Zm4.623,7.137a6.421,6.421,0,0,1,.475-2.549,3.821,3.821,0,0,1,1.362-1.709,3.591,3.591,0,0,1,2.065-.6,2.855,2.855,0,0,1,2.32,1L23.4-9.51h2.689V-.36A4.009,4.009,0,0,1,25.5,1.824,3.75,3.75,0,0,1,23.81,3.248a6.219,6.219,0,0,1-2.566.5,5.365,5.365,0,0,1-2.026-.4,3.657,3.657,0,0,1-1.5-1.028L18.958.58a2.716,2.716,0,0,0,2.18.976A1.764,1.764,0,0,0,23.106-.466v-.3a2.781,2.781,0,0,1-2.153.94,3.437,3.437,0,0,1-2.812-1.332A5.517,5.517,0,0,1,17.068-4.72Zm2.971.185a3.383,3.383,0,0,0,.439,1.85,1.386,1.386,0,0,0,1.23.681,1.573,1.573,0,0,0,1.4-.642v-4a1.534,1.534,0,0,0-1.38-.65,1.4,1.4,0,0,0-1.239.708A3.858,3.858,0,0,0,20.039-4.641ZM30.894,0H27.923V-9.51h2.971ZM27.747-11.962A1.322,1.322,0,0,1,28.2-13a1.724,1.724,0,0,1,1.187-.4,1.724,1.724,0,0,1,1.187.4,1.322,1.322,0,0,1,.457,1.037,1.322,1.322,0,0,1-.457,1.037,1.724,1.724,0,0,1-1.187.4,1.724,1.724,0,0,1-1.187-.4A1.322,1.322,0,0,1,27.747-11.962Zm8.42.088V-9.51h1.564v2.057H36.167V-3.1a1.111,1.111,0,0,0,.193.747,1.037,1.037,0,0,0,.765.211,4.345,4.345,0,0,0,.738-.053V-.079a5.466,5.466,0,0,1-1.67.255,3.1,3.1,0,0,1-2.259-.721,2.954,2.954,0,0,1-.729-2.188v-4.72H31.992V-9.51h1.213v-2.364ZM44.253,0a3.344,3.344,0,0,1-.281-.853A2.754,2.754,0,0,1,41.687.176,3.374,3.374,0,0,1,39.4-.637a2.588,2.588,0,0,1-.94-2.043A2.66,2.66,0,0,1,39.6-5.019a5.821,5.821,0,0,1,3.322-.791h.914v-.5q0-1.316-1.134-1.316a.927.927,0,0,0-1.055,1.042H38.689a2.655,2.655,0,0,1,1.173-2.239,4.931,4.931,0,0,1,2.993-.86,4.323,4.323,0,0,1,2.874.888,3.086,3.086,0,0,1,1.081,2.435v4.21a4.311,4.311,0,0,0,.4,2V0ZM42.4-1.934a1.652,1.652,0,0,0,.918-.237,1.487,1.487,0,0,0,.523-.536V-4.228h-.861q-1.547,0-1.547,1.389a.848.848,0,0,0,.272.655A.986.986,0,0,0,42.4-1.934ZM51.574,0H48.6V-13.5h2.971Z" transform="translate(428 19766.537)" fill="#12263f"/>
    <path id="Rectángulo_18690" data-name="Rectángulo 18690" d="M14.962,0H157.045a14.962,14.962,0,0,1,14.962,14.962V46.877a14.962,14.962,0,0,1-14.962,14.962H14.962A14.962,14.962,0,0,1,0,46.877V14.962A14.962,14.962,0,0,1,14.962,0Z" transform="translate(368.079 19968.354)" fill="#fae9b5"/>
    <path id="Fabricante-3" data-name="Fabricante" d="M9.026-5.1H4.052V0H.967V-12.8H9.527v2.382H4.052v2.944H9.026ZM15.732,0a3.344,3.344,0,0,1-.281-.853A2.754,2.754,0,0,1,13.166.176a3.374,3.374,0,0,1-2.285-.813,2.588,2.588,0,0,1-.94-2.043,2.66,2.66,0,0,1,1.143-2.338,5.821,5.821,0,0,1,3.322-.791h.914v-.5q0-1.316-1.134-1.316a.927.927,0,0,0-1.055,1.042H10.169a2.655,2.655,0,0,1,1.173-2.239,4.931,4.931,0,0,1,2.993-.86,4.323,4.323,0,0,1,2.874.888A3.086,3.086,0,0,1,18.29-6.363v4.21a4.311,4.311,0,0,0,.4,2V0ZM13.878-1.934a1.652,1.652,0,0,0,.918-.237,1.487,1.487,0,0,0,.523-.536V-4.228h-.861q-1.547,0-1.547,1.389a.848.848,0,0,0,.272.655A.986.986,0,0,0,13.878-1.934Zm14.88-2.742a5.8,5.8,0,0,1-.967,3.595A3.238,3.238,0,0,1,25.066.176,2.81,2.81,0,0,1,22.729-.976L22.605,0H19.951V-13.5h2.962v4.755a2.711,2.711,0,0,1,2.136-.94,3.239,3.239,0,0,1,2.742,1.274,5.826,5.826,0,0,1,.967,3.586Zm-2.971-.189a3.866,3.866,0,0,0-.365-1.952A1.229,1.229,0,0,0,24.3-7.4a1.418,1.418,0,0,0-1.389.763v3.773a1.426,1.426,0,0,0,1.406.755,1.258,1.258,0,0,0,1.327-1.018A7.309,7.309,0,0,0,25.787-4.865ZM35.815-6.829,34.84-6.9a1.752,1.752,0,0,0-1.793.879V0H30.085V-9.51h2.777l.1,1.222a2.294,2.294,0,0,1,2.083-1.4,2.888,2.888,0,0,1,.826.105ZM40.008,0H37.037V-9.51h2.971ZM36.861-11.962A1.322,1.322,0,0,1,37.318-13a1.724,1.724,0,0,1,1.187-.4,1.724,1.724,0,0,1,1.187.4,1.322,1.322,0,0,1,.457,1.037,1.322,1.322,0,0,1-.457,1.037,1.724,1.724,0,0,1-1.187.4,1.724,1.724,0,0,1-1.187-.4A1.322,1.322,0,0,1,36.861-11.962Zm8.991,9.853a1.317,1.317,0,0,0,.967-.338,1.241,1.241,0,0,0,.334-.945h2.777A3.288,3.288,0,0,1,48.81-.826a4.168,4.168,0,0,1-2.887,1,4.22,4.22,0,0,1-3.27-1.3,5.125,5.125,0,0,1-1.2-3.6v-.123A5.792,5.792,0,0,1,41.99-7.4a3.872,3.872,0,0,1,1.534-1.7A4.573,4.573,0,0,1,45.9-9.686a4.116,4.116,0,0,1,2.944,1.028,3.647,3.647,0,0,1,1.09,2.786H47.153A1.626,1.626,0,0,0,46.793-7a1.244,1.244,0,0,0-.967-.4q-1.151,0-1.345,1.468a10.357,10.357,0,0,0-.062,1.283,4.068,4.068,0,0,0,.343,1.986A1.187,1.187,0,0,0,45.853-2.109ZM56.54,0a3.344,3.344,0,0,1-.281-.853A2.754,2.754,0,0,1,53.974.176a3.374,3.374,0,0,1-2.285-.813,2.588,2.588,0,0,1-.94-2.043,2.66,2.66,0,0,1,1.143-2.338,5.821,5.821,0,0,1,3.322-.791h.914v-.5q0-1.316-1.134-1.316a.927.927,0,0,0-1.055,1.042H50.977A2.655,2.655,0,0,1,52.15-8.825a4.931,4.931,0,0,1,2.993-.86,4.323,4.323,0,0,1,2.874.888A3.086,3.086,0,0,1,59.1-6.363v4.21a4.311,4.311,0,0,0,.4,2V0ZM54.686-1.934a1.652,1.652,0,0,0,.918-.237,1.487,1.487,0,0,0,.523-.536V-4.228h-.861q-1.547,0-1.547,1.389a.848.848,0,0,0,.272.655A.986.986,0,0,0,54.686-1.934ZM63.457-9.51l.1,1.116A3.225,3.225,0,0,1,66.27-9.686a2.713,2.713,0,0,1,2.219.888,4.226,4.226,0,0,1,.76,2.672V0H66.278V-6a1.6,1.6,0,0,0-.29-1.059A1.342,1.342,0,0,0,64.934-7.4a1.413,1.413,0,0,0-1.292.686V0H60.68V-9.51Zm10.881-2.364V-9.51H75.9v2.057H74.338V-3.1a1.111,1.111,0,0,0,.193.747,1.037,1.037,0,0,0,.765.211,4.345,4.345,0,0,0,.738-.053V-.079a5.466,5.466,0,0,1-1.67.255,3.1,3.1,0,0,1-2.259-.721,2.954,2.954,0,0,1-.729-2.188v-4.72H70.163V-9.51h1.213v-2.364ZM81.668.176a4.889,4.889,0,0,1-3.542-1.305,4.507,4.507,0,0,1-1.354-3.4v-.246a5.84,5.84,0,0,1,.541-2.575,3.955,3.955,0,0,1,1.578-1.727,4.763,4.763,0,0,1,2.461-.611,4.117,4.117,0,0,1,3.164,1.244,4.887,4.887,0,0,1,1.16,3.467v1.151H79.787a2.135,2.135,0,0,0,.694,1.257,2.066,2.066,0,0,0,1.389.457,2.662,2.662,0,0,0,2.2-.984l1.354,1.6A3.784,3.784,0,0,1,83.852-.277,5.3,5.3,0,0,1,81.668.176ZM81.334-7.4q-1.3,0-1.547,1.723h2.988v-.229a1.467,1.467,0,0,0-.36-1.1A1.434,1.434,0,0,0,81.334-7.4Z" transform="translate(411 20003.994)" fill="#12263f"/>
    <path id="Largo" d="M4.052-2.373h5.37V0H.967V-12.8H4.052ZM15.943,0a3.344,3.344,0,0,1-.281-.853A2.754,2.754,0,0,1,13.377.176a3.374,3.374,0,0,1-2.285-.813,2.588,2.588,0,0,1-.94-2.043,2.66,2.66,0,0,1,1.143-2.338,5.821,5.821,0,0,1,3.322-.791h.914v-.5q0-1.316-1.134-1.316a.927.927,0,0,0-1.055,1.042H10.38a2.655,2.655,0,0,1,1.173-2.239,4.931,4.931,0,0,1,2.993-.86A4.323,4.323,0,0,1,17.42-8.8,3.086,3.086,0,0,1,18.5-6.363v4.21a4.311,4.311,0,0,0,.4,2V0ZM14.089-1.934a1.652,1.652,0,0,0,.918-.237,1.487,1.487,0,0,0,.523-.536V-4.228h-.861q-1.547,0-1.547,1.389a.848.848,0,0,0,.272.655A.986.986,0,0,0,14.089-1.934Zm11.8-4.9-.976-.07a1.752,1.752,0,0,0-1.793.879V0H20.162V-9.51h2.777l.1,1.222a2.294,2.294,0,0,1,2.083-1.4,2.888,2.888,0,0,1,.826.105Zm.554,2a6.421,6.421,0,0,1,.475-2.549,3.821,3.821,0,0,1,1.362-1.709,3.591,3.591,0,0,1,2.065-.6,2.855,2.855,0,0,1,2.32,1l.105-.826h2.689V-.36a4.009,4.009,0,0,1-.584,2.184,3.75,3.75,0,0,1-1.692,1.424,6.219,6.219,0,0,1-2.566.5,5.365,5.365,0,0,1-2.026-.4A3.657,3.657,0,0,1,27.1,2.32L28.336.58a2.716,2.716,0,0,0,2.18.976A1.764,1.764,0,0,0,32.484-.466v-.3a2.781,2.781,0,0,1-2.153.94,3.437,3.437,0,0,1-2.812-1.332A5.517,5.517,0,0,1,26.446-4.72Zm2.971.185a3.383,3.383,0,0,0,.439,1.85,1.386,1.386,0,0,0,1.23.681,1.573,1.573,0,0,0,1.4-.642v-4A1.534,1.534,0,0,0,31.1-7.4a1.4,1.4,0,0,0-1.239.708A3.858,3.858,0,0,0,29.417-4.641Zm7.356-.2a5.613,5.613,0,0,1,.554-2.536,3.96,3.96,0,0,1,1.591-1.709,4.791,4.791,0,0,1,2.435-.6,4.373,4.373,0,0,1,3.366,1.323,5.076,5.076,0,0,1,1.23,3.6v.105a4.925,4.925,0,0,1-1.235,3.529A4.384,4.384,0,0,1,41.37.176a4.434,4.434,0,0,1-3.261-1.217,4.761,4.761,0,0,1-1.327-3.3Zm2.962.185a3.538,3.538,0,0,0,.413,1.934,1.376,1.376,0,0,0,1.222.615q1.582,0,1.617-2.435v-.3q0-2.558-1.635-2.558-1.485,0-1.608,2.206Z" transform="translate(431 19940.658)" fill="#12263f"/>
    <path id="Corto" d="M11.32-4.333a4.673,4.673,0,0,1-.721,2.36A4.35,4.35,0,0,1,8.75-.387a6.3,6.3,0,0,1-2.72.563A5.025,5.025,0,0,1,2.057-1.468,6.786,6.786,0,0,1,.606-6.108v-.633a7.746,7.746,0,0,1,.655-3.292,4.961,4.961,0,0,1,1.885-2.18,5.26,5.26,0,0,1,2.848-.769,5.516,5.516,0,0,1,3.744,1.226,4.844,4.844,0,0,1,1.608,3.379H8.271a2.292,2.292,0,0,0-.589-1.679,2.422,2.422,0,0,0-1.687-.51A1.843,1.843,0,0,0,4.307-9.7a5.536,5.536,0,0,0-.562,2.751v.905A6.125,6.125,0,0,0,4.258-3.12a1.882,1.882,0,0,0,1.771.879,2.369,2.369,0,0,0,1.626-.5,2.126,2.126,0,0,0,.6-1.591Zm.949-.51a5.613,5.613,0,0,1,.554-2.536,3.96,3.96,0,0,1,1.591-1.709,4.791,4.791,0,0,1,2.435-.6,4.373,4.373,0,0,1,3.366,1.323,5.076,5.076,0,0,1,1.23,3.6v.105A4.925,4.925,0,0,1,20.21-1.129,4.384,4.384,0,0,1,16.866.176a4.434,4.434,0,0,1-3.261-1.217,4.761,4.761,0,0,1-1.327-3.3Zm2.962.185a3.538,3.538,0,0,0,.413,1.934,1.376,1.376,0,0,0,1.222.615q1.582,0,1.617-2.435v-.3q0-2.558-1.635-2.558-1.485,0-1.608,2.206ZM28.5-6.829l-.976-.07a1.752,1.752,0,0,0-1.793.879V0H22.772V-9.51H25.55l.1,1.222a2.294,2.294,0,0,1,2.083-1.4,2.888,2.888,0,0,1,.826.105Zm4.957-5.045V-9.51h1.564v2.057H33.46V-3.1a1.111,1.111,0,0,0,.193.747,1.037,1.037,0,0,0,.765.211,4.345,4.345,0,0,0,.738-.053V-.079a5.466,5.466,0,0,1-1.67.255,3.1,3.1,0,0,1-2.259-.721A2.954,2.954,0,0,1,30.5-2.733v-4.72H29.285V-9.51H30.5v-2.364Zm2.092,7.031a5.613,5.613,0,0,1,.554-2.536A3.96,3.96,0,0,1,37.7-9.088a4.791,4.791,0,0,1,2.435-.6A4.373,4.373,0,0,1,43.5-8.363a5.076,5.076,0,0,1,1.23,3.6v.105a4.925,4.925,0,0,1-1.235,3.529A4.384,4.384,0,0,1,40.148.176a4.434,4.434,0,0,1-3.261-1.217,4.761,4.761,0,0,1-1.327-3.3Zm2.962.185a3.538,3.538,0,0,0,.413,1.934,1.376,1.376,0,0,0,1.222.615q1.582,0,1.617-2.435v-.3q0-2.558-1.635-2.558-1.485,0-1.608,2.206Z" transform="translate(432 19815.896)" fill="#12263f"/>
    <path id="Rectángulo_18691" data-name="Rectángulo 18691" d="M14.962,0H157.045a14.962,14.962,0,0,1,14.962,14.962V46.877a14.962,14.962,0,0,1-14.962,14.962H14.962A14.962,14.962,0,0,1,0,46.877V14.962A14.962,14.962,0,0,1,14.962,0Z" transform="translate(368.079 20089.869)" fill="#fae9b5"/>
    <path id="Fabricante-4" data-name="Fabricante" d="M9.026-5.1H4.052V0H.967V-12.8H9.527v2.382H4.052v2.944H9.026ZM15.732,0a3.344,3.344,0,0,1-.281-.853A2.754,2.754,0,0,1,13.166.176a3.374,3.374,0,0,1-2.285-.813,2.588,2.588,0,0,1-.94-2.043,2.66,2.66,0,0,1,1.143-2.338,5.821,5.821,0,0,1,3.322-.791h.914v-.5q0-1.316-1.134-1.316a.927.927,0,0,0-1.055,1.042H10.169a2.655,2.655,0,0,1,1.173-2.239,4.931,4.931,0,0,1,2.993-.86,4.323,4.323,0,0,1,2.874.888A3.086,3.086,0,0,1,18.29-6.363v4.21a4.311,4.311,0,0,0,.4,2V0ZM13.878-1.934a1.652,1.652,0,0,0,.918-.237,1.487,1.487,0,0,0,.523-.536V-4.228h-.861q-1.547,0-1.547,1.389a.848.848,0,0,0,.272.655A.986.986,0,0,0,13.878-1.934Zm14.88-2.742a5.8,5.8,0,0,1-.967,3.595A3.238,3.238,0,0,1,25.066.176,2.81,2.81,0,0,1,22.729-.976L22.605,0H19.951V-13.5h2.962v4.755a2.711,2.711,0,0,1,2.136-.94,3.239,3.239,0,0,1,2.742,1.274,5.826,5.826,0,0,1,.967,3.586Zm-2.971-.189a3.866,3.866,0,0,0-.365-1.952A1.229,1.229,0,0,0,24.3-7.4a1.418,1.418,0,0,0-1.389.763v3.773a1.426,1.426,0,0,0,1.406.755,1.258,1.258,0,0,0,1.327-1.018A7.309,7.309,0,0,0,25.787-4.865ZM35.815-6.829,34.84-6.9a1.752,1.752,0,0,0-1.793.879V0H30.085V-9.51h2.777l.1,1.222a2.294,2.294,0,0,1,2.083-1.4,2.888,2.888,0,0,1,.826.105ZM40.008,0H37.037V-9.51h2.971ZM36.861-11.962A1.322,1.322,0,0,1,37.318-13a1.724,1.724,0,0,1,1.187-.4,1.724,1.724,0,0,1,1.187.4,1.322,1.322,0,0,1,.457,1.037,1.322,1.322,0,0,1-.457,1.037,1.724,1.724,0,0,1-1.187.4,1.724,1.724,0,0,1-1.187-.4A1.322,1.322,0,0,1,36.861-11.962Zm8.991,9.853a1.317,1.317,0,0,0,.967-.338,1.241,1.241,0,0,0,.334-.945h2.777A3.288,3.288,0,0,1,48.81-.826a4.168,4.168,0,0,1-2.887,1,4.22,4.22,0,0,1-3.27-1.3,5.125,5.125,0,0,1-1.2-3.6v-.123A5.792,5.792,0,0,1,41.99-7.4a3.872,3.872,0,0,1,1.534-1.7A4.573,4.573,0,0,1,45.9-9.686a4.116,4.116,0,0,1,2.944,1.028,3.647,3.647,0,0,1,1.09,2.786H47.153A1.626,1.626,0,0,0,46.793-7a1.244,1.244,0,0,0-.967-.4q-1.151,0-1.345,1.468a10.357,10.357,0,0,0-.062,1.283,4.068,4.068,0,0,0,.343,1.986A1.187,1.187,0,0,0,45.853-2.109ZM56.54,0a3.344,3.344,0,0,1-.281-.853A2.754,2.754,0,0,1,53.974.176a3.374,3.374,0,0,1-2.285-.813,2.588,2.588,0,0,1-.94-2.043,2.66,2.66,0,0,1,1.143-2.338,5.821,5.821,0,0,1,3.322-.791h.914v-.5q0-1.316-1.134-1.316a.927.927,0,0,0-1.055,1.042H50.977A2.655,2.655,0,0,1,52.15-8.825a4.931,4.931,0,0,1,2.993-.86,4.323,4.323,0,0,1,2.874.888A3.086,3.086,0,0,1,59.1-6.363v4.21a4.311,4.311,0,0,0,.4,2V0ZM54.686-1.934a1.652,1.652,0,0,0,.918-.237,1.487,1.487,0,0,0,.523-.536V-4.228h-.861q-1.547,0-1.547,1.389a.848.848,0,0,0,.272.655A.986.986,0,0,0,54.686-1.934ZM63.457-9.51l.1,1.116A3.225,3.225,0,0,1,66.27-9.686a2.713,2.713,0,0,1,2.219.888,4.226,4.226,0,0,1,.76,2.672V0H66.278V-6a1.6,1.6,0,0,0-.29-1.059A1.342,1.342,0,0,0,64.934-7.4a1.413,1.413,0,0,0-1.292.686V0H60.68V-9.51Zm10.881-2.364V-9.51H75.9v2.057H74.338V-3.1a1.111,1.111,0,0,0,.193.747,1.037,1.037,0,0,0,.765.211,4.345,4.345,0,0,0,.738-.053V-.079a5.466,5.466,0,0,1-1.67.255,3.1,3.1,0,0,1-2.259-.721,2.954,2.954,0,0,1-.729-2.188v-4.72H70.163V-9.51h1.213v-2.364ZM81.668.176a4.889,4.889,0,0,1-3.542-1.305,4.507,4.507,0,0,1-1.354-3.4v-.246a5.84,5.84,0,0,1,.541-2.575,3.955,3.955,0,0,1,1.578-1.727,4.763,4.763,0,0,1,2.461-.611,4.117,4.117,0,0,1,3.164,1.244,4.887,4.887,0,0,1,1.16,3.467v1.151H79.787a2.135,2.135,0,0,0,.694,1.257,2.066,2.066,0,0,0,1.389.457,2.662,2.662,0,0,0,2.2-.984l1.354,1.6A3.784,3.784,0,0,1,83.852-.277,5.3,5.3,0,0,1,81.668.176ZM81.334-7.4q-1.3,0-1.547,1.723h2.988v-.229a1.467,1.467,0,0,0-.36-1.1A1.434,1.434,0,0,0,81.334-7.4Z" transform="translate(411 20126.514)" fill="#12263f"/>
    <path id="Doble" d="M.967,0V-12.8H5.089a6.064,6.064,0,0,1,3.05.769,5.406,5.406,0,0,1,2.114,2.171,6.554,6.554,0,0,1,.769,3.142v.589a6.592,6.592,0,0,1-.743,3.151A5.429,5.429,0,0,1,8.187-.8a5.93,5.93,0,0,1-3.01.8ZM4.052-10.415v8.042H5.124a2.4,2.4,0,0,0,2.039-.945,4.63,4.63,0,0,0,.712-2.808V-6.68a4.592,4.592,0,0,0-.712-2.795,2.442,2.442,0,0,0-2.074-.94Zm8.042,5.572a5.613,5.613,0,0,1,.554-2.536,3.96,3.96,0,0,1,1.591-1.709,4.791,4.791,0,0,1,2.435-.6,4.373,4.373,0,0,1,3.366,1.323,5.076,5.076,0,0,1,1.23,3.6v.105a4.925,4.925,0,0,1-1.235,3.529A4.384,4.384,0,0,1,16.69.176,4.434,4.434,0,0,1,13.43-1.042a4.761,4.761,0,0,1-1.327-3.3Zm2.962.185a3.538,3.538,0,0,0,.413,1.934,1.376,1.376,0,0,0,1.222.615q1.582,0,1.617-2.435v-.3q0-2.558-1.635-2.558-1.485,0-1.608,2.206ZM31.4-4.676a5.8,5.8,0,0,1-.967,3.595A3.238,3.238,0,0,1,27.712.176,2.81,2.81,0,0,1,25.374-.976L25.251,0H22.6V-13.5h2.962v4.755a2.711,2.711,0,0,1,2.136-.94,3.239,3.239,0,0,1,2.742,1.274A5.826,5.826,0,0,1,31.4-4.825Zm-2.971-.189a3.866,3.866,0,0,0-.365-1.952A1.229,1.229,0,0,0,26.947-7.4a1.418,1.418,0,0,0-1.389.763v3.773a1.426,1.426,0,0,0,1.406.755,1.258,1.258,0,0,0,1.327-1.018A7.309,7.309,0,0,0,28.433-4.865ZM35.833,0H32.862V-13.5h2.971Zm6.425.176a4.889,4.889,0,0,1-3.542-1.305,4.507,4.507,0,0,1-1.354-3.4v-.246A5.84,5.84,0,0,1,37.9-7.348,3.955,3.955,0,0,1,39.48-9.075a4.763,4.763,0,0,1,2.461-.611,4.117,4.117,0,0,1,3.164,1.244,4.887,4.887,0,0,1,1.16,3.467v1.151H40.377a2.135,2.135,0,0,0,.694,1.257,2.066,2.066,0,0,0,1.389.457,2.662,2.662,0,0,0,2.2-.984l1.354,1.6A3.784,3.784,0,0,1,44.442-.277,5.3,5.3,0,0,1,42.258.176ZM41.924-7.4q-1.3,0-1.547,1.723h2.988v-.229a1.467,1.467,0,0,0-.36-1.1A1.434,1.434,0,0,0,41.924-7.4Z" transform="translate(431 20071.154)" fill="#12263f"/>
    <path id="Rectángulo_18692" data-name="Rectángulo 18692" d="M14.962,0H166.6a14.962,14.962,0,0,1,14.962,14.962V46.877A14.962,14.962,0,0,1,166.6,61.839H14.962A14.962,14.962,0,0,1,0,46.877V14.962A14.962,14.962,0,0,1,14.962,0Z" transform="translate(645.568 20130.768)" fill="#75baf1"/>
    <path id="Mayorista" d="M5.019-12.8l2.856,8.9,2.848-8.9h4.061V0H11.689V-2.988l.3-6.117L8.895,0H6.855l-3.1-9.114.3,6.126V0H.967V-12.8ZM21.964,0a3.344,3.344,0,0,1-.281-.853A2.754,2.754,0,0,1,19.4.176a3.374,3.374,0,0,1-2.285-.813,2.588,2.588,0,0,1-.94-2.043,2.66,2.66,0,0,1,1.143-2.338,5.821,5.821,0,0,1,3.322-.791h.914v-.5q0-1.316-1.134-1.316a.927.927,0,0,0-1.055,1.042H16.4a2.655,2.655,0,0,1,1.173-2.239,4.931,4.931,0,0,1,2.993-.86A4.323,4.323,0,0,1,23.44-8.8a3.086,3.086,0,0,1,1.081,2.435v4.21a4.311,4.311,0,0,0,.4,2V0ZM20.109-1.934a1.652,1.652,0,0,0,.918-.237,1.487,1.487,0,0,0,.523-.536V-4.228h-.861q-1.547,0-1.547,1.389a.848.848,0,0,0,.272.655A.986.986,0,0,0,20.109-1.934ZM29.83-4.148,31.412-9.51h3.173l-3.876,11.1-.167.4a2.944,2.944,0,0,1-2.918,1.846A4.642,4.642,0,0,1,26.4,3.666V1.556h.387a2.026,2.026,0,0,0,.954-.18A1.094,1.094,0,0,0,28.23.729L28.468.1l-3.3-9.605h3.164Zm5.019-.694A5.613,5.613,0,0,1,35.4-7.378a3.96,3.96,0,0,1,1.591-1.709,4.791,4.791,0,0,1,2.435-.6,4.373,4.373,0,0,1,3.366,1.323,5.076,5.076,0,0,1,1.23,3.6v.105A4.925,4.925,0,0,1,42.79-1.129,4.384,4.384,0,0,1,39.445.176a4.434,4.434,0,0,1-3.261-1.217,4.761,4.761,0,0,1-1.327-3.3Zm2.962.185a3.538,3.538,0,0,0,.413,1.934,1.376,1.376,0,0,0,1.222.615q1.582,0,1.617-2.435v-.3q0-2.558-1.635-2.558-1.485,0-1.608,2.206ZM51.082-6.829l-.976-.07a1.752,1.752,0,0,0-1.793.879V0H45.352V-9.51h2.777l.1,1.222a2.294,2.294,0,0,1,2.083-1.4,2.888,2.888,0,0,1,.826.105ZM55.274,0H52.3V-9.51h2.971ZM52.128-11.962A1.322,1.322,0,0,1,52.585-13a1.724,1.724,0,0,1,1.187-.4,1.724,1.724,0,0,1,1.187.4,1.322,1.322,0,0,1,.457,1.037,1.322,1.322,0,0,1-.457,1.037,1.724,1.724,0,0,1-1.187.4,1.724,1.724,0,0,1-1.187-.4A1.322,1.322,0,0,1,52.128-11.962Zm9.949,9.29a.684.684,0,0,0-.4-.606,6.016,6.016,0,0,0-1.5-.475A6.853,6.853,0,0,1,58.351-4.4a3.062,3.062,0,0,1-1.1-.971,2.319,2.319,0,0,1-.378-1.31,2.628,2.628,0,0,1,1.081-2.158,4.453,4.453,0,0,1,2.83-.848,4.934,4.934,0,0,1,3.023.853,2.666,2.666,0,0,1,1.143,2.241H61.98q0-1.143-1.2-1.143a1.194,1.194,0,0,0-.782.259.8.8,0,0,0-.316.646.737.737,0,0,0,.387.642,3.654,3.654,0,0,0,1.235.4,10.671,10.671,0,0,1,1.49.378A2.706,2.706,0,0,1,64.934-2.76,2.491,2.491,0,0,1,63.778-.642a5.068,5.068,0,0,1-2.993.817,5.172,5.172,0,0,1-2.18-.439,3.645,3.645,0,0,1-1.494-1.2,2.707,2.707,0,0,1-.536-1.591h2.769a1.145,1.145,0,0,0,.439.962,1.808,1.808,0,0,0,1.081.3,1.422,1.422,0,0,0,.91-.246A.787.787,0,0,0,62.077-2.672Zm7.69-9.2V-9.51h1.564v2.057H69.768V-3.1a1.111,1.111,0,0,0,.193.747,1.037,1.037,0,0,0,.765.211,4.345,4.345,0,0,0,.738-.053V-.079a5.466,5.466,0,0,1-1.67.255,3.1,3.1,0,0,1-2.259-.721,2.954,2.954,0,0,1-.729-2.188v-4.72H65.593V-9.51h1.213v-2.364ZM77.854,0a3.344,3.344,0,0,1-.281-.853A2.754,2.754,0,0,1,75.287.176,3.374,3.374,0,0,1,73-.637a2.588,2.588,0,0,1-.94-2.043A2.66,2.66,0,0,1,73.2-5.019a5.821,5.821,0,0,1,3.322-.791h.914v-.5q0-1.316-1.134-1.316a.927.927,0,0,0-1.055,1.042H72.29a2.655,2.655,0,0,1,1.173-2.239,4.931,4.931,0,0,1,2.993-.86A4.323,4.323,0,0,1,79.33-8.8a3.086,3.086,0,0,1,1.081,2.435v4.21a4.311,4.311,0,0,0,.4,2V0ZM76-1.934a1.652,1.652,0,0,0,.918-.237,1.487,1.487,0,0,0,.523-.536V-4.228h-.861q-1.547,0-1.547,1.389a.848.848,0,0,0,.272.655A.986.986,0,0,0,76-1.934Z" transform="translate(695.242 20087.064)" fill="#fff"/>
    <path id="Rectángulo_18693" data-name="Rectángulo 18693" d="M14.962,0H157.045a14.962,14.962,0,0,1,14.962,14.962V46.877a14.962,14.962,0,0,1-14.962,14.962H14.962A14.962,14.962,0,0,1,0,46.877V14.962A14.962,14.962,0,0,1,14.962,0Z" transform="translate(650.389 19968.354)" fill="#59836b"/>
    <path id="Mayorista-2" data-name="Mayorista" d="M5.019-12.8l2.856,8.9,2.848-8.9h4.061V0H11.689V-2.988l.3-6.117L8.895,0H6.855l-3.1-9.114.3,6.126V0H.967V-12.8ZM21.964,0a3.344,3.344,0,0,1-.281-.853A2.754,2.754,0,0,1,19.4.176a3.374,3.374,0,0,1-2.285-.813,2.588,2.588,0,0,1-.94-2.043,2.66,2.66,0,0,1,1.143-2.338,5.821,5.821,0,0,1,3.322-.791h.914v-.5q0-1.316-1.134-1.316a.927.927,0,0,0-1.055,1.042H16.4a2.655,2.655,0,0,1,1.173-2.239,4.931,4.931,0,0,1,2.993-.86A4.323,4.323,0,0,1,23.44-8.8a3.086,3.086,0,0,1,1.081,2.435v4.21a4.311,4.311,0,0,0,.4,2V0ZM20.109-1.934a1.652,1.652,0,0,0,.918-.237,1.487,1.487,0,0,0,.523-.536V-4.228h-.861q-1.547,0-1.547,1.389a.848.848,0,0,0,.272.655A.986.986,0,0,0,20.109-1.934ZM29.83-4.148,31.412-9.51h3.173l-3.876,11.1-.167.4a2.944,2.944,0,0,1-2.918,1.846A4.642,4.642,0,0,1,26.4,3.666V1.556h.387a2.026,2.026,0,0,0,.954-.18A1.094,1.094,0,0,0,28.23.729L28.468.1l-3.3-9.605h3.164Zm5.019-.694A5.613,5.613,0,0,1,35.4-7.378a3.96,3.96,0,0,1,1.591-1.709,4.791,4.791,0,0,1,2.435-.6,4.373,4.373,0,0,1,3.366,1.323,5.076,5.076,0,0,1,1.23,3.6v.105A4.925,4.925,0,0,1,42.79-1.129,4.384,4.384,0,0,1,39.445.176a4.434,4.434,0,0,1-3.261-1.217,4.761,4.761,0,0,1-1.327-3.3Zm2.962.185a3.538,3.538,0,0,0,.413,1.934,1.376,1.376,0,0,0,1.222.615q1.582,0,1.617-2.435v-.3q0-2.558-1.635-2.558-1.485,0-1.608,2.206ZM51.082-6.829l-.976-.07a1.752,1.752,0,0,0-1.793.879V0H45.352V-9.51h2.777l.1,1.222a2.294,2.294,0,0,1,2.083-1.4,2.888,2.888,0,0,1,.826.105ZM55.274,0H52.3V-9.51h2.971ZM52.128-11.962A1.322,1.322,0,0,1,52.585-13a1.724,1.724,0,0,1,1.187-.4,1.724,1.724,0,0,1,1.187.4,1.322,1.322,0,0,1,.457,1.037,1.322,1.322,0,0,1-.457,1.037,1.724,1.724,0,0,1-1.187.4,1.724,1.724,0,0,1-1.187-.4A1.322,1.322,0,0,1,52.128-11.962Zm9.949,9.29a.684.684,0,0,0-.4-.606,6.016,6.016,0,0,0-1.5-.475A6.853,6.853,0,0,1,58.351-4.4a3.062,3.062,0,0,1-1.1-.971,2.319,2.319,0,0,1-.378-1.31,2.628,2.628,0,0,1,1.081-2.158,4.453,4.453,0,0,1,2.83-.848,4.934,4.934,0,0,1,3.023.853,2.666,2.666,0,0,1,1.143,2.241H61.98q0-1.143-1.2-1.143a1.194,1.194,0,0,0-.782.259.8.8,0,0,0-.316.646.737.737,0,0,0,.387.642,3.654,3.654,0,0,0,1.235.4,10.671,10.671,0,0,1,1.49.378A2.706,2.706,0,0,1,64.934-2.76,2.491,2.491,0,0,1,63.778-.642a5.068,5.068,0,0,1-2.993.817,5.172,5.172,0,0,1-2.18-.439,3.645,3.645,0,0,1-1.494-1.2,2.707,2.707,0,0,1-.536-1.591h2.769a1.145,1.145,0,0,0,.439.962,1.808,1.808,0,0,0,1.081.3,1.422,1.422,0,0,0,.91-.246A.787.787,0,0,0,62.077-2.672Zm7.69-9.2V-9.51h1.564v2.057H69.768V-3.1a1.111,1.111,0,0,0,.193.747,1.037,1.037,0,0,0,.765.211,4.345,4.345,0,0,0,.738-.053V-.079a5.466,5.466,0,0,1-1.67.255,3.1,3.1,0,0,1-2.259-.721,2.954,2.954,0,0,1-.729-2.188v-4.72H65.593V-9.51h1.213v-2.364ZM77.854,0a3.344,3.344,0,0,1-.281-.853A2.754,2.754,0,0,1,75.287.176,3.374,3.374,0,0,1,73-.637a2.588,2.588,0,0,1-.94-2.043A2.66,2.66,0,0,1,73.2-5.019a5.821,5.821,0,0,1,3.322-.791h.914v-.5q0-1.316-1.134-1.316a.927.927,0,0,0-1.055,1.042H72.29a2.655,2.655,0,0,1,1.173-2.239,4.931,4.931,0,0,1,2.993-.86A4.323,4.323,0,0,1,79.33-8.8a3.086,3.086,0,0,1,1.081,2.435v4.21a4.311,4.311,0,0,0,.4,2V0ZM76-1.934a1.652,1.652,0,0,0,.918-.237,1.487,1.487,0,0,0,.523-.536V-4.228h-.861q-1.547,0-1.547,1.389a.848.848,0,0,0,.272.655A.986.986,0,0,0,76-1.934Z" transform="translate(695.242 20004.854)" fill="#fff"/>
    <path id="Minorista" d="M5.019-12.8l2.856,8.9,2.848-8.9h4.061V0H11.689V-2.988l.3-6.117L8.895,0H6.855l-3.1-9.114.3,6.126V0H.967V-12.8ZM19.731,0H16.761V-9.51h2.971ZM16.585-11.962A1.322,1.322,0,0,1,17.042-13a1.724,1.724,0,0,1,1.187-.4,1.724,1.724,0,0,1,1.187.4,1.322,1.322,0,0,1,.457,1.037,1.322,1.322,0,0,1-.457,1.037,1.724,1.724,0,0,1-1.187.4,1.724,1.724,0,0,1-1.187-.4A1.322,1.322,0,0,1,16.585-11.962Zm7.69,2.452.1,1.116a3.225,3.225,0,0,1,2.716-1.292,2.713,2.713,0,0,1,2.219.888,4.226,4.226,0,0,1,.76,2.672V0H27.1V-6a1.6,1.6,0,0,0-.29-1.059A1.342,1.342,0,0,0,25.752-7.4a1.413,1.413,0,0,0-1.292.686V0H21.5V-9.51Zm7.058,4.667a5.613,5.613,0,0,1,.554-2.536,3.96,3.96,0,0,1,1.591-1.709,4.791,4.791,0,0,1,2.435-.6,4.373,4.373,0,0,1,3.366,1.323,5.076,5.076,0,0,1,1.23,3.6v.105a4.925,4.925,0,0,1-1.235,3.529A4.384,4.384,0,0,1,35.93.176a4.434,4.434,0,0,1-3.261-1.217,4.761,4.761,0,0,1-1.327-3.3Zm2.962.185a3.538,3.538,0,0,0,.413,1.934,1.376,1.376,0,0,0,1.222.615q1.582,0,1.617-2.435v-.3q0-2.558-1.635-2.558-1.485,0-1.608,2.206ZM47.566-6.829l-.976-.07a1.752,1.752,0,0,0-1.793.879V0H41.836V-9.51h2.777l.1,1.222a2.294,2.294,0,0,1,2.083-1.4,2.888,2.888,0,0,1,.826.105ZM51.759,0H48.788V-9.51h2.971ZM48.612-11.962A1.322,1.322,0,0,1,49.069-13a1.724,1.724,0,0,1,1.187-.4,1.724,1.724,0,0,1,1.187.4,1.322,1.322,0,0,1,.457,1.037,1.322,1.322,0,0,1-.457,1.037,1.724,1.724,0,0,1-1.187.4,1.724,1.724,0,0,1-1.187-.4A1.322,1.322,0,0,1,48.612-11.962Zm9.949,9.29a.684.684,0,0,0-.4-.606,6.016,6.016,0,0,0-1.5-.475A6.853,6.853,0,0,1,54.835-4.4a3.062,3.062,0,0,1-1.1-.971,2.319,2.319,0,0,1-.378-1.31,2.628,2.628,0,0,1,1.081-2.158,4.453,4.453,0,0,1,2.83-.848,4.934,4.934,0,0,1,3.023.853,2.666,2.666,0,0,1,1.143,2.241H58.465q0-1.143-1.2-1.143a1.194,1.194,0,0,0-.782.259.8.8,0,0,0-.316.646.737.737,0,0,0,.387.642,3.654,3.654,0,0,0,1.235.4,10.671,10.671,0,0,1,1.49.378A2.706,2.706,0,0,1,61.418-2.76,2.491,2.491,0,0,1,60.262-.642,5.068,5.068,0,0,1,57.27.176a5.172,5.172,0,0,1-2.18-.439,3.645,3.645,0,0,1-1.494-1.2A2.707,2.707,0,0,1,53.06-3.05h2.769a1.145,1.145,0,0,0,.439.962,1.808,1.808,0,0,0,1.081.3,1.422,1.422,0,0,0,.91-.246A.787.787,0,0,0,58.562-2.672Zm7.69-9.2V-9.51h1.564v2.057H66.252V-3.1a1.111,1.111,0,0,0,.193.747,1.037,1.037,0,0,0,.765.211,4.345,4.345,0,0,0,.738-.053V-.079a5.466,5.466,0,0,1-1.67.255A3.1,3.1,0,0,1,64.02-.545a2.954,2.954,0,0,1-.729-2.188v-4.72H62.077V-9.51H63.29v-2.364ZM74.338,0a3.344,3.344,0,0,1-.281-.853A2.754,2.754,0,0,1,71.771.176a3.374,3.374,0,0,1-2.285-.813,2.588,2.588,0,0,1-.94-2.043,2.66,2.66,0,0,1,1.143-2.338,5.821,5.821,0,0,1,3.322-.791h.914v-.5q0-1.316-1.134-1.316a.927.927,0,0,0-1.055,1.042H68.774a2.655,2.655,0,0,1,1.173-2.239,4.931,4.931,0,0,1,2.993-.86,4.323,4.323,0,0,1,2.874.888A3.086,3.086,0,0,1,76.9-6.363v4.21a4.311,4.311,0,0,0,.4,2V0ZM72.483-1.934a1.652,1.652,0,0,0,.918-.237,1.487,1.487,0,0,0,.523-.536V-4.228h-.861q-1.547,0-1.547,1.389a.848.848,0,0,0,.272.655A.986.986,0,0,0,72.483-1.934Z" transform="translate(695.153 20167.971)" fill="#12263f"/>
    <path id="Rectángulo_18694" data-name="Rectángulo 18694" d="M14.962,0H166.6a14.962,14.962,0,0,1,14.962,14.962V46.877A14.962,14.962,0,0,1,166.6,61.839H14.962A14.962,14.962,0,0,1,0,46.877V14.962A14.962,14.962,0,0,1,14.962,0Z" transform="translate(748.363 19830.611)" fill="#75baf1"/>
    <path id="Minorista-2" data-name="Minorista" d="M5.019-12.8l2.856,8.9,2.848-8.9h4.061V0H11.689V-2.988l.3-6.117L8.895,0H6.855l-3.1-9.114.3,6.126V0H.967V-12.8ZM19.731,0H16.761V-9.51h2.971ZM16.585-11.962A1.322,1.322,0,0,1,17.042-13a1.724,1.724,0,0,1,1.187-.4,1.724,1.724,0,0,1,1.187.4,1.322,1.322,0,0,1,.457,1.037,1.322,1.322,0,0,1-.457,1.037,1.724,1.724,0,0,1-1.187.4,1.724,1.724,0,0,1-1.187-.4A1.322,1.322,0,0,1,16.585-11.962Zm7.69,2.452.1,1.116a3.225,3.225,0,0,1,2.716-1.292,2.713,2.713,0,0,1,2.219.888,4.226,4.226,0,0,1,.76,2.672V0H27.1V-6a1.6,1.6,0,0,0-.29-1.059A1.342,1.342,0,0,0,25.752-7.4a1.413,1.413,0,0,0-1.292.686V0H21.5V-9.51Zm7.058,4.667a5.613,5.613,0,0,1,.554-2.536,3.96,3.96,0,0,1,1.591-1.709,4.791,4.791,0,0,1,2.435-.6,4.373,4.373,0,0,1,3.366,1.323,5.076,5.076,0,0,1,1.23,3.6v.105a4.925,4.925,0,0,1-1.235,3.529A4.384,4.384,0,0,1,35.93.176a4.434,4.434,0,0,1-3.261-1.217,4.761,4.761,0,0,1-1.327-3.3Zm2.962.185a3.538,3.538,0,0,0,.413,1.934,1.376,1.376,0,0,0,1.222.615q1.582,0,1.617-2.435v-.3q0-2.558-1.635-2.558-1.485,0-1.608,2.206ZM47.566-6.829l-.976-.07a1.752,1.752,0,0,0-1.793.879V0H41.836V-9.51h2.777l.1,1.222a2.294,2.294,0,0,1,2.083-1.4,2.888,2.888,0,0,1,.826.105ZM51.759,0H48.788V-9.51h2.971ZM48.612-11.962A1.322,1.322,0,0,1,49.069-13a1.724,1.724,0,0,1,1.187-.4,1.724,1.724,0,0,1,1.187.4,1.322,1.322,0,0,1,.457,1.037,1.322,1.322,0,0,1-.457,1.037,1.724,1.724,0,0,1-1.187.4,1.724,1.724,0,0,1-1.187-.4A1.322,1.322,0,0,1,48.612-11.962Zm9.949,9.29a.684.684,0,0,0-.4-.606,6.016,6.016,0,0,0-1.5-.475A6.853,6.853,0,0,1,54.835-4.4a3.062,3.062,0,0,1-1.1-.971,2.319,2.319,0,0,1-.378-1.31,2.628,2.628,0,0,1,1.081-2.158,4.453,4.453,0,0,1,2.83-.848,4.934,4.934,0,0,1,3.023.853,2.666,2.666,0,0,1,1.143,2.241H58.465q0-1.143-1.2-1.143a1.194,1.194,0,0,0-.782.259.8.8,0,0,0-.316.646.737.737,0,0,0,.387.642,3.654,3.654,0,0,0,1.235.4,10.671,10.671,0,0,1,1.49.378A2.706,2.706,0,0,1,61.418-2.76,2.491,2.491,0,0,1,60.262-.642,5.068,5.068,0,0,1,57.27.176a5.172,5.172,0,0,1-2.18-.439,3.645,3.645,0,0,1-1.494-1.2A2.707,2.707,0,0,1,53.06-3.05h2.769a1.145,1.145,0,0,0,.439.962,1.808,1.808,0,0,0,1.081.3,1.422,1.422,0,0,0,.91-.246A.787.787,0,0,0,58.562-2.672Zm7.69-9.2V-9.51h1.564v2.057H66.252V-3.1a1.111,1.111,0,0,0,.193.747,1.037,1.037,0,0,0,.765.211,4.345,4.345,0,0,0,.738-.053V-.079a5.466,5.466,0,0,1-1.67.255A3.1,3.1,0,0,1,64.02-.545a2.954,2.954,0,0,1-.729-2.188v-4.72H62.077V-9.51H63.29v-2.364ZM74.338,0a3.344,3.344,0,0,1-.281-.853A2.754,2.754,0,0,1,71.771.176a3.374,3.374,0,0,1-2.285-.813,2.588,2.588,0,0,1-.94-2.043,2.66,2.66,0,0,1,1.143-2.338,5.821,5.821,0,0,1,3.322-.791h.914v-.5q0-1.316-1.134-1.316a.927.927,0,0,0-1.055,1.042H68.774a2.655,2.655,0,0,1,1.173-2.239,4.931,4.931,0,0,1,2.993-.86,4.323,4.323,0,0,1,2.874.888A3.086,3.086,0,0,1,76.9-6.363v4.21a4.311,4.311,0,0,0,.4,2V0ZM72.483-1.934a1.652,1.652,0,0,0,.918-.237,1.487,1.487,0,0,0,.523-.536V-4.228h-.861q-1.547,0-1.547,1.389a.848.848,0,0,0,.272.655A.986.986,0,0,0,72.483-1.934Z" transform="translate(796 19867.818)" fill="#12263f"/>
    <path id="Rectángulo_18695" data-name="Rectángulo 18695" d="M14.962,0H166.6a14.962,14.962,0,0,1,14.962,14.962V46.877A14.962,14.962,0,0,1,166.6,61.839H14.962A14.962,14.962,0,0,1,0,46.877V14.962A14.962,14.962,0,0,1,14.962,0Z" transform="translate(748.363 19731.658)" fill="#75baf1"/>
    <path id="Internet" d="M4.254,0H1.178V-12.8H4.254ZM8.982-9.51l.1,1.116a3.225,3.225,0,0,1,2.716-1.292,2.713,2.713,0,0,1,2.219.888,4.226,4.226,0,0,1,.76,2.672V0H11.8V-6a1.6,1.6,0,0,0-.29-1.059A1.342,1.342,0,0,0,10.459-7.4a1.413,1.413,0,0,0-1.292.686V0H6.205V-9.51Zm10.881-2.364V-9.51h1.564v2.057H19.863V-3.1a1.111,1.111,0,0,0,.193.747,1.037,1.037,0,0,0,.765.211A4.345,4.345,0,0,0,21.56-2.2V-.079a5.466,5.466,0,0,1-1.67.255,3.1,3.1,0,0,1-2.259-.721A2.954,2.954,0,0,1,16.9-2.733v-4.72H15.688V-9.51H16.9v-2.364ZM27.193.176a4.889,4.889,0,0,1-3.542-1.305,4.507,4.507,0,0,1-1.354-3.4v-.246a5.84,5.84,0,0,1,.541-2.575,3.955,3.955,0,0,1,1.578-1.727,4.763,4.763,0,0,1,2.461-.611,4.117,4.117,0,0,1,3.164,1.244A4.887,4.887,0,0,1,31.2-4.975v1.151H25.313a2.135,2.135,0,0,0,.694,1.257,2.066,2.066,0,0,0,1.389.457,2.662,2.662,0,0,0,2.2-.984l1.354,1.6A3.784,3.784,0,0,1,29.377-.277,5.3,5.3,0,0,1,27.193.176ZM26.859-7.4q-1.3,0-1.547,1.723H28.3v-.229a1.467,1.467,0,0,0-.36-1.1A1.434,1.434,0,0,0,26.859-7.4Zm11.285.571-.976-.07a1.752,1.752,0,0,0-1.793.879V0H32.414V-9.51h2.777l.1,1.222a2.294,2.294,0,0,1,2.083-1.4,2.888,2.888,0,0,1,.826.105ZM41.933-9.51l.1,1.116a3.225,3.225,0,0,1,2.716-1.292,2.713,2.713,0,0,1,2.219.888,4.226,4.226,0,0,1,.76,2.672V0H44.754V-6a1.6,1.6,0,0,0-.29-1.059A1.342,1.342,0,0,0,43.409-7.4a1.413,1.413,0,0,0-1.292.686V0H39.155V-9.51ZM53.965.176a4.889,4.889,0,0,1-3.542-1.305,4.507,4.507,0,0,1-1.354-3.4v-.246a5.84,5.84,0,0,1,.541-2.575,3.955,3.955,0,0,1,1.578-1.727,4.763,4.763,0,0,1,2.461-.611,4.117,4.117,0,0,1,3.164,1.244,4.887,4.887,0,0,1,1.16,3.467v1.151H52.084a2.135,2.135,0,0,0,.694,1.257,2.066,2.066,0,0,0,1.389.457,2.662,2.662,0,0,0,2.2-.984l1.354,1.6A3.784,3.784,0,0,1,56.149-.277,5.3,5.3,0,0,1,53.965.176ZM53.631-7.4q-1.3,0-1.547,1.723h2.988v-.229a1.467,1.467,0,0,0-.36-1.1A1.434,1.434,0,0,0,53.631-7.4Zm8.982-4.474V-9.51h1.564v2.057H62.613V-3.1a1.111,1.111,0,0,0,.193.747,1.037,1.037,0,0,0,.765.211A4.345,4.345,0,0,0,64.31-2.2V-.079a5.466,5.466,0,0,1-1.67.255,3.1,3.1,0,0,1-2.259-.721,2.954,2.954,0,0,1-.729-2.188v-4.72H58.438V-9.51h1.213v-2.364Z" transform="translate(803 19769.861)" fill="#12263f"/>
    <path id="Rectángulo_18696" data-name="Rectángulo 18696" d="M14.962,0h125.9a14.962,14.962,0,0,1,14.962,14.962V46.877a14.962,14.962,0,0,1-14.962,14.962H14.962A14.962,14.962,0,0,1,0,46.877V14.962A14.962,14.962,0,0,1,14.962,0Z" transform="translate(898.562 19968.354)" fill="#75baf1"/>
    <path id="Minorista-3" data-name="Minorista" d="M5.019-12.8l2.856,8.9,2.848-8.9h4.061V0H11.689V-2.988l.3-6.117L8.895,0H6.855l-3.1-9.114.3,6.126V0H.967V-12.8ZM19.731,0H16.761V-9.51h2.971ZM16.585-11.962A1.322,1.322,0,0,1,17.042-13a1.724,1.724,0,0,1,1.187-.4,1.724,1.724,0,0,1,1.187.4,1.322,1.322,0,0,1,.457,1.037,1.322,1.322,0,0,1-.457,1.037,1.724,1.724,0,0,1-1.187.4,1.724,1.724,0,0,1-1.187-.4A1.322,1.322,0,0,1,16.585-11.962Zm7.69,2.452.1,1.116a3.225,3.225,0,0,1,2.716-1.292,2.713,2.713,0,0,1,2.219.888,4.226,4.226,0,0,1,.76,2.672V0H27.1V-6a1.6,1.6,0,0,0-.29-1.059A1.342,1.342,0,0,0,25.752-7.4a1.413,1.413,0,0,0-1.292.686V0H21.5V-9.51Zm7.058,4.667a5.613,5.613,0,0,1,.554-2.536,3.96,3.96,0,0,1,1.591-1.709,4.791,4.791,0,0,1,2.435-.6,4.373,4.373,0,0,1,3.366,1.323,5.076,5.076,0,0,1,1.23,3.6v.105a4.925,4.925,0,0,1-1.235,3.529A4.384,4.384,0,0,1,35.93.176a4.434,4.434,0,0,1-3.261-1.217,4.761,4.761,0,0,1-1.327-3.3Zm2.962.185a3.538,3.538,0,0,0,.413,1.934,1.376,1.376,0,0,0,1.222.615q1.582,0,1.617-2.435v-.3q0-2.558-1.635-2.558-1.485,0-1.608,2.206ZM47.566-6.829l-.976-.07a1.752,1.752,0,0,0-1.793.879V0H41.836V-9.51h2.777l.1,1.222a2.294,2.294,0,0,1,2.083-1.4,2.888,2.888,0,0,1,.826.105ZM51.759,0H48.788V-9.51h2.971ZM48.612-11.962A1.322,1.322,0,0,1,49.069-13a1.724,1.724,0,0,1,1.187-.4,1.724,1.724,0,0,1,1.187.4,1.322,1.322,0,0,1,.457,1.037,1.322,1.322,0,0,1-.457,1.037,1.724,1.724,0,0,1-1.187.4,1.724,1.724,0,0,1-1.187-.4A1.322,1.322,0,0,1,48.612-11.962Zm9.949,9.29a.684.684,0,0,0-.4-.606,6.016,6.016,0,0,0-1.5-.475A6.853,6.853,0,0,1,54.835-4.4a3.062,3.062,0,0,1-1.1-.971,2.319,2.319,0,0,1-.378-1.31,2.628,2.628,0,0,1,1.081-2.158,4.453,4.453,0,0,1,2.83-.848,4.934,4.934,0,0,1,3.023.853,2.666,2.666,0,0,1,1.143,2.241H58.465q0-1.143-1.2-1.143a1.194,1.194,0,0,0-.782.259.8.8,0,0,0-.316.646.737.737,0,0,0,.387.642,3.654,3.654,0,0,0,1.235.4,10.671,10.671,0,0,1,1.49.378A2.706,2.706,0,0,1,61.418-2.76,2.491,2.491,0,0,1,60.262-.642,5.068,5.068,0,0,1,57.27.176a5.172,5.172,0,0,1-2.18-.439,3.645,3.645,0,0,1-1.494-1.2A2.707,2.707,0,0,1,53.06-3.05h2.769a1.145,1.145,0,0,0,.439.962,1.808,1.808,0,0,0,1.081.3,1.422,1.422,0,0,0,.91-.246A.787.787,0,0,0,58.562-2.672Zm7.69-9.2V-9.51h1.564v2.057H66.252V-3.1a1.111,1.111,0,0,0,.193.747,1.037,1.037,0,0,0,.765.211,4.345,4.345,0,0,0,.738-.053V-.079a5.466,5.466,0,0,1-1.67.255A3.1,3.1,0,0,1,64.02-.545a2.954,2.954,0,0,1-.729-2.188v-4.72H62.077V-9.51H63.29v-2.364ZM74.338,0a3.344,3.344,0,0,1-.281-.853A2.754,2.754,0,0,1,71.771.176a3.374,3.374,0,0,1-2.285-.813,2.588,2.588,0,0,1-.94-2.043,2.66,2.66,0,0,1,1.143-2.338,5.821,5.821,0,0,1,3.322-.791h.914v-.5q0-1.316-1.134-1.316a.927.927,0,0,0-1.055,1.042H68.774a2.655,2.655,0,0,1,1.173-2.239,4.931,4.931,0,0,1,2.993-.86,4.323,4.323,0,0,1,2.874.888A3.086,3.086,0,0,1,76.9-6.363v4.21a4.311,4.311,0,0,0,.4,2V0ZM72.483-1.934a1.652,1.652,0,0,0,.918-.237,1.487,1.487,0,0,0,.523-.536V-4.228h-.861q-1.547,0-1.547,1.389a.848.848,0,0,0,.272.655A.986.986,0,0,0,72.483-1.934Z" transform="translate(937 20006.557)" fill="#12263f"/>
  </g>
</svg>
