<svg xmlns="http://www.w3.org/2000/svg" xmlns:xlink="http://www.w3.org/1999/xlink" width="400" height="321" viewBox="0 0 400 321">
  <defs>
    <linearGradient id="linear-gradient" x1="0.814" y1="0.117" x2="0.236" y2="0.921" gradientUnits="objectBoundingBox">
      <stop offset="0" stop-color="#be79ca"/>
      <stop offset="1" stop-color="#371f63"/>
    </linearGradient>
    <clipPath id="clip-path">
      <path id="Trazado_873802" data-name="Trazado 873802" d="M0,0H400V321L283.636,288.239S248.387,311.13,210,312.885s-68.832-10.82-68.832-10.82S118.659,294.774,85,261.295,0,321,0,321Z" transform="translate(1020 5255)" fill="#fff" stroke="#707070" stroke-width="1"/>
    </clipPath>
    <clipPath id="clip-path-2">
      <rect id="Rectángulo_401280" data-name="Rectángulo 401280" width="343.406" height="299.319" fill="none"/>
    </clipPath>
    <clipPath id="clip-path-7">
      <rect id="Rectángulo_401264" data-name="Rectángulo 401264" width="51.941" height="51.941" fill="none"/>
    </clipPath>
    <clipPath id="clip-path-8">
      <rect id="Rectángulo_401265" data-name="Rectángulo 401265" width="20.23" height="17.753" fill="none"/>
    </clipPath>
    <clipPath id="clip-path-10">
      <rect id="Rectángulo_401267" data-name="Rectángulo 401267" width="141.209" height="129.523" fill="none"/>
    </clipPath>
    <clipPath id="clip-path-11">
      <rect id="Rectángulo_401268" data-name="Rectángulo 401268" width="40.683" height="103.331" fill="none"/>
    </clipPath>
    <clipPath id="clip-path-12">
      <rect id="Rectángulo_401269" data-name="Rectángulo 401269" width="28.737" height="15.841" fill="none"/>
    </clipPath>
    <clipPath id="clip-path-15">
      <rect id="Rectángulo_401272" data-name="Rectángulo 401272" width="27.976" height="25.968" fill="none"/>
    </clipPath>
    <clipPath id="clip-path-18">
      <rect id="Rectángulo_401275" data-name="Rectángulo 401275" width="46.828" height="28.164" fill="none"/>
    </clipPath>
    <clipPath id="clip-path-20">
      <rect id="Rectángulo_401277" data-name="Rectángulo 401277" width="71.828" height="43.201" fill="none"/>
    </clipPath>
  </defs>
  <g id="Grupo_1102801" data-name="Grupo 1102801" transform="translate(-180 -24874.916)">
    <g id="Grupo_1100992" data-name="Grupo 1100992" transform="translate(-840 19619.916)">
      <g id="Grupo_1099960" data-name="Grupo 1099960" transform="translate(13718.387 17874.502)">
        <path id="Trazado_145968" data-name="Trazado 145968" d="M66.711,0a66.711,66.711,0,1,0,66.711,66.711A66.711,66.711,0,0,0,66.711,0Z" transform="translate(-12688.135 -12445.871)" fill="#75baf1" opacity="0.444"/>
        <path id="Trazado_145969" data-name="Trazado 145969" d="M45.584,0A45.584,45.584,0,1,0,91.168,45.584,45.584,45.584,0,0,0,45.584,0Z" transform="translate(-12426.826 -12590.302)" fill="#75baf1" opacity="0.444"/>
        <rect id="Rectángulo_34812" data-name="Rectángulo 34812" width="400" height="300" transform="translate(-12698.387 -12607.222)" fill="none"/>
        <path id="Trazado_145967" data-name="Trazado 145967" d="M150.485,0A150.485,150.485,0,1,0,300.971,150.485,150.485,150.485,0,0,0,150.485,0Z" transform="translate(-12648.872 -12607.707)" fill="url(#linear-gradient)"/>
        <path id="Trazado_145971" data-name="Trazado 145971" d="M12.533,0A12.533,12.533,0,1,0,25.066,12.533,12.533,12.533,0,0,0,12.533,0Z" transform="translate(-12372.968 -12357.124)" fill="#75baf1"/>
        <path id="Elipse_4044" data-name="Elipse 4044" d="M17,4.594A12.4,12.4,0,1,1,4.594,17,12.417,12.417,0,0,1,17,4.594M17,0a17,17,0,1,0,17,17A17,17,0,0,0,17,0Z" transform="translate(-12406.962 -12500.362)" fill="#fff"/>
      </g>
      <g id="Enmascarar_grupo_1098691" data-name="Enmascarar grupo 1098691" clip-path="url(#clip-path)">
        <g id="Grupo_1100993" data-name="Grupo 1100993" transform="translate(1076.594 5266.841)">
          <g id="Grupo_1101038" data-name="Grupo 1101038" transform="translate(0 0)" clip-path="url(#clip-path-2)">
            <g id="Grupo_1100993-2" data-name="Grupo 1100993">
              <g id="Grupo_1100992-2" data-name="Grupo 1100992" clip-path="url(#clip-path-2)">
                <path id="Trazado_874003" data-name="Trazado 874003" d="M73.464,177.67c-.092-.058-.4.252-.678.691s-.436.844-.345.9.394-.249.678-.691.437-.847.345-.9" transform="translate(215.019 -42.983)" fill="#e0e0e0"/>
                <path id="Trazado_874004" data-name="Trazado 874004" d="M69.336,168.918a9.231,9.231,0,0,0-1.766,3.364c.1.053.569-.658,1.057-1.59a4.717,4.717,0,0,0,.708-1.773" transform="translate(222.842 -40.866)" fill="#e0e0e0"/>
                <path id="Trazado_874005" data-name="Trazado 874005" d="M65.007,159.728a9.251,9.251,0,0,0-1.425,3.521,9.251,9.251,0,0,0,1.425-3.521" transform="translate(230.194 -38.643)" fill="#e0e0e0"/>
                <path id="Trazado_874006" data-name="Trazado 874006" d="M61.591,150.186a9.23,9.23,0,0,0-1.067,3.646,9.239,9.239,0,0,0,1.067-3.646" transform="translate(235.926 -36.335)" fill="#e0e0e0"/>
                <path id="Trazado_874007" data-name="Trazado 874007" d="M59.136,140.384a9.224,9.224,0,0,0-.689,3.736,9.224,9.224,0,0,0,.689-3.736" transform="translate(239.951 -33.963)" fill="#e0e0e0"/>
                <path id="Trazado_874008" data-name="Trazado 874008" d="M57.69,130.419a9.239,9.239,0,0,0-.289,3.787,9.239,9.239,0,0,0,.289-3.787" transform="translate(242.177 -31.553)" fill="#e0e0e0"/>
                <path id="Trazado_874009" data-name="Trazado 874009" d="M57.282,120.4a9.21,9.21,0,0,0,.133,3.8,9.245,9.245,0,0,0-.133-3.8" transform="translate(242.533 -29.128)" fill="#e0e0e0"/>
                <path id="Trazado_874010" data-name="Trazado 874010" d="M57.947,110.456a9.23,9.23,0,0,0,.574,3.755,9.231,9.231,0,0,0-.574-3.755" transform="translate(240.943 -26.723)" fill="#e0e0e0"/>
                <path id="Trazado_874011" data-name="Trazado 874011" d="M59.77,100.734a9.249,9.249,0,0,0,1.03,3.657,9.24,9.24,0,0,0-1.03-3.657" transform="translate(237.287 -24.371)" fill="#e0e0e0"/>
                <path id="Trazado_874012" data-name="Trazado 874012" d="M62.783,91.376a9.251,9.251,0,0,0,1.466,3.506,9.251,9.251,0,0,0-1.466-3.506" transform="translate(231.558 -22.107)" fill="#e0e0e0"/>
                <path id="Trazado_874013" data-name="Trazado 874013" d="M66.926,82.518a9.26,9.26,0,0,0,1.875,3.3,4.708,4.708,0,0,0-.766-1.75c-.52-.915-1.017-1.611-1.11-1.554" transform="translate(223.865 -19.963)" fill="#e0e0e0"/>
                <path id="Trazado_874014" data-name="Trazado 874014" d="M72.134,74.3a4.763,4.763,0,0,0,.971,1.642c.622.839,1.2,1.469,1.288,1.408a4.679,4.679,0,0,0-.971-1.643c-.626-.845-1.2-1.475-1.288-1.407" transform="translate(214.327 -17.974)" fill="#e0e0e0"/>
                <path id="Trazado_874015" data-name="Trazado 874015" d="M78.34,66.835c-.076.078.447.754,1.168,1.511s1.372,1.31,1.453,1.238-.441-.748-1.168-1.511-1.377-1.316-1.453-1.238" transform="translate(203.055 -16.168)" fill="#e0e0e0"/>
                <path id="Trazado_874016" data-name="Trazado 874016" d="M85.481,60.282c-.065.087.54.691,1.352,1.349a4.783,4.783,0,0,0,1.6,1.042c.071-.082-.534-.686-1.352-1.349s-1.535-1.129-1.6-1.042" transform="translate(190.17 -14.582)" fill="#e0e0e0"/>
                <path id="Trazado_874017" data-name="Trazado 874017" d="M93.471,54.788c-.053.1.627.613,1.518,1.155a4.764,4.764,0,0,0,1.723.818c.061-.09-.619-.608-1.518-1.155a4.686,4.686,0,0,0-1.723-.818" transform="translate(175.835 -13.251)" fill="#e0e0e0"/>
                <path id="Trazado_874018" data-name="Trazado 874018" d="M102.2,50.5a9.258,9.258,0,0,0,3.489,1.5,9.226,9.226,0,0,0-3.489-1.5" transform="translate(160.248 -12.212)" fill="#e0e0e0"/>
                <path id="Trazado_874019" data-name="Trazado 874019" d="M111.528,47.5a9.233,9.233,0,0,0,3.661,1.013,9.232,9.232,0,0,0-3.661-1.013" transform="translate(143.671 -11.483)" fill="#e0e0e0"/>
                <path id="Trazado_874020" data-name="Trazado 874020" d="M121.265,45.793a9.213,9.213,0,0,0,3.759.52,9.218,9.218,0,0,0-3.759-.52" transform="translate(126.455 -11.063)" fill="#e0e0e0"/>
                <path id="Trazado_874021" data-name="Trazado 874021" d="M131.22,45.359a9.215,9.215,0,0,0,3.8.026,9.25,9.25,0,0,0-3.8-.026" transform="translate(108.914 -10.929)" fill="#e0e0e0"/>
                <path id="Trazado_874022" data-name="Trazado 874022" d="M141.233,46.165A9.228,9.228,0,0,0,145,45.69a9.223,9.223,0,0,0-3.768.475" transform="translate(91.342 -11.037)" fill="#e0e0e0"/>
                <path id="Trazado_874023" data-name="Trazado 874023" d="M151.117,48.273a9.242,9.242,0,0,0,3.669-.985,9.233,9.233,0,0,0-3.669.985" transform="translate(74.063 -11.432)" fill="#e0e0e0"/>
                <path id="Trazado_874024" data-name="Trazado 874024" d="M160.692,51.728a9.224,9.224,0,0,0,3.49-1.5,9.224,9.224,0,0,0-3.49,1.5" transform="translate(57.409 -12.147)" fill="#e0e0e0"/>
                <path id="Trazado_874025" data-name="Trazado 874025" d="M169.741,56.523a4.781,4.781,0,0,0,1.717-.834,5.074,5.074,0,0,0,1.513-1.164c-.058-.1-.825.274-1.721.829s-1.571,1.079-1.509,1.17" transform="translate(41.761 -13.187)" fill="#e0e0e0"/>
                <path id="Trazado_874026" data-name="Trazado 874026" d="M178.069,62.5a4.779,4.779,0,0,0,1.591-1.056c.806-.664,1.406-1.274,1.34-1.36s-.778.386-1.59,1.055S178,62.422,178.069,62.5" transform="translate(27.417 -14.535)" fill="#e0e0e0"/>
                <path id="Trazado_874027" data-name="Trazado 874027" d="M185.594,69.448c.081.073.732-.482,1.452-1.239s1.244-1.434,1.167-1.512-.727.477-1.453,1.239-1.248,1.439-1.167,1.512" transform="translate(14.498 -16.135)" fill="#e0e0e0"/>
                <path id="Trazado_874028" data-name="Trazado 874028" d="M192.3,77.144c.088.064.678-.556,1.316-1.383a4.769,4.769,0,0,0,1-1.625c-.084-.069-.674.55-1.316,1.383a4.713,4.713,0,0,0-1,1.625" transform="translate(3 -17.935)" fill="#e0e0e0"/>
                <path id="Trazado_874029" data-name="Trazado 874029" d="M198.236,85.413c.093.056.625-.613,1.188-1.495a4.751,4.751,0,0,0,.854-1.708c-.09-.061-.622.609-1.187,1.5a4.722,4.722,0,0,0-.855,1.707" transform="translate(-7.151 -19.888)" fill="#e0e0e0"/>
                <path id="Trazado_874030" data-name="Trazado 874030" d="M203.453,94.111a9.224,9.224,0,0,0,1.794-3.349c-.095-.053-.575.654-1.07,1.581a4.762,4.762,0,0,0-.723,1.768" transform="translate(-16.075 -21.958)" fill="#e0e0e0"/>
                <path id="Trazado_874031" data-name="Trazado 874031" d="M208.03,101.408c.1.045.358-.3.577-.777s.318-.9.219-.943-.357.3-.577.777-.318.9-.219.943" transform="translate(-23.13 -24.117)" fill="#e0e0e0"/>
              </g>
            </g>
            <g id="Grupo_1100995" data-name="Grupo 1100995">
              <g id="Grupo_1100994" data-name="Grupo 1100994" clip-path="url(#clip-path-2)">
                <path id="Trazado_874032" data-name="Trazado 874032" d="M6.359,394.522c0,.109,74.841.2,167.14.2,92.332,0,167.157-.088,167.157-.2s-74.825-.2-167.157-.2c-92.3,0-167.14.088-167.14.2" transform="translate(-2.07 -95.4)" fill="#263238"/>
              </g>
            </g>
            <g id="Grupo_1100997" data-name="Grupo 1100997">
              <g id="Grupo_1100996" data-name="Grupo 1100996" clip-path="url(#clip-path-2)">
                <path id="Trazado_874033" data-name="Trazado 874033" d="M117.31,84.343,244.43,95.807c16.942,1.527,29.352,17.451,27.719,35.565l-6.7,74.284c-1.634,18.114-16.692,31.56-33.634,30.032l-49.343-4.45a4.5,4.5,0,0,0-3.93,1.755l-13.954,17.764a4.408,4.408,0,0,1-7.482-.675l-10.552-19.974a4.493,4.493,0,0,0-3.552-2.43l-38.308-3.455c-16.942-1.528-29.352-17.451-27.719-35.565l6.7-74.283c1.634-18.115,16.693-31.561,33.635-30.032" transform="translate(12.869 -20.377)" fill="#fff"/>
                <path id="Trazado_874034" data-name="Trazado 874034" d="M117.206,84.338s-.548-.033-1.62-.079l-.9-.037a6.794,6.794,0,0,0-1.095.006c-.793.06-1.716.1-2.758.2l-1.638.29a13.592,13.592,0,0,0-1.806.382l-1.951.562c-.685.18-1.347.516-2.064.785a31.115,31.115,0,0,0-8.909,5.613,33.01,33.01,0,0,0-7.81,10.605l-.751,1.677c-.268.559-.419,1.171-.638,1.764-.2.6-.421,1.2-.6,1.818q-.224.942-.451,1.9a58.856,58.856,0,0,0-1.072,8.1c-1.022,11.243-2.186,24.044-3.473,38.194Q78.7,166.74,77.65,178.339q-.263,2.9-.531,5.851-.133,1.477-.269,2.969l-.134,1.495-.066,1.514a34.7,34.7,0,0,0,1.562,12.2A33.088,33.088,0,0,0,84.3,213.535a30.808,30.808,0,0,0,10.323,8.091,29.579,29.579,0,0,0,6.376,2.2,13.433,13.433,0,0,0,1.679.293l1.694.246c1.132.124,2.267.212,3.407.319l13.855,1.254,14.2,1.284,7.218.659a4.267,4.267,0,0,1,2.9,1.782,17.239,17.239,0,0,1,.882,1.581l.86,1.628,6.958,13.178,1.762,3.335a8.784,8.784,0,0,0,1,1.648,4.782,4.782,0,0,0,1.537,1.221,4.588,4.588,0,0,0,3.849.058,4.7,4.7,0,0,0,1.589-1.171c.444-.5.8-1,1.208-1.5l9.555-12.161,2.414-3.072c.4-.506.807-1.042,1.21-1.524a4.542,4.542,0,0,1,1.5-1.106,4.223,4.223,0,0,1,1.827-.362c.631.041,1.3.113,1.951.168l3.936.355,31.978,2.885,8.076.728a49.62,49.62,0,0,0,8.067.353c.671-.055,1.346-.08,2.013-.161l1.985-.358c.329-.064.663-.109.989-.189l.966-.28,1.928-.567,1.858-.754.927-.378.885-.468,1.767-.933,1.665-1.1a32.646,32.646,0,0,0,10.431-11.673c.156-.287.33-.565.472-.859l.4-.894.8-1.785c.238-.6.425-1.23.639-1.842a18.717,18.717,0,0,0,.581-1.857,44.121,44.121,0,0,0,1.252-7.622c1.832-20.366,3.6-40.012,5.284-58.726q.631-7.017,1.245-13.857a35.007,35.007,0,0,0-1.318-13.464,32.13,32.13,0,0,0-16.135-19.505l-1.409-.7-1.466-.548c-.488-.178-.971-.373-1.462-.537l-1.5-.386c-.5-.125-1-.263-1.5-.377l-1.522-.22-1.515-.218-1.509-.137-11.818-1.06-22.215-1.991-67.041-5.983-18.229-1.606-4.741-.409c-1.069-.089-1.617-.125-1.617-.125s.546.063,1.613.166l4.738.447,18.222,1.681,67.03,6.108,22.213,2.016,11.817,1.071,1.509.139,1.5.218,1.5.218c.5.113.986.25,1.481.374l1.486.382c.486.162.963.356,1.446.532l1.449.544,1.393.691a31.8,31.8,0,0,1,15.948,19.313,34.657,34.657,0,0,1,1.3,13.331q-.62,6.837-1.254,13.857l-5.307,58.724a43.665,43.665,0,0,1-1.242,7.554,18.326,18.326,0,0,1-.575,1.836c-.212.606-.4,1.223-.632,1.822l-.788,1.765-.394.884c-.14.29-.312.565-.467.848a32.266,32.266,0,0,1-10.308,11.533l-1.643,1.083-1.744.922-.873.462-.916.372-1.834.745-1.9.559-.953.277c-.321.078-.65.123-.976.186l-1.957.353c-.658.08-1.324.1-1.985.159a49.264,49.264,0,0,1-8.007-.352l-8.076-.729-31.979-2.883-3.935-.355c-.66-.055-1.3-.125-1.975-.169a4.605,4.605,0,0,0-2,.4,4.938,4.938,0,0,0-1.636,1.2c-.435.521-.816,1.029-1.226,1.544l-2.413,3.072L165.3,249.4c-.4.492-.781,1.029-1.189,1.482a4.325,4.325,0,0,1-1.461,1.079,4.208,4.208,0,0,1-3.523-.052,4.395,4.395,0,0,1-1.409-1.121,8.433,8.433,0,0,1-.957-1.581L155,245.871,148.035,232.7l-.86-1.628a17.717,17.717,0,0,0-.909-1.623,4.647,4.647,0,0,0-3.16-1.935l-7.234-.657-14.2-1.277-13.856-1.245c-1.138-.108-2.277-.194-3.4-.318l-1.674-.242a12.969,12.969,0,0,1-1.659-.288,29.266,29.266,0,0,1-6.3-2.17,30.481,30.481,0,0,1-10.213-7.994,32.772,32.772,0,0,1-6.036-11.053,34.392,34.392,0,0,1-1.557-12.085l.063-1.5.133-1.495q.134-1.492.267-2.969.264-2.954.525-5.852,1.038-11.587,1.991-22.214l3.415-38.2a58.871,58.871,0,0,1,1.051-8.079q.225-.955.444-1.891c.179-.615.4-1.211.6-1.809.216-.59.365-1.2.63-1.755l.743-1.67a32.891,32.891,0,0,1,7.743-10.57,31.068,31.068,0,0,1,8.851-5.619c.713-.27,1.371-.609,2.053-.791l1.941-.569a13.671,13.671,0,0,1,1.8-.39l1.633-.3c1.038-.105,1.958-.155,2.749-.221a6.842,6.842,0,0,1,1.093-.016l.9.027c1.071.033,1.621.039,1.621.039" transform="translate(12.973 -20.371)" fill="#263238"/>
              </g>
            </g>
            <g id="Grupo_1101005" data-name="Grupo 1101005">
              <g id="Grupo_1101004" data-name="Grupo 1101004" clip-path="url(#clip-path-2)">
                <path id="Trazado_874035" data-name="Trazado 874035" d="M300.436,35.724a25.97,25.97,0,1,0,25.314-26.61,25.971,25.971,0,0,0-25.314,26.61" transform="translate(-236.707 -2.203)" fill="#75baf1"/>
                <g id="Grupo_1101000" data-name="Grupo 1101000" transform="translate(63.571 6.901)" opacity="0.3">
                  <g id="Grupo_1100999" data-name="Grupo 1100999">
                    <g id="Grupo_1100998" data-name="Grupo 1100998" clip-path="url(#clip-path-7)">
                      <path id="Trazado_874036" data-name="Trazado 874036" d="M300.436,35.724a25.97,25.97,0,1,0,25.314-26.61,25.971,25.971,0,0,0-25.314,26.61" transform="translate(-300.428 -9.104)"/>
                    </g>
                  </g>
                </g>
                <path id="Trazado_874037" data-name="Trazado 874037" d="M300.531,31.941A25.97,25.97,0,1,0,325.845,5.329a25.97,25.97,0,0,0-25.314,26.611" transform="translate(-236.874 -1.287)" fill="#75baf1"/>
                <path id="Trazado_874038" data-name="Trazado 874038" d="M311.84,34.464A17.4,17.4,0,1,0,328.8,16.639,17.4,17.4,0,0,0,311.84,34.464" transform="translate(-239.611 -4.024)" fill="#fff"/>
                <path id="Trazado_874039" data-name="Trazado 874039" d="M323.555,37.076a8.513,8.513,0,1,0,8.3-8.723,8.512,8.512,0,0,0-8.3,8.723" transform="translate(-242.446 -6.859)" fill="#75baf1"/>
                <path id="Trazado_874040" data-name="Trazado 874040" d="M364.008,11.45l.567-5.557L358.787,0l-.256,5.987Z" transform="translate(-292.959 0)" fill="#455a64"/>
                <path id="Trazado_874041" data-name="Trazado 874041" d="M360.112,9.494l5.708-.609,5.871,5.372-5.72.757Z" transform="translate(-301.274 -2.15)" fill="#455a64"/>
                <g id="Grupo_1101003" data-name="Grupo 1101003" transform="translate(68.249 12.156)" opacity="0.3">
                  <g id="Grupo_1101002" data-name="Grupo 1101002">
                    <g id="Grupo_1101001" data-name="Grupo 1101001" clip-path="url(#clip-path-8)">
                      <path id="Trazado_874042" data-name="Trazado 874042" d="M356.516,33.788l-20.23-14.659a24.048,24.048,0,0,1,2.408-3.094l17.788,16.4Z" transform="translate(-336.286 -16.035)"/>
                    </g>
                  </g>
                </g>
                <path id="Trazado_874043" data-name="Trazado 874043" d="M335.911,6.712l8.284,7.882,13.142,12.5,3.022,2.875a1.026,1.026,0,0,1-1.424,1.477l-8.284-7.882L337.509,11.063l-3.021-2.874a1.026,1.026,0,0,1,1.424-1.477" transform="translate(-270.593 -1.554)" fill="#263238"/>
              </g>
            </g>
            <g id="Grupo_1101016" data-name="Grupo 1101016">
              <g id="Grupo_1101015" data-name="Grupo 1101015" clip-path="url(#clip-path-2)">
                <g id="Grupo_1101008" data-name="Grupo 1101008" transform="translate(114.05 63.936)" opacity="0.2">
                  <g id="Grupo_1101007" data-name="Grupo 1101007">
                    <g id="Grupo_1101006" data-name="Grupo 1101006" clip-path="url(#clip-path-10)">
                      <path id="Trazado_874044" data-name="Trazado 874044" d="M116.364,147.136a129.486,129.486,0,0,1,3.343-22.377q.581-2.472,1.158-4.93c.406-1.631.867-3.238,1.3-4.85.837-3.232,1.787-6.4,2.756-9.533,1.862-6.3,4.717-13.917,6.917-19.851,3.859-1.383,8.787-1.587,14.627-.788L189.1,90.964a220.527,220.527,0,0,0,23.486,20.121c.089-.588.183-1.173.265-1.765l36.584,16.664c6.875,4.291,10.417,13.2,6.293,23.486l-4.05,11.2-2.807,5.758c-3.257,6.685-9.771,10.058-15.856,8.708l.378.151-.459-.168a12.619,12.619,0,0,1-3.144-1.164q-1.11-.416-2.205-.832L197.52,211.8a5.141,5.141,0,0,1-8.364-.174l-9.681-13.489a6,6,0,0,1,1.046-8.085c6.274-5.006,17.464-14.609,21.551-22.388a20.385,20.385,0,0,0,1.464-4.22q-2.868-1.184-5.889-2.421-3.329-.691-6.829-1.326a141.2,141.2,0,0,0-15.181-1.957,84.934,84.934,0,0,0-16.439.719c-11.333,1.4-23.139,4.351-35.606,7.2l-.6.105-.7-.031a4.4,4.4,0,0,1-1.3-.431c-.358-.28-.738-.545-1.07-.855l-.862-1.072a15.485,15.485,0,0,1-1.974-5.134,42.664,42.664,0,0,1-.718-11.1" transform="translate(-116.281 -84.341)"/>
                    </g>
                  </g>
                </g>
                <path id="Trazado_874045" data-name="Trazado 874045" d="M260.591,111.219s-15.306-5.822-39.07-25.93c-17.379-14.706-30.6-31.721-36.446-39.8a8.3,8.3,0,0,0-11.843-1.914c-5.817,4.46-14.205,16.073-24.517,46.322-18.177,53.332-8.421,64.355-3.987,63.826s33.92-8.531,52.943-8.111,47.536,8.23,47.536,8.23Z" transform="translate(-21.882 -10.132)" fill="#e0e0e0"/>
                <path id="Trazado_874046" data-name="Trazado 874046" d="M260.778,111.162s-.1.252-.28.738l-.794,2.161c-.7,1.907-1.722,4.717-3.052,8.364l-11.376,31.315.152-.08c-8.329-2.21-17.84-4.429-28.408-6.215a150.768,150.768,0,0,0-16.649-1.949,102.185,102.185,0,0,0-18.025.876c-6.171.775-12.485,1.9-18.931,3.194-3.223.647-6.478,1.349-9.766,2.076l-4.959,1.092c-.831.185-1.665.354-2.5.522-.418.083-.836.141-1.255.213a2.78,2.78,0,0,1-1.188-.13,4.585,4.585,0,0,1-2-1.422,10.284,10.284,0,0,1-1.352-2.151,19.9,19.9,0,0,1-1.427-4.972,47.829,47.829,0,0,1-.324-10.558,127.429,127.429,0,0,1,3.628-21.417c1.567-6.414,3.449-12.668,5.441-18.783s4.128-12.087,6.423-17.875a166.4,166.4,0,0,1,7.572-16.677,85.941,85.941,0,0,1,4.547-7.616,40.054,40.054,0,0,1,5.5-6.663c.507-.5,1.051-.952,1.6-1.4.268-.233.568-.4.849-.609.3-.168.6-.348.917-.486a7.83,7.83,0,0,1,4.015-.666,8.108,8.108,0,0,1,3.786,1.365l.416.286.386.324a7.487,7.487,0,0,1,.725.7,17.756,17.756,0,0,1,1.245,1.59c3.21,4.379,6.474,8.52,9.747,12.425a230.77,230.77,0,0,0,19.444,20.606,216.229,216.229,0,0,0,32.572,24.87c4.14,2.519,7.473,4.274,9.768,5.385,1.145.562,2.038.951,2.639,1.207s.92.362.92.362l-.9-.4c-.6-.268-1.481-.669-2.62-1.241-2.282-1.133-5.6-2.908-9.723-5.444s-9.04-5.849-14.533-9.986c-1.368-1.042-2.795-2.1-4.223-3.258-1.44-1.139-2.927-2.312-4.416-3.57-3.025-2.461-6.116-5.188-9.289-8.13a231.619,231.619,0,0,1-19.382-20.611c-3.263-3.9-6.519-8.043-9.718-12.419A18.1,18.1,0,0,0,184.7,44.48a8.005,8.005,0,0,0-.754-.725l-.4-.337-.432-.3a8.474,8.474,0,0,0-3.948-1.426,8.185,8.185,0,0,0-4.2.693c-.331.144-.642.332-.958.507-.292.211-.612.4-.882.631-.559.45-1.112.91-1.626,1.415a40.443,40.443,0,0,0-5.553,6.718,86.273,86.273,0,0,0-4.573,7.648,166.656,166.656,0,0,0-7.6,16.712c-2.3,5.8-4.435,11.775-6.437,17.9s-3.881,12.385-5.451,18.811a127.622,127.622,0,0,0-3.636,21.486,48.127,48.127,0,0,0,.331,10.646,20.284,20.284,0,0,0,1.46,5.072,10.644,10.644,0,0,0,1.411,2.24,4.961,4.961,0,0,0,2.171,1.535,3.158,3.158,0,0,0,1.353.145c.427-.073.86-.133,1.28-.218.841-.169,1.68-.339,2.511-.525l4.96-1.095c3.287-.73,6.538-1.432,9.758-2.082,6.439-1.3,12.744-2.425,18.9-3.205a102.06,102.06,0,0,1,17.965-.894,150.661,150.661,0,0,1,16.615,1.921c10.555,1.767,20.069,3.966,28.392,6.152l.114.03.039-.109,11.271-31.432,2.984-8.358.762-2.149c.169-.481.247-.723.247-.723" transform="translate(-22.07 -10.076)" fill="#263238"/>
                <g id="Grupo_1101011" data-name="Grupo 1101011" transform="translate(120.576 35.201)" opacity="0.3">
                  <g id="Grupo_1101010" data-name="Grupo 1101010">
                    <g id="Grupo_1101009" data-name="Grupo 1101009" clip-path="url(#clip-path-11)">
                      <path id="Trazado_874047" data-name="Trazado 874047" d="M249.75,94.14c-9.495,28.449-12.325,53.284-6.322,55.471s18.566-19.1,28.061-47.551,12.325-53.284,6.322-55.47-18.566,19.1-28.061,47.55" transform="translate(-240.277 -46.435)"/>
                    </g>
                  </g>
                </g>
                <path id="Trazado_874048" data-name="Trazado 874048" d="M267.7,97.272s-14.282-7.539-20.139,12.49,8.672,21.812,8.672,21.812a134.728,134.728,0,0,0,11.467-34.3" transform="translate(-110.916 -23.197)" fill="#fff"/>
                <path id="Trazado_874049" data-name="Trazado 874049" d="M189.756,159.14l-5.877,20.5a5.733,5.733,0,0,1-6,4.131,5.73,5.73,0,0,0-4.9,2.045l-33.7,40.5a5.731,5.731,0,0,1-8.951-.174l-10.36-13.489a5.726,5.726,0,0,1,1.12-8.085c7.612-5.676,21.995-17.261,24.385-25.4,1.521-5.18,1.329-7.718.687-8.951a6.021,6.021,0,0,1-.342-5.172l5.2-12.153a5.731,5.731,0,0,1,5.761-3.454l27.955,2.412a5.731,5.731,0,0,1,5.017,7.29" transform="translate(63.381 -36.149)" fill="#75baf1"/>
                <g id="Grupo_1101014" data-name="Grupo 1101014" transform="translate(207.517 141.471)" opacity="0.3">
                  <g id="Grupo_1101013" data-name="Grupo 1101013">
                    <g id="Grupo_1101012" data-name="Grupo 1101012" clip-path="url(#clip-path-12)">
                      <path id="Trazado_874050" data-name="Trazado 874050" d="M170.088,194.943l-6.257,7.519-22.48-11.246s1.736-3.533,1.592-4.6Z" transform="translate(-141.351 -186.621)"/>
                    </g>
                  </g>
                </g>
                <path id="Trazado_874051" data-name="Trazado 874051" d="M167.439,155.822l-4.334,11.2-3,5.758c-4.119,7.9-13.1,11.2-20.447,7.515L101,165.742c11.563-14.416,17.791-31.406,20.553-50.069L160.7,132.337c7.358,4.291,11.148,13.2,6.735,23.486" transform="translate(97.521 -27.985)" fill="#75baf1"/>
                <path id="Trazado_874052" data-name="Trazado 874052" d="M116.861,139.073c-.117.273,7,3.639,15.9,7.517s16.2,6.8,16.32,6.53-7-3.637-15.9-7.517-16.2-6.8-16.319-6.53" transform="translate(105.74 -33.642)" fill="#263238"/>
                <path id="Trazado_874053" data-name="Trazado 874053" d="M120.051,146.744c-.117.273,7,3.638,15.9,7.516s16.2,6.8,16.32,6.53-7-3.637-15.9-7.516-16.2-6.8-16.319-6.53" transform="translate(100.132 -35.498)" fill="#263238"/>
                <path id="Trazado_874054" data-name="Trazado 874054" d="M123.242,154.414c-.116.272,7,3.639,15.9,7.516s16.2,6.8,16.32,6.531-7-3.637-15.9-7.517-16.2-6.8-16.319-6.53" transform="translate(94.522 -37.354)" fill="#263238"/>
                <path id="Trazado_874055" data-name="Trazado 874055" d="M126.431,162.085c-.117.273,7,3.639,15.9,7.517s16.2,6.8,16.32,6.53-7-3.637-15.9-7.517-16.2-6.8-16.319-6.53" transform="translate(88.915 -39.21)" fill="#263238"/>
                <path id="Trazado_874056" data-name="Trazado 874056" d="M135.015,181.72a2.036,2.036,0,0,0,.417.2l1.224.5,4.523,1.8c3.824,1.5,9.107,3.579,14.964,5.817s11.2,4.185,15.082,5.523c1.942.671,3.519,1.2,4.614,1.549l1.263.395a2.017,2.017,0,0,0,.45.112,2.074,2.074,0,0,0-.424-.187l-1.239-.465-4.571-1.666c-3.86-1.406-9.177-3.39-15.034-5.63l-15.006-5.709-4.568-1.679-1.25-.436a2.026,2.026,0,0,0-.445-.127" transform="translate(63.504 -43.964)" fill="#263238"/>
                <path id="Trazado_874057" data-name="Trazado 874057" d="M240.272,150.948a1.006,1.006,0,0,0,.14-.188l.379-.573,1.423-2.223c1.215-1.944,2.934-4.783,4.941-8.359A198.8,198.8,0,0,0,260.5,110.5c2.135-5.886,3.862-11.6,5.206-16.857.354-1.309.653-2.6.942-3.849s.564-2.467.833-3.642c.527-2.351,1.027-4.54,1.45-6.546.854-4.012,1.387-7.293,1.644-9.572.136-1.139.215-2.026.255-2.628.018-.284.032-.509.042-.686a1.04,1.04,0,0,0,0-.234,1.064,1.064,0,0,0-.042.231c-.021.175-.048.4-.081.682-.067.6-.169,1.483-.329,2.616-.3,2.27-.877,5.535-1.765,9.533l-1.5,6.532q-.413,1.759-.852,3.635c-.295,1.248-.6,2.533-.956,3.838-1.362,5.239-3.1,10.939-5.226,16.813a209.083,209.083,0,0,1-13.216,29.1c-1.972,3.589-3.655,6.447-4.828,8.415l-1.359,2.262c-.143.245-.257.44-.346.594a1.022,1.022,0,0,0-.106.209" transform="translate(-109.615 -16.085)" fill="#263238"/>
              </g>
            </g>
            <g id="Grupo_1101018" data-name="Grupo 1101018">
              <g id="Grupo_1101017" data-name="Grupo 1101017" clip-path="url(#clip-path-2)">
                <path id="Trazado_874058" data-name="Trazado 874058" d="M167.938,47.975h0a19.7,19.7,0,1,0-19.7-19.7,19.7,19.7,0,0,0,19.7,19.7" transform="translate(43.395 -2.076)" fill="#6e3dc6"/>
                <path id="Trazado_874059" data-name="Trazado 874059" d="M170.777,22.264c-2.884,0-3.226.011-4.364.063a5.99,5.99,0,0,0-2.005.372,3.581,3.581,0,0,0-2.05,2.049,5.977,5.977,0,0,0-.371,2.006c-.052,1.139-.064,1.481-.064,4.364s.011,3.225.064,4.364a5.975,5.975,0,0,0,.371,2.005,3.575,3.575,0,0,0,2.05,2.049,5.951,5.951,0,0,0,2.005.372c1.139.052,1.481.063,4.364.063s3.226-.011,4.364-.063a5.946,5.946,0,0,0,2.005-.372,3.575,3.575,0,0,0,2.05-2.049,5.99,5.99,0,0,0,.372-2.005c.052-1.139.063-1.481.063-4.364s-.011-3.226-.063-4.364a5.992,5.992,0,0,0-.372-2.006,3.581,3.581,0,0,0-2.05-2.049,5.985,5.985,0,0,0-2.005-.372c-1.139-.052-1.48-.063-4.364-.063m0-1.946c2.933,0,3.3.013,4.453.065a7.927,7.927,0,0,1,2.621.5,5.52,5.52,0,0,1,3.158,3.159,7.9,7.9,0,0,1,.5,2.621c.052,1.152.064,1.52.064,4.453s-.012,3.3-.064,4.453a7.91,7.91,0,0,1-.5,2.621,5.522,5.522,0,0,1-3.158,3.158,7.944,7.944,0,0,1-2.621.5c-1.152.052-1.52.064-4.453.064s-3.3-.012-4.453-.064a7.944,7.944,0,0,1-2.621-.5,5.526,5.526,0,0,1-3.159-3.158,7.951,7.951,0,0,1-.5-2.621c-.052-1.152-.064-1.52-.064-4.453s.012-3.3.064-4.453a7.942,7.942,0,0,1,.5-2.621,5.524,5.524,0,0,1,3.159-3.159,7.927,7.927,0,0,1,2.621-.5c1.152-.052,1.52-.065,4.453-.065" transform="translate(40.556 -4.916)" fill="#fff"/>
                <path id="Trazado_874060" data-name="Trazado 874060" d="M172.454,27.248a5.546,5.546,0,1,1-5.546,5.546,5.547,5.547,0,0,1,5.546-5.546m0,9.146a3.6,3.6,0,1,0-3.6-3.6,3.6,3.6,0,0,0,3.6,3.6" transform="translate(38.879 -6.592)" fill="#fff"/>
                <path id="Trazado_874061" data-name="Trazado 874061" d="M180.119,26.545a1.3,1.3,0,1,0,1.3-1.3,1.3,1.3,0,0,0-1.3,1.3" transform="translate(24.153 -6.109)" fill="#fff"/>
              </g>
            </g>
            <g id="Grupo_1101023" data-name="Grupo 1101023">
              <g id="Grupo_1101022" data-name="Grupo 1101022" clip-path="url(#clip-path-2)">
                <g id="Grupo_1101021" data-name="Grupo 1101021" transform="translate(118.936 169.015)" opacity="0.1">
                  <g id="Grupo_1101020" data-name="Grupo 1101020">
                    <g id="Grupo_1101019" data-name="Grupo 1101019" clip-path="url(#clip-path-15)">
                      <path id="Trazado_874062" data-name="Trazado 874062" d="M282.17,237.07l4.758-10.288a2.7,2.7,0,0,0-2.69-3.815L272.95,223.99l-11.289,1.024a2.7,2.7,0,0,0-1.96,4.236l6.531,9.265,6.531,9.265a2.7,2.7,0,0,0,4.648-.421Z" transform="translate(-259.206 -222.955)"/>
                    </g>
                  </g>
                </g>
                <path id="Trazado_874063" data-name="Trazado 874063" d="M274.34,229.241l4.758-10.288a2.7,2.7,0,0,0-2.69-3.815l-11.289,1.023-11.289,1.024a2.7,2.7,0,0,0-1.96,4.236l6.531,9.265,6.531,9.265a2.7,2.7,0,0,0,4.648-.421Z" transform="translate(-126.504 -52.046)" fill="#6e3dc6"/>
              </g>
            </g>
            <g id="Grupo_1101025" data-name="Grupo 1101025">
              <g id="Grupo_1101024" data-name="Grupo 1101024" clip-path="url(#clip-path-2)">
                <path id="Trazado_874064" data-name="Trazado 874064" d="M11.01,209.656l44.234-11.328a2.465,2.465,0,0,0,1.776-3l-7.934-30.981a2.465,2.465,0,0,0-3-1.776L1.853,173.9a2.465,2.465,0,0,0-1.776,3l7.934,30.981a2.465,2.465,0,0,0,3,1.776" transform="translate(286.309 -39.313)" fill="#d3d3d3"/>
                <path id="Trazado_874065" data-name="Trazado 874065" d="M12.867,179.272a3.265,3.265,0,0,0,.519.27l1.521.7,5.62,2.519,8.356,3.689,4.94,2.166,2.615,1.142a4.744,4.744,0,0,0,5.551-1.344l1.744-2.267,3.276-4.287,5.528-7.272,3.7-4.924.99-1.351a3.252,3.252,0,0,0,.324-.487,3.24,3.24,0,0,0-.387.439l-1.049,1.305-3.8,4.848-5.6,7.221-3.294,4.272-1.741,2.253a4.347,4.347,0,0,1-2.34,1.467c-1.913.546-3.64-.719-5.369-1.371l-4.949-2.145-8.39-3.611-5.67-2.4-1.55-.635a3.259,3.259,0,0,0-.551-.2" transform="translate(276.1 -40.603)" fill="#263238"/>
                <path id="Trazado_874066" data-name="Trazado 874066" d="M5.332,190.067c-.053.1,4.079,2.508,9.229,5.39s9.37,5.14,9.423,5.046-4.078-2.508-9.23-5.391-9.368-5.14-9.421-5.045" transform="translate(315.381 -45.983)" fill="#263238"/>
                <path id="Trazado_874067" data-name="Trazado 874067" d="M56.371,194.166c-.1-.053-2.508,4.079-5.39,9.229s-5.14,9.37-5.046,9.423,2.508-4.078,5.391-9.23,5.14-9.368,5.045-9.421" transform="translate(252.213 -46.975)" fill="#263238"/>
              </g>
            </g>
            <path id="Trazado_874068" data-name="Trazado 874068" d="M411.517,201.654l-28.735-42.808,52.877,1.491L427.335,174.4l2.275,10.01-9.4,2.6Z" transform="translate(-382.427 -38.43)" fill="#fff"/>
            <g id="Grupo_1101030" data-name="Grupo 1101030">
              <g id="Grupo_1101029" data-name="Grupo 1101029" clip-path="url(#clip-path-2)">
                <g id="Grupo_1101028" data-name="Grupo 1101028" transform="translate(0.356 120.416)" opacity="0.3">
                  <g id="Grupo_1101027" data-name="Grupo 1101027">
                    <g id="Grupo_1101026" data-name="Grupo 1101026" clip-path="url(#clip-path-18)">
                      <path id="Trazado_874069" data-name="Trazado 874069" d="M435.315,174.4l-44.553-15.557,37.431,28.165,9.4-2.6Z" transform="translate(-390.762 -158.846)"/>
                    </g>
                  </g>
                </g>
              </g>
            </g>
            <line id="Línea_1647" data-name="Línea 1647" x2="46.828" y2="25.566" transform="translate(0.355 120.416)"/>
            <g id="Grupo_1101035" data-name="Grupo 1101035">
              <g id="Grupo_1101034" data-name="Grupo 1101034" clip-path="url(#clip-path-2)">
                <path id="Trazado_874070" data-name="Trazado 874070" d="M437.589,184.411c.052-.1-10.389-5.9-23.318-12.955s-23.458-12.706-23.51-12.61,10.387,5.9,23.32,12.957,23.455,12.7,23.508,12.609" transform="translate(-390.405 -38.43)" fill="#263238"/>
                <path id="Trazado_874071" data-name="Trazado 874071" d="M431.1,186.987a1.2,1.2,0,0,0-.18-.16l-.55-.441-2.141-1.662-7.918-6.058-26.23-19.878-.184.345c.05.016.1.036.158.054l31.206,10.821,9.471,3.236c1.1.367,1.966.655,2.581.861l.675.214a1.036,1.036,0,0,0,.234.061,1.1,1.1,0,0,0-.221-.1c-.169-.065-.387-.147-.662-.251l-2.558-.932-9.43-3.354-31.167-10.93c-.055-.017-.108-.037-.158-.054a.2.2,0,0,0-.184.343l26.3,19.785,7.994,5.958,2.185,1.6.574.409a1,1,0,0,0,.2.129" transform="translate(-393.312 -38.407)" fill="#263238"/>
                <path id="Trazado_874072" data-name="Trazado 874072" d="M411.447,201.592c0,.006.051-.074.15-.233l.441-.723,1.72-2.843,6.489-10.781-.072.055,9.4-2.574.136-.038-.032-.138L427.428,174.3l-.019.122,8.341-14.055.161-.273-.318-.009-25.519-.73-27.358-.76-.36-.01.2.3,20.8,30.8,5.963,8.8,1.584,2.326.407.591a2.286,2.286,0,0,0,.138.19c0-.005-.047-.08-.139-.221l-.407-.622-1.578-2.385-5.914-8.9-20.544-30.786-.159.288,27.357.784,25.52.709-.155-.281c-2.965,5.022-5.771,9.778-8.307,14.075l-.034.058.014.064c.819,3.574,1.593,6.948,2.294,10l.1-.175-9.39,2.624-.048.014-.025.042-6.315,10.78-1.69,2.9-.437.757c-.1.171-.149.268-.149.268" transform="translate(-382.357 -38.368)" fill="#263238"/>
                <path id="Trazado_874073" data-name="Trazado 874073" d="M63.875,117.275,107.95,51.614,26.845,53.9,39.613,75.475l-3.49,15.352,14.414,3.987Z" transform="translate(215.106 -12.487)" fill="#fff"/>
                <g id="Grupo_1101033" data-name="Grupo 1101033" transform="translate(251.228 39.127)" opacity="0.3">
                  <g id="Grupo_1101032" data-name="Grupo 1101032">
                    <g id="Grupo_1101031" data-name="Grupo 1101031" clip-path="url(#clip-path-20)">
                      <path id="Trazado_874074" data-name="Trazado 874074" d="M30.334,75.476,98.672,51.614l-57.413,43.2L26.845,90.828Z" transform="translate(-26.844 -51.614)"/>
                    </g>
                  </g>
                </g>
                <line id="Línea_1648" data-name="Línea 1648" x1="71.828" y2="39.214" transform="translate(251.229 39.127)"/>
                <path id="Trazado_874075" data-name="Trazado 874075" d="M26.844,90.827c.052.1,16.175-8.6,36.007-19.432S98.724,51.71,98.671,51.614s-16.172,8.6-36.01,19.435S26.792,90.732,26.844,90.827" transform="translate(224.385 -12.487)" fill="#263238"/>
                <path id="Trazado_874076" data-name="Trazado 874076" d="M38.1,94.812s.108-.064.306-.206l.874-.635,3.34-2.475,12.241-9.164L95.184,51.959A.2.2,0,0,0,95,51.615l-.242.084L46.942,68.434,32.467,73.548l-3.929,1.409-1.018.375c-.229.087-.343.141-.343.141s.123-.028.356-.1l1.031-.339,3.953-1.34L47.034,68.7,94.888,52.073l.242-.085-.183-.343L54.695,82.109,42.529,91.373l-3.3,2.534-.851.667c-.19.152-.282.238-.282.238" transform="translate(227.542 -12.485)" fill="#263238"/>
                <path id="Trazado_874077" data-name="Trazado 874077" d="M63.728,117.213s-.077-.14-.227-.4l-.673-1.152c-.6-1.017-1.468-2.5-2.6-4.434L50.5,94.69l-.026-.042-.047-.013L36.016,90.623l.1.174c1.072-4.687,2.255-9.863,3.508-15.347l.016-.064-.034-.058c-3.893-6.59-8.2-13.882-12.751-21.584l-.155.281,39.144-1.093,41.961-1.2-.159-.289L76.073,98.674c-3.884,5.823-6.967,10.443-9.085,13.619l-2.422,3.643c-.272.41-.478.725-.625.946s-.213.331-.213.331.071-.095.212-.3.353-.519.625-.916c.558-.823,1.371-2.025,2.427-3.583,2.131-3.154,5.229-7.741,9.135-13.52,7.832-11.625,18.893-28.04,31.831-47.24l.2-.3-.36.01L65.837,52.538,26.694,53.652l-.317.01.161.272L39.323,75.5l-.019-.122c-1.239,5.486-2.411,10.665-3.47,15.355l-.031.139.136.037,14.42,3.962-.071-.055c4.235,7.07,7.6,12.682,9.907,16.538,1.144,1.9,2.026,3.371,2.63,4.375l.676,1.118c.151.249.228.367.228.367" transform="translate(215.252 -12.425)" fill="#263238"/>
              </g>
            </g>
            <g id="Grupo_1101037" data-name="Grupo 1101037">
              <g id="Grupo_1101036" data-name="Grupo 1101036" clip-path="url(#clip-path-2)">
                <path id="Trazado_874078" data-name="Trazado 874078" d="M239.891,291.707l4.689.2,16.88,36.642,26.7,13.309L286.885,355.6s-32.87-6.063-41.063-10.651-18.643-34.388-18.643-34.388c-.053.211,11.1-18.857,11.1-18.857" transform="translate(-116.967 -70.574)" fill="#ffc09d"/>
                <path id="Trazado_874079" data-name="Trazado 874079" d="M204.38,334.546l3.421-3.6a3.873,3.873,0,0,1,2.214-.615l10.843.33a6.789,6.789,0,0,1,5.016,3.038l3.943,6.71s2.65,4.591,2.312,5.707a1.983,1.983,0,0,1-2.287,1.341s-.375,2.122-1.086,2.553a3.325,3.325,0,0,1-2.634.17,2.237,2.237,0,0,1-2.135,1.292,2.611,2.611,0,0,1-.563-.1c-1.287-.39-1.867-2.882-1.867-2.882l-5.5-1.018s-7.9,5.279-10.678,8.737-10.072.815-10.072.815l-2.728-13.039Z" transform="translate(-34.743 -79.919)" fill="#ffc09d"/>
                <path id="Trazado_874080" data-name="Trazado 874080" d="M195.669,337.927a8.629,8.629,0,0,0,2.371.395c1.495.166,3.611.227,5.991.535l-.257-.19a22.832,22.832,0,0,0,1.408,2.6,28.978,28.978,0,0,0,5.212,6.167,9.967,9.967,0,0,0,2.72,1.944c.062-.086-.947-.857-2.389-2.3a35.738,35.738,0,0,1-4.964-6.177,25.531,25.531,0,0,1-1.388-2.511l-.081-.17-.177-.02c-2.447-.276-4.555-.248-6.051-.3a11.686,11.686,0,0,0-2.4.024" transform="translate(-18.042 -81.742)" fill="#ff9b6c"/>
                <path id="Trazado_874081" data-name="Trazado 874081" d="M200.339,344.653a5.24,5.24,0,0,0,2.043.544,15.581,15.581,0,0,0,5.3-.185l-.386-.219a17.706,17.706,0,0,0,.792,1.966,16.551,16.551,0,0,0,4.075,5.354,6.874,6.874,0,0,0,2.328,1.527c.061-.09-.8-.7-2-1.882a19.175,19.175,0,0,1-3.787-5.294,19.881,19.881,0,0,1-.777-1.885l-.1-.283-.285.064c-4.058.905-7.189.092-7.206.293" transform="translate(-22.962 -83.297)" fill="#ff9b6c"/>
                <path id="Trazado_874082" data-name="Trazado 874082" d="M205.138,346.463l9.67-4.5a7.6,7.6,0,0,1,8.691.235l5.2,2.693a1.25,1.25,0,0,1,.69.623,1.168,1.168,0,0,1-.448,1.1,7.66,7.66,0,0,1-10.075.412,20.793,20.793,0,0,1-3.262,6.44,7.057,7.057,0,0,1-6.372,2.716" transform="translate(-41.527 -82.431)" fill="#ffc09d"/>
                <path id="Trazado_874083" data-name="Trazado 874083" d="M208.787,356.085c0,.016.085.045.26.085a3.775,3.775,0,0,0,.788.089,6.157,6.157,0,0,0,2.912-.707,9.1,9.1,0,0,0,3.427-3.124,25.235,25.235,0,0,0,2.533-5.394l-.484.125a7.7,7.7,0,0,0,5.631,1.761,8.175,8.175,0,0,0,3.139-.878,7.525,7.525,0,0,0,1.4-.967,4.134,4.134,0,0,0,.625-.638,1.278,1.278,0,0,0,.275-1.053,1.223,1.223,0,0,0-.578-.722c-.23-.143-.428-.231-.63-.34l-1.206-.623-2.359-1.215a21.209,21.209,0,0,0-4.661-2.032,7.146,7.146,0,0,0-4.589.7c-1.308.6-2.486,1.177-3.581,1.7l-5.147,2.513a12.361,12.361,0,0,0-1.847,1.006,12.493,12.493,0,0,0,1.96-.765l5.238-2.315,3.6-1.615a6.615,6.615,0,0,1,4.228-.6,21.286,21.286,0,0,1,4.49,2.012l2.354,1.224,1.2.625c.411.209.839.414.859.62.083.251-.29.7-.688,1.015a6.84,6.84,0,0,1-1.261.878,7.556,7.556,0,0,1-2.873.816,7.13,7.13,0,0,1-5.184-1.56l-.336-.288-.147.414a25.866,25.866,0,0,1-2.381,5.328,8.972,8.972,0,0,1-3.176,3.082,6.961,6.961,0,0,1-3.792.851" transform="translate(-41.079 -82.332)" fill="#ff9b6c"/>
                <path id="Trazado_874084" data-name="Trazado 874084" d="M375.644,171.1c-.588-7.356-2.245-14.615-2.463-21.991s1.2-15.171,5.974-20.8,13.553-8.245,19.847-4.395l1.658,6.182c-.438,28.548,1.842,57.374,1.4,85.922-.058,3.75-2.855,7.332-4.324,10.782s-4.686,6.434-8.437,6.459c-4.907.031-8.45-4.705-10.285-9.257-6.654-16.5-1.957-35.174-3.375-52.906" transform="translate(-341.595 -29.54)" fill="#263238"/>
                <path id="Trazado_874085" data-name="Trazado 874085" d="M373.5,132.351a20.567,20.567,0,0,1,3.4-5.328,7.034,7.034,0,0,1,5.664-2.329,2.914,2.914,0,0,1,2.41,1.521,1.579,1.579,0,0,1-1.22,2.2l-.2.195q-3.108,3.15-6.339,6.174a5.764,5.764,0,0,1-1.8,1.289,2,2,0,0,1-2.088-.3c-.874-.861-.377-2.329.172-3.426" transform="translate(-324.339 -30.159)" fill="#75baf1"/>
                <path id="Trazado_874086" data-name="Trazado 874086" d="M315.939,139.473c6.728-9.465,16.231-15.3,27.8-16.275,6.528-.552,9.325.623,14.118,1.574a20.677,20.677,0,0,1,12.29,6.982c3.656,4.507,6.817,9.618,7.839,15.331a49.808,49.808,0,0,1,.189,16.528,65.588,65.588,0,0,1-7.511,20.054l-9.949,1.9c-8.316.85-16.747,1.7-25,.346s-16.436-5.183-21.267-12c-6.713-9.477-5.244-24.97,1.484-34.435" transform="translate(-270.444 -29.771)" fill="#263238"/>
                <path id="Trazado_874087" data-name="Trazado 874087" d="M317.78,140.391l19.577-9.363,5.3.254c11.829-.761,20.871,11.729,21.6,21.3.808,10.636,1.376,23.653.217,31.611-2.33,16-15.7,18.229-15.7,18.229s.846,8.386,1.306,13.676l-30.953-.133-6.293-69.813a5.618,5.618,0,0,1,4.952-5.762" transform="translate(-258.863 -31.7)" fill="#ffc09d"/>
                <path id="Trazado_874088" data-name="Trazado 874088" d="M335.716,197.409a3.367,3.367,0,0,1,1.02-2.149,3.44,3.44,0,0,1,4.147-.52,4.608,4.608,0,0,1,2.038,4.2,4.185,4.185,0,0,1-2.872,1.938,4.952,4.952,0,0,1-.56.057,3.763,3.763,0,0,1-2.6-.829,3.354,3.354,0,0,1-1.177-2.691" transform="translate(-254.017 -47)" fill="#ff9b6c"/>
                <path id="Trazado_874089" data-name="Trazado 874089" d="M322.458,178.062a2.048,2.048,0,0,1-1.948,2.092,1.96,1.96,0,0,1-2.135-1.819,2.049,2.049,0,0,1,1.946-2.093,1.96,1.96,0,0,1,2.138,1.82" transform="translate(-220.401 -42.637)" fill="#263238"/>
                <path id="Trazado_874090" data-name="Trazado 874090" d="M326.314,166.133c-.251.271-1.817-.857-4.022-.823-2.2,0-3.8,1.158-4.047.89-.119-.117.134-.6.831-1.125a5.626,5.626,0,0,1,3.236-1.043,5.4,5.4,0,0,1,3.205.989c.684.512.92.992.8,1.113" transform="translate(-224.168 -39.685)" fill="#263238"/>
                <path id="Trazado_874091" data-name="Trazado 874091" d="M329.217,184.927a14.64,14.64,0,0,1,3.572-.692c.562-.066,1.093-.184,1.183-.569a2.863,2.863,0,0,0-.4-1.663q-.82-2.033-1.721-4.264c-2.389-6.071-4.128-11.067-3.882-11.161s2.382,4.751,4.772,10.822c.575,1.5,1.126,2.925,1.65,4.291a3.264,3.264,0,0,1,.321,2.205,1.416,1.416,0,0,1-.915.835,3.84,3.84,0,0,1-.954.146,14.365,14.365,0,0,1-3.629.052" transform="translate(-240.014 -40.3)" fill="#263238"/>
                <path id="Trazado_874092" data-name="Trazado 874092" d="M355.38,223.453a40.632,40.632,0,0,1-21.462-5.428s5.841,11,21.806,9.295Z" transform="translate(-265.449 -52.747)" fill="#ff9b6c"/>
                <path id="Trazado_874093" data-name="Trazado 874093" d="M334.836,192.906c.359-.026.394,2.367,2.464,4.038s4.613,1.376,4.636,1.709c.036.15-.562.472-1.637.515a5.957,5.957,0,0,1-3.868-1.292,5.19,5.19,0,0,1-1.913-3.388c-.1-1,.155-1.6.318-1.584" transform="translate(-252.099 -46.67)" fill="#263238"/>
                <path id="Trazado_874094" data-name="Trazado 874094" d="M328.01,156.133c-.363.543-2.056.2-4.025.394-1.976.127-3.6.73-4.037.251-.2-.234.013-.761.689-1.311a6.267,6.267,0,0,1,6.5-.52c.75.436,1.035.923.877,1.186" transform="translate(-227.134 -37.324)" fill="#263238"/>
                <path id="Trazado_874095" data-name="Trazado 874095" d="M342.642,178.8a2.047,2.047,0,0,0,2.076,1.964,1.958,1.958,0,0,0,2.016-1.95,2.049,2.049,0,0,0-2.075-1.966,1.96,1.96,0,0,0-2.018,1.951" transform="translate(-263.074 -42.786)" fill="#263238"/>
                <path id="Trazado_874096" data-name="Trazado 874096" d="M346.913,167.591c.267.254,1.759-.971,3.961-1.076,2.2-.136,3.871.915,4.1.633.111-.125-.172-.594-.9-1.07a5.629,5.629,0,0,0-3.3-.837,5.4,5.4,0,0,0-3.136,1.189c-.65.554-.856,1.048-.725,1.161" transform="translate(-274.541 -39.975)" fill="#263238"/>
                <path id="Trazado_874097" data-name="Trazado 874097" d="M345.448,158.145c.459.478,2.131-.127,4.172-.254,2.037-.191,3.789.146,4.16-.4.162-.262-.136-.75-.915-1.185a6.312,6.312,0,0,0-3.435-.648,6.229,6.229,0,0,0-3.279,1.173c-.7.55-.907,1.077-.7,1.311" transform="translate(-272.234 -37.655)" fill="#263238"/>
                <path id="Trazado_874098" data-name="Trazado 874098" d="M387.156,184.644c-.018-1.189-1.429-3.975-2.606-4.144-3.143-.448-8.793-.124-8.743,7.843.07,10.889,10.988,8.574,11.006,8.261.014-.244.406-7.854.343-11.961" transform="translate(-328.644 -43.638)" fill="#ffc09d"/>
                <path id="Trazado_874099" data-name="Trazado 874099" d="M385.14,193.816c-.048-.035-.189.134-.508.283a1.9,1.9,0,0,1-1.419.039c-1.153-.415-2.132-2.236-2.2-4.2a6.254,6.254,0,0,1,.513-2.72,2.191,2.191,0,0,1,1.418-1.465.967.967,0,0,1,1.123.512c.148.3.08.522.137.54.031.027.233-.183.143-.632a1.208,1.208,0,0,0-.434-.681,1.437,1.437,0,0,0-1.051-.271,2.67,2.67,0,0,0-1.971,1.7,6.441,6.441,0,0,0-.638,3.039c.083,2.194,1.22,4.24,2.8,4.686a2.034,2.034,0,0,0,1.733-.3c.336-.27.391-.515.353-.534" transform="translate(-330 -44.809)" fill="#ff9b6c"/>
                <path id="Trazado_874100" data-name="Trazado 874100" d="M341.86,168.076l2.95,2.671c11.125-12.2,32.443-42.29,31.26-40.5a34.721,34.721,0,0,0-17.123-.691c-8.745,2.107-25.225,7.675-24.26,18.092s7.174,20.431,7.174,20.431" transform="translate(-286.394 -31.153)" fill="#263238"/>
                <path id="Trazado_874101" data-name="Trazado 874101" d="M337.477,166.467a2.825,2.825,0,0,1,.124-.638,11.044,11.044,0,0,1,.623-1.76,15.827,15.827,0,0,1,4.186-5.407,29.71,29.71,0,0,1,8.827-5.008c3.547-1.428,7.575-2.623,11.471-4.619a53.265,53.265,0,0,0,10.307-6.728,55.669,55.669,0,0,0,7.114-7.124,59.319,59.319,0,0,0,4.021-5.486l.986-1.569a2.9,2.9,0,0,1,.374-.532,2.822,2.822,0,0,1-.277.587c-.2.374-.486.934-.9,1.628a49.953,49.953,0,0,1-3.9,5.621,53.109,53.109,0,0,1-7.089,7.269,52.193,52.193,0,0,1-10.388,6.832c-3.948,2.021-8,3.207-11.532,4.6a30.158,30.158,0,0,0-8.76,4.831,16.351,16.351,0,0,0-4.245,5.2c-.7,1.439-.885,2.323-.942,2.305" transform="translate(-297.931 -30.869)" fill="#455a64"/>
                <path id="Trazado_874102" data-name="Trazado 874102" d="M337.941,168.712a5.716,5.716,0,0,1,.26-2.4,11.1,11.1,0,0,1,3.728-5.382c2.15-1.845,5.311-3.11,8.809-4.162a53.62,53.62,0,0,0,11-4.332,47.752,47.752,0,0,0,9.605-6.869,49.113,49.113,0,0,0,6.414-7.222,51.987,51.987,0,0,0,3.474-5.527l.816-1.581a2.674,2.674,0,0,1,.319-.537,2.626,2.626,0,0,1-.218.584l-.725,1.633a44.438,44.438,0,0,1-3.346,5.656,46.809,46.809,0,0,1-16.076,14.352,52.4,52.4,0,0,1-11.119,4.332c-3.494,1.023-6.592,2.224-8.709,3.976a11.226,11.226,0,0,0-3.771,5.141,12.909,12.909,0,0,0-.467,2.335" transform="translate(-295.122 -31.621)" fill="#455a64"/>
                <path id="Trazado_874103" data-name="Trazado 874103" d="M396.855,188.022c.006-.074-.932-.131-2.565-.442a15.565,15.565,0,0,1-6.3-2.98,21.85,21.85,0,0,1-6.222-8.243,38.1,38.1,0,0,1-3.2-12.351,29.437,29.437,0,0,1,1.477-12.611,31.472,31.472,0,0,1,5.024-9.13,50.977,50.977,0,0,1,6.848-6.839,2.387,2.387,0,0,0-.581.353c-.359.261-.916.611-1.566,1.149a33.262,33.262,0,0,0-5.1,5.021,30.964,30.964,0,0,0-5.253,9.228,29.538,29.538,0,0,0-1.567,12.9,37.75,37.75,0,0,0,3.317,12.566A21.89,21.89,0,0,0,387.683,185a15.09,15.09,0,0,0,6.554,2.852,13.6,13.6,0,0,0,1.941.175,2.38,2.38,0,0,0,.677-.008" transform="translate(-339.786 -32.763)" fill="#455a64"/>
                <path id="Trazado_874104" data-name="Trazado 874104" d="M359,237.245l-30.722-3.317-5.621,5.118,21.932,12.892,9.674,5.011,9.556-2.9,3.027-5.7Z" transform="translate(-268.034 -56.595)" fill="#ffc09d"/>
                <path id="Trazado_874105" data-name="Trazado 874105" d="M395.293,274.7s-9.63-18.481-12.014-22.518c-4.064-6.882-11.648-10.783-11.648-10.783l-17.749-4.106s1.841,8.893-9.2,9.507c-14.047.782-22.773-12.689-22.773-12.689s-16.029,1.649-20.454,3.508-16.946,7.1-18.783,23.745l-4.289,27.177,33.863,2.58-.468,36.179L295.115,355.8h81.729c-1.278.343-5.781-18.691-2.828-33.735l5.577-13.541a52.481,52.481,0,0,0,3.949-17.017c.216-3.853.111-6.767.111-6.767s8.686-2.986,11.641-10.047" transform="translate(-262.917 -56.638)" fill="#75baf1"/>
                <path id="Trazado_874106" data-name="Trazado 874106" d="M396.868,357.51,340.1,340.469l.4-31.86-28.911-2.2s2.307,16.509,2.645,24.974c.487,12.175,6.343,29.189,10.26,32.8s73.884,7.538,73.884,7.538Z" transform="translate(-291.173 -74.13)" fill="#ffc09d"/>
                <path id="Trazado_874107" data-name="Trazado 874107" d="M295.431,380.069a2.236,2.236,0,0,1-2.247,1.086,2.646,2.646,0,0,1-.55-.157c-1.245-.509-.924-3.1-.924-3.1l-6.043-1.473s-8.355,4.515-11.45,7.7-10.1-.133-10.1-.133l-1.493-13.237,12.053-9.314s-.738.553.186-1.292,4.408-.851,4.408-.851c.624-.9,2.962-1.058,2.962-1.058l9.792,1.9a6.792,6.792,0,0,1,4.71,3.494l3.666,6.938s1.838,4.932,1.4,6.011a1.984,1.984,0,0,1-2.4,1.121s-.728,3.092-1.559,3.138a6.766,6.766,0,0,1-2.4-.776" transform="translate(-157.538 -86.67)" fill="#ffc09d"/>
                <path id="Trazado_874108" data-name="Trazado 874108" d="M273.416,372.479c0,.1,1.326.085,3.429.34a30.05,30.05,0,0,1,7.946,2.133,28.764,28.764,0,0,1,4.02,2.1c1.142.764,2.345,1.413,2.66,2.313a1.206,1.206,0,0,1-.2,1.169,1.684,1.684,0,0,1-.794.572,2.628,2.628,0,0,1-.876.06c-.026.012.285.3.938.178a1.856,1.856,0,0,0,1-.585,1.583,1.583,0,0,0,.353-1.528,3.162,3.162,0,0,0-1.122-1.484c-.51-.394-1.046-.8-1.648-1.185a25.939,25.939,0,0,0-12.237-4.188,11.381,11.381,0,0,0-3.473.1" transform="translate(-155.826 -90.077)" fill="#ff9b6c"/>
                <path id="Trazado_874109" data-name="Trazado 874109" d="M275.9,380.728c0,.188,4.031.331,8.948,1,4.921.654,8.848,1.584,8.894,1.4a9.9,9.9,0,0,0-2.524-.824,57.971,57.971,0,0,0-12.667-1.707,9.9,9.9,0,0,0-2.652.126" transform="translate(-159.492 -92.079)" fill="#ff9b6c"/>
                <path id="Trazado_874110" data-name="Trazado 874110" d="M287.18,381.52a4.532,4.532,0,0,0,.205-1.043,23.019,23.019,0,0,0,.23-2.893,12.245,12.245,0,0,0-.121-2.025,6.138,6.138,0,0,0-.8-2.228,13.537,13.537,0,0,0-3.409-4.078,18.653,18.653,0,0,0-4.541-2.754,17.057,17.057,0,0,0-4.217-.98c-1.219-.138-2.205-.187-2.886-.215a3.481,3.481,0,0,0-1.064.026,32.32,32.32,0,0,0,3.888.631,18.58,18.58,0,0,1,4.063,1.079,19.437,19.437,0,0,1,4.359,2.7,13.592,13.592,0,0,1,3.3,3.878,7.536,7.536,0,0,1,.982,3.966c.052,2.411-.126,3.924.011,3.931" transform="translate(-149.324 -88.376)" fill="#ff9b6c"/>
                <path id="Trazado_874111" data-name="Trazado 874111" d="M266.135,361.585c-.008.094,1.468.248,3.808.7,2.247.525,5.871.973,7.7,4.267a33.634,33.634,0,0,1,4.386,8.136,20.188,20.188,0,0,1,.65,3.771,2.739,2.739,0,0,0,.138-1.044,9.9,9.9,0,0,0-.357-2.85c-.578-2.389-2.258-5.328-4.294-8.37a10.857,10.857,0,0,0-1.771-2.09,7.015,7.015,0,0,0-2.239-1.271,21.23,21.23,0,0,0-4.137-.99,15.089,15.089,0,0,0-3.884-.262" transform="translate(-141.163 -87.469)" fill="#ff9b6c"/>
                <path id="Trazado_874112" data-name="Trazado 874112" d="M275.529,382.1a3.553,3.553,0,0,0,.622-.4l1.757-1.2a69.085,69.085,0,0,1,6.84-3.97l-.142.017,6.032,1.514-.189-.274a6.74,6.74,0,0,0,0,1.5,2.782,2.782,0,0,0,.58,1.524,1.521,1.521,0,0,0,.783.436,2.158,2.158,0,0,0,.857.117,2.511,2.511,0,0,0,1.587-.725,2.685,2.685,0,0,0,.294-.341l.064-.094.031-.047.015-.023,0,0c.081-.023-.7.2-.369.1l.007,0,.012.007.187.094c.25.122.506.235.769.34a6.733,6.733,0,0,0,.822.274,2.97,2.97,0,0,0,.451.085,1.04,1.04,0,0,0,.575-.065,1.83,1.83,0,0,0,.663-.763,6.828,6.828,0,0,0,.368-.818,14.612,14.612,0,0,0,.527-1.7l-.376.22a2.329,2.329,0,0,0,2.339-.6,1.892,1.892,0,0,0,.516-1.2,5.528,5.528,0,0,0-.125-1.2,33.033,33.033,0,0,0-1.346-4.53l-.007-.017-.01-.02-1.954-3.7-1.24-2.345a12.16,12.16,0,0,0-1.382-2.286,6.609,6.609,0,0,0-2.1-1.645,8.615,8.615,0,0,0-2.48-.719l-9.232-1.768-.04-.008-.033,0a8.664,8.664,0,0,0-1.667.3,2.787,2.787,0,0,0-1.5.882l.351-.08a3.425,3.425,0,0,0-3.188-.068,4,4,0,0,0-1.763,2.38l.085-.124-8.3,6.38-2.24,1.765a5.541,5.541,0,0,0-.754.652,5.442,5.442,0,0,0,.835-.544l2.316-1.665,8.428-6.213.057-.042.028-.082a3.545,3.545,0,0,1,1.552-2.065,2.922,2.922,0,0,1,2.684.091l.209.108.142-.188a2.35,2.35,0,0,1,1.21-.66,8.257,8.257,0,0,1,1.552-.27l-.073,0,9.223,1.819a8.019,8.019,0,0,1,2.32.673,5.986,5.986,0,0,1,1.9,1.493,11.615,11.615,0,0,1,1.3,2.176l1.239,2.345,1.957,3.7-.016-.037a32.945,32.945,0,0,1,1.328,4.428,5.048,5.048,0,0,1,.118,1.059,1.283,1.283,0,0,1-.356.816,1.73,1.73,0,0,1-1.717.432l-.3-.074-.073.294a14.345,14.345,0,0,1-.5,1.628,2.994,2.994,0,0,1-.742,1.273.583.583,0,0,1-.251.008,2.482,2.482,0,0,1-.371-.067,6.373,6.373,0,0,1-.753-.246c-.248-.1-.493-.2-.732-.318l-.177-.087-.01-.005,0,0c.331-.093-.455.125-.374.1v0l-.013.019-.024.037-.049.074a2.059,2.059,0,0,1-.23.271,1.959,1.959,0,0,1-1.231.578,1.629,1.629,0,0,1-.67-.091,1,1,0,0,1-.541-.277,3.845,3.845,0,0,1-.471-2.607l.016-.226-.205-.049-6.053-1.432-.077-.018-.065.034a59.245,59.245,0,0,0-6.782,4.156c-.755.544-1.324.984-1.7,1.294a3.552,3.552,0,0,0-.551.5" transform="translate(-156.526 -86.58)" fill="#ff9b6c"/>
                <path id="Trazado_874113" data-name="Trazado 874113" d="M269.242,372.5,290.7,316.147a3.241,3.241,0,0,0-3.029-4.394H218.764a3.241,3.241,0,0,0-2.934,1.866l-20.636,53.754-43.286.735a3.24,3.24,0,0,0,0,6.481H266.213a3.24,3.24,0,0,0,3.028-2.087" transform="translate(-60.209 -75.423)" fill="#d3d3d3"/>
                <path id="Trazado_874114" data-name="Trazado 874114" d="M203.807,351.754a4.521,4.521,0,1,0,4.521-4.521,4.522,4.522,0,0,0-4.521,4.521" transform="translate(-23.943 -84.007)" fill="#fff"/>
                <path id="Trazado_874115" data-name="Trazado 874115" d="M292.975,260.722c-.1.055.823,1.778,2.113,4.646a80.284,80.284,0,0,1,6.573,23.563c.38,3.123.485,5.073.6,5.069a5.365,5.365,0,0,0,.067-1.376c.006-.885-.052-2.165-.183-3.743a66.8,66.8,0,0,0-6.616-23.719c-.705-1.418-1.318-2.543-1.781-3.3a5.381,5.381,0,0,0-.769-1.142" transform="translate(-181.007 -63.077)" fill="#263238"/>
                <path id="Trazado_874116" data-name="Trazado 874116" d="M382.3,290.134a3.214,3.214,0,0,0,.7.109l2.033.2,7.59.635,25.952,1.955.334.025.021-.334c.218-3.446.447-7.086.683-10.827.368-6.516.683-12.724.783-18.385a26.052,26.052,0,0,0-3.329-14.578,17.984,17.984,0,0,0-7.275-6.993,14.577,14.577,0,0,0-2.577-1,5.058,5.058,0,0,0-.935-.228c-.031.093,1.287.36,3.389,1.465a18.178,18.178,0,0,1,6.981,7,25.847,25.847,0,0,1,3.117,14.322c-.134,5.642-.468,11.847-.835,18.357-.23,3.74-.453,7.378-.665,10.821l.356-.309-25.97-1.717-7.6-.44-2.041-.088a3.2,3.2,0,0,0-.71.009" transform="translate(-366.833 -58.235)" fill="#263238"/>
                <path id="Trazado_874117" data-name="Trazado 874117" d="M329.5,327.157a4.084,4.084,0,0,0,1.135-.417,9.167,9.167,0,0,0,1.268-.635,15.47,15.47,0,0,0,1.6-.984,23.067,23.067,0,0,0,3.738-3.172,24.77,24.77,0,0,0,5.9-10.37,23.1,23.1,0,0,0,.814-4.834,15.483,15.483,0,0,0,.026-1.882,9.182,9.182,0,0,0-.1-1.415,4.138,4.138,0,0,0-.221-1.188c-.136.012.086,1.721-.183,4.445a25.543,25.543,0,0,1-.937,4.7,26.05,26.05,0,0,1-5.752,10.116,25.561,25.561,0,0,1-3.558,3.207c-2.2,1.625-3.786,2.308-3.727,2.43" transform="translate(-250.374 -73.127)" fill="#263238"/>
              </g>
            </g>
          </g>
        </g>
      </g>
    </g>
  </g>
</svg>
