<svg xmlns="http://www.w3.org/2000/svg" width="122.815" height="125" viewBox="0 0 122.815 125">
  <g id="Grupo_1102801" data-name="Grupo 1102801" transform="translate(-411.337 -3079.4)">
    <g id="Grupo_1100786" data-name="Grupo 1100786" transform="translate(0 422.622)">
      <path id="Rectángulo_401150" data-name="Rectángulo 401150" d="M59,0H89a0,0,0,0,1,0,0V91a0,0,0,0,1,0,0H0a0,0,0,0,1,0,0V59A59,59,0,0,1,59,0Z" transform="translate(411.337 2656.778)" fill="#fff"/>
      <g id="XMLID_1_" transform="translate(421.374 2669)">
        <g id="XMLID_3424_" transform="translate(5 5)">
          <path id="XMLID_1767_" d="M5,112.778V31.408L58.889,5l53.889,26.408v81.37Z" transform="translate(-5 -5)" fill="#3179af"/>
          <path id="XMLID_2100_" d="M5,157.541V90.684L63.613,62l49.166,24.089v71.451Z" transform="translate(-5 -49.762)" fill="#be79ca"/>
          <path id="XMLID_1765_" d="M75,192h77.721v67.63H75Z" transform="translate(-59.971 -151.852)" fill="#1f3f77"/>
          <path id="XMLID_1804_" d="M145,376.4h23.831v28.04H145Z" transform="translate(-114.942 -296.661)" fill="#d3d3d3"/>
          <path id="XMLID_2045_" d="M145,376.4h18.335v28.04H145Z" transform="translate(-114.942 -296.661)" fill="#e5e4da"/>
          <path id="XMLID_1803_" d="M256,312.7h23.831v41.716H256Z" transform="translate(-202.111 -246.637)" fill="#e5e4da"/>
          <path id="XMLID_2072_" d="M256,312.7h18.571v41.716H256Z" transform="translate(-202.111 -246.637)" fill="#d3d3d3"/>
          <path id="XMLID_1802_" d="M185.5,376.4h6.441v11.443H185.5Z" transform="translate(-146.747 -296.661)" fill="#c4c1ab"/>
          <path id="XMLID_1801_" d="M145,285h23.831v19.645H145Z" transform="translate(-114.942 -224.885)" fill="#e5e4da"/>
          <path id="XMLID_2018_" d="M145,308.7h18.335v14.557H145Z" transform="translate(-114.942 -243.496)" fill="#d3d3d3"/>
          <g id="Grupo_1100990" data-name="Grupo 1100990">
            <path id="XMLID_1800_" d="M185.5,285h6.441v7.407H185.5Z" transform="translate(-146.747 -224.885)" fill="#c4c1ab"/>
            <path id="XMLID_1799_" d="M296.5,312.7h6.441v12.753H296.5Z" transform="translate(-233.916 -246.637)" fill="#c4c1ab"/>
            <path id="XMLID_1766_" d="M112.778,31.408v9.919L58.889,14.919,5,41.327V31.408L58.889,5Z" transform="translate(-5 -5)" fill="#d3d3d3"/>
          </g>
          <path id="XMLID_1764_" d="M143.4,134.1h20.053v6.441H143.4Z" transform="translate(-113.686 -106.383)" fill="#1f3f77"/>
          <path id="XMLID_1763_" d="M75,192h77.721v6.441H75Z" transform="translate(-59.971 -151.852)" fill="#d3d3d3"/>
          <path id="XMLID_1762_" d="M75,222h77.721v6.441H75Z" transform="translate(-59.971 -175.411)" fill="#e5e4da"/>
          <path id="XMLID_1761_" d="M275.3,134.1h20.053v6.441H275.3Z" transform="translate(-217.267 -106.383)" fill="#1f3f77"/>
        </g>
      </g>
    </g>
  </g>
</svg>
