<svg xmlns="http://www.w3.org/2000/svg" xmlns:xlink="http://www.w3.org/1999/xlink" width="295" height="221.965" viewBox="0 0 295 221.965">
  <defs>
    <linearGradient id="linear-gradient" x1="0.814" y1="0.117" x2="0.236" y2="0.921" gradientUnits="objectBoundingBox">
      <stop offset="0" stop-color="#be79ca"/>
      <stop offset="1" stop-color="#371f63"/>
    </linearGradient>
  </defs>
  <g id="Grupo_1102801" data-name="Grupo 1102801" transform="translate(-285.047 -1705.301)">
    <g id="Grupo_1102746" data-name="Grupo 1102746" transform="translate(54.632 -2914.699)">
      <g id="Grupo_1099952" data-name="Grupo 1099952" transform="translate(230.415 4620)">
        <path id="Trazado_145968" data-name="Trazado 145968" d="M49.2,0A49.2,49.2,0,1,0,98.4,49.2,49.2,49.2,0,0,0,49.2,0Z" transform="translate(7.561 119.354)" fill="#75baf1" opacity="0.444"/>
        <path id="Trazado_145969" data-name="Trazado 145969" d="M33.618,0A33.618,33.618,0,1,0,67.237,33.618,33.618,33.618,0,0,0,33.618,0Z" transform="translate(200.275 12.836)" fill="#75baf1" opacity="0.444"/>
        <rect id="Rectángulo_34812" data-name="Rectángulo 34812" width="295" height="221.25" transform="translate(0 0.357)" fill="none"/>
        <path id="Trazado_145967" data-name="Trazado 145967" d="M110.983,0A110.983,110.983,0,1,0,221.966,110.983,110.983,110.983,0,0,0,110.983,0Z" transform="translate(36.517 0)" fill="url(#linear-gradient)"/>
        <path id="Trazado_145971" data-name="Trazado 145971" d="M9.243,0a9.243,9.243,0,1,0,9.243,9.243A9.243,9.243,0,0,0,9.243,0Z" transform="translate(239.996 184.805)" fill="#75baf1"/>
        <path id="Elipse_4044" data-name="Elipse 4044" d="M12.535,3.388a9.147,9.147,0,1,1-9.147,9.147,9.158,9.158,0,0,1,9.147-9.147m0-3.388A12.535,12.535,0,1,0,25.071,12.535,12.535,12.535,0,0,0,12.535,0Z" transform="translate(214.926 79.167)" fill="#fff"/>
      </g>
    </g>
    <g id="geografico" transform="translate(338.219 1726.263)">
      <g id="Grupo_1102790" data-name="Grupo 1102790" transform="translate(40.016 40.019)">
        <path id="Trazado_877257" data-name="Trazado 877257" d="M144.991,94.1A50.9,50.9,0,1,1,94.1,145a50.9,50.9,0,0,1,50.9-50.9Z" transform="translate(-94.095 -94.099)" fill="#8ac9fe" fill-rule="evenodd"/>
        <path id="Trazado_877258" data-name="Trazado 877258" d="M144.991,94.1a51.612,51.612,0,0,1,5.491.3,62.149,62.149,0,0,1,17.705,18.963,68.494,68.494,0,0,0,12.038-5.089q1.563,1.5,2.995,3.13a72.259,72.259,0,0,1-12.962,5.7,61.05,61.05,0,0,1,6.627,25.8h18.955c.029.7.047,1.4.047,2.1s-.018,1.405-.047,2.1H176.879a61.77,61.77,0,0,1-6.622,25.795,72.242,72.242,0,0,1,12.963,5.7q-1.431,1.627-2.995,3.13a68.518,68.518,0,0,0-12.032-5.087,61.64,61.64,0,0,1-17.706,18.96,51.16,51.16,0,0,1-10.992,0,61.629,61.629,0,0,1-17.706-18.96,68.5,68.5,0,0,0-12.032,5.087q-1.563-1.5-2.994-3.13a72.217,72.217,0,0,1,12.963-5.7A61.771,61.771,0,0,1,113.1,147.1H94.141c-.028-.7-.047-1.4-.047-2.1s.019-1.405.047-2.1H113.1a61.055,61.055,0,0,1,6.627-25.8,72.265,72.265,0,0,1-12.961-5.7q1.431-1.627,2.995-3.13a68.478,68.478,0,0,0,12.037,5.089A62.138,62.138,0,0,1,139.5,94.394a51.433,51.433,0,0,1,5.491-.3ZM117.3,142.892h25.584V121.056a81.588,81.588,0,0,1-19.068-2.737A56.893,56.893,0,0,0,117.3,142.892Zm29.789,0h25.584a56.889,56.889,0,0,0-6.516-24.573,81.574,81.574,0,0,1-19.068,2.737Zm25.577,4.205H147.094v21.836a81.58,81.58,0,0,1,19.068,2.737A57.559,57.559,0,0,0,172.671,147.1Zm-29.783,0H117.311a57.559,57.559,0,0,0,6.51,24.573,81.61,81.61,0,0,1,19.068-2.737Zm4.206,45.732A57.494,57.494,0,0,0,164,175.445a77.709,77.709,0,0,0-16.9-2.3Zm-4.206-19.69a77.733,77.733,0,0,0-16.905,2.3,57.5,57.5,0,0,0,16.905,17.385Zm0-75.98a57.931,57.931,0,0,0-16.9,17.386,77.722,77.722,0,0,0,16.9,2.3Zm4.206,19.689a77.743,77.743,0,0,0,16.9-2.3,57.928,57.928,0,0,0-16.9-17.386Z" transform="translate(-94.095 -94.098)" fill="#60b7ff" fill-rule="evenodd"/>
        <path id="Trazado_877259" data-name="Trazado 877259" d="M248.387,94.1a50.9,50.9,0,0,1,0,101.793c-1.026,0-2.045-.034-3.057-.094a50.894,50.894,0,0,0,0-101.6c1.012-.06,2.031-.094,3.057-.094Z" transform="translate(-197.491 -94.099)" fill="#60b7ff" fill-rule="evenodd"/>
        <path id="Trazado_877260" data-name="Trazado 877260" d="M248.387,94.1a51.612,51.612,0,0,1,5.491.3q1.113.778,2.191,1.6a50.767,50.767,0,0,0-10.74-1.8C246.342,94.132,247.361,94.1,248.387,94.1Zm35.234,14.17q1.563,1.5,2.995,3.13-2.092,1.182-4.269,2.22-1.343-1.714-2.829-3.3Q281.609,109.36,283.622,108.268Zm15.615,34.624c.029.7.047,1.4.047,2.1s-.018,1.405-.047,2.1h-6.114c.029-.7.046-1.4.046-2.1s-.017-1.405-.046-2.1Zm-12.621,35.7q-1.431,1.627-2.995,3.13-2.011-1.092-4.1-2.045,1.482-1.592,2.829-3.3Q284.522,177.41,286.616,178.591Zm-32.733,17a51.452,51.452,0,0,1-5.5.3c-1.026,0-2.045-.034-3.057-.094a50.783,50.783,0,0,0,10.753-1.807Q255,194.814,253.883,195.595Z" transform="translate(-197.491 -94.098)" fill="#41a8fc" fill-rule="evenodd"/>
      </g>
      <g id="Grupo_1102791" data-name="Grupo 1102791" transform="translate(14.995 14.998)">
        <circle id="Elipse_11566" data-name="Elipse 11566" cx="32.12" cy="32.12" r="32.12" transform="translate(0)" fill="#8ac9fe"/>
        <path id="Trazado_877261" data-name="Trazado 877261" d="M90.165,139.247a32.1,32.1,0,0,1-45.415,0l22.708-22.708Z" transform="translate(-35.338 -84.419)" fill="#be79ca" fill-rule="evenodd"/>
        <path id="Trazado_877262" data-name="Trazado 877262" d="M116.536,15a32.113,32.113,0,0,1,22.708,54.827L116.536,47.118Z" transform="translate(-84.416 -14.998)" fill="#f9ce24" fill-rule="evenodd"/>
        <path id="Trazado_877263" data-name="Trazado 877263" d="M180.5,75.076a2.531,2.531,0,1,1-4.184-2.848l13.79-20.26a2.531,2.531,0,0,1,2.092-1.107H224.27a2.531,2.531,0,1,1,0,5.061H193.535Z" transform="translate(-124.985 -39.517)" fill="#a79ba7" fill-rule="evenodd"/>
        <circle id="Elipse_11567" data-name="Elipse 11567" cx="4.889" cy="4.889" r="4.889" transform="translate(94.396 8.986)" fill="#fff"/>
        <path id="Trazado_877264" data-name="Trazado 877264" d="M326.017,43.488a4.889,4.889,0,1,1,0,9.612,4.89,4.89,0,0,0,0-9.612Z" transform="translate(-227.633 -34.419)" fill="#00e499" fill-rule="evenodd"/>
        <path id="Trazado_877265" data-name="Trazado 877265" d="M376.717,55.922a2.531,2.531,0,0,1,0-5.061h13.17a2.531,2.531,0,0,1,0,5.061Zm0,8.662a2.531,2.531,0,0,1,0-5.061h20.329a2.531,2.531,0,0,1,0,5.061Zm0,8.662a2.531,2.531,0,0,1,0-5.061h28.834a2.531,2.531,0,0,1,0,5.061Z" transform="translate(-260.565 -39.517)" fill="#a79ba7" fill-rule="evenodd"/>
      </g>
      <g id="Grupo_1102792" data-name="Grupo 1102792" transform="translate(102.588 102.593)">
        <path id="Trazado_877266" data-name="Trazado 877266" d="M324.028,356.156a32.121,32.121,0,1,0-32.123-32.119A32.184,32.184,0,0,0,324.028,356.156Z" transform="translate(-291.905 -291.914)" fill="#fff" fill-rule="evenodd"/>
        <path id="Trazado_877268" data-name="Trazado 877268" d="M345.248,403.25a22.442,22.442,0,0,0-22.3,20.02,32.113,32.113,0,0,0,44.6,0,22.432,22.432,0,0,0-22.3-20.02Z" transform="translate(-313.126 -368.032)" fill="#be79ca" fill-rule="evenodd"/>
        <path id="Trazado_877270" data-name="Trazado 877270" d="M368.946,348.871a11.34,11.34,0,1,0-11.34-11.34A11.364,11.364,0,0,0,368.946,348.871Z" transform="translate(-336.823 -315.348)" fill="#be79ca" fill-rule="evenodd"/>
      </g>
    </g>
  </g>
</svg>
