<svg xmlns="http://www.w3.org/2000/svg" xmlns:xlink="http://www.w3.org/1999/xlink" width="299.17" height="225.103" viewBox="0 0 299.17 225.103">
  <defs>
    <linearGradient id="linear-gradient" x1="0.814" y1="0.117" x2="0.236" y2="0.921" gradientUnits="objectBoundingBox">
      <stop offset="0" stop-color="#be79ca"/>
      <stop offset="1" stop-color="#371f63"/>
    </linearGradient>
  </defs>
  <g id="Grupo_1102801" data-name="Grupo 1102801" transform="translate(-1020.047 -1972.872)">
    <g id="Grupo_1102744" data-name="Grupo 1102744" transform="translate(789.632 -2647.128)">
      <g id="Grupo_1099952" data-name="Grupo 1099952" transform="translate(12928.802 17229.016)">
        <path id="Trazado_145968" data-name="Trazado 145968" d="M49.9,0a49.895,49.895,0,1,0,49.9,49.895A49.895,49.895,0,0,0,49.9,0Z" transform="translate(-12690.719 -12487.975)" fill="#75baf1" opacity="0.444"/>
        <path id="Trazado_145969" data-name="Trazado 145969" d="M34.094,0A34.094,34.094,0,1,0,68.187,34.094,34.094,34.094,0,0,0,34.094,0Z" transform="translate(-12495.28 -12595.998)" fill="#75baf1" opacity="0.444"/>
        <rect id="Rectángulo_34812" data-name="Rectángulo 34812" width="299.17" height="224.377" transform="translate(-12698.387 -12608.653)" fill="none"/>
        <path id="Trazado_145967" data-name="Trazado 145967" d="M112.552,0A112.552,112.552,0,1,0,225.1,112.552,112.552,112.552,0,0,0,112.552,0Z" transform="translate(-12661.354 -12609.016)" fill="url(#linear-gradient)"/>
        <path id="Trazado_145971" data-name="Trazado 145971" d="M9.374,0a9.374,9.374,0,1,0,9.374,9.374A9.374,9.374,0,0,0,9.374,0Z" transform="translate(-12454.998 -12421.599)" fill="#75baf1"/>
        <path id="Elipse_4044" data-name="Elipse 4044" d="M12.712,3.436a9.277,9.277,0,1,1-9.277,9.277,9.287,9.287,0,0,1,9.277-9.277m0-3.436A12.712,12.712,0,1,0,25.425,12.712,12.712,12.712,0,0,0,12.712,0Z" transform="translate(-12480.423 -12528.729)" fill="#fff"/>
      </g>
      <g id="psicografia" transform="translate(294.351 4648.17)">
        <g id="Grupo_1102783" data-name="Grupo 1102783" transform="translate(36.427 14.529)">
          <path id="Trazado_877225" data-name="Trazado 877225" d="M146.331,66.736a2.324,2.324,0,1,1,4.648,0v45.937a2.324,2.324,0,1,1-4.648,0ZM199,99.788a2.324,2.324,0,1,1,3.287,3.287L169.8,135.557a2.324,2.324,0,0,1-3.287-3.287Zm10.2,61.205a2.324,2.324,0,0,1-2.324,4.025L167.093,142.05a2.324,2.324,0,0,1,2.324-4.025Z" transform="translate(-128.675 -49.922)" fill="#75baf1" fill-rule="evenodd"/>
          <g id="Grupo_1102782" data-name="Grupo 1102782" transform="translate(0 0)">
            <path id="Trazado_877226" data-name="Trazado 877226" d="M105.44,54.311A19.891,19.891,0,1,0,85.549,34.42,19.933,19.933,0,0,0,105.44,54.311Z" transform="translate(-85.549 -14.529)" fill="#75baf1" fill-rule="evenodd"/>
            <path id="Trazado_877227" data-name="Trazado 877227" d="M149.025,54.259a19.892,19.892,0,0,0,0-39.677q.72-.052,1.452-.053a19.891,19.891,0,1,1,0,39.782q-.732,0-1.452-.053Z" transform="translate(-130.586 -14.529)" fill="#75baf1" fill-rule="evenodd"/>
          </g>
        </g>
        <g id="Grupo_1102784" data-name="Grupo 1102784" transform="translate(101.736 100.992)">
          <path id="Trazado_877228" data-name="Trazado 877228" d="M337,365.424A26.621,26.621,0,1,1,363.627,338.8,26.671,26.671,0,0,1,337,365.424Z" transform="translate(-310.381 -312.182)" fill="#f9ce24" fill-rule="evenodd"/>
          <path id="Trazado_877229" data-name="Trazado 877229" d="M421.6,338.8a26.624,26.624,0,0,0-25.032-26.576c.523-.029,1.054-.045,1.585-.045a26.621,26.621,0,1,1,0,53.242c-.531,0-1.062-.017-1.585-.045A26.624,26.624,0,0,0,421.6,338.8Z" transform="translate(-371.532 -312.182)" fill="#f5b829" fill-rule="evenodd"/>
          <path id="Trazado_877230" data-name="Trazado 877230" d="M385.208,347.5a2.51,2.51,0,1,1-4.628,1.944,5.461,5.461,0,0,0-3.784-3.257,6.938,6.938,0,0,0-3.047-.074,5.854,5.854,0,0,0-2.512,1.137,3.472,3.472,0,0,0-1.334,2.932,2.983,2.983,0,0,0,1.47,2.442,10.967,10.967,0,0,0,4.11,1.371,17.875,17.875,0,0,1,6.3,2.076,8.384,8.384,0,0,1,4.254,6.428c.029.239.045.523.053.848a7.518,7.518,0,0,1-3.154,6.4,12.372,12.372,0,0,1-5.374,2.2V373.4a2.51,2.51,0,0,1-5.019,0v-1.507a11.923,11.923,0,0,1-4.32-1.738,9.74,9.74,0,0,1-4.142-5.843,2.5,2.5,0,0,1,4.863-1.194,4.8,4.8,0,0,0,2.042,2.862,7.61,7.61,0,0,0,4.357,1.157c.263-.008.585-.033.955-.078a7.607,7.607,0,0,0,3.619-1.3,2.721,2.721,0,0,0,1.174-2.3c0-.07-.012-.194-.033-.375a3.6,3.6,0,0,0-1.861-2.722,13,13,0,0,0-4.521-1.429,15.864,15.864,0,0,1-6.032-2.116,7.766,7.766,0,0,1-3.743-6.4,8.33,8.33,0,0,1,3.179-7.05,10.8,10.8,0,0,1,4.464-2.108V339.71a2.51,2.51,0,0,1,5.019,0v1.507c.148.033.3.066.445.1a10.4,10.4,0,0,1,7.2,6.177Z" transform="translate(-348.433 -329.934)" fill="#fae9b5"/>
        </g>
        <g id="Grupo_1102785" data-name="Grupo 1102785" transform="translate(44.202 24.334)">
          <path id="Trazado_877231" data-name="Trazado 877231" d="M124.192,68.392c-4.145-2.435-11.772-8.023-11.874-13.6-.113-6.209,6.864-9.023,12.115-3.686,5.248-5.337,12.226-2.524,12.114,3.685-.1,5.576-7.729,11.166-11.874,13.6A.468.468,0,0,1,124.192,68.392Z" transform="translate(-112.316 -48.287)" fill="#fff" fill-rule="evenodd"/>
        </g>
        <g id="Grupo_1102787" data-name="Grupo 1102787" transform="translate(90.368 25.649)">
          <path id="Trazado_877233" data-name="Trazado 877233" d="M290.29,102.723h52.257v37.442a1.3,1.3,0,0,1-1.3,1.3H291.607a1.3,1.3,0,0,1-1.317-1.3Z" transform="translate(-284.757 -88.224)" fill="#eceff1" fill-rule="evenodd"/>
          <path id="Trazado_877234" data-name="Trazado 877234" d="M457.955,102.723h2.619v37.442a1.3,1.3,0,0,1-1.3,1.3h-2.635a1.3,1.3,0,0,0,1.317-1.3Z" transform="translate(-402.784 -88.224)" fill="#d1d1d6" fill-rule="evenodd"/>
          <path id="Trazado_877235" data-name="Trazado 877235" d="M271.243,70.954l8.663-17.523a1.3,1.3,0,0,1,1.147-.62H324.4a1.3,1.3,0,0,1,1.147.62l8.679,17.523c0,3.89-3.533,7.036-7.873,7.036-4.355,0-7.873-3.146-7.873-7.036,0,3.89-3.533,7.036-7.873,7.036-4.355,0-7.873-3.146-7.873-7.036,0,3.89-3.533,7.036-7.873,7.036-4.355,0-7.873-3.146-7.873-7.036,0,3.89-3.533,7.036-7.873,7.036-4.355,0-7.873-3.146-7.873-7.036Z" transform="translate(-271.243 -52.811)" fill="#ffe177" fill-rule="evenodd"/>
          <path id="Trazado_877236" data-name="Trazado 877236" d="M279.116,122.3c4.339,0,7.873-3.146,7.873-7.036H271.243a7.164,7.164,0,0,0,5.347,6.679A8.958,8.958,0,0,0,279.116,122.3Zm23.618-7.036c0,3.89,3.518,7.036,7.873,7.036,4.339,0,7.873-3.146,7.873-7.036Z" transform="translate(-271.243 -97.125)" fill="#ffd064" fill-rule="evenodd"/>
          <path id="Trazado_877237" data-name="Trazado 877237" d="M372.684,70.954l-8.679-17.523a1.3,1.3,0,0,0-1.147-.62H352.367l4.572,18.143c0,3.89,3.518,7.036,7.873,7.036a8.926,8.926,0,0,0,2.51-.356A7.179,7.179,0,0,0,372.684,70.954Zm-39.364,7.036c4.34,0,7.873-3.146,7.873-7.036V52.811H330l-4.556,18.143C325.448,74.843,328.966,77.989,333.321,77.989Z" transform="translate(-309.702 -52.811)" fill="#6e3dc6" fill-rule="evenodd"/>
          <path id="Trazado_877238" data-name="Trazado 877238" d="M356.939,115.268c0,3.89,3.518,7.036,7.873,7.036a8.926,8.926,0,0,0,2.51-.356,7.179,7.179,0,0,0,5.362-6.679ZM333.321,122.3c4.34,0,7.873-3.146,7.873-7.036H325.448C325.448,119.158,328.966,122.3,333.321,122.3Z" transform="translate(-309.702 -97.125)" fill="#be79ca" fill-rule="evenodd"/>
          <g id="Grupo_1102786" data-name="Grupo 1102786" transform="translate(17.104 34.338)">
            <path id="Trazado_877239" data-name="Trazado 877239" d="M331.388,171.02h11.586a1.215,1.215,0,0,1,1.276,1.132v17.772H330.124V172.152A1.2,1.2,0,0,1,331.388,171.02Z" transform="translate(-330.124 -171.02)" fill="#ecba78" fill-rule="evenodd"/>
            <path id="Trazado_877240" data-name="Trazado 877240" d="M331.51,189.925h-1.386V172.152a1.2,1.2,0,0,1,1.264-1.132h1.386a1.2,1.2,0,0,0-1.264,1.132Z" transform="translate(-330.124 -171.02)" fill="#e3a76f" fill-rule="evenodd"/>
          </g>
        </g>
        <g id="Grupo_1102788" data-name="Grupo 1102788" transform="translate(16.316 66.949)">
          <path id="Trazado_877241" data-name="Trazado 877241" d="M80.247,279.356H45.9q-2.161-12.113-14.608-9.288-8.3,1.443-8.129-2.325c-.03-3.891-.693-5.308-1.7-6.061-2.224-1.709.251-3.915,2.8-5.3-2.14-.167-4.889-1.889-4.3-3.27.95-3.239.5-4.543-.962-5.3q-4.268-2.089-1.739-5.32a30.494,30.494,0,0,0,4.656-6.485,10.777,10.777,0,0,0,1.207-6.3c-.1-1.046-.155-2.1-.155-3.18a31.539,31.539,0,1,1,55.606,20.382,10.718,10.718,0,0,0-2.588,6.019c-.807,7.346,1.016,15.87,5.224,24.913a1.064,1.064,0,0,1-.962,1.512Z" transform="translate(-16.316 -194.987)" fill="#fff" fill-rule="evenodd"/>
        </g>
        <g id="Grupo_1102789" data-name="Grupo 1102789" transform="translate(32.684 75.368)">
          <path id="Trazado_877243" data-name="Trazado 877243" d="M90.416,227.642a18.9,18.9,0,0,0-5.539,2.3l-3.6-1.6-4.241,4.241,1.6,3.6a18.9,18.9,0,0,0-2.3,5.539l-3.673,1.413v6l3.673,1.413a18.914,18.914,0,0,0,2.3,5.537l-1.6,3.6,4.241,4.243,3.6-1.6a18.9,18.9,0,0,0,5.539,2.3l1.413,3.67h6l1.413-3.673a18.914,18.914,0,0,0,5.537-2.3l3.6,1.6,4.243-4.243-1.6-3.6a18.964,18.964,0,0,0,2.3-5.539l3.67-1.413v-6l-3.67-1.413a18.906,18.906,0,0,0-2.3-5.539l1.6-3.6-4.243-4.241-3.6,1.6a18.959,18.959,0,0,0-5.539-2.3l-1.413-3.673h-6Z" transform="translate(-72.665 -223.969)" fill="#6e3dc6" fill-rule="evenodd"/>
          <path id="Trazado_877244" data-name="Trazado 877244" d="M82.487,228.877l-1.21-.537-4.241,4.241,1.6,3.6a18.9,18.9,0,0,0-2.3,5.539l-3.673,1.413v6l3.673,1.413a18.914,18.914,0,0,0,2.3,5.537l-1.6,3.6,4.241,4.243,1.21-.537-3.707-3.707,1.6-3.6a18.914,18.914,0,0,1-2.3-5.537l-3.673-1.413v-6l3.673-1.413a18.9,18.9,0,0,1,2.3-5.539l-1.6-3.6Zm26.428,0-.537-.537-3.6,1.6c.254.141.505.288.751.442Zm-18.5-1.236a18.9,18.9,0,0,0-5.539,2.3l.992.442a24.72,24.72,0,0,1,6.293-2.738l1.413-3.673H91.829Zm14.363,34.685,3.6,1.6.537-.537-3.382-1.5Q105.164,262.114,104.779,262.327Zm-19.9,0a18.906,18.906,0,0,0,5.539,2.3l1.413,3.67h1.746l-1.413-3.67a24.777,24.777,0,0,1-6.3-2.738Z" transform="translate(-72.665 -223.969)" fill="#be79ca" fill-rule="evenodd"/>
          <path id="Trazado_877245" data-name="Trazado 877245" d="M117.489,255.906a12.886,12.886,0,1,0,12.884,12.887A12.887,12.887,0,0,0,117.489,255.906Z" transform="translate(-95.325 -246.629)" fill="#eceff1" fill-rule="evenodd"/>
          <path id="Trazado_877246" data-name="Trazado 877246" d="M146.831,255.906c-.293,0-.584.01-.874.031a12.885,12.885,0,0,1,0,25.711c.29.018.581.029.874.029a12.886,12.886,0,0,0,0-25.772Z" transform="translate(-124.667 -246.629)" fill="#d1d1d6" fill-rule="evenodd"/>
        </g>
      </g>
    </g>
  </g>
</svg>
