<svg xmlns="http://www.w3.org/2000/svg" xmlns:xlink="http://www.w3.org/1999/xlink" width="400" height="321" viewBox="0 0 400 321">
  <defs>
    <linearGradient id="linear-gradient" x1="0.814" y1="0.117" x2="0.236" y2="0.921" gradientUnits="objectBoundingBox">
      <stop offset="0" stop-color="#be79ca"/>
      <stop offset="1" stop-color="#371f63"/>
    </linearGradient>
    <clipPath id="clip-path">
      <path id="Trazado_873802" data-name="Trazado 873802" d="M0,0H400V321s-100.065-45.451-111.2-36.854-40.412,26.985-78.8,28.74-68.832-10.82-68.832-10.82S118.659,294.774,85,261.295,0,321,0,321Z" transform="translate(1020 5255)" fill="#fff" stroke="#707070" stroke-width="1"/>
    </clipPath>
    <clipPath id="clip-path-2">
      <rect id="Rectángulo_401299" data-name="Rectángulo 401299" width="299.123" height="430.55" fill="none"/>
    </clipPath>
    <clipPath id="clip-path-5">
      <rect id="Rectángulo_401292" data-name="Rectángulo 401292" width="3.337" height="3.264" transform="translate(0)" fill="none"/>
    </clipPath>
    <clipPath id="clip-path-6">
      <rect id="Rectángulo_401293" data-name="Rectángulo 401293" width="27.904" height="36.12" fill="none"/>
    </clipPath>
    <clipPath id="clip-path-7">
      <rect id="Rectángulo_401294" data-name="Rectángulo 401294" width="3.382" height="3.372" transform="translate(0)" fill="none"/>
    </clipPath>
    <clipPath id="clip-path-8">
      <rect id="Rectángulo_401295" data-name="Rectángulo 401295" width="43.466" height="3.621" transform="translate(0)" fill="none"/>
    </clipPath>
    <clipPath id="clip-path-9">
      <rect id="Rectángulo_401296" data-name="Rectángulo 401296" width="7.934" height="14.881" transform="translate(0)" fill="none"/>
    </clipPath>
    <clipPath id="clip-path-10">
      <rect id="Rectángulo_401297" data-name="Rectángulo 401297" width="38.623" height="20.145" fill="none"/>
    </clipPath>
  </defs>
  <g id="Grupo_1102801" data-name="Grupo 1102801" transform="translate(-1020.334 -956)">
    <g id="Grupo_1101087" data-name="Grupo 1101087" transform="translate(0.334 -4299)">
      <g id="Grupo_1099960" data-name="Grupo 1099960" transform="translate(13718.387 17874.502)">
        <path id="Trazado_145968" data-name="Trazado 145968" d="M66.711,0a66.711,66.711,0,1,0,66.711,66.711A66.711,66.711,0,0,0,66.711,0Z" transform="translate(-12688.135 -12445.871)" fill="#75baf1" opacity="0.444"/>
        <path id="Trazado_145969" data-name="Trazado 145969" d="M45.584,0A45.584,45.584,0,1,0,91.168,45.584,45.584,45.584,0,0,0,45.584,0Z" transform="translate(-12426.826 -12590.302)" fill="#75baf1" opacity="0.444"/>
        <rect id="Rectángulo_34812" data-name="Rectángulo 34812" width="400" height="300" transform="translate(-12698.387 -12607.222)" fill="none"/>
        <path id="Trazado_145967" data-name="Trazado 145967" d="M150.485,0A150.485,150.485,0,1,0,300.971,150.485,150.485,150.485,0,0,0,150.485,0Z" transform="translate(-12648.872 -12607.707)" fill="url(#linear-gradient)"/>
        <path id="Trazado_145971" data-name="Trazado 145971" d="M12.533,0A12.533,12.533,0,1,0,25.066,12.533,12.533,12.533,0,0,0,12.533,0Z" transform="translate(-12372.968 -12357.124)" fill="#75baf1"/>
        <path id="Elipse_4044" data-name="Elipse 4044" d="M17,4.594A12.4,12.4,0,1,1,4.594,17,12.417,12.417,0,0,1,17,4.594M17,0a17,17,0,1,0,17,17A17,17,0,0,0,17,0Z" transform="translate(-12406.962 -12500.362)" fill="#fff"/>
      </g>
      <g id="Enmascarar_grupo_1098691" data-name="Enmascarar grupo 1098691" clip-path="url(#clip-path)">
        <g id="Grupo_1101114" data-name="Grupo 1101114" transform="translate(1019.666 5291)">
          <g id="Grupo_1101113" data-name="Grupo 1101113" clip-path="url(#clip-path-2)">
            <rect id="Rectángulo_401283" data-name="Rectángulo 401283" width="163.116" height="123.548" transform="translate(0.213 79.472)" fill="#f5f5f5"/>
            <g id="Grupo_1101092" data-name="Grupo 1101092">
              <g id="Grupo_1101091" data-name="Grupo 1101091" clip-path="url(#clip-path-2)">
                <path id="Trazado_874217" data-name="Trazado 874217" d="M135.747,203.02s.015-.778.023-2.266.014-3.7.024-6.57c.013-5.757.032-14.2.055-24.976.027-21.536.065-52.4.111-89.736l-.213.213,163.1.046h.014l-.259-.259c.009,44.446.017,86.525.025,123.548l.234-.234L181.11,202.9l-33.428.062-8.867.028-2.285.013c-.515.005-.783.014-.783.014s.25.009.756.014l2.259.013,8.821.028,33.375.062,117.905.117h.233v-.234c.008-37.023.017-79.1.026-123.548v-.259h-.273l-163.1.046h-.213v.213c.046,37.395.084,68.3.111,89.87.023,10.756.042,19.181.055,24.927.01,2.857.018,5.046.024,6.531s.023,2.22.023,2.22" transform="translate(-135.533 0)" fill="#263238"/>
                <rect id="Rectángulo_401284" data-name="Rectángulo 401284" width="11.015" height="29.791" transform="translate(104.19 137.347)" fill="#75baf1"/>
                <rect id="Rectángulo_401285" data-name="Rectángulo 401285" width="11.015" height="29.791" transform="translate(57.45 137.347)" fill="#75baf1"/>
                <rect id="Rectángulo_401286" data-name="Rectángulo 401286" width="11.015" height="47.285" transform="translate(41.869 119.853)" fill="#75baf1"/>
                <rect id="Rectángulo_401287" data-name="Rectángulo 401287" width="11.015" height="10.026" transform="translate(118.445 157.76)" fill="#75baf1"/>
                <rect id="Rectángulo_401288" data-name="Rectángulo 401288" width="11.015" height="16.338" transform="translate(88.61 150.8)" fill="#75baf1"/>
                <rect id="Rectángulo_401289" data-name="Rectángulo 401289" width="11.015" height="20.088" transform="translate(73.03 147.05)" fill="#75baf1"/>
                <path id="Trazado_874218" data-name="Trazado 874218" d="M175.344,126.042a2.365,2.365,0,1,0,2.365-2.365,2.365,2.365,0,0,0-2.365,2.365" transform="translate(-56.295 0)" fill="#6e3dc6"/>
                <line id="Línea_1649" data-name="Línea 1649" y1="48.58" transform="translate(84.9 85.56)" fill="#f5f5f5"/>
                <path id="Trazado_874219" data-name="Trazado 874219" d="M214.222,85.559c-.142,0-.258,10.876-.258,24.289s.116,24.291.258,24.291.259-10.873.259-24.291-.115-24.289-.259-24.289" transform="translate(-129.322 0)" fill="#263238"/>
                <path id="Trazado_874220" data-name="Trazado 874220" d="M169.064,117.582a1.066,1.066,0,0,0,.27-.075l.771-.269c.339-.116.749-.285,1.249-.441s1.089-.31,1.738-.495a32.385,32.385,0,0,1,27.086,5.259,52.61,52.61,0,0,1,7.226,6.988c2.387,2.541,4.965,5.286,8.446,6.868a12.688,12.688,0,0,0,5.46,1.135,16.1,16.1,0,0,0,5.295-1.12,46.545,46.545,0,0,0,8.811-5.031,44.521,44.521,0,0,1,8-4.318,17.582,17.582,0,0,1,7.729-1.237,26.151,26.151,0,0,1,10.965,3.081,23.986,23.986,0,0,1,2.643,1.668l.652.491a1.16,1.16,0,0,0,.233.154,15.921,15.921,0,0,0-3.43-2.489,25.749,25.749,0,0,0-11.043-3.271,17.864,17.864,0,0,0-7.9,1.2A44.443,44.443,0,0,0,235.157,130a46.561,46.561,0,0,1-8.733,4.958,15.656,15.656,0,0,1-5.126,1.079,12.175,12.175,0,0,1-5.236-1.092c-3.352-1.52-5.9-4.21-8.287-6.741a52.427,52.427,0,0,0-7.312-7.026,32.461,32.461,0,0,0-15.927-6.048,31.709,31.709,0,0,0-11.5.978l-1.734.544c-.5.172-.9.358-1.238.49l-.754.317a1.206,1.206,0,0,0-.249.124" transform="translate(-135.58 0)" fill="#6e3dc6"/>
                <path id="Trazado_874221" data-name="Trazado 874221" d="M211.857,135.765a2.365,2.365,0,1,0,2.365-2.365,2.365,2.365,0,0,0-2.365,2.365" transform="translate(-129.321 0)" fill="#6e3dc6"/>
                <path id="Trazado_874222" data-name="Trazado 874222" d="M249.663,115.139a2.365,2.365,0,1,0,2.365-2.364,2.365,2.365,0,0,0-2.365,2.364" transform="translate(-204.933 0)" fill="#6e3dc6"/>
                <path id="Trazado_874223" data-name="Trazado 874223" d="M169.559,171.7a30.085,30.085,0,0,0,5.561.259,30.091,30.091,0,0,0,5.562-.259,30.089,30.089,0,0,0-5.562-.259,30.082,30.082,0,0,0-5.561.259" transform="translate(-51.118 0)" fill="#263238"/>
                <path id="Trazado_874224" data-name="Trazado 874224" d="M184.012,171.7a30.085,30.085,0,0,0,5.561.259,30.092,30.092,0,0,0,5.562-.259,30.089,30.089,0,0,0-5.562-.259,30.082,30.082,0,0,0-5.561.259" transform="translate(-80.024 0)" fill="#263238"/>
                <path id="Trazado_874225" data-name="Trazado 874225" d="M200.129,171.7a30.085,30.085,0,0,0,5.561.259,30.092,30.092,0,0,0,5.562-.259,30.089,30.089,0,0,0-5.562-.259,30.082,30.082,0,0,0-5.561.259" transform="translate(-112.258 0)" fill="#263238"/>
                <path id="Trazado_874226" data-name="Trazado 874226" d="M215.489,171.7a30.085,30.085,0,0,0,5.561.259,30.092,30.092,0,0,0,5.562-.259,30.089,30.089,0,0,0-5.562-.259,30.082,30.082,0,0,0-5.561.259" transform="translate(-142.978 0)" fill="#263238"/>
                <path id="Trazado_874227" data-name="Trazado 874227" d="M230.471,171.7a30.085,30.085,0,0,0,5.561.259,30.092,30.092,0,0,0,5.562-.259,30.089,30.089,0,0,0-5.562-.259,30.082,30.082,0,0,0-5.561.259" transform="translate(-172.942 0)" fill="#263238"/>
                <path id="Trazado_874228" data-name="Trazado 874228" d="M245.453,171.7a30.085,30.085,0,0,0,5.561.259,30.091,30.091,0,0,0,5.562-.259,30.089,30.089,0,0,0-5.562-.259,30.082,30.082,0,0,0-5.561.259" transform="translate(-202.906 0)" fill="#263238"/>
                <path id="Trazado_874229" data-name="Trazado 874229" d="M145,125.515a2.218,2.218,0,0,0,.548.052l1.572.049,5.783.082,8.576.056,5.064.015a15.609,15.609,0,0,0,2.715-.118,7.994,7.994,0,0,0,6.195-5.178,7.875,7.875,0,0,0,.476-2.613q0-1.268,0-2.483c-.021-3.21-.039-6.112-.055-8.576-.034-2.386-.062-4.343-.083-5.782-.019-.635-.035-1.155-.048-1.572a2.272,2.272,0,0,0-.052-.548,2.171,2.171,0,0,0-.053.548c-.013.417-.029.937-.048,1.572-.021,1.439-.049,3.4-.083,5.782-.016,2.464-.034,5.366-.055,8.576-.044,1.619.159,3.332-.473,4.923a7.478,7.478,0,0,1-3.311,3.944,7.556,7.556,0,0,1-2.493.9,15.4,15.4,0,0,1-2.629.118l-5.064.015-8.576.056-5.783.082-1.572.049a2.219,2.219,0,0,0-.548.052" transform="translate(-21.812 0)" fill="#263238"/>
                <path id="Trazado_874230" data-name="Trazado 874230" d="M277.462.228V83.615h-88.73V.228Z" transform="translate(-167.071 0)" fill="#fafafa"/>
                <path id="Trazado_874231" data-name="Trazado 874231" d="M277.5.228s-.131-.009-.4-.013L275.89.2,271.15.176,253.121.116,188.769,0h-.227V.228c-.01,24.38-.021,52.958-.033,83.379v.268h.26l88.73-.037h.223v-.223c-.047-25.082-.087-45.948-.114-60.56-.025-7.27-.045-12.982-.058-16.892-.012-1.932-.02-3.415-.026-4.432-.008-1-.025-1.5-.025-1.5s-.017.536-.025,1.552-.014,2.524-.026,4.475c-.013,3.921-.033,9.65-.058,16.942-.027,14.578-.067,35.395-.114,60.418l.223-.223-88.73-.037.261.26v-.008c-.012-30.421-.024-59-.033-83.379l-.228.227L252.975.34,271.056.28l4.783-.026,1.234-.013c.278,0,.426-.013.426-.013" transform="translate(-167.108)" fill="#263238"/>
                <path id="Trazado_874232" data-name="Trazado 874232" d="M232.7,9.679a27.377,27.377,0,1,1-27.377,27.377A27.377,27.377,0,0,1,232.7,9.679m-.413,43.782a16.817,16.817,0,1,0-16.818-16.818A16.818,16.818,0,0,0,232.29,53.461" transform="translate(-166.283 0)" fill="#e0e0e0"/>
                <path id="Trazado_874233" data-name="Trazado 874233" d="M260.077,9.689c0,2.913,0,6.841,0,10.136a16.825,16.825,0,0,0-16.025,21.917l-9.922,2.691A27.367,27.367,0,0,1,260.077,9.689" transform="translate(-194.076 0)" fill="#e0e0e0"/>
                <path id="Trazado_874234" data-name="Trazado 874234" d="M215.294,36.643a16.818,16.818,0,0,0-9.969-15.359l4.211-9.458a27.386,27.386,0,0,1,16.731,25.23c0,.385-.014.767-.03,1.149H215.219c.047-.515.075-1.035.075-1.562" transform="translate(-132.469 0)" fill="#6e3dc6"/>
                <path id="Trazado_874235" data-name="Trazado 874235" d="M253.659,53.461a16.82,16.82,0,0,0,3.558-.381c.423,2.441,1.222,7.168,1.85,10.891a27.354,27.354,0,0,1-31.359-19.538l9.923-2.69a16.824,16.824,0,0,0,16.028,11.718" transform="translate(-187.652 0)" fill="#ebebeb"/>
                <path id="Trazado_874236" data-name="Trazado 874236" d="M210.049,71.341c0,.143,10.143.26,22.653.26s22.655-.117,22.655-.26-10.141-.26-22.655-.26-22.653.117-22.653.26" transform="translate(-166.283 0)" fill="#263238"/>
                <path id="Trazado_874237" data-name="Trazado 874237" d="M220.138,75.5c0,.143,5.626.26,12.564.26s12.566-.117,12.566-.26-5.625-.26-12.566-.26-12.564.117-12.564.26" transform="translate(-166.283 0)" fill="#263238"/>
                <path id="Trazado_874238" data-name="Trazado 874238" d="M230.831,37.494c0,.948-.749,1.855-2.43,1.855a4.272,4.272,0,0,1-2.167-.549l.575-1.187a2.823,2.823,0,0,0,1.544.462c.534,0,.884-.207.884-.581,0-.335-.247-.542-.851-.542h-.661v-1l.995-1.075h-2.2V33.662h4.031v.988L229.4,35.893a1.6,1.6,0,0,1,1.435,1.6" transform="translate(-169.818 0)" fill="#263238"/>
                <path id="Trazado_874239" data-name="Trazado 874239" d="M235.637,37.446c0,1-.748,1.9-2.429,1.9a4.226,4.226,0,0,1-2.159-.549l.566-1.187a2.827,2.827,0,0,0,1.546.462c.533,0,.891-.215.891-.589,0-.343-.23-.566-1.083-.566h-1.514l.28-3.258h3.551v1.219H233.04l-.071.812h.374c1.65,0,2.294.765,2.294,1.753" transform="translate(-169.818 0)" fill="#263238"/>
                <path id="Trazado_874240" data-name="Trazado 874240" d="M235.912,35.136a1.434,1.434,0,1,1,1.426,1.545,1.406,1.406,0,0,1-1.426-1.545m4.724-1.474h1.147l-3.808,5.576h-1.147Zm-2.828,1.474c0-.566-.2-.789-.47-.789-.255,0-.47.223-.47.789s.215.788.47.788c.271,0,.47-.223.47-.788m2.039,2.628a1.434,1.434,0,1,1,1.426,1.545,1.4,1.4,0,0,1-1.426-1.545m1.9,0c0-.565-.207-.788-.47-.788s-.471.223-.471.788.208.789.471.789.47-.223.47-.789" transform="translate(-169.818)" fill="#263238"/>
                <path id="Trazado_874241" data-name="Trazado 874241" d="M168.6,23.33V97.019H90.186V23.33Z" transform="translate(40.341 0)" fill="#fafafa"/>
                <path id="Trazado_874242" data-name="Trazado 874242" d="M168.634,23.33s-.114-.009-.352-.013l-1.067-.013-4.186-.026-15.93-.06L90.223,23.1H90v.228c-.01,21.546-.021,46.8-.033,73.682v.268h.26l78.411-.038h.223v-.223c-.047-22.165-.087-40.607-.114-53.525-.025-6.421-.045-11.466-.058-14.924-.011-1.7-.02-3.013-.026-3.915-.008-.882-.025-1.325-.025-1.325s-.017.476-.025,1.374-.014,2.235-.026,3.957c-.013,3.47-.033,8.532-.058,14.975-.027,12.883-.067,31.277-.114,53.383l.223-.223-78.411-.037.261.26v-.007c-.012-26.882-.024-52.136-.033-73.682l-.228.228,56.731-.116,15.98-.06,4.23-.026,1.092-.013c.246,0,.378-.013.378-.013" transform="translate(40.303 0)" fill="#263238"/>
                <path id="Trazado_874243" data-name="Trazado 874243" d="M129.044,31.682A24.193,24.193,0,1,1,104.85,55.875a24.192,24.192,0,0,1,24.194-24.193m-.365,38.69A14.862,14.862,0,1,0,113.817,55.51a14.862,14.862,0,0,0,14.862,14.862" transform="translate(41.036 0)" fill="#e0e0e0"/>
                <path id="Trazado_874244" data-name="Trazado 874244" d="M153.234,31.691c0,2.574,0,6.046,0,8.957a14.867,14.867,0,0,0-14.16,19.369l-8.769,2.377a24.184,24.184,0,0,1,22.927-30.7" transform="translate(16.476 0)" fill="#be79ca"/>
                <path id="Trazado_874245" data-name="Trazado 874245" d="M113.659,55.51a14.86,14.86,0,0,0-8.81-13.573l3.721-8.358a24.2,24.2,0,0,1,14.786,22.3c0,.34-.012.678-.026,1.015h-9.737c.042-.454.066-.914.066-1.38" transform="translate(70.918 0)" fill="#ebebeb"/>
                <path id="Trazado_874246" data-name="Trazado 874246" d="M147.562,70.372a14.94,14.94,0,0,0,3.144-.336c.374,2.156,1.08,6.334,1.635,9.624a24.174,24.174,0,0,1-27.712-17.266l8.769-2.377a14.866,14.866,0,0,0,14.164,10.355" transform="translate(22.153 0)" fill="#6e3dc6"/>
                <path id="Trazado_874248" data-name="Trazado 874248" d="M109.023,86.173c0,.127,8.964.229,20.019.229s20.02-.1,20.02-.229-8.962-.229-20.02-.229-20.019.1-20.019.229" transform="translate(41.038 0)" fill="#263238"/>
                <path id="Trazado_874249" data-name="Trazado 874249" d="M117.939,89.849c0,.127,4.972.23,11.1.23s11.1-.1,11.1-.23-4.971-.229-11.1-.229-11.1.1-11.1.229" transform="translate(41.038 0)" fill="#263238"/>
                <path id="Trazado_874250" data-name="Trazado 874250" d="M126.141,56.17a1.986,1.986,0,0,1-2.19,1.9,2.435,2.435,0,0,1-2.581-2.747,2.793,2.793,0,0,1,2.963-3.051,3.128,3.128,0,0,1,1.641.406l-.574,1.131a1.723,1.723,0,0,0-1.027-.287,1.308,1.308,0,0,0-1.409,1.3,1.851,1.851,0,0,1,1.257-.414,1.791,1.791,0,0,1,1.92,1.761m-1.529.071a.692.692,0,0,0-.765-.7.708.708,0,1,0,.008,1.41.691.691,0,0,0,.757-.709" transform="translate(39.067 0)" fill="#263238"/>
                <path id="Trazado_874251" data-name="Trazado 874251" d="M126.535,55.174c0-1.84,1.036-2.9,2.462-2.9s2.453,1.059,2.453,2.9-1.036,2.9-2.453,2.9-2.462-1.059-2.462-2.9m3.33,0c0-1.171-.367-1.609-.868-1.609s-.877.438-.877,1.609.367,1.609.877,1.609.868-.438.868-1.609" transform="translate(39.067 0)" fill="#263238"/>
                <path id="Trazado_874252" data-name="Trazado 874252" d="M131.891,53.86a1.434,1.434,0,1,1,1.426,1.545,1.406,1.406,0,0,1-1.426-1.545m4.724-1.474h1.147l-3.808,5.576h-1.147Zm-2.828,1.474c0-.566-.2-.789-.47-.789-.255,0-.47.223-.47.789s.215.788.47.788c.271,0,.47-.223.47-.788m2.039,2.628a1.434,1.434,0,1,1,1.426,1.545,1.4,1.4,0,0,1-1.426-1.545m1.9,0c0-.566-.207-.789-.47-.789s-.47.223-.47.789.207.788.47.788.47-.223.47-.788" transform="translate(39.067 0)" fill="#263238"/>
              </g>
            </g>
            <g id="Grupo_1101112" data-name="Grupo 1101112">
              <g id="Grupo_1101111" data-name="Grupo 1101111" clip-path="url(#clip-path-2)">
                <path id="Trazado_874253" data-name="Trazado 874253" d="M26.956,374.646l26.971,22.121-27.351,33.7c-3.058-2.81,4.628-25.488,4.628-25.488L13.342,391.511Z" transform="translate(231.854 0)" fill="#455a64"/>
                <g id="Grupo_1101095" data-name="Grupo 1101095" transform="translate(269.388 393.069)" opacity="0.6">
                  <g id="Grupo_1101094" data-name="Grupo 1101094" transform="translate(0)">
                    <g id="Grupo_1101093" data-name="Grupo 1101093" transform="translate(0)" clip-path="url(#clip-path-5)">
                      <path id="Trazado_874254" data-name="Trazado 874254" d="M27.064,393.372a1.773,1.773,0,0,1,2.343.323,1.7,1.7,0,0,1-.3,2.325,1.869,1.869,0,0,1-2.479-.355,1.768,1.768,0,0,1,.58-2.384" transform="translate(-26.398 -393.069)" fill="#fff"/>
                    </g>
                  </g>
                </g>
                <g id="Grupo_1101098" data-name="Grupo 1101098" transform="translate(257.771 394.429)" opacity="0.6">
                  <g id="Grupo_1101097" data-name="Grupo 1101097" transform="translate(0)">
                    <g id="Grupo_1101096" data-name="Grupo 1101096" clip-path="url(#clip-path-6)">
                      <path id="Trazado_874255" data-name="Trazado 874255" d="M41.351,396.676l-2.713-2.246L13.575,427.836s-.553,2.034.647,2.714Z" transform="translate(-13.448 -394.43)" fill="#fff"/>
                    </g>
                  </g>
                </g>
                <path id="Trazado_874256" data-name="Trazado 874256" d="M32.323,405.383c.169.128.911-.634,2.1-1.014,1.176-.412,2.227-.25,2.285-.455.091-.177-1.092-.73-2.52-.245s-2.043,1.627-1.863,1.714" transform="translate(230.12 0)" fill="#263238"/>
                <path id="Trazado_874257" data-name="Trazado 874257" d="M33.809,410.1c.129.167.987-.319,2.137-.312,1.149-.028,2.017.442,2.142.272.152-.134-.72-1.03-2.149-1.01s-2.284.919-2.13,1.05" transform="translate(227.227 0)" fill="#263238"/>
                <path id="Trazado_874258" data-name="Trazado 874258" d="M39.338,415.545c.157-.121-.48-1.017-1.724-1.326s-2.227.169-2.147.35c.06.2.949.1,1.967.365,1.023.245,1.755.761,1.9.611" transform="translate(224.299 0)" fill="#263238"/>
                <path id="Trazado_874259" data-name="Trazado 874259" d="M37.45,401.863c.206.053.592-.886,1.41-1.765.8-.9,1.7-1.366,1.628-1.566-.042-.192-1.224.02-2.173,1.069s-1.06,2.238-.865,2.262" transform="translate(221.263 0)" fill="#263238"/>
                <path id="Trazado_874260" data-name="Trazado 874260" d="M41.6,397.815c.066.057.7-.511,1.361-1.7a9.757,9.757,0,0,0,.891-2.2,10.228,10.228,0,0,0,.272-1.387,2.68,2.68,0,0,0,.017-.831.923.923,0,0,0-.814-.786,1.162,1.162,0,0,0-.962.415,2.848,2.848,0,0,0-.426.7,7.655,7.655,0,0,0-.733,3.726,3.615,3.615,0,0,0,.565,2.1c.115-.03-.092-.829-.044-2.109a8.7,8.7,0,0,1,.374-2.194,8.116,8.116,0,0,1,.488-1.211c.2-.433.44-.739.673-.7.087.015.115.031.159.19a2.2,2.2,0,0,1-.015.61,11.319,11.319,0,0,1-.214,1.3,12.042,12.042,0,0,1-.7,2.139,15.1,15.1,0,0,0-.893,1.925" transform="translate(213.77 0)" fill="#263238"/>
                <path id="Trazado_874261" data-name="Trazado 874261" d="M49.952,397.793c.073-.038-.252-.843-1.268-1.768a7.016,7.016,0,0,0-3.409-1.671,1.793,1.793,0,0,0-1.725.385,1.013,1.013,0,0,0-.1,1.086,2.95,2.95,0,0,0,.478.676,4.845,4.845,0,0,0,1.136.924,5,5,0,0,0,2.328.694c1.408.05,2.162-.477,2.117-.536a17.657,17.657,0,0,1-2.069.016,5,5,0,0,1-2.019-.753,4.492,4.492,0,0,1-.95-.822c-.315-.344-.495-.712-.35-.817a1.245,1.245,0,0,1,1.032-.142,7.282,7.282,0,0,1,1.254.325,7.826,7.826,0,0,1,1.95,1.04c1.026.756,1.5,1.432,1.6,1.363" transform="translate(205.824 0)" fill="#263238"/>
                <path id="Trazado_874262" data-name="Trazado 874262" d="M71.819,392.715,71.492,427.6l-43.4-.184c.272-4.145,22.759-12.373,22.759-12.373l-.707-22.357Z" transform="translate(199.211 0)" fill="#455a64"/>
                <g id="Grupo_1101101" data-name="Grupo 1101101" transform="translate(261.365 413.141)" opacity="0.6">
                  <g id="Grupo_1101100" data-name="Grupo 1101100" transform="translate(0)">
                    <g id="Grupo_1101099" data-name="Grupo 1101099" transform="translate(0)" clip-path="url(#clip-path-7)">
                      <path id="Trazado_874263" data-name="Trazado 874263" d="M36.5,413.216a1.773,1.773,0,0,1,1.217,2.028,1.7,1.7,0,0,1-2,1.224,1.87,1.87,0,0,1-1.278-2.154,1.768,1.768,0,0,1,2.221-1.043" transform="translate(-34.376 -413.141)" fill="#fff"/>
                    </g>
                  </g>
                </g>
                <g id="Grupo_1101104" data-name="Grupo 1101104" transform="translate(227.292 423.934)" opacity="0.6">
                  <g id="Grupo_1101103" data-name="Grupo 1101103" transform="translate(0)">
                    <g id="Grupo_1101102" data-name="Grupo 1101102" transform="translate(0)" clip-path="url(#clip-path-8)">
                      <path id="Trazado_874264" data-name="Trazado 874264" d="M71.782,427.457l.049-3.522-41.74,1.415s-1.93.845-1.708,2.206Z" transform="translate(-28.365 -423.935)" fill="#fff"/>
                    </g>
                  </g>
                </g>
                <path id="Trazado_874265" data-name="Trazado 874265" d="M45.818,414.815c.006.212,1.065.313,2.1,1,1.058.658,1.591,1.578,1.787,1.495.195-.04-.115-1.308-1.389-2.116s-2.548-.573-2.5-.378" transform="translate(203.543 0)" fill="#263238"/>
                <path id="Trazado_874266" data-name="Trazado 874266" d="M51.459,416.679c-.049.205.867.57,1.583,1.469.742.878.92,1.848,1.131,1.84.2.034.351-1.207-.561-2.308s-2.148-1.2-2.153-1" transform="translate(193.342 0)" fill="#263238"/>
                <path id="Trazado_874267" data-name="Trazado 874267" d="M58.354,422.116c.192.046.492-1.012-.047-2.174s-1.529-1.629-1.619-1.454c-.121.174.52.8.948,1.761.451.951.508,1.845.718,1.867" transform="translate(183.838 0)" fill="#263238"/>
                <path id="Trazado_874268" data-name="Trazado 874268" d="M44.854,409.7c.088.194,1.062-.1,2.259-.008,1.2.062,2.13.468,2.241.287.123-.153-.784-.941-2.195-1.024s-2.408.578-2.305.745" transform="translate(204.911 0)" fill="#263238"/>
                <path id="Trazado_874269" data-name="Trazado 874269" d="M41.692,404.558a4.071,4.071,0,0,0,2.174,0,9.73,9.73,0,0,0,2.276-.689,10.2,10.2,0,0,0,1.252-.657,2.653,2.653,0,0,0,.658-.508.923.923,0,0,0,.1-1.127,1.163,1.163,0,0,0-.927-.489,2.839,2.839,0,0,0-.815.11,7.823,7.823,0,0,0-1.354.457,7.681,7.681,0,0,0-2.009,1.307c-1.011.928-1.358,1.719-1.286,1.76.1.07.589-.591,1.616-1.356a8.661,8.661,0,0,1,1.944-1.084,8.023,8.023,0,0,1,1.249-.38c.46-.119.852-.12.968.085.043.078.048.109-.048.243a2.181,2.181,0,0,1-.484.371,11.449,11.449,0,0,1-1.151.652,12.1,12.1,0,0,1-2.1.8,15.005,15.005,0,0,0-2.06.511" transform="translate(209.128 0)" fill="#263238"/>
                <path id="Trazado_874270" data-name="Trazado 874270" d="M50.266,404.863a3.46,3.46,0,0,0,.582-2.1,7.073,7.073,0,0,0-.286-2.381,7.207,7.207,0,0,0-.548-1.322,1.8,1.8,0,0,0-1.382-1.1,1.017,1.017,0,0,0-.911.6,2.967,2.967,0,0,0-.226.8,4.861,4.861,0,0,0-.008,1.464,5,5,0,0,0,.919,2.249c.843,1.128,1.727,1.385,1.745,1.314.071-.106-.666-.519-1.31-1.6a5,5,0,0,1-.679-2.045,4.481,4.481,0,0,1,.045-1.256c.07-.461.245-.832.417-.785.216,0,.581.347.757.716a7.28,7.28,0,0,1,.534,1.18,7.851,7.851,0,0,1,.412,2.171c.054,1.274-.176,2.066-.061,2.1" transform="translate(200.829 0)" fill="#263238"/>
                <path id="Trazado_874271" data-name="Trazado 874271" d="M51.135,190.655s6.081,6.512,9.068,12.753,4.9,21.131,4.9,21.131,8.4,18.707,7.123,28.278-9.829,75.027-9.829,75.027.423,63.632-5.635,74.978l-1.352,6.123L30.941,404.6l.153-3.672L25.315,276.161l-14.723-84.94Z" transform="translate(216.176 0)" fill="#263238"/>
                <path id="Trazado_874272" data-name="Trazado 874272" d="M46.4,209.208s-14.628,80.534-15.918,94.517,48.5,87.68,48.5,87.68l22.768-23.71L69.07,306.952l10.621-61.217L64.916,191.646,49.4,192.19Z" transform="translate(166.923 0)" fill="#263238"/>
                <path id="Trazado_874273" data-name="Trazado 874273" d="M62.959,383.011a16.78,16.78,0,0,1-.175,1.781c-.149,1.167-.436,2.883-.842,5.1-.814,4.432-2.133,10.859-3.905,18.888l-.037.166-.17-.029-24.475-4.29-.185-.032-.008-.189c-.68-16.792-1.494-36.863-2.366-58.387-.9-23.159-1.74-44.634-2.427-62.251l0,.02c-1.835-14.153-3.352-25.857-4.413-34.046l-1.191-9.464q-.192-1.609-.3-2.487c-.063-.563-.078-.855-.078-.855s.061.286.147.846q.127.873.362,2.478c.306,2.2.749,5.386,1.314,9.447,1.108,8.184,2.691,19.879,4.606,34.022v.021c.715,17.616,1.586,39.089,2.525,62.247.841,21.525,1.625,41.6,2.281,58.391l-.193-.221,24.456,4.4-.206.137c1.818-8.015,3.191-14.429,4.064-18.846.435-2.208.753-3.917.935-5.077.1-.579.156-1.021.2-1.318s.076-.448.076-.448" transform="translate(213.771 0)" fill="#455a64"/>
                <path id="Trazado_874274" data-name="Trazado 874274" d="M12.7,54.82c-.732-4.27,2.524-8.571,6.657-9.87s8.752-.029,12.305,2.45c2.644,1.844,4.831,4.323,7.63,5.924,2.545,1.457,5.487,2.122,8,3.632a13.867,13.867,0,0,1,6.6,11.4c.062,3.185-.954,6.583.472,9.431,1.552,3.1,5.465,4.376,7.235,7.357,1.6,2.7,1.079,6.125.313,9.172s-1.725,6.252-.837,9.267c.808,2.745,3.019,4.842,4.253,7.424a11.639,11.639,0,0,1-4.788,14.706L34.264,115.045Z" transform="translate(220.196 0)" fill="#263238"/>
                <path id="Trazado_874275" data-name="Trazado 874275" d="M74.209,53.133c-4.048-.384-7.727,2.832-9.295,6.583s-1.523,7.948-1.583,12.014-.3,8.312-2.324,11.836c-1.064,1.852-2.571,3.4-3.793,5.155a8.8,8.8,0,0,0-1.908,5.961c.5,3.848,4.719,6.218,5.784,9.947.863,3.023-.525,6.311.169,9.378a9.4,9.4,0,0,0,4.317,5.609A25.217,25.217,0,0,0,72.3,122.3l13.187-10.2L82.279,52.3Z" transform="translate(158.379 0)" fill="#263238"/>
                <path id="Trazado_874276" data-name="Trazado 874276" d="M74.985,73.456,73.413,115.88A12.629,12.629,0,0,1,59.7,127.994a12.232,12.232,0,0,1-11.139-12.977c.122-3.193.054-6.973.045-7.3,0,0-10.628-2.387-11.011-13.1-.186-5.18-.062-13.884.49-23.558A19.978,19.978,0,0,1,57.571,52.231l1.034-.024c11.17.39,17.079,10.094,16.38,21.249" transform="translate(186.565 0)" fill="#ffbe9d"/>
                <path id="Trazado_874277" data-name="Trazado 874277" d="M50.11,107.768a24.94,24.94,0,0,0,13.884-4.3s-3.123,7.793-13.844,7.079Z" transform="translate(185.019 0)" fill="#eb996e"/>
                <path id="Trazado_874278" data-name="Trazado 874278" d="M68.843,80.562a1.532,1.532,0,0,0,1.513,1.51A1.464,1.464,0,0,0,71.9,80.654a1.531,1.531,0,0,0-1.51-1.511,1.468,1.468,0,0,0-1.548,1.419" transform="translate(158.379 0)" fill="#263238"/>
                <path id="Trazado_874279" data-name="Trazado 874279" d="M66.1,76.949c.194.195,1.334-.691,2.982-.725,1.645-.058,2.874.762,3.048.556.086-.092-.116-.448-.651-.818a4.194,4.194,0,0,0-2.446-.692,4.034,4.034,0,0,0-2.368.826c-.5.4-.661.766-.565.853" transform="translate(160.908 0)" fill="#263238"/>
                <path id="Trazado_874280" data-name="Trazado 874280" d="M53.221,80.562a1.532,1.532,0,0,0,1.513,1.51,1.463,1.463,0,0,0,1.545-1.417,1.531,1.531,0,0,0-1.511-1.511,1.466,1.466,0,0,0-1.547,1.418" transform="translate(189.623 0)" fill="#263238"/>
                <path id="Trazado_874281" data-name="Trazado 874281" d="M50.342,77.182c.195.195,1.336-.69,2.983-.724,1.645-.058,2.874.761,3.048.555.085-.092-.114-.447-.652-.818a4.2,4.2,0,0,0-2.446-.692,4.044,4.044,0,0,0-2.368.826c-.5.4-.66.766-.565.853" transform="translate(192.415 0)" fill="#263238"/>
                <path id="Trazado_874282" data-name="Trazado 874282" d="M65.308,88.546a10.893,10.893,0,0,0-2.687-.42c-.422-.034-.822-.108-.9-.394a2.147,2.147,0,0,1,.252-1.253l1.169-3.233c1.621-4.6,2.784-8.381,2.6-8.445s-1.651,3.614-3.272,8.216c-.389,1.135-.762,2.216-1.116,3.251a2.433,2.433,0,0,0-.179,1.656,1.052,1.052,0,0,0,.706.6,2.871,2.871,0,0,0,.717.083,10.742,10.742,0,0,0,2.712-.06" transform="translate(172.281 0)" fill="#263238"/>
                <path id="Trazado_874283" data-name="Trazado 874283" d="M48.318,70.714c.185.439,1.818.145,3.76.28,1.946.1,3.532.583,3.768.169.1-.2-.189-.605-.84-1.007a4.721,4.721,0,0,0-2.989-.75,5.676,5.676,0,0,0-2.746.408c-.694.322-1.034.691-.953.9" transform="translate(194.95 0)" fill="#263238"/>
                <path id="Trazado_874284" data-name="Trazado 874284" d="M66.259,70.652c.343.371,1.667-.032,3.264-.068,1.595-.084,2.952.22,3.259-.176.134-.191-.083-.564-.678-.911a5.1,5.1,0,0,0-2.66-.585,5.023,5.023,0,0,0-2.6.781c-.559.39-.741.778-.589.959" transform="translate(160.095 0)" fill="#263238"/>
                <path id="Trazado_874285" data-name="Trazado 874285" d="M57.013,93.819a3.785,3.785,0,0,1,.335-.958,2.351,2.351,0,0,1,1.882-1.143,2.981,2.981,0,0,1,2.108.749,2.337,2.337,0,0,1,.825,1.765,1.285,1.285,0,0,1-.127.521,3.12,3.12,0,0,1-2.207,1.838,2.606,2.606,0,0,1-2.618-1.049,1.811,1.811,0,0,1-.306-.8,2.761,2.761,0,0,1,.108-.919" transform="translate(180.063 0)" fill="#eb996e"/>
                <path id="Trazado_874286" data-name="Trazado 874286" d="M39.173,87.762a.1.1,0,1,1-.018.008.073.073,0,0,1,.088.007" transform="translate(220.707 0)" fill="#263238"/>
                <path id="Trazado_874287" data-name="Trazado 874287" d="M39.329,87.3a.1.1,0,1,1-.018.008.073.073,0,0,1,.088.007" transform="translate(220.395 0)" fill="#263238"/>
                <path id="Trazado_874288" data-name="Trazado 874288" d="M56.619,94.55c-.022.125.42.365,1.212.483a5.323,5.323,0,0,0,3.125-.457,4.737,4.737,0,0,0,2.216-2.281c.335-.74.348-1.248.224-1.293-.291-.146-1.013,1.714-2.9,2.644a7.429,7.429,0,0,1-2.642.655c-.728.073-1.21.092-1.235.249" transform="translate(179.037 0)" fill="#263238"/>
                <path id="Trazado_874289" data-name="Trazado 874289" d="M65.093,82.751C67.548,74.1,66.3,64.214,60.778,57.119S45.247,46.367,36.748,49.3a7.977,7.977,0,0,0-3.265,1.889,3.711,3.711,0,0,0-1.013,3.493c.571,1.916,2.884,2.677,4.881,2.767s4.14-.162,5.864.85c3.044,1.786,2.973,6.264,5.136,9.053,1.064,1.372,2.648,2.291,3.613,3.735,2.607,3.9.451,6.247,2.121,10.633.463,1.216,2.578,2.326,3.868,2.5s.263.159,3.015-.141Z" transform="translate(200.478 0)" fill="#263238"/>
                <path id="Trazado_874290" data-name="Trazado 874290" d="M34.006,84.223c.177-.088,7.2-2.545,7.343,4.739s-7.194,5.931-7.211,5.722-.132-10.461-.132-10.461" transform="translate(223.766 0)" fill="#ffbe9d"/>
                <path id="Trazado_874291" data-name="Trazado 874291" d="M35.859,91.879c.032-.024.129.086.345.18a1.271,1.271,0,0,0,.949,0,3.138,3.138,0,0,0,1.4-2.846,4.2,4.2,0,0,0-.392-1.81,1.465,1.465,0,0,0-.974-.954.646.646,0,0,0-.742.363c-.093.205-.044.35-.082.363-.021.019-.159-.119-.107-.421a.809.809,0,0,1,.277-.462.961.961,0,0,1,.7-.2,1.785,1.785,0,0,1,1.349,1.1,4.3,4.3,0,0,1,.481,2.021c-.017,1.468-.74,2.857-1.787,3.183a1.36,1.36,0,0,1-1.164-.169c-.229-.175-.271-.337-.246-.351" transform="translate(224.214 0)" fill="#eb996e"/>
                <path id="Trazado_874292" data-name="Trazado 874292" d="M55.935,70a14.09,14.09,0,0,1-4.914,1.1,15.9,15.9,0,0,1-5.383-.842,24.875,24.875,0,0,1-5.965-3.068c-1.985-1.345-3.766-2.791-5.406-4.088s-3.142-2.445-4.463-3.325a26.909,26.909,0,0,0-3.252-1.885,5.641,5.641,0,0,0-1.28-.513,9.063,9.063,0,0,0,1.187.691A36.688,36.688,0,0,1,29.6,60.08c1.283.911,2.754,2.076,4.373,3.4s3.4,2.782,5.414,4.145a24.287,24.287,0,0,0,6.107,3.092,15.582,15.582,0,0,0,5.546.754,11.284,11.284,0,0,0,3.685-.811,7.4,7.4,0,0,0,.919-.456c.2-.119.3-.188.3-.2" transform="translate(217.916 0)" fill="#455a64"/>
                <path id="Trazado_874293" data-name="Trazado 874293" d="M44.638,70.681c-.046-.074-1.044.531-2.74,1.321a31.418,31.418,0,0,1-14.162,2.95c-1.87-.047-3.026-.2-3.039-.117a2.574,2.574,0,0,0,.8.208,18.692,18.692,0,0,0,2.224.275A27.143,27.143,0,0,0,42.06,72.331a18.505,18.505,0,0,0,1.929-1.141c.437-.3.668-.479.649-.509" transform="translate(229.787 0)" fill="#455a64"/>
                <path id="Trazado_874294" data-name="Trazado 874294" d="M71.733,66.287A7.034,7.034,0,0,0,77.2,61.662a31.547,31.547,0,0,1-2.436,2.665,31.378,31.378,0,0,1-3.033,1.96" transform="translate(150.173 0)" fill="#455a64"/>
                <path id="Trazado_874295" data-name="Trazado 874295" d="M74.717,73.352c-.086.11.309.546.974.773s1.243.13,1.243-.01-.495-.277-1.074-.48-1.057-.4-1.143-.283" transform="translate(147.484 0)" fill="#455a64"/>
                <path id="Trazado_874296" data-name="Trazado 874296" d="M149.594,161.732a11.255,11.255,0,0,0-1.736-6.327c-1.9-2.585-5.948-3.768-6.3-5.573s-3.445-5.413-4.934-4.577-2.164,2.784.038,5.033a36.495,36.495,0,0,1,3.864,4.768s-19.346-3.348-20.761-3.1-2.829.491-2.836,1.682,3.746,1.52,3.746,1.52l6.3,4.381a26.636,26.636,0,0,0,5.086,5.25,17.93,17.93,0,0,0,7.063,2.508l6.694,4.279s6.536-4.846,3.769-9.841" transform="translate(31.914 0)" fill="#ffbe9d"/>
                <path id="Trazado_874297" data-name="Trazado 874297" d="M135.928,155.3c.035.016.116-.145.337-.353a2.077,2.077,0,0,1,1.132-.52,6.956,6.956,0,0,1,4.064,1.2,18.436,18.436,0,0,1,3.366,2.814,7.969,7.969,0,0,0,1.354,1.264,6.555,6.555,0,0,0-1.1-1.493,14.575,14.575,0,0,0-3.366-2.993,6.606,6.606,0,0,0-4.374-1.127,2.05,2.05,0,0,0-1.21.728c-.2.275-.223.469-.2.477" transform="translate(17.019 0)" fill="#eb996e"/>
                <path id="Trazado_874298" data-name="Trazado 874298" d="M133.486,155.528a9.8,9.8,0,0,0,2.908.869,9.813,9.813,0,0,0,3.009.4,9.749,9.749,0,0,0-2.908-.869,9.771,9.771,0,0,0-3.009-.4" transform="translate(26.234 0)" fill="#eb996e"/>
                <path id="Trazado_874299" data-name="Trazado 874299" d="M133.9,156.451a4.476,4.476,0,0,0-4.462,3.272,15.632,15.632,0,0,1,1.948-2.022,15.465,15.465,0,0,1,2.514-1.25" transform="translate(35.797 0)" fill="#eb996e"/>
                <path id="Trazado_874300" data-name="Trazado 874300" d="M124.774,118.825s-9.5,4.831-11.809,11.2c-1.214,3.348-8.4,39-8.4,39L90.1,159.2,80.3,173.93l23.138,18.014a21.469,21.469,0,0,0,13.6-.979c1.576-.67,2.84-1.444,3.141-2.271.938-2.57,4.589-69.869,4.589-69.869" transform="translate(94.047 0)" fill="#75baf1"/>
                <g id="Grupo_1101107" data-name="Grupo 1101107" transform="translate(198.554 168.974)" opacity="0.3">
                  <g id="Grupo_1101106" data-name="Grupo 1101106" transform="translate(0)">
                    <g id="Grupo_1101105" data-name="Grupo 1101105" transform="translate(0)" clip-path="url(#clip-path-9)">
                      <path id="Trazado_874301" data-name="Trazado 874301" d="M98.82,174.917c1.585,2.4,2.332,5.538,1.214,8.185a1.366,1.366,0,0,1-.431.622,1.065,1.065,0,0,1-1.415-.453,3.423,3.423,0,0,1-.336-1.612,20.68,20.68,0,0,0-5.216-12.546v-.139a25.873,25.873,0,0,1,6.185,5.943" transform="translate(-92.634 -168.974)"/>
                    </g>
                  </g>
                </g>
                <path id="Trazado_874302" data-name="Trazado 874302" d="M89.1,123.57l-27.455-8.9c-5.332,14.179-22.514,11.766-23.389.352L21.95,118.943s-5.456,34.619-4.135,41.813c2.127,11.57-3.213,49.137-6.045,62.648-2.455,11.7,4.716,18.659,8.318,21.842,18.335,16.2,27.85,14.024,41.268,5.608a191.234,191.234,0,0,1,29.627-14.581c-1.33-15.672-10.016-31.938-15.6-43.7l2.545-27.334Z" transform="translate(196.871 0)" fill="#75baf1"/>
                <path id="Trazado_874303" data-name="Trazado 874303" d="M78.813,219.283a5.053,5.053,0,0,0,.232-.8c.131-.53.333-1.31.558-2.323.466-2.022,1.084-4.961,1.718-8.618s1.244-8.038,1.7-12.925.731-10.281.808-15.942.166-11.045.538-15.925A84.666,84.666,0,0,1,86.184,149.9a54.124,54.124,0,0,1,2.576-8.36c.357-.972.733-1.684.935-2.192a5.1,5.1,0,0,0,.307-.776,4.963,4.963,0,0,0-.4.731c-.233.494-.64,1.195-1.027,2.159a49.511,49.511,0,0,0-2.746,8.354,81.361,81.361,0,0,0-1.933,12.9c-.4,4.9-.5,10.3-.58,15.954s-.339,11.03-.765,15.907-1,9.252-1.59,12.908-1.149,6.6-1.555,8.636q-.29,1.47-.462,2.342a5.105,5.105,0,0,0-.13.824" transform="translate(130.31 0)" fill="#263238"/>
                <g id="Grupo_1101110" data-name="Grupo 1101110" transform="translate(245.727 197.564)" opacity="0.3">
                  <g id="Grupo_1101109" data-name="Grupo 1101109" transform="translate(0)">
                    <g id="Grupo_1101108" data-name="Grupo 1101108" clip-path="url(#clip-path-10)">
                      <path id="Trazado_874304" data-name="Trazado 874304" d="M15.277,197.747c5.767-.275,11.718-.524,17.13,1.484,8.24,3.057,13.758,10.732,20.99,15.725l-.681.244a19.954,19.954,0,0,1-21.453-1.333c-2.988-2.256-5.4-5.417-8.9-6.758-1.527-.586-3.206-.8-4.622-1.615a6.256,6.256,0,0,1-2.466-7.747" transform="translate(-14.774 -197.564)"/>
                    </g>
                  </g>
                </g>
                <path id="Trazado_874305" data-name="Trazado 874305" d="M25,123.656a16.42,16.42,0,0,1,6.954,7.9c1.873,4.521,6.963,65.439,6.1,69.34s-4.94,9.748-11.7,12.785c-5.683,2.552-20.38-3.643-26.331-5.833-.19-.07,1.332-2.357,1.937-3.886L7.062,187.9l8.082.879-3-30.218Z" transform="translate(260.975 0)" fill="#75baf1"/>
                <path id="Trazado_874306" data-name="Trazado 874306" d="M26.338,144.139a11.188,11.188,0,0,0-.413,1.695c-.213,1.1-.475,2.706-.731,4.7-.518,3.98-.995,9.5-1.444,15.6-.429,6.059-.817,11.54-1.1,15.618-.162,1.93-.3,3.524-.4,4.725a11.4,11.4,0,0,0-.123,1.738,11.038,11.038,0,0,0,.323-1.714c.162-1.11.36-2.722.561-4.717.406-3.99.813-9.513,1.257-15.612s.867-11.613,1.291-15.593c.209-1.991.415-3.6.566-4.705a11.214,11.214,0,0,0,.214-1.729" transform="translate(250.662 0)" fill="#263238"/>
                <path id="Trazado_874307" data-name="Trazado 874307" d="M6.542,187.3a17.14,17.14,0,0,0,2.627.548c1.662.293,4.014.681,6.765,1.114l.071.011.068-.031a12.516,12.516,0,0,1,4.585-1.09,12.368,12.368,0,0,1,5.354.942,12.9,12.9,0,0,1,3.748,2.434,19.265,19.265,0,0,1,2.611,3.243,3.578,3.578,0,0,0-.467-1.038,11.7,11.7,0,0,0-1.89-2.468,12.61,12.61,0,0,0-3.813-2.61,12.64,12.64,0,0,0-10.333.144l.139-.02c-2.756-.4-5.118-.719-6.793-.929a17.246,17.246,0,0,0-2.672-.25" transform="translate(260.207 0)" fill="#263238"/>
                <path id="Trazado_874308" data-name="Trazado 874308" d="M13.494,204.015a4.985,4.985,0,0,0-.608.956L11.365,207.7l-.1.17.189.073c2.747,1.068,6.8,2.594,11.316,4.256,1.356.5,2.671.977,3.9,1.427l.148-.478-.024,0-.011,0-.006,0h-.005l-.123.485.047.012.023.006.011,0h.01l.124-.484h0l-.045-.012-.142.479a18.382,18.382,0,0,0,11.038.226,3.428,3.428,0,0,0,.849-.314c-.019-.078-1.239.3-3.345.539a19.146,19.146,0,0,1-8.382-.924l-.141.478.045.012h0l.124-.484H26.86l-.011,0-.023-.006-.046-.012h0l-.123.485h0l.006,0,.012,0,.023.006.149-.478-3.9-1.443c-4.518-1.663-8.591-3.127-11.375-4.1l.093.243q.829-1.683,1.381-2.8a5.008,5.008,0,0,0,.441-1.044" transform="translate(249.283 0)" fill="#263238"/>
                <path id="Trazado_874309" data-name="Trazado 874309" d="M96.007,168.861a39.5,39.5,0,0,1,2.782,3.638c1.279,2.173,1.764,4.212,1.928,4.166a9.311,9.311,0,0,0-1.482-4.43,8.468,8.468,0,0,0-3.228-3.374" transform="translate(102.38 0)" fill="#263238"/>
                <path id="Trazado_874310" data-name="Trazado 874310" d="M67.144,58.046c-.007.07-.006.138-.007.207v0Z" transform="translate(164.843 0)" fill="#263238"/>
                <path id="Trazado_874311" data-name="Trazado 874311" d="M45.894,201.161a24.669,24.669,0,0,0,1.358-10.269,39.631,39.631,0,0,0-.72,5.129,39.637,39.637,0,0,0-.638,5.14" transform="translate(205.877 0)" fill="#455a64"/>
                <path id="Trazado_874312" data-name="Trazado 874312" d="M24.25,94.667,48.673,119.73a17.777,17.777,0,0,0-.465,17.5l-20.393.656-.123-5.5a7.1,7.1,0,0,1-4.866,4.809c-3.1.884-6.4.063-9.5-.8A191.71,191.71,0,0,0,24.25,94.667" transform="translate(237.124 0)" fill="#263238"/>
                <path id="Trazado_874313" data-name="Trazado 874313" d="M82.658,147.177c0,.731.145,45.379.145,45.379l-37.85,1.258-1.886-45.155Z" transform="translate(173.253 0)" fill="#ebebeb"/>
                <path id="Trazado_874314" data-name="Trazado 874314" d="M84.551,143.84c0,.914,5.248,54.349,5.248,54.349l-41.057-.982-6.9-53.367Z" transform="translate(167.486 0)" fill="#f5f5f5"/>
                <path id="Trazado_874315" data-name="Trazado 874315" d="M52.968,154.623c0,.143,7.038.259,15.718.259s15.719-.116,15.719-.259-7.036-.259-15.719-.259-15.718.116-15.718.259" transform="translate(161.75 0)" fill="#263238"/>
                <path id="Trazado_874316" data-name="Trazado 874316" d="M52.577,158.138c0,.143,7.038.259,15.718.259s15.719-.116,15.719-.259-7.036-.259-15.719-.259-15.718.116-15.718.259" transform="translate(162.532 0)" fill="#263238"/>
                <path id="Trazado_874317" data-name="Trazado 874317" d="M51.874,162.592c0,.143,7.038.259,15.718.259s15.719-.116,15.719-.259-7.036-.259-15.719-.259-15.718.116-15.718.259" transform="translate(163.938 0)" fill="#263238"/>
                <path id="Trazado_874318" data-name="Trazado 874318" d="M51.127,166.576c0,.143,7.038.259,15.718.259s15.719-.116,15.719-.259-7.036-.259-15.719-.259-15.718.116-15.718.259" transform="translate(165.432 0)" fill="#263238"/>
                <path id="Trazado_874319" data-name="Trazado 874319" d="M51.127,170.561c0,.143,7.038.259,15.718.259s15.719-.116,15.719-.259-7.036-.259-15.719-.259-15.718.116-15.718.259" transform="translate(165.432 0)" fill="#263238"/>
                <path id="Trazado_874320" data-name="Trazado 874320" d="M50.751,174.743c0,.143,7.038.259,15.718.259s15.719-.116,15.719-.259-7.036-.259-15.719-.259-15.718.116-15.718.259" transform="translate(166.184 0)" fill="#263238"/>
                <path id="Trazado_874321" data-name="Trazado 874321" d="M50.375,178.926c0,.143,7.039.259,15.719.259s15.719-.116,15.719-.259-7.036-.259-15.719-.259-15.719.116-15.719.259" transform="translate(166.935 0)" fill="#263238"/>
                <path id="Trazado_874322" data-name="Trazado 874322" d="M50,183.108c0,.143,7.038.259,15.718.259s15.719-.116,15.719-.259-7.036-.259-15.719-.259S50,182.965,50,183.108" transform="translate(167.686 0)" fill="#263238"/>
                <path id="Trazado_874323" data-name="Trazado 874323" d="M49.624,187.291c0,.143,7.038.259,15.718.259s15.719-.116,15.719-.259-7.036-.259-15.719-.259-15.718.116-15.718.259" transform="translate(168.438 0)" fill="#263238"/>
                <path id="Trazado_874324" data-name="Trazado 874324" d="M49.248,191.474c0,.143,7.038.259,15.718.259s15.719-.116,15.719-.259-7.036-.259-15.719-.259-15.718.116-15.718.259" transform="translate(169.19 0)" fill="#263238"/>
                <path id="Trazado_874325" data-name="Trazado 874325" d="M55.378,192.471s-3.269-7.218-3.95-7.627-12.377-1.742-14.708-1.77c-2.518-.031-6.4.071-7.047,1.3-.475.9-.035,2.24,1.871,2.512,0,0-2.607-.136-2.325,1.5s6.139,4.631,6.139,4.631-1.09,1.225,1.089,3.541l.954,1.225s-.409,2.18.817,3.133,9.019,3.669,9.019,3.669l2.966-.945,1.906.945s6.212-6.04,3.269-12.113" transform="translate(213.756 0)" fill="#ffbe9d"/>
                <path id="Trazado_874326" data-name="Trazado 874326" d="M36.346,186.562a13.467,13.467,0,0,0,2.609.928c1.635.495,3.917,1.109,6.463,1.673s4.875.969,6.567,1.209a13.394,13.394,0,0,0,2.757.26,16.163,16.163,0,0,0-2.695-.621c-1.672-.332-3.979-.794-6.517-1.354s-4.823-1.117-6.479-1.521a16.2,16.2,0,0,0-2.705-.574" transform="translate(208.035 0)" fill="#eb996e"/>
                <path id="Trazado_874327" data-name="Trazado 874327" d="M38.567,193.231a18.485,18.485,0,0,0,5.467,1.852,18.471,18.471,0,0,0,5.743.577c.011-.153-2.547-.408-5.634-1.084s-5.523-1.488-5.576-1.345" transform="translate(210.78 0)" fill="#eb996e"/>
                <path id="Trazado_874328" data-name="Trazado 874328" d="M40.233,197.718a8.472,8.472,0,0,0,3.582,1.932,8.472,8.472,0,0,0,4.034.538c.012-.154-1.783-.344-3.874-1.031-2.1-.671-3.661-1.57-3.742-1.439" transform="translate(211.044 0)" fill="#eb996e"/>
                <path id="Trazado_874329" data-name="Trazado 874329" d="M32.1,200.526c0,.052.608.081,1.366-.462a3.277,3.277,0,0,0,1.027-1.236,3.507,3.507,0,0,0,.283-1.933,1.4,1.4,0,0,1,.134-.795,4.453,4.453,0,0,1,.55-.638,2.72,2.72,0,0,0,.679-1.472c.107-.938-.247-1.45-.291-1.416a7.9,7.9,0,0,1-.07,1.349,2.573,2.573,0,0,1-.665,1.212,4.09,4.09,0,0,0-.639.705,1.843,1.843,0,0,0-.216,1.077,3.152,3.152,0,0,1-1.022,2.862c-.614.554-1.16.66-1.136.747" transform="translate(230.859 0)" fill="#eb996e"/>
                <path id="Trazado_874330" data-name="Trazado 874330" d="M36.2,203.8c-.008.145.866.122,1.483-.648s.464-1.624.324-1.586c-.147,0-.23.666-.726,1.26-.477.61-1.107.829-1.081.974" transform="translate(224.798 0)" fill="#eb996e"/>
              </g>
            </g>
          </g>
        </g>
      </g>
    </g>
  </g>
</svg>
