<svg xmlns="http://www.w3.org/2000/svg" xmlns:xlink="http://www.w3.org/1999/xlink" width="295" height="221.965" viewBox="0 0 295 221.965">
  <defs>
    <linearGradient id="linear-gradient" x1="0.814" y1="0.117" x2="0.236" y2="0.921" gradientUnits="objectBoundingBox">
      <stop offset="0" stop-color="#be79ca"/>
      <stop offset="1" stop-color="#371f63"/>
    </linearGradient>
  </defs>
  <g id="Grupo_1102801" data-name="Grupo 1102801" transform="translate(-1020 -6007.078)">
    <g id="Grupo_1100796" data-name="Grupo 1100796" transform="translate(789.585 1387.078)">
      <g id="Grupo_1099952" data-name="Grupo 1099952" transform="translate(230.415 4620)">
        <path id="Trazado_145968" data-name="Trazado 145968" d="M49.2,0A49.2,49.2,0,1,0,98.4,49.2,49.2,49.2,0,0,0,49.2,0Z" transform="translate(7.561 119.354)" fill="#75baf1" opacity="0.444"/>
        <path id="Trazado_145969" data-name="Trazado 145969" d="M33.618,0A33.618,33.618,0,1,0,67.237,33.618,33.618,33.618,0,0,0,33.618,0Z" transform="translate(200.275 12.836)" fill="#75baf1" opacity="0.444"/>
        <rect id="Rectángulo_34812" data-name="Rectángulo 34812" width="295" height="221.25" transform="translate(0 0.357)" fill="none"/>
        <path id="Trazado_145967" data-name="Trazado 145967" d="M110.983,0A110.983,110.983,0,1,0,221.966,110.983,110.983,110.983,0,0,0,110.983,0Z" transform="translate(36.517 0)" fill="url(#linear-gradient)"/>
        <path id="Trazado_145971" data-name="Trazado 145971" d="M9.243,0a9.243,9.243,0,1,0,9.243,9.243A9.243,9.243,0,0,0,9.243,0Z" transform="translate(239.996 184.805)" fill="#75baf1"/>
        <path id="Elipse_4044" data-name="Elipse 4044" d="M12.535,3.388a9.147,9.147,0,1,1-9.147,9.147,9.158,9.158,0,0,1,9.147-9.147m0-3.388A12.535,12.535,0,1,0,25.071,12.535,12.535,12.535,0,0,0,12.535,0Z" transform="translate(214.926 79.167)" fill="#fff"/>
        <g id="Grupo_1101047" data-name="Grupo 1101047" transform="translate(74.75 44.454)">
          <path id="Trazado_874151" data-name="Trazado 874151" d="M108.287,95.275a35.533,35.533,0,1,0-61.557,0H6.442A4.442,4.442,0,0,1,2,90.833V6.442A4.442,4.442,0,0,1,6.442,2H130.808a4.442,4.442,0,0,1,4.442,4.442V90.833a4.442,4.442,0,0,1-4.442,4.442Z" fill="#f6f6f6"/>
          <path id="Trazado_874152" data-name="Trazado 874152" d="M126.187,79.729V2H6.442A4.442,4.442,0,0,0,2,6.442V84.171H42.61a34.867,34.867,0,0,1-.118-12.608A35.929,35.929,0,0,1,77.835,41.975a35.509,35.509,0,0,1,34.572,42.2h9.327a4.442,4.442,0,0,0,4.453-4.442Z" fill="#fff"/>
          <path id="Trazado_874153" data-name="Trazado 874153" d="M33.1,66.409H22V61.967H32.185L44.859,49.293,48,52.433,34.674,65.758A2.221,2.221,0,0,1,33.1,66.409Z" transform="translate(24.417 57.737)" fill="#939393"/>
          <path id="Trazado_874154" data-name="Trazado 874154" d="M62.6,53.716,54.02,45.137a35.755,35.755,0,0,1-8.883,8.883L53.716,62.6Z" transform="translate(52.663 52.663)" fill="#e8e8e8"/>
          <path id="Trazado_874155" data-name="Trazado 874155" d="M46.792,51.033l3.331,3.331a2.221,2.221,0,0,0,3.14,0l3.984-3.98L52,45.137A35.857,35.857,0,0,1,46.792,51.033Z" transform="translate(54.683 52.663)" fill="#afafaf"/>
          <path id="Trazado_874156" data-name="Trazado 874156" d="M41.577,76.4H7.221A2.221,2.221,0,0,1,5,74.183V12H9.442V71.962H41.577Z" transform="translate(3.662 12.208)" fill="#6e3dc6"/>
          <path id="Trazado_874157" data-name="Trazado 874157" d="M12.537,53.372l-3.274-3L33.692,23.72A2.221,2.221,0,0,1,35.329,23h.018a2.221,2.221,0,0,1,1.643.744l5.921,6.662L39.58,33.36l-4.286-4.826Z" transform="translate(8.867 25.637)" fill="#6e3dc6"/>
          <path id="Trazado_874158" data-name="Trazado 874158" d="M61.325,48,48,61.325,63.006,76.331A9.422,9.422,0,1,0,76.331,63.006Z" transform="translate(56.158 56.158)" fill="#75baf1"/>
          <path id="Trazado_874159" data-name="Trazado 874159" d="M59.494,48,49.5,57.994,61.175,69.669a9.4,9.4,0,0,0,15.45-3.331A9.392,9.392,0,0,0,74.5,63.006Z" transform="translate(57.989 56.158)" fill="#75baf1"/>
          <path id="Trazado_874160" data-name="Trazado 874160" d="M60.3,12H49.2v4.442h5.743L39.744,31.637l3.14,3.14L58.079,19.582v5.743h4.442v-11.1A2.221,2.221,0,0,0,60.3,12Z" transform="translate(46.079 12.208)" fill="#6e3dc6"/>
          <rect id="Rectángulo_401281" data-name="Rectángulo 401281" width="35.24" height="25.912" rx="2" transform="translate(19.62 11.328)" fill="#d3d3d3"/>
          <path id="Trazado_874161" data-name="Trazado 874161" d="M41.092,23.767V6H14.442A4.442,4.442,0,0,0,10,10.442V28.208H36.65A4.442,4.442,0,0,0,41.092,23.767Z" transform="translate(9.767 4.883)" fill="#e5e4da"/>
          <path id="Trazado_874162" data-name="Trazado 874162" d="M13,9H35.208v4.442H13Z" transform="translate(13.429 8.546)" fill="#78a0d4"/>
          <path id="Trazado_874163" data-name="Trazado 874163" d="M13,13H35.208v4.442H13Z" transform="translate(13.429 13.429)" fill="#78a0d4"/>
          <rect id="Rectángulo_401282" data-name="Rectángulo 401282" width="35.24" height="26.949" rx="2" transform="translate(11.328 108.758)" fill="#d3d3d3"/>
          <path id="Trazado_874164" data-name="Trazado 874164" d="M37.092,67.767V50H10.442A4.442,4.442,0,0,0,6,54.442V72.208H32.65A4.442,4.442,0,0,0,37.092,67.767Z" transform="translate(4.883 58.6)" fill="#e5e4da"/>
          <path id="Trazado_874165" data-name="Trazado 874165" d="M9,53H31.208v4.442H9Z" transform="translate(8.546 62.262)" fill="#78a0d4"/>
          <path id="Trazado_874166" data-name="Trazado 874166" d="M9,57H31.208v4.442H9Z" transform="translate(8.546 67.146)" fill="#78a0d4"/>
          <path id="Trazado_874167" data-name="Trazado 874167" d="M47.5,34.046l-11.628-18.6H26V11H37.1a2.221,2.221,0,0,1,1.883,1.044l12.281,19.65Z" transform="translate(29.3 10.987)" fill="#939393"/>
          <circle id="Elipse_11529" data-name="Elipse 11529" cx="35.24" cy="35.24" r="35.24" transform="translate(42.423 42.423)" fill="#75baf1"/>
          <circle id="Elipse_11530" data-name="Elipse 11530" cx="26.949" cy="26.949" r="26.949" transform="translate(50.715 50.715)" fill="#f2f2f2"/>
          <path id="Trazado_874168" data-name="Trazado 874168" d="M70.639,46.207A26.55,26.55,0,0,0,61.9,26.513,26.617,26.617,0,0,0,32.74,70.341a26.606,26.606,0,0,0,37.9-24.134Z" transform="translate(26.857 26.859)" fill="#fff"/>
          <g id="Grupo_1101046" data-name="Grupo 1101046" transform="translate(51.731 50.92)">
            <path id="Trazado_874169" data-name="Trazado 874169" d="M25.963,43.442H54.612V39H24.393a26.416,26.416,0,0,0,1.57,4.442Z" transform="translate(-24.393 -5.75)" fill="#c0dafc"/>
            <path id="Trazado_874170" data-name="Trazado 874170" d="M50.212,24.028l-16.69,16.69L27.875,34.37a26.688,26.688,0,0,0-2.5,3.873l6.387,7.187a2.221,2.221,0,0,0,1.6.744h.069a2.221,2.221,0,0,0,1.57-.65l20.674-20.67a26.459,26.459,0,0,0-5.459-.826Z" transform="translate(-23.195 -24.028)" fill="#c0dafc"/>
          </g>
        </g>
      </g>
    </g>
  </g>
</svg>
