<svg xmlns="http://www.w3.org/2000/svg" width="124.707" height="134.791" viewBox="0 0 124.707 134.791">
  <g id="Grupo_1102804" data-name="Grupo 1102804" transform="translate(-411.337 -2760.919)">
    <g id="Grupo_1100811" data-name="Grupo 1100811" transform="translate(0 104.141)">
      <path id="Rectángulo_401150" data-name="Rectángulo 401150" d="M59,0H89a0,0,0,0,1,0,0V91a0,0,0,0,1,0,0H0a0,0,0,0,1,0,0V59A59,59,0,0,1,59,0Z" transform="translate(411.337 2656.778)" fill="#fff"/>
      <g id="Grupo_1101118" data-name="Grupo 1101118" transform="translate(415.117 2670.642)">
        <path id="Trazado_874331" data-name="Trazado 874331" d="M38.971,259.942H3.543a3.543,3.543,0,0,1-2.676-5.864l7.638-8.8a38.971,38.971,0,1,1,30.466,14.669Z" transform="translate(0 -139.014)" fill="#75baf1"/>
        <g id="Grupo_1101115" data-name="Grupo 1101115" transform="translate(23.618 42.986)">
          <path id="Trazado_874332" data-name="Trazado 874332" d="M165,182v77.942A38.971,38.971,0,1,0,165,182Z" transform="translate(-149.648 -182)" fill="#75baf1"/>
          <path id="Trazado_874333" data-name="Trazado 874333" d="M127.161,309.086H103.543a3.543,3.543,0,1,1,0-7.086h23.619a3.543,3.543,0,1,1,0,7.086Z" transform="translate(-100 -273.658)" fill="#fff"/>
          <path id="Trazado_874334" data-name="Trazado 874334" d="M127.161,369.086H103.543a3.543,3.543,0,0,1,0-7.086h23.619a3.543,3.543,0,0,1,0,7.086Z" transform="translate(-100 -319.486)" fill="#fff"/>
        </g>
        <path id="Trazado_874335" data-name="Trazado 874335" d="M176.809,362H165v7.086h11.809a3.543,3.543,0,0,0,0-7.086Z" transform="translate(-126.029 -276.501)" fill="#e5e4da"/>
        <path id="Trazado_874336" data-name="Trazado 874336" d="M176.809,302H165v7.086h11.809a3.543,3.543,0,1,0,0-7.086Z" transform="translate(-126.029 -230.672)" fill="#e5e4da"/>
        <g id="Grupo_1101117" data-name="Grupo 1101117" transform="translate(42.986)">
          <path id="Trazado_874337" data-name="Trazado 874337" d="M256.4,77.942H220.971a38.969,38.969,0,1,1,30.466-14.669l7.638,8.8a3.543,3.543,0,0,1-2.676,5.864Z" transform="translate(-182)" fill="#6e3dc6"/>
          <path id="Trazado_874338" data-name="Trazado 874338" d="M385.1,72.077l-7.638-8.8A38.972,38.972,0,0,0,347,0V77.942h35.428a3.543,3.543,0,0,0,2.676-5.864Z" transform="translate(-308.029)" fill="#6e3dc6"/>
          <circle id="Elipse_11535" data-name="Elipse 11535" cx="3.5" cy="3.5" r="3.5" transform="translate(36.232 56.218)" fill="#d3d3d3"/>
          <path id="Trazado_874339" data-name="Trazado 874339" d="M303.045,99.692a3.543,3.543,0,0,1-3.543-3.543V85.641a3.543,3.543,0,0,1,3.543-3.543,6.511,6.511,0,0,0,6.5-6.857,6.52,6.52,0,0,0-6.361-6.154h-.133A6.505,6.505,0,0,0,296.6,74.68a6.608,6.608,0,0,0-.063.912,3.543,3.543,0,0,1-7.086,0,13.757,13.757,0,0,1,.131-1.891,13.594,13.594,0,1,1,17,15.008v7.44A3.543,3.543,0,0,1,303.045,99.692Z" transform="translate(-264.074 -47.356)" fill="#d3d3d3"/>
          <g id="Grupo_1101116" data-name="Grupo 1101116" transform="translate(38.971 14.646)">
            <path id="Trazado_874340" data-name="Trazado 874340" d="M347,237v7.086A3.543,3.543,0,1,0,347,237Z" transform="translate(-347 -195.67)" fill="#e5e4da"/>
            <path id="Trazado_874341" data-name="Trazado 874341" d="M360.573,74.881A13.632,13.632,0,0,0,347.279,62.01c-.093,0-.186,0-.279,0v7.082h.136a6.5,6.5,0,0,1,4.582,10.982A6.448,6.448,0,0,1,347,82.105V99.7a3.543,3.543,0,0,0,3.543-3.543v-7.44a13.65,13.65,0,0,0,6.314-3.761A13.481,13.481,0,0,0,360.573,74.881Z" transform="translate(-347 -62.009)" fill="#e5e4da"/>
          </g>
        </g>
      </g>
    </g>
  </g>
</svg>
