<svg xmlns="http://www.w3.org/2000/svg" width="106.021" height="104.912" viewBox="0 0 106.021 104.912">
  <g id="Grupo_1102806" data-name="Grupo 1102806" transform="translate(-388.979 -998.588)">
    <g id="Grupo_1100816" data-name="Grupo 1100816" transform="translate(-1.021 -7630.412)">
      <path id="Rectángulo_401018" data-name="Rectángulo 401018" d="M59,0H89a0,0,0,0,1,0,0V91a0,0,0,0,1,0,0H0a0,0,0,0,1,0,0V59A59,59,0,0,1,59,0Z" transform="translate(390 8629)" fill="#fff"/>
      <g id="Grupo_1101122" data-name="Grupo 1101122" transform="translate(418.206 8656.096)">
        <path id="Trazado_874351" data-name="Trazado 874351" d="M10,25.5V8.063H7.094a2.906,2.906,0,0,1,0-5.813h5.813a2.907,2.907,0,0,1,2.906,2.906V25.5h2.906a2.906,2.906,0,1,1,0,5.813H7.094a2.906,2.906,0,1,1,0-5.813Zm5.813,37.783-12.4,9.3a2.906,2.906,0,0,0,1.745,5.23h15.5a2.906,2.906,0,0,0,0-5.813H13.876L19.3,67.935A10.657,10.657,0,1,0,2.25,59.409a2.906,2.906,0,1,0,5.813,0,4.844,4.844,0,1,1,7.75,3.875Z" transform="translate(0 0)" fill="#6e3dc6"/>
        <path id="Trazado_874352" data-name="Trazado 874352" d="M10.25,61.409A2.907,2.907,0,0,1,13.156,58.5H51.908a2.906,2.906,0,1,1,0,5.813H13.156A2.907,2.907,0,0,1,10.25,61.409Zm2.906-24.22H51.908a2.906,2.906,0,1,0,0-5.813H13.156a2.906,2.906,0,0,0,0,5.813Zm0-27.126H51.908a2.906,2.906,0,1,0,0-5.813H13.156a2.906,2.906,0,0,0,0,5.813Z" transform="translate(23.001 5.75)" fill="#6e3dc6" opacity="0.3"/>
      </g>
    </g>
  </g>
</svg>
