<svg xmlns="http://www.w3.org/2000/svg" width="107.229" height="109.971" viewBox="0 0 107.229 109.971">
  <g id="Grupo_1102811" data-name="Grupo 1102811" transform="translate(-1097.277 -1432.855)">
    <g id="Grupo_1100823" data-name="Grupo 1100823" transform="translate(707.277 -7196.145)">
      <path id="Rectángulo_401018" data-name="Rectángulo 401018" d="M59,0H89a0,0,0,0,1,0,0V91a0,0,0,0,1,0,0H0a0,0,0,0,1,0,0V59A59,59,0,0,1,59,0Z" transform="translate(390 8629)" fill="#fff"/>
      <g id="Grupo_1101138" data-name="Grupo 1101138" transform="translate(397.348 8662.89)">
        <path id="Trazado_874384" data-name="Trazado 874384" d="M20.678,0H2.926A2.925,2.925,0,0,0,0,2.926v11.7L9.144,17.74l11.534-3.109,2.195-7.315Zm0,0" transform="translate(0 0)" fill="#75baf1"/>
        <path id="Trazado_874385" data-name="Trazado 874385" d="M185.2,2.926v11.7l-43.737,3.1-6.2-.527L106,14.631V0h76.276A2.9,2.9,0,0,1,185.2,2.926Zm0,0" transform="translate(-85.322 0)" fill="#be79ca"/>
        <path id="Trazado_874386" data-name="Trazado 874386" d="M305.941,2.926v11.7l-43.737,3.1-6.2-.527V0h47.014a2.9,2.9,0,0,1,2.926,2.926Zm0,0" transform="translate(-206.06 0)" fill="#6e3dc6"/>
        <path id="Trazado_874387" data-name="Trazado 874387" d="M99.881,75v58.524a2.9,2.9,0,0,1-2.926,2.926H2.926A2.9,2.9,0,0,1,0,133.524V75Zm0,0" transform="translate(0 -60.369)" fill="#f6f6f6"/>
        <path id="Trazado_874388" data-name="Trazado 874388" d="M305.94,75v58.524a2.9,2.9,0,0,1-2.926,2.926H256V75Zm0,0" transform="translate(-206.06 -60.369)" fill="#d3d3d3"/>
        <path id="Trazado_874389" data-name="Trazado 874389" d="M63.926,179.262A2.925,2.925,0,0,1,61,176.336v-23.41a2.926,2.926,0,1,1,5.852,0v23.41A2.925,2.925,0,0,1,63.926,179.262Zm0,0" transform="translate(-49.1 -120.738)" fill="#6e3dc6"/>
        <path id="Trazado_874390" data-name="Trazado 874390" d="M246.852,152.926v23.41a2.926,2.926,0,1,1-5.852,0v-23.41a2.926,2.926,0,1,1,5.852,0Zm0,0" transform="translate(-193.986 -120.738)" fill="#6e3dc6"/>
        <path id="Trazado_874391" data-name="Trazado 874391" d="M258.926,152.926v23.41A2.9,2.9,0,0,1,256,179.262V150A2.9,2.9,0,0,1,258.926,152.926Zm0,0" transform="translate(-206.06 -120.738)" fill="#6e3dc6"/>
        <path id="Trazado_874392" data-name="Trazado 874392" d="M303.926,179.262A2.925,2.925,0,0,1,301,176.336v-23.41a2.926,2.926,0,1,1,5.852,0v23.41A2.925,2.925,0,0,1,303.926,179.262Zm0,0" transform="translate(-242.281 -120.738)" fill="#6e3dc6"/>
        <path id="Trazado_874393" data-name="Trazado 874393" d="M129.779,150A8.766,8.766,0,0,0,121,158.779v11.7a8.779,8.779,0,0,0,17.557,0v-11.7A8.766,8.766,0,0,0,129.779,150Zm2.926,20.483a2.926,2.926,0,1,1-5.852,0v-11.7a2.926,2.926,0,0,1,5.852,0Zm0,0" transform="translate(-97.395 -120.738)" fill="#6e3dc6"/>
        <path id="Trazado_874394" data-name="Trazado 874394" d="M369.779,150A8.766,8.766,0,0,0,361,158.779v11.7a8.779,8.779,0,0,0,17.557,0v-11.7A8.766,8.766,0,0,0,369.779,150Zm2.926,20.483a2.926,2.926,0,1,1-5.852,0v-11.7a2.926,2.926,0,0,1,5.852,0Zm0,0" transform="translate(-290.576 -120.738)" fill="#6e3dc6"/>
      </g>
    </g>
  </g>
</svg>
