<svg xmlns="http://www.w3.org/2000/svg" xmlns:xlink="http://www.w3.org/1999/xlink" width="400.001" height="321" viewBox="0 0 400.001 321">
  <defs>
    <linearGradient id="linear-gradient" x1="0.814" y1="0.117" x2="0.236" y2="0.921" gradientUnits="objectBoundingBox">
      <stop offset="0" stop-color="#be79ca"/>
      <stop offset="1" stop-color="#371f63"/>
    </linearGradient>
    <clipPath id="clip-path">
      <path id="Trazado_873802" data-name="Trazado 873802" d="M0,0H400V321s-100.065-45.451-111.2-36.854-40.412,26.985-78.8,28.74-68.832-10.82-68.832-10.82-47.8-20.33-72.89-66.223S0,321,0,321Z" transform="translate(1020 5255)" fill="#fff" stroke="#707070" stroke-width="1"/>
    </clipPath>
    <clipPath id="clip-path-2">
      <rect id="Rectángulo_401353" data-name="Rectángulo 401353" width="330.988" height="372.322" fill="none"/>
    </clipPath>
    <clipPath id="clip-path-5">
      <rect id="Rectángulo_401345" data-name="Rectángulo 401345" width="5.502" height="4.576" transform="translate(0)" fill="none"/>
    </clipPath>
    <clipPath id="clip-path-6">
      <rect id="Rectángulo_401346" data-name="Rectángulo 401346" width="25.681" height="2.512" transform="translate(0)" fill="none"/>
    </clipPath>
    <clipPath id="clip-path-7">
      <rect id="Rectángulo_401347" data-name="Rectángulo 401347" width="6.825" height="4.5" transform="translate(0)" fill="none"/>
    </clipPath>
    <clipPath id="clip-path-8">
      <rect id="Rectángulo_401348" data-name="Rectángulo 401348" width="23.397" height="11.243" transform="translate(0)" fill="none"/>
    </clipPath>
    <clipPath id="clip-path-9">
      <rect id="Rectángulo_401349" data-name="Rectángulo 401349" width="9.557" height="41.534" transform="translate(0)" fill="none"/>
    </clipPath>
    <clipPath id="clip-path-10">
      <rect id="Rectángulo_401350" data-name="Rectángulo 401350" width="4.211" height="17.261" transform="translate(0)" fill="none"/>
    </clipPath>
  </defs>
  <g id="Grupo_1102805" data-name="Grupo 1102805" transform="translate(-180 -4092.138)">
    <g id="Grupo_1101143" data-name="Grupo 1101143" transform="translate(-839.999 -1162.862)">
      <g id="Grupo_1099960" data-name="Grupo 1099960" transform="translate(13718.386 17874.502)">
        <path id="Trazado_145968" data-name="Trazado 145968" d="M66.711,0a66.711,66.711,0,1,0,66.711,66.711A66.711,66.711,0,0,0,66.711,0Z" transform="translate(-12688.135 -12445.871)" fill="#75baf1" opacity="0.444"/>
        <path id="Trazado_145969" data-name="Trazado 145969" d="M45.584,0A45.584,45.584,0,1,0,91.168,45.584,45.584,45.584,0,0,0,45.584,0Z" transform="translate(-12426.826 -12590.302)" fill="#75baf1" opacity="0.444"/>
        <rect id="Rectángulo_34812" data-name="Rectángulo 34812" width="400" height="300" transform="translate(-12698.387 -12607.222)" fill="none"/>
        <path id="Trazado_145967" data-name="Trazado 145967" d="M150.485,0A150.485,150.485,0,1,0,300.971,150.485,150.485,150.485,0,0,0,150.485,0Z" transform="translate(-12648.872 -12607.707)" fill="url(#linear-gradient)"/>
        <path id="Trazado_145971" data-name="Trazado 145971" d="M12.533,0A12.533,12.533,0,1,0,25.066,12.533,12.533,12.533,0,0,0,12.533,0Z" transform="translate(-12372.968 -12357.124)" fill="#75baf1"/>
        <path id="Elipse_4044" data-name="Elipse 4044" d="M17,4.594A12.4,12.4,0,1,1,4.594,17,12.417,12.417,0,0,1,17,4.594M17,0a17,17,0,1,0,17,17A17,17,0,0,0,17,0Z" transform="translate(-12406.962 -12500.362)" fill="#fff"/>
      </g>
      <g id="Enmascarar_grupo_1098691" data-name="Enmascarar grupo 1098691" clip-path="url(#clip-path)">
        <g id="Grupo_1101169" data-name="Grupo 1101169" transform="translate(1073.011 5250)">
          <g id="Grupo_1101168" data-name="Grupo 1101168" transform="translate(1 6)" clip-path="url(#clip-path-2)">
            <rect id="Rectángulo_401301" data-name="Rectángulo 401301" width="127.17" height="34.444" transform="translate(51.485 262.414)" fill="#d3d3d3"/>
            <rect id="Rectángulo_401302" data-name="Rectángulo 401302" width="6.852" height="26.362" transform="translate(168.389 266.743)" fill="#263238"/>
            <g id="Grupo_1101145" data-name="Grupo 1101145">
              <g id="Grupo_1101144" data-name="Grupo 1101144" clip-path="url(#clip-path-2)">
                <path id="Trazado_874395" data-name="Trazado 874395" d="M166.315,272.289a2.177,2.177,0,1,0,2.177-2.177,2.177,2.177,0,0,0-2.177,2.177" transform="translate(-5.997 0)" fill="#fff"/>
                <path id="Trazado_874396" data-name="Trazado 874396" d="M166.315,281.6a2.177,2.177,0,1,0,2.177-2.178,2.177,2.177,0,0,0-2.177,2.178" transform="translate(-5.997 0)" fill="#fff"/>
                <rect id="Rectángulo_401303" data-name="Rectángulo 401303" width="6.732" height="20.249" transform="translate(144.882 270.112)" fill="#263238"/>
                <rect id="Rectángulo_401304" data-name="Rectángulo 401304" width="6.732" height="20.249" transform="translate(135.158 270.112)" fill="#263238"/>
                <rect id="Rectángulo_401305" data-name="Rectángulo 401305" width="6.732" height="20.249" transform="translate(125.434 270.112)" fill="#263238"/>
                <rect id="Rectángulo_401306" data-name="Rectángulo 401306" width="6.732" height="20.249" transform="translate(115.709 270.112)" fill="#263238"/>
                <rect id="Rectángulo_401307" data-name="Rectángulo 401307" width="6.732" height="20.249" transform="translate(105.985 270.112)" fill="#263238"/>
                <rect id="Rectángulo_401308" data-name="Rectángulo 401308" width="6.732" height="20.249" transform="translate(96.26 270.112)" fill="#263238"/>
                <rect id="Rectángulo_401309" data-name="Rectángulo 401309" width="6.732" height="20.249" transform="translate(86.536 270.112)" fill="#263238"/>
                <rect id="Rectángulo_401310" data-name="Rectángulo 401310" width="6.732" height="20.249" transform="translate(76.812 270.112)" fill="#263238"/>
                <rect id="Rectángulo_401311" data-name="Rectángulo 401311" width="6.732" height="20.249" transform="translate(67.087 270.112)" fill="#263238"/>
                <rect id="Rectángulo_401312" data-name="Rectángulo 401312" width="6.732" height="20.249" transform="translate(57.363 270.112)" fill="#263238"/>
                <path id="Trazado_874502" data-name="Trazado 874502" d="M0,0H22.718V34.444H0Z" transform="translate(28.767 262.414)" fill="#e5e4da"/>
                <path id="Trazado_874398" data-name="Trazado 874398" d="M166.315,319.6a2.177,2.177,0,1,0,2.177-2.177,2.178,2.178,0,0,0-2.177,2.177" transform="translate(-5.997 0)" fill="#fff"/>
                <rect id="Rectángulo_401320" data-name="Rectángulo 401320" width="6.732" height="20.249" transform="translate(105.985 308.108)" fill="#263238"/>
                <rect id="Rectángulo_401321" data-name="Rectángulo 401321" width="6.732" height="20.249" transform="translate(96.26 308.108)" fill="#263238"/>
                <rect id="Rectángulo_401322" data-name="Rectángulo 401322" width="6.732" height="20.249" transform="translate(86.536 308.108)" fill="#263238"/>
                <rect id="Rectángulo_401323" data-name="Rectángulo 401323" width="6.732" height="20.249" transform="translate(76.812 308.108)" fill="#263238"/>
                <rect id="Rectángulo_401324" data-name="Rectángulo 401324" width="6.732" height="20.249" transform="translate(67.087 308.108)" fill="#263238"/>
                <rect id="Rectángulo_401325" data-name="Rectángulo 401325" width="6.732" height="20.249" transform="translate(57.363 308.108)" fill="#263238"/>
                <rect id="Rectángulo_401326" data-name="Rectángulo 401326" width="22.718" height="34.444" transform="translate(28.767 300.41)" fill="#263238"/>
                <rect id="Rectángulo_401327" data-name="Rectángulo 401327" width="127.17" height="34.444" transform="translate(51.485 337.878)" fill="#455a64"/>
                <rect id="Rectángulo_401328" data-name="Rectángulo 401328" width="6.852" height="26.361" transform="translate(168.389 342.208)" fill="#263238"/>
                <path id="Trazado_874399" data-name="Trazado 874399" d="M166.315,347.753a2.177,2.177,0,1,0,2.177-2.177,2.177,2.177,0,0,0-2.177,2.177" transform="translate(-5.997 0)" fill="#fff"/>
                <path id="Trazado_874400" data-name="Trazado 874400" d="M166.315,357.068a2.177,2.177,0,1,0,2.177-2.178,2.177,2.177,0,0,0-2.177,2.178" transform="translate(-5.997 0)" fill="#fff"/>
                <rect id="Rectángulo_401329" data-name="Rectángulo 401329" width="6.732" height="20.249" transform="translate(144.882 345.576)" fill="#263238"/>
                <rect id="Rectángulo_401330" data-name="Rectángulo 401330" width="6.732" height="20.249" transform="translate(135.158 345.576)" fill="#263238"/>
                <rect id="Rectángulo_401331" data-name="Rectángulo 401331" width="6.732" height="20.249" transform="translate(125.434 345.576)" fill="#263238"/>
                <rect id="Rectángulo_401332" data-name="Rectángulo 401332" width="6.732" height="20.249" transform="translate(115.709 345.576)" fill="#263238"/>
                <rect id="Rectángulo_401333" data-name="Rectángulo 401333" width="6.732" height="20.249" transform="translate(105.985 345.576)" fill="#263238"/>
                <rect id="Rectángulo_401334" data-name="Rectángulo 401334" width="6.732" height="20.249" transform="translate(96.26 345.576)" fill="#263238"/>
                <rect id="Rectángulo_401335" data-name="Rectángulo 401335" width="6.732" height="20.249" transform="translate(86.536 345.576)" fill="#263238"/>
                <rect id="Rectángulo_401336" data-name="Rectángulo 401336" width="6.732" height="20.249" transform="translate(76.812 345.576)" fill="#263238"/>
                <rect id="Rectángulo_401337" data-name="Rectángulo 401337" width="6.732" height="20.249" transform="translate(67.087 345.576)" fill="#263238"/>
                <rect id="Rectángulo_401338" data-name="Rectángulo 401338" width="6.732" height="20.249" transform="translate(57.363 345.576)" fill="#263238"/>
                <rect id="Rectángulo_401339" data-name="Rectángulo 401339" width="22.718" height="34.444" transform="translate(28.767 337.878)" fill="#263238"/>
                <rect id="Rectángulo_401340" data-name="Rectángulo 401340" width="8.672" height="6.018" transform="translate(20.095 279.426)" fill="#263238"/>
                <path id="Trazado_874401" data-name="Trazado 874401" d="M205.991,117.132v-6.474a.92.92,0,0,0-.92-.92h-6.017a.92.92,0,0,0-.92.92v6.474a3.928,3.928,0,0,0,7.857,0" transform="translate(-73.137 0)" fill="#d3d3d3"/>
                <rect id="Rectángulo_401341" data-name="Rectángulo 401341" width="8.672" height="6.018" transform="translate(20.095 315.929)" fill="#263238"/>
                <rect id="Rectángulo_401342" data-name="Rectángulo 401342" width="8.672" height="6.018" transform="translate(20.095 351.015)" fill="#263238"/>
                <rect id="Rectángulo_401343" data-name="Rectángulo 401343" width="8.672" height="6.018" transform="translate(179.242 351.015)" fill="#263238"/>
                <path id="Trazado_874402" data-name="Trazado 874402" d="M310.936,299.708a5.559,5.559,0,0,0-.039,1.232,8.745,8.745,0,0,0,.093,1.445,14.787,14.787,0,0,0,.3,1.9,16,16,0,0,0,.636,2.244c.149.392.265.814.456,1.219s.388.823.59,1.249a19.515,19.515,0,0,0,8.564,8.565l1.249.59c.4.191.827.307,1.22.456a16.125,16.125,0,0,0,2.244.635,14.627,14.627,0,0,0,1.9.306,8.85,8.85,0,0,0,1.445.093,5.626,5.626,0,0,0,1.231-.039c.007-.124-1.764-.061-4.49-.718a17.142,17.142,0,0,1-2.181-.683c-.38-.155-.79-.276-1.182-.47l-1.211-.6a19.871,19.871,0,0,1-8.361-8.36q-.3-.62-.6-1.211c-.2-.392-.315-.8-.47-1.182a16.946,16.946,0,0,1-.683-2.182c-.658-2.726-.594-4.5-.718-4.49" transform="translate(-310.733 0)" fill="#263238"/>
                <path id="Trazado_874403" data-name="Trazado 874403" d="M310.936,261.881a5.559,5.559,0,0,0-.039,1.232,8.745,8.745,0,0,0,.093,1.445,14.786,14.786,0,0,0,.3,1.9,16,16,0,0,0,.636,2.244c.149.392.265.814.456,1.219s.388.823.59,1.249a19.515,19.515,0,0,0,8.564,8.565l1.249.589c.4.192.827.308,1.22.457a16.129,16.129,0,0,0,2.244.635,14.627,14.627,0,0,0,1.9.306,8.85,8.85,0,0,0,1.445.093,5.5,5.5,0,0,0,1.231-.04c.007-.123-1.764-.06-4.49-.717a17,17,0,0,1-2.181-.684c-.38-.154-.79-.275-1.182-.469l-1.211-.6a19.866,19.866,0,0,1-8.361-8.361q-.3-.618-.6-1.21c-.2-.392-.315-.8-.47-1.182a16.946,16.946,0,0,1-.683-2.182c-.658-2.726-.594-4.5-.718-4.49" transform="translate(-310.733 0)" fill="#263238"/>
                <path id="Trazado_874404" data-name="Trazado 874404" d="M0,354.024s.155.018.458.027l1.346.025,5.173.049L26,354.208l62.772.076,17.895-.005,8.509-.006c2.785-.035,5.489.078,8.175-.126a27.109,27.109,0,0,0,7.583-1.828,18.645,18.645,0,0,0,1.717-.784,12.919,12.919,0,0,0,1.64-.876l1.561-.956,1.44-1.082a12.805,12.805,0,0,0,1.351-1.141c.424-.4.878-.767,1.265-1.191a26.4,26.4,0,0,0,2.186-2.574,26.019,26.019,0,0,0,5.313-16.092c-.017-3.184-.032-5.93-.044-8.185-.021-2.226-.038-3.965-.049-5.172-.011-.573-.02-1.02-.026-1.346-.009-.3-.027-.458-.027-.458s-.017.155-.026.458c-.006.326-.015.773-.026,1.346-.011,1.207-.028,2.946-.049,5.172-.012,2.255-.027,5-.044,8.185a25.8,25.8,0,0,1-5.343,15.85A26.143,26.143,0,0,1,139.613,346c-.383.416-.832.772-1.251,1.166a12.38,12.38,0,0,1-1.333,1.118l-1.42,1.058-1.539.935a12.607,12.607,0,0,1-1.615.855,18.281,18.281,0,0,1-1.69.766,26.715,26.715,0,0,1-7.452,1.774c-2.616.194-5.36.078-8.134.106l-8.509-.006-17.895-.005L26,353.84l-19.026.083-5.173.048L.458,354c-.3.009-.458.027-.458.027" transform="translate(183.578 0)" fill="#263238"/>
                <path id="Trazado_874405" data-name="Trazado 874405" d="M330.327,119.4s-.016.311-.022.916-.007,1.515-.013,2.685c0,2.375,0,5.852,0,10.326.024,8.981.059,21.952.1,37.976.03,8.017.062,16.8.1,26.224q.014,3.537.028,7.19.008,1.826.015,3.681c-.038,1.231-.115,2.465-.181,3.711a33.88,33.88,0,0,1-5.025,14.39A33.281,33.281,0,0,1,313.8,237.592c-.3.176-.585.366-.888.528l-.935.45-1.875.9-1.963.722a14.317,14.317,0,0,1-2,.638l-2.046.524c-.685.17-1.393.23-2.091.351a30.393,30.393,0,0,1-4.253.371c-11.521.068-23.473.015-35.7.03l-35.719.006-8.575.007A16.472,16.472,0,0,0,201.4,257.873c.007,21.2.014,40.3.019,56.337q.01,6.012.019,11.437,0,2.709.01,5.261a32.113,32.113,0,0,0,.248,4.948,21.208,21.208,0,0,0,3.068,8.313,21.491,21.491,0,0,0,5.032,5.5,20.775,20.775,0,0,0,9.406,4.077c.586.079,1.1.173,1.546.21.445.019.821.032,1.128.045.6.021.915.019.915.019s-.309-.034-.912-.073l-1.123-.069c-.444-.047-.955-.148-1.537-.235a20.929,20.929,0,0,1-9.3-4.135,21.354,21.354,0,0,1-4.945-5.476,20.985,20.985,0,0,1-2.99-8.221,31.932,31.932,0,0,1-.225-4.907q0-2.551.01-5.261.009-5.416.019-11.437c.026-16.034.057-35.121.091-56.315a15.982,15.982,0,0,1,15.878-15.269q4.245,0,8.572,0l35.719.006c12.233-.015,24.169.035,35.712-.041a30.846,30.846,0,0,0,4.316-.379c.709-.123,1.428-.187,2.123-.358l2.077-.534a14.487,14.487,0,0,0,2.03-.649l1.992-.735,1.9-.918.947-.457c.308-.166.6-.358.9-.537a33.735,33.735,0,0,0,11.686-11.262,34.34,34.34,0,0,0,5.075-14.6c.065-1.261.141-2.515.177-3.756q-.01-1.855-.022-3.683-.021-3.651-.041-7.188c-.058-9.427-.111-18.207-.16-26.226-.114-16.024-.205-28.994-.269-37.976-.043-4.474-.076-7.95-.1-10.324q-.025-1.758-.039-2.685c-.012-.605-.031-.916-.031-.916" transform="translate(-201.401 0)" fill="#263238"/>
              </g>
            </g>
            <g id="Grupo_1101165" data-name="Grupo 1101165">
              <g id="Grupo_1101164" data-name="Grupo 1101164" clip-path="url(#clip-path-2)">
                <path id="Trazado_874406" data-name="Trazado 874406" d="M194.146,125.627c2.217-.5,2.705-3.119,2.907-4.588a5.009,5.009,0,0,0-1.33-4.089c-1.976-2.058-5.314-2.021-8.035-1.162a39.33,39.33,0,0,1-6.5,1.882c-2.182.372-5.11-.516-8.2.976-2.355,1.139-2.045,3.257-3.209,4-1.187.755-1.838,1.44-3.013,2.214-1.515,1-1.628,3.171-1.313,4.957s.882,3.682.175,5.352c-.495,1.17-1.554,2.036-2.018,3.217a3.711,3.711,0,0,0,1.632,4.468,6.374,6.374,0,0,1,1.573.874,5.533,5.533,0,0,1,.929,2.361,4.2,4.2,0,0,0,3.691,2.851,3.783,3.783,0,0,0,3.722-2.69,8.133,8.133,0,0,0-.478-4.1A26.13,26.13,0,0,1,174.17,131" transform="translate(-29.49 0)" fill="#263238"/>
                <path id="Trazado_874407" data-name="Trazado 874407" d="M167.837,160.452l14.537-1.161c.091-1.7-.03-8.264-.03-8.264s6.048-.94,6.123-6.988-.974-19.934-.974-19.934a21.016,21.016,0,0,0-21.119,2.655l-.9.69Z" transform="translate(-22.961 0)" fill="#ffbe9d"/>
                <path id="Trazado_874408" data-name="Trazado 874408" d="M166.861,134.958a.878.878,0,1,1,1.241-.061.879.879,0,0,1-1.241.061" transform="translate(-3.914 0)" fill="#263238"/>
                <path id="Trazado_874409" data-name="Trazado 874409" d="M169.432,133.118c-.1.105-.689-.352-1.521-.356s-1.438.426-1.53.319c-.045-.047.049-.236.313-.437a2.053,2.053,0,0,1,2.435.03c.259.207.349.4.3.444" transform="translate(-4.826 0)" fill="#263238"/>
                <path id="Trazado_874410" data-name="Trazado 874410" d="M176.919,133.754a.878.878,0,1,1-1.208.288.878.878,0,0,1,1.208-.288" transform="translate(-21.93 0)" fill="#263238"/>
                <path id="Trazado_874411" data-name="Trazado 874411" d="M178.5,133.476c-.1.1-.689-.352-1.521-.356s-1.438.426-1.53.319c-.045-.047.049-.236.313-.437a2.051,2.051,0,0,1,2.435.031c.259.206.349.4.3.443" transform="translate(-22.962 0)" fill="#263238"/>
                <path id="Trazado_874412" data-name="Trazado 874412" d="M170.43,140.723a4.061,4.061,0,0,1,1.347-.286c.218-.023.389-.072.4-.19a1.2,1.2,0,0,0-.156-.624c-.215-.55-.432-1.108-.659-1.692a23.221,23.221,0,0,1-1.426-4.449,23.241,23.241,0,0,1,1.869,4.282c.215.589.421,1.15.624,1.706a1.391,1.391,0,0,1,.119.9.572.572,0,0,1-.375.348,1.358,1.358,0,0,1-.372.048,4.039,4.039,0,0,1-1.376-.048" transform="translate(-11.531 0)" fill="#263238"/>
                <path id="Trazado_874413" data-name="Trazado 874413" d="M179.466,150.94a14.06,14.06,0,0,1-7.884-2.241s1.863,4.353,7.9,3.808Z" transform="translate(-20.074 0)" fill="#eb996e"/>
                <path id="Trazado_874414" data-name="Trazado 874414" d="M189.846,125.627a10.082,10.082,0,0,1-8.491.018c-3.249-1.332-6.959-1.826-7.718-1.136s-.689,3.931-3.724,5.1c0,0,.669,6.146-1.8,6.108s-1.643-9.694-1.643-9.694l5.792-3.38,6.466-1.724,6.244.414,4.878.955Z" transform="translate(-25.19 0)" fill="#263238"/>
                <path id="Trazado_874415" data-name="Trazado 874415" d="M191.516,133.714c-.1-.045-4.155-1.229-4.023,2.9s4.256,3.149,4.259,3.031-.236-5.936-.236-5.936" transform="translate(-48.254 0)" fill="#ffbe9d"/>
                <path id="Trazado_874416" data-name="Trazado 874416" d="M190.695,138.124c-.019-.013-.07.053-.19.112a.72.72,0,0,1-.538.029,1.784,1.784,0,0,1-.876-1.573,2.373,2.373,0,0,1,.169-1.038.831.831,0,0,1,.524-.57.367.367,0,0,1,.431.184c.059.114.036.2.058.2s.086-.072.048-.242a.463.463,0,0,0-.171-.254.541.541,0,0,0-.4-.092,1.011,1.011,0,0,0-.732.665,2.444,2.444,0,0,0-.213,1.16,1.872,1.872,0,0,0,1.108,1.752.772.772,0,0,0,.655-.131c.125-.106.144-.2.129-.206" transform="translate(-48.51 0)" fill="#eb996e"/>
                <path id="Trazado_874417" data-name="Trazado 874417" d="M166.175,131.967c.135.241.927.045,1.874.013.946-.053,1.752.072,1.865-.18.123-.231-.7-.849-1.908-.793s-1.974.74-1.831.96" transform="translate(-5.096 0)" fill="#263238"/>
                <path id="Trazado_874418" data-name="Trazado 874418" d="M175.822,132.14c.135.241.927.045,1.874.013.946-.053,1.752.072,1.865-.18.123-.231-.7-.849-1.908-.793s-1.974.74-1.831.96" transform="translate(-24.39 0)" fill="#263238"/>
                <path id="Trazado_874419" data-name="Trazado 874419" d="M188.472,123.581a8.7,8.7,0,0,1-9.177,8.213,16.108,16.108,0,0,1,2.538-6.577c1.449-1.875,3.991-3.112,6.232-2.341" transform="translate(-36.779 0)" fill="#263238"/>
                <path id="Trazado_874420" data-name="Trazado 874420" d="M172.538,140.552c-.052,0-.1.254-.006.649a2.592,2.592,0,0,0,2.269,1.943c.4.031.645-.054.64-.106a5.7,5.7,0,0,1-1.812-.822c-.839-.714-.975-1.688-1.091-1.664" transform="translate(-16.932 0)" fill="#263238"/>
                <path id="Trazado_874421" data-name="Trazado 874421" d="M174.516,140.983c.046.037.285-.208.678-.251s.684.121.719.073c.05-.034-.26-.345-.745-.28s-.709.437-.652.458" transform="translate(-19.439 0)" fill="#263238"/>
                <path id="Trazado_874422" data-name="Trazado 874422" d="M187.995,139.349a1.091,1.091,0,0,0-.172.976,1.407,1.407,0,0,0,.633.909,1.507,1.507,0,0,0,1.351.072,1.368,1.368,0,0,0,.816-1.073,1.448,1.448,0,0,0-.249-1.078c-.41-.546-.923-.437-.887-.408a1.073,1.073,0,0,1,.766.492,1.341,1.341,0,0,1,.181.963,1.2,1.2,0,0,1-.71.913,1.345,1.345,0,0,1-1.171-.047,1.3,1.3,0,0,1-.587-.778,1.834,1.834,0,0,1,.029-.941" transform="translate(-47.444 0)" fill="#455a64"/>
                <path id="Trazado_874423" data-name="Trazado 874423" d="M183.26,117.356a4.392,4.392,0,0,1-.159.912,3.8,3.8,0,0,1-1.5,1.953,7.471,7.471,0,0,1-3.531,1.1,11.572,11.572,0,0,1-4.532-.5c-1.56-.46-2.839-1.477-4.3-1.718a4.23,4.23,0,0,0-3.564,1.09,4.154,4.154,0,0,0-1.21,2.239,2.928,2.928,0,0,0-.043.937,8.031,8.031,0,0,1,.123-.921,4.183,4.183,0,0,1,1.23-2.147,4.1,4.1,0,0,1,3.432-1.009c1.389.232,2.671,1.25,4.27,1.727a11.562,11.562,0,0,0,4.613.493,7.487,7.487,0,0,0,3.6-1.17,3.776,3.776,0,0,0,1.5-2.051,2.2,2.2,0,0,0,.082-.934" transform="translate(-16.687 0)" fill="#455a64"/>
                <path id="Trazado_874424" data-name="Trazado 874424" d="M196.191,123.235a2.4,2.4,0,0,0-.781-.763,3.184,3.184,0,0,0-2.895-.326,3.352,3.352,0,0,0-1.594,1.317,4.139,4.139,0,0,0-.534,2.31,20.594,20.594,0,0,1,.01,2.584,2.839,2.839,0,0,1-1.429,2.175,9.52,9.52,0,0,0-2.313,1.6,4.627,4.627,0,0,0-.951,2.444c-.174,1.673.083,3.168-.163,4.394a3.844,3.844,0,0,1-1.413,2.482,3.028,3.028,0,0,1-.973.449,1.93,1.93,0,0,0,1.02-.383,3.873,3.873,0,0,0,1.511-2.521c.268-1.252.026-2.77.208-4.4a4.458,4.458,0,0,1,.917-2.336,9.528,9.528,0,0,1,2.27-1.552,3.368,3.368,0,0,0,1.055-.992,3.109,3.109,0,0,0,.463-1.331,20.015,20.015,0,0,0-.02-2.613,3.983,3.983,0,0,1,.489-2.217,3.212,3.212,0,0,1,1.5-1.271,3.128,3.128,0,0,1,2.8.258,4.263,4.263,0,0,1,.824.694" transform="translate(-48.358 0)" fill="#455a64"/>
                <path id="Trazado_874425" data-name="Trazado 874425" d="M183.422,126.883a.736.736,0,0,1,.074-.55,1.215,1.215,0,0,1,1.377-.43,5.857,5.857,0,0,0,1.117.144,1.7,1.7,0,0,0,1.182-.569c.678-.683.826-1.746,1.422-2.555a3.938,3.938,0,0,1,2.342-1.515,3.775,3.775,0,0,1,2.286.239,4.616,4.616,0,0,1,1.7,1.324,2.258,2.258,0,0,0-.337-.489,3.932,3.932,0,0,0-3.687-1.262,4.083,4.083,0,0,0-2.472,1.58c-.631.875-.77,1.919-1.392,2.546a1.532,1.532,0,0,1-1.051.529,6.252,6.252,0,0,1-1.088-.117,1.954,1.954,0,0,0-.938.063.957.957,0,0,0-.532.474.549.549,0,0,0,0,.588" transform="translate(-47.278 0)" fill="#455a64"/>
                <path id="Trazado_874426" data-name="Trazado 874426" d="M184.13,117.77a.551.551,0,0,0-.275-.059,1.761,1.761,0,0,0-.757.139,2.487,2.487,0,0,0-1.445,1.988,5.05,5.05,0,0,0,.332,2.475,4.226,4.226,0,0,0,.419.942,6.338,6.338,0,0,0-.279-.988,5.5,5.5,0,0,1-.266-2.4,2.426,2.426,0,0,1,1.3-1.886,2.629,2.629,0,0,1,.972-.215" transform="translate(-34.75 0)" fill="#455a64"/>
                <path id="Trazado_874427" data-name="Trazado 874427" d="M183.127,125.989a11.382,11.382,0,0,1-2.445.5,8.769,8.769,0,0,1-5.677-1.57c-.948-.685-1.677-1.578-2.549-2.164a3.3,3.3,0,0,0-2.653-.582,5.692,5.692,0,0,0-1.716.7c-.188.111-.33.2-.424.27a.61.61,0,0,0-.138.109,6.039,6.039,0,0,0,.6-.308,6.174,6.174,0,0,1,1.705-.624,3.182,3.182,0,0,1,2.517.6c.837.572,1.557,1.465,2.535,2.175a8.67,8.67,0,0,0,5.811,1.547,6.642,6.642,0,0,0,2.433-.65" transform="translate(-19.664 0)" fill="#455a64"/>
                <path id="Trazado_874428" data-name="Trazado 874428" d="M150.568,334.294l-1.329,14.567-15.071,1.617V332.6Z" transform="translate(46.252 0)" fill="#e0e0e0"/>
                <path id="Trazado_874429" data-name="Trazado 874429" d="M150.568,340.67H134.75v1.743l15.623.389Z" transform="translate(45.67 0)" fill="#455a64"/>
                <path id="Trazado_874430" data-name="Trazado 874430" d="M150.568,344.066,150.391,346l-15.331-.08v-1.955Z" transform="translate(45.36 0)" fill="#455a64"/>
                <path id="Trazado_874431" data-name="Trazado 874431" d="M150.464,348.861l.1-1.128-15.173-.268.018,1.1Z" transform="translate(45.026 0)" fill="#455a64"/>
                <path id="Trazado_874432" data-name="Trazado 874432" d="M140.841,350.418l.054-1.625-15.3-.572-.235,5.355.942.1c4.193.4,21.349,1.737,24.192,1,3.171-.827-9.653-4.253-9.653-4.253" transform="translate(54.63 0)" fill="#e8505b"/>
                <g id="Grupo_1101148" data-name="Grupo 1101148" transform="translate(180.015 349.099)" opacity="0.3">
                  <g id="Grupo_1101147" data-name="Grupo 1101147" transform="translate(0)">
                    <g id="Grupo_1101146" data-name="Grupo 1101146" transform="translate(0)" clip-path="url(#clip-path-5)">
                      <path id="Trazado_874433" data-name="Trazado 874433" d="M150.973,353.675a5.283,5.283,0,0,0-1.815-3.324,5.134,5.134,0,0,0-3.516-1.248l-.171,4.256Z" transform="translate(-145.471 -349.099)" fill="#fff"/>
                    </g>
                  </g>
                </g>
                <g id="Grupo_1101151" data-name="Grupo 1101151" transform="translate(179.99 352.318)" opacity="0.3">
                  <g id="Grupo_1101150" data-name="Grupo 1101150" transform="translate(0)">
                    <g id="Grupo_1101149" data-name="Grupo 1101149" transform="translate(0)" clip-path="url(#clip-path-6)">
                      <path id="Trazado_874434" data-name="Trazado 874434" d="M147.056,352.318s4.483,1.488,3.888,2.213-17.983.025-25.626-.955l.038-.339,20.275.989s.537-1.906,1.425-1.908" transform="translate(-125.318 -352.318)" fill="#fff"/>
                    </g>
                  </g>
                </g>
                <path id="Trazado_874435" data-name="Trazado 874435" d="M125.356,353.218a1.407,1.407,0,0,0,.261.039l.75.076,2.763.23c2.334.178,5.563.381,9.132.528s6.806.207,9.147.221l2.772,0,.754-.014a1.465,1.465,0,0,0,.263-.017,1.358,1.358,0,0,0-.263-.02l-.753-.021-2.772-.055c-2.339-.047-5.572-.129-9.14-.275s-6.795-.329-9.131-.473l-2.767-.172-.752-.041a1.52,1.52,0,0,0-.264,0" transform="translate(54.434 0)" fill="#263238"/>
                <path id="Trazado_874436" data-name="Trazado 874436" d="M129.161,354.461a6.338,6.338,0,0,1,.571-1.3,6.216,6.216,0,0,1,.986-1.022,2.467,2.467,0,0,0-1.557,2.322" transform="translate(71.127 0)" fill="#263238"/>
                <path id="Trazado_874437" data-name="Trazado 874437" d="M134.245,352c.042.029.267-.224.5-.565s.393-.641.351-.67-.267.224-.5.565-.394.641-.352.67" transform="translate(61.643 0)" fill="#263238"/>
                <path id="Trazado_874438" data-name="Trazado 874438" d="M135.323,351.3c.033.039.279-.111.551-.336s.466-.44.433-.479-.279.111-.551.336-.466.44-.433.479" transform="translate(59.358 0)" fill="#263238"/>
                <path id="Trazado_874439" data-name="Trazado 874439" d="M135.439,349.831a3.485,3.485,0,1,0,.8-.051,1.783,1.783,0,0,0-.8.051" transform="translate(58.52 0)" fill="#263238"/>
                <path id="Trazado_874440" data-name="Trazado 874440" d="M135.46,348.806a2.234,2.234,0,0,0,1.8.208,4.986,4.986,0,0,0-.9-.1,4.9,4.9,0,0,0-.9-.11" transform="translate(58.272 0)" fill="#263238"/>
                <path id="Trazado_874441" data-name="Trazado 874441" d="M131.625,350.693a2.8,2.8,0,0,0,.979.033,5.7,5.7,0,0,0,1.051-.188,2.873,2.873,0,0,0,.606-.221.531.531,0,0,0,.255-.295.386.386,0,0,0-.133-.4,1.8,1.8,0,0,0-2.24.436,1.735,1.735,0,0,0-.346.64.538.538,0,0,0-.036.263,2.788,2.788,0,0,1,.479-.817,1.776,1.776,0,0,1,.858-.509,1.523,1.523,0,0,1,1.163.126c.151.122.083.3-.094.4a2.985,2.985,0,0,1-.559.213,6.931,6.931,0,0,1-1.019.222c-.59.08-.963.066-.964.1" transform="translate(64.833 0)" fill="#263238"/>
                <path id="Trazado_874442" data-name="Trazado 874442" d="M135.353,350.752a.969.969,0,0,0,.14-.675,1.608,1.608,0,0,0-.238-.726.983.983,0,0,0-.795-.531.39.39,0,0,0-.32.439,1.06,1.06,0,0,0,.149.444,2.965,2.965,0,0,0,.438.611,1.422,1.422,0,0,0,.544.419c.019-.023-.187-.184-.445-.5a3.432,3.432,0,0,1-.386-.6c-.126-.212-.2-.587.044-.622.246-.014.486.24.628.441a1.607,1.607,0,0,1,.251.648,3.546,3.546,0,0,1-.01.66" transform="translate(61.356 0)" fill="#263238"/>
                <path id="Trazado_874443" data-name="Trazado 874443" d="M145.475,349.063c0,.035.438-.024,1.123.085a4.773,4.773,0,0,1,3.861,3.34c.206.662.211,1.1.245,1.1a.833.833,0,0,0,.013-.307,4,4,0,0,0-.133-.828,4.63,4.63,0,0,0-3.968-3.433,3.992,3.992,0,0,0-.839-.012.879.879,0,0,0-.3.057" transform="translate(34.793 0)" fill="#263238"/>
                <path id="Trazado_874444" data-name="Trazado 874444" d="M139.046,352.267a12.516,12.516,0,0,0,4.449.221c0-.054-1-.033-2.226-.1s-2.215-.179-2.223-.126" transform="translate(48.447 0)" fill="#263238"/>
                <path id="Trazado_874445" data-name="Trazado 874445" d="M146.08,352.143c-.039.036.073.214.165.447s.14.436.193.435.088-.238-.021-.505-.3-.412-.337-.377" transform="translate(38.429 0)" fill="#263238"/>
                <path id="Trazado_874446" data-name="Trazado 874446" d="M147,350.7c-.038.034.054.2.205.363s.305.273.342.238-.054-.2-.2-.363-.3-.272-.342-.238" transform="translate(36.439 0)" fill="#263238"/>
                <path id="Trazado_874447" data-name="Trazado 874447" d="M148.274,349.994c.009.052.211.058.431.146s.377.213.419.181-.078-.249-.352-.353-.512-.022-.5.026" transform="translate(33.581 0)" fill="#263238"/>
                <path id="Trazado_874448" data-name="Trazado 874448" d="M149.814,349.646c-.019.047.065.128.189.183s.242.06.263.013-.064-.129-.189-.183-.242-.06-.263-.013" transform="translate(30.908 0)" fill="#263238"/>
                <path id="Trazado_874449" data-name="Trazado 874449" d="M150.568,338.372l-.08.881-15.948-.217v-1.058Z" transform="translate(45.879 0)" fill="#455a64"/>
                <path id="Trazado_874450" data-name="Trazado 874450" d="M105.987,299.181l5.423,13.585-12.7,8.278L90.6,305.109Z" transform="translate(128.976 0)" fill="#e0e0e0"/>
                <path id="Trazado_874451" data-name="Trazado 874451" d="M106.954,305.127l-14.1,7.175.791,1.554,14.1-6.741Z" transform="translate(130.382 0)" fill="#455a64"/>
                <path id="Trazado_874452" data-name="Trazado 874452" d="M105.532,308.295l.721,1.806-13.7,6.883-.887-1.743Z" transform="translate(133.069 0)" fill="#455a64"/>
                <path id="Trazado_874453" data-name="Trazado 874453" d="M104.666,312.766l-.42-1.052L90.6,318.358l.513.968Z" transform="translate(135.72 0)" fill="#455a64"/>
                <path id="Trazado_874454" data-name="Trazado 874454" d="M93.657,314.163l-.689-1.473-13.895,6.43L81.293,324l.884-.34c3.918-1.545,19.814-8.136,22.012-10.085,2.451-2.175-10.532.589-10.532.589" transform="translate(147.418 0)" fill="#e8505b"/>
                <g id="Grupo_1101154" data-name="Grupo 1101154" transform="translate(226.856 319.296)" opacity="0.3">
                  <g id="Grupo_1101153" data-name="Grupo 1101153" transform="translate(0)">
                    <g id="Grupo_1101152" data-name="Grupo 1101152" transform="translate(0)" clip-path="url(#clip-path-7)">
                      <path id="Trazado_874455" data-name="Trazado 874455" d="M104.132,321.581a5.284,5.284,0,0,0-3.125-2.139,5.143,5.143,0,0,0-3.7.482l1.778,3.871Z" transform="translate(-97.307 -319.295)" fill="#fff"/>
                    </g>
                  </g>
                </g>
                <g id="Grupo_1101157" data-name="Grupo 1101157" transform="translate(228.591 312.757)" opacity="0.3">
                  <g id="Grupo_1101156" data-name="Grupo 1101156" transform="translate(0)">
                    <g id="Grupo_1101155" data-name="Grupo 1101155" transform="translate(0)" clip-path="url(#clip-path-8)">
                      <path id="Trazado_874456" data-name="Trazado 874456" d="M97.922,313.018s4.671-.708,4.469.208S86.375,321.406,79.12,324l-.12-.32,18.517-8.316s-.386-1.941.4-2.346" transform="translate(-79 -312.757)" fill="#fff"/>
                    </g>
                  </g>
                </g>
                <path id="Trazado_874457" data-name="Trazado 874457" d="M79.109,323.771a1.374,1.374,0,0,0,.25-.084l.7-.272,2.567-1.048c2.161-.9,5.13-2.184,8.378-3.672s6.159-2.9,8.251-3.952l2.47-1.261.665-.355a1.531,1.531,0,0,0,.226-.134,1.359,1.359,0,0,0-.243.1l-.681.323c-.677.329-1.511.732-2.494,1.208-2.107,1.02-5.025,2.413-8.271,3.9s-6.205,2.789-8.352,3.719l-2.544,1.1-.689.305a1.47,1.47,0,0,0-.236.118" transform="translate(149.26 0)" fill="#263238"/>
                <path id="Trazado_874458" data-name="Trazado 874458" d="M83.732,315.581a6.277,6.277,0,0,1-.082-1.417,6.147,6.147,0,0,1,.416-1.358,2.462,2.462,0,0,0-.334,2.775" transform="translate(163.47 0)" fill="#263238"/>
                <path id="Trazado_874459" data-name="Trazado 874459" d="M88.622,315.385a3.086,3.086,0,0,0,.2-1.489,3.119,3.119,0,0,0-.2,1.489" transform="translate(153.542 0)" fill="#263238"/>
                <path id="Trazado_874460" data-name="Trazado 874460" d="M89.71,315.307c.047.02.2-.226.339-.55s.215-.6.169-.623-.2.226-.339.55-.216.6-.169.623" transform="translate(151.059 0)" fill="#263238"/>
                <path id="Trazado_874461" data-name="Trazado 874461" d="M90.073,314.325a1.792,1.792,0,0,0,.765-.24c.4-.179.71-.362.689-.408a1.786,1.786,0,0,0-.765.239c-.4.18-.71.362-.689.409" transform="translate(149.388 0)" fill="#263238"/>
                <path id="Trazado_874462" data-name="Trazado 874462" d="M90.5,313.515a2.244,2.244,0,0,0,1.7-.629,4.771,4.771,0,0,0-.846.32,4.917,4.917,0,0,0-.85.309" transform="translate(148.298 0)" fill="#263238"/>
                <path id="Trazado_874463" data-name="Trazado 874463" d="M86.631,313.961a2.845,2.845,0,0,0,.887-.414,5.7,5.7,0,0,0,.852-.645,2.836,2.836,0,0,0,.439-.472.528.528,0,0,0,.094-.378.388.388,0,0,0-.3-.294,1.794,1.794,0,0,0-1.8,1.4,1.753,1.753,0,0,0-.018.727.547.547,0,0,0,.087.251,2.8,2.8,0,0,1,.057-.945,1.759,1.759,0,0,1,.533-.843,1.52,1.52,0,0,1,1.094-.416c.19.04.211.232.1.4a2.949,2.949,0,0,1-.4.443,6.829,6.829,0,0,1-.807.66c-.49.339-.829.5-.816.523" transform="translate(155.448 0)" fill="#263238"/>
                <path id="Trazado_874464" data-name="Trazado 874464" d="M90.475,313.9a.967.967,0,0,0-.181-.665,1.6,1.6,0,0,0-.542-.539.984.984,0,0,0-.949-.113.39.39,0,0,0-.086.537,1.082,1.082,0,0,0,.334.328,2.924,2.924,0,0,0,.668.345,1.414,1.414,0,0,0,.675.127c0-.029-.251-.079-.626-.248a3.385,3.385,0,0,1-.618-.362c-.208-.132-.447-.432-.243-.575a.879.879,0,0,1,.76.109,1.6,1.6,0,0,1,.518.463,3.641,3.641,0,0,1,.29.593" transform="translate(151.855 0)" fill="#263238"/>
                <path id="Trazado_874465" data-name="Trazado 874465" d="M97.364,319.852c.017.03.379-.22,1.039-.434a4.778,4.778,0,0,1,4.956,1.225c.484.5.688.887.717.868a.855.855,0,0,0-.128-.279,3.95,3.95,0,0,0-.494-.678,4.633,4.633,0,0,0-5.094-1.259,3.974,3.974,0,0,0-.752.369.88.88,0,0,0-.244.188" transform="translate(129.547 0)" fill="#263238"/>
                <path id="Trazado_874466" data-name="Trazado 874466" d="M92.119,319.43a12.508,12.508,0,0,0,4.065-1.821c-.027-.046-.906.424-2.026.925s-2.056.845-2.039.9" transform="translate(142.685 0)" fill="#263238"/>
                <path id="Trazado_874467" data-name="Trazado 874467" d="M98.171,320.673c-.018.049.162.158.35.323s.322.326.369.3-.03-.252-.248-.441-.457-.23-.471-.183" transform="translate(133.916 0)" fill="#263238"/>
                <path id="Trazado_874468" data-name="Trazado 874468" d="M99.747,319.87c-.018.048.138.151.348.23s.394.1.413.058-.138-.151-.348-.231-.395-.105-.413-.057" transform="translate(130.733 0)" fill="#263238"/>
                <path id="Trazado_874469" data-name="Trazado 874469" d="M101.335,319.96c.032.042.216-.044.452-.066s.433.02.455-.028-.182-.187-.474-.155-.466.213-.433.249" transform="translate(127.413 0)" fill="#263238"/>
                <path id="Trazado_874470" data-name="Trazado 874470" d="M102.918,320.164c0,.051.115.086.251.077s.242-.056.239-.107-.115-.085-.25-.077-.243.056-.24.107" transform="translate(124.662 0)" fill="#263238"/>
                <path id="Trazado_874471" data-name="Trazado 874471" d="M108.642,302.985l.328.821-14.311,7.04-.48-.942Z" transform="translate(127.84 0)" fill="#455a64"/>
                <path id="Trazado_874472" data-name="Trazado 874472" d="M87.863,235.731s66.786-18.83,73.261-16.216,40.921,80.1,40.921,80.1l-22.916,10.872-31.552-66.141s-44.684,24.648-53.465,17.316c-10.643-8.887-6.394-28.953-6.249-25.927" transform="translate(42.038 0)" fill="#12263f"/>
                <path id="Trazado_874473" data-name="Trazado 874473" d="M128.55,236.721c1.014.273,55.085,0,64.144,10.694,3.65,4.308,1.232,91.118,1.232,91.118-1-.031-23.688-.586-23.688-.586l-.653-74.967-38.551-.035a3.652,3.652,0,0,1-3.644-3.841Z" transform="translate(8.892 0)" fill="#12263f"/>
                <path id="Trazado_874474" data-name="Trazado 874474" d="M140.554,259.112a2.42,2.42,0,0,0,.564-.094l1.594-.366,5.837-1.434c4.92-1.241,11.722-2.967,19.119-5.291,3.7-1.175,7.179-2.413,10.31-3.633,7.016-2.784.238.308,8.183-3.567,2.286-1.11,4.109-2.064,5.335-2.782l1.413-.824a2.481,2.481,0,0,0,.476-.317,2.35,2.35,0,0,0-.526.227l-1.457.739c-1.253.663-3.1,1.566-5.394,2.631s-5.077,2.244-8.2,3.455c-3.131,1.193-6.607,2.414-10.294,3.585-7.378,2.319-14.159,4.1-19.056,5.428l-5.8,1.591-1.57.458a2.453,2.453,0,0,0-.538.194" transform="translate(-2.951 0)" fill="#455a64"/>
                <path id="Trazado_874475" data-name="Trazado 874475" d="M152.424,260.394a15.231,15.231,0,0,0-4.936,2.527,15.232,15.232,0,0,0,4.936-2.527" transform="translate(31.076 0)" fill="#455a64"/>
                <path id="Trazado_874476" data-name="Trazado 874476" d="M152.775,258.247a26.961,26.961,0,0,0-1.57,2.511,27.255,27.255,0,0,0-1.716,2.414,7.633,7.633,0,0,0,3.286-4.925" transform="translate(28.705 0)" fill="#455a64"/>
                <path id="Trazado_874477" data-name="Trazado 874477" d="M127.727,240.6a10.316,10.316,0,0,0,1.586.062,19.2,19.2,0,0,1,4.254.448,7.346,7.346,0,0,1,4.913,3.515c1.128,2.084,1.2,4.8,1.228,7.556.079,5.572.18,10.615.279,14.265.058,1.755.107,3.21.144,4.323a9.281,9.281,0,0,0,.124,1.583,9.28,9.28,0,0,0,.079-1.586c.005-1.114.013-2.57.021-4.325,0-3.651-.047-8.7-.126-14.267-.029-2.758-.1-5.558-1.328-7.779a6.712,6.712,0,0,0-2.423-2.529,9.249,9.249,0,0,0-2.826-1.114,16.993,16.993,0,0,0-4.341-.292,8.408,8.408,0,0,0-1.584.14" transform="translate(62.906 0)" fill="#455a64"/>
                <path id="Trazado_874478" data-name="Trazado 874478" d="M128.586,141.131c-.285.4-10.547,29.165-10.547,29.165l16.629,3.322,9.19-23.421Z" transform="translate(69.091 0)" fill="#abb4c0"/>
                <path id="Trazado_874479" data-name="Trazado 874479" d="M134.593,170.3l-1.457-.895,10.608-29.128,1.571.962Z" transform="translate(52.538 0)" fill="#263238"/>
                <path id="Trazado_874480" data-name="Trazado 874480" d="M125.394,149.341a.712.712,0,1,0,.878-.494.712.712,0,0,0-.878.494" transform="translate(78.828 0)" fill="#263238"/>
                <path id="Trazado_874481" data-name="Trazado 874481" d="M133.2,175.641,149.1,191.23l9.775-23.843.228-1.276-6.241-4.993,3.723-4.58a4.74,4.74,0,0,1,6.966-.319l1.9,1.888a6.736,6.736,0,0,1,1.991,5.11c-.163,3.291-.5,6.8-.479,6.491h0l-5.6,32.931a11.851,11.851,0,0,1-7.4,10.317c-5.64,2.336-11.759-5.063-15.021-7.88l-20.9-19.025Z" transform="translate(45.498 0)" fill="#ffbe9d"/>
                <path id="Trazado_874482" data-name="Trazado 874482" d="M138.088,192.489l20.115,3.129.481-1.2-6.378,43.155L201.482,223.4l-1.432-25.29L216.8,186.02l-12.816-19.651a22.609,22.609,0,0,0-15.126-8.946c-1.773-.242-3.121-.359-4-.469a25.718,25.718,0,0,1-15.5-.009,22.436,22.436,0,0,0-6.418,1.23c-1.525.517-2.986.922-4.377,1.327a17.759,17.759,0,0,0-11.51,10.488Z" transform="translate(-23.902 0)" fill="#75baf1"/>
                <path id="Trazado_874483" data-name="Trazado 874483" d="M215.88,241.31c.17-2-8.145-3.117-8.842-3.263-.676-.142-.509-1.158.113-.992.894.238,10.346,2.507,10.532.54.1-1.09-1.872-1.093-1.872-1.093s-9-1.472-8.881-2.4,5.434-.254,7.209.105c1.755.353,2.636-.337,2.147-1.244-.333-.619-5.744-1.844-7.508-2.157s-6.617-1.085-3.915-2.651,4.19-3.787,4.174-4.668a.977.977,0,0,0-1.807-.387,11.373,11.373,0,0,1-2.375,2.067,7.444,7.444,0,0,1-2.277,1.092c-.952.267-1.768.455-2.468.6-4.721-1.486-17.872-6.146-27.175-14.506-1.68-1.509,2.741-17,2.741-17l-17.934-2.363-2.564,15.255c-3.49,20.764,42.981,31.2,42.981,31.2l.014-.045a93.19,93.19,0,0,0,9.3,3.834c4.448,1.351,4.575.954,4.644.409.184-1.464-7.736-2.672-5.883-3.4s9.515,2.6,9.646,1.066" transform="translate(-41.69 0)" fill="#ffbe9d"/>
                <path id="Trazado_874484" data-name="Trazado 874484" d="M152.126,166.723a2.4,2.4,0,0,0,.434.38,12.048,12.048,0,0,0,1.363.937,16.214,16.214,0,0,0,5.708,2.07,16.424,16.424,0,0,0,8.924-.99c1.588-.623,3.168-1.441,4.869-2.089a14.055,14.055,0,0,1,5.473-.973c3.866.075,7.419,1.308,10.689,2.151a23.709,23.709,0,0,0,8.946,1.01,11.478,11.478,0,0,0,5.658-2.164,5.993,5.993,0,0,0,1.546-1.606,15.718,15.718,0,0,1-1.666,1.442,11.7,11.7,0,0,1-5.579,1.962,23.958,23.958,0,0,1-8.781-1.107c-3.243-.861-6.824-2.129-10.806-2.209a14.46,14.46,0,0,0-5.662,1.017c-1.736.67-3.31,1.5-4.865,2.12a16.3,16.3,0,0,1-8.689,1.072,16.983,16.983,0,0,1-5.665-1.882c-1.244-.687-1.865-1.184-1.9-1.141" transform="translate(-26.873 0)" fill="#fafafa"/>
                <path id="Trazado_874485" data-name="Trazado 874485" d="M142.822,185.58c-.007.006.034.059.12.155a5.439,5.439,0,0,0,.4.414,8.873,8.873,0,0,0,1.792,1.3,13.629,13.629,0,0,0,7.929,1.419,29.464,29.464,0,0,0,5.5-1.133c1.938-.557,3.964-1.272,6.128-1.879a24.194,24.194,0,0,1,6.906-1.062,26.293,26.293,0,0,1,7.368,1.438c2.476.778,4.874,1.677,7.295,2.226a18.376,18.376,0,0,0,7.126.418,14.734,14.734,0,0,0,5.921-2.579c1.669-1.147,3.1-2.362,4.452-3.393a17.183,17.183,0,0,1,7.09-3.6,11.341,11.341,0,0,1,2.933-.116c0-.009-.062-.027-.189-.053s-.315-.068-.567-.094a8.342,8.342,0,0,0-2.212.064,16.841,16.841,0,0,0-7.276,3.507c-1.378,1.019-2.819,2.215-4.473,3.33a14.4,14.4,0,0,1-5.758,2.463,18.018,18.018,0,0,1-6.931-.442c-2.379-.546-4.759-1.441-7.254-2.226a26.549,26.549,0,0,0-7.516-1.451,24.453,24.453,0,0,0-7.046,1.11c-2.182.626-4.2,1.357-6.119,1.927a29.816,29.816,0,0,1-5.415,1.181,13.726,13.726,0,0,1-7.8-1.232,12.857,12.857,0,0,1-2.408-1.688" transform="translate(-25.615 0)" fill="#fafafa"/>
                <path id="Trazado_874486" data-name="Trazado 874486" d="M154.573,200.806a15.093,15.093,0,0,1,1.712-.016,14.328,14.328,0,0,1,4.411,1.472,28.861,28.861,0,0,0,3.028,1.257,14.159,14.159,0,0,0,3.731.649,26.731,26.731,0,0,0,8.514-1.262c2.93-.843,5.662-1.8,8.223-2.332a19.88,19.88,0,0,1,6.875-.4,12.662,12.662,0,0,1,4.418,1.4c.966.534,1.436.94,1.468.9.011-.014-.1-.122-.321-.317a7.407,7.407,0,0,0-1.045-.758,11.99,11.99,0,0,0-4.467-1.588,19.567,19.567,0,0,0-7.026.289c-2.6.52-5.359,1.465-8.268,2.3a27.1,27.1,0,0,1-8.352,1.282,14,14,0,0,1-3.621-.581,30.574,30.574,0,0,1-3.008-1.181,13.373,13.373,0,0,0-4.545-1.338,5.57,5.57,0,0,0-1.293.092,1.452,1.452,0,0,0-.434.126" transform="translate(-20.539 0)" fill="#fafafa"/>
                <path id="Trazado_874487" data-name="Trazado 874487" d="M154.573,215.094a13.15,13.15,0,0,1,1.691,0,13.052,13.052,0,0,1,4.278,1.666,16.255,16.255,0,0,0,3,1.257,14.524,14.524,0,0,0,3.7.551,28,28,0,0,0,8.4-1.342c2.894-.843,5.6-1.776,8.132-2.294a19.685,19.685,0,0,1,6.8-.355,12.6,12.6,0,0,1,4.364,1.4c.955.529,1.42.93,1.451.89.012-.014-.1-.121-.316-.314a7.458,7.458,0,0,0-1.033-.751,11.907,11.907,0,0,0-4.411-1.588,19.351,19.351,0,0,0-6.949.249c-2.579.5-5.306,1.427-8.18,2.263a28.45,28.45,0,0,1-8.25,1.363,14.362,14.362,0,0,1-3.6-.487,16.458,16.458,0,0,1-2.954-1.171,12.277,12.277,0,0,0-4.422-1.538,5.212,5.212,0,0,0-1.281.081,1.418,1.418,0,0,0-.429.126" transform="translate(-19.979 0)" fill="#fafafa"/>
                <path id="Trazado_874488" data-name="Trazado 874488" d="M185.654,191.386c.005-.028-.186-.107-.554-.09a2.359,2.359,0,0,0-1.412.611,2.259,2.259,0,0,0-.743,2.173,2.513,2.513,0,0,0,2.01,1.963,2.467,2.467,0,0,0,2.468-1.34,2.127,2.127,0,0,0-.237-2.283,2.193,2.193,0,0,0-1.295-.836c-.365-.066-.565,0-.562.024,0,.043.2.054.506.171a2.21,2.21,0,0,1,1.051.855,1.761,1.761,0,0,1,.112,1.847,2.027,2.027,0,0,1-1.969,1.047,2.074,2.074,0,0,1-1.616-1.553,1.91,1.91,0,0,1,.529-1.8,3.06,3.06,0,0,1,1.712-.787" transform="translate(-39.558 0)" fill="#fafafa"/>
                <path id="Trazado_874489" data-name="Trazado 874489" d="M164.707,204.959c.005-.028-.186-.107-.553-.09a2.359,2.359,0,0,0-1.413.611,2.259,2.259,0,0,0-.743,2.173,2.513,2.513,0,0,0,2.01,1.963,2.467,2.467,0,0,0,2.468-1.34,2.125,2.125,0,0,0-.237-2.283,2.187,2.187,0,0,0-1.3-.836c-.364-.066-.563,0-.561.024,0,.043.2.054.506.171a2.21,2.21,0,0,1,1.051.855,1.761,1.761,0,0,1,.112,1.847,2.027,2.027,0,0,1-1.969,1.047,2.074,2.074,0,0,1-1.616-1.553,1.91,1.91,0,0,1,.529-1.8,3.06,3.06,0,0,1,1.712-.787" transform="translate(2.335 0)" fill="#fafafa"/>
                <path id="Trazado_874490" data-name="Trazado 874490" d="M165.343,177.61c.005-.028-.186-.107-.554-.09a2.359,2.359,0,0,0-1.412.611,2.259,2.259,0,0,0-.743,2.173,2.513,2.513,0,0,0,2.01,1.963,2.467,2.467,0,0,0,2.468-1.34,2.125,2.125,0,0,0-.237-2.283,2.193,2.193,0,0,0-1.295-.836c-.365-.066-.564,0-.562.024s.2.054.506.171a2.2,2.2,0,0,1,1.051.855,1.761,1.761,0,0,1,.112,1.847,2.027,2.027,0,0,1-1.969,1.047A2.074,2.074,0,0,1,163.1,180.2a1.91,1.91,0,0,1,.529-1.8,3.069,3.069,0,0,1,1.712-.787" transform="translate(1.063 0)" fill="#fafafa"/>
                <path id="Trazado_874491" data-name="Trazado 874491" d="M200.021,176.1c0-.028-.186-.107-.553-.09a2.359,2.359,0,0,0-1.413.611,2.259,2.259,0,0,0-.743,2.173,2.513,2.513,0,0,0,2.01,1.963,2.467,2.467,0,0,0,2.468-1.34,2.125,2.125,0,0,0-.237-2.283,2.193,2.193,0,0,0-1.295-.836c-.365-.066-.564,0-.562.024,0,.043.2.054.506.171a2.21,2.21,0,0,1,1.051.855,1.761,1.761,0,0,1,.112,1.847,2.027,2.027,0,0,1-1.969,1.047,2.074,2.074,0,0,1-1.616-1.553,1.91,1.91,0,0,1,.529-1.8,3.06,3.06,0,0,1,1.712-.787" transform="translate(-68.293 0)" fill="#fafafa"/>
                <path id="Trazado_874492" data-name="Trazado 874492" d="M186.445,159.326c.005-.028-.186-.107-.554-.09a2.36,2.36,0,0,0-1.412.611,2.259,2.259,0,0,0-.743,2.173,2.513,2.513,0,0,0,2.01,1.963,2.467,2.467,0,0,0,2.468-1.34,2.127,2.127,0,0,0-.237-2.283,2.192,2.192,0,0,0-1.3-.836c-.364-.066-.563,0-.561.024,0,.043.2.054.506.171a2.21,2.21,0,0,1,1.051.855,1.761,1.761,0,0,1,.112,1.847,2.028,2.028,0,0,1-1.969,1.047,2.074,2.074,0,0,1-1.616-1.553,1.91,1.91,0,0,1,.529-1.8,3.069,3.069,0,0,1,1.712-.787" transform="translate(-41.14 0)" fill="#fafafa"/>
                <path id="Trazado_874493" data-name="Trazado 874493" d="M154.99,199.826a17.57,17.57,0,0,0,.158-3.156c.019-1.95-.021-4.642-.106-7.613-.1-2.89-.187-5.5-.258-7.606a20.62,20.62,0,0,0-.211-3.15,17.5,17.5,0,0,0-.157,3.155c-.02,1.95.02,4.643.1,7.615.1,2.889.187,5.5.258,7.6a20.623,20.623,0,0,0,.211,3.15" transform="translate(21.423 0)" fill="#263238"/>
                <path id="Trazado_874494" data-name="Trazado 874494" d="M189.527,192.489a1.937,1.937,0,0,0,.466.113l1.356.237,5.064.8,7.672,1.153c1.461.211,3,.456,4.617.668,1.62.192,3.307.393,5.05.6l.25.03.03-.26c.263-2.244.464-4.6.8-7.033.551-4.327,1.075-8.447,1.554-12.205a26.664,26.664,0,0,0-.111-10.048c-.736-2.771-1.783-4.948-2.992-6.065a4.609,4.609,0,0,0-1.557-1.011,2.364,2.364,0,0,0-.629-.154,5.416,5.416,0,0,1,2.042,1.309,13.394,13.394,0,0,1,2.778,6.01,26.9,26.9,0,0,1-.008,9.907c-.49,3.75-1.027,7.861-1.592,12.179-.333,2.419-.535,4.815-.789,7.067l.281-.23-5.045-.571-4.622-.627-7.686-1.041-5.084-.65L190,192.511a1.957,1.957,0,0,0-.477-.022" transform="translate(-75.341 0)" fill="#263238"/>
                <g id="Grupo_1101160" data-name="Grupo 1101160" transform="translate(132.687 171.326)" opacity="0.3">
                  <g id="Grupo_1101159" data-name="Grupo 1101159" transform="translate(0)">
                    <g id="Grupo_1101158" data-name="Grupo 1101158" transform="translate(0)" clip-path="url(#clip-path-9)">
                      <path id="Trazado_874495" data-name="Trazado 874495" d="M197.3,171.326s2.254,27.164,0,27.7-4.28.8-4.28.8-4.318,13.4-4.275,13.026,1.613-17.233,1.613-17.233l4.138.186Z" transform="translate(-188.743 -171.326)"/>
                    </g>
                  </g>
                </g>
                <g id="Grupo_1101163" data-name="Grupo 1101163" transform="translate(176.148 180.844)" opacity="0.3">
                  <g id="Grupo_1101162" data-name="Grupo 1101162" transform="translate(0)">
                    <g id="Grupo_1101161" data-name="Grupo 1101161" transform="translate(0)" clip-path="url(#clip-path-10)">
                      <path id="Trazado_874496" data-name="Trazado 874496" d="M150.9,180.844l3.945,14.223-4.211,3.038Z" transform="translate(-150.629 -180.844)"/>
                    </g>
                  </g>
                </g>
              </g>
            </g>
            <g id="Grupo_1101167" data-name="Grupo 1101167">
              <g id="Grupo_1101166" data-name="Grupo 1101166" clip-path="url(#clip-path-2)">
                <path id="Trazado_874497" data-name="Trazado 874497" d="M110.238,110.946c-7.26-16.97-2.854-34.668,9.084-48.745a51.115,51.115,0,0,1,50.023-16.22,55.921,55.921,0,0,1,110.912,7.212,41.858,41.858,0,0,1,31.968,56.8Z" transform="translate(-90.865 0)" fill="#75baf1"/>
                <path id="Trazado_874498" data-name="Trazado 874498" d="M185.3,67.584c.372.032.171-3.384,2.222-8.189a23.9,23.9,0,0,1,5.055-7.443,23.459,23.459,0,0,1,9.368-5.6,23.726,23.726,0,0,1,10.9-.6A23.364,23.364,0,0,1,221.2,49.1c4.356,2.87,6.145,5.772,6.415,5.554.087-.057-.23-.845-1.118-2.078a20.812,20.812,0,0,0-4.546-4.561,22.876,22.876,0,0,0-8.766-3.943,23.433,23.433,0,0,0-21.833,6.677,23.327,23.327,0,0,0-5.059,8.169,21.241,21.241,0,0,0-1.239,6.321c.034,1.524.116,2.349.245,2.349" transform="translate(-81.687 0)" fill="#fff"/>
                <path id="Trazado_874499" data-name="Trazado 874499" d="M231.976,59.378c-.312-.41-5.431,2.959-11.432,7.524l-.334.255,1.444.434c-2.439-6.937-4.767-12.353-5.244-12.187s1.074,5.855,3.484,12.8l.42,1.212,1.025-.777.334-.255c6-4.564,10.615-8.6,10.3-9.008" transform="translate(-117.327 0)" fill="#fff"/>
                <path id="Trazado_874500" data-name="Trazado 874500" d="M222.46,63.747c-.379.015.228,3.282-1.149,8.164a23.657,23.657,0,0,1-3.874,7.832,22.575,22.575,0,0,1-8.171,6.749,25.482,25.482,0,0,1-2.583,1.1c-.888.249-1.752.549-2.63.719A23.057,23.057,0,0,1,190.358,87.1a26.5,26.5,0,0,1-5.246-2.884c-1.18-.81-1.8-1.326-1.906-1.217-.075.073.373.767,1.447,1.779A20.369,20.369,0,0,0,189.82,88.3a22.585,22.585,0,0,0,9.061,2.249,23.512,23.512,0,0,0,5.545-.457c.951-.173,1.893-.484,2.855-.752a25.669,25.669,0,0,0,2.806-1.177,23.215,23.215,0,0,0,12.505-15.943,22.645,22.645,0,0,0,.466-3.552c.016-1.052-.023-1.959-.073-2.691-.217-1.465-.4-2.25-.525-2.234" transform="translate(-75.272 0)" fill="#fff"/>
                <path id="Trazado_874501" data-name="Trazado 874501" d="M177.784,73.241c.36.369,5.028-3.6,10.426-8.865l.3-.294-1.487-.254c3.269,6.586,6.241,11.678,6.695,11.454S191.937,69.6,188.7,63l-.565-1.151-.922.9-.3.293c-5.4,5.264-9.484,9.831-9.124,10.2" transform="translate(-40.551 0)" fill="#fff"/>
              </g>
            </g>
          </g>
        </g>
      </g>
    </g>
  </g>
</svg>
