<svg xmlns="http://www.w3.org/2000/svg" xmlns:xlink="http://www.w3.org/1999/xlink" width="371.387" height="296.426" viewBox="0 0 371.387 296.426">
  <defs>
    <linearGradient id="linear-gradient" x1="0.814" y1="0.117" x2="0.236" y2="0.921" gradientUnits="objectBoundingBox">
      <stop offset="0" stop-color="#be79ca"/>
      <stop offset="1" stop-color="#371f63"/>
    </linearGradient>
    <clipPath id="clip-path">
      <path id="Unión_4" data-name="Unión 4" d="M128.744,296H25.413V237.072a139.784,139.784,0,0,1,0-160.735V0h174l-5.2,28.008a139.744,139.744,0,0,1-54.489,268.416Q134.182,296.425,128.744,296Z" transform="translate(-5980.414 -9017)" fill="#6e3dc6"/>
    </clipPath>
    <clipPath id="clip-path-2">
      <rect id="Rectángulo_402408" data-name="Rectángulo 402408" width="248.999" height="228.286" fill="none"/>
    </clipPath>
    <clipPath id="clip-path-4">
      <rect id="Rectángulo_402361" data-name="Rectángulo 402361" width="89.315" height="98.966" fill="none"/>
    </clipPath>
    <clipPath id="clip-path-7">
      <rect id="Rectángulo_402377" data-name="Rectángulo 402377" width="128.411" height="103.13" fill="none"/>
    </clipPath>
    <clipPath id="clip-path-9">
      <rect id="Rectángulo_402398" data-name="Rectángulo 402398" width="4.55" height="5.17" fill="none"/>
    </clipPath>
    <clipPath id="clip-path-10">
      <rect id="Rectángulo_402399" data-name="Rectángulo 402399" width="10.235" height="12.222" fill="none"/>
    </clipPath>
    <clipPath id="clip-path-11">
      <rect id="Rectángulo_402400" data-name="Rectángulo 402400" width="1.873" height="7.698" fill="none"/>
    </clipPath>
    <clipPath id="clip-path-12">
      <rect id="Rectángulo_402401" data-name="Rectángulo 402401" width="4.216" height="4.509" fill="none"/>
    </clipPath>
    <clipPath id="clip-path-13">
      <rect id="Rectángulo_402402" data-name="Rectángulo 402402" width="5.218" height="5.78" fill="none"/>
    </clipPath>
    <clipPath id="clip-path-14">
      <rect id="Rectángulo_402403" data-name="Rectángulo 402403" width="10.367" height="33.325" fill="none"/>
    </clipPath>
    <clipPath id="clip-path-15">
      <rect id="Rectángulo_402404" data-name="Rectángulo 402404" width="1.606" height="2.364" fill="none"/>
    </clipPath>
    <clipPath id="clip-path-16">
      <rect id="Rectángulo_402405" data-name="Rectángulo 402405" width="1.601" height="2.384" fill="none"/>
    </clipPath>
  </defs>
  <g id="Grupo_1102806" data-name="Grupo 1102806" transform="translate(-942.618 -10025.355)">
    <g id="Grupo_1102726" data-name="Grupo 1102726" transform="translate(0 3834.138)">
      <g id="Grupo_1101306" data-name="Grupo 1101306" transform="translate(13641.005 18817.219)">
        <path id="Trazado_145968" data-name="Trazado 145968" d="M61.939,0a61.939,61.939,0,1,0,61.939,61.939A61.939,61.939,0,0,0,61.939,0Z" transform="translate(-12688.868 -12458.757)" fill="#75baf1" opacity="0.444"/>
        <path id="Trazado_145969" data-name="Trazado 145969" d="M42.323,0A42.323,42.323,0,1,0,84.647,42.323,42.323,42.323,0,0,0,42.323,0Z" transform="translate(-12446.252 -12592.855)" fill="#75baf1" opacity="0.444"/>
        <rect id="Rectángulo_34812" data-name="Rectángulo 34812" width="371.387" height="278.54" transform="translate(-12698.387 -12608.565)" fill="none"/>
        <path id="Trazado_145967" data-name="Trazado 145967" d="M139.721,0A139.72,139.72,0,1,0,279.441,139.72,139.721,139.721,0,0,0,139.721,0Z" transform="translate(-12652.414 -12609.016)" fill="url(#linear-gradient)"/>
        <path id="Trazado_145971" data-name="Trazado 145971" d="M11.637,0A11.637,11.637,0,1,0,23.273,11.637,11.637,11.637,0,0,0,11.637,0Z" transform="translate(-12396.246 -12376.358)" fill="#75baf1"/>
        <path id="Elipse_4044" data-name="Elipse 4044" d="M15.781,4.265A11.516,11.516,0,1,1,4.265,15.781,11.529,11.529,0,0,1,15.781,4.265m0-4.265A15.781,15.781,0,1,0,31.562,15.781,15.781,15.781,0,0,0,15.781,0Z" transform="translate(-12427.809 -12509.35)" fill="#fff"/>
      </g>
      <g id="Grupo_1102084" data-name="Grupo 1102084" transform="translate(1010.001 6259.359)">
        <g id="Grupo_1102083" data-name="Grupo 1102083" clip-path="url(#clip-path-2)">
          <rect id="Rectángulo_402356" data-name="Rectángulo 402356" width="87.135" height="121.863" transform="translate(10.292 8.603)" fill="#e6e6e6"/>
          <rect id="Rectángulo_402357" data-name="Rectángulo 402357" width="87.135" height="121.863" transform="translate(8.356 8.603)" fill="#f5f5f5"/>
          <rect id="Rectángulo_402358" data-name="Rectángulo 402358" width="80.183" height="114.055" transform="translate(11.832 12.507)" fill="#fff"/>
          <rect id="Rectángulo_402359" data-name="Rectángulo 402359" width="1.464" height="114.055" transform="translate(11.832 12.507)" fill="#e6e6e6"/>
          <rect id="Rectángulo_402360" data-name="Rectángulo 402360" width="84.259" height="5.242" transform="translate(9.794 50.731)" fill="#f5f5f5"/>
          <g id="Grupo_1102047" data-name="Grupo 1102047">
            <g id="Grupo_1102046" data-name="Grupo 1102046" clip-path="url(#clip-path-2)">
              <path id="Trazado_876618" data-name="Trazado 876618" d="M6.814,3.333h96.649a.536.536,0,1,1,0,1.071H6.814a.536.536,0,0,1,0-1.071" transform="translate(-2.247 -1.193)" fill="#e6e6e6"/>
              <path id="Trazado_876619" data-name="Trazado 876619" d="M2.112,2.676A2.675,2.675,0,1,0,4.788,0,2.676,2.676,0,0,0,2.112,2.676" transform="translate(-0.756)" fill="#e6e6e6"/>
              <path id="Trazado_876620" data-name="Trazado 876620" d="M150.2,7.164h0a.724.724,0,0,0,.722-.722V4.889a.722.722,0,1,0-1.445,0V6.441a.724.724,0,0,0,.722.722" transform="translate(-53.495 -1.491)" fill="#e6e6e6"/>
              <path id="Trazado_876621" data-name="Trazado 876621" d="M19.276,7.164h0A.724.724,0,0,0,20,6.441V4.889a.722.722,0,0,0-1.445,0V6.441a.724.724,0,0,0,.722.722" transform="translate(-6.64 -1.491)" fill="#e6e6e6"/>
              <g id="Grupo_1102045" data-name="Grupo 1102045" transform="translate(4.737 2.676)" opacity="0.5">
                <g id="Grupo_1102044" data-name="Grupo 1102044">
                  <g id="Grupo_1102043" data-name="Grupo 1102043" clip-path="url(#clip-path-4)">
                    <path id="Trazado_876622" data-name="Trazado 876622" d="M21.09,103.133h61.89A13.712,13.712,0,0,0,96.693,89.421V4.167H7.378V89.421A13.712,13.712,0,0,0,21.09,103.133" transform="translate(-7.378 -4.167)" fill="#e0e0e0"/>
                  </g>
                </g>
              </g>
              <path id="Trazado_876623" data-name="Trazado 876623" d="M133.035,2.676A2.675,2.675,0,1,0,135.711,0a2.676,2.676,0,0,0-2.676,2.676" transform="translate(-47.611)" fill="#e6e6e6"/>
              <rect id="Rectángulo_402362" data-name="Rectángulo 402362" width="74.534" height="74.735" transform="translate(153.583 9.453)" fill="#f0f0f0"/>
              <rect id="Rectángulo_402363" data-name="Rectángulo 402363" width="1.287" height="74.735" transform="translate(228.117 9.453)" fill="#e0e0e0"/>
              <path id="Trazado_876624" data-name="Trazado 876624" d="M280.117,87.367h0A30.687,30.687,0,0,1,249.43,56.68V52.759a30.687,30.687,0,1,1,61.374,0V56.68a30.687,30.687,0,0,1-30.687,30.687" transform="translate(-89.267 -7.899)" fill="#fff"/>
              <path id="Trazado_876625" data-name="Trazado 876625" d="M301.61,79.089H278.217a1.412,1.412,0,0,1-1.412-1.412V52.609a1.412,1.412,0,0,1,1.412-1.412H301.61a1.412,1.412,0,0,1,1.412,1.412V77.677a1.412,1.412,0,0,1-1.412,1.412" transform="translate(-99.064 -18.323)" fill="#f5f5f5"/>
              <rect id="Rectángulo_402364" data-name="Rectángulo 402364" width="17.199" height="38.133" transform="translate(82.676 158.656)" fill="#f0f0f0"/>
              <rect id="Rectángulo_402365" data-name="Rectángulo 402365" width="84.817" height="2.416" transform="translate(11.756 196.789)" fill="#f0f0f0"/>
              <rect id="Rectángulo_402366" data-name="Rectángulo 402366" width="74.223" height="38.133" transform="translate(8.453 158.656)" fill="#f5f5f5"/>
              <path id="Trazado_876626" data-name="Trazado 876626" d="M84.216,267.041h-60.7a.321.321,0,0,1-.321-.321V254.214a.321.321,0,0,1,.321-.321h60.7a.321.321,0,0,1,.321.321V266.72a.321.321,0,0,1-.321.321M23.837,266.4H83.894V254.535H23.837Z" transform="translate(-8.301 -90.864)" fill="#f0f0f0"/>
              <path id="Trazado_876627" data-name="Trazado 876627" d="M84.216,292.331h-60.7a.321.321,0,0,1-.321-.321V279.5a.321.321,0,0,1,.321-.321h60.7a.321.321,0,0,1,.321.321V292.01a.321.321,0,0,1-.321.321m-60.379-.642H83.894V279.824H23.837Z" transform="translate(-8.301 -99.915)" fill="#f0f0f0"/>
              <path id="Trazado_876628" data-name="Trazado 876628" d="M58.494,264.511H73.962a.76.76,0,0,0,.758-.758v-.2a.76.76,0,0,0-.758-.758H58.494a.76.76,0,0,0-.758.758v.2a.76.76,0,0,0,.758.758" transform="translate(-20.663 -94.05)" fill="#fff"/>
              <path id="Trazado_876629" data-name="Trazado 876629" d="M58.494,289.8H73.962a.76.76,0,0,0,.758-.758v-.2a.76.76,0,0,0-.758-.758H58.494a.76.76,0,0,0-.758.758v.2a.76.76,0,0,0,.758.758" transform="translate(-20.663 -103.101)" fill="#fff"/>
              <path id="Trazado_876630" data-name="Trazado 876630" d="M55.976,237.084s-.207,6.421-8.132,6.421-8.132-6.421-8.132-6.421Z" transform="translate(-14.212 -84.848)" fill="#f5f5f5"/>
              <path id="Trazado_876631" data-name="Trazado 876631" d="M84.85,237.084s-.207,6.421-8.132,6.421-8.132-6.421-8.132-6.421Z" transform="translate(-24.545 -84.848)" fill="#f5f5f5"/>
              <path id="Trazado_876632" data-name="Trazado 876632" d="M113.723,237.084s-.207,6.421-8.132,6.421-8.132-6.421-8.132-6.421Z" transform="translate(-34.879 -84.848)" fill="#f5f5f5"/>
              <rect id="Rectángulo_402367" data-name="Rectángulo 402367" width="12.978" height="85.086" transform="translate(236.022 110.279)" fill="#f0f0f0"/>
              <rect id="Rectángulo_402368" data-name="Rectángulo 402368" width="107.019" height="3.911" transform="translate(138.556 195.365)" fill="#f0f0f0"/>
              <rect id="Rectángulo_402369" data-name="Rectángulo 402369" width="100.889" height="85.086" transform="translate(135.132 110.279)" fill="#f5f5f5"/>
              <rect id="Rectángulo_402370" data-name="Rectángulo 402370" width="86.867" height="20.243" transform="translate(142.144 141.03)" fill="#f0f0f0"/>
              <rect id="Rectángulo_402371" data-name="Rectángulo 402371" width="86.867" height="20.243" transform="translate(142.144 167.525)" fill="#f0f0f0"/>
              <path id="Trazado_876633" data-name="Trazado 876633" d="M249.255,220.248h50.112a1.318,1.318,0,0,0,1.314-1.314v-.148a1.318,1.318,0,0,0-1.314-1.314H249.255a1.318,1.318,0,0,0-1.314,1.314v.148a1.318,1.318,0,0,0,1.314,1.314" transform="translate(-88.734 -77.829)" fill="#f5f5f5"/>
              <path id="Trazado_876634" data-name="Trazado 876634" d="M249.255,261.509h50.112a1.318,1.318,0,0,0,1.314-1.314v-.148a1.318,1.318,0,0,0-1.314-1.314H249.255a1.318,1.318,0,0,0-1.314,1.314v.148a1.318,1.318,0,0,0,1.314,1.314" transform="translate(-88.734 -92.596)" fill="#f5f5f5"/>
              <rect id="Rectángulo_402372" data-name="Rectángulo 402372" width="86.867" height="20.243" transform="translate(142.144 114.536)" fill="#f0f0f0"/>
              <path id="Trazado_876635" data-name="Trazado 876635" d="M249.255,178.987h50.112a1.318,1.318,0,0,0,1.314-1.314v-.148a1.318,1.318,0,0,0-1.314-1.314H249.255a1.318,1.318,0,0,0-1.314,1.314v.148a1.318,1.318,0,0,0,1.314,1.314" transform="translate(-88.734 -63.063)" fill="#f5f5f5"/>
            </g>
          </g>
          <g id="Grupo_1102049" data-name="Grupo 1102049">
            <g id="Grupo_1102048" data-name="Grupo 1102048" clip-path="url(#clip-path-2)">
              <path id="Trazado_876636" data-name="Trazado 876636" d="M249,340.145c0,4.016-55.74,7.271-124.5,7.271S0,344.16,0,340.145s55.74-7.271,124.5-7.271S249,336.13,249,340.145" transform="translate(0 -119.13)" fill="#f5f5f5"/>
            </g>
          </g>
          <rect id="Rectángulo_402375" data-name="Rectángulo 402375" width="0.642" height="3.387" transform="matrix(0.113, -0.994, 0.994, 0.113, 148.637, 20.738)" fill="#407bff"/>
          <rect id="Rectángulo_402376" data-name="Rectángulo 402376" width="0.642" height="10.998" transform="matrix(0.113, -0.994, 0.994, 0.113, 134.024, 19.082)" fill="#407bff"/>
          <g id="Grupo_1102054" data-name="Grupo 1102054">
            <g id="Grupo_1102053" data-name="Grupo 1102053" clip-path="url(#clip-path-2)">
              <path id="Trazado_876637" data-name="Trazado 876637" d="M252.326,133.524,136.8,120.426a3.156,3.156,0,0,1-2.772-3.481L144.01,28.9a3.156,3.156,0,0,1,3.481-2.771l115.526,13.1a3.157,3.157,0,0,1,2.771,3.482l-9.982,88.043a3.155,3.155,0,0,1-3.481,2.771" transform="translate(-47.959 -9.345)" fill="#407bff"/>
              <g id="Grupo_1102052" data-name="Grupo 1102052" transform="translate(87.744 18.918)" opacity="0.7">
                <g id="Grupo_1102051" data-name="Grupo 1102051">
                  <g id="Grupo_1102050" data-name="Grupo 1102050" clip-path="url(#clip-path-7)">
                    <path id="Trazado_876638" data-name="Trazado 876638" d="M136.663,117.093l9.7-85.587a2.3,2.3,0,0,1,2.548-2.029l114.1,12.937a2.3,2.3,0,0,1,2.029,2.548l-9.7,85.587a2.3,2.3,0,0,1-2.548,2.029l-114.1-12.936a2.3,2.3,0,0,1-2.029-2.548" transform="translate(-136.648 -29.462)" fill="#263238"/>
                  </g>
                </g>
              </g>
              <rect id="Rectángulo_402378" data-name="Rectángulo 402378" width="2.383" height="48.391" transform="matrix(0.113, -0.994, 0.994, 0.113, 148.71, 49.881)" fill="#407bff"/>
              <rect id="Rectángulo_402379" data-name="Rectángulo 402379" width="2.383" height="51.264" transform="translate(153.218 54.216) rotate(-83.532)" fill="#407bff"/>
              <rect id="Rectángulo_402380" data-name="Rectángulo 402380" width="2.383" height="42.475" transform="matrix(0.113, -0.994, 0.994, 0.113, 152.79, 57.993)" fill="#407bff"/>
              <rect id="Rectángulo_402381" data-name="Rectángulo 402381" width="2.383" height="38.048" transform="translate(152.362 61.769) rotate(-83.532)" fill="#407bff"/>
              <rect id="Rectángulo_402382" data-name="Rectángulo 402382" width="2.383" height="31.441" transform="translate(146.729 67.353) rotate(-83.532)" fill="#407bff"/>
              <rect id="Rectángulo_402383" data-name="Rectángulo 402383" width="2.383" height="33.754" transform="matrix(0.113, -0.994, 0.994, 0.113, 150.381, 79.24)" fill="#407bff"/>
              <rect id="Rectángulo_402384" data-name="Rectángulo 402384" width="2.383" height="27.968" transform="translate(150.809 75.464) rotate(-83.531)" fill="#407bff"/>
              <rect id="Rectángulo_402385" data-name="Rectángulo 402385" width="2.383" height="30.803" transform="translate(151.237 71.689) rotate(-83.532)" fill="#407bff"/>
              <rect id="Rectángulo_402386" data-name="Rectángulo 402386" width="2.383" height="31.441" transform="translate(143.464 96.153) rotate(-83.532)" fill="#407bff"/>
              <rect id="Rectángulo_402387" data-name="Rectángulo 402387" width="2.383" height="33.754" transform="matrix(0.113, -0.994, 0.994, 0.113, 147.116, 108.04)" fill="#407bff"/>
              <rect id="Rectángulo_402388" data-name="Rectángulo 402388" width="2.383" height="27.968" transform="translate(147.544 104.264) rotate(-83.531)" fill="#407bff"/>
              <rect id="Rectángulo_402389" data-name="Rectángulo 402389" width="2.383" height="30.803" transform="translate(147.972 100.488) rotate(-83.532)" fill="#407bff"/>
              <rect id="Rectángulo_402390" data-name="Rectángulo 402390" width="2.383" height="25.529" transform="matrix(0.113, -0.994, 0.994, 0.113, 102.547, 26.806)" fill="#fff"/>
              <rect id="Rectángulo_402391" data-name="Rectángulo 402391" width="2.383" height="27.407" transform="translate(105.271 38.588) rotate(-83.532)" fill="#fff"/>
              <rect id="Rectángulo_402392" data-name="Rectángulo 402392" width="2.383" height="22.709" transform="translate(105.699 34.812) rotate(-83.532)" fill="#fff"/>
              <rect id="Rectángulo_402393" data-name="Rectángulo 402393" width="2.383" height="25.01" transform="matrix(0.113, -0.994, 0.994, 0.113, 106.127, 31.036)" fill="#fff"/>
              <rect id="Rectángulo_402394" data-name="Rectángulo 402394" width="2.383" height="33.754" transform="matrix(0.113, -0.994, 0.994, 0.113, 149.097, 90.568)" fill="#407bff"/>
              <rect id="Rectángulo_402395" data-name="Rectángulo 402395" width="2.383" height="27.968" transform="translate(149.525 86.792) rotate(-83.531)" fill="#407bff"/>
              <rect id="Rectángulo_402396" data-name="Rectángulo 402396" width="2.383" height="30.803" transform="translate(149.953 83.016) rotate(-83.532)" fill="#407bff"/>
            </g>
          </g>
          <path id="Trazado_876639" data-name="Trazado 876639" d="M171.655,334.665l-4.245-.094-.591-9.848,4.245.094Z" transform="translate(-59.702 -116.213)" fill="#ffc3bd"/>
          <g id="Grupo_1102080" data-name="Grupo 1102080">
            <g id="Grupo_1102079" data-name="Grupo 1102079" clip-path="url(#clip-path-2)">
              <path id="Trazado_876640" data-name="Trazado 876640" d="M162.76,339.289l4.635.1a.371.371,0,0,1,.355.3l.755,3.792a.617.617,0,0,1-.627.741c-1.671-.065-4.085-.216-6.187-.263-2.457-.054-2.9.374-5.766.076-1.734-.18-2.032-1.983-1.29-2.066a13.52,13.52,0,0,0,7.1-2.371,1.96,1.96,0,0,1,1.03-.308" transform="translate(-55.205 -121.425)" fill="#263238"/>
              <g id="Grupo_1102057" data-name="Grupo 1102057" transform="translate(107.119 208.513)" opacity="0.2">
                <g id="Grupo_1102056" data-name="Grupo 1102056">
                  <g id="Grupo_1102055" data-name="Grupo 1102055" clip-path="url(#clip-path-9)">
                    <path id="Trazado_876641" data-name="Trazado 876641" d="M166.822,324.728l.3,5.076,4.246.094-.3-5.076Z" transform="translate(-166.822 -324.728)"/>
                  </g>
                </g>
              </g>
              <path id="Trazado_876642" data-name="Trazado 876642" d="M147.606,120.666c-1.415,2.769-2.9,5.445-4.483,8.113-1.6,2.661-3.222,5.282-5.157,7.9-.242.328-.513.664-.768.994-.113.153-.3.359-.465.55s-.336.387-.525.561a11.035,11.035,0,0,1-2.431,1.84,13.367,13.367,0,0,1-5.419,1.654,19.09,19.09,0,0,1-5.174-.25,22.143,22.143,0,0,1-2.429-.579,19.7,19.7,0,0,1-2.382-.852l1.023-3.246c.624.071,1.379.15,2.071.191s1.412.037,2.1.03a17.454,17.454,0,0,0,3.95-.5,8.772,8.772,0,0,0,3.132-1.42,5.974,5.974,0,0,0,1.094-1.055,2.806,2.806,0,0,0,.225-.3c.074-.1.141-.186.243-.348l.565-.866c1.509-2.42,2.969-5.072,4.411-7.7l4.336-7.924Z" transform="translate(-42.363 -42.039)" fill="#ffc3bd"/>
              <path id="Trazado_876643" data-name="Trazado 876643" d="M161.675,113.925c.653,3.873-8.165,15.469-8.165,15.469l-6.456-7.759a63.367,63.367,0,0,1,6.293-8.918c3.35-3.755,7.61-3.042,8.328,1.208" transform="translate(-52.628 -39.466)" fill="#fff"/>
              <g id="Grupo_1102060" data-name="Grupo 1102060" transform="translate(97.972 77.709)" opacity="0.2">
                <g id="Grupo_1102059" data-name="Grupo 1102059">
                  <g id="Grupo_1102058" data-name="Grupo 1102058" clip-path="url(#clip-path-10)">
                    <path id="Trazado_876644" data-name="Trazado 876644" d="M161.589,121.068c-2.553.629-6.9,3.365-9.013,8.673l2.911,3.5s5.218-6.858,7.323-11.79a1.107,1.107,0,0,0-1.221-.385" transform="translate(-152.576 -121.02)"/>
                  </g>
                </g>
              </g>
              <path id="Trazado_876645" data-name="Trazado 876645" d="M159.2,110.211s-6.771,8.633-6.325,33.543l22.868,4.133c.792-3.482,1.074-17.639,7.449-33.567a60.644,60.644,0,0,0-7.481-2.35,85.272,85.272,0,0,0-9.721-1.757,43.6,43.6,0,0,0-6.79,0" transform="translate(-54.702 -39.395)" fill="#fff"/>
              <g id="Grupo_1102063" data-name="Grupo 1102063" transform="translate(122.633 84.65)" opacity="0.2">
                <g id="Grupo_1102062" data-name="Grupo 1102062">
                  <g id="Grupo_1102061" data-name="Grupo 1102061" clip-path="url(#clip-path-11)">
                    <path id="Trazado_876646" data-name="Trazado 876646" d="M191.995,131.829a8.835,8.835,0,0,0-.25,7.7c.308-1.592.674-3.262,1.111-5Z" transform="translate(-190.982 -131.829)"/>
                  </g>
                </g>
              </g>
              <path id="Trazado_876647" data-name="Trazado 876647" d="M172.7,110.288s-2.744,5.389.455,8.19c5.593-.48,9.266-6.433,9.266-6.433Z" transform="translate(-61.414 -39.47)" fill="#263238"/>
              <path id="Trazado_876648" data-name="Trazado 876648" d="M108.168,145.092l.07,3.189L111,150.276l1.244-4.374Z" transform="translate(-38.711 -51.926)" fill="#ffc3bd"/>
              <path id="Trazado_876649" data-name="Trazado 876649" d="M118.742,148.023l-4.919-1.67-1.244,4.374s2.864,1.245,5.159-.418Z" transform="translate(-40.29 -52.377)" fill="#ffc3bd"/>
              <path id="Trazado_876650" data-name="Trazado 876650" d="M183.833,95.707c-1.179,3.017-2.827,8.637-1.016,11.12,0,0-2.491,2.909-8.084,3.389-3.2-2.8-1.636-5.146-1.636-5.146,3.638-.2,4.016-2.806,3.847-5.346Z" transform="translate(-61.812 -34.252)" fill="#ffc3bd"/>
              <g id="Grupo_1102066" data-name="Grupo 1102066" transform="translate(115.123 63.094)" opacity="0.2">
                <g id="Grupo_1102065" data-name="Grupo 1102065">
                  <g id="Grupo_1102064" data-name="Grupo 1102064" clip-path="url(#clip-path-12)">
                    <path id="Trazado_876651" data-name="Trazado 876651" d="M183.376,98.26l-4.077,2.375a10.146,10.146,0,0,1-.012,1.779c1.81.928,3.287-.045,4.082-2.005a4.8,4.8,0,0,0,.007-2.149" transform="translate(-179.287 -98.26)"/>
                  </g>
                </g>
              </g>
              <path id="Trazado_876652" data-name="Trazado 876652" d="M175.928,86.334c.259,1.909,6.2-1.218,7.2-1.876s-.148-2.956-2.4-4.8-5.415,2.174-4.8,6.679" transform="translate(-62.934 -28.343)" fill="#263238"/>
              <path id="Trazado_876653" data-name="Trazado 876653" d="M187.459,86.992c-1.815,3.911-2.678,6.293-5.507,7.558-4.256,1.9-8.484-1.869-7.875-6.244.549-3.938,3.424-9.673,7.972-9.732a5.881,5.881,0,0,1,5.41,8.418" transform="translate(-62.278 -28.12)" fill="#ffc3bd"/>
              <path id="Trazado_876654" data-name="Trazado 876654" d="M191.888,92.549c-1.906.284-.562-6.294-.212-7.44s3.412-2.19,5.126.163c2.089,2.868-.419,6.605-4.914,7.277" transform="translate(-68.316 -30.011)" fill="#263238"/>
              <path id="Trazado_876655" data-name="Trazado 876655" d="M187.447,74.735c-1.726-.348-1.233-2.174.035-2.079-1.018-1.237-7.072-2.368-7.387,1.637s7.461,6.227,9.567,6.509l3.157.879c4.217-2.111-.478-5.96-5.372-6.946" transform="translate(-64.449 -25.59)" fill="#263238"/>
              <path id="Trazado_876656" data-name="Trazado 876656" d="M192.884,97.256a4.1,4.1,0,0,1-2.932,1.1c-1.436-.06-1.711-1.451-.941-2.575.693-1.011,2.275-2.2,3.537-1.589a1.841,1.841,0,0,1,.336,3.067" transform="translate(-67.494 -33.649)" fill="#ffc3bd"/>
              <path id="Trazado_876657" data-name="Trazado 876657" d="M150.766,322.447l-4.165.821-2.039-9.62,4.165-.821Z" transform="translate(-51.736 -111.956)" fill="#ffc3bd"/>
              <path id="Trazado_876658" data-name="Trazado 876658" d="M142.793,327.883l4.549-.9a.37.37,0,0,1,.41.214l1.553,3.541a.618.618,0,0,1-.453.859c-1.646.3-4.037.667-6.1,1.073-2.412.475-3.191.526-6.019,1.083-1.71.337-2.525-1.3-1.84-1.6,3.118-1.355,4.486-1.464,6.961-3.756a1.968,1.968,0,0,1,.939-.522" transform="translate(-48.189 -117.02)" fill="#263238"/>
              <g id="Grupo_1102069" data-name="Grupo 1102069" transform="translate(92.826 200.874)" opacity="0.2">
                <g id="Grupo_1102068" data-name="Grupo 1102068">
                  <g id="Grupo_1102067" data-name="Grupo 1102067" clip-path="url(#clip-path-13)">
                    <path id="Trazado_876659" data-name="Trazado 876659" d="M144.563,313.652l1.05,4.958,4.167-.821-1.051-4.958Z" transform="translate(-144.563 -312.831)"/>
                  </g>
                </g>
              </g>
              <path id="Trazado_876660" data-name="Trazado 876660" d="M144.145,329.414a1.314,1.314,0,0,1-.862.08.62.62,0,0,1-.387-.438.326.326,0,0,1,.065-.333c.362-.395,1.978-.071,2.161-.033a.1.1,0,0,1,.08.082.1.1,0,0,1-.044.1,5.083,5.083,0,0,1-1.013.537m-.916-.622a.3.3,0,0,0-.116.07.124.124,0,0,0-.019.135.418.418,0,0,0,.259.3,2.089,2.089,0,0,0,1.475-.457,4.151,4.151,0,0,0-1.6-.051" transform="translate(-51.133 -117.575)" fill="#407bff"/>
              <path id="Trazado_876661" data-name="Trazado 876661" d="M145.4,328.208a.1.1,0,0,1-.05.005c-.507-.074-1.65-.669-1.731-1.156a.335.335,0,0,1,.215-.366.561.561,0,0,1,.457-.027c.616.214,1.145,1.356,1.167,1.4a.1.1,0,0,1-.012.1.1.1,0,0,1-.046.035m-1.429-1.352c-.014.005-.028.012-.043.019-.12.061-.11.123-.105.149.048.288.815.772,1.352.937-.174-.326-.555-.965-.95-1.1a.365.365,0,0,0-.253,0" transform="translate(-51.398 -116.895)" fill="#407bff"/>
              <path id="Trazado_876662" data-name="Trazado 876662" d="M145.274,162.523s-10.154,38.639-13.086,51.568c-3.05,13.448,7.207,49.8,7.207,49.8l6.777-1.336s-2.847-37.06-1.878-42.947c3.888-14.238,16.012-54.368,16.012-54.368Z" transform="translate(-47.105 -58.164)" fill="#407bff"/>
              <g id="Grupo_1102072" data-name="Grupo 1102072" transform="translate(99.185 119.216)" opacity="0.2">
                <g id="Grupo_1102071" data-name="Grupo 1102071">
                  <g id="Grupo_1102070" data-name="Grupo 1102070" clip-path="url(#clip-path-14)">
                    <path id="Trazado_876663" data-name="Trazado 876663" d="M154.74,202.831a86.408,86.408,0,0,0,.251,16.156c2.906-10.1,6.941-23.647,9.841-33.325-2.929,1.261-9.011,5.278-10.092,17.169" transform="translate(-154.466 -185.661)"/>
                  </g>
                </g>
              </g>
              <path id="Trazado_876664" data-name="Trazado 876664" d="M162.462,164.747s-5.313,39.379-4.862,52.1c.494,13.931,3.79,54.431,3.79,54.431l7.956.176s-.12-38.3.615-51.87c.8-14.731,7.258-52.171,7.258-52.171Z" transform="translate(-56.393 -58.96)" fill="#407bff"/>
              <path id="Trazado_876665" data-name="Trazado 876665" d="M171.561,329.265l-8.571-.189-.676-3.25,9.492-.056Z" transform="translate(-58.09 -116.587)" fill="#263238"/>
              <path id="Trazado_876666" data-name="Trazado 876666" d="M150.924,316.474l-8.411,1.657-1.359-3.03,9.322-1.669Z" transform="translate(-50.517 -112.172)" fill="#263238"/>
              <path id="Trazado_876667" data-name="Trazado 876667" d="M184.718,89.449c-.128.326-.4.523-.618.44s-.283-.416-.155-.742.4-.523.618-.44.283.416.155.742" transform="translate(-65.808 -31.74)" fill="#263238"/>
              <path id="Trazado_876668" data-name="Trazado 876668" d="M178.974,87.2c-.128.326-.4.523-.618.44s-.283-.416-.155-.742.4-.523.618-.44.283.416.155.742" transform="translate(-63.752 -30.935)" fill="#263238"/>
              <path id="Trazado_876669" data-name="Trazado 876669" d="M179.305,88.442a12.529,12.529,0,0,1-2.651,2.181,2.02,2.02,0,0,0,1.444.9Z" transform="translate(-63.221 -31.652)" fill="#ed847e"/>
              <path id="Trazado_876670" data-name="Trazado 876670" d="M178.776,95.55a.1.1,0,1,1,.083-.188,2.776,2.776,0,0,0,2.509-.083.1.1,0,0,1,.112.172,2.938,2.938,0,0,1-2.7.1" transform="translate(-63.959 -34.093)" fill="#263238"/>
              <path id="Trazado_876671" data-name="Trazado 876671" d="M187.786,87.728a.205.205,0,0,1-.1-.15,1.639,1.639,0,0,0-.827-1.235.206.206,0,0,1,.171-.374,2.038,2.038,0,0,1,1.063,1.549.206.206,0,0,1-.173.234.21.21,0,0,1-.129-.023" transform="translate(-66.829 -30.76)" fill="#263238"/>
              <path id="Trazado_876672" data-name="Trazado 876672" d="M177.933,83.823a.2.2,0,0,1-.065-.066.2.2,0,0,1,.068-.283,2.044,2.044,0,0,1,1.869-.184.206.206,0,0,1-.175.373,1.63,1.63,0,0,0-1.479.161.206.206,0,0,1-.218,0" transform="translate(-63.645 -29.757)" fill="#263238"/>
              <path id="Trazado_876673" data-name="Trazado 876673" d="M190.215,114.361l-1.063-.289a.215.215,0,0,0-.257.131c-5.92,15.591-7.33,33.023-7.33,33.023l1.19.215a156,156,0,0,1,7.6-32.8.21.21,0,0,0-.145-.275" transform="translate(-64.979 -40.822)" fill="#407bff"/>
              <g id="Grupo_1102075" data-name="Grupo 1102075" transform="translate(116.351 106.041)" opacity="0.99">
                <g id="Grupo_1102074" data-name="Grupo 1102074">
                  <g id="Grupo_1102073" data-name="Grupo 1102073" clip-path="url(#clip-path-15)">
                    <path id="Trazado_876674" data-name="Trazado 876674" d="M182.8,165.752a.392.392,0,0,0-.315-.454l-.824-.149a.392.392,0,0,0-.454.315.387.387,0,0,0,.227.419l-.184,1.022a.511.511,0,0,0,1.006.182l.184-1.022a.386.386,0,0,0,.36-.313" transform="translate(-181.199 -165.143)" fill="#263238"/>
                  </g>
                </g>
              </g>
              <path id="Trazado_876675" data-name="Trazado 876675" d="M162.875,109.767l-1.105.009a.216.216,0,0,0-.2.148c-5.182,15.732-5.7,32.781-5.7,32.781l1.191.215a153.936,153.936,0,0,1,6.022-32.875.213.213,0,0,0-.2-.278" transform="translate(-55.782 -39.284)" fill="#407bff"/>
              <g id="Grupo_1102078" data-name="Grupo 1102078" transform="translate(99.852 103.055)" opacity="0.99">
                <g id="Grupo_1102077" data-name="Grupo 1102077">
                  <g id="Grupo_1102076" data-name="Grupo 1102076" clip-path="url(#clip-path-16)">
                    <path id="Trazado_876676" data-name="Trazado 876676" d="M157.1,161.106a.415.415,0,0,0-.333-.457l-.825-.149a.37.37,0,0,0-.436.318.41.41,0,0,0,.244.423l-.137,1.03a.542.542,0,0,0,.435.6.485.485,0,0,0,.571-.416l.137-1.031a.365.365,0,0,0,.343-.316" transform="translate(-155.505 -160.493)" fill="#263238"/>
                  </g>
                </g>
              </g>
              <path id="Trazado_876677" data-name="Trazado 876677" d="M164.114,339.678a1.32,1.32,0,0,1-.859-.107.62.62,0,0,1-.284-.511.326.326,0,0,1,.135-.311c.438-.308,1.947.356,2.118.432a.1.1,0,0,1-.005.19,5.108,5.108,0,0,1-1.106.307m-.76-.8a.291.291,0,0,0-.129.044.126.126,0,0,0-.048.128.418.418,0,0,0,.188.352,2.089,2.089,0,0,0,1.539-.13,4.144,4.144,0,0,0-1.551-.394" transform="translate(-58.324 -121.203)" fill="#407bff"/>
              <path id="Trazado_876678" data-name="Trazado 876678" d="M165.6,338.749a.111.111,0,0,1-.05-.005c-.478-.182-1.467-1.009-1.442-1.5a.334.334,0,0,1,.288-.311.558.558,0,0,1,.452.072c.556.341.827,1.569.838,1.621a.1.1,0,0,1-.033.1.1.1,0,0,1-.053.024m-1.105-1.628a.385.385,0,0,0-.046.01c-.131.034-.134.1-.135.123-.015.291.63.93,1.119,1.206a2.475,2.475,0,0,0-.692-1.28.361.361,0,0,0-.246-.058" transform="translate(-58.733 -120.575)" fill="#407bff"/>
              <path id="Trazado_876679" data-name="Trazado 876679" d="M169.352,183.73l3.589,2.537,2.69-1.987-3.443-4.19Z" transform="translate(-60.608 -64.451)" fill="#ffc3bd"/>
              <path id="Trazado_876680" data-name="Trazado 876680" d="M178.847,178.9l-5.079.763,3.443,4.191s3.523-.856,3.333-3.684Z" transform="translate(-62.189 -64.026)" fill="#ffc3bd"/>
              <path id="Trazado_876681" data-name="Trazado 876681" d="M195.77,127.036c.193,3.356.3,6.693.317,10.054.016,1.68,0,3.36-.029,5.053-.014.847-.033,1.693-.074,2.552l-.063,1.295-.037.654c-.024.3-.062.643-.1.961a10.837,10.837,0,0,1-1.1,3.2,19.751,19.751,0,0,1-1.55,2.507,32.633,32.633,0,0,1-3.6,4.059,51.692,51.692,0,0,1-8.2,6.385l-2.077-2.7c1.116-1.131,2.286-2.308,3.361-3.511,1.1-1.193,2.151-2.407,3.135-3.641a32.567,32.567,0,0,0,2.626-3.751,13.848,13.848,0,0,0,.909-1.842,5.574,5.574,0,0,0,.4-1.555,2.345,2.345,0,0,1,0-.285l-.014-.6-.038-1.205-.1-2.449-.233-4.946c-.162-3.3-.3-6.63-.39-9.934Z" transform="translate(-64.151 -45.464)" fill="#ffc3bd"/>
              <path id="Trazado_876682" data-name="Trazado 876682" d="M197.149,116.457c5.49,2.047,5.448,16.73,5.448,16.73l-9.292,1.711s-2.246-6.676-1.137-11.929c1.059-5.013.807-8.069,4.981-6.512" transform="translate(-68.664 -41.532)" fill="#fff"/>
            </g>
          </g>
          <path id="Trazado_876683" data-name="Trazado 876683" d="M73.416,116.885l-24.888-9.32L44.155,81.352,64.67,64.459l24.888,9.32,4.373,26.213ZM49.579,106.7l23.613,8.843L92.656,99.515,88.508,74.644,64.894,65.8,45.43,81.83Z" transform="translate(-15.802 -23.069)" fill="#407bff"/>
          <g id="Grupo_1102082" data-name="Grupo 1102082">
            <g id="Grupo_1102081" data-name="Grupo 1102081" clip-path="url(#clip-path-2)">
              <path id="Trazado_876684" data-name="Trazado 876684" d="M77.989,62.625a3.988,3.988,0,1,1-4.59-3.277,3.987,3.987,0,0,1,4.59,3.277" transform="translate(-25.076 -21.22)" fill="#407bff"/>
              <path id="Trazado_876685" data-name="Trazado 876685" d="M91.26,142.18a3.988,3.988,0,1,1-4.59-3.278,3.988,3.988,0,0,1,4.59,3.278" transform="translate(-29.825 -49.691)" fill="#407bff"/>
              <path id="Trazado_876686" data-name="Trazado 876686" d="M109.5,80.669a3.988,3.988,0,1,1,5.563-.928,3.987,3.987,0,0,1-5.563.928" transform="translate(-38.591 -26.281)" fill="#407bff"/>
              <path id="Trazado_876687" data-name="Trazado 876687" d="M40.6,92.093a3.988,3.988,0,1,1,5.563-.928,3.988,3.988,0,0,1-5.563.928" transform="translate(-13.93 -30.369)" fill="#407bff"/>
              <path id="Trazado_876688" data-name="Trazado 876688" d="M116.152,120.517a3.988,3.988,0,1,1,5.563-.928,3.988,3.988,0,0,1-5.563.928" transform="translate(-40.971 -40.542)" fill="#407bff"/>
              <path id="Trazado_876689" data-name="Trazado 876689" d="M47.243,131.94a3.988,3.988,0,1,1,5.563-.928,3.988,3.988,0,0,1-5.563.928" transform="translate(-16.309 -44.63)" fill="#407bff"/>
              <path id="Trazado_876690" data-name="Trazado 876690" d="M66.353,94.467l5.026-.839,1.471,8.819a14.036,14.036,0,0,1,.213,4.309,4.92,4.92,0,0,1-1.572,2.787,6.77,6.77,0,0,1-3.647,1.643,8.932,8.932,0,0,1-3.919-.029,4.854,4.854,0,0,1-2.411-1.6,7.4,7.4,0,0,1-1.4-3.016l4.685-1.453a5.566,5.566,0,0,0,.455,1.563,1.751,1.751,0,0,0,.738.742,1.387,1.387,0,0,0,.854.074,1.371,1.371,0,0,0,1.13-.831,4.217,4.217,0,0,0,.042-2.173Z" transform="translate(-21.515 -33.508)" fill="#263238"/>
              <path id="Trazado_876691" data-name="Trazado 876691" d="M84.036,102.89l4.722-1.095a3.689,3.689,0,0,0,.927,1.666,2.688,2.688,0,0,0,2.379.616,2.487,2.487,0,0,0,1.571-.78,1.532,1.532,0,0,0,.387-1.266A1.512,1.512,0,0,0,93.279,101a6.507,6.507,0,0,0-2.726-.512A11.075,11.075,0,0,1,85.519,99.3a4.016,4.016,0,0,1-1.94-2.9,4.315,4.315,0,0,1,.331-2.485A4.883,4.883,0,0,1,85.8,91.8a10.33,10.33,0,0,1,3.885-1.3,8.279,8.279,0,0,1,4.938.365,5.066,5.066,0,0,1,2.557,3.358L92.5,95.287A2.239,2.239,0,0,0,89.691,93.6a2.036,2.036,0,0,0-1.256.591,1.151,1.151,0,0,0-.292.976.916.916,0,0,0,.482.637,4.165,4.165,0,0,0,1.783.317,21.4,21.4,0,0,1,4.951.648,5.027,5.027,0,0,1,2.371,1.454,4.627,4.627,0,0,1,1.049,2.294,5.223,5.223,0,0,1-.383,3.023,5.484,5.484,0,0,1-2.08,2.4,9.892,9.892,0,0,1-3.795,1.332q-4.142.692-6-.638a6.374,6.374,0,0,1-2.48-3.751" transform="translate(-29.891 -32.319)" fill="#263238"/>
            </g>
          </g>
        </g>
      </g>
    </g>
  </g>
</svg>
