<svg xmlns="http://www.w3.org/2000/svg" xmlns:xlink="http://www.w3.org/1999/xlink" width="371.387" height="296.427" viewBox="0 0 371.387 296.427">
  <defs>
    <linearGradient id="linear-gradient" x1="0.814" y1="0.117" x2="0.236" y2="0.921" gradientUnits="objectBoundingBox">
      <stop offset="0" stop-color="#be79ca"/>
      <stop offset="1" stop-color="#371f63"/>
    </linearGradient>
    <clipPath id="clip-path">
      <path id="Unión_4" data-name="Unión 4" d="M128.744,296H25.413V237.072a139.784,139.784,0,0,1,0-160.735V0h174l-5.2,28.008a139.744,139.744,0,0,1-54.489,268.416Q134.182,296.425,128.744,296Z" transform="translate(-5980.414 -9017)" fill="#6e3dc6"/>
    </clipPath>
    <clipPath id="clip-path-2">
      <rect id="Rectángulo_402196" data-name="Rectángulo 402196" width="263.998" height="242.292" fill="none"/>
    </clipPath>
    <clipPath id="clip-path-6">
      <rect id="Rectángulo_402115" data-name="Rectángulo 402115" width="175.387" height="137.227" fill="none"/>
    </clipPath>
    <clipPath id="clip-path-7">
      <rect id="Rectángulo_402117" data-name="Rectángulo 402117" width="169.941" height="125.214" fill="none"/>
    </clipPath>
    <clipPath id="clip-path-8">
      <rect id="Rectángulo_402118" data-name="Rectángulo 402118" width="4.483" height="4.483" fill="none"/>
    </clipPath>
    <clipPath id="clip-path-12">
      <rect id="Rectángulo_402122" data-name="Rectángulo 402122" width="28.713" height="24.569" fill="none"/>
    </clipPath>
    <clipPath id="clip-path-13">
      <rect id="Rectángulo_402125" data-name="Rectángulo 402125" width="21.955" height="16.417" fill="none"/>
    </clipPath>
    <clipPath id="clip-path-14">
      <rect id="Rectángulo_402128" data-name="Rectángulo 402128" width="25.128" height="18.789" fill="none"/>
    </clipPath>
    <clipPath id="clip-path-15">
      <rect id="Rectángulo_402129" data-name="Rectángulo 402129" width="36.982" height="18.827" fill="none"/>
    </clipPath>
    <clipPath id="clip-path-16">
      <rect id="Rectángulo_402130" data-name="Rectángulo 402130" width="30.889" height="3.433" fill="none"/>
    </clipPath>
    <clipPath id="clip-path-18">
      <rect id="Rectángulo_402134" data-name="Rectángulo 402134" width="21.954" height="16.417" fill="none"/>
    </clipPath>
    <clipPath id="clip-path-36">
      <rect id="Rectángulo_402166" data-name="Rectángulo 402166" width="30.888" height="3.433" fill="none"/>
    </clipPath>
    <clipPath id="clip-path-38">
      <rect id="Rectángulo_402168" data-name="Rectángulo 402168" width="34.336" height="44.76" fill="none"/>
    </clipPath>
    <clipPath id="clip-path-39">
      <rect id="Rectángulo_402169" data-name="Rectángulo 402169" width="34.267" height="18.427" fill="none"/>
    </clipPath>
    <clipPath id="clip-path-40">
      <rect id="Rectángulo_402170" data-name="Rectángulo 402170" width="28.025" height="12.181" fill="none"/>
    </clipPath>
    <clipPath id="clip-path-41">
      <rect id="Rectángulo_402173" data-name="Rectángulo 402173" width="23.701" height="19.207" fill="none"/>
    </clipPath>
    <clipPath id="clip-path-42">
      <rect id="Rectángulo_402174" data-name="Rectángulo 402174" width="28.506" height="13.84" fill="none"/>
    </clipPath>
    <clipPath id="clip-path-43">
      <rect id="Rectángulo_402175" data-name="Rectángulo 402175" width="28.506" height="10.26" fill="none"/>
    </clipPath>
    <clipPath id="clip-path-44">
      <rect id="Rectángulo_402176" data-name="Rectángulo 402176" width="31.453" height="5.274" fill="none"/>
    </clipPath>
    <clipPath id="clip-path-46">
      <rect id="Rectángulo_402178" data-name="Rectángulo 402178" width="22.728" height="52.41" fill="none"/>
    </clipPath>
    <clipPath id="clip-path-47">
      <rect id="Rectángulo_402179" data-name="Rectángulo 402179" width="26.956" height="62.158" fill="none"/>
    </clipPath>
    <clipPath id="clip-path-48">
      <rect id="Rectángulo_402180" data-name="Rectángulo 402180" width="36.531" height="77.513" fill="none"/>
    </clipPath>
    <clipPath id="clip-path-50">
      <rect id="Rectángulo_402182" data-name="Rectángulo 402182" width="26.299" height="23.813" fill="none"/>
    </clipPath>
    <clipPath id="clip-path-51">
      <rect id="Rectángulo_402183" data-name="Rectángulo 402183" width="21.279" height="3.593" fill="none"/>
    </clipPath>
    <clipPath id="clip-path-53">
      <rect id="Rectángulo_402185" data-name="Rectángulo 402185" width="4.242" height="11.153" fill="none"/>
    </clipPath>
    <clipPath id="clip-path-54">
      <rect id="Rectángulo_402186" data-name="Rectángulo 402186" width="8.608" height="8.112" fill="none"/>
    </clipPath>
    <clipPath id="clip-path-55">
      <rect id="Rectángulo_402187" data-name="Rectángulo 402187" width="7.391" height="7.633" fill="none"/>
    </clipPath>
    <clipPath id="clip-path-56">
      <rect id="Rectángulo_402188" data-name="Rectángulo 402188" width="22.651" height="18.576" fill="none"/>
    </clipPath>
    <clipPath id="clip-path-57">
      <rect id="Rectángulo_402189" data-name="Rectángulo 402189" width="22.037" height="18.256" fill="none"/>
    </clipPath>
    <clipPath id="clip-path-58">
      <rect id="Rectángulo_402190" data-name="Rectángulo 402190" width="4.725" height="19.136" fill="none"/>
    </clipPath>
    <clipPath id="clip-path-59">
      <rect id="Rectángulo_402191" data-name="Rectángulo 402191" width="5.165" height="3.302" fill="none"/>
    </clipPath>
    <clipPath id="clip-path-60">
      <rect id="Rectángulo_402192" data-name="Rectángulo 402192" width="11.574" height="3.736" fill="none"/>
    </clipPath>
    <clipPath id="clip-path-61">
      <rect id="Rectángulo_402193" data-name="Rectángulo 402193" width="7.167" height="20.911" fill="none"/>
    </clipPath>
    <clipPath id="clip-path-62">
      <rect id="Rectángulo_402194" data-name="Rectángulo 402194" width="9.127" height="4.633" fill="none"/>
    </clipPath>
  </defs>
  <g id="Grupo_1102803" data-name="Grupo 1102803" transform="translate(-942.618 -8545.789)">
    <g id="Grupo_1102729" data-name="Grupo 1102729" transform="translate(0 3834.138)">
      <g id="Grupo_1101548" data-name="Grupo 1101548" transform="translate(13641.005 17337.652)">
        <path id="Trazado_145968" data-name="Trazado 145968" d="M61.939,0a61.939,61.939,0,1,0,61.939,61.939A61.939,61.939,0,0,0,61.939,0Z" transform="translate(-12688.868 -12458.757)" fill="#75baf1" opacity="0.444"/>
        <path id="Trazado_145969" data-name="Trazado 145969" d="M42.323,0A42.323,42.323,0,1,0,84.647,42.323,42.323,42.323,0,0,0,42.323,0Z" transform="translate(-12446.252 -12592.855)" fill="#75baf1" opacity="0.444"/>
        <rect id="Rectángulo_34812" data-name="Rectángulo 34812" width="371.387" height="278.54" transform="translate(-12698.387 -12608.565)" fill="none"/>
        <path id="Trazado_145967" data-name="Trazado 145967" d="M139.721,0A139.72,139.72,0,1,0,279.441,139.72,139.721,139.721,0,0,0,139.721,0Z" transform="translate(-12652.414 -12609.016)" fill="url(#linear-gradient)"/>
        <path id="Trazado_145971" data-name="Trazado 145971" d="M11.637,0A11.637,11.637,0,1,0,23.273,11.637,11.637,11.637,0,0,0,11.637,0Z" transform="translate(-12396.246 -12376.358)" fill="#75baf1"/>
        <path id="Elipse_4044" data-name="Elipse 4044" d="M15.781,4.265A11.516,11.516,0,1,1,4.265,15.781,11.529,11.529,0,0,1,15.781,4.265m0-4.265A15.781,15.781,0,1,0,31.562,15.781,15.781,15.781,0,0,0,15.781,0Z" transform="translate(-12427.809 -12509.35)" fill="#fff"/>
      </g>
      <g id="Grupo_1101549" data-name="Grupo 1101549" transform="translate(1000 4765.787)">
        <g id="Grupo_1101723" data-name="Grupo 1101723" clip-path="url(#clip-path-2)">
          <g id="Grupo_1101550" data-name="Grupo 1101550">
            <g id="Grupo_1101549-2" data-name="Grupo 1101549" clip-path="url(#clip-path-2)">
              <path id="Trazado_876230" data-name="Trazado 876230" d="M73.824,122.334l-40.37,9.588a1.3,1.3,0,0,1-1.562-.962L19.07,76.976a1.3,1.3,0,0,1,.962-1.562L44.9,69.508,65.679,82.43l9.107,38.343a1.3,1.3,0,0,1-.962,1.562" transform="translate(-6.076 -22.187)" fill="#f0f0f0"/>
              <path id="Trazado_876231" data-name="Trazado 876231" d="M77.188,82.43,56.408,69.509l-1.319.313,4.895,20.607,18.083-4.3Z" transform="translate(-17.585 -22.187)" fill="#e6e6e6"/>
              <path id="Trazado_876232" data-name="Trazado 876232" d="M77.774,82.291,61.009,86.273,57.028,69.508Z" transform="translate(-18.203 -22.187)" fill="#fafafa"/>
              <rect id="Rectángulo_402112" data-name="Rectángulo 402112" width="30.688" height="19.45" transform="matrix(0.973, -0.231, 0.231, 0.973, 24.285, 73.623)" fill="#e6e6e6"/>
              <path id="Trazado_876233" data-name="Trazado 876233" d="M49.979,123.471l-4.956,8.044,13-3.088Z" transform="translate(-14.371 -39.412)" fill="#fafafa"/>
              <path id="Trazado_876234" data-name="Trazado 876234" d="M59.825,126.075l17.908-4.254-.41-1.725L67.31,113.926Z" transform="translate(-19.096 -36.366)" fill="#fafafa"/>
              <path id="Trazado_876235" data-name="Trazado 876235" d="M57.223,111.562a3.279,3.279,0,1,1-3.947-2.432,3.279,3.279,0,0,1,3.947,2.432" transform="translate(-16.201 -34.806)" fill="#fafafa"/>
              <path id="Trazado_876236" data-name="Trazado 876236" d="M340.734,55.036,311.285,41.317a1.016,1.016,0,0,1-.492-1.349L329.139.588A1.015,1.015,0,0,1,330.489.1l18.141,8.451,6.485,18.028-13.03,27.971a1.015,1.015,0,0,1-1.349.492" transform="translate(-99.176 0)" fill="#ebebeb"/>
              <path id="Trazado_876237" data-name="Trazado 876237" d="M369.164,30.37l-6.485-18.027-.963-.449-7,15.033,13.192,6.146Z" transform="translate(-113.226 -3.797)" fill="#e0e0e0"/>
              <path id="Trazado_876238" data-name="Trazado 876238" d="M370.275,30.48l-12.229-5.7,5.7-12.229Z" transform="translate(-114.289 -4.007)" fill="#f5f5f5"/>
              <path id="Trazado_876239" data-name="Trazado 876239" d="M345.663,59.618l-21.78-10.147c-1.466-.683-2.752,1.5-1.276,2.183L344.387,61.8c1.466.683,2.752-1.5,1.276-2.183" transform="translate(-102.769 -15.75)" fill="#fafafa"/>
              <path id="Trazado_876240" data-name="Trazado 876240" d="M332.053,31.378l21.78,10.147c1.466.683,2.752-1.5,1.276-2.183l-21.78-10.147c-1.466-.683-2.752,1.5-1.277,2.183" transform="translate(-105.784 -9.277)" fill="#fafafa"/>
              <path id="Trazado_876241" data-name="Trazado 876241" d="M327.1,41.788l21.78,10.147c1.466.683,2.752-1.5,1.277-2.183L328.376,39.6c-1.466-.683-2.752,1.5-1.276,2.183" transform="translate(-104.203 -12.6)" fill="#fafafa"/>
              <path id="Trazado_876242" data-name="Trazado 876242" d="M238.6,258.149l-.671-2.225a2.122,2.122,0,0,0-1.588-1.462l-16.421-3.5a2.121,2.121,0,0,0-2.516,1.631l-6.694,31.39a2.2,2.2,0,0,0,1.7,2.615l37.317,7.958a2.2,2.2,0,0,0,2.615-1.7l5.842-27.395a2.12,2.12,0,0,0-1.632-2.516l-16.573-3.535a1.834,1.834,0,0,1-1.374-1.264" transform="translate(-67.244 -80.092)" fill="#e0e0e0"/>
              <path id="Trazado_876243" data-name="Trazado 876243" d="M256.55,266.693l-16.421-3.5a2.121,2.121,0,0,0-2.046.686l-1.521,1.758a1.835,1.835,0,0,1-1.77.594l-16.573-3.534a2.12,2.12,0,0,0-2.516,1.632l-4.99,23.4a2.2,2.2,0,0,0,1.7,2.615l37.317,7.958a2.2,2.2,0,0,0,2.615-1.7l5.842-27.395a2.121,2.121,0,0,0-1.632-2.516" transform="translate(-67.244 -83.838)" fill="#f0f0f0"/>
            </g>
          </g>
          <g id="Grupo_1101552" data-name="Grupo 1101552">
            <g id="Grupo_1101551" data-name="Grupo 1101551" clip-path="url(#clip-path-2)">
              <path id="Trazado_876244" data-name="Trazado 876244" d="M264,340.957c0,4.258-59.1,7.709-132,7.709S0,345.214,0,340.957s59.1-7.709,132-7.709,132,3.452,132,7.709" transform="translate(0 -106.374)" fill="#f5f5f5"/>
            </g>
          </g>
          <g id="Grupo_1101569" data-name="Grupo 1101569">
            <g id="Grupo_1101568" data-name="Grupo 1101568" clip-path="url(#clip-path-2)">
              <path id="Trazado_876245" data-name="Trazado 876245" d="M234.777,182.866H75.585a8.1,8.1,0,0,1-8.1-8.1V53.737a8.1,8.1,0,0,1,8.1-8.1H234.777a8.1,8.1,0,0,1,8.1,8.1V174.769a8.1,8.1,0,0,1-8.1,8.1" transform="translate(-21.542 -14.568)" fill="#407bff"/>
              <g id="Grupo_1101555" data-name="Grupo 1101555" transform="translate(45.945 31.071)" opacity="0.4">
                <g id="Grupo_1101554" data-name="Grupo 1101554">
                  <g id="Grupo_1101553" data-name="Grupo 1101553" clip-path="url(#clip-path-6)">
                    <path id="Trazado_876246" data-name="Trazado 876246" d="M234.777,182.866H75.585a8.1,8.1,0,0,1-8.1-8.1V53.737a8.1,8.1,0,0,1,8.1-8.1H234.777a8.1,8.1,0,0,1,8.1,8.1V174.769a8.1,8.1,0,0,1-8.1,8.1" transform="translate(-67.487 -45.639)" fill="#fff"/>
                  </g>
                </g>
              </g>
              <g id="Grupo_1101558" data-name="Grupo 1101558" transform="translate(48.668 40.361)" opacity="0.8">
                <g id="Grupo_1101557" data-name="Grupo 1101557">
                  <g id="Grupo_1101556" data-name="Grupo 1101556" clip-path="url(#clip-path-7)">
                    <path id="Rectángulo_402116" data-name="Rectángulo 402116" d="M7.894,0H162.047a7.894,7.894,0,0,1,7.894,7.894V117.321a7.893,7.893,0,0,1-7.893,7.893H7.893A7.893,7.893,0,0,1,0,117.321V7.894A7.894,7.894,0,0,1,7.894,0Z" transform="translate(0 0)" fill="#fff"/>
                  </g>
                </g>
              </g>
              <g id="Grupo_1101561" data-name="Grupo 1101561" transform="translate(55.259 33.254)" opacity="0.3">
                <g id="Grupo_1101560" data-name="Grupo 1101560">
                  <g id="Grupo_1101559" data-name="Grupo 1101559" clip-path="url(#clip-path-8)">
                    <path id="Trazado_876247" data-name="Trazado 876247" d="M84.366,53.329H82.452a1.284,1.284,0,0,1-1.284-1.285V50.131a1.284,1.284,0,0,1,1.284-1.285h1.914a1.285,1.285,0,0,1,1.285,1.285v1.914a1.285,1.285,0,0,1-1.285,1.285" transform="translate(-81.168 -48.846)" fill="#fff"/>
                  </g>
                </g>
              </g>
              <g id="Grupo_1101564" data-name="Grupo 1101564" transform="translate(62.528 33.254)" opacity="0.5">
                <g id="Grupo_1101563" data-name="Grupo 1101563">
                  <g id="Grupo_1101562" data-name="Grupo 1101562" clip-path="url(#clip-path-8)">
                    <path id="Trazado_876248" data-name="Trazado 876248" d="M95.044,53.329H93.13a1.284,1.284,0,0,1-1.284-1.285V50.131a1.284,1.284,0,0,1,1.284-1.285h1.914a1.284,1.284,0,0,1,1.284,1.285v1.914a1.284,1.284,0,0,1-1.284,1.285" transform="translate(-91.846 -48.846)" fill="#fff"/>
                  </g>
                </g>
              </g>
              <g id="Grupo_1101567" data-name="Grupo 1101567" transform="translate(69.797 33.254)" opacity="0.7">
                <g id="Grupo_1101566" data-name="Grupo 1101566">
                  <g id="Grupo_1101565" data-name="Grupo 1101565" clip-path="url(#clip-path-8)">
                    <path id="Trazado_876249" data-name="Trazado 876249" d="M105.721,53.329h-1.914a1.285,1.285,0,0,1-1.284-1.285V50.131a1.285,1.285,0,0,1,1.284-1.285h1.914a1.285,1.285,0,0,1,1.285,1.285v1.914a1.285,1.285,0,0,1-1.285,1.285" transform="translate(-102.523 -48.846)" fill="#fff"/>
                  </g>
                </g>
              </g>
            </g>
          </g>
          <g id="Grupo_1101670" data-name="Grupo 1101670">
            <g id="Grupo_1101669" data-name="Grupo 1101669" clip-path="url(#clip-path-2)">
              <path id="Trazado_876250" data-name="Trazado 876250" d="M111.609,99.445l-.756-1.373a1.43,1.43,0,0,0-1.253-.741H98.273a1.43,1.43,0,0,0-1.43,1.43v21.651a1.486,1.486,0,0,0,1.486,1.487h25.74a1.487,1.487,0,0,0,1.487-1.487v-18.9a1.43,1.43,0,0,0-1.431-1.43H112.694a1.238,1.238,0,0,1-1.085-.641" transform="translate(-30.913 -31.068)" fill="#407bff"/>
              <g id="Grupo_1101572" data-name="Grupo 1101572" transform="translate(65.93 66.262)" opacity="0.3">
                <g id="Grupo_1101571" data-name="Grupo 1101571">
                  <g id="Grupo_1101570" data-name="Grupo 1101570" clip-path="url(#clip-path-12)">
                    <path id="Trazado_876251" data-name="Trazado 876251" d="M111.609,99.445l-.756-1.373a1.43,1.43,0,0,0-1.253-.741H98.273a1.43,1.43,0,0,0-1.43,1.43v21.651a1.486,1.486,0,0,0,1.486,1.487h25.74a1.487,1.487,0,0,0,1.487-1.487v-18.9a1.43,1.43,0,0,0-1.431-1.43H112.694a1.238,1.238,0,0,1-1.085-.641" transform="translate(-96.843 -97.33)" fill="#fff"/>
                  </g>
                </g>
              </g>
              <rect id="Rectángulo_402123" data-name="Rectángulo 402123" width="21.954" height="16.417" transform="translate(69.111 69.882)" fill="#263238"/>
              <g id="Grupo_1101575" data-name="Grupo 1101575" transform="translate(69.11 69.882)" opacity="0.8">
                <g id="Grupo_1101574" data-name="Grupo 1101574">
                  <g id="Grupo_1101573" data-name="Grupo 1101573" clip-path="url(#clip-path-13)">
                    <rect id="Rectángulo_402124" data-name="Rectángulo 402124" width="21.954" height="16.417" transform="translate(0.001)" fill="#fff"/>
                  </g>
                </g>
              </g>
              <rect id="Rectángulo_402126" data-name="Rectángulo 402126" width="25.128" height="18.789" transform="translate(67.524 71.531)" fill="#263238"/>
              <g id="Grupo_1101578" data-name="Grupo 1101578" transform="translate(67.524 71.531)" opacity="0.9">
                <g id="Grupo_1101577" data-name="Grupo 1101577">
                  <g id="Grupo_1101576" data-name="Grupo 1101576" clip-path="url(#clip-path-14)">
                    <rect id="Rectángulo_402127" data-name="Rectángulo 402127" width="25.128" height="18.789" transform="translate(0)" fill="#fff"/>
                  </g>
                </g>
              </g>
              <path id="Trazado_876252" data-name="Trazado 876252" d="M126.142,105.763H111.081a2.228,2.228,0,0,0-1.671.639c-.4.474-.6.711-.988,1.185a1.814,1.814,0,0,1-1.391.553H92.32c-1.017,0-1.7.553-1.522,1.235,1.437,5.572,2.156,8.358,3.593,13.931a1.908,1.908,0,0,0,1.8,1.283h25.517a1.907,1.907,0,0,0,1.8-1.283L127.725,107c.176-.682-.533-1.235-1.584-1.235" transform="translate(-28.974 -33.76)" fill="#407bff"/>
              <g id="Grupo_1101581" data-name="Grupo 1101581" transform="translate(61.796 72.003)" opacity="0.6">
                <g id="Grupo_1101580" data-name="Grupo 1101580">
                  <g id="Grupo_1101579" data-name="Grupo 1101579" clip-path="url(#clip-path-15)">
                    <path id="Trazado_876253" data-name="Trazado 876253" d="M126.142,105.763H111.081a2.228,2.228,0,0,0-1.671.639c-.4.474-.6.711-.988,1.185a1.814,1.814,0,0,1-1.391.553H92.32c-1.017,0-1.7.553-1.522,1.235,1.437,5.572,2.156,8.358,3.593,13.931a1.908,1.908,0,0,0,1.8,1.283h25.517a1.907,1.907,0,0,0,1.8-1.283L127.725,107c.176-.682-.533-1.235-1.584-1.235" transform="translate(-90.77 -105.763)" fill="#fff"/>
                  </g>
                </g>
              </g>
              <path id="Trazado_876254" data-name="Trazado 876254" d="M96.854,143.789a1.717,1.717,0,0,1,0-3.433H124.31a1.717,1.717,0,0,1,0,3.433Z" transform="translate(-30.368 -44.802)" fill="#263238"/>
              <g id="Grupo_1101584" data-name="Grupo 1101584" transform="translate(64.77 95.554)" opacity="0.6">
                <g id="Grupo_1101583" data-name="Grupo 1101583">
                  <g id="Grupo_1101582" data-name="Grupo 1101582" clip-path="url(#clip-path-16)">
                    <path id="Trazado_876255" data-name="Trazado 876255" d="M96.854,143.789a1.717,1.717,0,0,1,0-3.433H124.31a1.717,1.717,0,0,1,0,3.433Z" transform="translate(-95.138 -140.356)" fill="#fff"/>
                  </g>
                </g>
              </g>
              <path id="Trazado_876256" data-name="Trazado 876256" d="M186.824,99.445l-.756-1.373a1.431,1.431,0,0,0-1.253-.741H173.488a1.43,1.43,0,0,0-1.43,1.43v21.651a1.486,1.486,0,0,0,1.486,1.487h25.74a1.487,1.487,0,0,0,1.487-1.487v-18.9a1.43,1.43,0,0,0-1.431-1.43H187.909a1.238,1.238,0,0,1-1.085-.641" transform="translate(-54.921 -31.068)" fill="#407bff"/>
              <g id="Grupo_1101587" data-name="Grupo 1101587" transform="translate(117.137 66.262)" opacity="0.3">
                <g id="Grupo_1101586" data-name="Grupo 1101586">
                  <g id="Grupo_1101585" data-name="Grupo 1101585" clip-path="url(#clip-path-12)">
                    <path id="Trazado_876257" data-name="Trazado 876257" d="M186.824,99.445l-.756-1.373a1.431,1.431,0,0,0-1.253-.741H173.488a1.43,1.43,0,0,0-1.43,1.43v21.651a1.486,1.486,0,0,0,1.486,1.487h25.74a1.487,1.487,0,0,0,1.487-1.487v-18.9a1.43,1.43,0,0,0-1.431-1.43H187.909a1.238,1.238,0,0,1-1.085-.641" transform="translate(-172.058 -97.33)" fill="#fff"/>
                  </g>
                </g>
              </g>
              <rect id="Rectángulo_402132" data-name="Rectángulo 402132" width="21.954" height="16.417" transform="translate(120.317 69.882)" fill="#263238"/>
              <g id="Grupo_1101590" data-name="Grupo 1101590" transform="translate(120.317 69.882)" opacity="0.8">
                <g id="Grupo_1101589" data-name="Grupo 1101589">
                  <g id="Grupo_1101588" data-name="Grupo 1101588" clip-path="url(#clip-path-18)">
                    <rect id="Rectángulo_402133" data-name="Rectángulo 402133" width="21.954" height="16.417" fill="#fff"/>
                  </g>
                </g>
              </g>
              <rect id="Rectángulo_402135" data-name="Rectángulo 402135" width="25.128" height="18.789" transform="translate(118.73 71.531)" fill="#263238"/>
              <g id="Grupo_1101593" data-name="Grupo 1101593" transform="translate(118.73 71.531)" opacity="0.9">
                <g id="Grupo_1101592" data-name="Grupo 1101592">
                  <g id="Grupo_1101591" data-name="Grupo 1101591" clip-path="url(#clip-path-14)">
                    <rect id="Rectángulo_402136" data-name="Rectángulo 402136" width="25.128" height="18.789" fill="#fff"/>
                  </g>
                </g>
              </g>
              <path id="Trazado_876258" data-name="Trazado 876258" d="M201.357,105.763H186.3a2.228,2.228,0,0,0-1.671.639c-.4.474-.6.711-.988,1.185a1.814,1.814,0,0,1-1.391.553H167.535c-1.017,0-1.7.553-1.522,1.235,1.437,5.572,2.156,8.358,3.593,13.931a1.908,1.908,0,0,0,1.8,1.283h25.517a1.907,1.907,0,0,0,1.8-1.283L202.94,107c.176-.682-.533-1.235-1.584-1.235" transform="translate(-52.983 -33.76)" fill="#407bff"/>
              <g id="Grupo_1101596" data-name="Grupo 1101596" transform="translate(113.002 72.003)" opacity="0.6">
                <g id="Grupo_1101595" data-name="Grupo 1101595">
                  <g id="Grupo_1101594" data-name="Grupo 1101594" clip-path="url(#clip-path-15)">
                    <path id="Trazado_876259" data-name="Trazado 876259" d="M201.357,105.763H186.3a2.228,2.228,0,0,0-1.671.639c-.4.474-.6.711-.988,1.185a1.814,1.814,0,0,1-1.391.553H167.535c-1.017,0-1.7.553-1.522,1.235,1.437,5.572,2.156,8.358,3.593,13.931a1.908,1.908,0,0,0,1.8,1.283h25.517a1.907,1.907,0,0,0,1.8-1.283L202.94,107c.176-.682-.533-1.235-1.584-1.235" transform="translate(-165.985 -105.763)" fill="#fff"/>
                  </g>
                </g>
              </g>
              <path id="Trazado_876260" data-name="Trazado 876260" d="M172.176,143.789a1.717,1.717,0,0,1,0-3.433h27.456a1.717,1.717,0,0,1,0,3.433Z" transform="translate(-54.411 -44.802)" fill="#263238"/>
              <g id="Grupo_1101599" data-name="Grupo 1101599" transform="translate(116.049 95.554)" opacity="0.6">
                <g id="Grupo_1101598" data-name="Grupo 1101598">
                  <g id="Grupo_1101597" data-name="Grupo 1101597" clip-path="url(#clip-path-16)">
                    <path id="Trazado_876261" data-name="Trazado 876261" d="M172.176,143.789a1.717,1.717,0,0,1,0-3.433h27.456a1.717,1.717,0,0,1,0,3.433Z" transform="translate(-170.46 -140.356)" fill="#fff"/>
                  </g>
                </g>
              </g>
              <path id="Trazado_876262" data-name="Trazado 876262" d="M111.609,179.732l-.756-1.373a1.428,1.428,0,0,0-1.253-.741H98.273a1.43,1.43,0,0,0-1.43,1.43V200.7a1.486,1.486,0,0,0,1.486,1.487h25.74a1.487,1.487,0,0,0,1.487-1.487V181.8a1.431,1.431,0,0,0-1.431-1.431H112.694a1.237,1.237,0,0,1-1.085-.641" transform="translate(-30.913 -56.696)" fill="#407bff"/>
              <g id="Grupo_1101602" data-name="Grupo 1101602" transform="translate(65.93 120.921)" opacity="0.3">
                <g id="Grupo_1101601" data-name="Grupo 1101601">
                  <g id="Grupo_1101600" data-name="Grupo 1101600" clip-path="url(#clip-path-12)">
                    <path id="Trazado_876263" data-name="Trazado 876263" d="M111.609,179.732l-.756-1.373a1.428,1.428,0,0,0-1.253-.741H98.273a1.43,1.43,0,0,0-1.43,1.43V200.7a1.486,1.486,0,0,0,1.486,1.487h25.74a1.487,1.487,0,0,0,1.487-1.487V181.8a1.431,1.431,0,0,0-1.431-1.431H112.694a1.237,1.237,0,0,1-1.085-.641" transform="translate(-96.843 -177.617)" fill="#fff"/>
                  </g>
                </g>
              </g>
              <rect id="Rectángulo_402141" data-name="Rectángulo 402141" width="21.954" height="16.417" transform="translate(69.111 124.542)" fill="#263238"/>
              <g id="Grupo_1101605" data-name="Grupo 1101605" transform="translate(69.11 124.542)" opacity="0.8">
                <g id="Grupo_1101604" data-name="Grupo 1101604">
                  <g id="Grupo_1101603" data-name="Grupo 1101603" clip-path="url(#clip-path-13)">
                    <rect id="Rectángulo_402142" data-name="Rectángulo 402142" width="21.954" height="16.417" transform="translate(0.001)" fill="#fff"/>
                  </g>
                </g>
              </g>
              <rect id="Rectángulo_402144" data-name="Rectángulo 402144" width="25.128" height="18.789" transform="translate(67.524 126.19)" fill="#263238"/>
              <g id="Grupo_1101608" data-name="Grupo 1101608" transform="translate(67.524 126.19)" opacity="0.9">
                <g id="Grupo_1101607" data-name="Grupo 1101607">
                  <g id="Grupo_1101606" data-name="Grupo 1101606" clip-path="url(#clip-path-14)">
                    <rect id="Rectángulo_402145" data-name="Rectángulo 402145" width="25.128" height="18.789" transform="translate(0)" fill="#fff"/>
                  </g>
                </g>
              </g>
              <path id="Trazado_876264" data-name="Trazado 876264" d="M126.142,186.05H111.081a2.228,2.228,0,0,0-1.671.639c-.4.474-.6.711-.988,1.185a1.812,1.812,0,0,1-1.391.553H92.32c-1.017,0-1.7.553-1.522,1.235l3.593,13.931a1.908,1.908,0,0,0,1.8,1.283h25.517a1.907,1.907,0,0,0,1.8-1.283l4.207-16.309c.176-.682-.533-1.235-1.584-1.235" transform="translate(-28.974 -59.388)" fill="#407bff"/>
              <g id="Grupo_1101611" data-name="Grupo 1101611" transform="translate(61.796 126.662)" opacity="0.6">
                <g id="Grupo_1101610" data-name="Grupo 1101610">
                  <g id="Grupo_1101609" data-name="Grupo 1101609" clip-path="url(#clip-path-15)">
                    <path id="Trazado_876265" data-name="Trazado 876265" d="M126.142,186.05H111.081a2.228,2.228,0,0,0-1.671.639c-.4.474-.6.711-.988,1.185a1.812,1.812,0,0,1-1.391.553H92.32c-1.017,0-1.7.553-1.522,1.235l3.593,13.931a1.908,1.908,0,0,0,1.8,1.283h25.517a1.907,1.907,0,0,0,1.8-1.283l4.207-16.309c.176-.682-.533-1.235-1.584-1.235" transform="translate(-90.77 -186.05)" fill="#fff"/>
                  </g>
                </g>
              </g>
              <path id="Trazado_876266" data-name="Trazado 876266" d="M96.854,225.08a1.717,1.717,0,0,1,0-3.433H124.31a1.717,1.717,0,0,1,0,3.433Z" transform="translate(-30.368 -70.75)" fill="#263238"/>
              <g id="Grupo_1101614" data-name="Grupo 1101614" transform="translate(64.77 150.897)" opacity="0.6">
                <g id="Grupo_1101613" data-name="Grupo 1101613">
                  <g id="Grupo_1101612" data-name="Grupo 1101612" clip-path="url(#clip-path-16)">
                    <path id="Trazado_876267" data-name="Trazado 876267" d="M96.854,225.08a1.717,1.717,0,0,1,0-3.433H124.31a1.717,1.717,0,0,1,0,3.433Z" transform="translate(-95.138 -221.647)" fill="#fff"/>
                  </g>
                </g>
              </g>
              <path id="Trazado_876268" data-name="Trazado 876268" d="M186.824,179.732l-.756-1.373a1.43,1.43,0,0,0-1.253-.741H173.488a1.43,1.43,0,0,0-1.43,1.43V200.7a1.486,1.486,0,0,0,1.486,1.487h25.74a1.487,1.487,0,0,0,1.487-1.487V181.8a1.431,1.431,0,0,0-1.431-1.431H187.909a1.238,1.238,0,0,1-1.085-.641" transform="translate(-54.921 -56.696)" fill="#407bff"/>
              <g id="Grupo_1101617" data-name="Grupo 1101617" transform="translate(117.137 120.921)" opacity="0.3">
                <g id="Grupo_1101616" data-name="Grupo 1101616">
                  <g id="Grupo_1101615" data-name="Grupo 1101615" clip-path="url(#clip-path-12)">
                    <path id="Trazado_876269" data-name="Trazado 876269" d="M186.824,179.732l-.756-1.373a1.43,1.43,0,0,0-1.253-.741H173.488a1.43,1.43,0,0,0-1.43,1.43V200.7a1.486,1.486,0,0,0,1.486,1.487h25.74a1.487,1.487,0,0,0,1.487-1.487V181.8a1.431,1.431,0,0,0-1.431-1.431H187.909a1.238,1.238,0,0,1-1.085-.641" transform="translate(-172.058 -177.617)" fill="#fff"/>
                  </g>
                </g>
              </g>
              <rect id="Rectángulo_402150" data-name="Rectángulo 402150" width="21.954" height="16.417" transform="translate(120.317 124.542)" fill="#263238"/>
              <g id="Grupo_1101620" data-name="Grupo 1101620" transform="translate(120.317 124.542)" opacity="0.8">
                <g id="Grupo_1101619" data-name="Grupo 1101619">
                  <g id="Grupo_1101618" data-name="Grupo 1101618" clip-path="url(#clip-path-18)">
                    <rect id="Rectángulo_402151" data-name="Rectángulo 402151" width="21.954" height="16.417" fill="#fff"/>
                  </g>
                </g>
              </g>
              <rect id="Rectángulo_402153" data-name="Rectángulo 402153" width="25.128" height="18.789" transform="translate(118.73 126.19)" fill="#263238"/>
              <g id="Grupo_1101623" data-name="Grupo 1101623" transform="translate(118.73 126.19)" opacity="0.9">
                <g id="Grupo_1101622" data-name="Grupo 1101622">
                  <g id="Grupo_1101621" data-name="Grupo 1101621" clip-path="url(#clip-path-14)">
                    <rect id="Rectángulo_402154" data-name="Rectángulo 402154" width="25.128" height="18.789" fill="#fff"/>
                  </g>
                </g>
              </g>
              <path id="Trazado_876270" data-name="Trazado 876270" d="M201.357,186.05H186.3a2.228,2.228,0,0,0-1.671.639c-.4.474-.6.711-.988,1.185a1.812,1.812,0,0,1-1.391.553H167.535c-1.017,0-1.7.553-1.522,1.235l3.593,13.931a1.908,1.908,0,0,0,1.8,1.283h25.517a1.907,1.907,0,0,0,1.8-1.283l4.207-16.309c.176-.682-.533-1.235-1.584-1.235" transform="translate(-52.983 -59.388)" fill="#407bff"/>
              <g id="Grupo_1101626" data-name="Grupo 1101626" transform="translate(113.002 126.662)" opacity="0.6">
                <g id="Grupo_1101625" data-name="Grupo 1101625">
                  <g id="Grupo_1101624" data-name="Grupo 1101624" clip-path="url(#clip-path-15)">
                    <path id="Trazado_876271" data-name="Trazado 876271" d="M201.357,186.05H186.3a2.228,2.228,0,0,0-1.671.639c-.4.474-.6.711-.988,1.185a1.812,1.812,0,0,1-1.391.553H167.535c-1.017,0-1.7.553-1.522,1.235l3.593,13.931a1.908,1.908,0,0,0,1.8,1.283h25.517a1.907,1.907,0,0,0,1.8-1.283l4.207-16.309c.176-.682-.533-1.235-1.584-1.235" transform="translate(-165.985 -186.05)" fill="#fff"/>
                  </g>
                </g>
              </g>
              <path id="Trazado_876272" data-name="Trazado 876272" d="M172.176,225.08a1.717,1.717,0,0,1,0-3.433h27.456a1.717,1.717,0,0,1,0,3.433Z" transform="translate(-54.411 -70.75)" fill="#263238"/>
              <g id="Grupo_1101629" data-name="Grupo 1101629" transform="translate(116.049 150.897)" opacity="0.6">
                <g id="Grupo_1101628" data-name="Grupo 1101628">
                  <g id="Grupo_1101627" data-name="Grupo 1101627" clip-path="url(#clip-path-16)">
                    <path id="Trazado_876273" data-name="Trazado 876273" d="M172.176,225.08a1.717,1.717,0,0,1,0-3.433h27.456a1.717,1.717,0,0,1,0,3.433Z" transform="translate(-170.46 -221.647)" fill="#fff"/>
                  </g>
                </g>
              </g>
              <path id="Trazado_876274" data-name="Trazado 876274" d="M260.343,179.732l-.756-1.373a1.428,1.428,0,0,0-1.253-.741H247.007a1.43,1.43,0,0,0-1.43,1.43V200.7a1.486,1.486,0,0,0,1.486,1.487H272.8a1.487,1.487,0,0,0,1.487-1.487V181.8a1.431,1.431,0,0,0-1.431-1.431H261.428a1.238,1.238,0,0,1-1.085-.641" transform="translate(-78.389 -56.696)" fill="#407bff"/>
              <g id="Grupo_1101632" data-name="Grupo 1101632" transform="translate(167.188 120.921)" opacity="0.3">
                <g id="Grupo_1101631" data-name="Grupo 1101631">
                  <g id="Grupo_1101630" data-name="Grupo 1101630" clip-path="url(#clip-path-12)">
                    <path id="Trazado_876275" data-name="Trazado 876275" d="M260.343,179.732l-.756-1.373a1.428,1.428,0,0,0-1.253-.741H247.007a1.43,1.43,0,0,0-1.43,1.43V200.7a1.486,1.486,0,0,0,1.486,1.487H272.8a1.487,1.487,0,0,0,1.487-1.487V181.8a1.431,1.431,0,0,0-1.431-1.431H261.428a1.238,1.238,0,0,1-1.085-.641" transform="translate(-245.577 -177.617)" fill="#fff"/>
                  </g>
                </g>
              </g>
              <rect id="Rectángulo_402159" data-name="Rectángulo 402159" width="21.954" height="16.417" transform="translate(170.368 124.542)" fill="#263238"/>
              <g id="Grupo_1101635" data-name="Grupo 1101635" transform="translate(170.368 124.542)" opacity="0.8">
                <g id="Grupo_1101634" data-name="Grupo 1101634">
                  <g id="Grupo_1101633" data-name="Grupo 1101633" clip-path="url(#clip-path-18)">
                    <rect id="Rectángulo_402160" data-name="Rectángulo 402160" width="21.954" height="16.417" fill="#fff"/>
                  </g>
                </g>
              </g>
              <rect id="Rectángulo_402162" data-name="Rectángulo 402162" width="25.128" height="18.789" transform="translate(168.782 126.19)" fill="#263238"/>
              <g id="Grupo_1101638" data-name="Grupo 1101638" transform="translate(168.781 126.19)" opacity="0.9">
                <g id="Grupo_1101637" data-name="Grupo 1101637">
                  <g id="Grupo_1101636" data-name="Grupo 1101636" clip-path="url(#clip-path-14)">
                    <rect id="Rectángulo_402163" data-name="Rectángulo 402163" width="25.128" height="18.789" transform="translate(0.001)" fill="#fff"/>
                  </g>
                </g>
              </g>
              <path id="Trazado_876276" data-name="Trazado 876276" d="M274.876,186.05H259.815a2.228,2.228,0,0,0-1.671.639c-.4.474-.6.711-.988,1.185a1.812,1.812,0,0,1-1.391.553H241.054c-1.017,0-1.7.553-1.522,1.235l3.593,13.931a1.908,1.908,0,0,0,1.8,1.283h25.517a1.907,1.907,0,0,0,1.8-1.283l4.207-16.309c.176-.682-.533-1.235-1.584-1.235" transform="translate(-76.451 -59.388)" fill="#407bff"/>
              <g id="Grupo_1101641" data-name="Grupo 1101641" transform="translate(163.054 126.662)" opacity="0.6">
                <g id="Grupo_1101640" data-name="Grupo 1101640">
                  <g id="Grupo_1101639" data-name="Grupo 1101639" clip-path="url(#clip-path-15)">
                    <path id="Trazado_876277" data-name="Trazado 876277" d="M274.876,186.05H259.815a2.228,2.228,0,0,0-1.671.639c-.4.474-.6.711-.988,1.185a1.812,1.812,0,0,1-1.391.553H241.054c-1.017,0-1.7.553-1.522,1.235l3.593,13.931a1.908,1.908,0,0,0,1.8,1.283h25.517a1.907,1.907,0,0,0,1.8-1.283l4.207-16.309c.176-.682-.533-1.235-1.584-1.235" transform="translate(-239.504 -186.05)" fill="#fff"/>
                  </g>
                </g>
              </g>
              <path id="Trazado_876278" data-name="Trazado 876278" d="M245.7,225.08a1.717,1.717,0,0,1,0-3.433h27.456a1.717,1.717,0,0,1,0,3.433Z" transform="translate(-77.879 -70.75)" fill="#263238"/>
              <g id="Grupo_1101644" data-name="Grupo 1101644" transform="translate(166.1 150.897)" opacity="0.6">
                <g id="Grupo_1101643" data-name="Grupo 1101643">
                  <g id="Grupo_1101642" data-name="Grupo 1101642" clip-path="url(#clip-path-36)">
                    <path id="Trazado_876279" data-name="Trazado 876279" d="M245.7,225.08a1.717,1.717,0,0,1,0-3.433h27.456a1.717,1.717,0,0,1,0,3.433Z" transform="translate(-243.979 -221.647)" fill="#fff"/>
                  </g>
                </g>
              </g>
              <path id="Trazado_876280" data-name="Trazado 876280" d="M245.175,143.789a1.717,1.717,0,0,1,0-3.433h27.456a1.717,1.717,0,0,1,0,3.433Z" transform="translate(-77.713 -44.802)" fill="#263238"/>
              <g id="Grupo_1101647" data-name="Grupo 1101647" transform="translate(165.746 95.554)" opacity="0.6">
                <g id="Grupo_1101646" data-name="Grupo 1101646">
                  <g id="Grupo_1101645" data-name="Grupo 1101645" clip-path="url(#clip-path-16)">
                    <path id="Trazado_876281" data-name="Trazado 876281" d="M245.175,143.789a1.717,1.717,0,0,1,0-3.433h27.456a1.717,1.717,0,0,1,0,3.433Z" transform="translate(-243.459 -140.356)" fill="#fff"/>
                  </g>
                </g>
              </g>
              <path id="Trazado_876282" data-name="Trazado 876282" d="M244.573,121.96l5.854,17.13a2.112,2.112,0,0,0,1.9,1.3h11.518a1,1,0,0,0,1.045-.672l.344-1.245a.865.865,0,0,1,.9-.581h11.625a.949.949,0,0,0,1.012-1.3l-5-14.632L273.7,119.1V97.082a1.455,1.455,0,0,0-1.455-1.455H260.73a1.455,1.455,0,0,0-1.274.754l-.769,1.4a1.259,1.259,0,0,1-1.1.652H245.959a1.454,1.454,0,0,0-1.455,1.455V119.1Z" transform="translate(-78.046 -30.524)" fill="#407bff"/>
              <g id="Grupo_1101650" data-name="Grupo 1101650" transform="translate(166.458 65.103)" opacity="0.6">
                <g id="Grupo_1101649" data-name="Grupo 1101649">
                  <g id="Grupo_1101648" data-name="Grupo 1101648" clip-path="url(#clip-path-38)">
                    <path id="Trazado_876283" data-name="Trazado 876283" d="M244.573,121.96l5.854,17.13a2.112,2.112,0,0,0,1.9,1.3h11.518a1,1,0,0,0,1.045-.672l.344-1.245a.865.865,0,0,1,.9-.581h11.625a.949.949,0,0,0,1.012-1.3l-5-14.632L273.7,119.1V97.082a1.455,1.455,0,0,0-1.455-1.455H260.73a1.455,1.455,0,0,0-1.274.754l-.769,1.4a1.259,1.259,0,0,1-1.1.652H245.959a1.454,1.454,0,0,0-1.455,1.455V119.1Z" transform="translate(-244.504 -95.627)" fill="#fff"/>
                  </g>
                </g>
              </g>
              <path id="Trazado_876284" data-name="Trazado 876284" d="M244.6,134.306l5.854,17.13a2.112,2.112,0,0,0,1.9,1.3h11.518a1,1,0,0,0,1.045-.672l.344-1.245a.865.865,0,0,1,.9-.581h11.625a.949.949,0,0,0,1.012-1.3l-5-14.632Z" transform="translate(-78.079 -42.871)" fill="#407bff"/>
              <g id="Grupo_1101653" data-name="Grupo 1101653" transform="translate(166.526 91.435)" opacity="0.3">
                <g id="Grupo_1101652" data-name="Grupo 1101652">
                  <g id="Grupo_1101651" data-name="Grupo 1101651" clip-path="url(#clip-path-39)">
                    <path id="Trazado_876285" data-name="Trazado 876285" d="M244.6,134.306l5.854,17.13a2.112,2.112,0,0,0,1.9,1.3h11.518a1,1,0,0,0,1.045-.672l.344-1.245a.865.865,0,0,1,.9-.581h11.625a.949.949,0,0,0,1.012-1.3l-5-14.632Z" transform="translate(-244.605 -134.306)" fill="#fff"/>
                  </g>
                </g>
              </g>
              <g id="Grupo_1101656" data-name="Grupo 1101656" transform="translate(169.34 91.435)" opacity="0.1">
                <g id="Grupo_1101655" data-name="Grupo 1101655">
                  <g id="Grupo_1101654" data-name="Grupo 1101654" clip-path="url(#clip-path-40)">
                    <path id="Trazado_876286" data-name="Trazado 876286" d="M248.738,134.306h23.7l4.324,12.182h-23.7Z" transform="translate(-248.738 -134.306)"/>
                  </g>
                </g>
              </g>
              <rect id="Rectángulo_402171" data-name="Rectángulo 402171" width="23.701" height="19.207" transform="translate(169.34 72.228)" fill="#263238"/>
              <g id="Grupo_1101659" data-name="Grupo 1101659" transform="translate(169.34 72.228)" opacity="0.8">
                <g id="Grupo_1101658" data-name="Grupo 1101658">
                  <g id="Grupo_1101657" data-name="Grupo 1101657" clip-path="url(#clip-path-41)">
                    <rect id="Rectángulo_402172" data-name="Rectángulo 402172" width="23.701" height="19.207" fill="#fff"/>
                  </g>
                </g>
              </g>
              <path id="Trazado_876287" data-name="Trazado 876287" d="M248.738,127.817h23.7l4.8-13.84h-23.7Z" transform="translate(-79.398 -36.382)" fill="#263238"/>
              <g id="Grupo_1101662" data-name="Grupo 1101662" transform="translate(169.34 77.595)" opacity="0.9">
                <g id="Grupo_1101661" data-name="Grupo 1101661">
                  <g id="Grupo_1101660" data-name="Grupo 1101660" clip-path="url(#clip-path-42)">
                    <path id="Trazado_876288" data-name="Trazado 876288" d="M248.738,127.817h23.7l4.8-13.84h-23.7Z" transform="translate(-248.738 -113.977)" fill="#fff"/>
                  </g>
                </g>
              </g>
              <path id="Trazado_876289" data-name="Trazado 876289" d="M248.738,134.306h23.7l4.8,10.26h-23.7Z" transform="translate(-79.398 -42.871)" fill="#263238"/>
              <g id="Grupo_1101665" data-name="Grupo 1101665" transform="translate(169.34 91.435)" opacity="0.9">
                <g id="Grupo_1101664" data-name="Grupo 1101664">
                  <g id="Grupo_1101663" data-name="Grupo 1101663" clip-path="url(#clip-path-43)">
                    <path id="Trazado_876290" data-name="Trazado 876290" d="M248.738,134.306h23.7l4.8,10.26h-23.7Z" transform="translate(-248.738 -134.306)" fill="#fff"/>
                  </g>
                </g>
              </g>
              <path id="Trazado_876291" data-name="Trazado 876291" d="M248.738,131.833h23.7l7.752-5.274h-23.7Z" transform="translate(-79.398 -40.398)" fill="#263238"/>
              <g id="Grupo_1101668" data-name="Grupo 1101668" transform="translate(169.34 86.161)" opacity="0.8">
                <g id="Grupo_1101667" data-name="Grupo 1101667">
                  <g id="Grupo_1101666" data-name="Grupo 1101666" clip-path="url(#clip-path-44)">
                    <path id="Trazado_876292" data-name="Trazado 876292" d="M248.738,131.833h23.7l7.752-5.274h-23.7Z" transform="translate(-248.738 -126.559)" fill="#fff"/>
                  </g>
                </g>
              </g>
            </g>
          </g>
          <g id="Grupo_1101690" data-name="Grupo 1101690">
            <g id="Grupo_1101689" data-name="Grupo 1101689" clip-path="url(#clip-path-2)">
              <path id="Trazado_876293" data-name="Trazado 876293" d="M53.715,279.842A38.883,38.883,0,0,1,64.866,254.91c1.626-1.581,5.043-4.715,2.272-6.368-3.164-1.887-9.242,6.945-10.087,8.578,1.793-7.039,7.242-12.134,13.152-15.058,2.921-1.445,5.7-2.808,2.591-4.956-3.185-2.2-9.846,3.06-11.4,5.289,3.691-5.15,8.354-10.316,13.132-13.4,5.275-3.4,2.894-9.083-2.546-4.694-3.373,2.721-8.912,9.515-8.912,9.515-.016-.01,8.708-17.489,6.078-19.1-3.379-2.065-9.366,21.793-11.013,26.482.438-3.895.854-13.316-2.074-13.726-2.648-.37-2,23.09-2.616,27.23-.387,1.809-.561,2.718-.868,4.545-.287-3.125-2.03-11.363-4.672-10.411-2.232.8-.85,6.972-.271,9.9,1.4,7.086,2.82,13.944,2.83,21.212l3.254-.112" transform="translate(-14.899 -68.5)" fill="#407bff"/>
              <g id="Grupo_1101673" data-name="Grupo 1101673" transform="translate(36.87 157.43)" opacity="0.4">
                <g id="Grupo_1101672" data-name="Grupo 1101672">
                  <g id="Grupo_1101671" data-name="Grupo 1101671" clip-path="url(#clip-path-46)">
                    <path id="Trazado_876294" data-name="Trazado 876294" d="M58.927,237.385a89.81,89.81,0,0,1,.256,15.386,85.48,85.48,0,0,1,3.633-8.718.37.37,0,0,1,.063-.135l.008-.012c.413-.849.833-1.694,1.272-2.527.177-.336.615-.183.552.125A37.1,37.1,0,0,1,76.48,231.279c.344-.178.575.341.249.526-5.393,3.052-9.4,7.35-13.374,12.432a77.5,77.5,0,0,0-4.249,10.516A22.476,22.476,0,0,1,71.8,245.2c.354-.108.554.438.2.549a21.123,21.123,0,0,0-14.3,13.877.439.439,0,0,1-.071.144c-1,4.208-1.76,8.292-2.347,12.577a32.472,32.472,0,0,1,11.4-15.11c.3-.227.575.293.276.519a33.006,33.006,0,0,0-11.929,17.381c0,.011-.01.018-.014.029q-.325,4.06-.287,8.161a.286.286,0,1,1-.567.009,100.916,100.916,0,0,1,3.831-26.944c1.321-6.186.844-12.651.347-18.881-.034-.425.56-.545.592-.123" transform="translate(-54.157 -231.243)" fill="#fff"/>
                  </g>
                </g>
              </g>
              <path id="Trazado_876295" data-name="Trazado 876295" d="M42.8,274.136c-.689-10.956-5.491-22.049-13.225-29.569-1.928-1.876-5.981-5.592-2.694-7.553,3.752-2.238,10.961,8.238,11.964,10.174-2.126-8.348-8.589-14.391-15.6-17.859-3.465-1.714-6.764-3.33-3.072-5.877,3.778-2.607,11.677,3.629,13.519,6.273-4.377-6.107-9.908-12.235-15.574-15.888-6.257-4.034-3.433-10.772,3.019-5.568,4,3.228,10.569,11.286,10.569,11.286.019-.012-10.328-20.743-7.209-22.648,4.008-2.449,11.108,25.846,13.062,31.408-.52-4.619-1.012-15.793,2.46-16.278,3.141-.439,2.372,27.384,3.1,32.294.46,2.146.666,3.224,1.029,5.391.342-3.706,2.408-13.476,5.542-12.348,2.646.953,1.008,8.269.321,11.738-1.665,8.4-3.345,16.538-3.356,25.157l-3.859-.133" transform="translate(-4.665 -62.805)" fill="#407bff"/>
              <g id="Grupo_1101676" data-name="Grupo 1101676" transform="translate(13.484 147.391)" opacity="0.2">
                <g id="Grupo_1101675" data-name="Grupo 1101675">
                  <g id="Grupo_1101674" data-name="Grupo 1101674" clip-path="url(#clip-path-47)">
                    <path id="Trazado_876296" data-name="Trazado 876296" d="M41.1,223.783a106.615,106.615,0,0,0-.3,18.247,101.354,101.354,0,0,0-4.308-10.339.456.456,0,0,0-.074-.16l-.01-.014c-.489-1.007-.987-2.009-1.509-3-.21-.4-.73-.217-.655.148a44,44,0,0,0-13.958-12.127c-.408-.21-.682.4-.3.623,6.4,3.62,11.148,8.717,15.862,14.745a91.794,91.794,0,0,1,5.039,12.471,26.659,26.659,0,0,0-15.051-11.334c-.42-.127-.658.519-.24.651,8.524,2.69,14.5,8.652,16.963,16.459a.527.527,0,0,0,.084.171c1.185,4.99,2.088,9.835,2.784,14.916-2.405-7.158-7.582-13.483-13.521-17.921-.359-.269-.682.348-.327.615a39.141,39.141,0,0,1,14.148,20.613c0,.014.012.022.016.035q.386,4.816.342,9.68a.339.339,0,1,0,.672.011,119.669,119.669,0,0,0-4.544-31.956c-1.567-7.337-1-15-.411-22.393.041-.505-.664-.646-.7-.146" transform="translate(-19.806 -216.498)" fill="#fff"/>
                  </g>
                </g>
              </g>
              <path id="Trazado_876297" data-name="Trazado 876297" d="M42.8,274.136c-.689-10.956-5.491-22.049-13.225-29.569-1.928-1.876-5.981-5.592-2.694-7.553,3.752-2.238,10.961,8.238,11.964,10.174-2.126-8.348-8.589-14.391-15.6-17.859-3.465-1.714-6.764-3.33-3.072-5.877,3.778-2.607,11.677,3.629,13.519,6.273-4.377-6.107-9.908-12.235-15.574-15.888-6.257-4.034-3.433-10.772,3.019-5.568,4,3.228,10.569,11.286,10.569,11.286.019-.012-10.328-20.743-7.209-22.648,4.008-2.449,11.108,25.846,13.062,31.408-.52-4.619-1.012-15.793,2.46-16.278,3.141-.439,2.372,27.384,3.1,32.294.46,2.146.666,3.224,1.029,5.391.342-3.706,2.408-13.476,5.542-12.348,2.646.953,1.008,8.269.321,11.738-1.665,8.4-3.345,16.538-3.356,25.157l-3.859-.133" transform="translate(-4.665 -62.805)" fill="#407bff"/>
              <g id="Grupo_1101679" data-name="Grupo 1101679" transform="translate(9.95 133.951)" opacity="0.2">
                <g id="Grupo_1101678" data-name="Grupo 1101678">
                  <g id="Grupo_1101677" data-name="Grupo 1101677" clip-path="url(#clip-path-48)">
                    <path id="Trazado_876298" data-name="Trazado 876298" d="M42.8,274.136c-.689-10.956-5.491-22.049-13.225-29.569-1.928-1.876-5.981-5.592-2.694-7.553,3.752-2.238,10.961,8.238,11.964,10.174-2.126-8.348-8.589-14.391-15.6-17.859-3.465-1.714-6.764-3.33-3.072-5.877,3.778-2.607,11.677,3.629,13.519,6.273-4.377-6.107-9.908-12.235-15.574-15.888-6.257-4.034-3.433-10.772,3.019-5.568,4,3.228,10.569,11.286,10.569,11.286.019-.012-10.328-20.743-7.209-22.648,4.008-2.449,11.108,25.846,13.062,31.408-.52-4.619-1.012-15.793,2.46-16.278,3.141-.439,2.372,27.384,3.1,32.294.46,2.146.666,3.224,1.029,5.391.342-3.706,2.408-13.476,5.542-12.348,2.646.953,1.008,8.269.321,11.738-1.665,8.4-3.345,16.538-3.356,25.157l-3.859-.133" transform="translate(-14.615 -196.756)" fill="#fff"/>
                  </g>
                </g>
              </g>
              <g id="Grupo_1101682" data-name="Grupo 1101682" transform="translate(13.484 147.391)" opacity="0.5">
                <g id="Grupo_1101681" data-name="Grupo 1101681">
                  <g id="Grupo_1101680" data-name="Grupo 1101680" clip-path="url(#clip-path-47)">
                    <path id="Trazado_876299" data-name="Trazado 876299" d="M41.1,223.783a106.615,106.615,0,0,0-.3,18.247,101.354,101.354,0,0,0-4.308-10.339.456.456,0,0,0-.074-.16l-.01-.014c-.489-1.007-.987-2.009-1.509-3-.21-.4-.73-.217-.655.148a44,44,0,0,0-13.958-12.127c-.408-.21-.682.4-.3.623,6.4,3.62,11.148,8.717,15.862,14.745a91.794,91.794,0,0,1,5.039,12.471,26.659,26.659,0,0,0-15.051-11.334c-.42-.127-.658.519-.24.651,8.524,2.69,14.5,8.652,16.963,16.459a.527.527,0,0,0,.084.171c1.185,4.99,2.088,9.835,2.784,14.916-2.405-7.158-7.582-13.483-13.521-17.921-.359-.269-.682.348-.327.615a39.141,39.141,0,0,1,14.148,20.613c0,.014.012.022.016.035q.386,4.816.342,9.68a.339.339,0,1,0,.672.011,119.669,119.669,0,0,0-4.544-31.956c-1.567-7.337-1-15-.411-22.393.041-.505-.664-.646-.7-.146" transform="translate(-19.806 -216.498)" fill="#fff"/>
                  </g>
                </g>
              </g>
              <path id="Trazado_876300" data-name="Trazado 876300" d="M61.383,308.226H40.089a2.5,2.5,0,0,0-2.5,2.5v1.1a2.5,2.5,0,0,0,2.5,2.5l2.452,17.708h16.39l2.452-17.708a2.5,2.5,0,0,0,2.5-2.5v-1.1a2.5,2.5,0,0,0-2.5-2.5" transform="translate(-11.998 -98.387)" fill="#407bff"/>
              <g id="Grupo_1101685" data-name="Grupo 1101685" transform="translate(25.589 209.839)" opacity="0.2">
                <g id="Grupo_1101684" data-name="Grupo 1101684">
                  <g id="Grupo_1101683" data-name="Grupo 1101683" clip-path="url(#clip-path-50)">
                    <path id="Trazado_876301" data-name="Trazado 876301" d="M61.383,308.226H40.089a2.5,2.5,0,0,0-2.5,2.5v1.1a2.5,2.5,0,0,0,2.5,2.5l2.452,17.708h16.39l2.452-17.708a2.5,2.5,0,0,0,2.5-2.5v-1.1a2.5,2.5,0,0,0-2.5-2.5" transform="translate(-37.586 -308.226)"/>
                  </g>
                </g>
              </g>
              <g id="Grupo_1101688" data-name="Grupo 1101688" transform="translate(28.099 215.999)" opacity="0.2">
                <g id="Grupo_1101687" data-name="Grupo 1101687">
                  <g id="Grupo_1101686" data-name="Grupo 1101686" clip-path="url(#clip-path-51)">
                    <path id="Trazado_876302" data-name="Trazado 876302" d="M62.055,320.867l.5-3.593H41.273l.5,3.593Z" transform="translate(-41.273 -317.274)"/>
                  </g>
                </g>
              </g>
            </g>
          </g>
          <g id="Grupo_1101722" data-name="Grupo 1101722">
            <g id="Grupo_1101721" data-name="Grupo 1101721" clip-path="url(#clip-path-2)">
              <path id="Trazado_876303" data-name="Trazado 876303" d="M331.407,128.278s12.192,10.486,12.192,16.7c0,5.711-12.112,11.833-17.435,12.625a43.633,43.633,0,0,1-4.99,0,2.718,2.718,0,0,1-2.564-1.814l-.062-.176a2.683,2.683,0,0,1,.633-2.821,4.159,4.159,0,0,1,2.154-1.2c1.923-.3,4.628,2.405,4.628,2.405s11.823-7.114,11.823-8.417-5.4-5.562-7.014-7.916c-1.351-1.973-2.74-4.84.634-9.384" transform="translate(-101.631 -40.947)" fill="#b97964"/>
              <path id="Trazado_876304" data-name="Trazado 876304" d="M336.378,127.348c1.184.708,3.851,2.754,8.151,8.437,0,0-.158,3.1-5.681,6,0,0-5.892-4.524-5.84-8.891a7.394,7.394,0,0,1,2.031-5.394,1.1,1.1,0,0,1,1.339-.15" transform="translate(-106.297 -40.599)" fill="#407bff"/>
              <g id="Grupo_1101693" data-name="Grupo 1101693" transform="translate(228.839 90.031)" opacity="0.2">
                <g id="Grupo_1101692" data-name="Grupo 1101692">
                  <g id="Grupo_1101691" data-name="Grupo 1101691" clip-path="url(#clip-path-53)">
                    <path id="Trazado_876305" data-name="Trazado 876305" d="M336.134,139.646a22.791,22.791,0,0,0,3.711,3.75c.15-.078.294-.157.436-.236a22.3,22.3,0,0,0-1.541-10.917l-2.083,2.84Z" transform="translate(-336.134 -132.243)"/>
                  </g>
                </g>
              </g>
              <g id="Grupo_1101696" data-name="Grupo 1101696" transform="translate(224.417 108.503)" opacity="0.2">
                <g id="Grupo_1101695" data-name="Grupo 1101695">
                  <g id="Grupo_1101694" data-name="Grupo 1101694" clip-path="url(#clip-path-54)">
                    <path id="Trazado_876306" data-name="Trazado 876306" d="M329.983,167.489a30.018,30.018,0,0,0,8.264-3.133c-1.117-.816-1.448-3.655-1.543-4.979-3.031,2.045-6.508,4.156-7.065,4.493Z" transform="translate(-329.639 -159.377)" fill="#606060"/>
                  </g>
                </g>
              </g>
              <path id="Trazado_876307" data-name="Trazado 876307" d="M340.426,145.235s4.919-2.656,6.471-6.655l.92,1.551a12.791,12.791,0,0,1-6.436,6.082Z" transform="translate(-108.665 -44.235)" fill="#407bff"/>
              <g id="Grupo_1101699" data-name="Grupo 1101699" transform="translate(231.761 94.345)" opacity="0.5">
                <g id="Grupo_1101698" data-name="Grupo 1101698">
                  <g id="Grupo_1101697" data-name="Grupo 1101697" clip-path="url(#clip-path-55)">
                    <path id="Trazado_876308" data-name="Trazado 876308" d="M340.426,145.235s4.919-2.656,6.471-6.655l.92,1.551a12.791,12.791,0,0,1-6.436,6.082Z" transform="translate(-340.426 -138.58)" fill="#fff"/>
                  </g>
                </g>
              </g>
              <path id="Trazado_876309" data-name="Trazado 876309" d="M326.928,141.075l-.686-.882a1.018,1.018,0,0,0-.965-.382l-7.973,1.263a1.019,1.019,0,0,0-.848,1.167l2.413,15.24a1.06,1.06,0,0,0,1.212.881l18.119-2.87a1.059,1.059,0,0,0,.88-1.212l-2.106-13.3a1.02,1.02,0,0,0-1.167-.848l-8.047,1.274a.882.882,0,0,1-.835-.33" transform="translate(-101.01 -44.624)" fill="#407bff"/>
              <g id="Grupo_1101702" data-name="Grupo 1101702" transform="translate(215.434 95.175)" opacity="0.4">
                <g id="Grupo_1101701" data-name="Grupo 1101701">
                  <g id="Grupo_1101700" data-name="Grupo 1101700" clip-path="url(#clip-path-56)">
                    <path id="Trazado_876310" data-name="Trazado 876310" d="M326.928,141.075l-.686-.882a1.018,1.018,0,0,0-.965-.382l-7.973,1.263a1.019,1.019,0,0,0-.848,1.167l2.413,15.24a1.06,1.06,0,0,0,1.212.881l18.119-2.87a1.059,1.059,0,0,0,.88-1.212l-2.106-13.3a1.02,1.02,0,0,0-1.167-.848l-8.047,1.274a.882.882,0,0,1-.835-.33" transform="translate(-316.444 -139.799)" fill="#fff"/>
                  </g>
                </g>
              </g>
              <path id="Trazado_876311" data-name="Trazado 876311" d="M336.1,140.281l-7.974,1.263a1.019,1.019,0,0,0-.8.661l-.379,1.051a.883.883,0,0,1-.692.572l-8.047,1.274a1.02,1.02,0,0,0-.848,1.167l1.8,11.362a1.06,1.06,0,0,0,1.213.881l18.119-2.87a1.059,1.059,0,0,0,.881-1.212l-2.106-13.3a1.02,1.02,0,0,0-1.167-.848" transform="translate(-101.298 -44.774)" fill="#407bff"/>
              <g id="Grupo_1101705" data-name="Grupo 1101705" transform="translate(216.048 95.495)" opacity="0.7">
                <g id="Grupo_1101704" data-name="Grupo 1101704">
                  <g id="Grupo_1101703" data-name="Grupo 1101703" clip-path="url(#clip-path-57)">
                    <path id="Trazado_876312" data-name="Trazado 876312" d="M336.1,140.281l-7.974,1.263a1.019,1.019,0,0,0-.8.661l-.379,1.051a.883.883,0,0,1-.692.572l-8.047,1.274a1.02,1.02,0,0,0-.848,1.167l1.8,11.362a1.06,1.06,0,0,0,1.213.881l18.119-2.87a1.059,1.059,0,0,0,.881-1.212l-2.106-13.3a1.02,1.02,0,0,0-1.167-.848" transform="translate(-317.346 -140.269)" fill="#fff"/>
                  </g>
                </g>
              </g>
              <path id="Trazado_876313" data-name="Trazado 876313" d="M359.307,322.91l2.46,8.575,4.011-.789-1.052-9.154Z" transform="translate(-114.692 -102.637)" fill="#b97964"/>
              <path id="Trazado_876314" data-name="Trazado 876314" d="M359.643,333.809l4.734-.859a.388.388,0,0,1,.426.231l1.555,3.7a.645.645,0,0,1-.338.846.66.66,0,0,1-.13.04c-1.712.28-3.246.462-5.37.85-2.507.455-1.816.64-4.757,1.217-1.771.346-2.463-1.613-1.728-1.85,3.368-1.059,3.537-2.165,4.642-3.64a1.551,1.551,0,0,1,.966-.531" transform="translate(-112.916 -106.277)" fill="#263238"/>
              <path id="Trazado_876315" data-name="Trazado 876315" d="M307.971,321.1v11.363h4.261l2.2-11.1Z" transform="translate(-98.305 -102.497)" fill="#b97964"/>
              <path id="Trazado_876316" data-name="Trazado 876316" d="M304.686,336.729l4.8.172a.387.387,0,0,1,.366.316l.728,3.938a.643.643,0,0,1-.645.764c-1.731-.092-3.266-.242-5.422-.316-2.543-.09-1.909.237-4.9.173-1.8-.041-2.059-2.1-1.291-2.174,3.512-.315,3.913-1.358,5.306-2.561a1.548,1.548,0,0,1,1.056-.312" transform="translate(-95.096 -107.483)" fill="#263238"/>
              <path id="Trazado_876317" data-name="Trazado 876317" d="M325.392,180.6l7.957-2.245s5.643,3.618,6.478,20.062c.336,6.612,2.223,11.715,1.959,24.246a22.552,22.552,0,0,0,2.355,10.56,54.768,54.768,0,0,1,4.4,12.471c2.385,10.662,5.331,35.073,5.331,35.073l-5.752.982s-5.331-18.1-12.346-36.2-11.925-45.735-11.925-45.735l-1.844-19.22Z" transform="translate(-102.785 -56.93)" fill="#263238"/>
              <g id="Grupo_1101708" data-name="Grupo 1101708" transform="translate(221.996 143.726)" opacity="0.6">
                <g id="Grupo_1101707" data-name="Grupo 1101707">
                  <g id="Grupo_1101706" data-name="Grupo 1101706" clip-path="url(#clip-path-58)">
                    <path id="Trazado_876318" data-name="Trazado 876318" d="M329.991,211.115l-1.613.351-1.824,1.824-.47,1.863c.729,3.662,1.863,9.065,3.316,15.1,2.778-15.353.592-19.135.592-19.135" transform="translate(-326.083 -211.115)"/>
                  </g>
                </g>
              </g>
              <path id="Trazado_876319" data-name="Trazado 876319" d="M305.343,180.617l1.473,103.324H312.5s5.892-25.463,5.892-35.564c0-5.979-.393-12.3-.714-16.468a23.11,23.11,0,0,1,1.14-9.135c1.868-5.561,4.806-15.142,5.186-21.395,0,0,7.436-.281,2.1-20.763Z" transform="translate(-97.466 -57.654)" fill="#263238"/>
              <path id="Trazado_876320" data-name="Trazado 876320" d="M310.569,103.83l-2.621,2.542a2.738,2.738,0,0,0,2.329.8Z" transform="translate(-98.298 -33.143)" fill="#a24e3f"/>
              <path id="Trazado_876321" data-name="Trazado 876321" d="M325.5,100.494c-1.055,5.18-1.39,7.4-4.405,9.711-4.416,2.164-10.678,1.05-11.191-4.345-.464-4.854,1.335-12.492,6.751-13.881a7.216,7.216,0,0,1,8.845,8.515" transform="translate(-98.899 -29.287)" fill="#b97964"/>
              <path id="Trazado_876322" data-name="Trazado 876322" d="M312.638,98.3a.217.217,0,0,1-.163-.113,1.637,1.637,0,0,0-1.179-.914.207.207,0,0,1-.185-.227.212.212,0,0,1,.23-.184A2.029,2.029,0,0,1,312.847,98a.209.209,0,0,1-.091.28h0a.221.221,0,0,1-.118.022" transform="translate(-99.307 -30.919)" fill="#263238"/>
              <g id="Grupo_1101711" data-name="Grupo 1101711" transform="translate(211.543 78.599)" opacity="0.2">
                <g id="Grupo_1101710" data-name="Grupo 1101710">
                  <g id="Grupo_1101709" data-name="Grupo 1101709" clip-path="url(#clip-path-59)">
                    <path id="Trazado_876323" data-name="Trazado 876323" d="M313.578,116.256a5.77,5.77,0,0,1-2.85-.8,6.164,6.164,0,0,0,5.165,3.3l-.076-1.1s.2-1.328-2.239-1.4" transform="translate(-310.728 -115.451)" fill="#606060"/>
                  </g>
                </g>
              </g>
              <path id="Trazado_876324" data-name="Trazado 876324" d="M317.707,122.465l.464-6.655s2.693-.982,4.305,0c0,0,.772,4.98,2.245,6.173Z" transform="translate(-101.413 -36.828)" fill="#b97964"/>
              <path id="Trazado_876325" data-name="Trazado 876325" d="M310.064,101.829c-.1.385.025.75.278.814s.556-.21.639-.588-.025-.749-.279-.809-.538.2-.638.583" transform="translate(-98.963 -32.315)" fill="#263238"/>
              <path id="Trazado_876326" data-name="Trazado 876326" d="M310.791,100.816a1.659,1.659,0,0,1-1.146-.9,1.358,1.358,0,0,0,1,1.345Z" transform="translate(-98.839 -31.894)" fill="#263238"/>
              <path id="Trazado_876327" data-name="Trazado 876327" d="M312.4,103.277a4.057,4.057,0,0,0-.052,3.115c.537,1.328,1.946,1.129,2.748.039.728-.987,1.314-2.86.313-3.849a1.839,1.839,0,0,0-3.01.7" transform="translate(-99.612 -32.574)" fill="#b97964"/>
              <path id="Trazado_876328" data-name="Trazado 876328" d="M335.814,96.56s2.806-2.676.561-4.64.316,2.125-.561,4.64" transform="translate(-107.069 -29.176)" fill="#263238"/>
              <path id="Trazado_876329" data-name="Trazado 876329" d="M316.967,93.058s-2.981-2.49-4-.6,1.718-.245,4,.6" transform="translate(-99.831 -29.287)" fill="#263238"/>
              <path id="Trazado_876330" data-name="Trazado 876330" d="M314.994,100.864l-4.4-1.413.029-.1a.719.719,0,0,0-.487-.893l-.8-.238a.719.719,0,0,0-.892.487l-.842,2.86a.944.944,0,0,0,.639,1.172l.373.11a.942.942,0,0,0,1.172-.639l.694-2.357,4.392,1.409Zm-6.01-2.213a.293.293,0,0,1,.227-.025l.805.237a.3.3,0,0,1,.2.37l-.026.089-1.367-.438.016-.056a.294.294,0,0,1,.143-.178m.392,3.443a.523.523,0,0,1-.649.355l-.373-.11a.523.523,0,0,1-.355-.649l.707-2.4,1.367.438Z" transform="translate(-98.173 -31.343)" fill="#263238"/>
              <path id="Trazado_876331" data-name="Trazado 876331" d="M314.307,126.782s.7-2.631,5.241-3.578a5.612,5.612,0,0,1,6.333,2.667Z" transform="translate(-100.328 -39.277)" fill="#407bff"/>
              <g id="Grupo_1101714" data-name="Grupo 1101714" transform="translate(213.979 83.77)" opacity="0.5">
                <g id="Grupo_1101713" data-name="Grupo 1101713">
                  <g id="Grupo_1101712" data-name="Grupo 1101712" clip-path="url(#clip-path-60)">
                    <path id="Trazado_876332" data-name="Trazado 876332" d="M314.307,126.782s.7-2.631,5.241-3.578a5.612,5.612,0,0,1,6.333,2.667Z" transform="translate(-314.307 -123.047)" fill="#fff"/>
                  </g>
                </g>
              </g>
              <path id="Trazado_876333" data-name="Trazado 876333" d="M303.339,163.8s18.466,2.28,24.358-2.227a50.337,50.337,0,0,1-1.144-14.4c.565-7.681,2.933-15.257.408-19.413s-21.2-1.052-24.884,2.736,1.263,18.518,1.263,33.3" transform="translate(-95.989 -40.149)" fill="#407bff"/>
              <g id="Grupo_1101717" data-name="Grupo 1101717" transform="translate(205.285 91.977)" opacity="0.2">
                <g id="Grupo_1101716" data-name="Grupo 1101716">
                  <g id="Grupo_1101715" data-name="Grupo 1101715" clip-path="url(#clip-path-61)">
                    <path id="Trazado_876334" data-name="Trazado 876334" d="M306.5,136.734l-1.526,4.553-3.434,4.288c.4,3.152.939,6.7,1.367,10.439a20.577,20.577,0,0,0,4.119-6.76c3.333-9.091.683-14.151.683-14.151Z" transform="translate(-301.536 -135.102)"/>
                  </g>
                </g>
              </g>
              <path id="Trazado_876335" data-name="Trazado 876335" d="M313.554,100.671s-5.472,13.529,3.788,13.429,11.462-2.346,8.993-4.17,5.641-7.856,2.6-15.432c0,0-1.074-6.033-7.246-5.962a6.036,6.036,0,0,0-3.866-2.323,2.845,2.845,0,0,0-2.765,4.324l1.274,2.068s-4.814,1.543-2.78,8.067" transform="translate(-99.575 -27.511)" fill="#263238"/>
              <path id="Trazado_876336" data-name="Trazado 876336" d="M296.7,131.625s-4.531,1-5.422,6.7-1.456,10.021-3.117,10.6c-1.751.607-9.527-5.958-9.527-5.958l.259-3.825a2.134,2.134,0,0,0-1.2-2.063l-.593-.288a2.132,2.132,0,0,0-2.286.27l-.483.4a2.138,2.138,0,0,0-.739,2.065c.3,1.535.935,4,2.011,4.773,0,0,11.041,12.7,14.336,11.38s5.781-9.306,7.123-12.627c1.07-2.646,2.475-5.563-.366-11.418" transform="translate(-87.32 -42.015)" fill="#b97964"/>
              <path id="Trazado_876337" data-name="Trazado 876337" d="M304.419,130.445c-1.234-.794-6.365.158-7.576,11.943,0,0,4.051,3.419,7.892,2.946,0,0,5-11.469-.316-14.888" transform="translate(-94.753 -41.571)" fill="#407bff"/>
              <path id="Trazado_876338" data-name="Trazado 876338" d="M296.371,146.423a14.647,14.647,0,0,0,8.944,3.217l-.577,1.327s-4.211.927-8.551-3.229Z" transform="translate(-94.544 -46.739)" fill="#407bff"/>
              <g id="Grupo_1101720" data-name="Grupo 1101720" transform="translate(201.643 99.684)" opacity="0.5">
                <g id="Grupo_1101719" data-name="Grupo 1101719">
                  <g id="Grupo_1101718" data-name="Grupo 1101718" clip-path="url(#clip-path-62)">
                    <path id="Trazado_876339" data-name="Trazado 876339" d="M296.371,146.423a14.647,14.647,0,0,0,8.944,3.217l-.577,1.327s-4.211.927-8.551-3.229Z" transform="translate(-296.186 -146.423)" fill="#fff"/>
                  </g>
                </g>
              </g>
              <path id="Trazado_876340" data-name="Trazado 876340" d="M358.911,327.627l.54,2.115,6.737-1.284-.234-2.1Z" transform="translate(-114.565 -104.176)" fill="#407bff"/>
              <path id="Trazado_876341" data-name="Trazado 876341" d="M306.483,330.4l.079,2.1h6.971l.421-2.1Z" transform="translate(-97.83 -105.463)" fill="#407bff"/>
            </g>
          </g>
        </g>
      </g>
    </g>
  </g>
</svg>
