<svg xmlns="http://www.w3.org/2000/svg" xmlns:xlink="http://www.w3.org/1999/xlink" width="502" height="296.426" viewBox="0 0 502 296.426">
  <defs>
    <linearGradient id="linear-gradient" x1="0.814" y1="0.117" x2="0.236" y2="0.921" gradientUnits="objectBoundingBox">
      <stop offset="0" stop-color="#be79ca"/>
      <stop offset="1" stop-color="#371f63"/>
    </linearGradient>
    <clipPath id="clip-path">
      <path id="Unión_4" data-name="Unión 4" d="M128.744,296H25.413V237.072a139.784,139.784,0,0,1,0-160.735V0h174l-5.2,28.008a139.744,139.744,0,0,1-54.489,268.416Q134.182,296.425,128.744,296Z" transform="translate(-5980.414 -9017)" fill="#6e3dc6"/>
    </clipPath>
  </defs>
  <g id="Grupo_1102811" data-name="Grupo 1102811" transform="translate(-894.006 -9543.791)">
    <g id="Grupo_1101303" data-name="Grupo 1101303" transform="translate(13643.009 22169.791)">
      <path id="Trazado_145968" data-name="Trazado 145968" d="M61.939,0a61.939,61.939,0,1,0,61.939,61.939A61.939,61.939,0,0,0,61.939,0Z" transform="translate(-12688.868 -12458.757)" fill="#75baf1" opacity="0.444"/>
      <path id="Trazado_145969" data-name="Trazado 145969" d="M42.323,0A42.323,42.323,0,1,0,84.647,42.323,42.323,42.323,0,0,0,42.323,0Z" transform="translate(-12446.252 -12592.855)" fill="#75baf1" opacity="0.444"/>
      <rect id="Rectángulo_34812" data-name="Rectángulo 34812" width="371.387" height="278.54" transform="translate(-12698.387 -12608.565)" fill="none"/>
      <path id="Trazado_145967" data-name="Trazado 145967" d="M139.721,0A139.72,139.72,0,1,0,279.441,139.72,139.721,139.721,0,0,0,139.721,0Z" transform="translate(-12652.414 -12609.016)" fill="url(#linear-gradient)"/>
      <path id="Trazado_145971" data-name="Trazado 145971" d="M11.637,0A11.637,11.637,0,1,0,23.273,11.637,11.637,11.637,0,0,0,11.637,0Z" transform="translate(-12396.246 -12376.358)" fill="#75baf1"/>
    </g>
    <g id="Grupo_1102804" data-name="Grupo 1102804" transform="translate(-5885.994 11252.435)">
      <g id="Rectángulo_402988" data-name="Rectángulo 402988" transform="translate(6972 -1621)" fill="#fff" stroke="#6e3dc6" stroke-width="1">
        <rect width="114" height="121" rx="9" stroke="none"/>
        <rect x="0.5" y="0.5" width="113" height="120" rx="8.5" fill="none"/>
      </g>
      <g id="Rectángulo_402989" data-name="Rectángulo 402989" transform="translate(6972 -1621)" fill="#75baf1" stroke="#6e3dc6" stroke-width="1">
        <path d="M10,0h94a10,10,0,0,1,10,10V25a0,0,0,0,1,0,0H0a0,0,0,0,1,0,0V10A10,10,0,0,1,10,0Z" stroke="none"/>
        <path d="M10,.5h94a9.5,9.5,0,0,1,9.5,9.5V24.5a0,0,0,0,1,0,0H.5a0,0,0,0,1,0,0V10A9.5,9.5,0,0,1,10,.5Z" fill="none"/>
      </g>
    </g>
    <g id="Grupo_1102805" data-name="Grupo 1102805" transform="translate(-5689.994 11252.435)">
      <g id="Rectángulo_402988-2" data-name="Rectángulo 402988" transform="translate(6972 -1621)" fill="#fff" stroke="#6e3dc6" stroke-width="1">
        <rect width="114" height="121" rx="9" stroke="none"/>
        <rect x="0.5" y="0.5" width="113" height="120" rx="8.5" fill="none"/>
      </g>
      <g id="Rectángulo_402989-2" data-name="Rectángulo 402989" transform="translate(6972 -1621)" fill="#75baf1" stroke="#6e3dc6" stroke-width="1">
        <path d="M10,0h94a10,10,0,0,1,10,10V25a0,0,0,0,1,0,0H0a0,0,0,0,1,0,0V10A10,10,0,0,1,10,0Z" stroke="none"/>
        <path d="M10,.5h94a9.5,9.5,0,0,1,9.5,9.5V24.5a0,0,0,0,1,0,0H.5a0,0,0,0,1,0,0V10A9.5,9.5,0,0,1,10,.5Z" fill="none"/>
      </g>
    </g>
    <g id="Grupo_1102803" data-name="Grupo 1102803" transform="translate(-6077.994 11233.435)">
      <g id="Rectángulo_402988-3" data-name="Rectángulo 402988" transform="translate(6972 -1621)" fill="#fff" stroke="#6e3dc6" stroke-width="1">
        <rect width="110" height="178" rx="9" stroke="none"/>
        <rect x="0.5" y="0.5" width="109" height="177" rx="8.5" fill="none"/>
      </g>
      <g id="Rectángulo_402989-3" data-name="Rectángulo 402989" transform="translate(6972 -1621)" fill="#be79ca" stroke="#6e3dc6" stroke-width="1">
        <path d="M10,0h90a10,10,0,0,1,10,10V25a0,0,0,0,1,0,0H0a0,0,0,0,1,0,0V10A10,10,0,0,1,10,0Z" stroke="none"/>
        <path d="M10,.5h90a9.5,9.5,0,0,1,9.5,9.5V24.5a0,0,0,0,1,0,0H.5a0,0,0,0,1,0,0V10A9.5,9.5,0,0,1,10,.5Z" fill="none"/>
      </g>
    </g>
    <g id="clave" transform="translate(911.03 9644.959) rotate(135)">
      <path id="Trazado_877272" data-name="Trazado 877272" d="M17.861,8.766a.331.331,0,0,0-.116-.255.268.268,0,0,0-.083-.049l-.025-.01a.387.387,0,0,0-.047-.011.3.3,0,0,0-.054,0h-.494l-1.115,0a.2.2,0,0,0-.114.065l-3.554,3.554a3.04,3.04,0,0,0-.4-.093,2.952,2.952,0,0,0-.729-.029,3,3,0,0,0-2.113,4.855c.069.085.139.165.213.24a3,3,0,0,0,5.008-2.992l.353-.353a.1.1,0,0,0,.029-.08l-.08-.87a.1.1,0,0,1,.023-.072.1.1,0,0,1,.087-.038l.393.036.4.038a.1.1,0,0,0,.11-.11l-.074-.8a.1.1,0,0,1,.023-.072.1.1,0,0,1,.087-.038l.393.036.4.038a.1.1,0,0,0,.11-.11l-.072-.8a.1.1,0,0,1,.023-.072.1.1,0,0,1,.085-.036l.469.043.406.036a.1.1,0,0,0,.078-.029l.33-.34a.166.166,0,0,0,.046-.114Zm-6.773,7.57a.8.8,0,0,1-1.132,0,.086.086,0,0,1-.016-.02.346.346,0,0,1-.051-.059l0,0a.38.38,0,0,1-.043-.062.392.392,0,0,1-.038-.067.648.648,0,0,1-.034-.077.39.39,0,0,1-.02-.062A.8.8,0,0,1,10.74,15a.385.385,0,0,1,.062.02.643.643,0,0,1,.077.034.392.392,0,0,1,.067.038.381.381,0,0,1,.062.043l0,0a.347.347,0,0,1,.059.051.086.086,0,0,1,.02.016.8.8,0,0,1,0,1.132Zm0,0" transform="translate(-8.205 -8.231)" fill="#fec108"/>
      <path id="Trazado_877273" data-name="Trazado 877273" d="M17.37,8.766a.331.331,0,0,0-.116-.255.267.267,0,0,0-.083-.049l-.025-.01A.388.388,0,0,0,17.1,8.44a.3.3,0,0,0-.054,0h0l-1.115,0a.2.2,0,0,0-.114.065l-3.554,3.554a3.04,3.04,0,0,0-.4-.093l-.093.093a3.019,3.019,0,0,0-.636-.123,3,3,0,0,0-2.113,4.855c.069.085.139.165.213.24a2.987,2.987,0,0,0,1.9.885,3,3,0,0,0,2.615-3.876l.353-.353a.1.1,0,0,0,.029-.08l-.08-.87a.1.1,0,0,1,.11-.11l.4.038.393.036a.1.1,0,0,0,.11-.11l-.074-.8a.1.1,0,0,1,.11-.11l.4.038.393.036a.1.1,0,0,0,.11-.11l-.072-.8a.1.1,0,0,1,.108-.108l.406.036.469.042A.1.1,0,0,0,17,10.784L17,10.777l.324-.334a.166.166,0,0,0,.046-.114Zm-6.282,7.57a.8.8,0,0,1-.811.195c-.276.09-.044.025-.263-.195a.086.086,0,0,1-.016-.02.347.347,0,0,1-.051-.059l0,0a.38.38,0,0,1-.043-.062.392.392,0,0,1-.038-.067.648.648,0,0,1-.034-.077.39.39,0,0,1-.02-.062.8.8,0,0,1,.2-.784c.213-.213-.034-.28.236-.2l.026.008A.789.789,0,0,1,10.739,15a.385.385,0,0,1,.062.02.643.643,0,0,1,.077.034.392.392,0,0,1,.067.038.381.381,0,0,1,.062.043l0,0a.346.346,0,0,1,.059.051.086.086,0,0,1,.02.016.8.8,0,0,1,0,1.132Zm0,0" transform="translate(-8.205 -8.231)" fill="#ffdc00"/>
      <path id="Trazado_877274" data-name="Trazado 877274" d="M3.164,9.854c-.059,0-.117,0-.176,0A3.165,3.165,0,1,1,4.005,3.637L7.49.152A.368.368,0,0,1,7.7.04c.007,0,.017,0,.02,0H9.328a.5.5,0,0,1,.349.144A.487.487,0,0,1,9.82.535l0,1.563a.327.327,0,0,1-.092.228h0l-.331.34a.261.261,0,0,1-.21.078l-.8-.072.065.724a.264.264,0,0,1-.286.286l-.722-.066.066.722a.264.264,0,0,1-.287.286L6.505,4.56l.073.795a.263.263,0,0,1-.076.21l-.285.285a3.165,3.165,0,0,1-3.053,4Zm0-6a2.839,2.839,0,1,0,2.717,2,.163.163,0,0,1,.041-.164l.332-.332-.077-.841a.264.264,0,0,1,.286-.287l.722.066-.066-.722A.264.264,0,0,1,7.4,3.285l.722.066-.065-.724a.264.264,0,0,1,.286-.286l.842.076L9.5,2.1h0l0-1.564A.164.164,0,0,0,9.329.367H7.742L7.721.384,4.168,3.937A.164.164,0,0,1,4,3.978,2.872,2.872,0,0,0,3.16,3.85Zm0,0" transform="translate(0)"/>
      <path id="Trazado_877275" data-name="Trazado 877275" d="M70.429,337.359a.963.963,0,1,1,.682-.282A.963.963,0,0,1,70.429,337.359Zm0-1.6a.637.637,0,1,0,.45.186A.636.636,0,0,0,70.429,335.759Zm0,0" transform="translate(-68.112 -328.857)"/>
      <path id="Trazado_877276" data-name="Trazado 877276" d="M234.082,81.592a.164.164,0,0,1-.116-.279l2.547-2.547a.164.164,0,1,1,.231.231L234.2,81.544A.163.163,0,0,1,234.082,81.592Zm0,0" transform="translate(-229.361 -77.144)"/>
      <path id="Trazado_877277" data-name="Trazado 877277" d="M386.9,58.613a.164.164,0,1,0-.164.164A.164.164,0,0,0,386.9,58.613Zm0,0" transform="translate(-379.037 -57.272)"/>
    </g>
    <g id="clave-2" data-name="clave" transform="translate(1303.033 9665.402) rotate(135)">
      <path id="Trazado_877272-2" data-name="Trazado 877272" d="M17.861,8.766a.331.331,0,0,0-.116-.255.268.268,0,0,0-.083-.049l-.025-.01a.387.387,0,0,0-.047-.011.3.3,0,0,0-.054,0h-.494l-1.115,0a.2.2,0,0,0-.114.065l-3.554,3.554a3.04,3.04,0,0,0-.4-.093,2.952,2.952,0,0,0-.729-.029,3,3,0,0,0-2.113,4.855c.069.085.139.165.213.24a3,3,0,0,0,5.008-2.992l.353-.353a.1.1,0,0,0,.029-.08l-.08-.87a.1.1,0,0,1,.023-.072.1.1,0,0,1,.087-.038l.393.036.4.038a.1.1,0,0,0,.11-.11l-.074-.8a.1.1,0,0,1,.023-.072.1.1,0,0,1,.087-.038l.393.036.4.038a.1.1,0,0,0,.11-.11l-.072-.8a.1.1,0,0,1,.023-.072.1.1,0,0,1,.085-.036l.469.043.406.036a.1.1,0,0,0,.078-.029l.33-.34a.166.166,0,0,0,.046-.114Zm-6.773,7.57a.8.8,0,0,1-1.132,0,.086.086,0,0,1-.016-.02.346.346,0,0,1-.051-.059l0,0a.38.38,0,0,1-.043-.062.392.392,0,0,1-.038-.067.648.648,0,0,1-.034-.077.39.39,0,0,1-.02-.062A.8.8,0,0,1,10.74,15a.385.385,0,0,1,.062.02.643.643,0,0,1,.077.034.392.392,0,0,1,.067.038.381.381,0,0,1,.062.043l0,0a.347.347,0,0,1,.059.051.086.086,0,0,1,.02.016.8.8,0,0,1,0,1.132Zm0,0" transform="translate(-8.205 -8.231)" fill="#fec108"/>
      <path id="Trazado_877273-2" data-name="Trazado 877273" d="M17.37,8.766a.331.331,0,0,0-.116-.255.267.267,0,0,0-.083-.049l-.025-.01A.388.388,0,0,0,17.1,8.44a.3.3,0,0,0-.054,0h0l-1.115,0a.2.2,0,0,0-.114.065l-3.554,3.554a3.04,3.04,0,0,0-.4-.093l-.093.093a3.019,3.019,0,0,0-.636-.123,3,3,0,0,0-2.113,4.855c.069.085.139.165.213.24a2.987,2.987,0,0,0,1.9.885,3,3,0,0,0,2.615-3.876l.353-.353a.1.1,0,0,0,.029-.08l-.08-.87a.1.1,0,0,1,.11-.11l.4.038.393.036a.1.1,0,0,0,.11-.11l-.074-.8a.1.1,0,0,1,.11-.11l.4.038.393.036a.1.1,0,0,0,.11-.11l-.072-.8a.1.1,0,0,1,.108-.108l.406.036.469.042A.1.1,0,0,0,17,10.784L17,10.777l.324-.334a.166.166,0,0,0,.046-.114Zm-6.282,7.57a.8.8,0,0,1-.811.195c-.276.09-.044.025-.263-.195a.086.086,0,0,1-.016-.02.347.347,0,0,1-.051-.059l0,0a.38.38,0,0,1-.043-.062.392.392,0,0,1-.038-.067.648.648,0,0,1-.034-.077.39.39,0,0,1-.02-.062.8.8,0,0,1,.2-.784c.213-.213-.034-.28.236-.2l.026.008A.789.789,0,0,1,10.739,15a.385.385,0,0,1,.062.02.643.643,0,0,1,.077.034.392.392,0,0,1,.067.038.381.381,0,0,1,.062.043l0,0a.346.346,0,0,1,.059.051.086.086,0,0,1,.02.016.8.8,0,0,1,0,1.132Zm0,0" transform="translate(-8.205 -8.231)" fill="#ffdc00"/>
      <path id="Trazado_877274-2" data-name="Trazado 877274" d="M3.164,9.854c-.059,0-.117,0-.176,0A3.165,3.165,0,1,1,4.005,3.637L7.49.152A.368.368,0,0,1,7.7.04c.007,0,.017,0,.02,0H9.328a.5.5,0,0,1,.349.144A.487.487,0,0,1,9.82.535l0,1.563a.327.327,0,0,1-.092.228h0l-.331.34a.261.261,0,0,1-.21.078l-.8-.072.065.724a.264.264,0,0,1-.286.286l-.722-.066.066.722a.264.264,0,0,1-.287.286L6.505,4.56l.073.795a.263.263,0,0,1-.076.21l-.285.285a3.165,3.165,0,0,1-3.053,4Zm0-6a2.839,2.839,0,1,0,2.717,2,.163.163,0,0,1,.041-.164l.332-.332-.077-.841a.264.264,0,0,1,.286-.287l.722.066-.066-.722A.264.264,0,0,1,7.4,3.285l.722.066-.065-.724a.264.264,0,0,1,.286-.286l.842.076L9.5,2.1h0l0-1.564A.164.164,0,0,0,9.329.367H7.742L7.721.384,4.168,3.937A.164.164,0,0,1,4,3.978,2.872,2.872,0,0,0,3.16,3.85Zm0,0" transform="translate(0)"/>
      <path id="Trazado_877275-2" data-name="Trazado 877275" d="M70.429,337.359a.963.963,0,1,1,.682-.282A.963.963,0,0,1,70.429,337.359Zm0-1.6a.637.637,0,1,0,.45.186A.636.636,0,0,0,70.429,335.759Zm0,0" transform="translate(-68.112 -328.857)"/>
      <path id="Trazado_877276-2" data-name="Trazado 877276" d="M234.082,81.592a.164.164,0,0,1-.116-.279l2.547-2.547a.164.164,0,1,1,.231.231L234.2,81.544A.163.163,0,0,1,234.082,81.592Zm0,0" transform="translate(-229.361 -77.144)"/>
      <path id="Trazado_877277-2" data-name="Trazado 877277" d="M386.9,58.613a.164.164,0,1,0-.164.164A.164.164,0,0,0,386.9,58.613Zm0,0" transform="translate(-379.037 -57.272)"/>
    </g>
    <g id="clave-3" data-name="clave" transform="translate(1104.033 9665.402) rotate(135)">
      <path id="Trazado_877272-3" data-name="Trazado 877272" d="M17.861,8.766a.331.331,0,0,0-.116-.255.268.268,0,0,0-.083-.049l-.025-.01a.387.387,0,0,0-.047-.011.3.3,0,0,0-.054,0h-.494l-1.115,0a.2.2,0,0,0-.114.065l-3.554,3.554a3.04,3.04,0,0,0-.4-.093,2.952,2.952,0,0,0-.729-.029,3,3,0,0,0-2.113,4.855c.069.085.139.165.213.24a3,3,0,0,0,5.008-2.992l.353-.353a.1.1,0,0,0,.029-.08l-.08-.87a.1.1,0,0,1,.023-.072.1.1,0,0,1,.087-.038l.393.036.4.038a.1.1,0,0,0,.11-.11l-.074-.8a.1.1,0,0,1,.023-.072.1.1,0,0,1,.087-.038l.393.036.4.038a.1.1,0,0,0,.11-.11l-.072-.8a.1.1,0,0,1,.023-.072.1.1,0,0,1,.085-.036l.469.043.406.036a.1.1,0,0,0,.078-.029l.33-.34a.166.166,0,0,0,.046-.114Zm-6.773,7.57a.8.8,0,0,1-1.132,0,.086.086,0,0,1-.016-.02.346.346,0,0,1-.051-.059l0,0a.38.38,0,0,1-.043-.062.392.392,0,0,1-.038-.067.648.648,0,0,1-.034-.077.39.39,0,0,1-.02-.062A.8.8,0,0,1,10.74,15a.385.385,0,0,1,.062.02.643.643,0,0,1,.077.034.392.392,0,0,1,.067.038.381.381,0,0,1,.062.043l0,0a.347.347,0,0,1,.059.051.086.086,0,0,1,.02.016.8.8,0,0,1,0,1.132Zm0,0" transform="translate(-8.205 -8.231)" fill="#fec108"/>
      <path id="Trazado_877273-3" data-name="Trazado 877273" d="M17.37,8.766a.331.331,0,0,0-.116-.255.267.267,0,0,0-.083-.049l-.025-.01A.388.388,0,0,0,17.1,8.44a.3.3,0,0,0-.054,0h0l-1.115,0a.2.2,0,0,0-.114.065l-3.554,3.554a3.04,3.04,0,0,0-.4-.093l-.093.093a3.019,3.019,0,0,0-.636-.123,3,3,0,0,0-2.113,4.855c.069.085.139.165.213.24a2.987,2.987,0,0,0,1.9.885,3,3,0,0,0,2.615-3.876l.353-.353a.1.1,0,0,0,.029-.08l-.08-.87a.1.1,0,0,1,.11-.11l.4.038.393.036a.1.1,0,0,0,.11-.11l-.074-.8a.1.1,0,0,1,.11-.11l.4.038.393.036a.1.1,0,0,0,.11-.11l-.072-.8a.1.1,0,0,1,.108-.108l.406.036.469.042A.1.1,0,0,0,17,10.784L17,10.777l.324-.334a.166.166,0,0,0,.046-.114Zm-6.282,7.57a.8.8,0,0,1-.811.195c-.276.09-.044.025-.263-.195a.086.086,0,0,1-.016-.02.347.347,0,0,1-.051-.059l0,0a.38.38,0,0,1-.043-.062.392.392,0,0,1-.038-.067.648.648,0,0,1-.034-.077.39.39,0,0,1-.02-.062.8.8,0,0,1,.2-.784c.213-.213-.034-.28.236-.2l.026.008A.789.789,0,0,1,10.739,15a.385.385,0,0,1,.062.02.643.643,0,0,1,.077.034.392.392,0,0,1,.067.038.381.381,0,0,1,.062.043l0,0a.346.346,0,0,1,.059.051.086.086,0,0,1,.02.016.8.8,0,0,1,0,1.132Zm0,0" transform="translate(-8.205 -8.231)" fill="#ffdc00"/>
      <path id="Trazado_877274-3" data-name="Trazado 877274" d="M3.164,9.854c-.059,0-.117,0-.176,0A3.165,3.165,0,1,1,4.005,3.637L7.49.152A.368.368,0,0,1,7.7.04c.007,0,.017,0,.02,0H9.328a.5.5,0,0,1,.349.144A.487.487,0,0,1,9.82.535l0,1.563a.327.327,0,0,1-.092.228h0l-.331.34a.261.261,0,0,1-.21.078l-.8-.072.065.724a.264.264,0,0,1-.286.286l-.722-.066.066.722a.264.264,0,0,1-.287.286L6.505,4.56l.073.795a.263.263,0,0,1-.076.21l-.285.285a3.165,3.165,0,0,1-3.053,4Zm0-6a2.839,2.839,0,1,0,2.717,2,.163.163,0,0,1,.041-.164l.332-.332-.077-.841a.264.264,0,0,1,.286-.287l.722.066-.066-.722A.264.264,0,0,1,7.4,3.285l.722.066-.065-.724a.264.264,0,0,1,.286-.286l.842.076L9.5,2.1h0l0-1.564A.164.164,0,0,0,9.329.367H7.742L7.721.384,4.168,3.937A.164.164,0,0,1,4,3.978,2.872,2.872,0,0,0,3.16,3.85Zm0,0" transform="translate(0)"/>
      <path id="Trazado_877275-3" data-name="Trazado 877275" d="M70.429,337.359a.963.963,0,1,1,.682-.282A.963.963,0,0,1,70.429,337.359Zm0-1.6a.637.637,0,1,0,.45.186A.636.636,0,0,0,70.429,335.759Zm0,0" transform="translate(-68.112 -328.857)"/>
      <path id="Trazado_877276-3" data-name="Trazado 877276" d="M234.082,81.592a.164.164,0,0,1-.116-.279l2.547-2.547a.164.164,0,1,1,.231.231L234.2,81.544A.163.163,0,0,1,234.082,81.592Zm0,0" transform="translate(-229.361 -77.144)"/>
      <path id="Trazado_877277-3" data-name="Trazado 877277" d="M386.9,58.613a.164.164,0,1,0-.164.164A.164.164,0,0,0,386.9,58.613Zm0,0" transform="translate(-379.037 -57.272)"/>
    </g>
    <g id="clave-4" data-name="clave" transform="translate(1304.977 9736.517) rotate(135)">
      <path id="Trazado_877272-4" data-name="Trazado 877272" d="M17.861,8.766a.331.331,0,0,0-.116-.255.268.268,0,0,0-.083-.049l-.025-.01a.387.387,0,0,0-.047-.011.3.3,0,0,0-.054,0h-.494l-1.115,0a.2.2,0,0,0-.114.065l-3.554,3.554a3.04,3.04,0,0,0-.4-.093,2.952,2.952,0,0,0-.729-.029,3,3,0,0,0-2.113,4.855c.069.085.139.165.213.24a3,3,0,0,0,5.008-2.992l.353-.353a.1.1,0,0,0,.029-.08l-.08-.87a.1.1,0,0,1,.023-.072.1.1,0,0,1,.087-.038l.393.036.4.038a.1.1,0,0,0,.11-.11l-.074-.8a.1.1,0,0,1,.023-.072.1.1,0,0,1,.087-.038l.393.036.4.038a.1.1,0,0,0,.11-.11l-.072-.8a.1.1,0,0,1,.023-.072.1.1,0,0,1,.085-.036l.469.043.406.036a.1.1,0,0,0,.078-.029l.33-.34a.166.166,0,0,0,.046-.114Zm-6.773,7.57a.8.8,0,0,1-1.132,0,.086.086,0,0,1-.016-.02.346.346,0,0,1-.051-.059l0,0a.38.38,0,0,1-.043-.062.392.392,0,0,1-.038-.067.648.648,0,0,1-.034-.077.39.39,0,0,1-.02-.062A.8.8,0,0,1,10.74,15a.385.385,0,0,1,.062.02.643.643,0,0,1,.077.034.392.392,0,0,1,.067.038.381.381,0,0,1,.062.043l0,0a.347.347,0,0,1,.059.051.086.086,0,0,1,.02.016.8.8,0,0,1,0,1.132Zm0,0" transform="translate(-8.205 -8.231)" fill="#fec108"/>
      <path id="Trazado_877273-4" data-name="Trazado 877273" d="M17.37,8.766a.331.331,0,0,0-.116-.255.267.267,0,0,0-.083-.049l-.025-.01A.388.388,0,0,0,17.1,8.44a.3.3,0,0,0-.054,0h0l-1.115,0a.2.2,0,0,0-.114.065l-3.554,3.554a3.04,3.04,0,0,0-.4-.093l-.093.093a3.019,3.019,0,0,0-.636-.123,3,3,0,0,0-2.113,4.855c.069.085.139.165.213.24a2.987,2.987,0,0,0,1.9.885,3,3,0,0,0,2.615-3.876l.353-.353a.1.1,0,0,0,.029-.08l-.08-.87a.1.1,0,0,1,.11-.11l.4.038.393.036a.1.1,0,0,0,.11-.11l-.074-.8a.1.1,0,0,1,.11-.11l.4.038.393.036a.1.1,0,0,0,.11-.11l-.072-.8a.1.1,0,0,1,.108-.108l.406.036.469.042A.1.1,0,0,0,17,10.784L17,10.777l.324-.334a.166.166,0,0,0,.046-.114Zm-6.282,7.57a.8.8,0,0,1-.811.195c-.276.09-.044.025-.263-.195a.086.086,0,0,1-.016-.02.347.347,0,0,1-.051-.059l0,0a.38.38,0,0,1-.043-.062.392.392,0,0,1-.038-.067.648.648,0,0,1-.034-.077.39.39,0,0,1-.02-.062.8.8,0,0,1,.2-.784c.213-.213-.034-.28.236-.2l.026.008A.789.789,0,0,1,10.739,15a.385.385,0,0,1,.062.02.643.643,0,0,1,.077.034.392.392,0,0,1,.067.038.381.381,0,0,1,.062.043l0,0a.346.346,0,0,1,.059.051.086.086,0,0,1,.02.016.8.8,0,0,1,0,1.132Zm0,0" transform="translate(-8.205 -8.231)" fill="#dbdbdb"/>
      <path id="Trazado_877274-4" data-name="Trazado 877274" d="M3.164,9.854c-.059,0-.117,0-.176,0A3.165,3.165,0,1,1,4.005,3.637L7.49.152A.368.368,0,0,1,7.7.04c.007,0,.017,0,.02,0H9.328a.5.5,0,0,1,.349.144A.487.487,0,0,1,9.82.535l0,1.563a.327.327,0,0,1-.092.228h0l-.331.34a.261.261,0,0,1-.21.078l-.8-.072.065.724a.264.264,0,0,1-.286.286l-.722-.066.066.722a.264.264,0,0,1-.287.286L6.505,4.56l.073.795a.263.263,0,0,1-.076.21l-.285.285a3.165,3.165,0,0,1-3.053,4Zm0-6a2.839,2.839,0,1,0,2.717,2,.163.163,0,0,1,.041-.164l.332-.332-.077-.841a.264.264,0,0,1,.286-.287l.722.066-.066-.722A.264.264,0,0,1,7.4,3.285l.722.066-.065-.724a.264.264,0,0,1,.286-.286l.842.076L9.5,2.1h0l0-1.564A.164.164,0,0,0,9.329.367H7.742L7.721.384,4.168,3.937A.164.164,0,0,1,4,3.978,2.872,2.872,0,0,0,3.16,3.85Zm0,0" transform="translate(0)"/>
      <path id="Trazado_877275-4" data-name="Trazado 877275" d="M70.429,337.359a.963.963,0,1,1,.682-.282A.963.963,0,0,1,70.429,337.359Zm0-1.6a.637.637,0,1,0,.45.186A.636.636,0,0,0,70.429,335.759Zm0,0" transform="translate(-68.112 -328.857)"/>
      <path id="Trazado_877276-4" data-name="Trazado 877276" d="M234.082,81.592a.164.164,0,0,1-.116-.279l2.547-2.547a.164.164,0,1,1,.231.231L234.2,81.544A.163.163,0,0,1,234.082,81.592Zm0,0" transform="translate(-229.361 -77.144)"/>
      <path id="Trazado_877277-4" data-name="Trazado 877277" d="M386.9,58.613a.164.164,0,1,0-.164.164A.164.164,0,0,0,386.9,58.613Zm0,0" transform="translate(-379.037 -57.272)"/>
    </g>
    <g id="clave-5" data-name="clave" transform="translate(1104.033 9682.517) rotate(135)">
      <path id="Trazado_877272-5" data-name="Trazado 877272" d="M17.861,8.766a.331.331,0,0,0-.116-.255.268.268,0,0,0-.083-.049l-.025-.01a.387.387,0,0,0-.047-.011.3.3,0,0,0-.054,0h-.494l-1.115,0a.2.2,0,0,0-.114.065l-3.554,3.554a3.04,3.04,0,0,0-.4-.093,2.952,2.952,0,0,0-.729-.029,3,3,0,0,0-2.113,4.855c.069.085.139.165.213.24a3,3,0,0,0,5.008-2.992l.353-.353a.1.1,0,0,0,.029-.08l-.08-.87a.1.1,0,0,1,.023-.072.1.1,0,0,1,.087-.038l.393.036.4.038a.1.1,0,0,0,.11-.11l-.074-.8a.1.1,0,0,1,.023-.072.1.1,0,0,1,.087-.038l.393.036.4.038a.1.1,0,0,0,.11-.11l-.072-.8a.1.1,0,0,1,.023-.072.1.1,0,0,1,.085-.036l.469.043.406.036a.1.1,0,0,0,.078-.029l.33-.34a.166.166,0,0,0,.046-.114Zm-6.773,7.57a.8.8,0,0,1-1.132,0,.086.086,0,0,1-.016-.02.346.346,0,0,1-.051-.059l0,0a.38.38,0,0,1-.043-.062.392.392,0,0,1-.038-.067.648.648,0,0,1-.034-.077.39.39,0,0,1-.02-.062A.8.8,0,0,1,10.74,15a.385.385,0,0,1,.062.02.643.643,0,0,1,.077.034.392.392,0,0,1,.067.038.381.381,0,0,1,.062.043l0,0a.347.347,0,0,1,.059.051.086.086,0,0,1,.02.016.8.8,0,0,1,0,1.132Zm0,0" transform="translate(-8.205 -8.231)" fill="#fec108"/>
      <path id="Trazado_877273-5" data-name="Trazado 877273" d="M17.37,8.766a.331.331,0,0,0-.116-.255.267.267,0,0,0-.083-.049l-.025-.01A.388.388,0,0,0,17.1,8.44a.3.3,0,0,0-.054,0h0l-1.115,0a.2.2,0,0,0-.114.065l-3.554,3.554a3.04,3.04,0,0,0-.4-.093l-.093.093a3.019,3.019,0,0,0-.636-.123,3,3,0,0,0-2.113,4.855c.069.085.139.165.213.24a2.987,2.987,0,0,0,1.9.885,3,3,0,0,0,2.615-3.876l.353-.353a.1.1,0,0,0,.029-.08l-.08-.87a.1.1,0,0,1,.11-.11l.4.038.393.036a.1.1,0,0,0,.11-.11l-.074-.8a.1.1,0,0,1,.11-.11l.4.038.393.036a.1.1,0,0,0,.11-.11l-.072-.8a.1.1,0,0,1,.108-.108l.406.036.469.042A.1.1,0,0,0,17,10.784L17,10.777l.324-.334a.166.166,0,0,0,.046-.114Zm-6.282,7.57a.8.8,0,0,1-.811.195c-.276.09-.044.025-.263-.195a.086.086,0,0,1-.016-.02.347.347,0,0,1-.051-.059l0,0a.38.38,0,0,1-.043-.062.392.392,0,0,1-.038-.067.648.648,0,0,1-.034-.077.39.39,0,0,1-.02-.062.8.8,0,0,1,.2-.784c.213-.213-.034-.28.236-.2l.026.008A.789.789,0,0,1,10.739,15a.385.385,0,0,1,.062.02.643.643,0,0,1,.077.034.392.392,0,0,1,.067.038.381.381,0,0,1,.062.043l0,0a.346.346,0,0,1,.059.051.086.086,0,0,1,.02.016.8.8,0,0,1,0,1.132Zm0,0" transform="translate(-8.205 -8.231)" fill="#dbdbdb"/>
      <path id="Trazado_877274-5" data-name="Trazado 877274" d="M3.164,9.854c-.059,0-.117,0-.176,0A3.165,3.165,0,1,1,4.005,3.637L7.49.152A.368.368,0,0,1,7.7.04c.007,0,.017,0,.02,0H9.328a.5.5,0,0,1,.349.144A.487.487,0,0,1,9.82.535l0,1.563a.327.327,0,0,1-.092.228h0l-.331.34a.261.261,0,0,1-.21.078l-.8-.072.065.724a.264.264,0,0,1-.286.286l-.722-.066.066.722a.264.264,0,0,1-.287.286L6.505,4.56l.073.795a.263.263,0,0,1-.076.21l-.285.285a3.165,3.165,0,0,1-3.053,4Zm0-6a2.839,2.839,0,1,0,2.717,2,.163.163,0,0,1,.041-.164l.332-.332-.077-.841a.264.264,0,0,1,.286-.287l.722.066-.066-.722A.264.264,0,0,1,7.4,3.285l.722.066-.065-.724a.264.264,0,0,1,.286-.286l.842.076L9.5,2.1h0l0-1.564A.164.164,0,0,0,9.329.367H7.742L7.721.384,4.168,3.937A.164.164,0,0,1,4,3.978,2.872,2.872,0,0,0,3.16,3.85Zm0,0" transform="translate(0)"/>
      <path id="Trazado_877275-5" data-name="Trazado 877275" d="M70.429,337.359a.963.963,0,1,1,.682-.282A.963.963,0,0,1,70.429,337.359Zm0-1.6a.637.637,0,1,0,.45.186A.636.636,0,0,0,70.429,335.759Zm0,0" transform="translate(-68.112 -328.857)"/>
      <path id="Trazado_877276-5" data-name="Trazado 877276" d="M234.082,81.592a.164.164,0,0,1-.116-.279l2.547-2.547a.164.164,0,1,1,.231.231L234.2,81.544A.163.163,0,0,1,234.082,81.592Zm0,0" transform="translate(-229.361 -77.144)"/>
      <path id="Trazado_877277-5" data-name="Trazado 877277" d="M386.9,58.613a.164.164,0,1,0-.164.164A.164.164,0,0,0,386.9,58.613Zm0,0" transform="translate(-379.037 -57.272)"/>
    </g>
    <g id="clave-6" data-name="clave" transform="translate(1104.033 9717.902) rotate(135)">
      <path id="Trazado_877272-6" data-name="Trazado 877272" d="M17.861,8.766a.331.331,0,0,0-.116-.255.268.268,0,0,0-.083-.049l-.025-.01a.387.387,0,0,0-.047-.011.3.3,0,0,0-.054,0h-.494l-1.115,0a.2.2,0,0,0-.114.065l-3.554,3.554a3.04,3.04,0,0,0-.4-.093,2.952,2.952,0,0,0-.729-.029,3,3,0,0,0-2.113,4.855c.069.085.139.165.213.24a3,3,0,0,0,5.008-2.992l.353-.353a.1.1,0,0,0,.029-.08l-.08-.87a.1.1,0,0,1,.023-.072.1.1,0,0,1,.087-.038l.393.036.4.038a.1.1,0,0,0,.11-.11l-.074-.8a.1.1,0,0,1,.023-.072.1.1,0,0,1,.087-.038l.393.036.4.038a.1.1,0,0,0,.11-.11l-.072-.8a.1.1,0,0,1,.023-.072.1.1,0,0,1,.085-.036l.469.043.406.036a.1.1,0,0,0,.078-.029l.33-.34a.166.166,0,0,0,.046-.114Zm-6.773,7.57a.8.8,0,0,1-1.132,0,.086.086,0,0,1-.016-.02.346.346,0,0,1-.051-.059l0,0a.38.38,0,0,1-.043-.062.392.392,0,0,1-.038-.067.648.648,0,0,1-.034-.077.39.39,0,0,1-.02-.062A.8.8,0,0,1,10.74,15a.385.385,0,0,1,.062.02.643.643,0,0,1,.077.034.392.392,0,0,1,.067.038.381.381,0,0,1,.062.043l0,0a.347.347,0,0,1,.059.051.086.086,0,0,1,.02.016.8.8,0,0,1,0,1.132Zm0,0" transform="translate(-8.205 -8.231)" fill="#fec108"/>
      <path id="Trazado_877273-6" data-name="Trazado 877273" d="M17.37,8.766a.331.331,0,0,0-.116-.255.267.267,0,0,0-.083-.049l-.025-.01A.388.388,0,0,0,17.1,8.44a.3.3,0,0,0-.054,0h0l-1.115,0a.2.2,0,0,0-.114.065l-3.554,3.554a3.04,3.04,0,0,0-.4-.093l-.093.093a3.019,3.019,0,0,0-.636-.123,3,3,0,0,0-2.113,4.855c.069.085.139.165.213.24a2.987,2.987,0,0,0,1.9.885,3,3,0,0,0,2.615-3.876l.353-.353a.1.1,0,0,0,.029-.08l-.08-.87a.1.1,0,0,1,.11-.11l.4.038.393.036a.1.1,0,0,0,.11-.11l-.074-.8a.1.1,0,0,1,.11-.11l.4.038.393.036a.1.1,0,0,0,.11-.11l-.072-.8a.1.1,0,0,1,.108-.108l.406.036.469.042A.1.1,0,0,0,17,10.784L17,10.777l.324-.334a.166.166,0,0,0,.046-.114Zm-6.282,7.57a.8.8,0,0,1-.811.195c-.276.09-.044.025-.263-.195a.086.086,0,0,1-.016-.02.347.347,0,0,1-.051-.059l0,0a.38.38,0,0,1-.043-.062.392.392,0,0,1-.038-.067.648.648,0,0,1-.034-.077.39.39,0,0,1-.02-.062.8.8,0,0,1,.2-.784c.213-.213-.034-.28.236-.2l.026.008A.789.789,0,0,1,10.739,15a.385.385,0,0,1,.062.02.643.643,0,0,1,.077.034.392.392,0,0,1,.067.038.381.381,0,0,1,.062.043l0,0a.346.346,0,0,1,.059.051.086.086,0,0,1,.02.016.8.8,0,0,1,0,1.132Zm0,0" transform="translate(-8.205 -8.231)" fill="#dbdbdb"/>
      <path id="Trazado_877274-6" data-name="Trazado 877274" d="M3.164,9.854c-.059,0-.117,0-.176,0A3.165,3.165,0,1,1,4.005,3.637L7.49.152A.368.368,0,0,1,7.7.04c.007,0,.017,0,.02,0H9.328a.5.5,0,0,1,.349.144A.487.487,0,0,1,9.82.535l0,1.563a.327.327,0,0,1-.092.228h0l-.331.34a.261.261,0,0,1-.21.078l-.8-.072.065.724a.264.264,0,0,1-.286.286l-.722-.066.066.722a.264.264,0,0,1-.287.286L6.505,4.56l.073.795a.263.263,0,0,1-.076.21l-.285.285a3.165,3.165,0,0,1-3.053,4Zm0-6a2.839,2.839,0,1,0,2.717,2,.163.163,0,0,1,.041-.164l.332-.332-.077-.841a.264.264,0,0,1,.286-.287l.722.066-.066-.722A.264.264,0,0,1,7.4,3.285l.722.066-.065-.724a.264.264,0,0,1,.286-.286l.842.076L9.5,2.1h0l0-1.564A.164.164,0,0,0,9.329.367H7.742L7.721.384,4.168,3.937A.164.164,0,0,1,4,3.978,2.872,2.872,0,0,0,3.16,3.85Zm0,0" transform="translate(0)"/>
      <path id="Trazado_877275-6" data-name="Trazado 877275" d="M70.429,337.359a.963.963,0,1,1,.682-.282A.963.963,0,0,1,70.429,337.359Zm0-1.6a.637.637,0,1,0,.45.186A.636.636,0,0,0,70.429,335.759Zm0,0" transform="translate(-68.112 -328.857)"/>
      <path id="Trazado_877276-6" data-name="Trazado 877276" d="M234.082,81.592a.164.164,0,0,1-.116-.279l2.547-2.547a.164.164,0,1,1,.231.231L234.2,81.544A.163.163,0,0,1,234.082,81.592Zm0,0" transform="translate(-229.361 -77.144)"/>
      <path id="Trazado_877277-6" data-name="Trazado 877277" d="M386.9,58.613a.164.164,0,1,0-.164.164A.164.164,0,0,0,386.9,58.613Zm0,0" transform="translate(-379.037 -57.272)"/>
    </g>
    <path id="Trazado_877297" data-name="Trazado 877297" d="M6.216,7.632a2.516,2.516,0,0,1-.847,1.807,2.975,2.975,0,0,1-2.014.659A2.675,2.675,0,0,1,1.2,9.177,3.774,3.774,0,0,1,.42,6.65V6.216A4.262,4.262,0,0,1,.781,4.409a2.708,2.708,0,0,1,1.033-1.2,2.893,2.893,0,0,1,1.56-.417,2.9,2.9,0,0,1,1.982.659A2.7,2.7,0,0,1,6.226,5.3H4.761a1.485,1.485,0,0,0-.383-1,1.419,1.419,0,0,0-1-.31,1.245,1.245,0,0,0-1.1.525A2.942,2.942,0,0,0,1.9,6.147v.537a3.148,3.148,0,0,0,.349,1.685,1.222,1.222,0,0,0,1.1.532,1.446,1.446,0,0,0,1.013-.31,1.4,1.4,0,0,0,.383-.959ZM8.643,8.823h3.11V10H7.178V2.891H8.643ZM14.15,10H12.686V2.891H14.15Zm5.635-3.081H16.973v1.9h3.3V10H15.508V2.891h4.756V4.077H16.973V5.771h2.813ZM26.914,10H25.449L22.6,5.322V10H21.133V2.891H22.6l2.856,4.688V2.891h1.46ZM33.4,4.077H31.226V10H29.761V4.077H27.612V2.891H33.4Zm5.112,2.842H35.7v1.9H39V10H34.238V2.891h4.756V4.077H35.7V5.771h2.813Z" transform="translate(904.006 9618.435)" fill="#12263f"/>
    <path id="Trazado_877298" data-name="Trazado 877298" d="M2.031,10H.615V4.717H2.031ZM.532,3.35a.7.7,0,0,1,.212-.522.8.8,0,0,1,.579-.205.8.8,0,0,1,.576.205.691.691,0,0,1,.215.522.693.693,0,0,1-.217.527.8.8,0,0,1-.574.205A.8.8,0,0,1,.75,3.877.693.693,0,0,1,.532,3.35Zm2.441,3.97a3.184,3.184,0,0,1,.554-1.968,1.8,1.8,0,0,1,1.516-.732A1.618,1.618,0,0,1,6.318,5.2V2.5H7.734V10H6.46l-.068-.562a1.661,1.661,0,0,1-1.357.659,1.793,1.793,0,0,1-1.5-.735A3.286,3.286,0,0,1,2.974,7.319Zm1.411.105a2.086,2.086,0,0,0,.259,1.139.843.843,0,0,0,.752.4.944.944,0,0,0,.923-.553V6.319a.931.931,0,0,0-.913-.553Q4.385,5.767,4.385,7.424ZM12.739,11.1H8.291V10h4.448ZM15.488,8.96a.926.926,0,0,0,.635-.215.753.753,0,0,0,.254-.571H17.7a1.81,1.81,0,0,1-.293.984,1.933,1.933,0,0,1-.789.693,2.468,2.468,0,0,1-1.106.247,2.294,2.294,0,0,1-1.787-.72,2.85,2.85,0,0,1-.654-1.99V7.295a2.817,2.817,0,0,1,.649-1.948A2.267,2.267,0,0,1,15.5,4.619a2.222,2.222,0,0,1,1.589.564,2,2,0,0,1,.608,1.5H16.377a.97.97,0,0,0-.254-.67.944.944,0,0,0-1.389.1,2.083,2.083,0,0,0-.251,1.166v.147A2.109,2.109,0,0,0,14.731,8.6.861.861,0,0,0,15.488,8.96ZM20,10H18.579V2.5H20Zm2.651,0H21.23V4.717h1.416Zm-1.5-6.65a.7.7,0,0,1,.212-.522.915.915,0,0,1,1.155,0,.691.691,0,0,1,.215.522.693.693,0,0,1-.217.527.905.905,0,0,1-1.147,0A.693.693,0,0,1,21.147,3.35ZM26.24,10.1a2.594,2.594,0,0,1-1.892-.713,2.534,2.534,0,0,1-.73-1.9V7.349a3.192,3.192,0,0,1,.308-1.423,2.258,2.258,0,0,1,.872-.967,2.446,2.446,0,0,1,1.287-.339,2.193,2.193,0,0,1,1.707.684,2.778,2.778,0,0,1,.623,1.938v.576H25.049a1.311,1.311,0,0,0,.413.83,1.247,1.247,0,0,0,.872.313,1.523,1.523,0,0,0,1.274-.591l.693.776a2.118,2.118,0,0,1-.859.7A2.819,2.819,0,0,1,26.24,10.1Zm-.161-4.341a.882.882,0,0,0-.681.284,1.473,1.473,0,0,0-.334.814h1.963V6.743a1.051,1.051,0,0,0-.254-.728A.91.91,0,0,0,26.079,5.757Zm4.434-1.04.044.61a1.845,1.845,0,0,1,1.519-.708,1.533,1.533,0,0,1,1.25.493,2.3,2.3,0,0,1,.42,1.475V10H32.334V6.621a.915.915,0,0,0-.2-.652.874.874,0,0,0-.649-.2.971.971,0,0,0-.894.508V10H29.185V4.717Zm5.991-1.3v1.3h.9V5.752h-.9V8.389a.63.63,0,0,0,.112.42.564.564,0,0,0,.43.127,2.25,2.25,0,0,0,.415-.034V9.971a2.9,2.9,0,0,1-.854.127,1.347,1.347,0,0,1-1.514-1.5V5.752h-.771V4.717h.771v-1.3Zm4.121,6.68a2.594,2.594,0,0,1-1.892-.713,2.534,2.534,0,0,1-.73-1.9V7.349a3.192,3.192,0,0,1,.308-1.423,2.258,2.258,0,0,1,.872-.967,2.446,2.446,0,0,1,1.287-.339,2.193,2.193,0,0,1,1.707.684A2.778,2.778,0,0,1,42.8,7.241v.576H39.434a1.311,1.311,0,0,0,.413.83,1.247,1.247,0,0,0,.872.313,1.523,1.523,0,0,0,1.274-.591l.693.776a2.118,2.118,0,0,1-.859.7A2.819,2.819,0,0,1,40.625,10.1Zm-.161-4.341a.882.882,0,0,0-.681.284,1.473,1.473,0,0,0-.334.814h1.963V6.743a1.051,1.051,0,0,0-.254-.728A.91.91,0,0,0,40.464,5.757ZM55.117,7.5V10H53.652V2.891h2.773a3.209,3.209,0,0,1,1.409.293,2.159,2.159,0,0,1,.935.833A2.321,2.321,0,0,1,59.1,5.244a2.041,2.041,0,0,1-.715,1.648,2.979,2.979,0,0,1-1.98.6Zm0-1.187h1.309a1.287,1.287,0,0,0,.886-.273,1,1,0,0,0,.305-.781,1.173,1.173,0,0,0-.308-.845,1.149,1.149,0,0,0-.85-.332H55.117Zm7.212.84-.762.82V10H60.1V2.891h1.465V6.113l.645-.884,1.812-2.339h1.8L63.3,6.05,65.9,10H64.155ZM1.538,22.717l.029.664a1.925,1.925,0,0,1,1.582-.762q1.675,0,1.689,1.89V28h-.9V24.5a1.216,1.216,0,0,0-.261-.845,1.047,1.047,0,0,0-.8-.273,1.3,1.3,0,0,0-.771.234,1.592,1.592,0,0,0-.518.615V28h-.9V22.717ZM5.962,25.31a3.121,3.121,0,0,1,.305-1.4,2.277,2.277,0,0,1,.85-.957,2.313,2.313,0,0,1,1.243-.337,2.228,2.228,0,0,1,1.746.747,2.874,2.874,0,0,1,.667,1.987v.063a3.148,3.148,0,0,1-.3,1.384,2.243,2.243,0,0,1-.845.955,2.339,2.339,0,0,1-1.262.342,2.222,2.222,0,0,1-1.741-.747,2.86,2.86,0,0,1-.667-1.978Zm.908.107a2.26,2.26,0,0,0,.408,1.411,1.382,1.382,0,0,0,2.185-.007,2.472,2.472,0,0,0,.405-1.511A2.256,2.256,0,0,0,9.456,23.9a1.312,1.312,0,0,0-1.1-.54,1.3,1.3,0,0,0-1.079.532A2.453,2.453,0,0,0,6.87,25.417Zm5.884-2.7.024.586a1.951,1.951,0,0,1,1.567-.684,1.51,1.51,0,0,1,1.509.85,2,2,0,0,1,.686-.615,2.026,2.026,0,0,1,1-.234q1.738,0,1.768,1.841V28h-.9V24.514a1.213,1.213,0,0,0-.259-.847,1.14,1.14,0,0,0-.869-.281,1.2,1.2,0,0,0-.835.3,1.218,1.218,0,0,0-.386.808V28h-.908V24.538a1.008,1.008,0,0,0-1.128-1.152,1.209,1.209,0,0,0-1.216.757V28h-.9V22.717Zm12.388,2.7a3.141,3.141,0,0,1-.557,1.946,1.779,1.779,0,0,1-1.494.735,1.842,1.842,0,0,1-1.548-.708L21.5,28h-.83V20.5h.9v2.8a1.831,1.831,0,0,1,1.509-.679,1.789,1.789,0,0,1,1.511.728,3.236,3.236,0,0,1,.549,1.992Zm-.9-.1a2.441,2.441,0,0,0-.356-1.426,1.18,1.18,0,0,0-1.025-.5,1.326,1.326,0,0,0-1.284.83V26.5a1.363,1.363,0,0,0,1.294.83,1.173,1.173,0,0,0,1.011-.5A2.6,2.6,0,0,0,24.238,25.314Zm4.595-1.787a2.707,2.707,0,0,0-.444-.034,1.19,1.19,0,0,0-1.206.757V28h-.9V22.717h.879l.015.61a1.407,1.407,0,0,1,1.26-.708.923.923,0,0,1,.4.068Zm2.93,4.57a2.308,2.308,0,0,1-1.748-.706,2.619,2.619,0,0,1-.674-1.887v-.166a3.17,3.17,0,0,1,.3-1.4,2.343,2.343,0,0,1,.84-.967,2.112,2.112,0,0,1,1.169-.349,1.979,1.979,0,0,1,1.6.679,2.939,2.939,0,0,1,.571,1.943v.376H30.244a1.878,1.878,0,0,0,.457,1.262,1.435,1.435,0,0,0,1.111.481,1.573,1.573,0,0,0,.811-.2,2.037,2.037,0,0,0,.581-.518l.552.43A2.219,2.219,0,0,1,31.763,28.1Zm-.112-4.736a1.2,1.2,0,0,0-.918.4,1.934,1.934,0,0,0-.459,1.116H32.92v-.068a1.721,1.721,0,0,0-.371-1.067A1.134,1.134,0,0,0,31.65,23.361ZM3.945,46a1.9,1.9,0,0,1-.127-.557,2.015,2.015,0,0,1-1.5.654,1.865,1.865,0,0,1-1.282-.442,1.43,1.43,0,0,1-.5-1.121,1.494,1.494,0,0,1,.627-1.282A2.958,2.958,0,0,1,2.925,42.8H3.8v-.415a1.015,1.015,0,0,0-.283-.754,1.138,1.138,0,0,0-.835-.281,1.317,1.317,0,0,0-.811.244.719.719,0,0,0-.327.591H.64a1.247,1.247,0,0,1,.281-.764,1.916,1.916,0,0,1,.762-.583,2.563,2.563,0,0,1,1.057-.215,2.089,2.089,0,0,1,1.431.457,1.647,1.647,0,0,1,.537,1.257v2.432a2.973,2.973,0,0,0,.186,1.157V46Zm-1.5-.688a1.588,1.588,0,0,0,.806-.22,1.329,1.329,0,0,0,.552-.571V43.437H3.1q-1.66,0-1.66.972a.822.822,0,0,0,.283.664A1.089,1.089,0,0,0,2.446,45.312Zm8.14-1.895a3.163,3.163,0,0,1-.552,1.943A1.768,1.768,0,0,1,8.54,46.1a1.938,1.938,0,0,1-1.514-.61v2.544h-.9V40.717h.825l.044.586a1.861,1.861,0,0,1,1.533-.684,1.8,1.8,0,0,1,1.506.718,3.2,3.2,0,0,1,.554,2Zm-.9-.1A2.334,2.334,0,0,0,9.3,41.9a1.227,1.227,0,0,0-1.045-.518,1.328,1.328,0,0,0-1.23.728v2.524a1.33,1.33,0,0,0,1.24.723A1.221,1.221,0,0,0,9.3,44.845,2.548,2.548,0,0,0,9.683,43.314ZM13.926,46.1a2.308,2.308,0,0,1-1.748-.706A2.619,2.619,0,0,1,11.5,43.5v-.166a3.17,3.17,0,0,1,.3-1.4,2.342,2.342,0,0,1,.84-.967,2.112,2.112,0,0,1,1.169-.349,1.979,1.979,0,0,1,1.6.679,2.939,2.939,0,0,1,.571,1.943v.376H12.407a1.878,1.878,0,0,0,.457,1.262,1.435,1.435,0,0,0,1.111.481,1.573,1.573,0,0,0,.811-.2,2.037,2.037,0,0,0,.581-.518l.552.43A2.219,2.219,0,0,1,13.926,46.1Zm-.112-4.736a1.2,1.2,0,0,0-.918.4,1.934,1.934,0,0,0-.459,1.116h2.646v-.068a1.721,1.721,0,0,0-.371-1.067A1.134,1.134,0,0,0,13.813,41.361ZM18.013,46h-.9V38.5h.9Zm2.427,0h-.9V38.5h.9Zm2.427,0h-.9V40.717h.9Zm-.977-6.685a.539.539,0,0,1,.134-.371.5.5,0,0,1,.4-.151.512.512,0,0,1,.4.151.534.534,0,0,1,.137.371.516.516,0,0,1-.137.366.521.521,0,0,1-.4.146.513.513,0,0,1-.4-.146A.521.521,0,0,1,21.89,39.315Zm2.2,4a3.1,3.1,0,0,1,.576-1.956,1.96,1.96,0,0,1,2.979-.1V38.5h.9V46h-.83l-.044-.566a1.84,1.84,0,0,1-1.509.664,1.8,1.8,0,0,1-1.5-.752,3.13,3.13,0,0,1-.579-1.963Zm.9.1a2.343,2.343,0,0,0,.371,1.406,1.2,1.2,0,0,0,1.025.508,1.318,1.318,0,0,0,1.255-.771V42.133a1.328,1.328,0,0,0-1.245-.747,1.205,1.205,0,0,0-1.035.513A2.58,2.58,0,0,0,25,43.417Zm4.717-.107a3.121,3.121,0,0,1,.305-1.4,2.277,2.277,0,0,1,.85-.957,2.313,2.313,0,0,1,1.243-.337,2.228,2.228,0,0,1,1.746.747,2.874,2.874,0,0,1,.667,1.987v.063a3.148,3.148,0,0,1-.3,1.384,2.243,2.243,0,0,1-.845.955,2.339,2.339,0,0,1-1.262.342,2.222,2.222,0,0,1-1.741-.747,2.86,2.86,0,0,1-.667-1.978Zm.908.107a2.26,2.26,0,0,0,.408,1.411,1.382,1.382,0,0,0,2.185-.007,2.472,2.472,0,0,0,.405-1.511,2.256,2.256,0,0,0-.413-1.409,1.312,1.312,0,0,0-1.1-.54,1.3,1.3,0,0,0-1.079.532A2.453,2.453,0,0,0,30.62,43.417ZM.464,61.314a3.1,3.1,0,0,1,.576-1.956,1.822,1.822,0,0,1,1.509-.74,1.832,1.832,0,0,1,1.47.635V56.5h.9V64h-.83l-.044-.566a1.84,1.84,0,0,1-1.509.664,1.8,1.8,0,0,1-1.5-.752,3.13,3.13,0,0,1-.579-1.963Zm.9.1a2.343,2.343,0,0,0,.371,1.406,1.2,1.2,0,0,0,1.025.508,1.318,1.318,0,0,0,1.255-.771V60.133a1.328,1.328,0,0,0-1.245-.747,1.205,1.205,0,0,0-1.035.513A2.58,2.58,0,0,0,1.367,61.417ZM7.3,64H6.4V58.717h.9Zm-.977-6.685a.539.539,0,0,1,.134-.371.5.5,0,0,1,.4-.151.512.512,0,0,1,.4.151.534.534,0,0,1,.137.371.516.516,0,0,1-.137.366.521.521,0,0,1-.4.146.513.513,0,0,1-.4-.146A.521.521,0,0,1,6.328,57.315ZM11.3,59.527a2.707,2.707,0,0,0-.444-.034,1.19,1.19,0,0,0-1.206.757V64h-.9V58.717h.879l.015.61a1.407,1.407,0,0,1,1.26-.708.923.923,0,0,1,.4.068Zm2.93,4.57a2.308,2.308,0,0,1-1.748-.706,2.619,2.619,0,0,1-.674-1.887v-.166a3.17,3.17,0,0,1,.3-1.4,2.342,2.342,0,0,1,.84-.967,2.112,2.112,0,0,1,1.169-.349,1.979,1.979,0,0,1,1.6.679,2.939,2.939,0,0,1,.571,1.943v.376H12.715a1.878,1.878,0,0,0,.457,1.262,1.435,1.435,0,0,0,1.111.481,1.573,1.573,0,0,0,.811-.2,2.037,2.037,0,0,0,.581-.518l.552.43A2.219,2.219,0,0,1,14.233,64.1Zm-.112-4.736a1.2,1.2,0,0,0-.918.4,1.934,1.934,0,0,0-.459,1.116h2.646v-.068a1.721,1.721,0,0,0-.371-1.067A1.134,1.134,0,0,0,14.121,59.361Zm5.337,4a1.3,1.3,0,0,0,.845-.293,1.031,1.031,0,0,0,.4-.732h.854a1.638,1.638,0,0,1-.312.864,2.058,2.058,0,0,1-.769.654,2.219,2.219,0,0,1-1.018.244,2.176,2.176,0,0,1-1.716-.72,2.869,2.869,0,0,1-.637-1.97v-.151a3.181,3.181,0,0,1,.283-1.372,2.157,2.157,0,0,1,.813-.933,2.309,2.309,0,0,1,1.252-.332,2.119,2.119,0,0,1,1.477.532,1.9,1.9,0,0,1,.627,1.382H20.7a1.245,1.245,0,0,0-.388-.842,1.208,1.208,0,0,0-.862-.33,1.264,1.264,0,0,0-1.067.5,2.328,2.328,0,0,0-.378,1.433v.171a2.281,2.281,0,0,0,.376,1.406A1.27,1.27,0,0,0,19.458,63.36Zm5.234,0a1.3,1.3,0,0,0,.845-.293,1.031,1.031,0,0,0,.4-.732h.854a1.638,1.638,0,0,1-.312.864,2.058,2.058,0,0,1-.769.654,2.219,2.219,0,0,1-1.018.244,2.176,2.176,0,0,1-1.716-.72,2.869,2.869,0,0,1-.637-1.97v-.151a3.181,3.181,0,0,1,.283-1.372,2.157,2.157,0,0,1,.813-.933,2.309,2.309,0,0,1,1.252-.332,2.119,2.119,0,0,1,1.477.532,1.9,1.9,0,0,1,.627,1.382h-.854a1.245,1.245,0,0,0-.388-.842,1.208,1.208,0,0,0-.862-.33,1.264,1.264,0,0,0-1.067.5,2.328,2.328,0,0,0-.378,1.433v.171a2.281,2.281,0,0,0,.376,1.406A1.27,1.27,0,0,0,24.692,63.36Zm4.1.64h-.9V58.717h.9Zm-.977-6.685a.539.539,0,0,1,.134-.371.5.5,0,0,1,.4-.151.512.512,0,0,1,.4.151.534.534,0,0,1,.137.371.516.516,0,0,1-.137.366.521.521,0,0,1-.4.146.513.513,0,0,1-.4-.146A.521.521,0,0,1,27.813,57.315ZM30,61.31a3.121,3.121,0,0,1,.305-1.4,2.277,2.277,0,0,1,.85-.957,2.313,2.313,0,0,1,1.243-.337,2.228,2.228,0,0,1,1.746.747,2.874,2.874,0,0,1,.667,1.987v.063a3.148,3.148,0,0,1-.3,1.384,2.243,2.243,0,0,1-.845.955A2.339,2.339,0,0,1,32.4,64.1a2.222,2.222,0,0,1-1.741-.747A2.86,2.86,0,0,1,30,61.373Zm.908.107a2.26,2.26,0,0,0,.408,1.411,1.382,1.382,0,0,0,2.185-.007A2.472,2.472,0,0,0,33.9,61.31a2.256,2.256,0,0,0-.413-1.409,1.312,1.312,0,0,0-1.1-.54,1.3,1.3,0,0,0-1.079.532A2.453,2.453,0,0,0,30.9,61.417ZM32.8,56.5H33.9l-1.309,1.436-.728,0Zm3.989,2.217.029.664a1.925,1.925,0,0,1,1.582-.762q1.675,0,1.689,1.89V64h-.9V60.5a1.216,1.216,0,0,0-.261-.845,1.047,1.047,0,0,0-.8-.273,1.3,1.3,0,0,0-.771.234,1.592,1.592,0,0,0-.518.615V64h-.9V58.717ZM1.128,82V77.415H.293v-.7h.835v-.542a1.8,1.8,0,0,1,.454-1.313A1.715,1.715,0,0,1,2.866,74.4a2.385,2.385,0,0,1,.62.082l-.049.728a2.594,2.594,0,0,0-.488-.044.881.881,0,0,0-.679.257,1.043,1.043,0,0,0-.239.737v.558H3.159v.7H2.031V82Zm5.1.1a2.308,2.308,0,0,1-1.748-.706A2.619,2.619,0,0,1,3.809,79.5v-.166a3.17,3.17,0,0,1,.3-1.4,2.343,2.343,0,0,1,.84-.967,2.112,2.112,0,0,1,1.169-.349,1.979,1.979,0,0,1,1.6.679,2.939,2.939,0,0,1,.571,1.943v.376H4.712a1.878,1.878,0,0,0,.457,1.262,1.435,1.435,0,0,0,1.111.481,1.573,1.573,0,0,0,.811-.2,2.037,2.037,0,0,0,.581-.518l.552.43A2.219,2.219,0,0,1,6.23,82.1Zm-.112-4.736a1.2,1.2,0,0,0-.918.4,1.934,1.934,0,0,0-.459,1.116H7.388v-.068a1.721,1.721,0,0,0-.371-1.067A1.134,1.134,0,0,0,6.118,77.361Zm5.337,4a1.3,1.3,0,0,0,.845-.293,1.031,1.031,0,0,0,.4-.732h.854a1.638,1.638,0,0,1-.312.864,2.058,2.058,0,0,1-.769.654,2.219,2.219,0,0,1-1.018.244,2.176,2.176,0,0,1-1.716-.72,2.869,2.869,0,0,1-.637-1.97v-.151a3.181,3.181,0,0,1,.283-1.372,2.157,2.157,0,0,1,.813-.933,2.309,2.309,0,0,1,1.252-.332,2.119,2.119,0,0,1,1.477.532,1.9,1.9,0,0,1,.627,1.382H12.7a1.245,1.245,0,0,0-.388-.842,1.208,1.208,0,0,0-.862-.33,1.264,1.264,0,0,0-1.067.5A2.328,2.328,0,0,0,10,79.29v.171a2.281,2.281,0,0,0,.376,1.406A1.27,1.27,0,0,0,11.455,81.36Zm4.019-4a1.921,1.921,0,0,1,1.563-.737q1.675,0,1.689,1.89V82h-.9V78.5a1.216,1.216,0,0,0-.261-.845,1.047,1.047,0,0,0-.8-.273,1.3,1.3,0,0,0-.771.234,1.592,1.592,0,0,0-.518.615V82h-.9V74.5h.9ZM23.34,82a1.9,1.9,0,0,1-.127-.557,2.016,2.016,0,0,1-1.5.654,1.865,1.865,0,0,1-1.282-.442,1.43,1.43,0,0,1-.5-1.121,1.494,1.494,0,0,1,.627-1.282,2.958,2.958,0,0,1,1.765-.457H23.2v-.415a1.015,1.015,0,0,0-.283-.754,1.138,1.138,0,0,0-.835-.281,1.317,1.317,0,0,0-.811.244.719.719,0,0,0-.327.591h-.908a1.247,1.247,0,0,1,.281-.764,1.916,1.916,0,0,1,.762-.583,2.563,2.563,0,0,1,1.057-.215,2.089,2.089,0,0,1,1.431.457,1.647,1.647,0,0,1,.537,1.257v2.432a2.973,2.973,0,0,0,.186,1.157V82Zm-1.5-.688a1.588,1.588,0,0,0,.806-.22,1.329,1.329,0,0,0,.552-.571V79.437H22.49q-1.66,0-1.66.972a.822.822,0,0,0,.283.664A1.089,1.089,0,0,0,21.841,81.312Zm7.485,1.426H24.854V82h4.473Zm1.558-6.021.029.664a1.925,1.925,0,0,1,1.582-.762q1.675,0,1.689,1.89V82h-.9V78.5a1.216,1.216,0,0,0-.261-.845,1.047,1.047,0,0,0-.8-.273,1.3,1.3,0,0,0-.771.234,1.592,1.592,0,0,0-.518.615V82h-.9V76.717ZM38.809,82a1.9,1.9,0,0,1-.127-.557,2.016,2.016,0,0,1-1.5.654,1.865,1.865,0,0,1-1.282-.442,1.43,1.43,0,0,1-.5-1.121,1.494,1.494,0,0,1,.627-1.282,2.958,2.958,0,0,1,1.765-.457h.879v-.415a1.015,1.015,0,0,0-.283-.754,1.138,1.138,0,0,0-.835-.281,1.317,1.317,0,0,0-.811.244.719.719,0,0,0-.327.591H35.5a1.247,1.247,0,0,1,.281-.764,1.916,1.916,0,0,1,.762-.583,2.563,2.563,0,0,1,1.057-.215,2.089,2.089,0,0,1,1.431.457,1.647,1.647,0,0,1,.537,1.257v2.432a2.973,2.973,0,0,0,.186,1.157V82Zm-1.5-.688a1.588,1.588,0,0,0,.806-.22,1.329,1.329,0,0,0,.552-.571V79.437h-.708q-1.66,0-1.66.972a.822.822,0,0,0,.283.664A1.089,1.089,0,0,0,37.31,81.312Zm5.8.049a1.3,1.3,0,0,0,.845-.293,1.031,1.031,0,0,0,.4-.732h.854a1.638,1.638,0,0,1-.312.864,2.058,2.058,0,0,1-.769.654,2.219,2.219,0,0,1-1.018.244,2.176,2.176,0,0,1-1.716-.72,2.869,2.869,0,0,1-.637-1.97v-.151a3.181,3.181,0,0,1,.283-1.372,2.157,2.157,0,0,1,.813-.933,2.309,2.309,0,0,1,1.252-.332,2.119,2.119,0,0,1,1.477.532,1.9,1.9,0,0,1,.627,1.382h-.854a1.245,1.245,0,0,0-.388-.842,1.208,1.208,0,0,0-.862-.33,1.264,1.264,0,0,0-1.067.5,2.328,2.328,0,0,0-.378,1.433v.171a2.281,2.281,0,0,0,.376,1.406A1.27,1.27,0,0,0,43.105,81.36Zm4.1.64h-.9V76.717h.9Zm-.977-6.685a.539.539,0,0,1,.134-.371.5.5,0,0,1,.4-.151.512.512,0,0,1,.4.151.534.534,0,0,1,.137.371.516.516,0,0,1-.137.366.521.521,0,0,1-.4.146.513.513,0,0,1-.4-.146A.521.521,0,0,1,46.226,75.315Zm3.271,1.4.024.586a1.951,1.951,0,0,1,1.567-.684,1.51,1.51,0,0,1,1.509.85,2,2,0,0,1,.686-.615,2.026,2.026,0,0,1,1-.234q1.738,0,1.768,1.841V82h-.9V78.514a1.213,1.213,0,0,0-.259-.847,1.14,1.14,0,0,0-.869-.281,1.2,1.2,0,0,0-.835.3,1.218,1.218,0,0,0-.386.808V82H51.89V78.538a1.008,1.008,0,0,0-1.128-1.152,1.209,1.209,0,0,0-1.216.757V82h-.9V76.717ZM58.394,82h-.9V76.717h.9Zm-.977-6.685a.539.539,0,0,1,.134-.371.5.5,0,0,1,.4-.151.512.512,0,0,1,.4.151.534.534,0,0,1,.137.371.516.516,0,0,1-.137.366.521.521,0,0,1-.4.146.513.513,0,0,1-.4-.146A.521.521,0,0,1,57.417,75.315ZM62.031,82.1a2.308,2.308,0,0,1-1.748-.706,2.619,2.619,0,0,1-.674-1.887v-.166a3.17,3.17,0,0,1,.3-1.4,2.343,2.343,0,0,1,.84-.967,2.112,2.112,0,0,1,1.169-.349,1.979,1.979,0,0,1,1.6.679,2.939,2.939,0,0,1,.571,1.943v.376H60.513a1.878,1.878,0,0,0,.457,1.262,1.435,1.435,0,0,0,1.111.481,1.573,1.573,0,0,0,.811-.2,2.037,2.037,0,0,0,.581-.518l.552.43A2.219,2.219,0,0,1,62.031,82.1Zm-.112-4.736a1.2,1.2,0,0,0-.918.4,1.934,1.934,0,0,0-.459,1.116h2.646v-.068a1.721,1.721,0,0,0-.371-1.067A1.134,1.134,0,0,0,61.919,77.361Zm4.072-.645.029.664a1.925,1.925,0,0,1,1.582-.762q1.675,0,1.689,1.89V82h-.9V78.5a1.216,1.216,0,0,0-.261-.845,1.047,1.047,0,0,0-.8-.273,1.3,1.3,0,0,0-.771.234,1.592,1.592,0,0,0-.518.615V82h-.9V76.717Zm5.889-1.279v1.279h.986v.7H71.88V80.7a.733.733,0,0,0,.132.477.555.555,0,0,0,.449.159,2.187,2.187,0,0,0,.43-.059V82a2.634,2.634,0,0,1-.693.1,1.125,1.125,0,0,1-.913-.366,1.573,1.573,0,0,1-.308-1.04V77.415h-.962v-.7h.962V75.438Zm1.7,3.872a3.121,3.121,0,0,1,.305-1.4,2.277,2.277,0,0,1,.85-.957,2.313,2.313,0,0,1,1.243-.337,2.228,2.228,0,0,1,1.746.747,2.874,2.874,0,0,1,.667,1.987v.063a3.148,3.148,0,0,1-.3,1.384,2.243,2.243,0,0,1-.845.955,2.339,2.339,0,0,1-1.262.342,2.222,2.222,0,0,1-1.741-.747,2.86,2.86,0,0,1-.667-1.978Zm.908.107a2.26,2.26,0,0,0,.408,1.411,1.382,1.382,0,0,0,2.185-.007,2.472,2.472,0,0,0,.405-1.511,2.256,2.256,0,0,0-.413-1.409,1.312,1.312,0,0,0-1.1-.54,1.3,1.3,0,0,0-1.079.532A2.453,2.453,0,0,0,74.492,79.417ZM1.909,93.438v1.279H2.9v.7H1.909V98.7a.733.733,0,0,0,.132.477.555.555,0,0,0,.449.159,2.187,2.187,0,0,0,.43-.059V100a2.634,2.634,0,0,1-.693.1,1.125,1.125,0,0,1-.913-.366,1.573,1.573,0,0,1-.308-1.04V95.415H.044v-.7h.962V93.438Zm4.233,6.66a2.308,2.308,0,0,1-1.748-.706A2.619,2.619,0,0,1,3.721,97.5v-.166a3.17,3.17,0,0,1,.3-1.4,2.343,2.343,0,0,1,.84-.967,2.112,2.112,0,0,1,1.169-.349,1.979,1.979,0,0,1,1.6.679A2.939,2.939,0,0,1,8.2,97.241v.376H4.624a1.878,1.878,0,0,0,.457,1.262,1.435,1.435,0,0,0,1.111.481,1.573,1.573,0,0,0,.811-.2,2.037,2.037,0,0,0,.581-.518l.552.43A2.219,2.219,0,0,1,6.143,100.1ZM6.03,95.361a1.2,1.2,0,0,0-.918.4,1.934,1.934,0,0,0-.459,1.116H7.3v-.068a1.721,1.721,0,0,0-.371-1.067A1.134,1.134,0,0,0,6.03,95.361Zm4.2,4.639h-.9V92.5h.9Zm3.638.1a2.308,2.308,0,0,1-1.748-.706,2.619,2.619,0,0,1-.674-1.887v-.166a3.17,3.17,0,0,1,.3-1.4,2.343,2.343,0,0,1,.84-.967,2.112,2.112,0,0,1,1.169-.349,1.979,1.979,0,0,1,1.6.679,2.939,2.939,0,0,1,.571,1.943v.376H12.349a1.878,1.878,0,0,0,.457,1.262,1.435,1.435,0,0,0,1.111.481,1.573,1.573,0,0,0,.811-.2,2.037,2.037,0,0,0,.581-.518l.552.43A2.219,2.219,0,0,1,13.867,100.1Zm-.112-4.736a1.2,1.2,0,0,0-.918.4,1.934,1.934,0,0,0-.459,1.116h2.646v-.068a1.721,1.721,0,0,0-.371-1.067A1.134,1.134,0,0,0,13.755,95.361Zm.439-2.861h1.094l-1.309,1.436-.728,0Zm3.223,7.5V95.415h-.835v-.7h.835v-.542a1.8,1.8,0,0,1,.454-1.313,1.715,1.715,0,0,1,1.284-.464,2.385,2.385,0,0,1,.62.082l-.049.728a2.594,2.594,0,0,0-.488-.044.881.881,0,0,0-.679.257,1.043,1.043,0,0,0-.239.737v.558h1.128v.7H18.32V100Zm2.788-2.69a3.121,3.121,0,0,1,.305-1.4,2.277,2.277,0,0,1,.85-.957,2.313,2.313,0,0,1,1.243-.337,2.228,2.228,0,0,1,1.746.747,2.874,2.874,0,0,1,.667,1.987v.063a3.148,3.148,0,0,1-.3,1.384,2.243,2.243,0,0,1-.845.955,2.339,2.339,0,0,1-1.262.342,2.222,2.222,0,0,1-1.741-.747,2.86,2.86,0,0,1-.667-1.978Zm.908.107a2.26,2.26,0,0,0,.408,1.411,1.382,1.382,0,0,0,2.185-.007,2.472,2.472,0,0,0,.405-1.511A2.256,2.256,0,0,0,23.7,95.9a1.312,1.312,0,0,0-1.1-.54,1.3,1.3,0,0,0-1.079.532A2.453,2.453,0,0,0,21.113,97.417ZM27,94.717l.029.664a1.925,1.925,0,0,1,1.582-.762q1.675,0,1.689,1.89V100h-.9V96.5a1.216,1.216,0,0,0-.261-.845,1.047,1.047,0,0,0-.8-.273,1.3,1.3,0,0,0-.771.234,1.592,1.592,0,0,0-.518.615V100h-.9V94.717Zm4.424,2.593a3.121,3.121,0,0,1,.305-1.4,2.277,2.277,0,0,1,.85-.957,2.313,2.313,0,0,1,1.243-.337,2.228,2.228,0,0,1,1.746.747,2.874,2.874,0,0,1,.667,1.987v.063a3.148,3.148,0,0,1-.3,1.384,2.243,2.243,0,0,1-.845.955,2.339,2.339,0,0,1-1.262.342,2.222,2.222,0,0,1-1.741-.747,2.86,2.86,0,0,1-.667-1.978Zm.908.107a2.26,2.26,0,0,0,.408,1.411,1.382,1.382,0,0,0,2.185-.007,2.472,2.472,0,0,0,.405-1.511,2.256,2.256,0,0,0-.413-1.409,1.312,1.312,0,0,0-1.1-.54,1.3,1.3,0,0,0-1.079.532A2.453,2.453,0,0,0,32.334,97.417ZM2.876,118.1a2.308,2.308,0,0,1-1.748-.706A2.619,2.619,0,0,1,.454,115.5v-.166a3.17,3.17,0,0,1,.3-1.4,2.343,2.343,0,0,1,.84-.967,2.112,2.112,0,0,1,1.169-.349,1.979,1.979,0,0,1,1.6.679,2.939,2.939,0,0,1,.571,1.943v.376H1.357a1.878,1.878,0,0,0,.457,1.262,1.435,1.435,0,0,0,1.111.481,1.573,1.573,0,0,0,.811-.2,2.037,2.037,0,0,0,.581-.518l.552.43A2.219,2.219,0,0,1,2.876,118.1Zm-.112-4.736a1.2,1.2,0,0,0-.918.4,1.934,1.934,0,0,0-.459,1.116H4.033v-.068a1.721,1.721,0,0,0-.371-1.067A1.134,1.134,0,0,0,2.764,113.361Zm4.067-.645.024.586a1.951,1.951,0,0,1,1.567-.684,1.51,1.51,0,0,1,1.509.85,2,2,0,0,1,.686-.615,2.026,2.026,0,0,1,1-.234q1.738,0,1.768,1.841V118h-.9v-3.486a1.213,1.213,0,0,0-.259-.847,1.14,1.14,0,0,0-.869-.281,1.2,1.2,0,0,0-.835.3,1.218,1.218,0,0,0-.386.808V118H9.224v-3.462A1.008,1.008,0,0,0,8.1,113.386a1.209,1.209,0,0,0-1.216.757V118h-.9v-5.283ZM18.008,118a1.9,1.9,0,0,1-.127-.557,2.016,2.016,0,0,1-1.5.654,1.865,1.865,0,0,1-1.282-.442,1.43,1.43,0,0,1-.5-1.121,1.494,1.494,0,0,1,.627-1.282,2.958,2.958,0,0,1,1.765-.457h.879v-.415a1.015,1.015,0,0,0-.283-.754,1.138,1.138,0,0,0-.835-.281,1.317,1.317,0,0,0-.811.244.719.719,0,0,0-.327.591H14.7a1.247,1.247,0,0,1,.281-.764,1.916,1.916,0,0,1,.762-.583,2.563,2.563,0,0,1,1.057-.215,2.089,2.089,0,0,1,1.431.457,1.647,1.647,0,0,1,.537,1.257v2.432a2.973,2.973,0,0,0,.186,1.157V118Zm-1.5-.688a1.588,1.588,0,0,0,.806-.22,1.329,1.329,0,0,0,.552-.571v-1.084h-.708q-1.66,0-1.66.972a.822.822,0,0,0,.283.664A1.089,1.089,0,0,0,16.509,117.312Zm4.658.688h-.9v-5.283h.9Zm-.977-6.685a.539.539,0,0,1,.134-.371.5.5,0,0,1,.4-.151.512.512,0,0,1,.4.151.534.534,0,0,1,.137.371.516.516,0,0,1-.137.366.521.521,0,0,1-.4.146.513.513,0,0,1-.4-.146A.521.521,0,0,1,20.19,111.315Zm3.4,6.685h-.9v-7.5h.9ZM2.8,135.36a1.3,1.3,0,0,0,.845-.293,1.031,1.031,0,0,0,.4-.732H4.9a1.638,1.638,0,0,1-.312.864,2.058,2.058,0,0,1-.769.654A2.219,2.219,0,0,1,2.8,136.1a2.176,2.176,0,0,1-1.716-.72,2.869,2.869,0,0,1-.637-1.97v-.151a3.181,3.181,0,0,1,.283-1.372,2.157,2.157,0,0,1,.813-.933,2.309,2.309,0,0,1,1.252-.332,2.119,2.119,0,0,1,1.477.532,1.9,1.9,0,0,1,.627,1.382H4.048a1.245,1.245,0,0,0-.388-.842,1.208,1.208,0,0,0-.862-.33,1.264,1.264,0,0,0-1.067.5,2.328,2.328,0,0,0-.378,1.433v.171a2.281,2.281,0,0,0,.376,1.406A1.27,1.27,0,0,0,2.8,135.36ZM9.18,136a1.9,1.9,0,0,1-.127-.557,2.015,2.015,0,0,1-1.5.654,1.865,1.865,0,0,1-1.282-.442,1.43,1.43,0,0,1-.5-1.121,1.494,1.494,0,0,1,.627-1.282,2.958,2.958,0,0,1,1.765-.457h.879v-.415a1.015,1.015,0,0,0-.283-.754,1.138,1.138,0,0,0-.835-.281,1.317,1.317,0,0,0-.811.244.719.719,0,0,0-.327.591H5.874a1.247,1.247,0,0,1,.281-.764,1.916,1.916,0,0,1,.762-.583,2.562,2.562,0,0,1,1.057-.215,2.089,2.089,0,0,1,1.431.457,1.647,1.647,0,0,1,.537,1.257v2.432a2.973,2.973,0,0,0,.186,1.157V136Zm-1.5-.688a1.588,1.588,0,0,0,.806-.22,1.329,1.329,0,0,0,.552-.571v-1.084H8.33q-1.66,0-1.66.972a.822.822,0,0,0,.283.664A1.089,1.089,0,0,0,7.681,135.312Zm4.9-5.874v1.279h.986v.7h-.986v3.28a.733.733,0,0,0,.132.477.555.555,0,0,0,.449.159,2.187,2.187,0,0,0,.43-.059V136a2.634,2.634,0,0,1-.693.1,1.125,1.125,0,0,1-.913-.366,1.573,1.573,0,0,1-.308-1.04v-3.276h-.962v-.7h.962v-1.279Zm4.233,6.66a2.308,2.308,0,0,1-1.748-.706,2.619,2.619,0,0,1-.674-1.887v-.166a3.17,3.17,0,0,1,.3-1.4,2.342,2.342,0,0,1,.84-.967,2.112,2.112,0,0,1,1.169-.349,1.979,1.979,0,0,1,1.6.679,2.939,2.939,0,0,1,.571,1.943v.376H15.3a1.878,1.878,0,0,0,.457,1.262,1.435,1.435,0,0,0,1.111.481,1.573,1.573,0,0,0,.811-.2,2.037,2.037,0,0,0,.581-.518l.552.43A2.219,2.219,0,0,1,16.816,136.1Zm-.112-4.736a1.2,1.2,0,0,0-.918.4,1.934,1.934,0,0,0-.459,1.116h2.646v-.068a1.721,1.721,0,0,0-.371-1.067A1.134,1.134,0,0,0,16.7,131.361Zm3,1.953a3.105,3.105,0,0,1,.571-1.965A1.97,1.97,0,0,1,23.3,131.3l.044-.586h.825v5.156a2.149,2.149,0,0,1-.608,1.616,2.243,2.243,0,0,1-1.633.591,2.717,2.717,0,0,1-1.118-.244,1.925,1.925,0,0,1-.835-.669l.469-.542a1.766,1.766,0,0,0,1.421.718,1.384,1.384,0,0,0,1.028-.371,1.418,1.418,0,0,0,.369-1.045v-.454a1.857,1.857,0,0,1-1.479.625,1.8,1.8,0,0,1-1.5-.747A3.265,3.265,0,0,1,19.707,133.314Zm.908.1a2.369,2.369,0,0,0,.366,1.4,1.19,1.19,0,0,0,1.025.51,1.323,1.323,0,0,0,1.255-.776v-2.412a1.339,1.339,0,0,0-1.245-.757,1.2,1.2,0,0,0-1.03.513A2.58,2.58,0,0,0,20.615,133.417Zm4.678-.107a3.121,3.121,0,0,1,.305-1.4,2.277,2.277,0,0,1,.85-.957,2.313,2.313,0,0,1,1.243-.337,2.228,2.228,0,0,1,1.746.747,2.874,2.874,0,0,1,.667,1.987v.063a3.148,3.148,0,0,1-.3,1.384,2.243,2.243,0,0,1-.845.955,2.339,2.339,0,0,1-1.262.342,2.222,2.222,0,0,1-1.741-.747,2.86,2.86,0,0,1-.667-1.978Zm.908.107a2.26,2.26,0,0,0,.408,1.411,1.382,1.382,0,0,0,2.185-.007,2.472,2.472,0,0,0,.405-1.511,2.256,2.256,0,0,0-.413-1.409,1.312,1.312,0,0,0-1.1-.54,1.3,1.3,0,0,0-1.079.532A2.453,2.453,0,0,0,26.2,133.417Zm7.588-1.89a2.708,2.708,0,0,0-.444-.034,1.19,1.19,0,0,0-1.206.757V136h-.9v-5.283h.879l.015.61a1.407,1.407,0,0,1,1.26-.708.923.923,0,0,1,.4.068ZM35.6,136h-.908v-5.283H35.6Zm.01-7.5H36.7L35.4,129.94l-.728,0Zm4.741,7.5a1.9,1.9,0,0,1-.127-.557,2.015,2.015,0,0,1-1.5.654,1.865,1.865,0,0,1-1.282-.442,1.43,1.43,0,0,1-.5-1.121,1.494,1.494,0,0,1,.627-1.282,2.958,2.958,0,0,1,1.765-.457h.879v-.415a1.015,1.015,0,0,0-.283-.754,1.138,1.138,0,0,0-.835-.281,1.317,1.317,0,0,0-.811.244.719.719,0,0,0-.327.591h-.908a1.247,1.247,0,0,1,.281-.764,1.916,1.916,0,0,1,.762-.583,2.562,2.562,0,0,1,1.057-.215,2.089,2.089,0,0,1,1.431.457,1.647,1.647,0,0,1,.537,1.257v2.432a2.973,2.973,0,0,0,.186,1.157V136Zm-1.5-.688a1.588,1.588,0,0,0,.806-.22,1.329,1.329,0,0,0,.552-.571v-1.084H39.5q-1.66,0-1.66.972a.822.822,0,0,0,.283.664A1.089,1.089,0,0,0,38.853,135.312Z" transform="translate(914.006 9641.435)" fill="#12263f"/>
    <path id="Trazado_877299" data-name="Trazado 877299" d="M1.841,4.717l.044.61A1.845,1.845,0,0,1,3.4,4.619a1.533,1.533,0,0,1,1.25.493,2.3,2.3,0,0,1,.42,1.475V10H3.662V6.621a.915.915,0,0,0-.2-.652.874.874,0,0,0-.649-.2.971.971,0,0,0-.894.508V10H.513V4.717ZM9.307,9.463a1.77,1.77,0,0,1-1.445.635,1.669,1.669,0,0,1-1.3-.488,2.084,2.084,0,0,1-.457-1.431V4.717H7.52V8.134q0,.826.752.826a1.019,1.019,0,0,0,.986-.5V4.717h1.416V10H9.346Zm3.755-4.746.044.591a1.857,1.857,0,0,1,1.519-.688,1.409,1.409,0,0,1,1.4.806,1.814,1.814,0,0,1,1.587-.806,1.576,1.576,0,0,1,1.279.5,2.3,2.3,0,0,1,.42,1.506V10H17.9V6.631a1.006,1.006,0,0,0-.176-.657.779.779,0,0,0-.62-.208.881.881,0,0,0-.879.605l0,3.628H14.814V6.636a.994.994,0,0,0-.181-.664.787.787,0,0,0-.615-.205.914.914,0,0,0-.869.5V10H11.738V4.717ZM24.307,11.1H19.858V10h4.448Zm.938-1.1V5.752h-.786V4.717h.786V4.268a1.824,1.824,0,0,1,.51-1.379A1.976,1.976,0,0,1,27.183,2.4a3.3,3.3,0,0,1,.718.1l-.015,1.094a1.8,1.8,0,0,0-.43-.044q-.8,0-.8.747v.425h1.05V5.752H26.66V10Zm6.26,0a1.567,1.567,0,0,1-.142-.474,1.707,1.707,0,0,1-1.333.571,1.876,1.876,0,0,1-1.287-.449,1.445,1.445,0,0,1-.51-1.133,1.493,1.493,0,0,1,.623-1.289,3.072,3.072,0,0,1,1.8-.454H31.3v-.3a.871.871,0,0,0-.188-.586.74.74,0,0,0-.593-.22.841.841,0,0,0-.559.171.581.581,0,0,0-.2.469H28.35a1.417,1.417,0,0,1,.283-.85,1.872,1.872,0,0,1,.8-.613A2.918,2.918,0,0,1,30.6,4.619a2.306,2.306,0,0,1,1.55.491,1.717,1.717,0,0,1,.574,1.379v2.29a2.526,2.526,0,0,0,.21,1.138V10Zm-1.167-.981a1.215,1.215,0,0,0,.576-.139.914.914,0,0,0,.391-.374V7.6h-.527q-1.06,0-1.128.732l0,.083a.565.565,0,0,0,.186.435A.721.721,0,0,0,30.337,9.019ZM36,8.96a.926.926,0,0,0,.635-.215.753.753,0,0,0,.254-.571h1.323a1.81,1.81,0,0,1-.293.984,1.933,1.933,0,0,1-.789.693,2.468,2.468,0,0,1-1.106.247,2.294,2.294,0,0,1-1.787-.72,2.85,2.85,0,0,1-.654-1.99V7.295a2.817,2.817,0,0,1,.649-1.948,2.267,2.267,0,0,1,1.782-.728,2.222,2.222,0,0,1,1.589.564,2,2,0,0,1,.608,1.5H36.89a.97.97,0,0,0-.254-.67.944.944,0,0,0-1.389.1A2.083,2.083,0,0,0,35,7.283v.147A2.109,2.109,0,0,0,35.244,8.6.861.861,0,0,0,36,8.96Zm4.707-5.542v1.3h.9V5.752h-.9V8.389a.63.63,0,0,0,.112.42.564.564,0,0,0,.43.127,2.25,2.25,0,0,0,.415-.034V9.971a2.9,2.9,0,0,1-.854.127A1.347,1.347,0,0,1,39.3,8.6V5.752h-.771V4.717H39.3v-1.3Zm4.854,6.045a1.77,1.77,0,0,1-1.445.635,1.669,1.669,0,0,1-1.3-.488,2.084,2.084,0,0,1-.457-1.431V4.717h1.411V8.134q0,.826.752.826a1.019,1.019,0,0,0,.986-.5V4.717h1.416V10H45.6Zm5.4-3.423A3.834,3.834,0,0,0,50.454,6a1.034,1.034,0,0,0-1.05.542V10H47.993V4.717h1.333l.039.63a1.308,1.308,0,0,1,1.177-.728,1.479,1.479,0,0,1,.439.063ZM54.556,10a1.567,1.567,0,0,1-.142-.474,1.707,1.707,0,0,1-1.333.571,1.876,1.876,0,0,1-1.287-.449,1.445,1.445,0,0,1-.51-1.133,1.493,1.493,0,0,1,.623-1.289,3.072,3.072,0,0,1,1.8-.454h.649v-.3a.871.871,0,0,0-.188-.586.74.74,0,0,0-.593-.22.841.841,0,0,0-.559.171.581.581,0,0,0-.2.469H51.4a1.418,1.418,0,0,1,.283-.85,1.872,1.872,0,0,1,.8-.613,2.918,2.918,0,0,1,1.162-.222,2.306,2.306,0,0,1,1.55.491,1.717,1.717,0,0,1,.574,1.379v2.29a2.526,2.526,0,0,0,.21,1.138V10Zm-1.167-.981a1.215,1.215,0,0,0,.576-.139.914.914,0,0,0,.391-.374V7.6h-.527q-1.06,0-1.128.732l0,.083a.565.565,0,0,0,.186.435A.721.721,0,0,0,53.389,9.019ZM73.354,7.5V10H71.89V2.891h2.773a3.209,3.209,0,0,1,1.409.293,2.159,2.159,0,0,1,.935.833,2.321,2.321,0,0,1,.327,1.228,2.041,2.041,0,0,1-.715,1.648,2.979,2.979,0,0,1-1.98.6Zm0-1.187h1.309a1.287,1.287,0,0,0,.886-.273,1,1,0,0,0,.305-.781,1.173,1.173,0,0,0-.308-.845,1.149,1.149,0,0,0-.85-.332H73.354Zm7.212.84-.762.82V10H78.34V2.891H79.8V6.113l.645-.884,1.812-2.339h1.8L81.538,6.05l2.6,3.95H82.393ZM1.665,28h-.9V22.717h.9ZM.688,21.315a.539.539,0,0,1,.134-.371.5.5,0,0,1,.4-.151.512.512,0,0,1,.4.151.534.534,0,0,1,.137.371.516.516,0,0,1-.137.366.521.521,0,0,1-.4.146.513.513,0,0,1-.4-.146A.521.521,0,0,1,.688,21.315Zm2.2,4a3.1,3.1,0,0,1,.576-1.956,1.822,1.822,0,0,1,1.509-.74,1.832,1.832,0,0,1,1.47.635V20.5h.9V28h-.83l-.044-.566a1.84,1.84,0,0,1-1.509.664,1.8,1.8,0,0,1-1.5-.752,3.13,3.13,0,0,1-.579-1.963Zm.9.1a2.343,2.343,0,0,0,.371,1.406,1.2,1.2,0,0,0,1.025.508,1.318,1.318,0,0,0,1.255-.771V24.133A1.328,1.328,0,0,0,5.2,23.386a1.205,1.205,0,0,0-1.035.513A2.58,2.58,0,0,0,3.794,25.417Zm8.765,3.32H8.086V28h4.473Zm2.822-1.377a1.3,1.3,0,0,0,.845-.293,1.031,1.031,0,0,0,.4-.732h.854a1.638,1.638,0,0,1-.312.864,2.058,2.058,0,0,1-.769.654,2.219,2.219,0,0,1-1.018.244,2.176,2.176,0,0,1-1.716-.72,2.869,2.869,0,0,1-.637-1.97v-.151a3.181,3.181,0,0,1,.283-1.372,2.157,2.157,0,0,1,.813-.933,2.309,2.309,0,0,1,1.252-.332,2.119,2.119,0,0,1,1.477.532,1.9,1.9,0,0,1,.627,1.382h-.854a1.245,1.245,0,0,0-.388-.842,1.208,1.208,0,0,0-.862-.33,1.264,1.264,0,0,0-1.067.5,2.328,2.328,0,0,0-.378,1.433v.171a2.281,2.281,0,0,0,.376,1.406A1.27,1.27,0,0,0,15.381,27.36Zm4.1.64h-.9V20.5h.9ZM21.9,28H21V22.717h.9Zm-.977-6.685a.539.539,0,0,1,.134-.371.5.5,0,0,1,.4-.151.512.512,0,0,1,.4.151.534.534,0,0,1,.137.371.516.516,0,0,1-.137.366.521.521,0,0,1-.4.146.513.513,0,0,1-.4-.146A.521.521,0,0,1,20.928,21.315ZM25.542,28.1a2.308,2.308,0,0,1-1.748-.706A2.619,2.619,0,0,1,23.12,25.5v-.166a3.17,3.17,0,0,1,.3-1.4,2.343,2.343,0,0,1,.84-.967,2.112,2.112,0,0,1,1.169-.349,1.979,1.979,0,0,1,1.6.679,2.939,2.939,0,0,1,.571,1.943v.376H24.023a1.878,1.878,0,0,0,.457,1.262,1.435,1.435,0,0,0,1.111.481,1.573,1.573,0,0,0,.811-.2,2.037,2.037,0,0,0,.581-.518l.552.43A2.219,2.219,0,0,1,25.542,28.1Zm-.112-4.736a1.2,1.2,0,0,0-.918.4,1.934,1.934,0,0,0-.459,1.116H26.7v-.068a1.721,1.721,0,0,0-.371-1.067A1.134,1.134,0,0,0,25.43,23.361Zm4.072-.645.029.664a1.925,1.925,0,0,1,1.582-.762q1.675,0,1.689,1.89V28h-.9V24.5a1.216,1.216,0,0,0-.261-.845,1.047,1.047,0,0,0-.8-.273,1.3,1.3,0,0,0-.771.234,1.592,1.592,0,0,0-.518.615V28h-.9V22.717Zm5.889-1.279v1.279h.986v.7h-.986V26.7a.733.733,0,0,0,.132.477.555.555,0,0,0,.449.159,2.187,2.187,0,0,0,.43-.059V28a2.634,2.634,0,0,1-.693.1,1.125,1.125,0,0,1-.913-.366,1.573,1.573,0,0,1-.308-1.04V23.415h-.962v-.7h.962V21.438Zm4.233,6.66a2.308,2.308,0,0,1-1.748-.706A2.619,2.619,0,0,1,37.2,25.5v-.166a3.17,3.17,0,0,1,.3-1.4,2.343,2.343,0,0,1,.84-.967,2.112,2.112,0,0,1,1.169-.349,1.979,1.979,0,0,1,1.6.679,2.939,2.939,0,0,1,.571,1.943v.376H38.105a1.878,1.878,0,0,0,.457,1.262,1.435,1.435,0,0,0,1.111.481,1.573,1.573,0,0,0,.811-.2,2.037,2.037,0,0,0,.581-.518l.552.43A2.219,2.219,0,0,1,39.624,28.1Zm-.112-4.736a1.2,1.2,0,0,0-.918.4,1.934,1.934,0,0,0-.459,1.116h2.646v-.068a1.721,1.721,0,0,0-.371-1.067A1.134,1.134,0,0,0,39.512,23.361Zm17.183,1.5H53.711V28h-.937V20.891h4.4v.767H53.711v2.437h2.983Zm3.413-.166-.869.9V28H58.3V20.891h.938v3.516L62.4,20.891H63.53l-2.8,3.14L63.75,28H62.627ZM1.128,46V41.415H.293v-.7h.835v-.542a1.8,1.8,0,0,1,.454-1.313A1.715,1.715,0,0,1,2.866,38.4a2.385,2.385,0,0,1,.62.082l-.049.728a2.594,2.594,0,0,0-.488-.044.881.881,0,0,0-.679.257,1.043,1.043,0,0,0-.239.737v.558H3.159v.7H2.031V46Zm5.1.1a2.308,2.308,0,0,1-1.748-.706A2.619,2.619,0,0,1,3.809,43.5v-.166a3.17,3.17,0,0,1,.3-1.4,2.342,2.342,0,0,1,.84-.967,2.112,2.112,0,0,1,1.169-.349,1.979,1.979,0,0,1,1.6.679,2.939,2.939,0,0,1,.571,1.943v.376H4.712a1.878,1.878,0,0,0,.457,1.262,1.435,1.435,0,0,0,1.111.481,1.573,1.573,0,0,0,.811-.2,2.037,2.037,0,0,0,.581-.518l.552.43A2.219,2.219,0,0,1,6.23,46.1Zm-.112-4.736a1.2,1.2,0,0,0-.918.4,1.934,1.934,0,0,0-.459,1.116H7.388v-.068a1.721,1.721,0,0,0-.371-1.067A1.134,1.134,0,0,0,6.118,41.361Zm5.337,4a1.3,1.3,0,0,0,.845-.293,1.031,1.031,0,0,0,.4-.732h.854a1.638,1.638,0,0,1-.312.864,2.058,2.058,0,0,1-.769.654,2.219,2.219,0,0,1-1.018.244,2.176,2.176,0,0,1-1.716-.72,2.869,2.869,0,0,1-.637-1.97v-.151a3.181,3.181,0,0,1,.283-1.372,2.157,2.157,0,0,1,.813-.933,2.309,2.309,0,0,1,1.252-.332,2.119,2.119,0,0,1,1.477.532,1.9,1.9,0,0,1,.627,1.382H12.7a1.245,1.245,0,0,0-.388-.842,1.208,1.208,0,0,0-.862-.33,1.264,1.264,0,0,0-1.067.5A2.328,2.328,0,0,0,10,43.29v.171a2.281,2.281,0,0,0,.376,1.406A1.27,1.27,0,0,0,11.455,45.36Zm4.019-4a1.921,1.921,0,0,1,1.563-.737q1.675,0,1.689,1.89V46h-.9V42.5a1.216,1.216,0,0,0-.261-.845,1.047,1.047,0,0,0-.8-.273,1.3,1.3,0,0,0-.771.234,1.592,1.592,0,0,0-.518.615V46h-.9V38.5h.9ZM23.34,46a1.9,1.9,0,0,1-.127-.557,2.015,2.015,0,0,1-1.5.654,1.865,1.865,0,0,1-1.282-.442,1.43,1.43,0,0,1-.5-1.121,1.494,1.494,0,0,1,.627-1.282,2.958,2.958,0,0,1,1.765-.457H23.2v-.415a1.015,1.015,0,0,0-.283-.754,1.138,1.138,0,0,0-.835-.281,1.317,1.317,0,0,0-.811.244.719.719,0,0,0-.327.591h-.908a1.247,1.247,0,0,1,.281-.764,1.916,1.916,0,0,1,.762-.583,2.563,2.563,0,0,1,1.057-.215,2.089,2.089,0,0,1,1.431.457,1.647,1.647,0,0,1,.537,1.257v2.432a2.973,2.973,0,0,0,.186,1.157V46Zm-1.5-.688a1.588,1.588,0,0,0,.806-.22,1.329,1.329,0,0,0,.552-.571V43.437H22.49q-1.66,0-1.66.972a.822.822,0,0,0,.283.664A1.089,1.089,0,0,0,21.841,45.312ZM1.665,64h-.9V58.717h.9ZM.688,57.315a.539.539,0,0,1,.134-.371.5.5,0,0,1,.4-.151.512.512,0,0,1,.4.151.534.534,0,0,1,.137.371.516.516,0,0,1-.137.366.521.521,0,0,1-.4.146.513.513,0,0,1-.4-.146A.521.521,0,0,1,.688,57.315Zm2.2,4a3.1,3.1,0,0,1,.576-1.956,1.822,1.822,0,0,1,1.509-.74,1.832,1.832,0,0,1,1.47.635V56.5h.9V64h-.83l-.044-.566a1.84,1.84,0,0,1-1.509.664,1.8,1.8,0,0,1-1.5-.752,3.13,3.13,0,0,1-.579-1.963Zm.9.1a2.343,2.343,0,0,0,.371,1.406,1.2,1.2,0,0,0,1.025.508,1.318,1.318,0,0,0,1.255-.771V60.133A1.328,1.328,0,0,0,5.2,59.386a1.205,1.205,0,0,0-1.035.513A2.58,2.58,0,0,0,3.794,61.417Zm8.765,3.32H8.086V64h4.473Zm5.166-3.32a3.163,3.163,0,0,1-.552,1.943,1.768,1.768,0,0,1-1.494.737,1.938,1.938,0,0,1-1.514-.61v2.544h-.9V58.717h.825l.044.586a1.861,1.861,0,0,1,1.533-.684,1.8,1.8,0,0,1,1.506.718,3.2,3.2,0,0,1,.554,2Zm-.9-.1A2.334,2.334,0,0,0,16.44,59.9a1.227,1.227,0,0,0-1.045-.518,1.328,1.328,0,0,0-1.23.728v2.524a1.33,1.33,0,0,0,1.24.723,1.221,1.221,0,0,0,1.033-.515A2.548,2.548,0,0,0,16.821,61.314Zm4.6-1.787a2.707,2.707,0,0,0-.444-.034,1.19,1.19,0,0,0-1.206.757V64h-.9V58.717h.879l.015.61a1.407,1.407,0,0,1,1.26-.708.923.923,0,0,1,.4.068Zm.493,1.782a3.121,3.121,0,0,1,.305-1.4,2.277,2.277,0,0,1,.85-.957,2.313,2.313,0,0,1,1.243-.337,2.228,2.228,0,0,1,1.746.747,2.874,2.874,0,0,1,.667,1.987v.063a3.148,3.148,0,0,1-.3,1.384,2.243,2.243,0,0,1-.845.955,2.339,2.339,0,0,1-1.262.342,2.222,2.222,0,0,1-1.741-.747,2.86,2.86,0,0,1-.667-1.978Zm.908.107a2.26,2.26,0,0,0,.408,1.411,1.382,1.382,0,0,0,2.185-.007,2.472,2.472,0,0,0,.405-1.511,2.256,2.256,0,0,0-.413-1.409,1.312,1.312,0,0,0-1.1-.54,1.3,1.3,0,0,0-1.079.532A2.453,2.453,0,0,0,22.827,61.417Zm4.814-.1a3.1,3.1,0,0,1,.576-1.956,1.96,1.96,0,0,1,2.979-.1V56.5h.9V64h-.83l-.044-.566a1.84,1.84,0,0,1-1.509.664,1.8,1.8,0,0,1-1.5-.752,3.13,3.13,0,0,1-.579-1.963Zm.9.1a2.343,2.343,0,0,0,.371,1.406,1.2,1.2,0,0,0,1.025.508A1.318,1.318,0,0,0,31.2,62.56V60.133a1.328,1.328,0,0,0-1.245-.747,1.205,1.205,0,0,0-1.035.513A2.58,2.58,0,0,0,28.545,61.417Zm8.218,2.061a1.919,1.919,0,0,1-1.548.62,1.642,1.642,0,0,1-1.287-.491,2.124,2.124,0,0,1-.447-1.453V58.717h.9V62.13q0,1.2.977,1.2a1.352,1.352,0,0,0,1.377-.771V58.717h.9V64h-.859Zm4.37-.117a1.3,1.3,0,0,0,.845-.293,1.031,1.031,0,0,0,.4-.732h.854a1.638,1.638,0,0,1-.312.864,2.058,2.058,0,0,1-.769.654,2.219,2.219,0,0,1-1.018.244,2.176,2.176,0,0,1-1.716-.72,2.869,2.869,0,0,1-.637-1.97v-.151a3.181,3.181,0,0,1,.283-1.372,2.157,2.157,0,0,1,.813-.933,2.309,2.309,0,0,1,1.252-.332,2.119,2.119,0,0,1,1.477.532,1.9,1.9,0,0,1,.627,1.382h-.854a1.245,1.245,0,0,0-.388-.842,1.208,1.208,0,0,0-.862-.33,1.264,1.264,0,0,0-1.067.5,2.328,2.328,0,0,0-.378,1.433v.171a2.281,2.281,0,0,0,.376,1.406A1.27,1.27,0,0,0,41.133,63.36Zm4.341-5.923v1.279h.986v.7h-.986V62.7a.733.733,0,0,0,.132.477.555.555,0,0,0,.449.159,2.187,2.187,0,0,0,.43-.059V64a2.634,2.634,0,0,1-.693.1,1.125,1.125,0,0,1-.913-.366,1.573,1.573,0,0,1-.308-1.04V59.415h-.962v-.7h.962V57.438Zm1.7,3.872a3.121,3.121,0,0,1,.305-1.4,2.277,2.277,0,0,1,.85-.957,2.313,2.313,0,0,1,1.243-.337,2.228,2.228,0,0,1,1.746.747,2.874,2.874,0,0,1,.667,1.987v.063a3.148,3.148,0,0,1-.3,1.384,2.243,2.243,0,0,1-.845.955,2.339,2.339,0,0,1-1.262.342,2.222,2.222,0,0,1-1.741-.747,2.86,2.86,0,0,1-.667-1.978Zm.908.107a2.26,2.26,0,0,0,.408,1.411,1.382,1.382,0,0,0,2.185-.007,2.472,2.472,0,0,0,.405-1.511,2.256,2.256,0,0,0-.413-1.409,1.312,1.312,0,0,0-1.1-.54,1.3,1.3,0,0,0-1.079.532A2.453,2.453,0,0,0,48.086,61.417Zm6.094.573a2.914,2.914,0,0,1,.132-.917,2.351,2.351,0,0,1,.5-.746l.64-.658a1.475,1.475,0,0,0,.41-.994,1.134,1.134,0,0,0-.269-.8,1.013,1.013,0,0,0-.781-.29,1.176,1.176,0,0,0-.8.264.891.891,0,0,0-.3.708h-.9a1.645,1.645,0,0,1,.564-1.277,2.109,2.109,0,0,1,1.443-.486,1.991,1.991,0,0,1,1.438.495,1.794,1.794,0,0,1,.515,1.358,2.454,2.454,0,0,1-.791,1.682l-.532.527a1.64,1.64,0,0,0-.356,1.136Zm-.039,1.551a.538.538,0,0,1,.134-.372.506.506,0,0,1,.4-.15.514.514,0,0,1,.4.15.533.533,0,0,1,.137.372.515.515,0,0,1-.137.367.523.523,0,0,1-.4.145.483.483,0,0,1-.532-.513ZM58.9,61.99a2.914,2.914,0,0,1,.132-.917,2.351,2.351,0,0,1,.5-.746l.64-.658a1.475,1.475,0,0,0,.41-.994,1.134,1.134,0,0,0-.269-.8,1.013,1.013,0,0,0-.781-.29,1.176,1.176,0,0,0-.8.264.891.891,0,0,0-.3.708h-.9a1.645,1.645,0,0,1,.564-1.277,2.109,2.109,0,0,1,1.443-.486,1.991,1.991,0,0,1,1.438.495,1.794,1.794,0,0,1,.515,1.358,2.454,2.454,0,0,1-.791,1.682l-.532.527A1.64,1.64,0,0,0,59.8,61.99Zm-.039,1.551A.538.538,0,0,1,59,63.169a.506.506,0,0,1,.4-.15.514.514,0,0,1,.4.15.533.533,0,0,1,.137.372.515.515,0,0,1-.137.367.523.523,0,0,1-.4.145.483.483,0,0,1-.532-.513Zm4.761-1.551a2.914,2.914,0,0,1,.132-.917,2.351,2.351,0,0,1,.5-.746l.64-.658a1.475,1.475,0,0,0,.41-.994,1.134,1.134,0,0,0-.269-.8,1.013,1.013,0,0,0-.781-.29,1.176,1.176,0,0,0-.8.264.891.891,0,0,0-.3.708h-.9a1.645,1.645,0,0,1,.564-1.277,2.109,2.109,0,0,1,1.443-.486,1.991,1.991,0,0,1,1.438.495,1.794,1.794,0,0,1,.515,1.358,2.454,2.454,0,0,1-.791,1.682l-.532.527a1.639,1.639,0,0,0-.356,1.136Zm-.039,1.551a.538.538,0,0,1,.134-.372.506.506,0,0,1,.4-.15.514.514,0,0,1,.4.15.533.533,0,0,1,.137.372.515.515,0,0,1-.137.367.523.523,0,0,1-.4.145.483.483,0,0,1-.532-.513ZM76.3,60.86H73.315V64h-.937V56.891h4.4v.767H73.315v2.437H76.3Zm3.413-.166-.869.9V64h-.937V56.891h.938v3.516L82,56.891h1.133l-2.8,3.14L83.354,64H82.231Z" transform="translate(1104.006 9658.435)" fill="#12263f"/>
    <path id="Trazado_877300" data-name="Trazado 877300" d="M2.031,10H.615V4.717H2.031ZM.532,3.35a.7.7,0,0,1,.212-.522.8.8,0,0,1,.579-.205.8.8,0,0,1,.576.205.691.691,0,0,1,.215.522.693.693,0,0,1-.217.527.8.8,0,0,1-.574.205A.8.8,0,0,1,.75,3.877.693.693,0,0,1,.532,3.35Zm2.441,3.97a3.184,3.184,0,0,1,.554-1.968,1.8,1.8,0,0,1,1.516-.732A1.618,1.618,0,0,1,6.318,5.2V2.5H7.734V10H6.46l-.068-.562a1.661,1.661,0,0,1-1.357.659,1.793,1.793,0,0,1-1.5-.735A3.286,3.286,0,0,1,2.974,7.319Zm1.411.105a2.086,2.086,0,0,0,.259,1.139.843.843,0,0,0,.752.4.944.944,0,0,0,.923-.553V6.319a.931.931,0,0,0-.913-.553Q4.385,5.767,4.385,7.424ZM12.739,11.1H8.291V10h4.448Zm5.308-3.7a3.169,3.169,0,0,1-.554,1.956A1.777,1.777,0,0,1,16,10.1,1.646,1.646,0,0,1,14.7,9.541v2.49H13.291V4.717H14.6l.049.518a1.659,1.659,0,0,1,1.338-.615,1.789,1.789,0,0,1,1.519.723,3.254,3.254,0,0,1,.542,1.992Zm-1.411-.1a2.079,2.079,0,0,0-.261-1.138.851.851,0,0,0-.759-.4.924.924,0,0,0-.913.508V8.438a.94.94,0,0,0,.923.522Q16.636,8.96,16.636,7.3ZM21.89,6.04A3.834,3.834,0,0,0,21.382,6a1.034,1.034,0,0,0-1.05.542V10H18.921V4.717h1.333l.039.63a1.308,1.308,0,0,1,1.177-.728,1.479,1.479,0,0,1,.439.063Zm.283,1.27a3.133,3.133,0,0,1,.3-1.4,2.216,2.216,0,0,1,.872-.952,2.543,2.543,0,0,1,1.321-.337,2.406,2.406,0,0,1,1.746.654,2.626,2.626,0,0,1,.754,1.777l.01.361A2.761,2.761,0,0,1,26.5,9.363a2.631,2.631,0,0,1-3.645,0,2.81,2.81,0,0,1-.681-1.992Zm1.411.1a1.975,1.975,0,0,0,.283,1.152,1.017,1.017,0,0,0,1.611,0,2.161,2.161,0,0,0,.288-1.259,1.955,1.955,0,0,0-.288-1.144.936.936,0,0,0-.811-.406.921.921,0,0,0-.8.4A2.2,2.2,0,0,0,23.584,7.41Zm4.243-.09a3.184,3.184,0,0,1,.554-1.968A1.8,1.8,0,0,1,29.9,4.619a1.618,1.618,0,0,1,1.274.576V2.5h1.416V10H31.313l-.068-.562a1.661,1.661,0,0,1-1.357.659,1.793,1.793,0,0,1-1.5-.735A3.286,3.286,0,0,1,27.827,7.319Zm1.411.105A2.086,2.086,0,0,0,29.5,8.564a.843.843,0,0,0,.752.4.944.944,0,0,0,.923-.553V6.319a.931.931,0,0,0-.913-.553Q29.238,5.767,29.238,7.424Zm7.607,2.038A1.77,1.77,0,0,1,35.4,10.1a1.669,1.669,0,0,1-1.3-.488,2.084,2.084,0,0,1-.457-1.431V4.717h1.411V8.134q0,.826.752.826a1.019,1.019,0,0,0,.986-.5V4.717h1.416V10H36.885Zm4.629-.5a.926.926,0,0,0,.635-.215.753.753,0,0,0,.254-.571h1.323a1.81,1.81,0,0,1-.293.984,1.933,1.933,0,0,1-.789.693A2.468,2.468,0,0,1,41.5,10.1a2.294,2.294,0,0,1-1.787-.72,2.85,2.85,0,0,1-.654-1.99V7.295a2.817,2.817,0,0,1,.649-1.948,2.267,2.267,0,0,1,1.782-.728,2.222,2.222,0,0,1,1.589.564,2,2,0,0,1,.608,1.5H42.363a.97.97,0,0,0-.254-.67.944.944,0,0,0-1.389.1,2.083,2.083,0,0,0-.251,1.166v.147A2.109,2.109,0,0,0,40.718,8.6.861.861,0,0,0,41.475,8.96Zm4.707-5.542v1.3h.9V5.752h-.9V8.389a.63.63,0,0,0,.112.42.564.564,0,0,0,.43.127,2.25,2.25,0,0,0,.415-.034V9.971a2.9,2.9,0,0,1-.854.127,1.347,1.347,0,0,1-1.514-1.5V5.752H44V4.717h.771v-1.3ZM47.5,7.31a3.133,3.133,0,0,1,.3-1.4,2.216,2.216,0,0,1,.872-.952A2.543,2.543,0,0,1,50,4.619a2.406,2.406,0,0,1,1.746.654A2.626,2.626,0,0,1,52.5,7.051l.01.361a2.761,2.761,0,0,1-.679,1.951,2.631,2.631,0,0,1-3.645,0A2.81,2.81,0,0,1,47.5,7.373Zm1.411.1A1.975,1.975,0,0,0,49.2,8.561a1.017,1.017,0,0,0,1.611,0A2.161,2.161,0,0,0,51.1,7.307a1.955,1.955,0,0,0-.288-1.144A.936.936,0,0,0,50,5.757a.921.921,0,0,0-.8.4A2.2,2.2,0,0,0,48.916,7.41ZM69.878,7.5V10H68.413V2.891h2.773a3.209,3.209,0,0,1,1.409.293,2.159,2.159,0,0,1,.935.833,2.321,2.321,0,0,1,.327,1.228,2.041,2.041,0,0,1-.715,1.648,2.979,2.979,0,0,1-1.98.6Zm0-1.187h1.309a1.287,1.287,0,0,0,.886-.273,1,1,0,0,0,.305-.781,1.173,1.173,0,0,0-.308-.845,1.149,1.149,0,0,0-.85-.332H69.878Zm7.212.84-.762.82V10H74.863V2.891h1.465V6.113l.645-.884,1.812-2.339h1.8L78.062,6.05l2.6,3.95H78.916ZM1.538,22.717l.029.664a1.925,1.925,0,0,1,1.582-.762q1.675,0,1.689,1.89V28h-.9V24.5a1.216,1.216,0,0,0-.261-.845,1.047,1.047,0,0,0-.8-.273,1.3,1.3,0,0,0-.771.234,1.592,1.592,0,0,0-.518.615V28h-.9V22.717ZM5.962,25.31a3.121,3.121,0,0,1,.305-1.4,2.277,2.277,0,0,1,.85-.957,2.313,2.313,0,0,1,1.243-.337,2.228,2.228,0,0,1,1.746.747,2.874,2.874,0,0,1,.667,1.987v.063a3.148,3.148,0,0,1-.3,1.384,2.243,2.243,0,0,1-.845.955,2.339,2.339,0,0,1-1.262.342,2.222,2.222,0,0,1-1.741-.747,2.86,2.86,0,0,1-.667-1.978Zm.908.107a2.26,2.26,0,0,0,.408,1.411,1.382,1.382,0,0,0,2.185-.007,2.472,2.472,0,0,0,.405-1.511A2.256,2.256,0,0,0,9.456,23.9a1.312,1.312,0,0,0-1.1-.54,1.3,1.3,0,0,0-1.079.532A2.453,2.453,0,0,0,6.87,25.417Zm5.884-2.7.024.586a1.951,1.951,0,0,1,1.567-.684,1.51,1.51,0,0,1,1.509.85,2,2,0,0,1,.686-.615,2.026,2.026,0,0,1,1-.234q1.738,0,1.768,1.841V28h-.9V24.514a1.213,1.213,0,0,0-.259-.847,1.14,1.14,0,0,0-.869-.281,1.2,1.2,0,0,0-.835.3,1.218,1.218,0,0,0-.386.808V28h-.908V24.538a1.008,1.008,0,0,0-1.128-1.152,1.209,1.209,0,0,0-1.216.757V28h-.9V22.717Zm12.388,2.7a3.141,3.141,0,0,1-.557,1.946,1.779,1.779,0,0,1-1.494.735,1.842,1.842,0,0,1-1.548-.708L21.5,28h-.83V20.5h.9v2.8a1.831,1.831,0,0,1,1.509-.679,1.789,1.789,0,0,1,1.511.728,3.236,3.236,0,0,1,.549,1.992Zm-.9-.1a2.441,2.441,0,0,0-.356-1.426,1.18,1.18,0,0,0-1.025-.5,1.326,1.326,0,0,0-1.284.83V26.5a1.363,1.363,0,0,0,1.294.83,1.173,1.173,0,0,0,1.011-.5A2.6,2.6,0,0,0,24.238,25.314Zm4.595-1.787a2.707,2.707,0,0,0-.444-.034,1.19,1.19,0,0,0-1.206.757V28h-.9V22.717h.879l.015.61a1.407,1.407,0,0,1,1.26-.708.923.923,0,0,1,.4.068Zm2.93,4.57a2.308,2.308,0,0,1-1.748-.706,2.619,2.619,0,0,1-.674-1.887v-.166a3.17,3.17,0,0,1,.3-1.4,2.343,2.343,0,0,1,.84-.967,2.112,2.112,0,0,1,1.169-.349,1.979,1.979,0,0,1,1.6.679,2.939,2.939,0,0,1,.571,1.943v.376H30.244a1.878,1.878,0,0,0,.457,1.262,1.435,1.435,0,0,0,1.111.481,1.573,1.573,0,0,0,.811-.2,2.037,2.037,0,0,0,.581-.518l.552.43A2.219,2.219,0,0,1,31.763,28.1Zm-.112-4.736a1.2,1.2,0,0,0-.918.4,1.934,1.934,0,0,0-.459,1.116H32.92v-.068a1.721,1.721,0,0,0-.371-1.067A1.134,1.134,0,0,0,31.65,23.361ZM5.146,43.417a3.163,3.163,0,0,1-.552,1.943A1.768,1.768,0,0,1,3.1,46.1a1.938,1.938,0,0,1-1.514-.61v2.544h-.9V40.717h.825l.044.586a1.861,1.861,0,0,1,1.533-.684,1.8,1.8,0,0,1,1.506.718,3.2,3.2,0,0,1,.554,2Zm-.9-.1A2.334,2.334,0,0,0,3.862,41.9a1.227,1.227,0,0,0-1.045-.518,1.328,1.328,0,0,0-1.23.728v2.524a1.33,1.33,0,0,0,1.24.723,1.221,1.221,0,0,0,1.033-.515A2.548,2.548,0,0,0,4.243,43.314Zm4.6-1.787a2.707,2.707,0,0,0-.444-.034A1.19,1.19,0,0,0,7.2,42.25V46h-.9V40.717h.879l.015.61a1.407,1.407,0,0,1,1.26-.708.923.923,0,0,1,.4.068Zm2.93,4.57a2.308,2.308,0,0,1-1.748-.706A2.619,2.619,0,0,1,9.355,43.5v-.166a3.17,3.17,0,0,1,.3-1.4,2.342,2.342,0,0,1,.84-.967,2.112,2.112,0,0,1,1.169-.349,1.979,1.979,0,0,1,1.6.679,2.939,2.939,0,0,1,.571,1.943v.376H10.259a1.878,1.878,0,0,0,.457,1.262,1.435,1.435,0,0,0,1.111.481,1.573,1.573,0,0,0,.811-.2,2.037,2.037,0,0,0,.581-.518l.552.43A2.219,2.219,0,0,1,11.777,46.1Zm-.112-4.736a1.2,1.2,0,0,0-.918.4,1.934,1.934,0,0,0-.459,1.116h2.646v-.068a1.721,1.721,0,0,0-.371-1.067A1.134,1.134,0,0,0,11.665,41.361Zm5.337,4a1.3,1.3,0,0,0,.845-.293,1.031,1.031,0,0,0,.4-.732H19.1a1.638,1.638,0,0,1-.312.864,2.058,2.058,0,0,1-.769.654A2.219,2.219,0,0,1,17,46.1a2.176,2.176,0,0,1-1.716-.72,2.869,2.869,0,0,1-.637-1.97v-.151a3.181,3.181,0,0,1,.283-1.372,2.157,2.157,0,0,1,.813-.933A2.309,2.309,0,0,1,17,40.619a2.119,2.119,0,0,1,1.477.532,1.9,1.9,0,0,1,.627,1.382h-.854a1.245,1.245,0,0,0-.388-.842,1.208,1.208,0,0,0-.862-.33,1.264,1.264,0,0,0-1.067.5,2.328,2.328,0,0,0-.378,1.433v.171a2.281,2.281,0,0,0,.376,1.406A1.27,1.27,0,0,0,17,45.36Zm4.1.64h-.9V40.717h.9Zm-.977-6.685a.539.539,0,0,1,.134-.371.5.5,0,0,1,.4-.151.512.512,0,0,1,.4.151.534.534,0,0,1,.137.371.516.516,0,0,1-.137.366.521.521,0,0,1-.4.146.513.513,0,0,1-.4-.146A.521.521,0,0,1,20.122,39.315ZM22.3,43.31a3.121,3.121,0,0,1,.305-1.4,2.277,2.277,0,0,1,.85-.957,2.313,2.313,0,0,1,1.243-.337,2.228,2.228,0,0,1,1.746.747,2.874,2.874,0,0,1,.667,1.987v.063a3.148,3.148,0,0,1-.3,1.384,2.243,2.243,0,0,1-.845.955,2.339,2.339,0,0,1-1.262.342,2.222,2.222,0,0,1-1.741-.747,2.86,2.86,0,0,1-.667-1.978Zm.908.107a2.26,2.26,0,0,0,.408,1.411,1.382,1.382,0,0,0,2.185-.007,2.472,2.472,0,0,0,.405-1.511A2.256,2.256,0,0,0,25.8,41.9a1.312,1.312,0,0,0-1.1-.54,1.3,1.3,0,0,0-1.079.532A2.453,2.453,0,0,0,23.213,43.417ZM3.76,62.6a.665.665,0,0,0-.276-.569,2.655,2.655,0,0,0-.962-.349,4.548,4.548,0,0,1-1.089-.352,1.549,1.549,0,0,1-.6-.488,1.168,1.168,0,0,1-.193-.674,1.37,1.37,0,0,1,.549-1.1,2.145,2.145,0,0,1,1.4-.449,2.208,2.208,0,0,1,1.458.464,1.473,1.473,0,0,1,.559,1.187H3.706a.815.815,0,0,0-.315-.64,1.18,1.18,0,0,0-.793-.269,1.235,1.235,0,0,0-.771.215.676.676,0,0,0-.278.562.548.548,0,0,0,.259.493,3.184,3.184,0,0,0,.935.317,4.872,4.872,0,0,1,1.1.361,1.6,1.6,0,0,1,.623.505,1.243,1.243,0,0,1,.2.72A1.352,1.352,0,0,1,4.1,63.67a2.376,2.376,0,0,1-1.47.427A2.66,2.66,0,0,1,1.5,63.873a1.827,1.827,0,0,1-.764-.627,1.512,1.512,0,0,1-.276-.872h.9a.935.935,0,0,0,.364.72,1.411,1.411,0,0,0,.9.266,1.457,1.457,0,0,0,.823-.208A.638.638,0,0,0,3.76,62.6Zm3.306-5.161v1.279h.986v.7H7.065V62.7a.733.733,0,0,0,.132.477.555.555,0,0,0,.449.159,2.187,2.187,0,0,0,.43-.059V64a2.634,2.634,0,0,1-.693.1,1.125,1.125,0,0,1-.913-.366,1.573,1.573,0,0,1-.308-1.04V59.415H5.2v-.7h.962V57.438Zm1.7,3.872a3.121,3.121,0,0,1,.305-1.4,2.277,2.277,0,0,1,.85-.957,2.313,2.313,0,0,1,1.243-.337,2.228,2.228,0,0,1,1.746.747,2.874,2.874,0,0,1,.667,1.987v.063a3.148,3.148,0,0,1-.3,1.384,2.243,2.243,0,0,1-.845.955,2.339,2.339,0,0,1-1.262.342,2.222,2.222,0,0,1-1.741-.747,2.86,2.86,0,0,1-.667-1.978Zm.908.107a2.26,2.26,0,0,0,.408,1.411,1.382,1.382,0,0,0,2.185-.007,2.472,2.472,0,0,0,.405-1.511,2.256,2.256,0,0,0-.413-1.409,1.312,1.312,0,0,0-1.1-.54,1.3,1.3,0,0,0-1.079.532A2.453,2.453,0,0,0,9.678,61.417Zm7.153,1.943a1.3,1.3,0,0,0,.845-.293,1.031,1.031,0,0,0,.4-.732h.854a1.638,1.638,0,0,1-.312.864,2.058,2.058,0,0,1-.769.654,2.219,2.219,0,0,1-1.018.244,2.176,2.176,0,0,1-1.716-.72,2.869,2.869,0,0,1-.637-1.97v-.151a3.181,3.181,0,0,1,.283-1.372,2.157,2.157,0,0,1,.813-.933,2.309,2.309,0,0,1,1.252-.332,2.119,2.119,0,0,1,1.477.532,1.9,1.9,0,0,1,.627,1.382h-.854a1.245,1.245,0,0,0-.388-.842,1.208,1.208,0,0,0-.862-.33,1.264,1.264,0,0,0-1.067.5,2.328,2.328,0,0,0-.378,1.433v.171a2.281,2.281,0,0,0,.376,1.406A1.27,1.27,0,0,0,16.831,63.36Zm4.59-1.807-.566.591V64h-.9V56.5h.9v4.536l.483-.581,1.646-1.738h1.1l-2.056,2.207L24.321,64h-1.06ZM1.665,82h-.9V76.717h.9ZM.688,75.315a.539.539,0,0,1,.134-.371.5.5,0,0,1,.4-.151.512.512,0,0,1,.4.151.534.534,0,0,1,.137.371.516.516,0,0,1-.137.366.521.521,0,0,1-.4.146.513.513,0,0,1-.4-.146A.521.521,0,0,1,.688,75.315Zm2.2,4a3.1,3.1,0,0,1,.576-1.956,1.822,1.822,0,0,1,1.509-.74,1.832,1.832,0,0,1,1.47.635V74.5h.9V82h-.83l-.044-.566a1.84,1.84,0,0,1-1.509.664,1.8,1.8,0,0,1-1.5-.752,3.13,3.13,0,0,1-.579-1.963Zm.9.1a2.343,2.343,0,0,0,.371,1.406,1.2,1.2,0,0,0,1.025.508,1.318,1.318,0,0,0,1.255-.771V78.133A1.328,1.328,0,0,0,5.2,77.386a1.205,1.205,0,0,0-1.035.513A2.58,2.58,0,0,0,3.794,79.417Zm8.765,3.32H8.086V82h4.473ZM13.706,82V77.415h-.835v-.7h.835v-.542a1.8,1.8,0,0,1,.454-1.313,1.715,1.715,0,0,1,1.284-.464,2.385,2.385,0,0,1,.62.082l-.049.728a2.594,2.594,0,0,0-.488-.044.881.881,0,0,0-.679.257,1.043,1.043,0,0,0-.239.737v.558h1.128v.7H14.609V82ZM20,82a1.9,1.9,0,0,1-.127-.557,2.016,2.016,0,0,1-1.5.654,1.865,1.865,0,0,1-1.282-.442,1.43,1.43,0,0,1-.5-1.121,1.494,1.494,0,0,1,.627-1.282,2.958,2.958,0,0,1,1.765-.457h.879v-.415a1.015,1.015,0,0,0-.283-.754,1.138,1.138,0,0,0-.835-.281,1.317,1.317,0,0,0-.811.244.719.719,0,0,0-.327.591h-.908a1.247,1.247,0,0,1,.281-.764,1.916,1.916,0,0,1,.762-.583,2.563,2.563,0,0,1,1.057-.215,2.089,2.089,0,0,1,1.431.457,1.647,1.647,0,0,1,.537,1.257v2.432a2.973,2.973,0,0,0,.186,1.157V82Zm-1.5-.688a1.588,1.588,0,0,0,.806-.22,1.329,1.329,0,0,0,.552-.571V79.437h-.708q-1.66,0-1.66.972a.822.822,0,0,0,.283.664A1.089,1.089,0,0,0,18.5,81.312Zm5.8.049a1.3,1.3,0,0,0,.845-.293,1.031,1.031,0,0,0,.4-.732h.854a1.638,1.638,0,0,1-.312.864,2.058,2.058,0,0,1-.769.654,2.219,2.219,0,0,1-1.018.244,2.176,2.176,0,0,1-1.716-.72,2.869,2.869,0,0,1-.637-1.97v-.151a3.181,3.181,0,0,1,.283-1.372,2.157,2.157,0,0,1,.813-.933,2.309,2.309,0,0,1,1.252-.332,2.119,2.119,0,0,1,1.477.532,1.9,1.9,0,0,1,.627,1.382h-.854a1.245,1.245,0,0,0-.388-.842,1.208,1.208,0,0,0-.862-.33,1.264,1.264,0,0,0-1.067.5,2.328,2.328,0,0,0-.378,1.433v.171a2.281,2.281,0,0,0,.376,1.406A1.27,1.27,0,0,0,24.292,81.36Zm4.341-5.923v1.279h.986v.7h-.986V80.7a.733.733,0,0,0,.132.477.555.555,0,0,0,.449.159,2.187,2.187,0,0,0,.43-.059V82a2.634,2.634,0,0,1-.693.1,1.125,1.125,0,0,1-.913-.366,1.573,1.573,0,0,1-.308-1.04V77.415h-.962v-.7h.962V75.438Zm5.3,6.04a1.919,1.919,0,0,1-1.548.62,1.642,1.642,0,0,1-1.287-.491,2.124,2.124,0,0,1-.447-1.453V76.717h.9V80.13q0,1.2.977,1.2a1.352,1.352,0,0,0,1.377-.771V76.717h.9V82h-.859Zm4.8-3.95a2.707,2.707,0,0,0-.444-.034,1.19,1.19,0,0,0-1.206.757V82h-.9V76.717h.879l.015.61a1.407,1.407,0,0,1,1.26-.708.923.923,0,0,1,.4.068ZM42.637,82a1.9,1.9,0,0,1-.127-.557,2.016,2.016,0,0,1-1.5.654,1.865,1.865,0,0,1-1.282-.442,1.43,1.43,0,0,1-.5-1.121,1.494,1.494,0,0,1,.627-1.282,2.958,2.958,0,0,1,1.765-.457H42.5v-.415a1.015,1.015,0,0,0-.283-.754,1.138,1.138,0,0,0-.835-.281,1.317,1.317,0,0,0-.811.244.719.719,0,0,0-.327.591h-.908a1.247,1.247,0,0,1,.281-.764,1.916,1.916,0,0,1,.762-.583,2.563,2.563,0,0,1,1.057-.215,2.089,2.089,0,0,1,1.431.457,1.647,1.647,0,0,1,.537,1.257v2.432a2.973,2.973,0,0,0,.186,1.157V82Zm-1.5-.688a1.588,1.588,0,0,0,.806-.22,1.329,1.329,0,0,0,.552-.571V79.437h-.708q-1.66,0-1.66.972a.822.822,0,0,0,.283.664A1.089,1.089,0,0,0,41.138,81.312Zm4.736-1.322a2.914,2.914,0,0,1,.132-.917,2.351,2.351,0,0,1,.5-.746l.64-.658a1.475,1.475,0,0,0,.41-.994,1.134,1.134,0,0,0-.269-.8,1.013,1.013,0,0,0-.781-.29,1.176,1.176,0,0,0-.8.264.891.891,0,0,0-.3.708h-.9a1.645,1.645,0,0,1,.564-1.277,2.109,2.109,0,0,1,1.443-.486,1.991,1.991,0,0,1,1.438.495,1.794,1.794,0,0,1,.515,1.358,2.454,2.454,0,0,1-.791,1.682l-.532.527a1.64,1.64,0,0,0-.356,1.136Zm-.039,1.551a.538.538,0,0,1,.134-.372.506.506,0,0,1,.4-.15.514.514,0,0,1,.4.15.533.533,0,0,1,.137.372.515.515,0,0,1-.137.367.523.523,0,0,1-.4.145.483.483,0,0,1-.532-.513ZM50.6,79.99a2.914,2.914,0,0,1,.132-.917,2.351,2.351,0,0,1,.5-.746l.64-.658a1.475,1.475,0,0,0,.41-.994,1.134,1.134,0,0,0-.269-.8,1.013,1.013,0,0,0-.781-.29,1.176,1.176,0,0,0-.8.264.891.891,0,0,0-.3.708h-.9a1.645,1.645,0,0,1,.564-1.277,2.109,2.109,0,0,1,1.443-.486,1.991,1.991,0,0,1,1.438.495,1.794,1.794,0,0,1,.515,1.358,2.454,2.454,0,0,1-.791,1.682l-.532.527A1.64,1.64,0,0,0,51.5,79.99Zm-.039,1.551a.538.538,0,0,1,.134-.372.506.506,0,0,1,.4-.15.514.514,0,0,1,.4.15.533.533,0,0,1,.137.372.515.515,0,0,1-.137.367.523.523,0,0,1-.4.145.483.483,0,0,1-.532-.513ZM63.271,78.86H60.288V82h-.937V74.891h4.4v.767H60.288v2.437h2.983Zm3.413-.166-.869.9V82h-.937V74.891h.938v3.516l3.159-3.516h1.133l-2.8,3.14L70.327,82H69.2Z" transform="translate(1303.006 9658.435)" fill="#12263f"/>
    <path id="Trazado_877301" data-name="Trazado 877301" d="M4.912,7.095H2.1V10H.635V2.891H5.264V4.077H2.1V5.913H4.912Zm4.277,1.44H6.621L6.133,10H4.575L7.222,2.891H8.579L11.24,10H9.683ZM7.017,7.349H8.794L7.9,4.688Zm10.366.283a2.516,2.516,0,0,1-.847,1.807,2.975,2.975,0,0,1-2.014.659,2.675,2.675,0,0,1-2.151-.92,3.774,3.774,0,0,1-.784-2.527V6.216a4.262,4.262,0,0,1,.361-1.807,2.708,2.708,0,0,1,1.033-1.2,2.893,2.893,0,0,1,1.56-.417,2.9,2.9,0,0,1,1.982.659A2.7,2.7,0,0,1,17.393,5.3H15.928a1.485,1.485,0,0,0-.383-1,1.419,1.419,0,0,0-1-.31,1.245,1.245,0,0,0-1.1.525,2.942,2.942,0,0,0-.374,1.628v.537a3.148,3.148,0,0,0,.349,1.685,1.222,1.222,0,0,0,1.1.532,1.446,1.446,0,0,0,1.013-.31,1.4,1.4,0,0,0,.383-.959Zm6.172-3.555H21.377V10H19.912V4.077H17.764V2.891h5.791Zm6.216-1.187V7.573a2.4,2.4,0,0,1-.73,1.846,2.814,2.814,0,0,1-1.995.679,2.846,2.846,0,0,1-1.978-.659,2.356,2.356,0,0,1-.747-1.812V2.891h1.465V7.583A1.355,1.355,0,0,0,26.121,8.6a1.284,1.284,0,0,0,.925.32q1.235,0,1.255-1.3V2.891ZM33.6,7.4H32.437V10H30.972V2.891h2.642a2.986,2.986,0,0,1,1.943.562,1.938,1.938,0,0,1,.684,1.587,2.187,2.187,0,0,1-.315,1.213,2.148,2.148,0,0,1-.955.774l1.538,2.905V10H34.937ZM32.437,6.211h1.182a1.21,1.21,0,0,0,.854-.281,1,1,0,0,0,.3-.774,1.074,1.074,0,0,0-.286-.791,1.187,1.187,0,0,0-.876-.288H32.437Zm8.931,2.324H38.8L38.311,10H36.753L39.4,2.891h1.357L43.418,10H41.86ZM39.194,7.349h1.777l-.894-2.661Z" transform="translate(1098.006 9638.435)" fill="#12263f"/>
    <path id="Trazado_877302" data-name="Trazado 877302" d="M2.1,7.5V10H.635V2.891H3.408a3.209,3.209,0,0,1,1.409.293,2.159,2.159,0,0,1,.935.833,2.321,2.321,0,0,1,.327,1.228,2.041,2.041,0,0,1-.715,1.648,2.979,2.979,0,0,1-1.98.6Zm0-1.187H3.408a1.287,1.287,0,0,0,.886-.273A1,1,0,0,0,4.6,5.254a1.173,1.173,0,0,0-.308-.845,1.149,1.149,0,0,0-.85-.332H2.1ZM9.717,7.4H8.55V10H7.085V2.891H9.727a2.986,2.986,0,0,1,1.943.562,1.938,1.938,0,0,1,.684,1.587,2.187,2.187,0,0,1-.315,1.213,2.148,2.148,0,0,1-.955.774l1.538,2.905V10H11.05ZM8.55,6.211H9.731a1.21,1.21,0,0,0,.854-.281,1,1,0,0,0,.3-.774,1.074,1.074,0,0,0-.286-.791,1.187,1.187,0,0,0-.876-.288H8.55Zm10.757.4a4.292,4.292,0,0,1-.371,1.841,2.8,2.8,0,0,1-1.062,1.221,3.138,3.138,0,0,1-3.162,0,2.822,2.822,0,0,1-1.074-1.213,4.169,4.169,0,0,1-.386-1.814V6.294a4.269,4.269,0,0,1,.378-1.848A2.818,2.818,0,0,1,14.7,3.22a3.134,3.134,0,0,1,3.159,0,2.818,2.818,0,0,1,1.069,1.226,4.257,4.257,0,0,1,.378,1.843Zm-1.484-.322a2.992,2.992,0,0,0-.4-1.7,1.414,1.414,0,0,0-2.28-.007,2.958,2.958,0,0,0-.405,1.682v.347a3.029,3.029,0,0,0,.4,1.689,1.4,1.4,0,0,0,2.285.022,3.012,3.012,0,0,0,.4-1.687ZM20.371,10V2.891h2.188a3.322,3.322,0,0,1,1.677.422,2.945,2.945,0,0,1,1.155,1.2,3.7,3.7,0,0,1,.415,1.77v.327A3.715,3.715,0,0,1,25.4,8.374a2.92,2.92,0,0,1-1.15,1.2,3.347,3.347,0,0,1-1.675.43Zm1.465-5.923V8.823h.708a1.591,1.591,0,0,0,1.313-.562,2.537,2.537,0,0,0,.464-1.606V6.279a2.578,2.578,0,0,0-.449-1.643,1.585,1.585,0,0,0-1.313-.559ZM32.251,2.891V7.573a2.4,2.4,0,0,1-.73,1.846,2.814,2.814,0,0,1-1.995.679,2.846,2.846,0,0,1-1.978-.659A2.356,2.356,0,0,1,26.8,7.627V2.891h1.465V7.583A1.355,1.355,0,0,0,28.6,8.6a1.284,1.284,0,0,0,.925.32q1.235,0,1.255-1.3V2.891Zm6.782,4.741a2.516,2.516,0,0,1-.847,1.807,2.975,2.975,0,0,1-2.014.659,2.675,2.675,0,0,1-2.151-.92,3.774,3.774,0,0,1-.784-2.527V6.216A4.262,4.262,0,0,1,33.6,4.409a2.708,2.708,0,0,1,1.033-1.2,3.227,3.227,0,0,1,3.542.242A2.7,2.7,0,0,1,39.043,5.3H37.578a1.485,1.485,0,0,0-.383-1,1.419,1.419,0,0,0-1-.31,1.245,1.245,0,0,0-1.1.525,2.942,2.942,0,0,0-.374,1.628v.537a3.149,3.149,0,0,0,.349,1.685,1.222,1.222,0,0,0,1.1.532,1.446,1.446,0,0,0,1.013-.31,1.4,1.4,0,0,0,.383-.959Zm6.172-3.555H43.027V10H41.563V4.077H39.414V2.891h5.791Zm6.538,2.529a4.292,4.292,0,0,1-.371,1.841A2.8,2.8,0,0,1,50.31,9.668a3.138,3.138,0,0,1-3.162,0,2.822,2.822,0,0,1-1.074-1.213,4.169,4.169,0,0,1-.386-1.814V6.294a4.269,4.269,0,0,1,.378-1.848A2.818,2.818,0,0,1,47.136,3.22a3.134,3.134,0,0,1,3.159,0,2.818,2.818,0,0,1,1.069,1.226,4.257,4.257,0,0,1,.378,1.843Zm-1.484-.322a2.992,2.992,0,0,0-.4-1.7,1.414,1.414,0,0,0-2.28-.007,2.958,2.958,0,0,0-.405,1.682v.347a3.029,3.029,0,0,0,.4,1.689,1.4,1.4,0,0,0,2.285.022,3.012,3.012,0,0,0,.4-1.687Z" transform="translate(1300.006 9638.435)" fill="#12263f"/>
    <g id="Grupo_1102806" data-name="Grupo 1102806" transform="translate(-5963.994 11379.435)">
      <line id="Línea_1689" data-name="Línea 1689" x2="82" transform="translate(6968.5 -1684.5)" fill="none" stroke="#fff" stroke-width="1.5"/>
      <line id="Línea_1690" data-name="Línea 1690" y2="10" transform="translate(6974.5 -1689.5)" fill="none" stroke="#fff" stroke-width="1.5"/>
      <line id="Línea_1691" data-name="Línea 1691" y2="10" transform="translate(7035.5 -1689.5)" fill="none" stroke="#fff" stroke-width="1.5"/>
      <line id="Línea_1692" data-name="Línea 1692" x1="15" y2="8" transform="translate(7035.5 -1692.5)" fill="none" stroke="#fff" stroke-width="1.5"/>
      <line id="Línea_1693" data-name="Línea 1693" x1="15" y1="8" transform="translate(7035.5 -1684.5)" fill="none" stroke="#fff" stroke-width="1.5"/>
    </g>
    <g id="Grupo_1102807" data-name="Grupo 1102807" transform="translate(-5963.994 11473.435)">
      <line id="Línea_1689-2" data-name="Línea 1689" x2="82" transform="translate(7164 -1778.5)" fill="none" stroke="#fff" stroke-width="1.5"/>
      <line id="Línea_1690-2" data-name="Línea 1690" y2="10" transform="translate(7179 -1783.5)" fill="none" stroke="#fff" stroke-width="1.5"/>
      <line id="Línea_1691-2" data-name="Línea 1691" y2="10" transform="translate(7231 -1783.5)" fill="none" stroke="#fff" stroke-width="1.5"/>
      <line id="Línea_1692-2" data-name="Línea 1692" x1="15" y2="8" transform="translate(7231 -1786.5)" fill="none" stroke="#fff" stroke-width="1.5"/>
      <line id="Línea_1694" data-name="Línea 1694" x2="15" y2="8" transform="translate(7164 -1786.5)" fill="none" stroke="#fff" stroke-width="1.5"/>
      <line id="Línea_1693-2" data-name="Línea 1693" x1="15" y1="8" transform="translate(7231 -1778.5)" fill="none" stroke="#fff" stroke-width="1.5"/>
      <line id="Línea_1695" data-name="Línea 1695" y1="8" x2="15" transform="translate(7164 -1778.5)" fill="none" stroke="#fff" stroke-width="1.5"/>
    </g>
    <path id="Trazado_877278" data-name="Trazado 877278" d="M7050.5-1678" transform="translate(-5963.994 11379.435)" fill="none" stroke="#707070" stroke-width="1"/>
  </g>
</svg>
