<svg xmlns="http://www.w3.org/2000/svg" width="139.826" height="139.826" viewBox="0 0 139.826 139.826">
  <g id="Grupo_1102803" data-name="Grupo 1102803" transform="translate(-208.087 -7569.064)">
    <g id="Grupo_1100005" data-name="Grupo 1100005" transform="translate(-210.913 6448.064)">
      <path id="Trazado_824488" data-name="Trazado 824488" d="M69.913,0A69.913,69.913,0,1,1,0,69.913,69.913,69.913,0,0,1,69.913,0Z" transform="translate(419 1121)" fill="#be79ca"/>
      <g id="archivo-pdf_1_" data-name="archivo-pdf (1)" transform="translate(447.102 1145.218)">
        <g id="Grupo_1096603" data-name="Grupo 1096603" transform="translate(1.339 1.339)">
          <g id="Grupo_1096601" data-name="Grupo 1096601">
            <path id="Trazado_842680" data-name="Trazado 842680" d="M92.181,81.6H42.949a5.355,5.355,0,0,1-5.355-5.355V12.855A5.355,5.355,0,0,1,42.949,7.5H92.181a5.355,5.355,0,0,1,5.355,5.355V76.246A5.355,5.355,0,0,1,92.181,81.6Z" transform="translate(-32.222 -7.5)" fill="#f7f6f7"/>
            <path id="Trazado_842681" data-name="Trazado 842681" d="M318.761,7.5h-5.355a5.355,5.355,0,0,1,5.355,5.355V76.246a5.355,5.355,0,0,1-5.355,5.355h5.355a5.355,5.355,0,0,0,5.355-5.355V12.855A5.355,5.355,0,0,0,318.761,7.5Z" transform="translate(-258.802 -7.5)" fill="#e2d8ec"/>
            <path id="Trazado_842682" data-name="Trazado 842682" d="M72.831,256.407H12.855A5.355,5.355,0,0,1,7.5,251.052v-43.2a5.355,5.355,0,0,1,5.355-5.355H38.977a4.641,4.641,0,0,1,4.5,3.515l.92,3.679a4.641,4.641,0,0,0,4.5,3.515H72.831a5.355,5.355,0,0,1,5.355,5.355v32.487A5.355,5.355,0,0,1,72.831,256.407Z" transform="translate(-7.5 -167.693)" fill="#f7e07f"/>
            <g id="Grupo_1096600" data-name="Grupo 1096600" transform="translate(26.122 34.807)">
              <path id="Trazado_842683" data-name="Trazado 842683" d="M158.344,206.015l.92,3.679a4.641,4.641,0,0,0,4.5,3.515h5.355a4.641,4.641,0,0,1-4.5-3.515l-.92-3.679a4.641,4.641,0,0,0-4.5-3.515h-5.355A4.641,4.641,0,0,1,158.344,206.015Z" transform="translate(-153.842 -202.5)" fill="#f0d16f"/>
              <path id="Trazado_842684" data-name="Trazado 842684" d="M348.855,262.5H343.5a5.355,5.355,0,0,1,5.355,5.355v32.487A5.355,5.355,0,0,1,343.5,305.7h5.355a5.355,5.355,0,0,0,5.355-5.355V267.855A5.355,5.355,0,0,0,348.855,262.5Z" transform="translate(-309.646 -251.79)" fill="#f0d16f"/>
            </g>
            <path id="Trazado_842685" data-name="Trazado 842685" d="M129.408,60.532H89.441a.893.893,0,0,1-.892-.892V53.392a.893.893,0,0,1,.892-.893h39.966a.893.893,0,0,1,.892.893V59.64A.893.893,0,0,1,129.408,60.532Z" transform="translate(-74.082 -44.468)" fill="#e2dfe3"/>
          </g>
          <g id="Grupo_1096602" data-name="Grupo 1096602" transform="translate(55.251 55.251)">
            <path id="Trazado_850923" data-name="Trazado 850923" d="M16.731,0A16.731,16.731,0,1,1,0,16.731,16.731,16.731,0,0,1,16.731,0Z" transform="translate(0 0)" fill="#79cd34"/>
            <path id="Trazado_842686" data-name="Trazado 842686" d="M398.444,317.033a16.865,16.865,0,0,0-2.677.214,16.733,16.733,0,0,1,0,33.034,16.732,16.732,0,1,0,2.677-33.248Z" transform="translate(-381.713 -317.033)" fill="#529918"/>
            <path id="Trazado_842687" data-name="Trazado 842687" d="M374.064,369.741V358.78a1.01,1.01,0,0,1,1.01-1.01h4.2a1.01,1.01,0,0,1,1.01,1.01v10.962a1.009,1.009,0,0,0,1.01,1.01h2.31a.865.865,0,0,1,.612,1.477l-6.329,6.329a1.01,1.01,0,0,1-1.428,0l-6.329-6.329a.866.866,0,0,1,.612-1.477h2.31A1.01,1.01,0,0,0,374.064,369.741Z" transform="translate(-360.445 -350.498)" fill="#fff"/>
          </g>
        </g>
        <path id="Trazado_842688" data-name="Trazado 842688" d="M57.557,24.1H15.806a1.339,1.339,0,0,0,0,2.677H57.557a1.339,1.339,0,0,0,0-2.677ZM56.665,8.032H47.807a1.339,1.339,0,1,0,0,2.677h8.411v5.355H17.145V10.71H41.56a1.339,1.339,0,0,0,0-2.677H16.7a2.234,2.234,0,0,0-2.231,2.231v6.247A2.234,2.234,0,0,0,16.7,18.742H56.664A2.234,2.234,0,0,0,58.9,16.511V10.264a2.233,2.233,0,0,0-2.231-2.231Zm.893,21.42H15.806a1.339,1.339,0,0,0,0,2.677H57.557a1.339,1.339,0,0,0,0-2.677Zm0,10.71H42.581a1.339,1.339,0,0,0,0,2.677H57.557a1.339,1.339,0,0,0,0-2.677Zm0-5.355H42.581a1.339,1.339,0,0,0,0,2.677H57.557a1.339,1.339,0,0,0,0-2.677ZM73.363,55.252V52.211a6.7,6.7,0,0,0-5.371-6.562V6.694A6.7,6.7,0,0,0,61.3,0H12.065A6.7,6.7,0,0,0,5.371,6.694V34.939A6.7,6.7,0,0,0,0,41.5v19a1.339,1.339,0,1,0,2.677,0v-19a4.021,4.021,0,0,1,4.016-4.016H32.815a3.3,3.3,0,0,1,3.2,2.5l.919,3.681a5.969,5.969,0,0,0,5.8,4.529h23.93a4.021,4.021,0,0,1,4.016,4.016v3.233a18.066,18.066,0,0,0-6.82,33.27H6.694A4.02,4.02,0,0,1,2.677,84.7V66.744a1.339,1.339,0,1,0-2.677,0V84.7a6.7,6.7,0,0,0,6.694,6.694H66.669a6.608,6.608,0,0,0,2.495-.484,18.07,18.07,0,1,0,4.2-35.656Zm-8.049-9.735H42.74a3.3,3.3,0,0,1-3.2-2.5l-.92-3.682a5.974,5.974,0,0,0-5.8-4.528H8.048V6.694a4.021,4.021,0,0,1,4.016-4.016H61.3a4.021,4.021,0,0,1,4.016,4.016Zm8.007,43.2A15.392,15.392,0,1,1,88.714,73.321,15.41,15.41,0,0,1,73.321,88.714ZM79.753,75.5H77.772V64.871a2.351,2.351,0,0,0-2.348-2.348h-4.2a2.351,2.351,0,0,0-2.348,2.348V75.5H66.89a2.2,2.2,0,0,0-1.558,3.763L71.661,85.6a2.351,2.351,0,0,0,3.321,0l6.329-6.329A2.2,2.2,0,0,0,79.753,75.5ZM73.321,83.47l-5.289-5.289H69.2a2.351,2.351,0,0,0,2.348-2.348V65.2h3.546V75.833a2.351,2.351,0,0,0,2.348,2.348H78.61ZM51.328,63.9a1.339,1.339,0,0,0,0-2.677H46.514a1.339,1.339,0,0,0-1.339,1.339V74.437a1.339,1.339,0,0,0,2.677,0V69.724h3.093a1.339,1.339,0,1,0,0-2.677H47.853V63.9ZM33.792,75.776h0c.1,0,2.443-.009,3.38-.026,3.423-.06,5.908-3.054,5.908-7.119,0-4.273-2.422-7.144-6.028-7.144H33.769a1.339,1.339,0,0,0-1.339,1.341v11.42a1.487,1.487,0,0,0,1.362,1.527Zm3.265-11.612c2.47,0,3.35,2.307,3.35,4.467,0,3.029-1.646,4.413-3.277,4.442-.458.008-1.286.014-2,.019,0-1.373-.014-7.5-.017-8.927h1.948ZM23.373,74.437V70.571c.709,0,1.532-.007,1.993-.007a4.716,4.716,0,1,0,0-9.431H22.035A1.354,1.354,0,0,0,20.7,62.472V74.437a1.339,1.339,0,0,0,2.677,0ZM25.366,63.81a2.039,2.039,0,1,1,0,4.076c-.457,0-1.271,0-1.977.007,0-.729-.01-3.321-.012-4.083Z" transform="translate(0)"/>
      </g>
    </g>
  </g>
</svg>
